<svg xmlns:xlink="http://www.w3.org/1999/xlink" xmlns="http://www.w3.org/2000/svg" version="1.1" viewBox="0 0 1080 1080" height="1080px" width="1080px">
    <title>Empty state_account</title>
    <defs>
        <linearGradient id="linearGradient-1" y2="49.4954%" x2="-25.0486869%" y1="49.4954%" x1="120.941313%">
            <stop offset="0%" stop-opacity="0" stop-color="#C8CACD"></stop>
            <stop offset="100%" stop-color="#B2B4B8"></stop>
        </linearGradient>
        <linearGradient id="linearGradient-2" y2="100.079736%" x2="47.7180444%" y1="9.74361973%" x1="51.6935863%">
            <stop offset="0%" stop-color="#F4F5F5"></stop>
            <stop offset="100%" stop-color="#B3B5B9"></stop>
        </linearGradient>
        <linearGradient id="linearGradient-3" y2="99.8533457%" x2="51.713845%" y1="7.4888973%" x1="49.2690373%">
            <stop offset="0%" stop-color="#F3F4F4"></stop>
            <stop offset="100%" stop-color="#B3B5B9"></stop>
        </linearGradient>
        <linearGradient id="linearGradient-4" y2="-44.1493651%" x2="49.934217%" y1="100.010635%" x1="49.934217%">
            <stop offset="0%" stop-color="#F8F8F9"></stop>
            <stop offset="100%" stop-color="#E2E3E4"></stop>
        </linearGradient>
        <linearGradient id="linearGradient-5" y2="2.87711651%" x2="49.9950427%" y1="99.6392758%" x1="49.9950427%">
            <stop offset="0%" stop-opacity="0" stop-color="#F4F5F5"></stop>
            <stop offset="100%" stop-color="#EEEFF0"></stop>
        </linearGradient>
        <linearGradient id="linearGradient-6" y2="2.85491453%" x2="50.0012082%" y1="99.7049145%" x1="50.0012082%">
            <stop offset="0%" stop-opacity="0" stop-color="#F4F5F5"></stop>
            <stop offset="100%" stop-color="#EEEFF0"></stop>
        </linearGradient>
        <linearGradient id="linearGradient-7" y2="0.0988387978%" x2="49.9970261%" y1="99.9963798%" x1="49.9970261%">
            <stop offset="0.2903294%" stop-opacity="0" stop-color="#F4F5F5"></stop>
            <stop offset="97.98%" stop-color="#F0F1F2"></stop>
        </linearGradient>
        <linearGradient id="linearGradient-8" y2="99.9858081%" x2="47.0187475%" y1="9.36633848%" x1="52.3452688%">
            <stop offset="0%" stop-color="#F4F5F5"></stop>
            <stop offset="100%" stop-color="#B3B5B9"></stop>
        </linearGradient>
        <linearGradient id="linearGradient-9" y2="99.6659271%" x2="52.4577426%" y1="7.50436304%" x1="48.885635%">
            <stop offset="0%" stop-color="#F3F4F4"></stop>
            <stop offset="100%" stop-color="#B3B5B9"></stop>
        </linearGradient>
        <linearGradient id="linearGradient-10" y2="100.308672%" x2="46.8965965%" y1="9.7865285%" x1="52.2450867%">
            <stop offset="0%" stop-color="#F4F5F5"></stop>
            <stop offset="100%" stop-color="#B3B5B9"></stop>
        </linearGradient>
        <linearGradient id="linearGradient-11" y2="99.6736808%" x2="52.4643686%" y1="7.45308553%" x1="48.767651%">
            <stop offset="0%" stop-color="#F3F4F4"></stop>
            <stop offset="100%" stop-color="#B3B5B9"></stop>
        </linearGradient>
        <linearGradient id="linearGradient-12" y2="99.9901497%" x2="49.9490606%" y1="-0.00197229987%" x1="49.9490606%">
            <stop offset="0%" stop-color="#F4F5F5"></stop>
            <stop offset="100%" stop-color="#D7D8DA"></stop>
        </linearGradient>
        <linearGradient id="linearGradient-13" y2="99.9881802%" x2="49.9490606%" y1="-0.00394180431%" x1="49.9490606%">
            <stop offset="0%" stop-color="#EEEFF0"></stop>
            <stop offset="100%" stop-color="#D7D8DA"></stop>
        </linearGradient>
        <linearGradient id="linearGradient-14" y2="100.064435%" x2="50.0243893%" y1="0.484272207%" x1="50.0243893%">
            <stop offset="0%" stop-color="#E5E5E7"></stop>
            <stop offset="100%" stop-opacity="0.09743772" stop-color="#FFFFFF"></stop>
        </linearGradient>
        <linearGradient id="linearGradient-15" y2="100.067637%" x2="50.0243893%" y1="0.48721577%" x1="50.0243893%">
            <stop offset="0%" stop-color="#FFFFFF"></stop>
            <stop offset="100%" stop-opacity="0.09743772" stop-color="#FFFFFF"></stop>
        </linearGradient>
        <linearGradient id="linearGradient-16" y2="49.9736458%" x2="0.0405120593%" y1="49.9974639%" x1="130.964948%">
            <stop offset="0%" stop-color="#EAEAEB"></stop>
            <stop offset="100%" stop-color="#C3C4C8"></stop>
        </linearGradient>
        <linearGradient id="linearGradient-17" y2="98.8337889%" x2="57.6793694%" y1="2.48380112%" x1="42.5315104%">
            <stop offset="0%" stop-color="#F9F9FA"></stop>
            <stop offset="100%" stop-color="#BBBDC1"></stop>
        </linearGradient>
        <linearGradient id="linearGradient-18" y2="100.03543%" x2="50.005388%" y1="-0.0164787786%" x1="50.005388%">
            <stop offset="0%" stop-color="#EFF0F1"></stop>
            <stop offset="100%" stop-color="#BBBDC1"></stop>
        </linearGradient>
        <linearGradient id="linearGradient-19" y2="122.529048%" x2="45.8969841%" y1="-23.8209524%" x1="54.0569841%">
            <stop offset="0%" stop-color="#BCBEC1"></stop>
            <stop offset="100%" stop-color="#F3F4F4"></stop>
        </linearGradient>
        <linearGradient id="linearGradient-20" y2="-20.2810302%" x2="70.8129722%" y1="49.925273%" x1="0.606669049%">
            <stop offset="0%" stop-color="#FFFFFF"></stop>
            <stop offset="100%" stop-opacity="0.4778" stop-color="#FFFFFF"></stop>
        </linearGradient>
    </defs>
    <g opacity="0.9" fill-rule="evenodd" fill="none" stroke-width="1" stroke="none" id="基础组件">
        <g fill-rule="nonzero" id="Empty-state_account">
            <g id="账号禁用-_x28_1_x29_">
                <g id="编组-14">
                    <rect height="1080" width="1080" y="0" x="0" fill="#FFFFFF" fill-opacity="0" id="矩形"></rect>
                    <ellipse ry="15" rx="148.5" cy="881.7" cx="540" opacity="0.331" fill="url(#linearGradient-1)" id="椭圆形"></ellipse>
                    <g transform="translate(167.280914, 585.933208)" opacity="0.7794" id="编组备份-2">
                        <ellipse ry="5.4" rx="17.4" cy="82.1667916" cx="47.5190857" opacity="0.5988" fill="#9DA0A6" id="椭圆形_1_"></ellipse>
                        <path opacity="0.5765" fill="url(#linearGradient-2)" id="椭圆形_2_" d="M32.2190857,82.1667916 C37.0190857,84.2667916 60.4190857,47.6667916 63.7190857,38.0667916 C67.0190857,28.4667916 63.4190857,17.6667916 55.6190857,14.3667916 C47.8190857,11.0667916 38.8190857,16.1667916 35.5190857,26.0667916 C32.2190857,35.9667916 27.1190857,80.0667916 32.2190857,82.1667916 Z"></path>
                        <path fill="url(#linearGradient-3)" id="椭圆形_3_" d="M33.1190857,82.1667916 C39.1190857,80.3667916 38.2190857,28.4667916 35.2190857,16.7667916 C32.2190857,5.06679156 22.3190857,-2.13320844 12.7190857,0.56679156 C3.11908572,3.26679156 -1.98091428,14.9667916 0.719085721,26.6667916 C3.41908572,38.3667916 27.1190857,83.9667916 33.1190857,82.1667916 Z"></path>
                    </g>
                    <path opacity="0.7" fill="url(#linearGradient-4)" id="形状结合" d="M255.3,245.7 C254.1,245.7 252.9,245.7 251.7,245.4 C250.2,245.7 248.7,245.7 247.2,245.7 C224.1,245.7 205.5,227.1 205.5,203.7 C205.5,180.3 223.8,162 246.9,162 C249.6,162 252.3,162.3 254.7,162.6 C264.3,144.6 283.2,132.3 305.1,132.3 C336.3,132.3 361.8,157.8 361.8,189 L361.8,189 L395.7,189 C411.3,189 423.9,201.6 423.9,217.2 C423.9,232.8 411.3,245.7 395.7,245.7 L255.3,245.7 Z"></path>
                    <g transform="translate(108.000000, 658.800000)" id="编组-2">
                        <path fill="url(#linearGradient-5)" id="路径" d="M0,140.4 C46.8,71.7 91.8,37.2 134.4,37.2 C177,37.2 225.9,71.7 280.8,140.4 L0,140.4 Z"></path>
                        <path fill="url(#linearGradient-6)" id="路径-2" d="M166.2,140.4 C215.7,46.8 268.8,0 325.2,0 C381.6,0 484.2,46.8 633,140.4 L166.2,140.4 Z"></path>
                        <path fill="url(#linearGradient-7)" id="路径-3" d="M864,140.4 C812.4,67.2 763.5,30.6 717.9,30.6 C672.3,30.6 598.5,67.2 496.8,140.4 L864,140.4 Z"></path>
                    </g>
                    <g transform="translate(772.258625, 537.253152)" id="编组-62">
                        <ellipse ry="4.2" rx="13.5" cy="57.9468484" cx="37.7413755" opacity="0.6699" fill="#9DA0A6" id="椭圆形_4_"></ellipse>
                        <path opacity="0.5765" fill="url(#linearGradient-8)" id="椭圆形_5_" d="M26.0413755,57.9468484 C29.9413755,59.4468484 47.6413755,33.3468484 50.3413755,26.4468484 C53.0413755,19.5468484 50.0413755,12.0468484 44.3413755,9.64684836 C38.6413755,7.24684836 31.4413755,11.1468484 28.7413755,18.0468484 C26.0413755,24.6468484 22.4413755,56.4468484 26.0413755,57.9468484 Z"></path>
                        <path fill="url(#linearGradient-9)" id="椭圆形_6_" d="M25.4413755,57.9468484 C30.2413755,56.7468484 29.3413755,20.1468484 27.2413755,12.0468484 C25.1413755,3.94684836 17.0413755,-1.45315164 9.84137547,0.34684836 C2.64137547,2.14684836 -1.55862453,10.5468484 0.541375469,18.6468484 C2.64137547,26.7468484 20.9413755,59.1468484 25.4413755,57.9468484 Z"></path>
                    </g>
                    <g transform="translate(796.611629, 788.332340)" opacity="0.8969" id="编组">
                        <ellipse ry="5.4" rx="17.7" cy="97.2676598" cx="56.2883711" opacity="0.5969" fill="#9DA0A6" id="椭圆形_7_"></ellipse>
                        <path opacity="0.5765" fill="url(#linearGradient-10)" id="椭圆形_8_" d="M43.6883711,98.1676598 C49.9883711,100.56766 80.2883711,56.4676598 84.7883711,44.7676598 C89.2883711,33.0676598 84.4883711,20.1676598 74.2883711,16.2676598 C64.0883711,12.3676598 52.3883711,18.6676598 47.8883711,30.3676598 C43.3883711,42.0676598 37.3883711,95.7676598 43.6883711,98.1676598 Z"></path>
                        <path fill="url(#linearGradient-11)" id="椭圆形_9_" d="M43.6883711,98.4676598 C51.7883711,96.3676598 50.5883711,34.2676598 46.6883711,20.4676598 C42.7883711,6.66765977 29.2883711,-2.63234023 16.6883711,0.667659768 C4.08837108,3.96765977 -2.81162892,18.0676598 1.08837108,32.1676598 C4.98837108,46.2676598 35.5883711,100.56766 43.6883711,98.4676598 Z"></path>
                    </g>
                </g>
                <g transform="translate(226.940838, 329.400000)" id="编组-9">
                    <g fill="#CCCED1" transform="translate(0.000000, 99.701490)" id="编组-4">
                        <path id="形状结合_1_" d="M151.9548,157.2 C167.8548,157.2 180.7548,170.7 180.7548,187.2 C180.7548,203.7 167.8548,217.2 151.9548,217.2 C136.0548,217.2 123.1548,203.7 123.1548,187.2 C123.1548,170.7 136.0548,157.2 151.9548,157.2 Z M153.4548,72.9 C192.1548,72.9 226.9548,94.5 244.0548,127.8 C249.4548,138.3 245.2548,151.5 234.7548,156.9 C224.2548,162.3 211.6548,158.4 205.9548,148.2 L205.6548,147.6 C195.7548,128.4 175.9548,116.1 153.4548,116.1 C130.9548,116.1 111.1548,128.4 101.2548,147.3 L100.6548,148.2 C95.2548004,159 82.3548004,163.2 71.8548004,158.1 C61.3548004,153 56.8548004,139.8 61.9548004,129.3 C79.0548004,95.1 114.1548,72.9 153.4548,72.9 Z M151.9548,0 C215.5548,0 272.8548,35.1 301.3548,89.7 C306.7548,100.2 302.8548,113.4 292.3548,118.8 C281.8548,124.2 268.6548,120.3 263.2548,109.8 C241.9548,69.3 199.3548,43.2 151.9548,43.2 C104.8548,43.2 62.8548004,68.7 41.2548004,108.3 L40.6548004,109.5 C34.9548004,120 22.0548004,124.2 11.5548004,118.5 C1.05480039,112.8 -3.14519961,99.9 2.55480039,89.4 C31.0548004,35.1 88.3548004,0 151.9548,0 Z"></path>
                    </g>
                    <g transform="translate(151.890870, 0.000000)" id="编组-7">
                        <g id="手机">
                            <g id="矩形备份-14">
                                <g fill="url(#linearGradient-12)" id="蒙版">
                                    <path id="path-17" d="M48,0 L240,0 C266.4,0 288,21.6 288,48 L288,424.2 C288,450.6 266.4,472.2 240,472.2 L48,472.2 C21.6,472.2 0,450.6 0,424.2 L0,48 C0,21.6 21.6,0 48,0 Z"></path>
                                </g>
                                <g fill="url(#linearGradient-13)" transform="translate(0.000000, 5.400000)" id="Clipped">
                                    <path id="矩形_1_" d="M48,8.65973959e-15 L240,8.65973959e-15 C266.4,8.65973959e-15 288,21.6 288,48 L288,424.2 C288,450.6 266.4,472.2 240,472.2 L48,472.2 C21.6,472.2 0,450.6 0,424.2 L0,48 C0,21.6 21.6,8.65973959e-15 48,8.65973959e-15 Z"></path>
                                </g>
                            </g>
                            <path fill="url(#linearGradient-14)" id="矩形_2_" d="M47.1,20.7 L243,20.7 C256.2,20.7 267,31.5 267,44.7 L267,424.8 C267,438 256.2,448.8 243,448.8 L47.1,448.8 C33.9,448.8 23.1,438 23.1,424.8 L23.1,44.7 C23.1,31.5 33.9,20.7 47.1,20.7 Z"></path>
                            <path fill="url(#linearGradient-15)" id="矩形备份-13" d="M47.1,26.1 L243,26.1 C256.2,26.1 267,36.9 267,50.1 L267,424.8 C267,438 256.2,448.8 243,448.8 L47.1,448.8 C33.9,448.8 23.1,438 23.1,424.8 L23.1,50.1 C23.1,36.9 33.9,26.1 47.1,26.1 Z"></path>
                            <path opacity="0.6682" fill="#E6E6E8" id="矩形_3_" d="M70.5,120 L221.7,120 C233.1,120 242.7,129.3 242.7,141 L242.7,141 C242.7,152.4 233.4,162 221.7,162 L70.5,162 C59.1,162 49.5,152.7 49.5,141 L49.5,141 C49.5,129.3 58.8,120 70.5,120 Z"></path>
                            <path opacity="0.8247" fill="#CCCED1" id="_x2A__x2A__x2A__x2A__x2A__x2A_" d="M96.3,150 L99.3,147.6 L94.2,141.6 L101.7,139.5 L100.5,135.9 L93.3,138.9 L93.9,131.1 L90,131.1 L90.6,138.9 L83.4,135.9 L82.2,139.5 L89.7,141.6 L84.6,147.6 L87.6,150 L92.1,143.4 L96.3,150 Z M118.5,150 L121.5,147.6 L116.4,141.6 L123.9,139.5 L123,135.9 L115.8,138.9 L116.4,131.1 L112.5,131.1 L113.1,138.9 L105.9,135.9 L104.7,139.5 L112.2,141.6 L107.1,147.6 L110.1,150 L114.6,143.4 L118.5,150 Z M140.7,150 L143.7,147.6 L138.6,141.6 L146.1,139.5 L144.9,135.9 L137.7,138.9 L138.3,131.1 L134.4,131.1 L135,138.9 L127.8,135.9 L126.6,139.5 L134.1,141.6 L129,147.6 L132,150 L136.5,143.4 L140.7,150 Z M162.9,150 L165.9,147.6 L160.8,141.6 L168.3,139.5 L167.1,135.9 L159.9,138.9 L160.5,131.1 L156.6,131.1 L157.2,138.9 L150,135.9 L148.8,139.5 L156.3,141.6 L151.2,147.6 L154.2,150 L158.7,143.4 L162.9,150 Z M185.1,150 L188.1,147.6 L183,141.6 L190.5,139.5 L189.3,135.9 L182.1,138.9 L182.7,131.1 L178.8,131.1 L179.4,138.9 L172.2,135.9 L171,139.5 L178.5,141.6 L173.4,147.6 L176.4,150 L180.9,143.4 L185.1,150 Z M207.3,150 L210.3,147.6 L205.2,141.6 L212.7,139.5 L211.5,135.9 L204.3,138.9 L204.9,131.1 L201,131.1 L201.6,138.9 L194.4,135.9 L193.2,139.5 L200.7,141.6 L195.6,147.6 L198.6,150 L203.1,143.4 L207.3,150 Z"></path>
                            <path opacity="0.6682" fill="#E6E6E8" id="矩形备份" d="M70.5,177.3 L221.7,177.3 C233.1,177.3 242.7,186.6 242.7,198.3 L242.7,198.3 C242.7,209.7 233.4,219.3 221.7,219.3 L70.5,219.3 C59.1,219.3 49.5,210 49.5,198.3 L49.5,198.3 C49.5,186.6 58.8,177.3 70.5,177.3 Z"></path>
                            <path opacity="0.8247" fill="#CCCED1" id="_x2A__x2A__x2A__x2A_" d="M118.5,207.3 L121.5,204.9 L116.4,198.9 L123.9,196.8 L123,193.2 L115.8,196.2 L116.4,188.4 L112.5,188.4 L113.1,196.2 L105.9,193.2 L104.7,196.8 L112.2,198.9 L107.1,204.9 L110.1,207.3 L114.6,200.7 L118.5,207.3 Z M140.7,207.3 L143.7,204.9 L138.6,198.9 L146.1,196.8 L144.9,193.2 L137.7,196.2 L138.3,188.4 L134.4,188.4 L135,196.2 L127.8,193.2 L126.6,196.8 L134.1,198.9 L129,204.9 L132,207.3 L136.5,200.7 L140.7,207.3 Z M162.9,207.3 L165.9,204.9 L160.8,198.9 L168.3,196.8 L167.1,193.2 L159.9,196.2 L160.5,188.4 L156.6,188.4 L157.2,196.2 L150,193.2 L148.8,196.8 L156.3,198.9 L151.2,204.9 L154.2,207.3 L158.7,200.7 L162.9,207.3 Z M185.1,207.3 L188.1,204.9 L183,198.9 L190.5,196.8 L189.3,193.2 L182.1,196.2 L182.7,188.4 L178.8,188.4 L179.4,196.2 L172.2,193.2 L171,196.8 L178.5,198.9 L173.4,204.9 L176.4,207.3 L180.9,200.7 L185.1,207.3 Z"></path>
                            <path fill="url(#linearGradient-16)" id="矩形备份-2" d="M70.2,283.2 L220.5,283.2 C232.2,283.2 241.5,292.5 241.5,304.2 L241.5,304.2 C241.5,315.9 232.2,325.2 220.5,325.2 L70.2,325.2 C58.5,325.2 49.2,315.9 49.2,304.2 L49.2,304.2 C49.5,292.5 58.8,283.2 70.2,283.2 Z"></path>
                        </g>
                        <g transform="translate(173.009709, 238.543689)" id="编组-6">
                            <g id="椭圆形_11_">
                                <g fill="url(#linearGradient-17)" id="蒙版_1_">
                                    <circle r="117.9" cy="117.9" cx="117.9" id="path-24"></circle>
                                </g>
                                <g fill="url(#linearGradient-18)" transform="translate(0.000000, 5.400000)" id="Clipped_1_">
                                    <circle r="117.9" cy="117.9" cx="117.9" id="椭圆形_10_"></circle>
                                </g>
                            </g>
                            <g transform="translate(20.813592, 15.413592)" id="椭圆形备份-16">
                                <g fill="#F5F6F6" transform="translate(5.400000, 10.800000)" id="蒙版_2_">
                                    <circle r="91.8" cy="91.8" cx="91.8" id="path-27"></circle>
                                </g>
                                <g fill="url(#linearGradient-19)" id="Clipped_2_">
                                    <circle r="94.5" cy="94.5" cx="94.5" id="椭圆形_12_"></circle>
                                </g>
                            </g>
                            <g fill="url(#linearGradient-20)" transform="translate(117.749032, 117.963225) rotate(45.000000) translate(-117.749032, -117.963225) translate(62.549032, 62.763225)" id="编组-8">
                                <path id="形状结合_2_" d="M55.2,0 C60.9,0 65.7,4.8 65.7,10.5 L65.7,44.7 L99.9,44.7 C105.6,44.7 110.4,49.5 110.4,55.2 C110.4,60.9 105.6,65.7 99.9,65.7 L65.7,65.7 L65.7,99.9 C65.7,105.6 60.9,110.4 55.2,110.4 C49.5,110.4 44.7,105.6 44.7,99.9 L44.7,65.7 L10.5,65.7 C4.8,65.7 0,60.9 0,55.2 C0,49.5 4.8,44.7 10.5,44.7 L44.7,44.7 L44.7,10.5 C45,4.8 49.5,0 55.2,0 Z"></path>
                            </g>
                        </g>
                    </g>
                </g>
            </g>
        </g>
    </g>
</svg>