<?xml version="1.0" standalone="no"?><!DOCTYPE svg PUBLIC "-//W3C//DTD SVG 1.1//EN" "http://www.w3.org/Graphics/SVG/1.1/DTD/svg11.dtd" ><svg xmlns="http://www.w3.org/2000/svg"><metadata></metadata><defs><font id="fonteditor" horiz-adv-x="1000"><font-face font-family="lINêe×Ñ 45S" font-weight="200" font-stretch="normal" units-per-em="1000" panose-1="0 2 6 0 4 1 1 1 1 1" ascent="916" descent="-301" x-height="1" bbox="-19 -241 1000 825" underline-thickness="0" underline-position="0" unicode-range="U+0021-ff1b" /><missing-glyph horiz-adv-x="1000"  /><glyph glyph-name="exclam" unicode="!" d="M85 693 L151 693 L151 303 L145 175 L92 175 L85 303 L85 693 ZM79 81 L157 81 L157 -34 L79 -34 L79 81 Z" /><glyph glyph-name="quotedbl" unicode="&quot;" d="M88 693 L150 693 L142 441 L96 441 L88 693 ZM232 693 L294 693 L286 441 L240 441 L232 693 Z" /><glyph glyph-name="numbersign" unicode="#" d="M66 478 L183 478 L213 693 L277 693 L247 478 L417 478 L448 693 L512 693 L481 478 L585 478 L585 425 L473 425 L448 250 L558 250 L558 197 L441 197 L408 -34 L344 -34 L377 197 L207 197 L175 -34 L111 -34 L143 197 L38 197 L38 250 L151 250 L175 425 L66 425 L66 478 ZM239 425 L215 250 L384 250 L409 425 L239 425 Z" /><glyph glyph-name="dollar" unicode="$" d="M18 156 L84 164 Q95 103 133.5 60 Q172 17 243 7 L243 316 Q130 358 84 410 Q38 462 38 518 Q38 595 91 647 Q144 699 243 706 L243 780 L298 780 L298 705 Q381 696 427 650.5 Q473 605 490 538 L425 531 Q412 568 384.5 601.5 Q357 635 298 646 L298 357 Q408 318 459 265.5 Q510 213 510 145 Q510 71 459.5 15 Q409 -41 298 -51 L298 -123 L243 -123 L243 -51 Q147 -41 91 14.5 Q35 70 18 156 ZM445 145 Q445 186 407.5 226 Q370 266 298 295 L298 7 Q376 16 410.5 56.5 Q445 97 445 145 ZM103 518 Q103 480 137 442.5 Q171 405 243 375 L243 648 Q174 641 138.5 603 Q103 565 103 518 Z" /><glyph glyph-name="percent" unicode="%" d="M540 144 Q540 90 574.5 57.5 Q609 25 662 25 Q715 25 749.5 57.5 Q784 90 784 144 Q784 198 749.5 232 Q715 266 662 266 Q610 266 575 231.5 Q540 197 540 144 ZM490 144 Q490 221 539.5 269 Q589 317 662 317 Q736 317 785 269.5 Q834 222 834 144 Q834 66 785.5 19.5 Q737 -27 662 -27 Q588 -27 539 20.5 Q490 68 490 144 ZM101 511 Q101 457 135 424.5 Q169 392 223 392 Q275 392 309.5 424.5 Q344 457 344 511 Q344 565 309.5 599 Q275 633 223 633 Q171 633 136 598.5 Q101 564 101 511 ZM50 511 Q50 588 99.5 635.5 Q149 683 223 683 Q297 683 346 636 Q395 589 395 511 Q395 432 346 386.5 Q297 341 223 341 Q148 341 99 388 Q50 435 50 511 ZM179 -34 L635 689 L696 689 L240 -34 L179 -34 Z" /><glyph glyph-name="ampersand" unicode="&amp;" d="M42 153 Q42 205 68 244.5 Q94 284 135 315.5 Q176 347 222 373 Q194 409 166 456 Q138 503 138 542 Q138 607 186 650 Q234 693 313 693 Q392 693 436 651 Q480 609 480 547 Q480 504 455.5 470.5 Q431 437 392.5 409 Q354 381 310 356 Q404 249 509 142 Q553 223 553 320 L615 320 Q615 196 554 97 Q639 13 688 -34 L599 -34 Q557 10 518 50 Q475 2 414.5 -25 Q354 -52 279 -52 Q214 -52 160 -27.5 Q106 -3 74 43 Q42 89 42 153 ZM276 2 Q339 2 390 26.5 Q441 51 476 93 Q340 233 260 327 Q219 302 184.5 276 Q150 250 128.5 220 Q107 190 107 153 Q107 97 133 63.5 Q159 30 198.5 16 Q238 2 276 2 ZM201 542 Q201 494 273 402 Q312 424 344.5 446 Q377 468 397 493 Q417 518 417 547 Q417 585 389.5 612.5 Q362 640 312 640 Q265 640 233 612.5 Q201 585 201 542 Z" /><glyph glyph-name="quotesingle" unicode="&#39;" d="M88 693 L154 693 L145 441 L96 441 L88 693 Z" /><glyph glyph-name="parenleft" unicode="(" d="M116 234 Q116 462 235 693 L294 693 Q242 592 208.5 471 Q175 350 175 234 Q175 111 208 -7 Q241 -125 296 -228 L236 -228 Q116 0 116 234 Z" /><glyph glyph-name="parenright" unicode=")" d="M44 -228 Q99 -125 132.5 -7 Q166 111 166 234 Q166 350 132.5 471 Q99 592 46 693 L108 693 Q162 593 192 470.5 Q222 348 222 234 Q222 117 193 -4 Q164 -125 108 -228 L44 -228 Z" /><glyph glyph-name="plus" unicode="+" d="M81 368 L315 368 L315 608 L375 608 L375 368 L613 368 L613 312 L375 312 L375 70 L315 70 L315 312 L81 312 L81 368 Z" /><glyph glyph-name="comma" unicode="," d="M78 -133 Q97 -122 111 -97.5 Q125 -73 125 -34 L82 -34 L82 101 L167 101 L167 -32 Q167 -87 140.5 -120.5 Q114 -154 78 -169 L78 -133 Z" /><glyph glyph-name="hyphen" unicode="-" d="M45 368 L364 368 L364 312 L45 312 L45 368 Z" /><glyph glyph-name="period" unicode="." d="M81 101 L166 101 L166 -34 L81 -34 L81 101 Z" /><glyph glyph-name="slash" unicode="/" d="M24 -34 L268 693 L330 693 L86 -34 L24 -34 Z" /><glyph glyph-name="zero" unicode="0" d="M54 327 Q54 463 90 542.5 Q126 622 182 656.5 Q238 691 297 691 Q357 691 413.5 656.5 Q470 622 506.5 542.5 Q543 463 543 327 Q543 191 508 111 Q473 31 416.5 -3.5 Q360 -38 297 -38 Q237 -38 181.5 -3.5 Q126 31 90 111 Q54 191 54 327 ZM120 327 Q120 175 170.5 98 Q221 21 297 21 Q374 21 426 97.5 Q478 174 478 327 Q478 430 453.5 497.5 Q429 565 388 598.5 Q347 632 297 632 Q221 632 170.5 556 Q120 480 120 327 Z" /><glyph glyph-name="one" unicode="1" d="M117 537 L277 687 L340 687 L340 -34 L275 -34 L275 612 L144 485 L117 537 Z" /><glyph glyph-name="two" unicode="2" d="M65 16 Q97 83 146 133 Q195 183 249.5 223.5 Q304 264 352.5 302.5 Q401 341 432 385.5 Q463 430 463 490 Q463 525 447 557.5 Q431 590 396.5 611 Q362 632 305 632 Q251 632 201 597 Q151 562 130 486 L68 496 Q87 586 150.5 638.5 Q214 691 305 691 Q416 691 472 635.5 Q528 580 528 492 Q528 427 502.5 380 Q477 333 435 294.5 Q393 256 343 219 Q293 182 243.5 137.5 Q194 93 153 33 L535 33 L535 -26 L65 -26 L65 16 Z" /><glyph glyph-name="three" unicode="3" d="M57 146 L122 157 Q141 84 189.5 53 Q238 22 301 22 Q378 22 424.5 65 Q471 108 471 175 Q471 239 426 279 Q381 319 304 319 L245 319 L245 378 L304 378 Q369 378 409 415.5 Q449 453 449 506 Q449 555 412 593.5 Q375 632 304 632 Q243 632 198.5 600 Q154 568 140 499 L75 509 Q92 596 153.5 643.5 Q215 691 305 691 Q396 691 456 643 Q516 595 516 512 Q516 442 481.5 403.5 Q447 365 400 350 Q471 332 503.5 285 Q536 238 536 172 Q536 80 473.5 21 Q411 -38 301 -38 Q246 -38 196 -20 Q146 -2 109.5 38.5 Q73 79 57 146 Z" /><glyph glyph-name="four" unicode="4" d="M42 179 L369 687 L459 687 L459 189 L553 189 L553 132 L459 132 L459 -34 L393 -34 L393 132 L42 132 L42 179 ZM121 189 L393 189 L392 612 L121 189 Z" /><glyph glyph-name="five" unicode="5" d="M62 140 L126 153 Q142 89 191 55 Q240 21 302 21 Q381 21 426.5 69.5 Q472 118 472 203 Q472 277 427.5 325 Q383 373 306 373 Q206 373 143 292 L82 301 L112 680 L498 680 L498 621 L167 621 L148 358 Q181 395 226 413.5 Q271 432 317 432 Q421 432 479.5 369.5 Q538 307 538 203 Q538 137 512.5 82 Q487 27 435.5 -5.5 Q384 -38 305 -38 Q210 -38 146 10.5 Q82 59 62 140 Z" /><glyph glyph-name="six" unicode="6" d="M139 193 Q142 145 162 105.5 Q182 66 219 41.5 Q256 17 309 17 Q384 17 427 67.5 Q470 118 470 192 Q470 266 427 319 Q384 372 309 372 Q237 372 187 320.5 Q137 269 139 193 ZM65 297 Q65 410 91 499 Q117 588 173 639.5 Q229 691 319 691 Q460 691 518 554 L453 543 Q431 593 394.5 615 Q358 637 318 637 Q260 637 224 607 Q188 577 167.5 528.5 Q147 480 139 422.5 Q131 365 130 308 L131 307 Q153 356 188.5 382 Q224 408 260.5 417 Q297 426 321 426 Q392 426 439.5 394.5 Q487 363 511 311 Q535 259 535 196 Q535 84 474.5 23 Q414 -38 309 -38 Q190 -38 127.5 49.5 Q65 137 65 297 Z" /><glyph glyph-name="seven" unicode="7" d="M60 621 L60 680 L522 680 L522 627 Q411 478 347.5 307 Q284 136 284 -34 L219 -34 Q219 127 281 298.5 Q343 470 451 621 L60 621 Z" /><glyph glyph-name="eight" unicode="8" d="M155 509 Q155 451 198.5 414 Q242 377 307 377 Q373 377 413.5 414.5 Q454 452 454 508 Q454 559 413.5 598 Q373 637 307 637 Q258 637 224 618 Q190 599 172.5 570 Q155 541 155 509 ZM133 173 Q133 113 163 79 Q193 45 234 31 Q275 17 307 17 Q342 17 383 34 Q424 51 453 85.5 Q482 120 482 174 Q481 243 432.5 283.5 Q384 324 307 324 Q231 324 182 282.5 Q133 241 133 173 ZM67 172 Q67 229 105.5 280 Q144 331 210 351 Q153 374 121 417.5 Q89 461 89 512 Q89 584 146.5 637.5 Q204 691 307 691 Q405 691 462 639.5 Q519 588 519 511 Q519 466 490.5 421 Q462 376 402 351 Q474 330 511 279.5 Q548 229 548 172 Q548 97 510.5 50.5 Q473 4 417 -17 Q361 -38 307 -38 Q252 -38 196.5 -17.5 Q141 3 104 49 Q67 95 67 172 Z" /><glyph glyph-name="nine" unicode="9" d="M129 462 Q129 388 172 335 Q215 282 290 282 Q362 282 412 333.5 Q462 385 460 460 Q457 508 437 548 Q417 588 380.5 612.5 Q344 637 290 637 Q214 637 171.5 586.5 Q129 536 129 462 ZM64 458 Q64 571 126 631 Q188 691 293 691 Q419 691 477 601 Q535 511 535 356 Q535 243 509 154 Q483 65 427 13.5 Q371 -38 280 -38 Q139 -38 81 100 L146 111 Q168 61 204.5 39 Q241 17 281 17 Q339 17 376 46 Q413 75 433.5 123 Q454 171 462 229 Q470 287 469 346 Q447 298 411.5 272 Q376 246 339.5 237 Q303 228 278 228 Q212 228 164 259.5 Q116 291 90 343.5 Q64 396 64 458 Z" /><glyph glyph-name="colon" unicode=":" d="M81 101 L166 101 L166 -34 L81 -34 L81 101 ZM81 477 L166 477 L166 343 L81 343 L81 477 Z" /><glyph glyph-name="semicolon" unicode=";" d="M77 -133 Q96 -122 110 -97.5 Q124 -73 124 -34 L81 -34 L81 101 L166 101 L166 -32 Q166 -87 139.5 -120.5 Q113 -154 77 -169 L77 -133 ZM81 477 L166 477 L166 343 L81 343 L81 477 Z" /><glyph glyph-name="less" unicode="&lt;" d="M81 379 L545 611 L545 545 L148 350 L545 156 L545 91 L81 321 L81 379 Z" /><glyph glyph-name="equal" unicode="=" d="M81 489 L578 489 L578 432 L81 432 L81 489 ZM81 254 L578 254 L578 197 L81 197 L81 254 Z" /><glyph glyph-name="greater" unicode="&gt;" d="M81 611 L545 379 L545 321 L81 91 L81 156 L478 350 L81 545 L81 611 Z" /><glyph glyph-name="A" unicode="a" d="M9 -34 L299 693 L369 693 L656 -34 L588 -34 L503 182 L163 182 L77 -34 L9 -34 ZM334 612 L187 242 L480 242 L334 612 Z" /><glyph glyph-name="B" unicode="b" d="M88 693 L345 693 Q470 693 525.5 644 Q581 595 581 510 Q581 450 544 406 Q507 362 450 342 Q510 331 545 304 Q580 277 595 241 Q610 205 610 167 Q610 62 542.5 14 Q475 -34 362 -34 L88 -34 L88 693 ZM154 310 L154 26 L345 26 Q444 26 494.5 64.5 Q545 103 545 170 Q545 224 517.5 254.5 Q490 285 444 297.5 Q398 310 344 310 L154 310 ZM154 634 L154 369 L341 369 Q408 369 462 407.5 Q516 446 516 503 Q516 566 471 600 Q426 634 337 634 L154 634 Z" /><glyph glyph-name="C" unicode="c" d="M51 331 Q51 436 84 522 Q117 608 187 659.5 Q257 711 369 711 Q451 711 509 684.5 Q567 658 602.5 615.5 Q638 573 654 524 L587 512 Q561 580 504 616 Q447 652 369 652 Q255 652 186 572.5 Q117 493 117 331 Q117 183 187 95.5 Q257 8 369 8 Q454 8 510.5 46.5 Q567 85 596 159 L661 148 Q640 89 602 44 Q564 -1 507 -26.5 Q450 -52 369 -52 Q266 -52 195 -1 Q124 50 87.5 136.5 Q51 223 51 331 Z" /><glyph glyph-name="D" unicode="d" d="M88 693 L350 693 Q466 692 536.5 638 Q607 584 637.5 500.5 Q668 417 668 330 Q668 225 632.5 143 Q597 61 523 13.5 Q449 -34 335 -34 L88 -34 L88 693 ZM153 634 L153 26 L339 26 Q412 26 471.5 59 Q531 92 566.5 160 Q602 228 602 331 Q602 383 588 436.5 Q574 490 543 534.5 Q512 579 461.5 606.5 Q411 634 337 634 L153 634 Z" /><glyph glyph-name="E" unicode="e" d="M88 693 L590 693 L590 634 L153 634 L153 376 L552 376 L552 317 L153 317 L153 26 L598 26 L598 -34 L88 -34 L88 693 Z" /><glyph glyph-name="F" unicode="f" d="M88 693 L579 693 L579 634 L153 634 L153 362 L542 362 L542 302 L153 302 L153 -34 L88 -34 L88 693 Z" /><glyph glyph-name="G" unicode="g" d="M65 331 Q65 503 157.5 607 Q250 711 395 711 Q487 711 543.5 680 Q600 649 633 603.5 Q666 558 685 511 L615 499 Q587 572 532.5 612 Q478 652 395 652 Q280 652 205 562.5 Q130 473 130 331 Q130 233 165 160 Q200 87 258 47.5 Q316 8 385 8 Q477 8 540.5 63 Q604 118 633 204 L633 289 L404 289 L404 348 L698 348 L698 -34 L639 -34 L639 123 Q617 74 580.5 35 Q544 -4 493 -28 Q442 -52 377 -52 Q298 -52 226.5 -7.5 Q155 37 110 122.5 Q65 208 65 331 Z" /><glyph glyph-name="H" unicode="h" d="M88 693 L153 693 L153 376 L602 376 L602 693 L668 693 L668 -34 L602 -34 L602 317 L153 317 L153 -34 L88 -34 L88 693 Z" /><glyph glyph-name="I" unicode="i" d="M88 693 L154 693 L154 -34 L88 -34 L88 693 Z" /><glyph glyph-name="J" unicode="j" d="M36 172 L101 172 L101 159 Q104 81 141.5 44 Q179 7 237 7 Q296 7 335.5 47 Q375 87 375 166 L375 693 L440 693 L440 160 Q440 86 412 39 Q384 -8 338 -30 Q292 -52 237 -52 Q148 -52 92 -0.5 Q36 51 36 151 L36 172 Z" /><glyph glyph-name="L" unicode="l" d="M88 693 L153 693 L153 26 L542 26 L542 -34 L88 -34 L88 693 Z" /><glyph glyph-name="M" unicode="m" d="M88 693 L181 693 L454 53 L720 693 L813 693 L813 -34 L748 -34 L746 589 L485 -34 L421 -34 L155 589 L153 589 L153 -34 L88 -34 L88 693 Z" /><glyph glyph-name="N" unicode="n" d="M88 693 L157 693 L595 73 L595 693 L661 693 L661 -34 L592 -34 L154 587 L154 -34 L88 -34 L88 693 Z" /><glyph glyph-name="O" unicode="o" d="M117 330 Q117 246 147 172.5 Q177 99 236 53.5 Q295 8 380 8 Q470 8 529 52.5 Q588 97 617 170.5 Q646 244 646 330 Q646 415 616 488.5 Q586 562 526.5 607 Q467 652 380 652 Q294 652 235 607.5 Q176 563 146.5 489.5 Q117 416 117 330 ZM51 330 Q51 432 87 519 Q123 606 196.5 658.5 Q270 711 380 711 Q492 711 565.5 658 Q639 605 675 518 Q711 431 711 330 Q711 229 676 141.5 Q641 54 567.5 1 Q494 -52 380 -52 Q271 -52 197.5 2.5 Q124 57 87.5 144 Q51 231 51 330 Z" /><glyph glyph-name="P" unicode="p" d="M88 693 L349 693 Q476 693 533 635.5 Q590 578 590 486 Q590 386 530.5 329 Q471 272 349 272 L153 272 L153 -34 L88 -34 L88 693 ZM153 634 L153 331 L336 331 Q429 332 476.5 372 Q524 412 524 486 Q524 557 476.5 595.5 Q429 634 340 634 L153 634 Z" /><glyph glyph-name="Q" unicode="q" d="M51 330 Q51 432 87 519 Q123 606 196.5 658.5 Q270 711 380 711 Q492 711 565.5 658 Q639 605 675 518 Q711 431 711 330 Q711 243 685 166 Q659 89 606 35 L695 -43 L649 -89 L558 -3 Q487 -52 380 -52 Q271 -52 197.5 2.5 Q124 57 87.5 144 Q51 231 51 330 ZM429 118 L469 156 L558 78 Q602 124 624 189.5 Q646 255 646 330 Q646 415 616 488.5 Q586 562 526.5 607 Q467 652 380 652 Q294 652 235 607.5 Q176 563 146.5 489.5 Q117 416 117 330 Q117 246 147 172.5 Q177 99 236 53.5 Q295 8 380 8 Q457 8 510 41 L429 118 Z" /><glyph glyph-name="R" unicode="r" d="M94 693 L371 693 Q486 693 541 638 Q596 583 596 500 Q596 489 588 454.5 Q580 420 554 382.5 Q528 345 476 320 Q571 288 580 155 Q589 40 614 -34 L545 -34 Q523 34 515 149 Q511 214 478 251.5 Q445 289 389 289 L159 289 L159 -34 L94 -34 L94 693 ZM159 634 L159 349 L369 349 Q441 349 485 392 Q529 435 529 496 Q529 558 486 596 Q443 634 362 634 L159 634 Z" /><glyph glyph-name="S" unicode="s" d="M51 148 L123 160 Q155 80 209.5 44.5 Q264 9 334 9 Q392 9 430.5 29.5 Q469 50 489 80 Q509 110 509 140 Q509 185 475 218 Q441 251 394.5 274.5 Q348 298 306 313 Q198 350 136.5 396.5 Q75 443 75 514 Q75 603 148 657 Q221 711 326 711 Q422 711 486 663.5 Q550 616 574 540 L504 529 Q482 589 434 620.5 Q386 652 323 652 Q245 652 196 612.5 Q147 573 147 521 Q147 483 173 456.5 Q199 430 242 409.5 Q285 389 338 369 Q459 324 521 271 Q583 218 583 150 Q583 60 513.5 4 Q444 -52 333 -52 Q226 -52 156 -1.5 Q86 49 51 148 Z" /><glyph glyph-name="T" unicode="t" d="M9 693 L536 693 L536 634 L305 634 L305 -34 L239 -34 L239 634 L9 634 L9 693 Z" /><glyph glyph-name="U" unicode="u" d="M83 693 L149 693 L149 250 Q149 140 201.5 74 Q254 8 363 8 Q466 8 520.5 72 Q575 136 575 250 L575 693 L640 693 L640 246 Q640 96 564 22 Q488 -52 363 -52 Q233 -52 158 22 Q83 96 83 246 L83 693 Z" /><glyph glyph-name="V" unicode="v" d="M9 693 L79 693 L307 52 L309 52 L537 693 L609 693 L346 -34 L270 -34 L9 693 Z" /><glyph glyph-name="W" unicode="w" d="M10 693 L82 693 L257 57 L259 57 Q352 375 445 693 L521 693 L709 57 L711 57 L888 693 L960 693 L750 -34 L671 -34 L483 606 L297 -34 L220 -34 L10 693 Z" /><glyph glyph-name="X" unicode="x" d="M19 693 L96 693 L298 392 L501 693 L579 693 L337 334 L586 -34 L508 -34 L298 277 L89 -34 L12 -34 L260 334 L19 693 Z" /><glyph glyph-name="Y" unicode="y" d="M9 693 L85 693 L308 336 L524 693 L600 693 L340 266 L340 -34 L274 -34 L274 266 L9 693 Z" /><glyph glyph-name="Z" unicode="z" d="M40 22 L501 634 L71 634 L71 693 L588 693 L588 642 L125 27 L587 27 L587 -34 L40 -34 L40 22 Z" /><glyph glyph-name="bracketleft" unicode="[" d="M129 693 L310 693 L310 639 L188 639 L188 -173 L310 -173 L310 -228 L129 -228 L129 693 Z" /><glyph glyph-name="bracketright" unicode="]" d="M47 693 L227 693 L227 -228 L47 -228 L47 -173 L168 -173 L168 639 L47 639 L47 693 Z" /><glyph glyph-name="underscore" unicode="_" d="M23 -110 L526 -110 L526 -167 L23 -167 L23 -110 Z" /><glyph glyph-name="a" unicode="a" d="M49 81 Q49 152 97.5 196 Q146 240 230.5 266 Q315 292 425 307 L425 344 Q425 389 393.5 422.5 Q362 456 283 456 Q236 456 193 434.5 Q150 413 128 354 L67 363 Q89 432 146 471.5 Q203 511 285 511 Q389 511 439.5 466 Q490 421 490 348 L490 38 Q490 19 502.5 13.5 Q515 8 546 11 L546 -33 Q510 -39 489 -39 Q469 -39 452 -29.5 Q435 -20 431 2 Q428 24 427 45 Q388 3 333.5 -22.5 Q279 -48 214 -48 Q172 -48 134 -35 Q96 -22 72.5 6.5 Q49 35 49 81 ZM114 87 Q114 47 144 27.5 Q174 8 226 8 Q288 8 337 33 Q386 58 425 97 L425 252 Q295 235 206.5 199.5 Q118 164 114 87 Z" /><glyph glyph-name="b" unicode="b" d="M69 692 L133 692 L133 413 Q180 464 230.5 487.5 Q281 511 325 511 Q407 511 456.5 472 Q506 433 528.5 368 Q551 303 551 225 Q551 146 527 83 Q503 20 452.5 -16 Q402 -52 322 -52 Q225 -52 133 31 L133 -34 L69 -34 L69 692 ZM315 454 Q265 454 217.5 425 Q170 396 133 354 L133 90 Q167 53 215 29.5 Q263 6 315 6 Q376 6 413.5 37.5 Q451 69 469 119 Q487 169 487 225 Q487 279 471 332 Q455 385 417.5 419.5 Q380 454 315 454 Z" /><glyph glyph-name="c" unicode="c" d="M45 229 Q45 309 73 373 Q101 437 156 474 Q211 511 292 511 Q352 511 393 491 Q434 471 459.5 438.5 Q485 406 497 366 L434 357 Q415 404 380 429 Q345 454 292 454 Q204 454 157 391 Q110 328 110 229 Q110 133 155 69.5 Q200 6 287 6 Q341 6 381.5 32 Q422 58 446 113 L508 103 Q494 62 466 27 Q438 -8 393.5 -30 Q349 -52 287 -52 Q209 -52 155 -14 Q101 24 73 88 Q45 152 45 229 Z" /><glyph glyph-name="d" unicode="d" d="M48 231 Q48 310 72.5 373.5 Q97 437 147.5 474 Q198 511 274 511 Q321 511 369 490.5 Q417 470 463 419 L463 692 L527 692 L527 -34 L463 -34 L463 31 Q413 -17 363.5 -34.5 Q314 -52 276 -52 Q199 -52 148 -14 Q97 24 72.5 88.5 Q48 153 48 231 ZM284 6 Q380 6 463 88 L463 361 Q429 403 382 428.5 Q335 454 284 454 Q225 454 187 423 Q149 392 130.5 341 Q112 290 112 231 Q112 174 130 122.5 Q148 71 186 38.5 Q224 6 284 6 Z" /><glyph glyph-name="e" unicode="e" d="M48 229 Q48 301 74.5 365.5 Q101 430 154 470.5 Q207 511 287 511 Q367 511 419 473.5 Q471 436 496.5 376 Q522 316 522 246 L522 213 L112 213 Q110 121 156.5 62 Q203 3 290 3 Q352 3 396 32.5 Q440 62 461 106 L520 95 Q492 29 434 -11.5 Q376 -52 289 -52 Q207 -52 153.5 -14 Q100 24 74 88 Q48 152 48 229 ZM112 264 L457 264 Q457 313 437 356.5 Q417 400 379.5 428 Q342 456 287 456 Q234 456 195 428 Q156 400 134.5 356.5 Q113 313 112 264 Z" /><glyph glyph-name="f" unicode="f" d="M12 486 L114 486 L114 598 Q114 658 149.5 683 Q185 708 236 708 Q281 708 311 692 L311 636 Q290 653 252 653 Q224 653 201 637.5 Q178 622 178 583 L178 486 L315 486 L315 432 L178 432 L178 -33 L114 -33 L114 432 L12 432 L12 486 Z" /><glyph glyph-name="g" unicode="g" d="M51 232 Q51 356 111.5 433.5 Q172 511 275 511 Q324 511 371.5 490 Q419 469 466 416 L466 497 L530 497 L530 29 Q530 -49 505.5 -110 Q481 -171 426 -206 Q371 -241 277 -241 Q204 -241 148 -208 Q92 -175 63 -106 L120 -94 Q144 -142 185.5 -164.5 Q227 -187 279 -187 Q368 -187 417 -134 Q466 -81 466 26 L466 43 Q416 -8 366 -27.5 Q316 -47 277 -47 Q173 -47 112 31.5 Q51 110 51 232 ZM287 11 Q336 11 384 36 Q432 61 466 100 L466 355 Q433 399 386.5 426.5 Q340 454 287 454 Q231 454 192.5 424 Q154 394 134.5 344 Q115 294 115 232 Q115 174 133.5 123.5 Q152 73 190.5 42 Q229 11 287 11 Z" /><glyph glyph-name="h" unicode="h" d="M69 693 L134 693 L134 417 Q218 511 317 511 Q403 511 453 463.5 Q503 416 503 325 L503 -34 L439 -34 L439 313 Q439 381 401.5 418.5 Q364 456 300 456 Q213 456 134 372 L134 -34 L69 -34 L69 693 Z" /><glyph glyph-name="i" unicode="i" d="M69 497 L134 497 L134 -34 L69 -34 L69 497 ZM69 693 L134 693 L134 587 L69 587 L69 693 Z" /><glyph glyph-name="j" unicode="j" d="M-19 -146 Q4 -147 14 -147 Q49 -147 62.5 -124.5 Q76 -102 76 -69 L76 497 L140 497 L140 -78 Q140 -146 109 -174.5 Q78 -203 26 -203 Q10 -203 -19 -201 L-19 -146 ZM76 693 L140 693 L140 587 L76 587 L76 693 Z" /><glyph glyph-name="k" unicode="k" d="M69 693 L134 693 L134 234 L405 497 L485 497 L264 281 L505 -35 L430 -35 L221 238 L134 153 L134 -35 L69 -35 L69 693 Z" /><glyph glyph-name="l" unicode="l" d="M69 693 L134 693 L134 -34 L69 -34 L69 693 Z" /><glyph glyph-name="m" unicode="m" d="M69 497 L133 497 L133 417 Q167 458 214 484.5 Q261 511 310 511 Q359 511 399.5 490 Q440 469 468 409 Q509 455 558 483 Q607 511 655 511 Q735 511 779.5 463.5 Q824 416 824 329 L824 -34 L759 -34 L759 322 Q759 381 726 418.5 Q693 456 635 456 Q596 456 554 427.5 Q512 399 480 362 L480 -34 L415 -34 L415 319 Q415 385 379 420.5 Q343 456 294 456 Q251 456 208 428.5 Q165 401 133 362 L133 -34 L69 -34 L69 497 Z" /><glyph glyph-name="n" unicode="n" d="M69 497 L133 497 L133 416 Q217 511 316 511 Q499 511 503 325 L503 -35 L438 -35 L438 313 Q438 381 400.5 418.5 Q363 456 300 456 Q213 456 133 372 L133 -35 L69 -35 L69 497 Z" /><glyph glyph-name="o" unicode="o" d="M45 231 Q45 305 71.5 369 Q98 433 152.5 472 Q207 511 290 511 Q374 511 428.5 472.5 Q483 434 509 370.5 Q535 307 535 231 Q535 152 509 87.5 Q483 23 429 -14.5 Q375 -52 290 -52 Q206 -52 152 -13.5 Q98 25 71.5 89.5 Q45 154 45 231 ZM110 231 Q110 167 129 116 Q148 65 188 35.5 Q228 6 290 6 Q354 6 393.5 35 Q433 64 451.5 115 Q470 166 470 231 Q470 328 424.5 391 Q379 454 290 454 Q204 454 157 390 Q110 326 110 231 Z" /><glyph glyph-name="p" unicode="p" d="M69 497 L134 497 L134 414 Q181 465 231 488.5 Q281 512 326 512 Q405 512 455 474 Q505 436 528.5 371 Q552 306 552 225 Q552 145 528 82.5 Q504 20 453 -16 Q402 -52 322 -52 Q226 -52 134 31 L134 -224 L69 -224 L69 497 ZM315 454 Q266 454 218.5 425 Q171 396 134 354 L134 89 Q168 52 216 29 Q264 6 315 6 Q377 6 414.5 37.5 Q452 69 469.5 119 Q487 169 487 225 Q487 286 470 338 Q453 390 415 422 Q377 454 315 454 Z" /><glyph glyph-name="q" unicode="q" d="M48 231 Q48 310 73 373.5 Q98 437 148 474 Q198 511 274 511 Q321 511 370.5 489.5 Q420 468 465 418 L465 497 L529 497 L529 -224 L465 -224 L465 33 Q415 -15 364.5 -33.5 Q314 -52 276 -52 Q199 -52 148 -14 Q97 24 72.5 88.5 Q48 153 48 231 ZM284 6 Q382 6 465 89 L465 358 Q431 401 384 427.5 Q337 454 284 454 Q226 454 187.5 422.5 Q149 391 130.5 340.5 Q112 290 112 231 Q112 174 130.5 122.5 Q149 71 187 38.5 Q225 6 284 6 Z" /><glyph glyph-name="r" unicode="r" d="M69 497 L133 497 L133 382 Q163 429 219 468.5 Q275 508 325 508 L325 453 Q288 453 233 421.5 Q178 390 133 326 L133 -35 L69 -35 L69 497 Z" /><glyph glyph-name="s" unicode="s" d="M43 85 L104 99 Q128 40 170 20.5 Q212 1 258 1 Q313 1 350 30 Q387 59 387 99 Q387 129 366.5 149.5 Q346 170 313 185.5 Q280 201 239 216 Q152 246 106 280.5 Q60 315 60 371 Q60 429 111 470 Q162 511 253 511 Q324 511 372 480 Q420 449 445 392 L381 380 Q346 459 253 459 Q191 459 158 431.5 Q125 404 125 367 Q125 339 151.5 318.5 Q178 298 212.5 283.5 Q247 269 273 260 Q326 243 367 222.5 Q408 202 431.5 173 Q455 144 455 102 Q455 32 399 -10 Q343 -52 257 -52 Q187 -52 129 -20 Q71 12 43 85 Z" /><glyph glyph-name="t" unicode="t" d="M11 486 L94 486 L94 636 L157 636 L157 486 L266 486 L266 432 L157 432 L157 69 Q157 34 173.5 22.5 Q190 11 224 11 Q244 11 265 19 L265 -35 Q235 -45 191 -45 Q148 -45 121 -25 Q94 -5 94 44 L94 432 L11 432 L11 486 Z" /><glyph glyph-name="u" unicode="u" d="M69 497 L133 497 L133 146 Q133 79 172 41 Q211 3 274 3 Q360 3 439 89 L439 497 L503 497 L503 -34 L439 -34 L439 43 Q353 -52 255 -52 Q169 -52 119 -4 Q69 44 69 135 L69 497 Z" /><glyph glyph-name="v" unicode="v" d="M8 497 L78 497 L250 32 L252 32 L425 497 L495 497 L290 -34 L213 -34 L8 497 Z" /><glyph glyph-name="w" unicode="w" d="M9 497 L79 497 L223 32 Q286 265 345 497 L432 497 L562 32 Q629 265 698 497 L768 497 L603 -34 L519 -34 L389 427 Q389 428 363.5 334.5 Q338 241 309 132.5 Q280 24 265 -34 L182 -34 L9 497 Z" /><glyph glyph-name="x" unicode="x" d="M14 497 L88 497 L241 286 L395 497 L469 497 L279 235 L476 -34 L401 -34 L242 184 L83 -34 L8 -34 L204 235 L14 497 Z" /><glyph glyph-name="y" unicode="y" d="M8 497 L80 497 L253 54 L424 497 L493 497 L233 -165 Q213 -213 183.5 -227 Q154 -241 128 -241 Q98 -241 74 -237 L74 -181 Q92 -184 110 -184 Q131 -184 150 -173 Q169 -162 180 -137 L221 -29 L8 497 Z" /><glyph glyph-name="z" unicode="z" d="M33 12 L374 443 L52 443 L52 497 L459 497 L459 451 L117 21 L472 21 L472 -34 L33 -34 L33 12 Z" /><glyph glyph-name="braceleft" unicode="{" d="M92 259 Q124 266 145.5 306.5 Q167 347 167 403 L167 569 Q167 631 199 662 Q231 693 286 693 L327 693 L327 637 L296 637 Q280 637 264 630.5 Q248 624 237.5 605 Q227 586 227 548 L227 385 Q227 344 211 298.5 Q195 253 159 233 Q193 215 210 171.5 Q227 128 227 75 L227 -81 Q227 -135 248 -153.5 Q269 -172 296 -172 L327 -172 L327 -228 L286 -228 Q237 -228 202 -199 Q167 -170 167 -102 L167 56 Q167 117 149.5 151.5 Q132 186 92 208 L92 259 Z" /><glyph glyph-name="bar" unicode="|" d="M85 693 L144 693 L144 -228 L85 -228 L85 693 Z" /><glyph glyph-name="braceright" unicode="}" d="M43 693 L84 693 Q140 693 172 662 Q204 631 204 569 L204 403 Q204 347 225.5 306.5 Q247 266 278 259 L278 208 Q239 186 221.5 151.5 Q204 117 204 56 L204 -102 Q204 -170 169 -199 Q134 -228 84 -228 L43 -228 L43 -172 L74 -172 Q101 -172 122.5 -153.5 Q144 -135 144 -81 L144 75 Q144 128 161 171.5 Q178 215 211 233 Q175 253 159.5 298 Q144 343 144 385 L144 548 Q144 586 133.5 605 Q123 624 107 630.5 Q91 637 74 637 L43 637 L43 693 Z" /><glyph glyph-name="emdash" unicode="&#x2014;" d="M0 368 L1000 368 L1000 312 L0 312 L0 368 Z" /><glyph glyph-name="quotedblleft" unicode="&#x201c;" d="M641 663 Q641 716 665.5 749 Q690 782 725 797 L725 762 Q706 751 693 727 Q680 703 680 665 L721 665 L721 533 L641 533 L641 663 ZM475 663 Q475 716 499.5 749 Q524 782 559 797 L559 762 Q540 751 527 727 Q514 703 514 665 L555 665 L555 533 L475 533 L475 663 Z" /><glyph glyph-name="quotedblright" unicode="&#x201d;" d="M276 568 Q295 579 308 603 Q321 627 321 665 L279 665 L279 797 L360 797 L360 667 Q360 615 335 581.5 Q310 548 276 533 L276 568 ZM442 568 Q461 579 474 603 Q487 627 487 665 L445 665 L445 797 L526 797 L526 667 Q526 615 501 581.5 Q476 548 442 533 L442 568 Z" /><glyph glyph-name="ellipsis" unicode="&#x2026;" d="M122 396 L230 396 L230 286 L122 286 L122 396 ZM769 396 L877 396 L877 286 L769 286 L769 396 ZM443 396 L551 396 L551 286 L443 286 L443 396 Z" /><glyph glyph-name="uni3001" unicode="&#x3001;" d="M191 131 L230 162 Q276 132 334 76 Q392 20 426 -33 L364 -83 Q289 50 191 131 Z" /><glyph glyph-name="uni3002" unicode="&#x3002;" d="M224 37 Q224 -6 254 -37 Q284 -68 328 -68 Q372 -68 402.5 -37 Q433 -6 433 37 Q433 81 402.5 111.5 Q372 142 328 142 Q284 142 254 111.5 Q224 81 224 37 ZM181 37 Q181 98 224 142 Q267 186 328 186 Q390 186 433 142 Q476 98 476 37 Q476 -24 433 -67.5 Q390 -111 328 -111 Q267 -111 224 -67.5 Q181 -24 181 37 Z" /><glyph glyph-name="uni300A" unicode="&#x300a;" d="M596 346 L791 816 L851 816 L655 346 L851 -128 L791 -128 L596 346 ZM437 346 L633 816 L693 816 L497 346 L693 -128 L633 -128 L437 346 Z" /><glyph glyph-name="uni300B" unicode="&#x300b;" d="M149 816 L209 816 L404 346 L209 -128 L149 -128 L345 346 L149 816 ZM308 816 L367 816 L563 346 L367 -128 L308 -128 L503 346 L308 816 Z" /><glyph glyph-name="uni4E00" unicode="&#x4e00;" d="M958 349 L42 349 L42 412 L958 412 L958 349 Z" /><glyph glyph-name="uni4E07" unicode="&#x4e07;" d="M447 10 L593 10 Q670 10 697.5 33.5 Q725 57 729 132 Q742 277 751 420 L376 420 Q362 258 303 141.5 Q244 25 99 -91 L51 -47 Q207 74 261 193.5 Q315 313 322 503 Q327 575 331 669 L59 669 L59 725 L947 725 L947 669 L392 669 Q389 579 383 503 Q381 490 381 476 L815 476 Q803 294 790 114 Q784 18 746.5 -14.5 Q709 -47 611 -47 L459 -47 L447 10 Z" /><glyph glyph-name="uni4E0A" unicode="&#x4e0a;" d="M901 448 L506 448 L506 17 L957 17 L957 -39 L47 -39 L47 17 L448 17 L448 799 L506 799 L506 503 L901 503 L901 448 Z" /><glyph glyph-name="uni4E0B" unicode="&#x4e0b;" d="M446 -96 L446 660 L56 660 L56 716 L946 716 L946 660 L506 660 L506 -96 L446 -96 ZM848 215 Q699 337 531 457 L564 503 Q738 382 886 265 L848 215 Z" /><glyph glyph-name="uni4E0D" unicode="&#x4e0d;" d="M921 665 L598 665 Q546 569 478 481 L529 481 L529 -94 L472 -94 L472 472 Q323 280 98 116 L59 166 Q381 391 531 665 L83 665 L83 722 L921 722 L921 665 ZM897 126 Q740 276 573 419 L609 463 Q780 321 940 175 L897 126 Z" /><glyph glyph-name="uni4E0E" unicode="&#x4e0e;" d="M470 -15 L643 -15 Q716 -15 741.5 6.5 Q767 28 770 98 L788 363 L214 363 L246 787 L306 787 L295 650 L915 650 L915 594 L291 594 L278 419 L850 419 Q840 247 828 83 Q823 -9 789 -40 Q755 -71 661 -71 L481 -71 L470 -15 ZM704 148 L46 148 L46 204 L704 204 L704 148 Z" /><glyph glyph-name="uni4E13" unicode="&#x4e13;" d="M784 -107 Q481 10 176 114 L194 167 Q338 119 539 47 Q646 133 737 238 L247 238 L247 283 Q277 350 307 427 L54 427 L54 481 L328 481 Q353 549 375 618 L109 618 L109 672 L392 672 Q412 739 427 799 L486 793 Q472 734 454 672 L891 672 L891 618 L437 618 Q416 549 391 481 L946 481 L946 427 L371 427 Q344 355 316 292 L816 292 L816 235 Q714 122 599 25 Q719 -18 806 -51 L784 -107 Z" /><glyph glyph-name="uni4E14" unicode="&#x4e14;" d="M957 -47 L44 -47 L44 7 L207 7 L207 743 L794 743 L794 7 L957 7 L957 -47 ZM264 206 L264 7 L736 7 L736 206 L264 206 ZM264 449 L264 260 L736 260 L736 449 L264 449 ZM264 688 L264 502 L736 502 L736 688 L264 688 Z" /><glyph glyph-name="uni4E16" unicode="&#x4e16;" d="M789 798 L789 556 L958 556 L958 500 L789 500 L789 187 L437 187 L437 500 L244 500 L244 17 L932 17 L932 -38 L186 -38 L186 500 L42 500 L42 556 L186 556 L186 773 L244 773 L244 556 L437 556 L437 797 L493 797 L493 556 L733 556 L733 798 L789 798 ZM493 242 L733 242 L733 500 L493 500 L493 242 Z" /><glyph glyph-name="uni4E1A" unicode="&#x4e1a;" d="M949 -37 L53 -37 L53 20 L356 20 L356 790 L416 790 L416 20 L587 20 L587 790 L647 790 L647 20 L949 20 L949 -37 ZM266 195 Q177 410 90 597 L144 621 Q233 430 322 220 L266 195 ZM916 593 Q834 398 733 192 L679 219 Q782 423 860 617 L916 593 Z" /><glyph glyph-name="uni4E1D" unicode="&#x4e1d;" d="M906 190 Q766 182 509 161 L500 213 Q542 222 563 245 Q622 300 724 437 Q609 435 485 425 L471 475 Q509 490 515 499 Q611 618 704 792 L753 768 Q666 612 571 484 L761 487 Q818 567 856 632 L900 607 Q765 388 620 225 L906 244 L906 190 ZM459 186 Q351 183 123 161 L111 215 Q153 225 174 247 Q221 293 323 437 Q215 435 87 427 L75 478 Q113 491 119 500 Q220 621 308 794 L358 770 Q276 616 176 485 L359 487 Q415 569 455 639 L500 615 Q361 383 230 228 L459 241 L459 186 ZM953 -52 L47 -52 L47 2 L953 2 L953 -52 Z" /><glyph glyph-name="uni4E24" unicode="&#x4e24;" d="M116 -74 L116 538 L341 538 Q342 618 342 691 L48 691 L48 742 L929 742 L929 691 L638 691 Q638 622 637 538 L863 538 L863 49 Q863 -15 838 -37 Q813 -59 746 -59 L631 -59 L621 -7 L731 -7 Q779 -7 793 7.5 Q807 22 807 61 L807 487 L635 487 Q633 417 620 354 Q699 267 789 162 L749 126 Q682 206 605 294 Q562 154 449 25 L404 52 Q491 150 534 251.5 Q577 353 580 487 L393 487 Q390 427 381 376 Q443 308 498 245 L458 209 L367 314 Q332 189 225 66 L181 97 Q261 190 296 276 Q331 362 338 487 L170 487 L170 -74 L116 -74 ZM397 691 Q397 619 395 538 L582 538 Q582 600 583 691 L397 691 Z" /><glyph glyph-name="uni4E2A" unicode="&#x4e2a;" d="M927 334 Q663 504 500 724 Q333 501 71 334 L37 390 Q319 563 469 786 L531 786 Q688 559 964 390 L927 334 ZM469 -97 L469 483 L530 483 L530 -97 L469 -97 Z" /><glyph glyph-name="uni4E2D" unicode="&#x4e2d;" d="M469 -101 L469 219 L182 219 L182 146 L123 146 L123 597 L469 597 L469 800 L528 800 L528 597 L877 597 L877 148 L818 148 L818 219 L528 219 L528 -101 L469 -101 ZM818 541 L528 541 L528 275 L818 275 L818 541 ZM182 541 L182 275 L469 275 L469 541 L182 541 Z" /><glyph glyph-name="uni4E30" unicode="&#x4e30;" d="M471 -100 L471 131 L52 131 L52 186 L471 186 L471 365 L135 365 L135 419 L471 419 L471 590 L88 590 L88 645 L471 645 L471 798 L528 798 L528 645 L910 645 L910 590 L528 590 L528 419 L863 419 L863 365 L528 365 L528 186 L946 186 L946 131 L528 131 L528 -100 L471 -100 Z" /><glyph glyph-name="uni4E3A" unicode="&#x4e3a;" d="M516 795 Q516 728 499 569 Q499 565 498 561 L873 561 Q864 336 845 66 Q841 -4 804 -31 Q767 -58 678 -58 L524 -58 L512 -1 L660 -1 Q732 -1 758.5 17.5 Q785 36 789 92 Q806 314 812 505 L492 505 Q468 311 381 176 Q294 41 112 -89 L68 -45 Q242 77 325 202 Q408 327 431 505 L85 505 L85 561 L438 561 Q438 564 439 569 Q450 681 457 795 L516 795 ZM665 182 Q584 274 505 356 L547 394 L708 221 L665 182 ZM307 596 Q236 677 165 750 L206 785 Q279 712 350 634 L307 596 Z" /><glyph glyph-name="uni4E3B" unicode="&#x4e3b;" d="M873 272 L529 272 L529 12 L949 12 L949 -44 L51 -44 L51 12 L470 12 L470 272 L127 272 L127 328 L470 328 L470 559 L84 559 L84 615 L916 615 L916 559 L529 559 L529 328 L873 328 L873 272 ZM516 629 Q470 714 420 786 L470 814 L567 659 L516 629 Z" /><glyph glyph-name="uni4E49" unicode="&#x4e49;" d="M924 -91 Q667 17 510 147 Q355 18 83 -92 L49 -33 Q310 66 462 190 Q275 369 165 694 L221 716 Q329 399 508 231 Q683 396 761 731 L821 711 Q736 362 556 189 Q707 67 953 -27 L924 -91 ZM536 533 Q463 658 396 767 L446 796 Q517 683 588 564 L536 533 Z" /><glyph glyph-name="uni4E4B" unicode="&#x4e4b;" d="M943 -36 L547 -36 Q426 -36 366 -18 Q306 0 260 54 Q241 75 229 82.5 Q217 90 209 90 Q198 96 165 59 Q126 10 86 -43 L44 6 Q92 70 142 127 Q175 164 206 164 Q217 164 228 159 Q568 343 773 553 L131 553 L131 609 L855 609 L855 553 Q757 442 597.5 324 Q438 206 275 119 L278 116 Q325 58 378.5 39 Q432 20 542 20 L955 20 L943 -36 ZM514 622 Q473 703 427 784 L482 802 Q528 721 570 640 L514 622 Z" /><glyph glyph-name="uni4E4E" unicode="&#x4e4e;" d="M882 701 Q735 683 535 667 L535 328 L957 328 L957 273 L535 273 L535 44 Q535 -19 505.5 -46.5 Q476 -74 394 -74 L263 -74 L252 -20 L392 -20 Q449 -20 464 -3.5 Q479 13 479 56 L479 273 L44 273 L44 328 L479 328 L479 663 Q266 647 90 642 L84 698 Q513 711 874 756 L882 701 ZM847 579 Q776 491 686 381 L641 414 Q733 521 803 612 L847 579 ZM312 380 Q226 500 160 576 L203 609 Q271 527 356 416 L312 380 Z" /><glyph glyph-name="uni4E50" unicode="&#x4e50;" d="M915 339 L548 339 L548 34 Q548 -30 522 -51 Q496 -72 427 -72 L312 -72 L300 -16 L409 -16 Q457 -16 471.5 -3.5 Q486 9 486 51 L486 339 L132 339 L172 706 Q540 720 847 763 L859 707 Q555 665 228 650 L198 395 L486 395 L486 610 L548 610 L548 395 L915 395 L915 339 ZM896 -49 Q777 101 663 231 L708 266 Q820 140 946 -11 L896 -49 ZM326 238 Q231 93 92 -50 L46 -12 Q185 127 276 268 L326 238 Z" /><glyph glyph-name="uni4E5F" unicode="&#x4e5f;" d="M932 179 Q929 116 924 49 Q920 -15 890 -36 Q860 -57 780 -57 L353 -57 Q268 -57 233 -25.5 Q198 6 198 89 L198 417 L56 383 L46 438 L198 474 L198 686 L254 686 L254 488 L478 542 L478 797 L534 797 L534 555 L846 631 Q839 474 828 311 Q825 251 797 228.5 Q769 206 702 206 L603 206 L591 261 L680 261 Q734 261 752 275.5 Q770 290 771 335 Q780 468 784 561 L534 499 L534 94 L478 94 L478 486 L254 431 L254 107 Q254 40 280 18.5 Q306 -3 374 -3 L755 -3 Q826 -3 847.5 12.5 Q869 28 869 81 Q872 138 874 191 L932 179 Z" /><glyph glyph-name="uni4E60" unicode="&#x4e60;" d="M470 0 L634 0 Q713 0 742 24.5 Q771 49 773 116 Q786 402 795 662 L91 662 L91 720 L858 720 Q848 418 835 94 Q831 6 792 -26 Q753 -58 655 -58 L482 -58 L470 0 ZM723 320 L99 60 L76 117 Q392 244 709 378 L723 320 ZM483 347 Q331 456 189 551 L227 596 Q367 504 521 397 L483 347 Z" /><glyph glyph-name="uni4E86" unicode="&#x4e86;" d="M88 719 L872 719 L872 662 L537 426 L537 50 Q537 -18 509.5 -41.5 Q482 -65 402 -65 L263 -65 L252 -8 L384 -8 Q440 -8 457.5 6.5 Q475 21 475 70 L475 456 L772 662 L88 662 L88 719 Z" /><glyph glyph-name="uni4E88" unicode="&#x4e88;" d="M717 175 Q770 243 847 361 L532 361 L532 42 Q532 -25 506 -48.5 Q480 -72 406 -72 L282 -72 L271 -18 L387 -18 Q440 -18 458 -2.5 Q476 13 476 62 L476 361 L56 361 L56 415 L528 415 Q394 514 276 597 L308 639 Q379 590 495 506 Q637 599 739 688 L139 688 L139 741 L833 741 L833 688 Q709 585 542 472 L577 446 L548 415 L912 415 L912 361 Q894 327 840 248.5 Q786 170 767 145 L717 175 Z" /><glyph glyph-name="uni4E8B" unicode="&#x4e8b;" d="M525 804 L525 720 L934 720 L934 676 L525 676 L525 599 L830 599 L830 443 L525 443 L525 366 L850 366 L850 243 L951 243 L951 201 L850 201 L850 28 L800 28 L800 78 L525 78 L525 32 Q525 -29 500 -52.5 Q475 -76 407 -76 L283 -76 L273 -28 L395 -28 Q441 -28 457 -13 Q473 2 473 42 L473 78 L96 78 L96 121 L473 121 L473 201 L40 201 L40 243 L473 243 L473 324 L105 324 L105 366 L473 366 L473 443 L162 443 L162 599 L473 599 L473 676 L57 676 L57 720 L473 720 L473 804 L525 804 ZM800 324 L525 324 L525 243 L800 243 L800 324 ZM525 201 L525 121 L800 121 L800 201 L525 201 ZM215 560 L215 482 L473 482 L473 560 L215 560 ZM776 560 L525 560 L525 482 L776 482 L776 560 Z" /><glyph glyph-name="uni4E8E" unicode="&#x4e8e;" d="M948 360 L545 360 L545 53 Q545 -14 515.5 -39.5 Q486 -65 407 -65 L269 -65 L257 -9 L391 -9 Q447 -9 465 8 Q483 25 483 70 L483 360 L50 360 L50 415 L483 415 L483 668 L123 668 L123 724 L876 724 L876 668 L545 668 L545 415 L948 415 L948 360 Z" /><glyph glyph-name="uni4E91" unicode="&#x4e91;" d="M854 -65 L789 18 Q712 15 492 4 Q272 -7 115 -21 L98 36 Q147 49 181 84 Q311 216 421 406 L60 406 L60 462 L940 462 L940 406 L492 406 Q379 210 232 48 L746 72 L585 276 L632 309 Q761 152 902 -27 L854 -65 ZM860 673 L140 673 L140 729 L860 729 L860 673 Z" /><glyph glyph-name="uni4E92" unicode="&#x4e92;" d="M956 -38 L44 -38 L44 18 L690 18 L704 187 L207 187 L288 666 L85 666 L85 722 L918 722 L918 666 L347 666 L319 504 L787 504 L750 18 L956 18 L956 -38 ZM725 448 L309 448 L274 243 L708 243 L725 448 Z" /><glyph glyph-name="uni4E94" unicode="&#x4e94;" d="M951 -22 L50 -22 L50 33 L270 33 L331 371 L114 371 L114 426 L341 426 L385 664 L93 664 L93 720 L915 720 L915 664 L444 664 L401 426 L785 426 L770 33 L951 33 L951 -22 ZM723 371 L391 371 L330 33 L710 33 L723 371 Z" /><glyph glyph-name="uni4EA4" unicode="&#x4ea4;" d="M934 -94 Q645 -21 499 90 Q356 -19 69 -103 L44 -47 Q318 27 454 128 Q364 212 288 345 L338 373 Q409 244 500 165 Q591 247 654 374 L707 350 Q640 217 545 129 Q684 28 957 -34 L934 -94 ZM934 600 L66 600 L66 656 L934 656 L934 600 ZM880 284 Q734 402 583 514 L617 556 Q766 448 915 333 L880 284 ZM403 517 Q278 383 116 271 L83 321 Q243 425 360 555 L403 517 ZM501 662 Q468 723 431 786 L490 805 Q525 745 559 681 L501 662 Z" /><glyph glyph-name="uni4EA7" unicode="&#x4ea7;" d="M929 350 L214 350 L214 267 Q214 142 188.5 59 Q163 -24 95 -109 L43 -78 Q112 3 135 78.5 Q158 154 158 278 L158 405 L590 405 Q656 504 710 607 L761 583 Q715 497 657 405 L929 405 L929 350 ZM952 619 L70 619 L70 674 L952 674 L952 619 ZM360 421 Q315 503 265 581 L315 609 Q366 531 412 451 L360 421 ZM499 678 Q472 735 444 788 L498 811 Q527 757 555 698 L499 678 Z" /><glyph glyph-name="uni4EAB" unicode="&#x4eab;" d="M273 -26 L402 -26 Q450 -26 466 -13 Q482 0 482 39 L482 107 L47 107 L47 155 L482 155 L482 183 L720 277 L127 277 L127 324 L826 324 L826 277 L538 165 L538 155 L953 155 L953 107 L538 107 L538 21 Q538 -34 513.5 -55 Q489 -76 417 -76 L283 -76 L273 -26 ZM190 570 L810 570 L810 401 L190 401 L190 570 ZM934 648 L65 648 L65 696 L491 696 Q464 746 441 786 L500 803 Q525 759 559 696 L934 696 L934 648 ZM243 529 L243 444 L756 444 L756 529 L243 529 Z" /><glyph glyph-name="uni4EAC" unicode="&#x4eac;" d="M185 509 L814 509 L814 242 L543 242 L543 18 Q543 -34 518.5 -53.5 Q494 -73 423 -73 L310 -73 L299 -17 L405 -17 Q454 -17 469 -5 Q484 7 484 41 L484 242 L185 242 L185 509 ZM243 458 L243 293 L756 293 L756 458 L243 458 ZM943 627 L58 627 L58 678 L943 678 L943 627 ZM917 -64 Q792 40 660 147 L694 191 Q830 83 958 -20 L917 -64 ZM331 156 Q222 35 84 -65 L47 -17 Q183 74 288 194 L331 156 ZM496 679 Q474 732 439 787 L494 811 Q525 758 551 701 L496 679 Z" /><glyph glyph-name="uni4EAE" unicode="&#x4eae;" d="M207 573 L796 573 L796 404 L207 404 L207 573 ZM918 120 L912 21 Q909 -31 883 -50.5 Q857 -70 794 -70 L718 -70 Q663 -70 641.5 -51.5 Q620 -33 620 19 L620 147 L355 147 L355 111 Q355 65 331.5 27.5 Q308 -10 248 -40 Q188 -70 80 -96 L56 -45 Q159 -22 211.5 3 Q264 28 281.5 60.5 Q299 93 299 141 L299 196 L676 196 L676 36 Q676 3 688.5 -7.5 Q701 -18 736 -18 L786 -18 Q827 -18 842.5 -5.5 Q858 7 859 42 Q862 72 865 131 L918 120 ZM105 170 L105 325 L898 325 L898 169 L842 169 L842 280 L161 280 L161 170 L105 170 ZM936 652 L66 652 L66 700 L936 700 L936 652 ZM263 531 L263 445 L740 445 L740 531 L263 531 ZM495 701 Q474 742 444 794 L500 817 Q526 770 553 721 L495 701 Z" /><glyph glyph-name="uni4EBA" unicode="&#x4eba;" d="M898 -90 Q579 150 499 458 Q435 154 106 -82 L63 -33 Q279 116 371.5 285.5 Q464 455 464 688 L467 787 L525 787 Q524 722 523 666 Q523 653 522 639 Q541 424 646.5 258.5 Q752 93 939 -39 L898 -90 Z" /><glyph glyph-name="uni4EC5" unicode="&#x4ec5;" d="M360 719 L878 719 L878 663 Q825 382 671 193 Q776 76 958 -42 L922 -96 Q740 26 631 148 Q515 24 323 -95 L285 -42 Q479 75 591 194 Q449 374 399 626 L455 642 Q503 405 631 240 Q772 413 816 663 L360 663 L360 719 ZM330 778 Q294 669 244 566 L244 -102 L188 -102 L188 461 Q130 363 62 280 L36 342 Q182 530 274 795 L330 778 Z" /><glyph glyph-name="uni4ECB" unicode="&#x4ecb;" d="M926 341 Q653 475 499 724 Q347 485 71 338 L37 393 Q335 544 468 787 L531 787 Q675 531 958 397 L926 341 ZM365 441 L365 306 Q365 205 347 134.5 Q329 64 279.5 7.5 Q230 -49 138 -108 L100 -61 Q223 20 264.5 93 Q306 166 306 301 L306 441 L365 441 ZM635 -94 L635 443 L694 443 L694 -94 L635 -94 Z" /><glyph glyph-name="uni4ECE" unicode="&#x4ece;" d="M916 -98 Q815 8 750.5 129 Q686 250 658 406 Q633 272 567.5 151 Q502 30 375 -99 L330 -56 Q503 116 564 276.5 Q625 437 628 668 Q630 755 630 792 L690 792 Q690 755 686 668 L683 616 Q694 392 762.5 233 Q831 74 960 -54 L916 -98 ZM330 791 Q330 755 325 649 Q322 575 318 511 Q416 378 504 246 L458 208 Q393 309 309 427 Q290 280 239.5 165.5 Q189 51 95 -76 L43 -42 Q166 121 214 266.5 Q262 412 265 650 Q270 730 270 791 L330 791 Z" /><glyph glyph-name="uni4ED6" unicode="&#x4ed6;" d="M935 165 Q934 102 929 42 Q926 -17 898.5 -38.5 Q871 -60 792 -60 L518 -60 Q445 -60 415.5 -34 Q386 -8 386 64 L386 413 L284 382 L272 434 L386 469 L386 695 L439 695 L439 485 L596 533 L596 795 L649 795 L649 549 L873 618 Q866 404 861 290 Q859 237 834.5 217.5 Q810 198 747 198 L691 198 L680 251 L731 251 Q780 251 794 263 Q808 275 808 314 Q814 449 817 546 L649 494 L649 93 L596 93 L596 478 L439 430 L439 80 Q439 28 458 10 Q477 -8 536 -8 L768 -8 Q836 -8 855.5 7.5 Q875 23 875 68 Q878 119 879 175 L935 165 ZM182 -98 L182 463 Q129 372 66 289 L37 341 Q176 517 262 780 L315 768 Q280 662 235 566 L235 -98 L182 -98 Z" /><glyph glyph-name="uni4EE3" unicode="&#x4ee3;" d="M947 459 L596 427 Q636 134 706 44 Q749 -14 789 -14 Q810 -14 825 1 Q840 16 853 68 Q869 130 880 189 L929 167 Q917 99 897 31 Q879 -32 851.5 -55 Q824 -78 789 -78 Q756 -78 725.5 -58.5 Q695 -39 659 11 Q577 123 540 422 L307 402 L302 458 L534 478 Q528 537 524 603 L515 797 L572 797 Q575 711 580 602 Q583 539 589 483 L943 515 L947 459 ZM203 -96 L203 458 Q142 351 68 261 L42 319 Q198 512 290 788 L346 772 Q308 664 259 563 L259 -96 L203 -96 ZM835 568 Q754 644 669 716 L700 754 Q785 683 870 609 L835 568 Z" /><glyph glyph-name="uni4EE5" unicode="&#x4ee5;" d="M911 -64 Q825 37 711 162 Q626 28 393 -92 L357 -42 Q579 70 660 197.5 Q741 325 752 530 Q756 581 757 654 Q758 727 758 771 L814 771 Q814 728 814 656 Q814 584 810 526 Q798 339 743 218 Q858 92 957 -20 L911 -64 ZM505 273 Q382 180 133 -32 L94 14 Q122 30 127.5 46.5 Q133 63 133 79 L133 748 L190 748 L190 93 L470 321 L505 273 ZM506 487 Q428 623 346 755 L391 783 Q475 649 556 515 L506 487 Z" /><glyph glyph-name="uni4EEC" unicode="&#x4eec;" d="M642 -22 L749 -22 Q805 -22 822 -5.5 Q839 11 839 65 L839 670 L581 670 L581 723 L893 723 L893 52 Q893 -27 866 -50.5 Q839 -74 765 -74 L652 -74 L642 -22 ZM172 -93 L172 469 Q121 370 65 294 L36 346 Q168 538 249 797 L301 784 Q270 681 225 579 L225 -93 L172 -93 ZM370 -87 L370 615 L425 615 L425 -87 L370 -87 ZM517 607 Q453 687 385 762 L423 796 Q492 721 557 644 L517 607 Z" /><glyph glyph-name="uni4EF6" unicode="&#x4ef6;" d="M924 527 L684 527 L684 274 L960 274 L960 220 L684 220 L684 -102 L628 -102 L628 220 L308 220 L308 274 L628 274 L628 527 L449 527 Q419 432 384 353 L326 372 Q403 548 449 748 L505 732 Q487 655 466 581 L628 581 L628 801 L684 801 L684 581 L924 581 L924 527 ZM309 779 Q281 678 240 582 L240 -100 L184 -100 L184 465 Q127 356 57 270 L32 330 Q170 525 253 797 L309 779 Z" /><glyph glyph-name="uni4EF7" unicode="&#x4ef7;" d="M320 774 Q283 665 234 563 L234 -97 L179 -97 L179 460 Q126 367 60 282 L30 335 Q184 540 267 790 L320 774 ZM933 378 Q727 503 618 723 Q525 525 311 368 L278 418 Q500 575 586 785 L649 785 Q750 553 964 428 L933 378 ZM510 440 L510 301 Q510 152 476 72 Q442 -8 342 -102 L293 -68 Q390 18 422.5 92.5 Q455 167 455 301 L455 440 L510 440 ZM721 -96 L721 438 L776 438 L776 -96 L721 -96 Z" /><glyph glyph-name="uni4EFB" unicode="&#x4efb;" d="M910 694 Q798 672 664 655 L664 388 L957 388 L957 332 L664 332 L664 23 L929 23 L929 -33 L337 -33 L337 23 L606 23 L606 332 L311 332 L311 388 L606 388 L606 648 Q474 633 356 627 L350 683 Q635 699 898 750 L910 694 ZM325 777 Q289 669 243 572 L243 -95 L186 -95 L186 464 Q131 368 63 287 L36 343 Q178 523 270 792 L325 777 Z" /><glyph glyph-name="uni4EFD" unicode="&#x4efd;" d="M541 -4 L649 -4 Q708 -4 729 17 Q750 38 752 95 Q762 226 768 346 L529 346 Q529 328 527 315 Q519 174 473 84.5 Q427 -5 310 -95 L264 -57 Q375 23 419 103 Q463 183 470 315 Q472 328 472 346 L360 346 L360 402 L829 402 Q820 244 810 70 Q805 -5 770 -32.5 Q735 -60 667 -60 L552 -60 L541 -4 ZM179 -96 L179 455 Q127 362 59 278 L33 334 Q177 528 258 791 L310 774 Q277 663 234 566 L234 -96 L179 -96 ZM911 355 Q729 514 651 787 L707 799 Q776 543 955 393 L911 355 ZM571 753 Q480 525 315 359 L276 396 Q436 554 515 771 L571 753 Z" /><glyph glyph-name="uni4EFF" unicode="&#x4eff;" d="M560 0 L665 0 Q729 0 753.5 18 Q778 36 781 87 Q783 108 786.5 166.5 Q790 225 793 284 Q796 343 796 358 L529 358 Q519 203 476 102 Q433 1 331 -97 L284 -56 Q399 50 435 156.5 Q471 263 477 462 Q480 505 482 587 L323 587 L323 643 L642 643 Q599 739 572 795 L628 807 Q659 742 703 643 L955 643 L955 587 L539 587 L535 456 Q533 434 533 414 L856 414 Q849 257 837 69 Q834 -6 802 -31 Q770 -56 686 -56 L571 -56 L560 0 ZM321 778 Q282 665 235 566 L235 -93 L179 -93 L179 459 Q125 366 60 284 L32 340 Q172 526 261 792 L321 778 Z" /><glyph glyph-name="uni4F17" unicode="&#x4f17;" d="M918 388 Q648 524 502 716 Q366 533 84 388 L54 443 Q344 582 471 776 L534 776 Q669 576 948 443 L918 388 ZM912 -87 Q720 50 654 249 Q627 152 565 69 Q503 -14 401 -100 L355 -56 Q489 49 550.5 152 Q612 255 620 390 Q625 441 626 484 L684 484 Q681 441 677 389 Q676 382 676 376 Q712 123 951 -41 L912 -87 ZM343 484 L337 393 L333 350 L503 166 L460 125 Q400 195 321 281 Q282 90 104 -88 L54 -49 Q167 59 219 160 Q271 261 279 396 L286 484 L343 484 Z" /><glyph glyph-name="uni4F18" unicode="&#x4f18;" d="M582 797 Q580 678 577 572 Q577 565 576 559 L940 559 L940 503 L575 503 Q567 312 508 178.5 Q449 45 313 -92 L265 -54 Q397 72 451.5 196.5 Q506 321 517 503 L310 503 L310 559 L520 559 Q520 568 521 577 Q524 680 525 797 L582 797 ZM183 -97 L183 455 Q129 360 64 282 L38 340 Q181 521 267 793 L323 778 Q287 667 239 563 L239 -97 L183 -97 ZM931 203 Q929 108 926 42 Q925 -22 900 -42 Q875 -62 810 -62 L743 -62 Q693 -62 667 -39 Q641 -16 641 47 L641 458 L697 458 L697 61 Q697 21 711.5 7 Q726 -7 761 -7 L809 -7 Q848 -7 860.5 5.5 Q873 18 873 59 L877 215 L931 203 ZM831 592 Q753 669 682 732 L717 769 Q788 706 868 630 L831 592 Z" /><glyph glyph-name="uni4F1A" unicode="&#x4f1a;" d="M822 -94 L762 -25 Q508 -31 149 -56 L137 -5 Q176 7 211 36 Q305 116 392 229 L76 229 L76 281 L927 281 L927 229 L464 229 Q374 111 267 10 L717 26 L607 151 L651 185 Q750 75 866 -56 L822 -94 ZM931 409 Q661 545 503 734 Q354 548 72 406 L47 458 Q332 597 471 788 L535 788 Q676 598 956 462 L931 409 ZM776 428 L229 428 L229 478 L776 478 L776 428 Z" /><glyph glyph-name="uni4F20" unicode="&#x4f20;" d="M847 -104 Q610 11 385 111 L406 160 Q511 114 660 46 Q732 139 791 239 L442 239 L442 284 Q462 342 482 413 L303 413 L303 464 L496 464 Q514 531 530 600 L357 600 L357 651 L541 651 Q559 733 570 804 L626 798 Q615 728 598 651 L921 651 L921 600 L587 600 Q572 531 555 464 L958 464 L958 413 L541 413 Q522 344 504 289 L859 289 L859 239 Q795 136 710 23 Q801 -17 871 -50 L847 -104 ZM323 782 Q286 671 240 574 L240 -100 L186 -100 L186 471 Q130 374 61 290 L35 346 Q173 526 269 796 L323 782 Z" /><glyph glyph-name="uni4F34" unicode="&#x4f34;" d="M957 152 L665 152 L665 -102 L609 -102 L609 152 L311 152 L311 206 L609 206 L609 364 L368 364 L368 416 L609 416 L609 802 L665 802 L665 416 L917 416 L917 364 L665 364 L665 206 L957 206 L957 152 ZM187 -96 L187 461 Q133 371 63 286 L31 338 Q182 524 269 785 L325 771 Q288 660 243 566 L243 -96 L187 -96 ZM914 712 Q861 604 794 482 L744 506 Q813 629 864 736 L914 712 ZM482 485 Q424 600 363 707 L411 731 Q472 626 532 509 L482 485 Z" /><glyph glyph-name="uni4F3C" unicode="&#x4f3c;" d="M915 -70 Q842 36 756 152 Q681 24 490 -100 L453 -56 Q646 66 714 189 Q782 312 787 543 Q792 682 791 766 L845 766 Q846 682 840 543 Q835 329 782 204 Q877 80 959 -34 L915 -70 ZM310 778 Q279 677 236 577 L236 -97 L183 -97 L183 467 Q129 364 68 284 L32 340 Q170 524 256 794 L310 778 ZM655 281 Q571 214 399 59 L360 100 Q380 115 384 129.5 Q388 144 388 151 L388 710 L441 710 L441 171 L629 334 L655 281 ZM646 525 Q573 651 514 749 L558 774 Q617 678 690 555 L646 525 Z" /><glyph glyph-name="uni4F3D" unicode="&#x4f3d;" d="M671 -84 L671 669 L900 669 L900 -84 L850 -84 L850 14 L721 14 L721 -84 L671 -84 ZM384 -9 L448 -9 Q494 -9 508 5 Q522 19 521 62 L533 556 L410 556 Q410 517 409 496 Q407 255 379 138 Q351 21 281 -100 L235 -76 Q303 40 329.5 152 Q356 264 357 497 Q357 511 358 556 L266 556 L266 607 L358 607 Q360 769 360 797 L410 797 L410 607 L583 607 Q577 326 570 38 Q570 -20 546 -41 Q522 -62 460 -62 L394 -62 L384 -9 ZM721 616 L721 67 L850 67 L850 616 L721 616 ZM264 788 Q239 685 204 596 L204 -100 L154 -100 L154 482 Q112 399 61 318 L25 362 Q147 559 214 800 L264 788 Z" /><glyph glyph-name="uni4F46" unicode="&#x4f46;" d="M395 724 L875 724 L875 180 L395 180 L395 724 ZM451 235 L819 235 L819 426 L451 426 L451 235 ZM451 669 L451 479 L819 479 L819 669 L451 669 ZM179 -105 L179 453 Q125 357 59 275 L35 337 Q172 519 260 790 L318 778 Q281 666 235 564 L235 -105 L179 -105 ZM958 -43 L299 -43 L299 13 L958 13 L958 -43 Z" /><glyph glyph-name="uni4F4D" unicode="&#x4f4d;" d="M180 -92 L180 469 Q126 373 57 288 L25 338 Q171 528 257 797 L315 785 Q279 675 236 579 L236 -92 L180 -92 ZM953 -40 L296 -40 L296 14 L640 14 Q719 249 790 512 L846 495 Q773 247 696 14 L953 14 L953 -40 ZM934 572 L326 572 L326 626 L934 626 L934 572 ZM514 97 Q458 295 398 492 L452 506 Q512 312 568 111 L514 97 ZM616 636 Q586 715 549 794 L607 809 Q643 731 674 653 L616 636 Z" /><glyph glyph-name="uni4F4E" unicode="&#x4f4e;" d="M946 145 Q937 88 920 21 Q908 -26 889 -46 Q870 -66 844 -66 Q816 -66 787 -35.5 Q758 -5 732 63 Q690 178 671 369 L444 369 L444 69 L633 195 L650 142 Q553 80 387 -35 L357 10 Q379 22 383.5 34.5 Q388 47 388 63 L388 694 Q637 709 891 759 L903 704 Q812 684 708 670 Q711 536 720 423 L943 423 L943 369 L725 369 Q745 180 784 75 Q816 7 844 4 Q853 3 863.5 15 Q874 27 881 59 Q894 112 900 162 L946 145 ZM176 -97 L176 465 Q122 370 55 290 L30 346 Q175 537 259 802 L315 785 Q279 672 231 571 L231 -97 L176 -97 ZM444 641 L444 423 L666 423 Q657 533 653 663 Q528 647 444 641 ZM631 -100 Q579 -34 526 28 L567 56 Q619 -5 671 -70 L631 -100 Z" /><glyph glyph-name="uni4F53" unicode="&#x4f53;" d="M578 -102 L578 78 L396 78 L396 130 L578 130 L578 536 Q495 286 279 77 L245 127 Q450 315 541 562 L300 562 L300 618 L578 618 L578 798 L632 798 L632 618 L934 618 L934 562 L669 562 Q770 307 972 129 L930 79 Q726 274 632 537 L632 130 L812 130 L812 78 L632 78 L632 -102 L578 -102 ZM172 -95 L172 448 Q120 353 58 274 L34 336 Q169 518 252 790 L308 780 Q274 664 226 557 L226 -95 L172 -95 Z" /><glyph glyph-name="uni4F55" unicode="&#x4f55;" d="M368 509 L661 509 L661 144 L368 144 L368 509 ZM957 663 L857 663 L857 53 Q857 -21 829.5 -47.5 Q802 -74 718 -74 L589 -74 L578 -19 L704 -19 Q764 -19 782.5 -2.5 Q801 14 801 68 L801 663 L332 663 L332 716 L957 716 L957 663 ZM172 -99 L172 454 Q120 361 58 282 L27 332 Q165 519 250 792 L305 778 Q272 666 228 566 L228 -99 L172 -99 ZM418 458 L418 194 L611 194 L611 458 L418 458 Z" /><glyph glyph-name="uni4F59" unicode="&#x4f59;" d="M920 247 L537 247 L537 37 Q537 -30 511.5 -52.5 Q486 -75 412 -75 L303 -75 L291 -18 L389 -18 Q446 -18 462 -2.5 Q478 13 478 56 L478 247 L80 247 L80 303 L478 303 L478 443 L256 443 L256 497 L751 497 L751 443 L537 443 L537 303 L920 303 L920 247 ZM932 413 Q652 549 500 732 Q353 549 70 414 L43 468 Q327 594 465 782 L536 782 Q675 595 961 466 L932 413 ZM903 -57 Q774 61 659 151 L694 193 Q815 100 941 -13 L903 -57 ZM328 161 Q225 34 98 -69 L60 -25 Q188 73 284 197 L328 161 Z" /><glyph glyph-name="uni4F5C" unicode="&#x4f5c;" d="M911 117 L615 117 L615 -103 L559 -103 L559 586 L482 586 Q419 464 333 364 L295 407 Q432 571 511 797 L566 781 Q541 709 509 642 L939 642 L939 586 L615 586 L615 408 L889 408 L889 352 L615 352 L615 173 L911 173 L911 117 ZM182 -97 L182 458 Q128 368 62 290 L30 341 Q172 516 264 781 L321 764 Q284 655 239 562 L239 -97 L182 -97 Z" /><glyph glyph-name="uni4F73" unicode="&#x4f73;" d="M954 -48 L295 -48 L295 6 L604 6 L604 182 L359 182 L359 233 L604 233 L604 346 L660 346 L660 233 L903 233 L903 182 L660 182 L660 6 L954 6 L954 -48 ZM953 386 L301 386 L301 439 L604 439 L604 599 L359 599 L359 650 L604 650 L604 794 L660 794 L660 650 L903 650 L903 599 L660 599 L660 439 L953 439 L953 386 ZM313 775 Q285 671 241 574 L241 -103 L185 -103 L185 463 Q132 370 63 273 L37 338 Q187 541 258 787 L313 775 Z" /><glyph glyph-name="uni4F7F" unicode="&#x4f7f;" d="M647 795 L647 666 L941 666 L941 616 L647 616 L647 499 L889 499 L889 258 L647 258 Q648 136 598 63 Q732 -2 964 -26 L949 -82 Q705 -52 562 22 Q483 -47 289 -98 L263 -46 Q439 -2 510 53 Q417 114 354 208 L393 238 Q454 147 548 90 Q595 153 593 258 L349 258 L349 499 L593 499 L593 616 L304 616 L304 666 L593 666 L593 795 L647 795 ZM164 -104 L164 451 Q119 367 64 291 L32 339 Q159 519 237 792 L291 779 Q260 664 218 565 L218 -104 L164 -104 ZM401 450 L401 308 L593 308 L593 450 L401 450 ZM836 450 L647 450 L647 308 L836 308 L836 450 Z" /><glyph glyph-name="uni4F8B" unicode="&#x4f8b;" d="M444 219 Q400 264 353 306 Q326 248 294 197 L256 233 Q370 436 418 680 L312 680 L312 731 L652 731 L652 680 L470 680 Q456 600 432 518 L606 518 L606 460 Q575 272 508.5 144 Q442 16 308 -103 L270 -65 Q409 58 470.5 184.5 Q532 311 555 466 L416 466 Q398 409 375 355 Q425 311 473 263 L444 219 ZM166 -100 L166 465 Q123 376 67 294 L33 342 Q153 528 229 793 L284 782 Q253 673 216 578 L216 -100 L166 -100 ZM893 786 L893 38 Q893 -26 867 -49.5 Q841 -73 771 -73 L662 -73 L652 -23 L759 -23 Q809 -23 826 -6.5 Q843 10 843 53 L843 786 L893 786 ZM686 122 L686 682 L736 682 L736 122 L686 122 Z" /><glyph glyph-name="uni4F9B" unicode="&#x4f9b;" d="M947 224 L281 224 L281 278 L448 278 L448 546 L320 546 L320 599 L448 599 L448 797 L504 797 L504 599 L730 599 L730 797 L786 797 L786 599 L924 599 L924 546 L786 546 L786 278 L947 278 L947 224 ZM168 -93 L168 468 Q117 381 53 298 L27 356 Q164 534 249 804 L304 787 Q267 672 224 577 L224 -93 L168 -93 ZM504 546 L504 278 L730 278 L730 546 L504 546 ZM558 136 Q449 14 327 -88 L289 -46 Q413 52 515 171 L558 136 ZM890 -85 Q781 29 675 131 L713 169 Q820 70 930 -45 L890 -85 Z" /><glyph glyph-name="uni4FBF" unicode="&#x4fbf;" d="M947 -75 Q691 -55 557 15 Q477 -49 278 -98 L257 -46 Q434 -6 507 44 Q433 94 370 176 L411 209 Q471 132 547 81 Q586 131 593 216 L361 216 L361 578 L596 578 L596 687 L331 687 L331 739 L944 739 L944 687 L649 687 L649 578 L883 578 L883 216 L646 216 Q641 115 596 55 Q709 -1 959 -19 L947 -75 ZM170 -102 L170 445 Q123 359 69 286 L33 335 Q168 525 247 793 L302 779 Q272 670 224 557 L224 -102 L170 -102 ZM415 528 L415 421 L596 421 L596 528 L415 528 ZM595 266 Q595 278 596 293 L596 373 L415 373 L415 266 L595 266 ZM829 528 L649 528 L649 421 L829 421 L829 528 ZM649 266 L829 266 L829 373 L649 373 L649 266 Z" /><glyph glyph-name="uni4FDD" unicode="&#x4fdd;" d="M386 734 L864 734 L864 444 L386 444 L386 734 ZM599 -97 L599 227 Q496 77 296 -40 L267 6 Q477 116 574 264 L309 264 L309 314 L599 314 L599 407 L652 407 L652 314 L944 314 L944 264 L667 264 Q775 116 967 16 L935 -34 Q759 79 652 221 L652 -97 L599 -97 ZM442 682 L442 496 L808 496 L808 682 L442 682 ZM175 -100 L175 456 Q127 369 66 292 L33 342 Q95 425 155 545 Q215 665 251 787 L307 774 Q273 663 228 562 L228 -100 L175 -100 Z" /><glyph glyph-name="uni4FE1" unicode="&#x4fe1;" d="M373 -97 L373 222 L866 222 L866 -97 L810 -97 L810 -32 L429 -32 L429 -97 L373 -97 ZM172 -99 L172 457 Q127 377 72 302 L36 352 Q173 540 244 792 L299 777 Q268 668 227 571 L227 -99 L172 -99 ZM429 172 L429 18 L810 18 L810 172 L429 172 ZM957 620 L307 620 L307 672 L624 672 Q590 738 563 784 L619 801 Q651 745 688 672 L957 672 L957 620 ZM877 322 L362 322 L362 371 L877 371 L877 322 ZM877 470 L362 470 L362 518 L877 518 L877 470 Z" /><glyph glyph-name="uni4FEE" unicode="&#x4fee;" d="M947 352 Q776 397 671 460 Q564 395 389 342 L369 389 Q527 435 626 489 Q559 538 509 604 Q463 548 404 500 L374 540 Q508 657 578 802 L625 784 Q607 747 586 711 L877 711 L877 667 Q820 564 717 490 Q815 437 965 401 L947 352 ZM153 -101 L153 437 Q114 362 68 293 L29 331 Q160 531 233 793 L283 781 Q251 661 203 545 L203 -101 L153 -101 ZM938 149 Q721 -14 384 -97 L364 -52 Q691 29 912 187 L938 149 ZM306 67 L306 661 L354 661 L354 67 L306 67 ZM556 666 L540 643 Q591 570 672 517 Q763 578 815 666 L556 666 ZM855 252 Q676 127 433 53 L409 96 Q651 170 829 290 L855 252 ZM775 352 Q624 256 447 197 L426 243 Q604 300 751 392 L775 352 Z" /><glyph glyph-name="uni500D" unicode="&#x500d;" d="M399 -104 L399 244 L864 244 L864 -104 L808 -104 L808 -41 L456 -41 L456 -104 L399 -104 ZM456 194 L456 9 L808 9 L808 194 L456 194 ZM315 772 Q280 668 234 569 L234 -103 L178 -103 L178 458 Q129 369 76 297 L33 340 Q172 516 259 787 L315 772 ZM835 580 Q796 499 747 420 L958 420 L958 367 L310 367 L310 420 L683 420 Q741 510 782 599 L835 580 ZM924 621 L354 621 L354 672 L634 672 Q604 726 567 786 L618 813 Q655 754 688 694 L646 672 L924 672 L924 621 ZM512 435 Q476 507 430 575 L480 600 Q524 533 562 459 L512 435 Z" /><glyph glyph-name="uni503C" unicode="&#x503c;" d="M930 656 L644 656 L644 549 L857 549 L857 5 L958 5 L958 -45 L272 -45 L272 5 L374 5 L374 549 L588 549 L588 656 L321 656 L321 704 L588 704 L588 798 L644 798 L644 704 L930 704 L930 656 ZM160 -94 L160 455 Q117 369 63 291 L33 351 Q158 536 225 797 L283 785 Q254 677 215 579 L215 -94 L160 -94 ZM430 97 L430 5 L801 5 L801 97 L430 97 ZM430 232 L430 140 L801 140 L801 232 L430 232 ZM430 501 L430 410 L801 410 L801 501 L430 501 ZM430 366 L430 276 L801 276 L801 366 L430 366 Z" /><glyph glyph-name="uni505A" unicode="&#x505a;" d="M928 -92 Q813 8 746 113 Q677 12 550 -95 L514 -51 Q648 54 718 162 Q653 285 632 446 Q609 404 585 367 L549 408 Q655 584 697 800 L748 792 Q733 709 706 622 L961 622 L961 570 L881 570 Q865 321 776 162 Q843 54 963 -46 L928 -92 ZM301 359 L399 359 L399 556 L260 556 L260 607 L399 607 L399 795 L450 795 L450 607 L589 607 L589 556 L450 556 L450 359 L547 359 L547 2 L301 2 L301 359 ZM145 -99 L145 459 Q108 381 62 308 L31 358 Q141 546 202 793 L255 780 Q230 679 196 583 L196 -99 L145 -99 ZM687 570 L666 516 Q682 343 747 213 Q817 351 833 570 L687 570 ZM349 308 L349 54 L499 54 L499 308 L349 308 Z" /><glyph glyph-name="uni505C" unicode="&#x505c;" d="M386 570 L849 570 L849 411 L386 411 L386 570 ZM168 -93 L168 455 Q127 375 70 300 L34 347 Q161 528 239 795 L294 784 Q259 667 220 567 L220 -93 L168 -93 ZM836 148 L659 148 L659 19 Q659 -35 635.5 -55 Q612 -75 541 -75 L433 -75 L423 -25 L529 -25 Q576 -25 590 -13 Q604 -1 604 33 L604 148 L394 148 L394 196 L836 196 L836 148 ZM312 177 L312 336 L919 336 L919 176 L866 176 L866 288 L365 288 L365 177 L312 177 ZM936 644 L320 644 L320 692 L936 692 L936 644 ZM439 531 L439 449 L796 449 L796 531 L439 531 ZM606 693 Q586 737 556 789 L613 813 L668 715 L606 693 Z" /><glyph glyph-name="uni50A8" unicode="&#x50a8;" d="M565 -92 L565 253 Q521 222 470 190 L447 235 Q603 328 704 438 L466 438 L466 486 L639 486 L639 628 L507 628 L507 674 L639 674 L639 798 L688 798 L688 674 L813 674 L813 628 L688 628 L688 486 L746 486 Q831 593 887 734 L934 716 Q880 585 808 486 L957 486 L957 438 L770 438 Q721 379 656 324 L877 324 L877 -92 L829 -92 L829 -33 L612 -33 L612 -92 L565 -92 ZM287 782 Q257 670 215 564 L215 -96 L165 -96 L165 453 Q120 363 64 286 L30 336 Q98 431 150.5 552 Q203 673 233 794 L287 782 ZM520 88 Q474 53 355 -46 L322 -4 Q346 8 351 21 Q356 34 356 50 L356 435 L259 435 L259 488 L406 488 L406 63 L506 141 L520 88 ZM612 125 L612 12 L829 12 L829 125 L612 125 ZM612 280 L612 169 L829 169 L829 280 L612 280 ZM425 571 Q376 659 323 744 L365 768 Q418 684 469 597 L425 571 Z" /><glyph glyph-name="uni5143" unicode="&#x5143;" d="M932 197 Q932 166 926 57 Q924 -6 895 -29.5 Q866 -53 790 -53 L699 -53 Q633 -53 604 -25.5 Q575 2 575 72 L575 409 L368 409 Q368 349 367 300 Q367 175 309.5 85 Q252 -5 96 -99 L55 -50 Q205 32 255.5 111 Q306 190 305 300 Q306 342 307 409 L57 409 L57 465 L946 465 L946 409 L636 409 L636 84 Q636 38 653.5 21 Q671 4 717 4 L779 4 Q833 4 851 19 Q869 34 870 81 Q873 146 875 209 L932 197 ZM865 667 L138 667 L138 723 L865 723 L865 667 Z" /><glyph glyph-name="uni5145" unicode="&#x5145;" d="M924 163 Q924 127 919 43 Q917 -15 887.5 -40 Q858 -65 781 -65 L682 -65 Q618 -65 592 -42 Q566 -19 566 45 L566 331 Q481 328 388 324 L384 271 Q376 132 308.5 50 Q241 -32 80 -103 L48 -52 Q196 11 256 81.5 Q316 152 325 272 L329 321 Q203 316 116 310 L104 365 Q142 370 181 402 Q279 486 388 609 L60 609 L60 665 L926 665 L926 609 L461 609 Q349 480 236 375 L733 391 Q656 475 608 526 L652 563 Q761 448 884 311 L840 271 L780 339 L624 333 L624 57 Q624 17 640.5 3 Q657 -11 702 -11 L775 -11 Q828 -11 845.5 3 Q863 17 864 55 Q868 140 868 173 L924 163 ZM496 673 Q461 735 421 795 L472 819 Q509 761 551 696 L496 673 Z" /><glyph glyph-name="uni5148" unicode="&#x5148;" d="M897 576 L545 576 L545 376 L945 376 L945 323 L644 323 L644 67 Q644 24 660.5 8.5 Q677 -7 721 -7 L781 -7 Q835 -7 853 8.5 Q871 24 872 64 Q876 121 876 180 L931 169 Q929 106 926 46 Q923 -18 894 -40.5 Q865 -63 788 -63 L701 -63 Q634 -63 610.5 -40 Q587 -17 587 49 L587 323 L402 323 L399 289 Q392 143 329 59.5 Q266 -24 109 -98 L73 -43 Q222 21 279 91.5 Q336 162 341 289 Q341 303 343 323 L52 323 L52 376 L489 376 L489 576 L246 576 Q207 489 155 412 L102 437 Q206 584 257 765 L313 753 Q294 690 270 629 L489 629 L489 800 L545 800 L545 629 L897 629 L897 576 Z" /><glyph glyph-name="uni5149" unicode="&#x5149;" d="M923 183 Q923 134 919 53 Q917 -13 888 -36.5 Q859 -60 783 -60 L687 -60 Q620 -60 595 -35.5 Q570 -11 570 56 L570 355 L380 355 Q380 337 379 323 Q374 166 313 75 Q252 -16 93 -94 L48 -45 Q199 25 258 102.5 Q317 180 319 323 Q319 335 320 355 L58 355 L58 411 L469 411 L469 795 L528 795 L528 411 L939 411 L939 355 L629 355 L629 73 Q629 30 646 15 Q663 0 707 0 L776 0 Q829 0 846.5 14.5 Q864 29 865 71 Q868 135 867 192 L923 183 ZM866 696 Q783 582 685 469 L640 505 Q739 616 819 729 L866 696 ZM308 471 Q220 587 130 693 L174 726 Q266 621 356 506 L308 471 Z" /><glyph glyph-name="uni514D" unicode="&#x514d;" d="M917 157 Q914 95 910 27 Q909 -23 884 -42 Q859 -61 792 -61 L628 -61 Q567 -61 543.5 -40 Q520 -19 520 41 L520 235 L495 235 Q459 123 364 47.5 Q269 -28 91 -94 L61 -41 Q224 15 312 79 Q400 143 435 235 L162 235 L162 494 Q122 461 75 429 L51 479 Q246 614 362 799 L412 776 Q387 736 360 701 L735 701 L735 654 L604 516 L850 516 L850 235 L573 235 L573 59 Q573 19 588 5.5 Q603 -8 646 -8 L777 -8 Q827 -8 843 4.5 Q859 17 859 54 Q862 106 864 168 L917 157 ZM531 466 Q527 363 509 285 L796 285 L796 466 L531 466 ZM321 651 Q261 578 188 516 L533 516 L662 651 L321 651 ZM216 466 L216 285 L452 285 Q471 361 475 466 L216 466 Z" /><glyph glyph-name="uni5165" unicode="&#x5165;" d="M909 -78 Q743 37 644 174.5 Q545 312 502 495 Q465 357 366 212.5 Q267 68 85 -79 L41 -30 Q263 139 360.5 310.5 Q458 482 474 644 Q464 688 381 688 L235 688 L235 746 L403 746 Q464 746 494 724.5 Q524 703 529 653 L530 649 L530 646 Q555 435 654.5 269.5 Q754 104 950 -28 L909 -78 Z" /><glyph glyph-name="uni5168" unicode="&#x5168;" d="M838 185 L530 185 L530 5 L927 5 L927 -49 L74 -49 L74 5 L470 5 L470 185 L163 185 L163 239 L470 239 L470 404 L190 404 L190 458 L811 458 L811 404 L530 404 L530 239 L838 239 L838 185 ZM929 398 Q647 536 500 726 Q364 544 68 397 L41 449 Q342 592 469 782 L532 782 Q669 584 958 448 L929 398 Z" /><glyph glyph-name="uni516C" unicode="&#x516c;" d="M809 -87 Q786 -49 753 0 Q497 -9 149 -37 L132 19 Q185 29 200 49 Q346 225 458 465 L514 444 Q403 212 258 30 L719 52 Q640 173 582 259 L628 289 Q745 118 858 -56 L809 -87 ZM912 313 Q791 397 711 502.5 Q631 608 573 768 L624 786 Q680 636 755 537 Q830 438 949 360 L912 313 ZM423 754 Q313 492 85 310 L49 355 Q272 529 370 772 L423 754 Z" /><glyph glyph-name="uni5171" unicode="&#x5171;" d="M947 233 L43 233 L43 289 L284 289 L284 553 L73 553 L73 609 L284 609 L284 803 L344 803 L344 609 L645 609 L645 803 L704 803 L704 609 L916 609 L916 553 L704 553 L704 289 L947 289 L947 233 ZM344 553 L344 289 L645 289 L645 553 L344 553 ZM885 -85 Q734 32 585 133 L621 178 Q771 75 923 -36 L885 -85 ZM407 134 Q258 13 99 -88 L66 -38 Q224 56 369 178 L407 134 Z" /><glyph glyph-name="uni5173" unicode="&#x5173;" d="M878 540 L524 540 L524 360 Q524 351 523 344 L927 344 L927 288 L527 288 Q602 57 938 -34 L910 -91 Q596 -3 494 220 Q418 37 84 -95 L54 -39 Q255 36 346.5 118.5 Q438 201 455 288 L62 288 L62 344 L463 344 L463 540 L109 540 L109 595 L552 595 Q649 710 719 811 L772 781 Q708 694 625 595 L878 595 L878 540 ZM352 609 Q273 709 223 772 L272 802 L402 640 L352 609 Z" /><glyph glyph-name="uni5176" unicode="&#x5176;" d="M958 142 L42 142 L42 192 L232 192 L232 631 L73 631 L73 681 L232 681 L232 795 L288 795 L288 681 L711 681 L711 795 L767 795 L767 681 L927 681 L927 631 L767 631 L767 192 L958 192 L958 142 ZM288 306 L288 192 L711 192 L711 306 L288 306 ZM288 631 L288 518 L711 518 L711 631 L288 631 ZM288 468 L288 356 L711 356 L711 468 L288 468 ZM898 -96 Q744 -18 583 50 L605 97 Q768 28 922 -48 L898 -96 ZM409 53 Q252 -33 94 -99 L72 -49 Q231 11 385 100 L409 53 Z" /><glyph glyph-name="uni5177" unicode="&#x5177;" d="M955 130 L44 130 L44 180 L202 180 L202 742 L797 742 L797 180 L955 180 L955 130 ZM258 274 L258 180 L741 180 L741 274 L258 274 ZM258 553 L258 461 L741 461 L741 553 L258 553 ZM258 692 L258 601 L741 601 L741 692 L258 692 ZM258 413 L258 322 L741 322 L741 413 L258 413 ZM415 63 Q270 -24 83 -96 L62 -47 Q247 20 386 107 L415 63 ZM903 -87 Q735 -9 578 54 L600 100 Q763 35 927 -37 L903 -87 Z" /><glyph glyph-name="uni5178" unicode="&#x5178;" d="M956 151 L46 151 L46 204 L155 204 L155 665 L368 665 L368 789 L422 789 L422 665 L582 665 L582 789 L635 789 L635 665 L849 665 L849 204 L956 204 L956 151 ZM422 383 L422 204 L582 204 L582 383 L422 383 ZM635 383 L635 204 L794 204 L794 383 L635 383 ZM210 383 L210 204 L368 204 L368 383 L210 383 ZM422 611 L422 435 L582 435 L582 611 L422 611 ZM794 611 L635 611 L635 435 L794 435 L794 611 ZM210 611 L210 435 L368 435 L368 611 L210 611 ZM418 59 Q261 -31 86 -104 L64 -54 Q239 17 392 106 L418 59 ZM905 -98 Q748 -17 579 54 L601 102 Q769 30 929 -49 L905 -98 Z" /><glyph glyph-name="uni517C" unicode="&#x517c;" d="M718 790 Q688 745 643 689 L921 689 L921 641 L609 641 L609 539 L821 539 L821 397 L944 397 L944 349 L821 349 L821 207 L629 207 Q737 71 943 -14 L918 -65 Q722 22 609 156 L609 -105 L557 -105 L557 207 L392 207 L392 -105 L340 -105 L340 150 Q235 20 60 -73 L30 -23 Q221 73 324 207 L100 207 L100 255 L340 255 L340 349 L35 349 L35 397 L340 397 L340 491 L109 491 L109 539 L340 539 L340 641 L52 641 L52 689 L324 689 Q286 737 243 787 L287 817 Q329 769 370 716 L330 689 L576 689 Q628 753 669 816 L718 790 ZM392 641 L392 539 L557 539 L557 641 L392 641 ZM392 349 L392 255 L557 255 L557 349 L392 349 ZM392 491 L392 397 L557 397 L557 491 L392 491 ZM769 491 L609 491 L609 397 L769 397 L769 491 ZM609 255 L769 255 L769 349 L609 349 L609 255 Z" /><glyph glyph-name="uni5185" unicode="&#x5185;" d="M736 137 Q618 259 493 382 Q439 252 257 121 L219 169 Q365 271 419.5 364 Q474 457 472 580 L188 580 L188 -92 L132 -92 L132 635 L472 635 L472 795 L529 795 L529 635 L869 635 L869 40 Q869 -30 844 -51.5 Q819 -73 743 -73 L614 -73 L603 -17 L725 -17 Q781 -17 797 -3 Q813 11 813 58 L813 580 L529 580 Q529 504 512 440 Q646 314 776 181 L736 137 Z" /><glyph glyph-name="uni518D" unicode="&#x518d;" d="M958 144 L824 144 L824 36 Q824 -31 797.5 -53.5 Q771 -76 694 -76 L581 -76 L571 -20 L677 -20 Q733 -20 750.5 -5.5 Q768 9 768 54 L768 144 L233 144 L233 -95 L177 -95 L177 144 L43 144 L43 195 L177 195 L177 558 L472 558 L472 677 L75 677 L75 727 L928 727 L928 677 L528 677 L528 558 L824 558 L824 195 L958 195 L958 144 ZM528 329 L528 195 L768 195 L768 329 L528 329 ZM233 329 L233 195 L472 195 L472 329 L233 329 ZM768 508 L528 508 L528 379 L768 379 L768 508 ZM233 508 L233 379 L472 379 L472 508 L233 508 Z" /><glyph glyph-name="uni5199" unicode="&#x5199;" d="M499 -19 L644 -19 Q712 -19 740 4 Q768 27 772 83 Q782 201 786 279 L223 279 L259 623 L316 623 L305 520 L797 520 L797 470 L300 470 L286 331 L847 331 Q841 195 831 71 Q826 -7 788.5 -39 Q751 -71 661 -71 L510 -71 L499 -19 ZM122 528 L122 731 L890 731 L890 532 L832 532 L832 678 L180 678 L180 528 L122 528 ZM694 94 L68 94 L68 146 L694 146 L694 94 Z" /><glyph glyph-name="uni51B3" unicode="&#x51b3;" d="M578 800 Q578 782 577 632 L834 632 L834 338 L949 338 L949 284 L586 284 Q658 69 949 -37 L916 -92 Q648 12 553 221 Q497 41 217 -98 L182 -46 Q338 29 415 106.5 Q492 184 509 284 L270 284 L270 338 L516 338 Q516 353 517 368 Q517 385 519 578 L312 578 L312 632 L519 632 L519 800 L578 800 ZM779 578 L577 578 Q577 430 576 371 Q576 355 575 338 L779 338 L779 578 ZM248 358 L111 -48 L54 -30 Q131 176 190 371 L248 358 ZM197 467 Q137 602 75 727 L126 750 Q191 624 253 491 L197 467 Z" /><glyph glyph-name="uni51C6" unicode="&#x51c6;" d="M952 -17 L425 -17 L425 -99 L369 -99 L369 492 Q321 412 265 342 L227 389 Q379 575 437 805 L496 796 Q478 717 441 634 L937 634 L937 584 L701 584 L701 437 L916 437 L916 388 L701 388 L701 242 L916 242 L916 192 L701 192 L701 33 L952 33 L952 -17 ZM425 192 L425 33 L646 33 L646 192 L425 192 ZM425 584 L425 437 L646 437 L646 584 L425 584 ZM425 388 L425 242 L646 242 L646 388 L425 388 ZM254 311 Q192 123 134 -59 L76 -41 Q136 138 198 329 L254 311 ZM212 482 Q146 617 80 735 L130 759 Q198 640 265 509 L212 482 ZM708 635 Q663 699 602 778 L646 805 Q711 725 752 665 L708 635 Z" /><glyph glyph-name="uni51E0" unicode="&#x51e0;" d="M937 218 Q937 176 931 39 Q930 -19 910 -39.5 Q890 -60 834 -60 L747 -60 Q692 -60 669 -39 Q646 -18 646 43 L646 665 L311 665 L311 422 Q311 281 294.5 196.5 Q278 112 231.5 47.5 Q185 -17 98 -93 L50 -52 Q172 45 211.5 133 Q251 221 251 422 L251 724 L706 724 L706 62 Q706 22 717 10 Q728 -2 768 -2 L819 -2 Q854 -2 864.5 11 Q875 24 875 61 Q879 134 881 230 L937 218 Z" /><glyph glyph-name="uni51FA" unicode="&#x51fa;" d="M817 -97 L817 -41 L129 -41 L129 294 L186 294 L186 15 L472 15 L472 381 L158 381 L158 713 L214 713 L214 437 L472 437 L472 802 L528 802 L528 437 L788 437 L788 713 L844 713 L844 381 L528 381 L528 15 L817 15 L817 296 L874 296 L874 -97 L817 -97 Z" /><glyph glyph-name="uni5200" unicode="&#x5200;" d="M465 7 L632 7 Q712 7 740 29.5 Q768 52 771 120 Q784 403 794 661 L418 661 Q415 582 410 488 Q403 280 334 152 Q265 24 98 -97 L50 -50 Q218 67 281 184.5 Q344 302 351 497 Q358 586 361 661 L87 661 L87 720 L856 720 Q845 418 830 96 Q827 12 789.5 -20 Q752 -52 653 -52 L477 -52 L465 7 Z" /><glyph glyph-name="uni5206" unicode="&#x5206;" d="M418 -6 L556 -6 Q624 -6 650 13.5 Q676 33 680 89 Q693 232 702 350 L387 350 Q385 324 382 283 Q378 160 319 73.5 Q260 -13 101 -101 L57 -57 Q208 22 263 97.5 Q318 173 325 283 Q329 324 330 350 L169 350 L169 406 L764 406 Q755 239 738 66 Q732 -6 695.5 -34 Q659 -62 573 -62 L429 -62 L418 -6 ZM929 347 Q791 432 705.5 534 Q620 636 564 784 L617 802 Q667 668 747.5 573.5 Q828 479 960 399 L929 347 ZM427 767 Q320 524 78 352 L46 400 Q270 559 373 787 L427 767 Z" /><glyph glyph-name="uni5207" unicode="&#x5207;" d="M592 3 L695 3 Q761 3 787 23.5 Q813 44 814 101 Q826 376 834 651 L609 651 Q607 567 604 489 Q599 268 547.5 146 Q496 24 354 -104 L304 -64 Q446 57 493.5 166.5 Q541 276 546 494 Q550 568 552 651 L405 651 L405 709 L896 709 Q885 394 871 79 Q869 5 834.5 -25 Q800 -55 715 -55 L604 -55 L592 3 ZM437 155 Q355 110 190 -2 L156 48 Q179 62 183.5 77 Q188 92 188 108 L188 452 L46 434 L40 492 L188 510 L188 798 L244 798 L244 517 L435 540 L436 483 L244 459 L244 103 L424 214 L437 155 Z" /><glyph glyph-name="uni5212" unicode="&#x5212;" d="M554 536 L247 485 Q259 322 283 218 Q386 318 456 450 L500 423 Q416 271 298 160 Q319 90 348 46 Q371 13 388.5 1.5 Q406 -10 417 -10 Q454 -18 473 66 Q487 125 495 183 L545 165 Q533 97 517 37 Q487 -79 417 -73 Q389 -73 361.5 -53.5 Q334 -34 301 19 Q275 61 254 121 Q172 51 64 -13 L35 36 Q149 101 238 177 Q208 291 193 476 L49 452 L43 505 L189 529 Q186 563 185 600 Q179 735 177 797 L233 797 Q234 741 240 595 L243 538 L548 588 L554 536 ZM882 796 L882 34 Q882 -26 860.5 -49.5 Q839 -73 768 -73 L661 -73 L650 -19 L755 -19 Q802 -19 816 -4.5 Q830 10 830 53 L830 796 L882 796 ZM629 125 L629 708 L681 708 L681 125 L629 125 ZM435 604 Q370 675 301 740 L331 770 Q399 709 469 637 L435 604 Z" /><glyph glyph-name="uni5219" unicode="&#x5219;" d="M117 160 L117 737 L502 737 L502 162 L450 162 L450 682 L169 682 L169 160 L117 160 ZM336 610 L336 350 Q336 266 322 203 Q437 100 551 -5 L511 -48 Q412 50 305 146 Q256 19 74 -87 L40 -43 Q138 15 191 70 Q244 125 263.5 193 Q283 261 283 362 L283 610 L336 610 ZM873 780 L873 48 Q873 -18 846.5 -42 Q820 -66 750 -66 L636 -66 L624 -13 L738 -13 Q787 -13 804 2.5 Q821 18 821 61 L821 780 L873 780 ZM632 130 L632 704 L682 704 L682 130 L632 130 Z" /><glyph glyph-name="uni521B" unicode="&#x521b;" d="M564 159 Q564 128 557 42 Q554 -17 526.5 -37.5 Q499 -58 422 -58 L271 -58 Q202 -58 175 -33 Q148 -8 148 65 L148 470 L490 470 Q490 430 484 274 Q483 216 460.5 192 Q438 168 371 168 L281 168 L272 216 L357 216 Q406 216 419.5 230.5 Q433 245 434 286 Q440 388 440 419 L202 419 L202 80 Q202 26 218 9.5 Q234 -7 287 -7 L416 -7 Q471 -7 488 8 Q505 23 506 67 Q509 115 511 170 L564 159 ZM888 789 L888 37 Q888 -24 863 -47.5 Q838 -71 766 -71 L651 -71 L639 -14 L751 -14 Q801 -14 817.5 1.5 Q834 17 834 60 L834 789 L888 789 ZM562 481 L327 693 Q226 549 70 435 L37 477 Q228 625 331 808 L381 784 Q369 760 355 738 Q472 637 600 524 L562 481 ZM642 143 L642 713 L696 713 L696 143 L642 143 Z" /><glyph glyph-name="uni521D" unicode="&#x521d;" d="M583 -6 L686 -6 Q754 -6 780 15 Q806 36 808 94 Q823 376 834 652 L605 652 Q602 550 599 483 Q593 273 544 155 Q495 37 363 -101 L314 -63 Q444 66 491 176.5 Q538 287 543 489 Q546 553 549 652 L401 652 L401 708 L894 708 Q880 394 865 71 Q863 -3 827.5 -32.5 Q792 -62 705 -62 L594 -62 L583 -6 ZM393 173 Q332 221 247 285 L247 -98 L191 -98 L191 339 Q128 266 55 201 L37 256 Q198 398 289 574 L62 574 L62 630 L353 630 L353 580 Q307 490 247 409 L247 343 L291 310 Q352 381 409 457 L447 427 Q391 350 330 281 Q389 237 423 213 L393 173 ZM236 647 Q201 718 160 789 L210 813 Q250 740 286 669 L236 647 Z" /><glyph glyph-name="uni5229" unicode="&#x5229;" d="M542 449 L331 449 L331 -97 L275 -97 L275 346 Q206 203 76 68 L39 116 Q187 259 269 449 L60 449 L60 503 L275 503 L275 663 Q167 648 80 638 L74 691 Q299 713 514 757 L524 705 Q439 688 331 671 L331 503 L542 503 L542 449 ZM887 788 L887 41 Q887 -23 858.5 -49 Q830 -75 753 -75 L626 -75 L614 -19 L739 -19 Q793 -19 812 -2 Q831 15 831 60 L831 788 L887 788 ZM611 117 L611 705 L667 705 L667 117 L611 117 ZM507 145 Q427 232 343 312 L381 350 Q465 271 546 188 L507 145 Z" /><glyph glyph-name="uni522B" unicode="&#x522b;" d="M116 738 L495 738 L495 456 L116 456 L116 738 ZM242 -7 L325 -7 Q390 -7 415 12 Q440 31 441 85 Q445 180 448 265 L260 265 Q251 143 214 66 Q177 -11 92 -95 L47 -60 Q128 14 163.5 84.5 Q199 155 207 265 L52 265 L52 316 L210 316 Q215 400 215 454 L269 454 Q267 385 264 316 L504 316 Q500 195 493 64 Q490 -3 456.5 -30 Q423 -57 343 -57 L252 -57 L242 -7 ZM874 785 L874 38 Q874 -23 847 -48.5 Q820 -74 749 -74 L631 -74 L620 -19 L736 -19 Q784 -19 803 -3 Q822 13 822 56 L822 785 L874 785 ZM170 688 L170 507 L440 507 L440 688 L170 688 ZM627 137 L627 704 L679 704 L679 137 L627 137 Z" /><glyph glyph-name="uni5230" unicode="&#x5230;" d="M527 360 L489 418 Q317 411 79 394 L67 443 Q88 449 100 458 Q180 549 257 672 L58 672 L58 725 L568 725 L568 672 L320 672 Q240 549 166 452 L457 466 Q413 531 379 580 L420 607 Q497 499 571 388 L527 360 ZM553 201 L342 201 L342 41 Q525 56 581 62 L581 7 Q312 -15 43 -40 L38 15 L286 36 L286 201 L74 201 L74 253 L286 253 L286 390 L342 390 L342 253 L553 253 L553 201 ZM888 784 L888 33 Q888 -29 861.5 -53 Q835 -77 765 -77 L645 -77 L633 -23 L747 -23 Q796 -23 814 -7.5 Q832 8 832 51 L832 784 L888 784 ZM636 118 L636 705 L690 705 L690 118 L636 118 Z" /><glyph glyph-name="uni5236" unicode="&#x5236;" d="M576 595 L364 595 L364 457 L597 457 L597 407 L364 407 L364 284 L554 284 L554 55 Q554 12 534.5 -6 Q515 -24 468 -24 L406 -24 L396 26 L450 26 Q482 26 493 36 Q504 46 504 74 L504 234 L364 234 L364 -109 L311 -109 L311 234 L167 234 L167 -42 L117 -42 L117 284 L311 284 L311 407 L52 407 L52 457 L311 457 L311 595 L166 595 Q145 537 122 490 L72 506 Q129 625 159 757 L210 750 Q198 698 182 645 L311 645 L311 792 L364 792 L364 645 L576 645 L576 595 ZM897 780 L897 31 Q897 -29 872.5 -54.5 Q848 -80 778 -80 L660 -80 L648 -27 L761 -27 Q810 -27 827 -9 Q844 9 844 51 L844 780 L897 780 ZM667 108 L667 699 L720 699 L720 108 L667 108 Z" /><glyph glyph-name="uni523B" unicode="&#x523b;" d="M500 532 Q426 394 327 290.5 Q228 187 79 102 L50 146 Q236 247 337 372 Q222 368 98 357 L85 408 Q118 420 129 431 Q197 506 251 605 L57 605 L57 657 L591 657 L591 605 L312 605 Q258 505 188 419 L378 427 Q419 484 456 555 L500 532 ZM890 775 L890 28 Q890 -33 866 -58.5 Q842 -84 773 -84 L658 -84 L646 -28 L757 -28 Q805 -28 821 -12 Q837 4 837 47 L837 775 L890 775 ZM556 -86 Q466 -5 363 84 Q251 -15 75 -103 L42 -56 Q210 23 321.5 117.5 Q433 212 518 348 L559 321 Q488 207 403 121 Q510 33 593 -42 L556 -86 ZM650 106 L650 688 L702 688 L702 106 L650 106 ZM332 662 Q302 722 270 782 L320 803 Q351 751 386 680 L332 662 Z" /><glyph glyph-name="uni524D" unicode="&#x524d;" d="M132 -92 L132 505 L472 505 L472 20 Q472 -37 450 -57.5 Q428 -78 369 -78 L288 -78 L277 -27 L351 -27 Q393 -27 405.5 -14.5 Q418 -2 418 33 L418 123 L187 123 L187 -92 L132 -92 ZM745 785 Q706 729 652 663 L947 663 L947 613 L47 613 L47 663 L330 663 Q276 734 242 781 L289 812 Q337 752 382 691 L335 663 L582 663 Q641 738 690 812 L745 785 ZM851 539 L851 33 Q851 -29 827.5 -52 Q804 -75 730 -75 L612 -75 L601 -23 L717 -23 Q767 -23 781.5 -9.5 Q796 4 796 46 L796 539 L851 539 ZM187 454 L187 338 L418 338 L418 454 L187 454 ZM187 288 L187 173 L418 173 L418 288 L187 288 ZM601 79 L601 499 L651 499 L651 79 L601 79 Z" /><glyph glyph-name="uni526F" unicode="&#x526f;" d="M104 -97 L104 323 L552 323 L552 -35 L155 -35 L155 -97 L104 -97 ZM141 593 L516 593 L516 406 L141 406 L141 593 ZM893 780 L893 37 Q893 -23 866.5 -49 Q840 -75 770 -75 L655 -75 L643 -19 L756 -19 Q803 -19 821.5 -3 Q840 13 840 56 L840 780 L893 780 ZM662 134 L662 691 L714 691 L714 134 L662 134 ZM191 549 L191 450 L465 450 L465 549 L191 549 ZM588 681 L68 681 L68 731 L588 731 L588 681 ZM353 11 L501 11 L501 129 L353 129 L353 11 ZM155 129 L155 11 L303 11 L303 129 L155 129 ZM155 279 L155 173 L303 173 L303 279 L155 279 ZM501 279 L353 279 L353 173 L501 173 L501 279 Z" /><glyph glyph-name="uni5272" unicode="&#x5272;" d="M581 493 L359 493 L359 419 L563 419 L563 375 L359 375 L359 301 L615 301 L615 258 L359 258 L359 178 L535 178 L535 -37 L185 -37 L185 -97 L133 -97 L133 178 L309 178 L309 258 L54 258 L54 301 L309 301 L309 375 L105 375 L105 419 L309 419 L309 493 L87 493 L87 535 L309 535 L309 614 L359 614 L359 535 L581 535 L581 493 ZM891 786 L891 36 Q891 -24 865 -49.5 Q839 -75 770 -75 L657 -75 L646 -23 L756 -23 Q804 -23 821.5 -6.5 Q839 10 839 53 L839 786 L891 786 ZM185 134 L185 7 L483 7 L483 134 L185 134 ZM84 571 L84 697 L331 697 Q303 751 279 793 L332 811 Q361 760 395 697 L581 697 L581 571 L531 571 L531 653 L134 653 L134 571 L84 571 ZM671 116 L671 691 L721 691 L721 116 L671 116 Z" /><glyph glyph-name="uni529B" unicode="&#x529b;" d="M451 798 Q451 750 444 588 L859 588 Q851 337 837 74 Q834 -6 794.5 -37 Q755 -68 660 -68 L502 -68 L490 -9 L641 -9 Q719 -9 748.5 13.5 Q778 36 780 101 Q790 315 797 529 L441 529 Q435 290 362.5 159.5 Q290 29 92 -101 L48 -53 Q238 67 307.5 185 Q377 303 383 529 L74 529 L74 588 L385 588 L393 798 L451 798 Z" /><glyph glyph-name="uni529F" unicode="&#x529f;" d="M603 799 Q601 713 598 588 L880 588 Q872 338 861 86 Q859 0 825 -29.5 Q791 -59 695 -59 L587 -59 L576 -3 L675 -3 Q754 -3 778.5 17.5 Q803 38 805 107 Q815 319 821 532 L596 532 Q592 284 544.5 158 Q497 32 342 -102 L293 -64 Q448 69 492 184 Q536 299 539 532 L410 532 L410 588 L541 588 L547 799 L603 799 ZM437 167 Q243 118 49 68 L37 124 Q74 132 206 165 L206 617 L56 617 L56 671 L406 671 L406 617 L262 617 L262 179 Q391 212 429 223 L437 167 Z" /><glyph glyph-name="uni52A0" unicode="&#x52a0;" d="M585 -83 L585 670 L894 670 L894 -83 L839 -83 L839 10 L641 10 L641 -83 L585 -83 ZM254 800 Q254 757 251 616 L469 616 Q463 339 456 64 Q455 -8 426 -33.5 Q397 -59 320 -59 L235 -59 L223 0 L308 0 Q369 0 384.5 18 Q400 36 400 89 Q407 328 413 560 L250 559 Q243 322 210 183.5 Q177 45 88 -99 L37 -69 Q123 66 155 198 Q187 330 193 557 L193 560 L52 560 L52 616 L195 616 Q198 755 198 800 L254 800 ZM641 614 L641 65 L839 65 L839 614 L641 614 Z" /><glyph glyph-name="uni52A1" unicode="&#x52a1;" d="M949 312 Q669 361 501 438 Q324 358 59 299 L41 352 Q276 400 442 468 Q339 526 252 609 Q181 544 97 487 L67 525 Q252 658 355 808 L405 786 Q376 743 340 701 L824 701 L824 656 Q713 545 559 466 Q712 404 962 365 L949 312 ZM458 -22 L616 -22 Q683 -22 708 -5 Q733 12 737 59 Q747 125 756 199 L424 199 Q401 98 324.5 31 Q248 -36 91 -100 L60 -54 Q204 2 274 59 Q344 116 366 199 L95 199 L95 248 L377 248 Q377 251 378 256 Q388 322 391 356 L449 356 Q445 322 435 251 Q435 250 434 248 L817 248 Q806 145 793 37 Q788 -22 754 -46.5 Q720 -71 634 -71 L468 -71 L458 -22 ZM289 645 Q375 552 499 492 Q646 561 741 655 L298 655 L289 645 Z" /><glyph glyph-name="uni52A8" unicode="&#x52a8;" d="M666 799 Q665 718 662 599 L900 599 Q892 336 880 60 Q879 -7 849 -32.5 Q819 -58 745 -58 L630 -58 L618 -2 L723 -2 Q782 -2 804 15.5 Q826 33 827 86 Q836 314 844 543 L660 543 Q656 289 621.5 156.5 Q587 24 472 -110 L422 -77 Q532 46 567 169.5 Q602 293 605 541 L605 543 L463 543 L463 599 L607 599 Q609 707 612 799 L666 799 ZM498 406 L281 406 Q227 229 156 85 L410 101 Q365 213 329 298 L379 316 Q440 180 496 32 L446 8 Q439 26 431 46 Q380 43 272 34 Q164 25 78 11 L58 67 Q92 82 103 106 Q166 232 223 406 L57 406 L57 462 L498 462 L498 406 ZM466 658 L98 658 L98 712 L466 712 L466 658 Z" /><glyph glyph-name="uni52A9" unicode="&#x52a9;" d="M515 67 Q279 30 50 -7 L43 49 L133 63 L133 726 L441 726 L441 112 L514 123 L515 67 ZM667 796 Q667 782 666 725 Q665 668 663 603 L895 603 Q887 344 875 63 Q874 -4 842.5 -28 Q811 -52 732 -52 L635 -52 L625 2 L711 2 Q776 2 799 19 Q822 36 822 87 Q831 321 839 550 L662 550 Q662 508 660 477 Q656 246 609 128.5 Q562 11 437 -106 L393 -66 Q518 44 560.5 151.5 Q603 259 606 482 Q606 511 608 550 L499 550 L499 603 L609 603 Q611 721 612 796 L667 796 ZM186 72 L388 103 L388 257 L186 257 L186 72 ZM186 673 L186 511 L388 511 L388 673 L186 673 ZM186 461 L186 307 L388 307 L388 461 L186 461 Z" /><glyph glyph-name="uni52AA" unicode="&#x52aa;" d="M454 342 Q396 377 331 414 Q247 353 72 299 L48 349 Q203 393 280 442 Q198 486 127 521 Q154 575 180 639 L55 639 L55 689 L198 689 Q220 752 233 803 L288 793 Q273 744 255 689 L474 689 L474 641 Q446 523 373 450 L484 388 L454 342 ZM489 -14 L645 -14 Q703 -14 725 1 Q747 16 751 59 Q760 129 765 189 L426 189 Q412 86 338 22.5 Q264 -41 85 -100 L55 -50 Q222 3 289 56 Q356 109 368 189 L102 189 L102 241 L375 241 Q380 285 381 313 L438 313 Q437 289 433 241 L829 241 Q820 148 807 39 Q803 -23 771 -45 Q739 -67 657 -67 L500 -67 L489 -14 ZM495 386 Q582 419 647 462 Q571 533 521 640 L567 664 Q613 558 689 494 Q774 565 821 674 L505 674 L505 724 L880 724 L880 672 Q826 544 732 462 Q814 408 958 362 L935 309 Q781 359 689 427 Q619 378 524 337 L495 386 ZM418 639 L236 639 Q216 585 194 542 Q244 518 325 475 Q393 538 418 639 Z" /><glyph glyph-name="uni5316" unicode="&#x5316;" d="M917 619 Q762 450 576 308 L576 82 Q576 36 594.5 19.5 Q613 3 659 3 L779 3 Q829 3 847.5 18 Q866 33 867 74 Q870 147 873 233 L929 221 Q926 134 921 54 Q918 -5 889 -29.5 Q860 -54 789 -54 L646 -54 Q575 -54 546.5 -28.5 Q518 -3 518 70 L518 266 Q426 201 328 144 L298 196 Q410 261 518 340 L518 793 L576 793 L576 383 Q736 509 874 662 L917 619 ZM361 777 Q320 658 263 550 L263 -96 L205 -96 L205 450 Q140 348 65 262 L40 319 Q209 523 305 795 L361 777 Z" /><glyph glyph-name="uni5317" unicode="&#x5317;" d="M934 574 Q790 477 635 385 L635 78 Q635 34 649.5 20.5 Q664 7 707 7 L783 7 Q834 7 852 21.5 Q870 36 870 76 Q875 202 875 238 L936 225 Q936 182 929 62 Q927 -3 899 -26.5 Q871 -50 797 -50 L699 -50 Q627 -50 602 -25.5 Q577 -1 577 72 L577 797 L635 797 L635 452 Q777 534 900 624 L934 574 ZM332 -91 L332 113 Q177 43 69 -4 L47 53 Q174 106 332 177 L332 477 L68 477 L68 534 L332 534 L332 797 L390 797 L390 -91 L332 -91 Z" /><glyph glyph-name="uni533A" unicode="&#x533a;" d="M947 -45 L139 -45 L139 732 L928 732 L928 676 L199 676 L199 11 L947 11 L947 -45 ZM819 593 Q728 473 611 353 Q755 215 859 110 L815 66 Q710 173 569 311 Q431 175 283 69 L245 118 Q391 219 526 352 Q383 490 290 576 L329 617 Q425 530 568 394 Q682 510 770 628 L819 593 Z" /><glyph glyph-name="uni5341" unicode="&#x5341;" d="M470 -97 L470 387 L53 387 L53 444 L470 444 L470 798 L530 798 L530 444 L948 444 L948 387 L530 387 L530 -97 L470 -97 Z" /><glyph glyph-name="uni5343" unicode="&#x5343;" d="M468 -102 L468 336 L45 336 L45 392 L468 392 L468 648 Q274 629 120 623 L117 680 Q501 698 847 754 L859 697 Q717 674 530 654 L530 392 L952 392 L952 336 L530 336 L530 -102 L468 -102 Z" /><glyph glyph-name="uni5347" unicode="&#x5347;" d="M954 364 L733 364 L733 -97 L674 -97 L674 364 L358 364 Q358 200 307 99 Q256 -2 113 -104 L66 -60 Q209 38 254.5 126 Q300 214 298 364 L54 364 L54 420 L298 420 L298 655 Q188 637 95 625 L84 678 Q338 709 564 760 L576 708 Q483 687 359 665 L359 420 L674 420 L674 793 L733 793 L733 420 L954 420 L954 364 Z" /><glyph glyph-name="uni534E" unicode="&#x534e;" d="M899 684 Q753 588 583 518 L583 437 Q583 395 600.5 379.5 Q618 364 655 364 L778 364 Q825 364 843 379 Q861 394 862 435 Q866 487 866 524 L918 513 Q916 462 913 417 Q910 356 883 334.5 Q856 313 788 313 L631 313 Q577 313 551.5 335.5 Q526 358 526 419 L526 495 Q436 461 333 431 L315 482 Q429 515 526 553 L526 794 L583 794 L583 576 Q737 642 872 731 L899 684 ZM473 -106 L473 120 L54 120 L54 176 L473 176 L473 297 L531 297 L531 176 L949 176 L949 120 L531 120 L531 -106 L473 -106 ZM372 777 Q328 699 280 635 L280 277 L224 277 L224 568 Q159 496 69 424 L45 473 Q220 618 322 798 L372 777 Z" /><glyph glyph-name="uni534F" unicode="&#x534f;" d="M586 800 Q585 725 582 610 L827 610 L795 58 Q792 -18 761.5 -43.5 Q731 -69 657 -69 L559 -69 L547 -13 L639 -13 Q695 -13 716 5.5 Q737 24 739 79 Q755 318 770 555 L580 555 Q580 546 579 538 Q574 307 523.5 169.5 Q473 32 337 -98 L292 -65 Q423 59 471 192.5 Q519 326 526 540 Q526 548 527 555 L345 555 L345 610 L529 610 Q532 724 533 800 L586 800 ZM152 -97 L152 473 L42 473 L42 527 L152 527 L152 798 L207 798 L207 527 L328 527 L328 473 L207 473 L207 -97 L152 -97 ZM439 437 Q393 293 330 168 L280 191 Q346 314 389 452 L439 437 ZM926 182 Q876 302 826 415 L872 438 Q926 321 975 206 L926 182 Z" /><glyph glyph-name="uni5355" unicode="&#x5355;" d="M944 80 L528 80 L528 -102 L472 -102 L472 80 L57 80 L57 132 L472 132 L472 254 L162 254 L162 657 L356 657 Q301 725 251 781 L293 811 Q351 748 407 681 L374 657 L577 657 Q646 734 700 808 L750 784 Q704 724 648 657 L838 657 L838 254 L528 254 L528 132 L944 132 L944 80 ZM528 304 L782 304 L782 431 L528 431 L528 304 ZM218 431 L218 304 L472 304 L472 431 L218 431 ZM218 607 L218 481 L472 481 L472 607 L218 607 ZM782 607 L528 607 L528 481 L782 481 L782 607 Z" /><glyph glyph-name="uni5357" unicode="&#x5357;" d="M121 -87 L121 518 L468 518 L468 635 L47 635 L47 686 L468 686 L468 802 L524 802 L524 686 L943 686 L943 635 L524 635 L524 518 L868 518 L868 33 Q868 -32 846.5 -53 Q825 -74 763 -74 L640 -74 L630 -24 L743 -24 Q787 -24 799.5 -11 Q812 2 812 45 L812 468 L177 468 L177 -87 L121 -87 ZM468 -69 L468 114 L226 114 L226 158 L468 158 L468 263 L248 263 L248 307 L400 307 Q356 366 313 418 L351 446 Q402 387 446 330 L414 307 L530 307 Q586 377 632 444 L676 420 Q640 367 591 307 L741 307 L741 263 L522 263 L522 158 L763 158 L763 114 L522 114 L522 -69 L468 -69 Z" /><glyph glyph-name="uni5361" unicode="&#x5361;" d="M862 605 L497 605 L497 420 L947 420 L947 366 L52 366 L52 420 L441 420 L441 798 L497 798 L497 659 L862 659 L862 605 ZM441 -101 L441 334 L498 334 L498 -101 L441 -101 ZM856 43 Q699 140 527 234 L553 280 Q732 185 886 93 L856 43 Z" /><glyph glyph-name="uni536B" unicode="&#x536b;" d="M524 290 L652 290 Q720 290 746.5 311.5 Q773 333 774 388 Q785 596 785 657 L435 657 L435 22 L954 22 L954 -37 L47 -37 L47 22 L373 22 L373 657 L106 657 L106 716 L848 716 Q844 542 836 361 Q834 289 795.5 259.5 Q757 230 670 230 L536 230 L524 290 Z" /><glyph glyph-name="uni5382" unicode="&#x5382;" d="M945 656 L238 656 L238 472 Q238 241 211 128 Q184 15 108 -104 L50 -78 Q127 43 152.5 146.5 Q178 250 178 476 L178 716 L945 716 L945 656 Z" /><glyph glyph-name="uni5386" unicode="&#x5386;" d="M548 -8 L680 -8 Q748 -8 769.5 10.5 Q791 29 794 81 Q805 246 812 411 L556 411 Q550 231 490.5 119 Q431 7 287 -97 L241 -57 Q382 43 438.5 145 Q495 247 500 411 L287 411 L287 466 L502 466 Q505 592 505 629 L561 629 Q561 592 558 466 L874 466 Q864 261 850 55 Q847 -11 816 -37.5 Q785 -64 697 -64 L560 -64 L548 -8 ZM949 674 L222 674 L222 403 Q222 230 199 123.5 Q176 17 106 -97 L50 -70 Q117 37 140.5 135 Q164 233 164 398 L164 730 L949 730 L949 674 Z" /><glyph glyph-name="uni539F" unicode="&#x539f;" d="M622 666 Q609 621 591 572 L868 572 L868 235 L642 235 L642 26 Q642 -32 617.5 -53.5 Q593 -75 525 -75 L422 -75 L411 -23 L503 -23 Q553 -23 569 -8.5 Q585 6 585 46 L585 235 L340 235 L340 572 L527 572 Q549 624 564 677 L622 666 ZM955 687 L216 687 L216 423 Q216 227 192 116 Q168 5 98 -103 L47 -65 Q116 41 138 138.5 Q160 236 160 422 L160 739 L955 739 L955 687 ZM394 527 L394 427 L815 427 L815 527 L394 527 ZM394 281 L815 281 L815 381 L394 381 L394 281 ZM459 152 Q378 41 259 -68 L221 -26 Q338 76 415 182 L459 152 ZM919 -55 Q812 52 719 141 L757 175 Q852 87 958 -17 L919 -55 Z" /><glyph glyph-name="uni53BB" unicode="&#x53bb;" d="M854 -91 L793 -18 Q542 -26 120 -50 L102 6 Q162 22 180 42 Q295 148 415 307 L47 307 L47 362 L472 362 L472 581 L114 581 L114 635 L472 635 L472 804 L528 804 L528 635 L884 635 L884 581 L528 581 L528 362 L951 362 L951 307 L488 307 Q371 148 234 17 L748 35 Q657 144 595 215 L638 249 Q766 106 899 -53 L854 -91 Z" /><glyph glyph-name="uni53C2" unicode="&#x53c2;" d="M476 555 Q455 513 433 479 L940 479 L940 431 L657 431 Q758 307 961 235 L937 183 Q711 270 595 431 L401 431 Q303 293 65 183 L37 230 Q239 313 332 431 L59 431 L59 479 L368 479 Q395 519 418 567 L476 555 ZM861 534 Q829 559 783 591 Q530 589 149 577 L137 621 Q178 626 204 643 Q319 712 441 810 L480 777 Q376 695 264 624 L726 632 Q649 686 595 724 L625 762 Q759 671 891 573 L861 534 ZM851 110 Q596 -32 125 -101 L107 -53 Q363 -16 529.5 33 Q696 82 827 154 L851 110 ZM724 220 Q517 111 180 50 L164 94 Q496 154 703 264 L724 220 ZM610 314 Q446 241 243 197 L226 245 Q432 286 592 358 L610 314 Z" /><glyph glyph-name="uni53C8" unicode="&#x53c8;" d="M107 724 L818 724 L818 667 Q769 505 705.5 387.5 Q642 270 547 183 Q689 66 954 -28 L931 -90 Q650 16 499 142 Q347 23 71 -82 L41 -24 Q308 79 451 186 Q367 269 307 377.5 Q247 486 199 629 L255 647 Q303 511 360 408 Q417 305 499 225 Q590 305 649.5 411.5 Q709 518 755 667 L107 667 L107 724 Z" /><glyph glyph-name="uni53CA" unicode="&#x53ca;" d="M208 -44 Q426 38 556 137 Q398 278 323 478 Q313 308 260 178.5 Q207 49 95 -85 L45 -51 Q158 77 209.5 201.5 Q261 326 269 496 L278 677 L99 677 L99 732 L764 732 L764 676 L648 483 L846 483 L846 430 Q771 256 644 138 Q771 41 955 -33 L922 -88 Q731 -4 600 100 Q465 -8 238 -96 L208 -44 ZM334 677 L331 612 Q409 337 599 174 Q714 277 783 430 L574 430 L574 476 L693 677 L334 677 Z" /><glyph glyph-name="uni53CB" unicode="&#x53cb;" d="M405 799 Q400 730 391 660 L953 660 L953 604 L383 604 Q371 529 352 455 L832 455 L832 402 Q759 228 625 116 Q748 29 954 -35 L930 -93 Q710 -18 579 81 Q444 -15 220 -97 L190 -41 Q402 31 532 119 Q410 228 336 395 Q299 270 235.5 152 Q172 34 75 -74 L30 -30 Q162 116 229 277.5 Q296 439 320 604 L66 604 L66 660 L329 660 Q338 731 343 801 L405 799 ZM391 402 Q464 251 578 153 Q706 255 770 402 L391 402 Z" /><glyph glyph-name="uni53CD" unicode="&#x53cd;" d="M932 -94 Q719 -22 582 80 Q447 -17 222 -95 L190 -39 Q401 28 533 118 Q400 235 311 405 L358 435 Q442 271 582 155 Q712 262 780 440 L244 439 Q244 237 216 128 Q188 19 102 -100 L47 -67 Q133 49 160 149 Q187 249 187 445 L187 692 Q525 705 887 753 L898 697 Q563 653 244 638 L244 496 L848 496 L848 440 Q768 235 631 118 Q762 24 961 -34 L932 -94 Z" /><glyph glyph-name="uni53D1" unicode="&#x53d1;" d="M922 -100 Q701 -33 565 63 Q433 -21 199 -94 L175 -39 Q393 24 517 100 Q409 190 343 315 Q257 120 71 -60 L29 -14 Q279 217 357 541 L119 541 L119 587 Q147 691 166 780 L222 768 Q203 687 180 593 L369 593 Q390 686 402 796 L460 792 Q447 684 429 593 L937 593 L937 541 L417 541 Q400 466 376 399 L811 399 L811 347 Q733 191 616 99 Q744 17 946 -42 L922 -100 ZM390 346 Q457 220 568 133 Q682 217 745 346 L390 346 ZM788 646 Q700 698 609 749 L638 795 Q728 746 816 694 L788 646 Z" /><glyph glyph-name="uni53D7" unicode="&#x53d7;" d="M199 319 L778 319 L778 269 Q686 148 554 71 Q708 5 951 -32 L933 -86 Q662 -40 497 41 Q333 -38 66 -91 L48 -37 Q291 7 439 72 Q321 143 240 253 L261 269 L199 269 L199 319 ZM101 306 L101 494 L898 494 L898 306 L848 306 L848 445 L152 445 L152 306 L101 306 ZM883 713 Q490 681 111 668 L105 718 Q493 731 871 764 L883 713 ZM294 269 Q370 167 494 100 Q616 165 697 269 L294 269 ZM824 665 Q772 575 716 496 L671 520 Q727 599 776 686 L824 665 ZM521 503 Q479 584 439 649 L487 673 Q527 604 570 526 L521 503 ZM273 499 Q232 573 190 636 L235 660 L323 523 L273 499 Z" /><glyph glyph-name="uni53D8" unicode="&#x53d8;" d="M127 315 L788 315 L788 267 Q703 140 560 59 Q705 0 953 -43 L935 -98 Q659 -46 500 28 Q342 -45 65 -101 L47 -49 Q289 -5 440 60 Q310 135 229 251 L254 265 L127 265 L127 315 ZM583 364 L583 629 L419 629 L419 364 L366 364 L366 629 L70 629 L70 679 L494 679 Q470 734 436 791 L492 813 Q525 757 551 697 L500 679 L932 679 L932 629 L636 629 L636 364 L583 364 ZM287 265 Q368 156 499 88 Q636 159 712 265 L287 265 ZM303 530 Q210 429 74 333 L44 377 Q172 465 267 564 L303 530 ZM926 349 Q806 446 700 524 L732 563 Q836 488 957 393 L926 349 Z" /><glyph glyph-name="uni53E3" unicode="&#x53e3;" d="M153 -86 L153 693 L847 693 L847 -81 L788 -81 L788 19 L212 19 L212 -86 L153 -86 ZM212 633 L212 79 L788 79 L788 633 L212 633 Z" /><glyph glyph-name="uni53EA" unicode="&#x53ea;" d="M173 728 L826 728 L826 285 L173 285 L173 728 ZM230 673 L230 340 L769 340 L769 673 L230 673 ZM394 178 Q264 29 93 -92 L49 -42 Q218 72 350 220 L394 178 ZM898 -88 Q758 46 605 174 L648 218 Q802 89 942 -38 L898 -88 Z" /><glyph glyph-name="uni53EE" unicode="&#x53ee;" d="M105 -10 L105 713 L392 713 L392 87 L162 87 L162 -10 L105 -10 ZM162 657 L162 143 L336 143 L336 657 L162 657 ZM958 653 L760 653 L760 51 Q760 -15 731.5 -40.5 Q703 -66 628 -66 L503 -66 L491 -8 L613 -8 Q665 -8 683 8 Q701 24 701 69 L701 653 L445 653 L445 713 L958 713 L958 653 Z" /><glyph glyph-name="uni53EF" unicode="&#x53ef;" d="M172 47 L172 507 L563 507 L563 136 L226 136 L226 47 L172 47 ZM959 673 L812 673 L812 57 Q812 -20 783.5 -46 Q755 -72 666 -72 L531 -72 L520 -17 L654 -17 Q718 -17 737 0 Q756 17 756 72 L756 673 L45 673 L45 727 L959 727 L959 673 ZM226 454 L226 189 L509 189 L509 454 L226 454 Z" /><glyph glyph-name="uni53F0" unicode="&#x53f0;" d="M177 -101 L177 300 L821 300 L821 -101 L764 -101 L764 -37 L234 -37 L234 -101 L177 -101 ZM234 245 L234 18 L764 18 L764 245 L234 245 ZM876 378 L805 453 Q507 447 90 424 L76 480 Q137 488 167 513 Q320 640 444 808 L494 778 Q377 623 226 490 L754 506 Q662 603 602 663 L642 701 Q773 572 918 418 L876 378 Z" /><glyph glyph-name="uni53F7" unicode="&#x53f7;" d="M190 743 L810 743 L810 499 L190 499 L190 743 ZM376 -17 L583 -17 Q662 -17 687.5 0.5 Q713 18 717 73 Q724 124 727 177 L206 177 L243 343 L46 343 L46 393 L956 393 L956 343 L306 343 L282 226 L795 226 Q790 143 781 61 Q775 -18 739 -45 Q703 -72 600 -72 L387 -72 L376 -17 ZM251 694 L251 548 L750 548 L750 694 L251 694 Z" /><glyph glyph-name="uni53F8" unicode="&#x53f8;" d="M168 -28 L168 366 L626 366 L626 55 L227 55 L227 -28 L168 -28 ZM585 -18 L722 -18 Q778 -18 796 -2 Q814 14 814 63 L814 680 L117 680 L117 736 L872 736 L872 40 Q872 -24 845 -49 Q818 -74 746 -74 L596 -74 L585 -18 ZM227 312 L227 109 L567 109 L567 312 L227 312 ZM738 494 L68 494 L68 547 L738 547 L738 494 Z" /><glyph glyph-name="uni5404" unicode="&#x5404;" d="M192 -96 L192 265 L804 265 L804 -96 L748 -96 L748 -29 L248 -29 L248 -96 L192 -96 ZM935 301 Q675 346 502 428 Q321 340 58 286 L37 342 Q266 383 441 459 Q338 517 249 602 Q176 533 93 474 L61 517 Q246 649 354 807 L411 789 Q384 750 352 711 L820 711 L820 661 Q717 543 562 458 Q715 395 953 357 L935 301 ZM248 215 L248 21 L748 21 L748 215 L248 215 ZM307 661 L288 640 Q381 548 500 487 Q652 562 742 661 L307 661 Z" /><glyph glyph-name="uni5408" unicode="&#x5408;" d="M186 -92 L186 292 L810 292 L810 -93 L753 -93 L753 -31 L245 -31 L245 -92 L186 -92 ZM245 240 L245 21 L753 21 L753 240 L245 240 ZM933 393 Q659 523 500 727 Q351 533 63 390 L38 446 Q327 584 469 784 L531 784 Q678 575 962 448 L933 393 ZM750 432 L246 432 L246 484 L750 484 L750 432 Z" /><glyph glyph-name="uni540C" unicode="&#x540c;" d="M112 -91 L112 732 L876 732 L876 39 Q876 -28 850.5 -51 Q825 -74 754 -74 L639 -74 L628 -22 L736 -22 Q787 -22 803.5 -7 Q820 8 820 52 L820 680 L168 680 L168 -91 L112 -91 ZM313 371 L675 371 L675 77 L313 77 L313 371 ZM364 322 L364 125 L624 125 L624 322 L364 322 ZM746 495 L243 495 L243 545 L746 545 L746 495 Z" /><glyph glyph-name="uni540D" unicode="&#x540d;" d="M254 -94 L254 244 Q164 211 62 182 L41 232 Q304 305 482 403 Q660 501 776 634 L377 634 Q345 601 309 571 Q389 513 466 455 L427 413 Q347 475 265 535 Q199 483 125 436 L89 482 Q198 547 294.5 634.5 Q391 722 451 804 L504 783 Q470 734 426 686 L853 686 L853 634 Q684 428 396 301 L857 301 L857 -94 L801 -94 L801 -28 L310 -28 L310 -94 L254 -94 ZM310 249 L310 23 L801 23 L801 249 L310 249 Z" /><glyph glyph-name="uni540E" unicode="&#x540e;" d="M318 -97 L318 292 L839 292 L839 -97 L783 -97 L783 -22 L374 -22 L374 -97 L318 -97 ZM880 704 Q553 665 226 652 L226 500 L938 500 L938 449 L226 449 Q227 277 198 160.5 Q169 44 86 -79 L36 -45 Q119 72 145.5 179.5 Q172 287 172 472 L172 705 Q526 714 867 760 L880 704 ZM374 242 L374 29 L783 29 L783 242 L374 242 Z" /><glyph glyph-name="uni5411" unicode="&#x5411;" d="M509 805 Q486 744 450 665 L872 665 L872 34 Q872 -24 847.5 -45 Q823 -66 753 -66 L631 -66 L620 -10 L737 -10 Q787 -10 801 3 Q815 16 815 54 L815 610 L173 610 L173 -82 L116 -82 L116 665 L379 665 Q416 746 441 816 L509 805 ZM317 455 L670 455 L670 103 L317 103 L317 455 ZM373 401 L373 157 L614 157 L614 401 L373 401 Z" /><glyph glyph-name="uni5426" unicode="&#x5426;" d="M185 -87 L185 285 L816 285 L816 -87 L760 -87 L760 -22 L241 -22 L241 -87 L185 -87 ZM241 232 L241 30 L760 30 L760 232 L241 232 ZM909 681 L593 681 Q548 630 494 584 L528 584 L528 329 L472 329 L472 565 Q316 436 81 337 L57 393 Q355 513 516 681 L92 681 L92 733 L909 733 L909 681 ZM919 348 Q756 440 581 531 L605 578 Q784 488 944 399 L919 348 Z" /><glyph glyph-name="uni542B" unicode="&#x542b;" d="M185 -90 L185 251 L819 251 L819 -90 L763 -90 L763 -27 L241 -27 L241 -90 L185 -90 ZM241 201 L241 23 L763 23 L763 201 L241 201 ZM932 467 Q660 577 503 748 Q352 579 69 460 L45 513 Q329 625 472 796 L535 796 Q683 623 956 520 L932 467 ZM587 286 Q643 340 693 407 L199 407 L199 456 L767 456 L767 407 Q699 325 625 254 L587 286 ZM539 473 Q480 539 421 597 L459 630 Q519 573 577 508 L539 473 Z" /><glyph glyph-name="uni542F" unicode="&#x542f;" d="M524 817 Q556 759 593 687 L885 687 L885 420 L233 420 Q232 271 198 163 Q164 55 82 -63 L32 -28 Q114 85 144.5 188.5 Q175 292 175 456 L175 687 L527 687 Q494 754 468 799 L524 817 ZM297 -104 L297 276 L865 276 L865 -104 L807 -104 L807 -34 L354 -34 L354 -104 L297 -104 ZM233 637 L233 471 L827 471 L827 637 L233 637 ZM354 226 L354 16 L807 16 L807 226 L354 226 Z" /><glyph glyph-name="uni5458" unicode="&#x5458;" d="M206 746 L796 746 L796 520 L206 520 L206 746 ZM174 102 L174 412 L827 412 L827 107 L771 107 L771 360 L231 360 L231 102 L174 102 ZM535 308 Q529 232 513 165 Q510 153 506 142 Q715 57 923 -36 L897 -90 Q690 6 482 93 L486 101 Q410 -23 84 -92 L66 -37 Q262 1 353.5 55 Q445 109 460 194 Q470 243 477 308 L535 308 ZM265 696 L265 570 L737 570 L737 696 L265 696 Z" /><glyph glyph-name="uni547D" unicode="&#x547d;" d="M142 -43 L142 363 L420 363 L420 32 L195 32 L195 -43 L142 -43 ZM534 -101 L534 367 L861 367 L861 128 Q861 62 836 39 Q811 16 742 16 L659 16 L648 69 L723 69 Q774 69 790 83.5 Q806 98 806 140 L806 316 L588 316 L588 -101 L534 -101 ZM939 456 Q667 585 499 743 Q337 588 60 456 L36 511 Q315 636 465 793 L533 793 Q684 635 964 510 L939 456 ZM195 312 L195 83 L367 83 L367 312 L195 312 ZM762 480 L235 480 L235 533 L762 533 L762 480 Z" /><glyph glyph-name="uni548C" unicode="&#x548c;" d="M531 -72 L531 691 L890 691 L890 -66 L835 -66 L835 19 L587 19 L587 -72 L531 -72 ZM587 633 L587 77 L835 77 L835 633 L587 633 ZM448 174 Q374 251 297 330 L297 -100 L242 -100 L242 359 Q167 204 67 86 L39 141 Q162 284 239 461 L53 461 L53 516 L242 516 L242 672 Q148 657 73 647 L67 699 Q259 724 449 769 L459 717 Q388 699 297 682 L297 516 L482 516 L482 461 L297 461 L297 338 L330 369 Q407 296 486 213 L448 174 Z" /><glyph glyph-name="uni54C1" unicode="&#x54c1;" d="M191 751 L798 751 L798 452 L191 452 L191 751 ZM550 -79 L550 326 L888 326 L888 -79 L835 -79 L835 -11 L604 -11 L604 -79 L550 -79 ZM102 -79 L102 326 L429 326 L429 -79 L376 -79 L376 -11 L156 -11 L156 -79 L102 -79 ZM248 699 L248 504 L742 504 L742 699 L248 699 ZM604 275 L604 41 L835 41 L835 275 L604 275 ZM156 275 L156 41 L376 41 L376 275 L156 275 Z" /><glyph glyph-name="uni559C" unicode="&#x559c;" d="M713 296 L660 226 L957 226 L957 182 L41 182 L41 226 L343 226 Q317 264 290 298 L329 322 L189 322 L189 476 L811 476 L811 322 L672 322 L713 296 ZM181 -104 L181 113 L818 113 L818 -104 L764 -104 L764 -54 L235 -54 L235 -104 L181 -104 ZM889 542 L110 542 L110 585 L472 585 L472 662 L61 662 L61 706 L472 706 L472 798 L528 798 L528 706 L938 706 L938 662 L528 662 L528 585 L889 585 L889 542 ZM235 73 L235 -13 L764 -13 L764 73 L235 73 ZM242 437 L242 361 L757 361 L757 437 L242 437 ZM392 244 L361 226 L593 226 Q632 273 667 322 L335 322 Q367 282 392 244 Z" /><glyph glyph-name="uni5668" unicode="&#x5668;" d="M131 -90 L131 194 L54 174 L39 224 Q318 280 396 364 L68 364 L68 412 L434 412 Q457 450 470 500 L529 493 Q515 448 496 412 L729 412 Q684 451 641 486 L671 516 Q718 480 763 440 L736 412 L929 412 L929 364 L593 364 Q702 264 959 227 L944 178 Q904 185 866 194 L866 -90 L816 -90 L816 -32 L604 -32 L604 -90 L554 -90 L554 205 L823 205 Q628 256 523 364 L466 364 Q402 271 169 205 L438 205 L438 -90 L388 -90 L388 -32 L181 -32 L181 -90 L131 -90 ZM555 751 L873 751 L873 523 L555 523 L555 751 ZM123 751 L438 751 L438 523 L123 523 L123 751 ZM604 161 L604 12 L816 12 L816 161 L604 161 ZM181 161 L181 12 L388 12 L388 161 L181 161 ZM605 707 L605 568 L823 568 L823 707 L605 707 ZM173 707 L173 568 L388 568 L388 707 L173 707 Z" /><glyph glyph-name="uni56DE" unicode="&#x56de;" d="M110 -92 L110 738 L877 738 L877 -92 L820 -92 L820 -18 L168 -18 L168 -92 L110 -92 ZM168 681 L168 38 L820 38 L820 681 L168 681 ZM318 528 L669 528 L669 191 L318 191 L318 528 ZM368 478 L368 241 L619 241 L619 478 L368 478 Z" /><glyph glyph-name="uni56E0" unicode="&#x56e0;" d="M119 -100 L119 739 L882 739 L882 -100 L825 -100 L825 -33 L176 -33 L176 -100 L119 -100 ZM176 683 L176 23 L825 23 L825 683 L176 683 ZM528 642 Q528 590 522 492 L760 492 L760 438 L518 438 L514 400 L509 369 Q629 254 751 134 L712 90 Q609 195 491 312 Q439 190 264 88 L233 137 Q343 197 397.5 261.5 Q452 326 461 418 Q461 427 463 438 L239 438 L239 492 L467 492 Q472 602 472 642 L528 642 Z" /><glyph glyph-name="uni56E2" unicode="&#x56e2;" d="M112 -104 L112 744 L888 744 L888 -104 L831 -104 L831 -40 L170 -40 L170 -104 L112 -104 ZM170 688 L170 16 L831 16 L831 688 L170 688 ZM402 140 L508 140 Q558 140 573.5 153.5 Q589 167 589 210 L589 461 Q467 271 242 140 L209 185 Q426 306 540 478 L231 478 L231 531 L589 531 L589 647 L643 647 L643 531 L775 531 L775 478 L643 478 L643 191 Q643 130 616 108.5 Q589 87 518 87 L413 87 L402 140 Z" /><glyph glyph-name="uni56F4" unicode="&#x56f4;" d="M117 -104 L117 742 L885 742 L885 -104 L829 -104 L829 -42 L173 -42 L173 -104 L117 -104 ZM173 691 L173 9 L829 9 L829 691 L173 691 ZM439 44 L439 253 L229 253 L229 297 L439 297 L439 392 L264 392 L264 435 L439 435 L439 530 L236 530 L236 574 L439 574 L439 661 L491 661 L491 574 L760 574 L760 530 L491 530 L491 435 L735 435 L735 392 L491 392 L491 297 L731 297 Q728 237 722 175 Q719 131 696 113 Q673 95 620 95 L537 95 L530 139 L602 139 Q642 139 657 147.5 Q672 156 673 181 Q677 215 680 253 L491 253 L491 44 L439 44 Z" /><glyph glyph-name="uni56FA" unicode="&#x56fa;" d="M109 -105 L109 739 L889 739 L889 -106 L833 -106 L833 -46 L164 -46 L164 -105 L109 -105 ZM164 689 L164 4 L833 4 L833 689 L164 689 ZM311 362 L472 362 L472 489 L231 489 L231 539 L472 539 L472 648 L526 648 L526 539 L767 539 L767 489 L526 489 L526 362 L687 362 L687 118 L311 118 L311 362 ZM361 318 L361 162 L637 162 L637 318 L361 318 Z" /><glyph glyph-name="uni56FD" unicode="&#x56fd;" d="M113 -102 L113 744 L891 744 L891 -103 L834 -103 L834 -38 L169 -38 L169 -102 L113 -102 ZM169 693 L169 14 L834 14 L834 693 L169 693 ZM779 122 L222 122 L222 171 L469 171 L469 348 L261 348 L261 396 L469 396 L469 536 L247 536 L247 584 L755 584 L755 536 L523 536 L523 396 L744 396 L744 348 L523 348 L523 171 L779 171 L779 122 ZM685 193 Q639 255 596 306 L631 331 Q674 281 721 221 L685 193 Z" /><glyph glyph-name="uni5728" unicode="&#x5728;" d="M460 796 Q439 730 414 670 L935 670 L935 616 L391 616 Q334 492 255 385 L255 -98 L199 -98 L199 316 Q138 246 64 183 L30 232 Q220 392 328 616 L50 616 L50 670 L353 670 Q382 738 404 808 L460 796 ZM896 307 L645 307 L645 32 L934 32 L934 -22 L300 -22 L300 32 L589 32 L589 307 L344 307 L344 360 L589 360 L589 536 L645 536 L645 360 L896 360 L896 307 Z" /><glyph glyph-name="uni5730" unicode="&#x5730;" d="M939 165 Q939 129 933 41 Q931 -17 902 -38.5 Q873 -60 796 -60 L542 -60 Q472 -60 443.5 -36.5 Q415 -13 415 57 L415 405 L313 372 L300 424 L415 462 L415 709 L469 709 L469 480 L613 527 L613 795 L666 795 L666 545 L880 615 L869 280 Q868 227 847 207 Q826 187 764 187 L711 187 L700 241 L740 241 Q786 241 800.5 253.5 Q815 266 815 304 Q820 422 824 541 L666 488 L666 93 L613 93 L613 471 L469 423 L469 80 Q469 27 483.5 9.5 Q498 -8 549 -8 L774 -8 Q839 -8 859 7.5 Q879 23 879 68 Q882 119 884 176 L939 165 ZM370 108 Q213 50 53 -10 L39 40 L179 91 L179 459 L50 459 L50 512 L179 512 L179 777 L232 777 L232 512 L347 512 L347 459 L232 459 L232 110 L362 158 L370 108 Z" /><glyph glyph-name="uni573A" unicode="&#x573a;" d="M607 -2 L712 -2 Q768 -2 789 15 Q810 32 813 80 Q827 241 836 404 L714 404 Q691 234 630 119.5 Q569 5 444 -94 L399 -61 Q519 33 577.5 138 Q636 243 663 404 L535 404 Q509 287 446.5 189 Q384 91 275 6 L234 40 Q342 122 400.5 211 Q459 300 485 404 L378 404 L378 448 L724 677 L390 677 L390 730 L824 730 L824 675 L485 454 L892 454 Q882 271 868 62 Q864 -6 833 -31 Q802 -56 724 -56 L617 -56 L607 -2 ZM346 158 Q197 110 50 59 L38 113 Q71 122 178 157 L178 498 L53 498 L53 551 L178 551 L178 801 L234 801 L234 551 L358 551 L358 498 L234 498 L234 175 Q316 202 340 210 L346 158 Z" /><glyph glyph-name="uni5747" unicode="&#x5747;" d="M589 -9 L710 -9 Q778 -9 802.5 9.5 Q827 28 827 84 Q836 339 841 595 L529 595 Q488 508 442 441 L393 468 Q496 630 549 800 L605 787 Q585 721 554 651 L901 651 Q893 358 883 58 Q883 -12 850.5 -39 Q818 -66 732 -66 L601 -66 L589 -9 ZM392 133 Q225 73 63 13 L50 69 L203 123 L203 470 L69 470 L69 527 L203 527 L203 785 L261 785 L261 527 L378 527 L378 470 L261 470 L261 144 L385 189 L392 133 ZM802 272 Q619 183 427 87 L408 142 Q597 230 785 326 L802 272 ZM636 325 Q566 395 492 461 L524 499 Q602 433 674 363 L636 325 Z" /><glyph glyph-name="uni5757" unicode="&#x5757;" d="M616 798 Q616 774 615 631 L850 631 L850 336 L955 336 L955 282 L626 282 Q685 66 948 -39 L918 -93 Q672 11 592 219 Q541 42 282 -100 L251 -49 Q526 89 551 282 L322 282 L322 336 L557 336 Q557 351 558 367 Q558 394 559 577 L366 577 L366 631 L559 631 Q560 774 560 798 L616 798 ZM382 121 Q223 72 47 16 L35 74 Q84 87 183 117 L183 466 L54 466 L54 520 L183 520 L183 790 L237 790 L237 520 L366 520 L366 466 L237 466 L237 133 Q330 162 374 177 L382 121 ZM795 577 L615 577 Q615 433 614 370 Q614 352 613 336 L795 336 L795 577 Z" /><glyph glyph-name="uni575B" unicode="&#x575b;" d="M874 -92 Q857 -52 836 -4 Q784 -7 633 -18.5 Q482 -30 378 -45 L360 11 Q396 21 416 52 Q503 195 570 390 L392 390 L392 446 L955 446 L955 390 L632 390 Q560 188 465 30 L813 49 L722 250 L778 271 Q850 115 930 -72 L874 -92 ZM377 476 L246 476 L246 129 L391 176 L405 117 Q228 63 54 7 L38 64 L190 111 L190 476 L48 476 L48 532 L190 532 L190 791 L246 791 L246 532 L377 532 L377 476 ZM914 653 L417 653 L417 709 L914 709 L914 653 Z" /><glyph glyph-name="uni578B" unicode="&#x578b;" d="M409 268 L409 460 L249 460 Q244 386 216 332 Q188 278 122 218 L78 249 Q139 307 165 353 Q191 399 196 460 L58 460 L58 510 L198 510 Q199 530 199 552 L199 681 L84 681 L84 731 L578 731 L578 681 L462 681 L462 510 L599 510 L599 460 L462 460 L462 268 L409 268 ZM948 -59 L54 -59 L54 -8 L477 -8 L477 132 L151 132 L151 182 L477 182 L477 259 L533 259 L533 182 L853 182 L853 132 L533 132 L533 -8 L948 -8 L948 -59 ZM876 780 L876 386 Q876 327 851.5 304 Q827 281 759 281 L671 281 L661 331 L742 331 Q788 331 805 345 Q822 359 822 399 L822 780 L876 780 ZM252 552 Q252 530 251 510 L409 510 L409 681 L252 681 L252 552 ZM637 381 L637 728 L690 728 L690 381 L637 381 Z" /><glyph glyph-name="uni57CE" unicode="&#x57ce;" d="M956 164 Q951 108 939 42 Q930 -6 916 -31.5 Q902 -57 886.5 -66 Q871 -75 855 -75 Q831 -75 806.5 -55.5 Q782 -36 756 18 Q740 53 725 99 Q657 5 559 -84 L521 -48 Q636 52 707 160 Q664 319 640 576 L407 576 L407 413 L585 413 Q580 270 574 125 Q574 69 550.5 46 Q527 23 467 23 L419 23 L408 77 L453 77 Q498 77 512 92 Q526 107 527 149 Q535 320 535 360 L407 360 Q408 208 380 109 Q352 10 275 -100 L225 -76 Q303 31 328 126 Q353 221 353 387 L353 628 L636 628 L625 802 L679 802 Q681 750 688 628 L939 628 L939 576 L692 576 Q709 357 743 218 Q806 333 849 487 L896 475 Q841 284 760 151 Q777 92 797 47 Q812 14 828.5 0.5 Q845 -13 855 -13 Q864 -13 876 3 Q888 19 897 67 Q906 117 912 176 L956 164 ZM309 484 L206 484 L206 156 L300 188 L304 133 Q172 93 40 47 L31 103 Q72 114 154 140 L154 484 L44 484 L44 536 L154 536 L154 788 L206 788 L206 536 L309 536 L309 484 ZM848 654 Q797 713 746 764 L781 795 Q835 743 886 687 L848 654 Z" /><glyph glyph-name="uni57DF" unicode="&#x57df;" d="M947 155 Q942 106 930 39 Q918 -29 896.5 -52.5 Q875 -76 846 -76 Q791 -82 747 17 Q733 52 720 97 Q642 0 537 -80 L499 -37 Q627 55 706 158 Q670 327 660 585 L337 585 L337 635 L659 635 Q657 753 657 801 L710 801 Q710 755 712 635 L949 635 L949 585 L713 585 Q719 364 745 216 Q815 327 864 498 L911 483 Q852 287 759 150 Q773 89 791 45 Q806 11 820.5 0 Q835 -11 846 -9 Q856 -9 867 7.5 Q878 24 887 69 Q896 122 901 168 L947 155 ZM341 487 L228 487 L228 142 L344 178 L351 122 Q204 81 54 34 L42 89 Q77 98 175 127 L175 487 L58 487 L58 539 L175 539 L175 786 L228 786 L228 539 L341 539 L341 487 ZM371 466 L587 466 L587 205 L371 205 L371 466 ZM417 418 L417 253 L541 253 L541 418 L417 418 ZM609 72 Q448 32 285 -11 L273 45 Q437 83 601 124 L609 72 ZM875 663 Q824 716 764 772 L794 803 Q854 751 907 696 L875 663 Z" /><glyph glyph-name="uni57F9" unicode="&#x57f9;" d="M412 -104 L412 244 L868 244 L868 -104 L812 -104 L812 -42 L467 -42 L467 -104 L412 -104 ZM356 475 L232 475 L232 124 L358 162 L365 108 L49 16 L37 70 Q75 79 177 108 L177 475 L52 475 L52 527 L177 527 L177 788 L232 788 L232 527 L356 527 L356 475 ZM467 194 L467 8 L812 8 L812 194 L467 194 ZM835 573 Q797 493 752 414 L957 414 L957 363 L329 363 L329 414 L688 414 Q742 503 784 591 L835 573 ZM924 621 L364 621 L364 672 L643 672 Q615 723 575 786 L625 810 Q664 750 697 692 L661 672 L924 672 L924 621 ZM524 429 Q487 503 449 568 L499 592 Q537 528 575 453 L524 429 Z" /><glyph glyph-name="uni57FA" unicode="&#x57fa;" d="M934 52 Q829 96 755 150 Q681 204 624 284 L373 284 Q282 147 63 44 L39 93 Q227 174 312 284 L48 284 L48 328 L238 328 L238 658 L81 658 L81 702 L238 702 L238 788 L293 788 L293 702 L705 702 L705 788 L760 788 L760 702 L918 702 L918 658 L760 658 L760 328 L952 328 L952 284 L685 284 Q782 166 958 100 L934 52 ZM735 91 L527 91 L527 -20 L910 -20 L910 -66 L87 -66 L87 -20 L472 -20 L472 91 L260 91 L260 135 L472 135 L472 235 L527 235 L527 135 L735 135 L735 91 ZM293 410 L293 328 L705 328 L705 410 L293 410 ZM293 658 L293 577 L705 577 L705 658 L293 658 ZM293 533 L293 453 L705 453 L705 533 L293 533 Z" /><glyph glyph-name="uni5802" unicode="&#x5802;" d="M933 -68 L68 -68 L68 -19 L474 -19 L474 98 L150 98 L150 147 L474 147 L474 255 L217 255 L217 456 L785 456 L785 255 L530 255 L530 147 L852 147 L852 98 L530 98 L530 -19 L933 -19 L933 -68 ZM105 415 L105 612 L473 612 L473 798 L529 798 L529 612 L897 612 L897 415 L842 415 L842 562 L160 562 L160 415 L105 415 ZM271 411 L271 301 L729 301 L729 411 L271 411 ZM306 619 Q242 688 178 749 L216 785 Q282 723 344 656 L306 619 ZM822 754 Q764 686 698 621 L658 653 Q725 719 782 784 L822 754 Z" /><glyph glyph-name="uni586B" unicode="&#x586b;" d="M935 663 L653 663 L653 580 L855 580 L855 134 L960 134 L960 93 L328 93 L328 130 Q181 71 51 20 L36 71 Q74 85 178 125 L178 477 L56 477 L56 531 L178 531 L178 785 L230 785 L230 531 L344 531 L344 477 L230 477 L230 146 L325 184 L337 134 L404 134 L404 580 L600 580 L600 663 L342 663 L342 707 L600 707 L600 798 L653 798 L653 707 L935 707 L935 663 ZM455 540 L455 466 L804 466 L804 540 L455 540 ZM455 207 L455 134 L804 134 L804 207 L455 207 ZM455 318 L455 245 L804 245 L804 318 L455 318 ZM455 428 L455 356 L804 356 L804 428 L455 428 ZM568 25 Q454 -44 308 -100 L286 -56 Q438 0 543 67 L568 25 ZM927 -93 Q801 -33 683 20 L703 62 Q824 9 951 -49 L927 -93 Z" /><glyph glyph-name="uni5883" unicode="&#x5883;" d="M947 122 Q946 68 943 13 Q942 -36 922 -53.5 Q902 -71 846 -71 L759 -71 Q714 -71 694 -53 Q674 -35 674 11 L674 148 L549 148 Q549 139 548 131 Q544 40 479 -11 Q414 -62 282 -101 L258 -54 Q385 -18 438 25 Q491 68 494 131 Q494 137 495 148 L384 148 L384 425 L860 425 L860 148 L724 148 L724 28 Q724 -4 735.5 -15.5 Q747 -27 778 -27 L836 -27 Q873 -27 885 -15.5 Q897 -4 898 27 Q902 100 902 131 L947 122 ZM342 123 Q193 79 49 31 L38 85 Q66 93 168 124 L168 484 L53 484 L53 537 L168 537 L168 802 L219 802 L219 537 L321 537 L321 484 L219 484 L219 140 L336 178 L342 123 ZM955 507 L342 507 L342 550 L518 550 Q490 598 464 643 L508 664 L577 550 L688 550 Q728 613 753 661 L798 640 Q780 606 746 550 L955 550 L955 507 ZM923 668 L349 668 L349 710 L615 710 Q591 765 572 804 L628 818 Q652 769 677 710 L923 710 L923 668 ZM434 190 L810 190 L810 266 L434 266 L434 190 ZM434 382 L434 307 L810 307 L810 382 L434 382 Z" /><glyph glyph-name="uni589E" unicode="&#x589e;" d="M824 778 Q794 731 751 672 L899 672 L899 367 L367 367 L367 672 L522 672 Q484 729 444 779 L488 806 Q526 758 569 696 L531 672 L686 672 Q737 741 777 802 L824 778 ZM407 -101 L407 280 L858 280 L858 -101 L808 -101 L808 -46 L457 -46 L457 -101 L407 -101 ZM356 111 Q205 65 53 15 L40 70 Q66 78 175 112 L175 480 L54 480 L54 532 L175 532 L175 794 L225 794 L225 532 L338 532 L338 480 L225 480 L225 128 Q328 161 352 170 L356 111 ZM852 625 L655 625 L655 414 L852 414 L852 625 ZM414 625 L414 414 L610 414 L610 625 L414 625 ZM457 235 L457 139 L808 139 L808 235 L457 235 ZM457 95 L457 -1 L808 -1 L808 95 L457 95 ZM814 568 Q770 503 728 446 L691 471 Q734 528 777 592 L814 568 ZM532 447 Q492 516 454 572 L492 594 Q532 534 570 470 L532 447 Z" /><glyph glyph-name="uni58F0" unicode="&#x58f0;" d="M781 86 L781 148 L223 148 Q218 81 189 20.5 Q160 -40 95 -113 L48 -75 Q124 4 147 68.5 Q170 133 170 224 L170 387 L838 387 L838 86 L781 86 ZM869 486 L134 486 L134 533 L472 533 L472 649 L58 649 L58 696 L472 696 L472 805 L528 805 L528 696 L941 696 L941 649 L528 649 L528 533 L869 533 L869 486 ZM781 339 L530 339 L530 195 L781 195 L781 339 ZM226 195 L474 195 L474 339 L226 339 L226 195 Z" /><glyph glyph-name="uni5904" unicode="&#x5904;" d="M946 -56 L725 -56 Q592 -56 486 -22 Q380 12 301 101 Q219 -1 94 -102 L49 -60 Q180 42 264 149 Q197 244 152 403 Q116 330 74 268 L38 312 Q167 509 229 790 L285 781 Q268 704 244 630 L497 630 L497 572 Q460 325 336 148 Q409 65 508 33.5 Q607 2 737 2 L959 2 L946 -56 ZM441 572 L225 572 Q208 523 187 477 Q231 299 299 197 Q406 355 441 572 ZM924 312 Q820 392 687 489 L687 51 L630 51 L630 789 L687 789 L687 556 Q828 453 950 366 L924 312 Z" /><glyph glyph-name="uni5907" unicode="&#x5907;" d="M170 -107 L170 311 L826 311 L826 -107 L770 -107 L770 -49 L226 -49 L226 -107 L170 -107 ZM943 330 Q657 373 491 448 Q309 372 56 329 L40 380 Q264 419 428 480 Q335 532 259 607 Q188 536 98 475 L63 519 Q161 586 236 664.5 Q311 743 353 808 L414 793 Q387 753 352 709 L825 709 L825 653 Q709 550 559 478 Q709 421 959 386 L943 330 ZM309 659 L297 646 Q380 561 493 506 Q638 570 741 659 L309 659 ZM226 262 L226 154 L471 154 L471 262 L226 262 ZM226 108 L226 0 L471 0 L471 108 L226 108 ZM770 262 L526 262 L526 154 L770 154 L770 262 ZM526 108 L526 0 L770 0 L770 108 L526 108 Z" /><glyph glyph-name="uni590D" unicode="&#x590d;" d="M190 573 L821 573 L821 288 L190 288 L190 573 ZM935 -87 Q697 -55 528 3 Q350 -57 79 -97 L64 -50 Q299 -17 457 30 Q341 78 248 142 Q174 81 75 29 L49 73 Q229 168 321 286 L373 264 Q348 235 322 209 L835 209 L835 166 Q729 83 593 28 Q747 -15 946 -35 L935 -87 ZM324 777 Q305 741 282 707 L922 707 L922 660 L251 660 Q179 559 81 469 L45 513 Q190 645 272 800 L324 777 ZM246 330 L764 330 L764 412 L246 412 L246 330 ZM246 530 L246 450 L764 450 L764 530 L246 530 ZM284 166 Q386 96 521 50 Q665 101 751 166 L284 166 Z" /><glyph glyph-name="uni5916" unicode="&#x5916;" d="M321 781 Q301 706 274 632 L519 632 L519 576 Q483 364 386.5 210.5 Q290 57 110 -93 L68 -46 Q246 97 336.5 239 Q427 381 463 576 L252 576 Q221 497 180 423 Q264 369 338 316 L305 266 Q232 320 152 374 Q119 318 82 268 L42 312 Q192 530 263 794 L321 781 ZM920 264 L682 454 L682 -99 L627 -99 L627 795 L682 795 L682 523 Q828 413 955 313 L920 264 Z" /><glyph glyph-name="uni591A" unicode="&#x591a;" d="M596 421 Q556 376 510 336 L897 336 L897 287 Q781 154 603 62.5 Q425 -29 89 -100 L60 -50 Q384 18 554 98 Q724 178 821 287 L450 287 Q412 258 370 231 Q447 187 522 144 L484 105 Q405 153 322 201 Q234 150 124 101 L95 145 Q397 278 551 445 L596 421 ZM537 785 Q501 743 452 702 L869 702 L869 652 Q619 425 90 314 L66 361 Q543 453 786 652 L388 652 Q357 629 322 607 L462 533 L424 495 Q358 535 274 577 Q206 537 131 502 L100 546 Q348 664 487 809 L537 785 Z" /><glyph glyph-name="uni591F" unicode="&#x591f;" d="M251 787 Q230 727 200 668 L452 668 Q452 636 448.5 382 Q445 128 444 63 Q444 -8 416 -36.5 Q388 -65 317 -65 L216 -65 L206 -13 L304 -13 Q361 -13 377.5 7.5 Q394 28 393 84 Q395 141 397.5 363 Q400 585 400 614 L171 614 Q121 527 57 447 L27 491 Q145 637 202 799 L251 787 ZM98 42 L98 470 L300 470 L300 124 L144 124 L144 42 L98 42 ZM761 412 Q736 368 706 326 L927 326 L927 276 Q878 154 772 63.5 Q666 -27 483 -100 L451 -53 Q789 68 873 279 L669 279 Q643 248 613 218 L718 133 L681 100 Q631 145 581 186 Q540 150 495 116 L465 154 Q636 277 718 430 L761 412 ZM724 791 Q700 744 667 696 L915 696 L915 646 Q805 442 488 327 L465 369 Q754 470 859 652 L634 652 Q615 627 593 604 Q640 568 693 525 L657 495 Q608 537 563 572 Q533 542 499 515 L470 548 Q605 666 674 801 L724 791 ZM144 426 L144 168 L255 168 L255 426 L144 426 Z" /><glyph glyph-name="uni5927" unicode="&#x5927;" d="M530 797 L530 546 L931 546 L931 490 L529 490 L527 464 Q561 306 662.5 185 Q764 64 948 -33 L911 -88 Q590 95 504 352 Q456 211 347.5 102 Q239 -7 97 -90 L59 -34 Q227 56 340.5 186 Q454 316 467 490 L69 490 L69 546 L468 546 L468 797 L530 797 Z" /><glyph glyph-name="uni5929" unicode="&#x5929;" d="M876 665 L525 665 L525 435 L931 435 L931 379 L531 379 Q571 236 672.5 136 Q774 36 946 -38 L915 -97 Q748 -17 647.5 77.5 Q547 172 502 299 Q469 193 370 92.5 Q271 -8 90 -98 L56 -42 Q428 135 460 379 L64 379 L64 435 L465 435 L465 665 L119 665 L119 719 L876 719 L876 665 Z" /><glyph glyph-name="uni5934" unicode="&#x5934;" d="M638 791 Q636 639 632 501 Q629 376 610 289 L943 289 L943 236 L595 236 Q583 198 564 165 Q765 65 938 -25 L911 -79 Q733 19 533 122 Q476 54 367 5 Q258 -44 80 -90 L60 -34 Q275 19 384.5 77.5 Q494 136 533 236 L59 236 L59 289 L550 289 Q572 375 575 508 Q579 644 581 791 L638 791 ZM388 333 Q255 422 118 501 L146 549 Q284 468 418 382 L388 333 ZM447 532 Q319 617 190 698 L219 745 Q352 665 478 581 L447 532 Z" /><glyph glyph-name="uni5947" unicode="&#x5947;" d="M171 -38 L171 263 L582 263 L582 31 L227 31 L227 -38 L171 -38 ZM530 794 Q529 750 526 702 Q525 696 525 690 L907 690 L907 640 L515 640 Q511 625 504 611 Q694 541 858 474 L833 430 Q667 500 479 573 Q408 485 135 441 L117 485 Q281 513 358 549 Q435 585 455 640 L91 640 L91 690 L467 690 Q467 696 468 702 Q472 763 472 794 L530 794 ZM956 370 L816 370 L816 41 Q816 -30 789 -53 Q762 -76 685 -76 L555 -76 L545 -26 L668 -26 Q725 -26 742 -12.5 Q759 1 759 49 L759 370 L44 370 L44 421 L956 421 L956 370 ZM227 214 L227 81 L526 81 L526 214 L227 214 Z" /><glyph glyph-name="uni5957" unicode="&#x5957;" d="M521 792 Q499 741 473 697 L928 697 L928 650 L638 650 Q756 517 960 458 L942 406 Q848 437 765 485 L288 485 L288 408 L803 408 L803 365 L288 365 L288 290 L803 290 L803 248 L288 248 L288 170 L945 170 L945 125 L668 125 Q774 37 876 -54 L841 -95 Q812 -67 772 -33 Q517 -39 140 -59 L124 -9 Q170 -5 199 16 Q273 64 343 125 L54 125 L54 170 L233 170 L233 478 Q160 438 60 399 L41 449 Q277 537 371 650 L72 650 L72 697 L407 697 Q443 749 468 810 L521 792 ZM423 125 Q349 61 261 -1 L717 15 L629 88 L666 125 L423 125 ZM696 530 Q621 584 569 650 L442 650 Q394 585 317 530 L696 530 Z" /><glyph glyph-name="uni5973" unicode="&#x5973;" d="M882 -94 Q718 2 537 96 Q391 -6 77 -91 L50 -34 Q335 39 475 128 Q326 205 204 260 Q267 383 317 524 L48 524 L48 581 L338 581 Q378 698 402 805 L464 793 Q438 689 401 581 L960 581 L960 524 L777 524 Q748 391 704.5 297 Q661 203 588 137 Q759 49 917 -38 L882 -94 ZM528 167 Q601 228 644.5 314.5 Q688 401 716 524 L382 524 Q334 388 284 284 Q390 237 528 167 Z" /><glyph glyph-name="uni5979" unicode="&#x5979;" d="M943 164 Q941 106 936 39 Q934 -19 907 -39.5 Q880 -60 806 -60 L574 -60 Q506 -60 476 -35.5 Q446 -11 446 61 L446 416 L375 393 L362 443 L446 471 L446 695 L498 695 L498 488 L633 533 L633 795 L683 795 L683 550 L887 618 Q881 403 876 291 Q876 237 853 217.5 Q830 198 771 198 L720 198 L710 249 L756 249 Q800 249 813 261.5 Q826 274 825 313 Q832 434 832 542 L683 493 L683 93 L633 93 L633 477 L498 433 L498 78 Q498 25 518.5 9 Q539 -7 594 -7 L784 -7 Q846 -7 865.5 8.5 Q885 24 885 69 Q888 121 887 176 L943 164 ZM374 -32 Q319 22 246 91 Q189 7 80 -99 L41 -58 Q149 41 205 128 Q140 188 90 229 Q125 374 147 542 L53 542 L53 594 L154 594 Q166 696 172 787 L223 784 Q218 702 205 594 L359 594 L359 543 Q342 269 273 138 L411 11 L374 -32 ZM309 542 L199 542 Q178 377 146 247 L231 175 Q293 299 309 542 Z" /><glyph glyph-name="uni597D" unicode="&#x597d;" d="M55 610 L172 610 Q185 703 194 802 L250 798 Q242 712 228 610 L419 610 L419 557 Q391 289 318 155 Q401 89 462 38 L424 -9 Q364 43 287 106 Q220 12 86 -88 L42 -47 Q174 47 242 143 Q165 204 100 252 Q138 390 164 554 L55 554 L55 610 ZM963 320 L721 320 L721 38 Q721 -24 696 -46.5 Q671 -69 602 -69 L499 -69 L487 -13 L585 -13 Q633 -13 649 0.5 Q665 14 665 57 L665 320 L431 320 L431 376 L665 376 L665 500 L836 666 L474 666 L474 722 L912 722 L912 667 L721 481 L721 376 L963 376 L963 320 ZM161 276 Q210 240 272 191 Q339 313 366 554 L219 554 Q195 405 161 276 Z" /><glyph glyph-name="uni5982" unicode="&#x5982;" d="M558 -82 L558 670 L886 670 L886 -77 L832 -77 L832 15 L613 15 L613 -82 L558 -82 ZM470 -44 Q395 20 308 87 Q234 -1 91 -101 L47 -61 Q193 36 266 120 Q183 184 111 233 Q155 380 182 550 L56 550 L56 606 L191 606 Q204 698 213 801 L270 795 Q261 695 248 606 L457 606 L457 555 Q442 407 416.5 307.5 Q391 208 342 133 Q435 62 509 3 L470 -44 ZM613 615 L613 71 L832 71 L832 615 L613 615 ZM401 550 L240 550 Q210 373 174 255 Q232 214 299 164 Q344 232 366.5 323.5 Q389 415 401 550 Z" /><glyph glyph-name="uni5999" unicode="&#x5999;" d="M53 600 L166 600 Q180 701 187 802 L242 796 Q235 701 221 600 L394 600 L394 547 Q374 285 305 151 L417 54 L380 4 Q334 48 275 100 Q212 6 91 -98 L47 -61 Q165 34 232 137 Q159 200 101 247 Q136 386 159 547 L53 547 L53 600 ZM160 271 L261 188 Q323 311 344 547 L213 547 Q190 390 160 271 ZM886 309 Q804 165 685 69.5 Q566 -26 378 -102 L351 -47 Q537 26 652 118 Q767 210 840 344 L886 309 ZM640 219 L640 800 L696 800 L696 219 L640 219 ZM580 655 Q527 454 455 267 L404 285 Q478 473 529 669 L580 655 ZM909 317 Q830 495 755 654 L801 674 Q878 515 958 341 L909 317 Z" /><glyph glyph-name="uni5A31" unicode="&#x5a31;" d="M363 3 Q311 50 252 102 Q194 8 81 -98 L43 -60 Q154 36 213 137 Q145 197 89 242 Q120 370 143 550 L46 550 L46 603 L150 603 Q163 709 169 795 L219 793 Q214 706 202 603 L365 603 L365 551 Q349 292 277 148 Q340 94 396 46 L363 3 ZM450 742 L870 742 L870 503 L450 503 L450 742 ZM913 348 L682 348 Q680 293 680 257 Q680 241 678 226 L944 226 L944 178 L685 178 Q763 17 957 -40 L934 -92 Q748 -29 657 125 Q602 -18 363 -91 L343 -41 Q588 24 619 178 L377 178 L377 226 L627 226 L629 257 L632 348 L410 348 L410 395 L913 395 L913 348 ZM504 694 L504 550 L817 550 L817 694 L504 694 ZM315 550 L195 550 Q174 384 145 260 L237 183 Q297 313 315 550 Z" /><glyph glyph-name="uni5B54" unicode="&#x5b54;" d="M78 727 L490 727 L490 673 L324 476 L324 370 Q482 406 537 419 L539 363 Q489 353 324 315 L324 41 Q324 -27 297 -49.5 Q270 -72 191 -72 L82 -72 L71 -16 L177 -16 Q236 -16 252 -3.5 Q268 9 268 58 L268 303 L51 253 L44 309 Q104 322 268 358 L268 490 L417 671 L78 671 L78 727 ZM934 214 Q934 163 928 53 Q927 -13 899.5 -37.5 Q872 -62 797 -62 L719 -62 Q650 -62 623 -36 Q596 -10 596 65 L596 787 L653 787 L653 75 Q653 27 669 10.5 Q685 -6 731 -6 L790 -6 Q843 -6 859.5 9 Q876 24 877 72 Q882 183 882 225 L934 214 Z" /><glyph glyph-name="uni5B57" unicode="&#x5b57;" d="M946 192 L535 192 L535 44 Q535 -29 513.5 -51 Q492 -73 418 -73 L282 -73 L271 -19 L399 -19 Q449 -19 463 -4.5 Q477 10 477 59 L477 192 L52 192 L52 246 L477 246 L477 305 L669 434 L211 434 L211 487 L769 487 L769 435 L535 284 L535 246 L946 246 L946 192 ZM105 468 L105 672 L499 672 Q458 751 434 795 L493 810 L565 672 L895 672 L895 467 L837 467 L837 618 L162 618 L162 468 L105 468 Z" /><glyph glyph-name="uni5B58" unicode="&#x5b58;" d="M455 795 Q436 735 414 681 L950 681 L950 630 L392 630 Q341 517 268 420 L268 -100 L213 -100 L213 352 Q147 278 63 206 L36 262 Q221 415 325 630 L60 630 L60 681 L348 681 Q372 739 393 802 L455 795 ZM404 494 L883 494 L883 444 L683 300 L683 248 L956 248 L956 198 L683 198 L683 28 Q683 -33 660 -56 Q637 -79 561 -79 L448 -79 L438 -28 L543 -28 Q596 -28 612 -14 Q628 0 628 40 L628 198 L335 198 L335 248 L628 248 L628 324 L792 444 L404 444 L404 494 Z" /><glyph glyph-name="uni5B66" unicode="&#x5b66;" d="M942 162 L545 162 L545 35 Q545 -31 518 -53 Q491 -75 415 -75 L289 -75 L277 -19 L403 -19 Q455 -19 470.5 -6.5 Q486 6 486 52 L486 162 L58 162 L58 217 L486 217 L486 273 Q518 290 583 327 Q648 364 673 385 L216 385 L216 439 L768 439 L768 388 Q737 363 662.5 319 Q588 275 545 251 L545 217 L942 217 L942 162 ZM510 614 L656 614 Q724 706 777 794 L831 768 Q781 695 724 614 L899 614 L899 430 L843 430 L843 561 L156 561 L156 430 L100 430 L100 614 L268 614 L167 770 L217 794 Q269 720 319 639 L272 614 L510 614 Q468 697 420 783 L470 805 Q515 726 561 638 L510 614 Z" /><glyph glyph-name="uni5B88" unicode="&#x5b88;" d="M727 560 L727 409 L950 409 L950 353 L727 353 L727 54 Q727 -19 697 -45.5 Q667 -72 581 -72 L438 -72 L426 -14 L568 -14 Q631 -14 649.5 3 Q668 20 668 72 L668 353 L53 353 L53 409 L668 409 L668 560 L727 560 ZM114 491 L114 680 L501 680 Q458 758 437 795 L498 812 L569 680 L890 680 L890 493 L833 493 L833 625 L171 625 L171 491 L114 491 ZM393 72 Q292 178 194 274 L233 315 Q336 220 436 116 L393 72 Z" /><glyph glyph-name="uni5B89" unicode="&#x5b89;" d="M884 -92 Q721 -14 545 62 Q401 -35 69 -97 L52 -40 Q348 10 484 89 Q327 155 203 201 Q252 269 299 353 L49 353 L49 406 L328 406 Q375 495 409 574 L467 556 Q436 485 396 406 L952 406 L952 353 L759 353 Q703 196 597 102 Q755 35 915 -40 L884 -92 ZM117 491 L117 671 L511 671 L441 789 L497 809 Q539 742 579 674 L569 671 L889 671 L889 491 L833 491 L833 618 L173 618 L173 491 L117 491 ZM290 225 Q400 184 539 126 Q644 210 694 353 L368 353 Q328 279 290 225 Z" /><glyph glyph-name="uni5B8C" unicode="&#x5b8c;" d="M920 145 Q917 91 913 33 Q910 -26 882.5 -47.5 Q855 -69 784 -69 L696 -69 Q632 -69 605 -44 Q578 -19 578 45 L578 241 L385 241 Q385 225 384 212 Q381 94 317.5 20 Q254 -54 96 -105 L69 -54 Q217 -7 269 53.5 Q321 114 324 216 Q324 225 325 241 L69 241 L69 292 L932 292 L932 241 L634 241 L634 56 Q634 13 651.5 -3 Q669 -19 712 -19 L779 -19 Q829 -19 844.5 -4.5 Q860 10 861 53 Q864 106 866 155 L920 145 ZM100 485 L100 679 L505 679 Q474 733 439 791 L495 809 Q542 732 570 682 L557 679 L898 679 L898 486 L842 486 L842 628 L156 628 L156 485 L100 485 ZM796 437 L202 437 L202 487 L796 487 L796 437 Z" /><glyph glyph-name="uni5B98" unicode="&#x5b98;" d="M764 -101 L764 -43 L256 -43 L256 -106 L199 -106 L199 520 L794 520 L794 302 L256 302 L256 190 L821 190 L821 -101 L764 -101 ZM764 141 L256 141 L256 6 L764 6 L764 141 ZM104 517 L104 687 L486 687 L441 791 L506 808 Q530 757 559 687 L898 687 L898 517 L839 517 L839 636 L164 636 L164 517 L104 517 ZM256 471 L256 352 L736 352 L736 471 L256 471 Z" /><glyph glyph-name="uni5B9A" unicode="&#x5b9a;" d="M279 327 Q272 242 254 175 Q332 27 489 7 L489 426 L107 426 L107 476 L900 476 L900 426 L545 426 L545 248 L863 248 L863 198 L545 198 L545 2 L958 2 L946 -52 L563 -52 Q451 -52 369 -12 Q287 28 235 115 Q193 3 93 -99 L48 -62 Q134 24 173 112.5 Q212 201 223 332 L279 327 ZM109 520 L109 688 L505 688 Q469 751 443 793 L499 807 Q531 756 568 688 L897 688 L897 521 L842 521 L842 638 L165 638 L165 520 L109 520 Z" /><glyph glyph-name="uni5B9B" unicode="&#x5b9b;" d="M926 172 Q926 136 918 51 Q914 -11 885 -32 Q856 -53 782 -53 L652 -53 Q591 -53 564.5 -29 Q538 -5 538 57 L538 490 L841 490 Q841 457 838 273 Q838 218 814 196.5 Q790 175 725 175 L645 175 L636 224 L710 224 Q756 224 771.5 237 Q787 250 787 287 Q789 382 789 440 L591 440 L591 74 Q591 31 607 14.5 Q623 -2 668 -2 L776 -2 Q829 -2 848 12.5 Q867 27 869 72 L876 182 L926 172 ZM307 563 Q292 519 276 477 L484 477 L484 422 Q455 257 373 139 Q291 21 114 -97 L74 -53 Q247 57 326.5 168 Q406 279 435 427 L255 427 Q230 372 200 321 Q264 272 322 226 L292 185 Q237 231 175 281 Q138 224 93 173 L60 211 Q194 371 257 572 L307 563 ZM107 497 L107 685 L500 685 Q467 745 439 792 L495 808 Q533 749 567 686 L562 685 L895 685 L895 506 L839 506 L839 635 L163 635 L163 497 L107 497 Z" /><glyph glyph-name="uni5B9D" unicode="&#x5b9d;" d="M928 -45 L71 -45 L71 10 L466 10 L466 212 L142 212 L142 267 L466 267 L466 423 L112 423 L112 478 L890 478 L890 423 L524 423 L524 267 L858 267 L858 212 L524 212 L524 10 L928 10 L928 -45 ZM106 518 L106 682 L500 682 Q466 739 437 792 L494 810 Q527 754 569 682 L895 682 L895 518 L835 518 L835 630 L163 630 L163 518 L106 518 ZM760 22 Q706 95 655 161 L699 193 Q750 128 804 55 L760 22 Z" /><glyph glyph-name="uni5B9E" unicode="&#x5b9e;" d="M634 574 Q634 522 628 382 Q626 288 607 218 L944 218 L944 167 L589 167 Q577 140 561 118 Q759 37 929 -35 L902 -86 Q714 -2 527 77 Q418 -33 94 -93 L75 -38 Q274 -2 379.5 46 Q485 94 525 167 L56 167 L56 218 L548 218 Q569 288 571 388 Q575 482 577 574 L634 574 ZM105 489 L105 675 L897 675 L897 487 L841 487 L841 625 L161 625 L161 489 L105 489 ZM406 247 Q285 317 165 381 L189 425 Q312 360 431 291 L406 247 ZM478 396 Q363 466 252 527 L276 571 Q385 511 502 444 L478 396 ZM504 679 Q474 735 438 790 L493 814 Q526 760 560 700 L504 679 Z" /><glyph glyph-name="uni5BA4" unicode="&#x5ba4;" d="M847 114 L524 114 L524 -10 L938 -10 L938 -58 L50 -58 L50 -10 L468 -10 L468 114 L142 114 L142 164 L468 164 L468 250 L524 250 L524 164 L847 164 L847 114 ZM833 230 L767 289 Q529 286 139 270 L129 313 Q166 317 205 343 Q288 398 367 470 L147 470 L147 517 L843 517 L843 470 L444 470 Q362 396 265 324 L715 334 Q653 387 610 421 L647 457 L870 268 L833 230 ZM95 545 L95 680 L494 680 Q460 737 431 787 L487 809 Q517 760 561 680 L893 680 L893 545 L837 545 L837 631 L151 631 L151 545 L95 545 Z" /><glyph glyph-name="uni5BB6" unicode="&#x5bb6;" d="M916 -31 Q723 75 637 268 L570 239 Q587 167 587 80 Q587 -8 553.5 -42 Q520 -76 428 -76 L314 -76 L305 -26 L410 -26 Q480 -26 505.5 -2.5 Q531 21 531 86 Q531 136 525 179 Q439 108 316 45 Q193 -18 66 -62 L43 -12 Q340 86 516 225 Q506 262 488 297 Q321 187 80 107 L62 154 Q295 227 467 335 Q449 363 423 393 Q268 312 83 260 L65 308 Q317 378 482 480 L197 480 L197 526 L801 526 L801 480 L565 480 Q520 448 468 418 Q528 351 554 285 Q705 351 842 434 L869 390 Q786 340 684 290 Q727 192 789.5 129 Q852 66 952 13 L916 -31 ZM104 504 L104 688 L495 688 L438 790 L496 812 Q523 764 556 705 L509 688 L896 688 L896 503 L841 503 L841 640 L159 640 L159 504 L104 504 Z" /><glyph glyph-name="uni5BB9" unicode="&#x5bb9;" d="M211 -100 L211 206 L787 206 L787 -100 L731 -100 L731 -48 L267 -48 L267 -100 L211 -100 ZM267 156 L267 2 L731 2 L731 156 L267 156 ZM106 516 L106 686 L493 686 Q466 740 437 791 L491 811 Q520 761 548 707 L503 686 L891 686 L891 514 L835 514 L835 636 L162 636 L162 516 L106 516 ZM933 147 Q660 249 500 405 Q344 252 64 146 L42 196 Q332 300 470 449 L530 449 Q674 296 956 197 L933 147 ZM417 538 Q281 449 124 380 L100 428 Q253 492 391 580 L417 538 ZM881 383 Q724 467 575 540 L599 581 Q748 509 905 427 L881 383 Z" /><glyph glyph-name="uni5BBD" unicode="&#x5bbd;" d="M919 134 Q917 79 914 33 Q911 -26 884 -46.5 Q857 -67 784 -67 L625 -67 Q561 -67 535.5 -47 Q510 -27 510 37 L510 152 Q489 68 393 7.5 Q297 -53 90 -103 L65 -47 Q284 2 370 59 Q456 116 460 202 Q464 232 465 269 L525 269 Q524 232 519 202 Q518 188 515 176 L568 176 L568 49 Q568 9 584 -3 Q600 -15 646 -15 L763 -15 Q819 -15 837 -1.5 Q855 12 857 51 Q861 95 862 146 L919 134 ZM335 394 L335 464 L84 464 L84 514 L335 514 L335 598 L389 598 L389 514 L613 514 L613 598 L667 598 L667 514 L921 514 L921 464 L667 464 L667 394 L613 394 L613 464 L389 464 L389 394 L335 394 ZM190 82 L190 354 L804 354 L804 80 L745 80 L745 304 L249 304 L249 82 L190 82 ZM107 553 L107 696 L493 696 Q469 749 448 792 L504 806 Q525 764 558 696 L894 696 L894 553 L837 553 L837 646 L164 646 L164 553 L107 553 Z" /><glyph glyph-name="uni5BC6" unicode="&#x5bc6;" d="M764 543 Q605 390 366 294 Q378 268 435 268 L605 268 Q656 268 674 284 Q692 300 693 344 Q696 376 698 408 L750 396 Q747 358 744 316 Q741 260 714.5 239 Q688 218 623 218 L416 218 Q370 218 344.5 229.5 Q319 241 310 273 Q201 232 64 196 L45 243 Q190 280 304 322 L304 553 L358 553 L358 344 Q582 435 730 580 L764 543 ZM776 -99 L776 -50 L169 -50 L169 154 L224 154 L224 1 L473 1 L473 183 L527 183 L527 1 L776 1 L776 160 L831 160 L831 -99 L776 -99 ZM110 527 L110 694 L501 694 Q464 755 438 798 L483 825 Q511 781 550 719 L506 694 L895 694 L895 528 L839 528 L839 644 L166 644 L166 527 L110 527 ZM251 511 Q194 418 111 331 L73 367 Q154 447 209 538 L251 511 ZM908 297 Q836 378 756 458 L790 490 Q869 411 945 331 L908 297 ZM545 474 Q476 537 400 598 L430 634 Q506 575 577 512 L545 474 Z" /><glyph glyph-name="uni5BCC" unicode="&#x5bcc;" d="M153 -102 L153 241 L838 241 L838 -102 L782 -102 L782 -53 L210 -53 L210 -102 L153 -102 ZM229 465 L765 465 L765 312 L229 312 L229 465 ZM102 528 L102 695 L486 695 Q453 755 430 792 L486 810 Q516 761 554 695 L890 695 L890 528 L836 528 L836 651 L155 651 L155 528 L102 528 ZM283 425 L283 352 L711 352 L711 425 L283 425 ZM787 534 L206 534 L206 576 L787 576 L787 534 ZM524 73 L524 -10 L782 -10 L782 73 L524 73 ZM210 73 L210 -10 L468 -10 L468 73 L210 73 ZM210 199 L210 116 L468 116 L468 199 L210 199 ZM782 199 L524 199 L524 116 L782 116 L782 199 Z" /><glyph glyph-name="uni5BF9" unicode="&#x5bf9;" d="M431 19 Q369 109 291 218 Q213 76 80 -67 L40 -23 Q177 123 254 268 Q150 412 76 510 L120 540 Q187 453 282 324 Q346 463 372 625 L60 625 L60 681 L428 681 L428 624 Q397 432 320 274 Q409 153 479 55 L431 19 ZM823 797 L823 590 L959 590 L959 534 L823 534 L823 51 Q823 -18 795 -44.5 Q767 -71 688 -71 L565 -71 L553 -15 L676 -15 Q731 -15 748 1.5 Q765 18 765 67 L765 534 L459 534 L459 590 L765 590 L765 797 L823 797 ZM627 189 Q549 310 473 420 L517 448 Q595 338 674 218 L627 189 Z" /><glyph glyph-name="uni5C06" unicode="&#x5c06;" d="M659 782 Q626 737 586 694 L910 694 L910 639 Q832 530 708.5 454.5 Q585 379 386 318 L359 362 Q711 463 848 650 L542 650 Q520 628 494 607 Q561 559 620 516 L584 477 Q522 525 453 574 Q411 542 365 512 L335 554 Q506 664 610 807 L659 782 ZM826 427 L826 290 L955 290 L955 240 L826 240 L826 40 Q826 -28 801.5 -51 Q777 -74 703 -74 L596 -74 L586 -24 L686 -24 Q739 -24 755 -10 Q771 4 771 50 L771 240 L338 240 L338 290 L771 290 L771 427 L826 427 ZM246 -98 L246 276 Q129 183 59 125 L31 176 Q118 241 246 342 L246 792 L299 792 L299 -98 L246 -98 ZM150 386 L54 659 L104 677 Q151 551 201 405 L150 386 ZM577 31 Q500 113 425 188 L463 225 Q539 151 617 70 L577 31 Z" /><glyph glyph-name="uni5C0F" unicode="&#x5c0f;" d="M536 784 L536 63 Q536 -13 507.5 -40.5 Q479 -68 398 -68 L269 -68 L257 -7 L385 -7 Q443 -7 459 11 Q475 29 475 81 L475 784 L536 784 ZM295 597 Q227 323 97 77 L42 102 Q174 350 236 609 L295 597 ZM898 67 Q789 331 667 589 L722 611 Q845 355 957 91 L898 67 Z" /><glyph glyph-name="uni5C16" unicode="&#x5c16;" d="M530 420 Q530 384 529 329 Q529 325 528 321 L919 321 L919 265 L523 265 Q574 146 672.5 79.5 Q771 13 949 -32 L924 -93 Q759 -47 657 18.5 Q555 84 501 187 Q465 98 363 32 Q261 -34 72 -91 L48 -35 Q257 24 351.5 93.5 Q446 163 462 265 L81 265 L81 321 L468 321 Q468 324 469 329 Q470 384 470 420 L530 420 ZM873 426 Q752 545 630 657 L672 700 Q795 588 917 470 L873 426 ZM365 655 Q259 529 126 418 L86 463 Q216 570 321 697 L365 655 ZM470 456 L470 793 L528 793 L528 456 L470 456 Z" /><glyph glyph-name="uni5C31" unicode="&#x5c31;" d="M125 522 L463 522 L463 291 L329 291 L329 34 Q329 -26 308.5 -46 Q288 -66 229 -66 L153 -66 L144 -16 L209 -16 Q252 -16 265 -2.5 Q278 11 278 49 L278 291 L125 291 L125 522 ZM672 801 L669 574 L669 556 L950 556 L950 506 L668 506 Q665 294 619.5 165.5 Q574 37 465 -92 L418 -59 Q526 63 569 183.5 Q612 304 617 506 L506 506 L506 556 L618 556 Q618 565 619 574 L622 801 L672 801 ZM941 184 Q941 132 937 29 Q936 -23 916 -43.5 Q896 -64 848 -64 L809 -64 Q728 -64 730 30 L730 481 L780 481 L780 40 Q780 7 791.5 -3.5 Q803 -14 827 -14 L843 -14 Q873 -14 883.5 -3 Q894 8 894 39 Q897 146 897 192 L941 184 ZM175 478 L175 335 L413 335 L413 478 L175 478 ZM535 629 L63 629 L63 679 L535 679 L535 629 ZM197 215 Q150 81 84 -30 L40 -6 Q106 107 152 233 L197 215 ZM874 604 Q810 675 744 742 L779 773 Q845 707 911 637 L874 604 ZM470 71 Q424 148 385 210 L423 234 Q462 174 509 98 L470 71 ZM296 680 Q272 737 240 792 L290 810 Q322 753 346 698 L296 680 Z" /><glyph glyph-name="uni5C3E" unicode="&#x5c3e;" d="M877 532 L210 532 L210 437 Q210 249 186.5 131.5 Q163 14 102 -100 L46 -79 Q108 36 131 146.5 Q154 257 154 450 L154 740 L877 740 L877 532 ZM857 428 Q727 407 542 388 L542 293 L864 312 L865 268 L542 249 L542 158 L943 182 L945 132 L542 111 L542 51 Q542 11 556.5 -3 Q571 -17 609 -17 L772 -17 Q816 -17 831 -5.5 Q846 6 847 45 L850 105 L901 93 L897 21 Q893 -32 870.5 -49.5 Q848 -67 787 -67 L591 -67 Q535 -67 510.5 -46 Q486 -25 486 38 L486 108 L220 94 L218 139 L486 155 L486 246 L263 234 L261 278 L486 290 L486 383 Q357 370 266 365 L261 409 Q572 429 849 472 L857 428 ZM210 690 L210 582 L820 582 L820 690 L210 690 Z" /><glyph glyph-name="uni5C40" unicode="&#x5c40;" d="M584 -23 L697 -23 Q780 -23 805.5 -1.5 Q831 20 831 77 Q837 216 842 357 L214 357 Q211 218 185 118.5 Q159 19 95 -89 L45 -63 Q118 58 139.5 166.5 Q161 275 161 466 L161 742 L854 742 L854 517 L216 517 L216 408 L898 408 Q893 237 887 65 Q886 -15 850.5 -44.5 Q815 -74 712 -74 L595 -74 L584 -23 ZM311 252 L680 252 L680 23 L311 23 L311 252 ZM216 692 L216 567 L798 567 L798 692 L216 692 ZM364 206 L364 69 L627 69 L627 206 L364 206 Z" /><glyph glyph-name="uni5C42" unicode="&#x5c42;" d="M895 509 L223 509 L223 417 Q223 225 198.5 118 Q174 11 103 -103 L48 -80 Q117 26 142 127.5 Q167 229 167 432 L167 737 L895 737 L895 509 ZM883 -109 L817 -33 Q604 -39 276 -59 L264 -13 Q299 -2 330 24 Q412 93 482 177 L239 177 L239 224 L956 224 L956 177 L551 177 Q477 84 382 0 L776 13 L689 112 L732 142 Q827 39 923 -72 L883 -109 ZM223 690 L223 554 L839 554 L839 690 L223 690 ZM893 344 L291 344 L291 390 L893 390 L893 344 Z" /><glyph glyph-name="uni5C4F" unicode="&#x5c4f;" d="M883 533 L214 533 L214 427 Q214 230 186 110.5 Q158 -9 105 -99 L50 -71 Q106 20 131.5 129 Q157 238 157 439 L157 740 L883 740 L883 533 ZM950 140 L745 140 L745 -100 L689 -100 L689 140 L463 140 Q455 57 418 3 Q381 -51 298 -108 L259 -70 Q336 -15 368.5 28.5 Q401 72 407 140 L227 140 L227 190 L410 190 Q411 211 411 236 L411 340 L255 340 L255 390 L475 390 Q431 449 385 501 L427 529 Q471 478 517 419 L477 390 L637 390 Q688 451 736 522 L782 494 Q743 440 703 390 L919 390 L919 340 L745 340 L745 190 L950 190 L950 140 ZM214 691 L214 583 L826 583 L826 691 L214 691 ZM467 238 Q467 213 466 190 L689 190 L689 340 L467 340 L467 238 Z" /><glyph glyph-name="uni5C55" unicode="&#x5c55;" d="M576 -10 Q488 -37 321 -101 L302 -58 Q322 -47 326 -38 Q330 -29 330 -25 L330 227 L203 227 Q191 56 104 -98 L54 -74 Q117 39 136.5 140 Q156 241 156 446 L156 745 L879 745 L879 544 L209 544 L209 419 Q209 334 206 271 L422 271 L422 386 L248 386 L248 430 L422 430 L422 514 L473 514 L473 430 L682 430 L682 514 L733 514 L733 430 L912 430 L912 386 L733 386 L733 271 L950 271 L950 227 L547 227 Q590 149 658 94 Q757 149 840 205 L870 170 Q789 119 697 67 Q794 4 953 -27 L931 -77 Q606 -7 491 227 L383 227 L383 -28 L570 39 L576 -10 ZM209 701 L209 588 L826 588 L826 701 L209 701 ZM473 386 L473 271 L682 271 L682 386 L473 386 Z" /><glyph glyph-name="uni5C5E" unicode="&#x5c5e;" d="M876 492 Q750 484 594 478 L594 405 L841 405 L841 261 L594 261 L594 195 L878 195 L878 5 Q878 -44 857 -61 Q836 -78 774 -78 L689 -78 L682 -40 L761 -40 Q804 -40 816 -29.5 Q828 -19 828 10 L828 157 L594 157 L594 53 L699 58 L671 110 L707 123 Q740 65 775 -3 L738 -16 L719 21 Q527 11 368 4 L367 44 Q403 44 547 51 L547 157 L313 157 L313 -90 L263 -90 L263 195 L547 195 L547 261 L299 261 L299 405 L547 405 L547 476 Q376 470 252 467 L250 507 Q563 512 874 531 L876 492 ZM874 584 L195 584 L195 450 Q195 260 172.5 146.5 Q150 33 86 -97 L33 -77 Q98 45 120.5 157.5 Q143 270 143 451 L143 747 L874 747 L874 584 ZM195 706 L195 623 L824 623 L824 706 L195 706 ZM792 368 L594 368 L594 298 L792 298 L792 368 ZM349 368 L349 298 L547 298 L547 368 L349 368 Z" /><glyph glyph-name="uni5CF0" unicode="&#x5cf0;" d="M326 -20 L326 47 L76 14 L76 628 L120 628 L120 73 L201 85 L201 787 L247 787 L247 91 L326 103 L326 633 L371 633 L371 -20 L326 -20 ZM930 391 Q770 426 666 484 Q564 427 406 384 L388 430 Q528 463 620 512 Q557 556 512 614 Q471 570 426 532 L396 570 Q524 684 595 815 L641 795 Q620 753 590 710 L867 710 L867 665 Q807 575 714 513 Q809 467 948 441 L930 391 ZM640 -102 L640 27 L400 27 L400 72 L640 72 L640 160 L437 160 L437 203 L640 203 L640 289 L423 289 L423 333 L640 333 L640 420 L690 420 L690 333 L909 333 L909 289 L690 289 L690 203 L894 203 L894 160 L690 160 L690 72 L937 72 L937 27 L690 27 L690 -102 L640 -102 ZM558 667 L546 652 Q592 586 667 539 Q750 593 805 667 L558 667 Z" /><glyph glyph-name="uni5DE5" unicode="&#x5de5;" d="M888 647 L532 647 L532 36 L948 36 L948 -21 L54 -21 L54 36 L470 36 L470 647 L115 647 L115 706 L888 706 L888 647 Z" /><glyph glyph-name="uni5DF2" unicode="&#x5df2;" d="M912 209 Q910 140 904 73 Q900 -7 866.5 -34 Q833 -61 739 -61 L306 -61 Q216 -61 181.5 -29.5 Q147 2 147 93 L147 559 L208 559 L208 414 L771 414 L771 672 L107 672 L107 729 L830 729 L830 358 L208 358 L208 107 Q208 40 231.5 18.5 Q255 -3 325 -3 L721 -3 Q795 -3 819 15 Q843 33 844 93 Q848 157 850 221 L912 209 Z" /><glyph glyph-name="uni5E02" unicode="&#x5e02;" d="M943 616 L527 616 L527 458 L847 458 L847 136 Q847 68 822 44.5 Q797 21 725 21 L616 21 L605 77 L713 77 Q763 77 777 91.5 Q791 106 791 154 L791 403 L527 403 L527 -100 L471 -100 L471 403 L208 403 L208 1 L152 1 L152 458 L471 458 L471 616 L56 616 L56 669 L943 669 L943 616 ZM498 676 Q470 733 438 791 L493 810 Q524 754 554 694 L498 676 Z" /><glyph glyph-name="uni5E03" unicode="&#x5e03;" d="M213 -22 L213 333 Q146 263 58 190 L32 243 Q238 404 338 609 L67 609 L67 664 L365 664 Q395 731 423 809 L477 797 Q452 725 425 664 L954 664 L954 609 L401 609 Q349 499 278 409 L509 409 L509 547 L565 547 L565 409 L861 409 L861 101 Q861 40 836.5 17.5 Q812 -5 749 -5 L648 -5 L637 50 L732 50 Q778 50 791.5 65 Q805 80 805 117 L805 353 L565 353 L565 -100 L509 -100 L509 353 L269 353 L269 -22 L213 -22 Z" /><glyph glyph-name="uni5E08" unicode="&#x5e08;" d="M947 679 L685 679 L685 528 L887 528 L887 146 Q887 88 868.5 70 Q850 52 794 52 L729 52 L718 104 L777 104 Q816 104 826.5 115 Q837 126 837 165 L837 476 L685 476 L685 -99 L635 -99 L635 476 L487 476 L487 41 L437 41 L437 528 L635 528 L635 679 L398 679 L398 730 L947 730 L947 679 ZM330 793 L330 416 Q330 279 314.5 191.5 Q299 104 255.5 36.5 Q212 -31 128 -103 L85 -65 Q168 3 210 63.5 Q252 124 265.5 203.5 Q279 283 279 412 L279 793 L330 793 ZM104 131 L104 728 L153 728 L153 131 L104 131 Z" /><glyph glyph-name="uni5E0C" unicode="&#x5e0c;" d="M462 537 Q442 495 418 456 L948 456 L948 406 L386 406 Q335 331 267 262 L495 262 L495 367 L551 367 L551 262 L843 262 L843 70 Q843 12 819 -8 Q795 -28 733 -28 L638 -28 L628 22 L715 22 Q759 22 773 33.5 Q787 45 787 82 L787 212 L551 212 L551 -100 L495 -100 L495 212 L262 212 L262 -39 L206 -39 L206 203 Q142 146 67 95 L41 143 Q213 256 322 406 L59 406 L59 456 L356 456 Q385 501 409 551 L462 537 ZM852 499 Q726 545 503 620 Q287 551 125 518 L113 567 Q240 593 420 648 Q240 708 152 734 L169 782 Q273 750 503 674 Q692 735 807 789 L829 742 Q732 696 584 647 Q770 585 871 548 L852 499 Z" /><glyph glyph-name="uni5E26" unicode="&#x5e26;" d="M192 -28 L192 277 L474 277 L474 374 L525 374 L525 277 L808 277 L808 88 Q808 29 787 7 Q766 -15 702 -15 L607 -15 L597 35 L684 35 Q726 35 741 48 Q756 61 756 94 L756 228 L525 228 L525 -100 L474 -100 L474 228 L243 228 L243 -28 L192 -28 ZM242 508 L242 620 L57 620 L57 670 L242 670 L242 797 L293 797 L293 670 L474 670 L474 797 L526 797 L526 670 L706 670 L706 797 L758 797 L758 670 L943 670 L943 620 L758 620 L758 508 L706 508 L706 620 L526 620 L526 508 L474 508 L474 620 L293 620 L293 508 L242 508 ZM104 300 L104 464 L897 464 L897 300 L844 300 L844 414 L156 414 L156 300 L104 300 Z" /><glyph glyph-name="uni5E2E" unicode="&#x5e2e;" d="M521 370 L308 370 Q285 281 189 219 L472 219 L472 308 L528 308 L528 219 L834 219 L834 57 Q834 2 810 -17.5 Q786 -37 728 -37 L616 -37 L608 12 L708 12 Q748 12 763 22 Q778 32 778 61 L778 169 L528 169 L528 -107 L472 -107 L472 169 L232 169 L232 -50 L176 -50 L176 210 Q139 187 91 163 L58 205 Q224 279 250 370 L50 370 L50 416 L262 416 Q267 456 268 511 L87 511 L87 556 L268 556 L268 651 L68 651 L68 696 L268 696 L268 790 L324 790 L324 696 L514 696 L514 651 L324 651 L324 556 L496 556 L496 511 L324 511 Q323 458 317 416 L521 416 L521 370 ZM571 281 L571 729 L892 729 L892 680 Q852 613 806 551 Q869 513 888.5 481.5 Q908 450 908 424 Q908 378 880 356.5 Q852 335 772 335 L680 335 L671 382 L753 382 Q817 382 834.5 394.5 Q852 407 852 436 Q852 457 829 484.5 Q806 512 744 544 Q786 600 836 680 L624 680 L624 281 L571 281 Z" /><glyph glyph-name="uni5E45" unicode="&#x5e45;" d="M454 -102 L454 317 L898 317 L898 -102 L848 -102 L848 -45 L504 -45 L504 -102 L454 -102 ZM204 -103 L204 563 L126 563 L126 81 L78 81 L78 614 L204 614 L204 795 L254 795 L254 614 L392 614 L392 157 Q392 117 376.5 104.5 Q361 92 326 92 L286 92 L278 139 L313 139 Q333 139 338.5 146 Q344 153 344 175 L344 563 L254 563 L254 -103 L204 -103 ZM490 597 L861 597 L861 405 L490 405 L490 597 ZM540 553 L540 449 L811 449 L811 553 L540 553 ZM934 684 L423 684 L423 734 L934 734 L934 684 ZM698 116 L698 -1 L848 -1 L848 116 L698 116 ZM504 116 L504 -1 L652 -1 L652 116 L504 116 ZM848 272 L698 272 L698 160 L848 160 L848 272 ZM504 272 L504 160 L652 160 L652 272 L504 272 Z" /><glyph glyph-name="uni5E73" unicode="&#x5e73;" d="M471 -96 L471 229 L50 229 L50 285 L471 285 L471 682 L91 682 L91 738 L909 738 L909 682 L529 682 L529 285 L949 285 L949 229 L529 229 L529 -96 L471 -96 ZM856 582 Q780 471 685 350 L641 381 Q736 501 811 612 L856 582 ZM312 351 Q225 474 143 581 L187 611 Q270 502 358 381 L312 351 Z" /><glyph glyph-name="uni5E74" unicode="&#x5e74;" d="M327 803 Q305 753 278 706 L904 706 L904 653 L560 653 L560 465 L878 465 L878 413 L560 413 L560 199 L941 199 L941 145 L560 145 L560 -87 L505 -87 L505 145 L33 145 L33 199 L193 199 L193 465 L505 465 L505 653 L246 653 Q174 541 72 437 L36 485 Q191 636 271 819 L327 803 ZM249 413 L249 199 L505 199 L505 413 L249 413 Z" /><glyph glyph-name="uni5E76" unicode="&#x5e76;" d="M958 255 L718 255 L718 -99 L661 -99 L661 255 L355 255 Q348 128 302 48.5 Q256 -31 148 -107 L106 -63 Q210 11 252 79 Q294 147 300 255 L43 255 L43 310 L302 310 Q302 340 303 374 L303 558 L83 558 L83 612 L580 612 Q657 715 715 799 L768 769 Q717 700 650 612 L921 612 L921 558 L718 558 L718 310 L958 310 L958 255 ZM359 380 Q359 343 358 310 L661 310 L661 558 L359 558 L359 380 ZM368 617 Q295 709 238 776 L283 807 Q339 742 413 652 L368 617 Z" /><glyph glyph-name="uni5E7F" unicode="&#x5e7f;" d="M948 610 L233 610 L233 432 Q233 246 207.5 136.5 Q182 27 103 -97 L49 -69 Q127 50 152 152 Q177 254 177 426 L177 664 L560 664 L489 795 L545 808 Q580 744 623 664 L948 664 L948 610 Z" /><glyph glyph-name="uni5E84" unicode="&#x5e84;" d="M900 303 L620 303 L620 12 L943 12 L943 -44 L213 -44 L213 12 L560 12 L560 303 L284 303 L284 359 L560 359 L560 570 L620 570 L620 359 L900 359 L900 303 ZM945 612 L218 612 L218 440 Q218 209 194 102.5 Q170 -4 100 -107 L44 -81 Q113 19 136 116 Q159 213 159 434 L159 669 L548 669 Q511 744 485 794 L541 810 Q572 749 612 669 L945 669 L945 612 Z" /><glyph glyph-name="uni5E93" unicode="&#x5e93;" d="M592 -102 L592 58 L242 58 L242 109 L592 109 L592 232 L328 232 L328 282 Q377 361 428 455 L264 455 L264 505 L454 505 Q486 566 508 619 L561 606 Q540 559 512 505 L914 505 L914 455 L486 455 Q436 361 389 282 L592 282 L592 408 L647 408 L647 282 L893 282 L893 232 L647 232 L647 109 L953 109 L953 58 L647 58 L647 -102 L592 -102 ZM951 636 L213 636 L213 390 Q213 207 189.5 107.5 Q166 8 99 -103 L44 -79 Q112 34 134.5 128.5 Q157 223 157 385 L157 685 L544 685 L485 794 L535 818 Q567 765 597 706 L554 685 L951 685 L951 636 Z" /><glyph glyph-name="uni5E94" unicode="&#x5e94;" d="M554 673 L946 673 L946 620 L219 620 L219 396 Q219 223 195.5 117.5 Q172 12 107 -102 L56 -78 Q122 34 143.5 133 Q165 232 165 395 L165 673 L554 673 Q524 731 483 794 L534 823 Q575 761 610 701 L554 673 ZM881 497 Q809 267 714 17 L956 17 L956 -37 L227 -37 L227 17 L656 17 Q753 265 826 510 L881 497 ZM409 107 Q349 307 282 490 L332 505 Q400 320 461 122 L409 107 ZM591 162 Q553 364 512 529 L566 539 Q607 372 646 174 L591 162 Z" /><glyph glyph-name="uni5E95" unicode="&#x5e95;" d="M942 128 Q930 72 911 6 Q883 -71 827 -69 Q799 -69 771.5 -52 Q744 -35 715 9 Q659 86 632 256 L389 256 L389 38 L597 124 L609 77 Q520 38 326 -47 L302 1 Q324 13 328.5 24.5 Q333 36 333 43 L333 511 Q613 521 876 558 L888 508 Q782 492 665 481 Q669 381 678 307 L945 307 L945 256 L685 256 Q709 121 757 47 Q777 16 795.5 4.5 Q814 -7 827 -7 Q836 -8 848 2.5 Q860 13 869 44 Q883 96 892 146 L942 128 ZM951 647 L217 647 L217 402 Q217 226 193 117.5 Q169 9 106 -101 L52 -70 Q117 40 139 138 Q161 236 161 396 L161 700 L537 700 Q507 749 482 794 L538 812 L602 700 L951 700 L951 647 ZM389 461 L389 307 L625 307 Q616 379 612 476 Q486 465 389 461 ZM608 -107 Q543 -49 482 -4 L513 34 Q574 -12 638 -67 L608 -107 Z" /><glyph glyph-name="uni5EA6" unicode="&#x5ea6;" d="M247 248 L823 248 L823 202 Q743 102 614 37 Q736 -7 946 -32 L929 -86 Q693 -51 555 9 Q414 -50 197 -92 L175 -41 Q368 -8 496 39 Q406 92 329 178 L363 203 L247 203 L247 248 ZM761 603 L761 519 L937 519 L937 472 L761 472 L761 327 L380 327 L380 472 L237 472 L237 519 L380 519 L380 603 L434 603 L434 519 L706 519 L706 603 L761 603 ZM940 639 L200 639 L200 384 Q200 197 175 98 Q150 -1 89 -102 L39 -75 Q100 27 122 120.5 Q144 214 144 400 L144 689 L940 689 L940 639 ZM372 203 Q448 113 553 62 Q675 118 747 203 L372 203 ZM434 373 L706 373 L706 472 L434 472 L434 373 ZM529 694 Q504 745 477 793 L528 813 Q557 765 584 714 L529 694 Z" /><glyph glyph-name="uni5EA7" unicode="&#x5ea7;" d="M889 149 L608 149 L608 4 L945 4 L945 -49 L210 -49 L210 4 L555 4 L555 149 L272 149 L272 199 L555 199 L555 607 L608 607 L608 199 L889 199 L889 149 ZM946 636 L207 636 L207 386 Q207 198 185 100.5 Q163 3 101 -100 L47 -71 Q110 32 130 123.5 Q150 215 150 402 L150 690 L536 690 Q512 740 483 789 L534 810 Q565 760 592 708 L552 690 L946 690 L946 636 ZM486 278 Q440 341 373 419 Q335 330 267 252 L227 286 Q343 418 370 579 L420 568 Q408 516 393 469 Q466 388 524 311 L486 278 ZM902 263 Q847 328 770 415 Q736 340 679 267 L637 300 Q740 428 771 580 L821 568 Q808 513 790 463 Q870 372 940 295 L902 263 Z" /><glyph glyph-name="uni5EFA" unicode="&#x5efa;" d="M377 713 L585 713 L585 803 L633 803 L633 713 L854 713 L854 576 L949 576 L949 532 L854 532 L854 394 L633 394 L633 300 L889 300 L889 256 L633 256 L633 164 L926 164 L926 120 L633 120 L633 23 L585 23 L585 120 L320 120 L320 164 L585 164 L585 256 L369 256 L369 300 L585 300 L585 394 L376 394 L376 438 L585 438 L585 532 L337 532 L337 576 L585 576 L585 670 L377 670 L377 713 ZM57 718 L316 718 L316 670 L146 444 L313 444 L313 400 Q288 223 221 102 Q278 35 355 12 Q432 -11 535 -11 L948 -11 L940 -57 L535 -57 Q429 -57 345.5 -31.5 Q262 -6 198 62 Q149 -14 70 -95 L32 -54 Q115 23 164 104 Q109 182 68 317 L110 330 Q146 216 189 147 Q241 253 263 397 L84 397 L84 443 L254 671 L57 671 L57 718 ZM806 670 L633 670 L633 576 L806 576 L806 670 ZM633 438 L806 438 L806 532 L633 532 L633 438 Z" /><glyph glyph-name="uni5F00" unicode="&#x5f00;" d="M660 -99 L660 315 L349 315 Q344 172 296 81 Q248 -10 127 -110 L83 -68 Q199 23 243.5 105.5 Q288 188 292 315 L44 315 L44 370 L294 370 L294 667 L86 667 L86 722 L910 722 L910 667 L717 667 L717 370 L954 370 L954 315 L717 315 L717 -99 L660 -99 ZM351 370 L660 370 L660 667 L351 667 L351 370 Z" /><glyph glyph-name="uni5F0F" unicode="&#x5f0f;" d="M940 565 L624 565 Q649 173 732 42 Q752 10 771 -0.5 Q790 -11 803 -9 Q816 -10 831 5.5 Q846 21 856 69 Q867 125 877 187 L927 171 Q918 106 902 39 Q885 -29 859.5 -52.5 Q834 -76 803 -76 Q771 -76 740 -54.5 Q709 -33 676 24 Q593 164 566 565 L50 565 L50 620 L564 620 L559 803 L617 803 Q617 751 621 620 L940 620 L940 565 ZM558 45 Q308 14 54 -22 L48 34 Q95 39 272 62 L272 338 L82 338 L82 392 L518 392 L518 338 L330 338 L330 69 Q508 93 558 101 L558 45 ZM837 634 Q771 696 704 753 L738 790 Q803 735 872 673 L837 634 Z" /><glyph glyph-name="uni5F15" unicode="&#x5f15;" d="M169 -6 L347 -6 Q421 -6 447.5 11.5 Q474 29 475 83 Q482 171 485 254 L126 254 L148 520 L490 520 L490 684 L114 684 L114 738 L550 738 L550 468 L204 468 L189 308 L547 308 Q542 202 533 68 Q531 -8 496 -34.5 Q461 -61 363 -61 L179 -61 L169 -6 ZM781 -96 L781 787 L841 787 L841 -96 L781 -96 Z" /><glyph glyph-name="uni5F3A" unicode="&#x5f3a;" d="M433 737 L844 737 L844 511 L665 511 L665 398 L881 398 L881 167 L665 167 L665 11 Q774 16 839 20 Q812 75 792 112 L836 132 Q896 22 949 -86 L902 -106 L863 -26 L329 -57 L327 -5 L611 8 L611 167 L396 167 L396 398 L611 398 L611 511 L433 511 L433 737 ZM62 731 L312 731 L312 464 L153 464 L140 298 L305 298 L289 31 Q287 -28 260.5 -48 Q234 -68 172 -68 L70 -68 L59 -17 L168 -17 Q214 -17 226 -2 Q238 13 239 55 Q245 155 249 248 L84 248 L105 514 L258 514 L258 679 L62 679 L62 731 ZM484 693 L484 555 L793 555 L793 693 L484 693 ZM831 354 L665 354 L665 211 L831 211 L831 354 ZM447 354 L447 211 L611 211 L611 354 L447 354 Z" /><glyph glyph-name="uni5F55" unicode="&#x5f55;" d="M922 -38 Q774 22 680.5 89.5 Q587 157 527 254 L527 29 Q527 -32 501 -53.5 Q475 -75 403 -75 L293 -75 L282 -22 L383 -22 Q438 -22 455 -8 Q472 6 472 49 L472 379 L59 379 L59 428 L748 428 L748 538 L164 538 L164 586 L748 586 L748 697 L137 697 L137 746 L804 746 L804 428 L953 428 L953 379 L527 379 L527 353 Q567 268 629 203 Q749 281 840 354 L878 310 Q785 241 669 165 Q769 80 948 13 L922 -38 ZM449 180 L83 -29 L53 21 Q239 120 422 226 L449 180 ZM296 193 Q217 256 133 317 L164 357 Q246 299 330 235 L296 193 Z" /><glyph glyph-name="uni5F62" unicode="&#x5f62;" d="M603 343 L457 343 L457 -90 L405 -90 L405 343 L235 343 Q234 186 206 97 Q178 8 102 -94 L52 -65 Q128 30 155.5 111.5 Q183 193 183 343 L47 343 L47 395 L184 395 L184 673 L79 673 L79 725 L568 725 L568 673 L457 673 L457 395 L603 395 L603 343 ZM236 395 L405 395 L405 673 L236 673 L236 395 ZM937 224 Q872 148 775.5 65.5 Q679 -17 545 -90 L511 -43 Q642 26 737.5 106.5 Q833 187 899 262 L937 224 ZM902 477 Q768 332 587 216 L555 261 Q730 372 863 515 L902 477 ZM881 743 Q753 606 588 503 L557 548 Q714 644 843 781 L881 743 Z" /><glyph glyph-name="uni5F69" unicode="&#x5f69;" d="M294 -102 L294 224 Q212 79 68 -23 L39 26 Q198 133 275 291 L64 291 L64 341 L294 341 L294 441 L346 441 L346 341 L569 341 L569 291 L346 291 L346 -102 L294 -102 ZM952 231 Q780 29 508 -96 L482 -47 Q743 65 910 261 L952 231 ZM565 709 Q321 669 76 655 L70 708 Q318 718 557 760 L565 709 ZM920 497 Q785 330 586 213 L556 261 Q747 368 880 527 L920 497 ZM893 746 Q757 584 581 482 L551 527 Q720 620 852 776 L893 746 ZM532 34 Q444 119 354 199 L389 237 Q480 156 570 74 L532 34 ZM556 627 Q510 527 454 423 L409 442 Q466 543 510 645 L556 627 ZM172 436 Q131 522 84 607 L128 630 Q176 544 216 460 L172 436 ZM334 467 Q300 544 261 625 L305 643 Q345 562 379 486 L334 467 Z" /><glyph glyph-name="uni5F71" unicode="&#x5f71;" d="M115 746 L556 746 L556 484 L115 484 L115 746 ZM126 294 L542 294 L542 133 L370 133 L370 13 Q370 -38 350 -57 Q330 -76 266 -76 L187 -76 L176 -26 L251 -26 Q295 -26 307.5 -15 Q320 -4 320 31 L320 133 L126 133 L126 294 ZM626 359 L43 359 L43 401 L326 401 Q310 431 293 457 L341 473 Q359 440 381 401 L626 401 L626 359 ZM176 255 L176 172 L492 172 L492 255 L176 255 ZM953 239 Q830 54 598 -102 L567 -56 Q683 17 766.5 98.5 Q850 180 911 267 L953 239 ZM165 525 L506 525 L506 596 L165 596 L165 525 ZM165 705 L165 636 L506 636 L506 705 L165 705 ZM918 485 Q796 334 624 213 L590 258 Q758 371 877 516 L918 485 ZM903 745 Q774 598 626 494 L595 540 Q735 635 862 777 L903 745 ZM230 84 Q160 -3 71 -76 L37 -39 Q123 28 194 114 L230 84 ZM552 -41 Q499 24 434 84 L467 113 Q527 57 587 -10 L552 -41 Z" /><glyph glyph-name="uni5F88" unicode="&#x5f88;" d="M651 12 Q565 -19 383 -94 L359 -43 Q386 -35 391.5 -25.5 Q397 -16 397 0 L397 739 L860 739 L860 331 L607 331 Q640 233 690 165 Q785 223 877 292 L908 252 Q819 188 721 128 Q801 44 955 -17 L925 -63 Q772 1 685.5 92 Q599 183 553 331 L451 331 L451 -7 L643 67 L651 12 ZM451 690 L451 558 L807 558 L807 690 L451 690 ZM451 379 L807 379 L807 509 L451 509 L451 379 ZM329 533 Q288 462 228 384 L228 -94 L175 -94 L175 318 Q115 249 56 197 L32 251 Q100 309 170.5 397 Q241 485 285 563 L329 533 ZM319 754 Q225 620 80 497 L49 543 Q185 659 274 784 L319 754 Z" /><glyph glyph-name="uni5F97" unicode="&#x5f97;" d="M405 745 L863 745 L863 439 L405 439 L405 745 ZM554 -7 Q477 62 398 124 L433 160 L306 160 L306 208 L762 208 L762 303 L346 303 L346 351 L938 351 L938 303 L816 303 L816 208 L958 208 L958 160 L816 160 L816 26 Q816 -35 792.5 -55 Q769 -75 702 -75 L605 -75 L594 -22 L684 -22 Q734 -22 748 -8.5 Q762 5 762 46 L762 160 L437 160 Q515 98 592 33 L554 -7 ZM181 -95 L181 318 Q120 245 58 191 L37 247 Q181 381 281 556 L327 530 Q291 461 234 385 L234 -95 L181 -95 ZM461 701 L461 614 L807 614 L807 701 L461 701 ZM461 483 L807 483 L807 570 L461 570 L461 483 ZM327 761 Q234 624 85 504 L55 553 Q197 665 281 791 L327 761 Z" /><glyph glyph-name="uni5FAE" unicode="&#x5fae;" d="M779 785 Q764 698 737 615 L959 615 L959 565 L901 565 Q884 314 804 160 Q868 48 967 -48 L929 -92 Q835 6 775 107 Q710 5 599 -100 L561 -62 Q683 45 747 159 Q689 278 670 443 Q653 410 636 380 L606 428 Q697 599 730 791 L779 785 ZM484 12 Q498 24 501 35 Q504 46 504 53 L504 205 L373 205 L373 149 Q373 75 354 25 Q335 -25 279 -87 L235 -61 Q289 -7 306.5 38 Q324 83 324 159 L324 253 L552 253 L552 68 L637 137 L650 94 Q608 63 516 -21 L484 12 ZM265 522 Q237 462 199 398 L199 -96 L149 -96 L149 321 Q103 254 56 202 L33 255 Q143 381 221 546 L265 522 ZM600 721 L600 505 L302 505 L302 721 L346 721 L346 551 L429 551 L429 797 L473 797 L473 551 L556 551 L556 721 L600 721 ZM721 565 Q713 543 704 522 Q718 342 776 216 Q840 358 855 565 L721 565 ZM606 355 L264 355 L264 403 L606 403 L606 355 ZM275 752 Q200 621 89 495 L51 531 Q159 651 231 779 L275 752 Z" /><glyph glyph-name="uni5FC3" unicode="&#x5fc3;" d="M753 223 L745 65 Q743 -5 709 -31.5 Q675 -58 592 -58 L446 -58 Q367 -58 335 -30 Q303 -2 303 78 L303 598 L364 598 L364 89 Q364 37 383.5 19 Q403 1 458 1 L580 1 Q642 1 663.5 18.5 Q685 36 687 86 Q691 205 691 235 L753 223 ZM224 496 Q178 296 104 106 L48 124 Q117 306 164 508 L224 496 ZM903 129 Q818 326 735 501 L789 524 Q873 348 959 153 L903 129 ZM605 464 Q500 614 389 757 L434 791 Q548 650 655 501 L605 464 Z" /><glyph glyph-name="uni5FC5" unicode="&#x5fc5;" d="M818 695 Q661 343 367 128 L367 81 Q367 30 387.5 11 Q408 -8 463 -8 L601 -8 Q666 -8 688.5 10.5 Q711 29 712 83 Q715 140 718 209 L774 197 Q771 121 767 60 Q764 -10 729.5 -36 Q695 -62 607 -62 L447 -62 Q371 -62 341 -34 Q311 -6 311 67 L311 88 Q204 15 71 -55 L40 -5 Q194 73 311 157 L311 623 L367 623 L367 199 Q623 399 766 719 L818 695 ZM204 527 Q162 341 97 172 L43 187 Q109 357 148 539 L204 527 ZM902 162 Q832 320 751 473 L801 496 Q881 343 955 186 L902 162 ZM561 550 Q461 656 358 758 L396 796 Q500 697 603 593 L561 550 Z" /><glyph glyph-name="uni5FCD" unicode="&#x5fcd;" d="M541 371 L672 371 Q734 371 756.5 387.5 Q779 404 783 450 Q795 562 806 673 L523 673 Q512 550 472 472 Q432 394 338.5 340 Q245 286 74 236 L48 286 Q209 330 296 377.5 Q383 425 419.5 494 Q456 563 466 673 L115 673 L115 727 L866 727 L839 433 Q834 367 800.5 341.5 Q767 316 684 316 L552 316 L541 371 ZM727 128 Q724 77 718 23 Q714 -30 688.5 -49.5 Q663 -69 595 -69 L413 -69 Q354 -69 329 -45.5 Q304 -22 304 33 L304 247 L359 247 L359 52 Q359 12 374.5 -3 Q390 -18 430 -18 L589 -18 Q635 -18 651.5 -4.5 Q668 9 669 46 Q672 90 674 138 L727 128 ZM897 -31 Q829 98 758 216 L805 242 Q878 123 947 -4 L897 -31 ZM222 197 Q172 70 105 -45 L55 -18 Q122 90 172 216 L222 197 ZM305 603 Q233 506 142 420 L106 459 Q194 540 267 635 L305 603 ZM570 103 Q513 192 446 274 L490 304 Q552 224 614 136 L570 103 Z" /><glyph glyph-name="uni5FD7" unicode="&#x5fd7;" d="M891 366 L109 366 L109 421 L470 421 L470 597 L70 597 L70 651 L470 651 L470 797 L529 797 L529 651 L929 651 L929 597 L529 597 L529 421 L891 421 L891 366 ZM726 152 Q726 116 722 33 Q721 -22 692.5 -43 Q664 -64 596 -64 L410 -64 Q351 -64 325.5 -39 Q300 -14 300 44 L300 277 L356 277 L356 63 Q356 20 372.5 4.5 Q389 -11 428 -11 L589 -11 Q635 -11 652 3 Q669 17 670 56 L674 164 L726 152 ZM895 -16 Q823 122 747 248 L796 274 Q873 147 945 13 L895 -16 ZM214 239 Q164 93 99 -32 L48 -8 Q114 110 162 257 L214 239 ZM571 118 Q514 212 453 299 L499 328 Q558 242 617 149 L571 118 Z" /><glyph glyph-name="uni5FD8" unicode="&#x5fd8;" d="M869 345 L190 345 L190 615 L55 615 L55 670 L502 670 L433 793 L487 815 Q529 742 568 670 L945 670 L945 615 L251 615 L251 399 L869 399 L869 345 ZM725 134 Q724 83 719 28 Q716 -25 689.5 -46 Q663 -67 593 -67 L398 -67 Q340 -67 320 -43.5 Q300 -20 300 38 L300 261 L358 261 L358 60 Q358 18 368 2.5 Q378 -13 417 -13 L587 -13 Q633 -13 650 0.5 Q667 14 668 51 Q673 109 673 146 L725 134 ZM903 -22 Q823 111 740 233 L784 260 Q870 136 950 8 L903 -22 ZM224 234 Q171 93 98 -34 L48 -6 Q121 115 173 253 L224 234 ZM571 110 Q507 201 442 285 L482 313 Q548 231 615 140 L571 110 Z" /><glyph glyph-name="uni5FEB" unicode="&#x5feb;" d="M637 797 Q637 755 636 631 L853 631 L853 336 L959 336 L959 282 L647 282 Q679 172 754 92 Q829 12 958 -43 L930 -93 Q691 13 615 222 Q587 129 512.5 52.5 Q438 -24 309 -99 L279 -50 Q412 23 484.5 101.5 Q557 180 575 282 L325 282 L325 336 L581 336 Q581 351 582 367 L582 577 L395 577 L395 631 L582 631 Q582 742 583 797 L637 797 ZM186 -98 L186 797 L240 797 L240 -98 L186 -98 ZM799 577 L636 577 Q636 445 635 370 Q635 352 634 336 L799 336 L799 577 ZM140 634 Q118 441 89 273 L36 280 Q69 445 89 639 L140 634 ZM367 431 Q310 519 250 603 L290 634 Q349 555 410 463 L367 431 Z" /><glyph glyph-name="uni6000" unicode="&#x6000;" d="M946 661 L716 661 Q679 559 628 468 L666 468 L666 -96 L610 -96 L610 435 Q504 255 344 110 L301 153 Q541 365 654 661 L375 661 L375 717 L946 717 L946 661 ZM199 -97 L199 798 L255 798 L255 -97 L199 -97 ZM919 134 Q802 279 677 413 L718 448 Q843 316 961 177 L919 134 ZM149 632 Q127 435 96 270 L40 280 Q76 444 96 638 L149 632 ZM387 419 Q331 514 271 601 L316 631 L434 451 L387 419 Z" /><glyph glyph-name="uni6001" unicode="&#x6001;" d="M528 798 Q524 732 513 674 Q513 671 512 670 L927 670 L927 618 L539 618 Q651 433 960 349 L936 293 Q613 390 491 594 Q466 526 407 467 Q491 404 552 353 L516 315 Q450 371 368 432 Q271 357 71 287 L44 343 Q235 403 323 469.5 Q411 536 438 618 L74 618 L74 670 L453 670 Q453 672 454 674 Q465 732 469 798 L528 798 ZM723 133 Q721 81 715 27 Q711 -27 686 -46 Q661 -65 592 -65 L406 -65 Q347 -65 322.5 -41.5 Q298 -18 298 38 L298 276 L354 276 L354 56 Q354 16 369 0.5 Q384 -15 424 -15 L585 -15 Q631 -15 647.5 -1.5 Q664 12 666 49 Q669 95 671 145 L723 133 ZM901 -17 Q822 117 738 239 L782 267 Q869 142 951 12 L901 -17 ZM219 236 Q166 92 97 -29 L47 -4 Q117 113 169 254 L219 236 ZM574 105 Q515 191 456 267 L497 295 Q557 220 618 135 L574 105 Z" /><glyph glyph-name="uni601D" unicode="&#x601d;" d="M169 742 L831 742 L831 316 L169 316 L169 742 ZM728 144 Q724 88 719 28 Q716 -24 689 -43.5 Q662 -63 594 -63 L410 -63 Q352 -63 326 -39 Q300 -15 300 36 L300 247 L354 247 L354 56 Q354 -14 428 -12 L588 -12 Q634 -12 651 3 Q668 18 670 52 Q674 99 676 154 L728 144 ZM225 692 L225 554 L474 554 L474 692 L225 692 ZM775 692 L527 692 L527 554 L775 554 L775 692 ZM225 504 L225 367 L474 367 L474 504 L225 504 ZM527 367 L775 367 L775 504 L527 504 L527 367 ZM897 -25 Q831 99 762 211 L810 235 Q880 123 947 2 L897 -25 ZM218 211 Q172 81 105 -38 L55 -16 Q122 95 166 226 L218 211 ZM570 97 Q510 181 452 258 L496 287 Q554 212 615 127 L570 97 Z" /><glyph glyph-name="uni6027" unicode="&#x6027;" d="M913 259 L695 259 L695 15 L955 15 L955 -41 L345 -41 L345 15 L639 15 L639 259 L399 259 L399 314 L639 314 L639 533 L468 533 Q444 443 411 358 L356 376 Q425 550 456 745 L511 739 Q500 660 482 589 L639 589 L639 795 L695 795 L695 589 L937 589 L937 533 L695 533 L695 314 L913 314 L913 259 ZM197 -96 L197 799 L252 799 L252 -96 L197 -96 ZM153 632 Q129 436 99 271 L45 281 Q78 445 98 638 L153 632 ZM363 483 Q312 547 259 607 L298 641 Q348 585 401 519 L363 483 Z" /><glyph glyph-name="uni603B" unicode="&#x603b;" d="M730 773 Q689 714 633 643 L827 643 L827 314 L163 314 L163 643 L563 643 Q628 724 680 802 L730 773 ZM220 590 L220 365 L771 365 L771 590 L220 590 ZM720 134 Q717 83 712 28 Q708 -26 680 -46 Q652 -66 590 -66 L402 -66 Q341 -66 316.5 -42.5 Q292 -19 292 45 L292 237 L348 237 L348 57 Q348 17 363.5 1 Q379 -15 421 -15 L578 -15 Q625 -15 642 -1.5 Q659 12 660 51 Q663 96 665 146 L720 134 ZM212 223 Q162 82 93 -42 L43 -17 Q112 103 160 239 L212 223 ZM893 -24 Q829 97 755 217 L800 244 Q875 123 943 1 L893 -24 ZM557 101 Q496 183 437 256 L480 285 Q539 213 601 131 L557 101 ZM352 646 Q307 711 257 775 L301 805 Q352 740 399 677 L352 646 Z" /><glyph glyph-name="uni606F" unicode="&#x606f;" d="M164 699 L403 699 Q424 755 439 803 L503 791 Q490 750 470 699 L812 699 L812 246 L164 246 L164 699 ZM218 292 L758 292 L758 383 L218 383 L218 292 ZM218 653 L218 563 L758 563 L758 653 L218 653 ZM218 517 L218 429 L758 429 L758 517 L218 517 ZM716 119 Q713 74 706 23 Q702 -29 676 -48 Q650 -67 588 -67 L395 -67 Q336 -67 311.5 -44.5 Q287 -22 287 42 L287 193 L343 193 L343 53 Q343 13 359 -2 Q375 -17 415 -17 L576 -17 Q621 -17 638 -4 Q655 9 656 44 Q659 87 661 132 L716 119 ZM202 177 Q156 48 90 -64 L42 -39 Q107 70 152 194 L202 177 ZM890 -48 Q825 65 750 174 L794 200 Q869 90 938 -21 L890 -48 ZM553 60 Q499 136 441 208 L483 238 Q542 165 597 91 L553 60 Z" /><glyph glyph-name="uni60A8" unicode="&#x60a8;" d="M786 535 L852 645 L446 645 Q399 572 341 506 L298 536 Q417 670 475 806 L524 792 Q504 744 476 695 L913 695 L913 647 L837 519 L786 535 ZM305 785 Q272 704 226 628 L226 238 L173 238 L173 550 Q124 483 62 421 L40 477 Q181 627 251 799 L305 785 ZM727 120 Q723 70 718 19 Q715 -36 687.5 -53.5 Q660 -71 601 -71 L407 -71 Q349 -71 324.5 -49.5 Q300 -28 300 36 L300 212 L354 212 L354 50 Q354 8 369.5 -6.5 Q385 -21 425 -21 L590 -21 Q634 -21 651.5 -8.5 Q669 4 670 41 Q672 85 675 133 L727 120 ZM658 583 L658 348 Q658 297 633.5 277.5 Q609 258 550 258 L468 258 L456 308 L534 308 Q575 308 590 320.5 Q605 333 605 367 L605 583 L658 583 ZM902 -40 Q831 78 753 192 L797 219 Q876 108 950 -10 L902 -40 ZM488 495 Q420 369 324 264 L280 293 Q376 396 442 518 L488 495 ZM897 265 L736 483 L776 512 Q854 411 941 295 L897 265 ZM211 177 Q165 55 97 -57 L47 -33 Q116 81 161 195 L211 177 ZM561 70 Q508 137 457 197 L495 227 L602 103 L561 70 Z" /><glyph glyph-name="uni60C5" unicode="&#x60c5;" d="M391 -90 L391 341 L857 341 L857 10 Q857 -40 836 -58.5 Q815 -77 759 -77 L657 -77 L649 -36 L740 -36 Q781 -36 793.5 -24.5 Q806 -13 806 18 L806 63 L441 63 L441 -90 L391 -90 ZM898 541 L650 541 L650 461 L955 461 L955 421 L313 421 L313 461 L599 461 L599 541 L377 541 L377 580 L599 580 L599 658 L347 658 L347 699 L599 699 L599 795 L650 795 L650 699 L922 699 L922 658 L650 658 L650 580 L898 580 L898 541 ZM333 486 Q286 550 238 608 L238 -95 L187 -95 L187 791 L238 791 L238 618 L270 644 Q318 587 371 517 L333 486 ZM441 299 L441 222 L806 222 L806 299 L441 299 ZM441 181 L441 104 L806 104 L806 181 L441 181 ZM133 628 Q114 450 85 277 L35 284 Q67 453 84 632 L133 628 Z" /><glyph glyph-name="uni60F3" unicode="&#x60f3;" d="M448 737 L869 737 L869 263 L448 263 L448 737 ZM217 229 L217 507 Q157 400 60 309 L36 359 Q156 469 215 607 L67 607 L67 657 L217 657 L217 794 L272 794 L272 657 L407 657 L407 607 L272 607 L272 508 L292 532 Q355 479 416 422 L385 384 Q329 437 272 488 L272 229 L217 229 ZM728 116 Q724 67 719 14 Q716 -38 693 -56.5 Q670 -75 602 -75 L410 -75 Q350 -75 325.5 -53 Q301 -31 301 21 L301 201 L357 201 L357 41 Q357 2 371.5 -11.5 Q386 -25 427 -25 L588 -25 Q635 -25 650 -12 Q665 1 667 38 L673 128 L728 116 ZM503 307 L813 307 L813 408 L503 408 L503 307 ZM503 693 L503 593 L813 593 L813 693 L503 693 ZM503 550 L503 452 L813 452 L813 550 L503 550 ZM897 -47 Q831 71 760 176 L806 202 Q880 96 946 -18 L897 -47 ZM223 180 Q176 53 110 -55 L61 -31 Q128 78 172 198 L223 180 ZM566 63 Q510 139 452 212 L494 242 L610 95 L566 63 Z" /><glyph glyph-name="uni610F" unicode="&#x610f;" d="M563 33 Q506 95 445 153 L478 183 L181 183 L181 444 L815 444 L815 183 L483 183 Q543 126 601 68 L563 33 ZM947 524 L53 524 L53 566 L345 566 Q315 604 283 645 L328 672 Q367 625 396 587 L359 566 L592 566 Q638 621 673 672 L720 647 Q698 614 659 566 L947 566 L947 524 ZM894 673 L105 673 L105 715 L491 715 Q466 758 443 794 L499 812 Q528 767 556 715 L894 715 L894 673 ZM237 222 L760 222 L760 295 L237 295 L237 222 ZM237 406 L237 334 L760 334 L760 406 L237 406 ZM725 95 Q722 62 716 10 Q713 -36 688 -52.5 Q663 -69 603 -69 L401 -69 Q344 -69 321 -49.5 Q298 -30 298 25 L298 143 L354 143 L354 31 Q354 -2 368.5 -15 Q383 -28 420 -28 L591 -28 Q635 -28 650.5 -16.5 Q666 -5 667 25 Q670 71 671 108 L725 95 ZM228 131 Q176 28 102 -63 L58 -33 Q129 56 178 152 L228 131 ZM901 -60 Q838 35 768 129 L813 155 Q882 64 946 -31 L901 -60 Z" /><glyph glyph-name="uni611F" unicode="&#x611f;" d="M943 392 Q937 349 927 303 Q913 245 887.5 220 Q862 195 832 195 Q804 195 776.5 210 Q749 225 716 265 Q699 286 684 311 Q629 257 564 212 L532 255 Q602 302 659 359 Q615 458 588 624 L201 624 L201 527 Q201 403 176.5 322 Q152 241 86 154 L36 183 Q102 267 124.5 340 Q147 413 147 544 L147 674 L582 674 Q572 742 567 799 L622 799 Q626 746 636 674 L806 674 Q761 729 715 776 L749 803 Q797 754 844 701 L810 674 L934 674 L934 624 L643 624 Q665 487 699 401 Q773 485 824 588 L869 566 Q808 446 723 350 Q740 318 762 292 Q806 246 832 253 Q845 255 861 271 Q877 287 885 323 Q893 360 898 404 L943 392 ZM270 415 L525 415 L525 237 L270 237 L270 415 ZM715 110 Q711 65 706 16 Q703 -32 676 -49.5 Q649 -67 581 -67 L397 -67 Q337 -67 312.5 -46.5 Q288 -26 288 23 L288 171 L341 171 L341 42 Q341 7 357 -5.5 Q373 -18 413 -18 L575 -18 Q622 -18 638.5 -6.5 Q655 5 657 38 Q661 70 664 122 L715 110 ZM315 377 L315 275 L480 275 L480 377 L315 377 ZM567 492 L241 492 L241 533 L567 533 L567 492 ZM206 144 Q159 34 92 -62 L42 -35 Q110 58 156 162 L206 144 ZM886 -47 Q824 52 758 142 L802 168 Q869 80 934 -18 L886 -47 ZM557 54 Q500 119 439 178 L475 211 Q534 155 595 92 L557 54 Z" /><glyph glyph-name="uni620F" unicode="&#x620f;" d="M957 521 L615 480 Q632 318 660 213 Q771 317 847 449 L891 420 Q801 267 677 156 Q700 92 730 45 Q754 9 774 -4.5 Q794 -18 813 -18 Q833 -18 847 -0.5 Q861 17 871 61 Q886 123 895 183 L945 163 Q934 93 916 31 Q901 -26 874.5 -53 Q848 -80 813 -80 Q778 -80 746.5 -58.5 Q715 -37 679 20 Q652 62 631 116 Q529 34 399 -34 L371 14 Q508 85 613 172 Q579 286 560 473 L411 456 L405 512 L554 529 L549 601 Q543 720 541 796 L598 796 Q599 740 606 596 L610 536 L951 576 L957 521 ZM363 56 Q325 123 268 216 Q193 65 78 -62 L40 -14 Q158 113 233 272 Q149 406 79 508 L123 537 Q184 448 258 331 Q314 467 340 626 L65 626 L65 682 L396 682 L396 626 Q364 432 295 274 Q365 163 409 87 L363 56 ZM830 592 Q756 668 677 737 L709 773 Q787 708 867 630 L830 592 Z" /><glyph glyph-name="uni6210" unicode="&#x6210;" d="M953 168 Q942 109 927 42 Q910 -28 882.5 -52.5 Q855 -77 820 -75 Q787 -75 758.5 -51 Q730 -27 694 29 Q673 61 656 101 Q580 19 470 -61 L432 -19 Q556 68 634 156 Q579 313 554 579 L202 579 L202 418 L454 418 Q454 364 440 130 Q436 66 407.5 39.5 Q379 13 301 13 L232 13 L221 68 L289 68 Q348 68 365.5 83.5 Q383 99 385 144 Q388 176 392.5 260.5 Q397 345 397 364 L202 364 Q201 210 176 107 Q151 4 90 -96 L34 -72 Q98 26 122 121.5 Q146 217 146 386 L146 634 L549 634 Q540 738 536 802 L592 802 Q594 750 604 634 L937 634 L937 579 L609 579 Q631 349 675 205 Q769 331 823 501 L873 482 Q809 289 695 146 Q718 89 746 47 Q770 12 788.5 -0.5 Q807 -13 820 -13 Q839 -16 854 0.5 Q869 17 880 67 Q892 116 903 183 L953 168 ZM805 650 Q746 714 684 768 L722 804 Q785 746 844 685 L805 650 Z" /><glyph glyph-name="uni6216" unicode="&#x6216;" d="M942 175 Q931 108 916 36 Q902 -32 874 -57.5 Q846 -83 811 -83 Q741 -83 687 21 Q669 54 653 97 Q570 10 451 -69 L415 -25 Q552 66 634 156 Q592 298 572 584 L61 584 L61 637 L569 637 Q564 736 561 798 L620 798 Q621 752 627 637 L946 637 L946 584 L631 584 Q648 344 679 211 Q763 326 822 510 L875 492 Q805 281 696 146 Q716 83 738 43 Q759 8 778 -4.5 Q797 -17 811 -17 Q829 -20 843.5 -1.5 Q858 17 868 66 Q881 125 891 193 L942 175 ZM140 467 L448 467 L448 191 L140 191 L140 467 ZM191 415 L191 242 L396 242 L396 415 L191 415 ZM492 48 Q259 13 55 -18 L50 38 Q257 67 488 104 L492 48 ZM816 646 Q753 715 701 770 L739 800 Q791 750 854 679 L816 646 Z" /><glyph glyph-name="uni6218" unicode="&#x6218;" d="M100 -84 L100 361 L219 361 L219 788 L272 788 L272 620 L491 620 L491 573 L272 573 L272 361 L420 361 L420 -11 L153 -11 L153 -84 L100 -84 ZM945 505 L631 458 Q650 299 675 203 Q790 315 853 432 L898 407 Q824 272 691 146 Q709 88 731 48 Q762 -21 810 -21 Q835 -21 849 -2 Q863 17 877 64 Q895 120 903 175 L953 157 Q941 95 921 30 Q901 -33 874.5 -56 Q848 -79 810 -79 Q773 -79 742 -55.5 Q711 -32 681 24 Q662 61 646 105 Q561 32 463 -26 L433 22 Q542 85 629 161 Q600 269 579 450 L429 428 L423 481 L574 503 Q569 544 566 587 Q557 693 552 800 L604 800 Q608 690 618 582 L624 511 L939 558 L945 505 ZM153 307 L153 43 L368 43 L368 307 L153 307 ZM839 597 Q770 662 688 729 L724 766 Q806 701 877 636 L839 597 Z" /><glyph glyph-name="uni6237" unicode="&#x6237;" d="M502 815 Q537 752 583 661 L871 661 L871 307 L229 307 Q224 167 195.5 78.5 Q167 -10 102 -102 L46 -72 Q122 26 148 122.5 Q174 219 174 410 L174 661 L515 661 Q471 741 441 797 L502 815 ZM231 422 Q231 389 230 361 L814 361 L814 609 L231 609 L231 422 Z" /><glyph glyph-name="uni6240" unicode="&#x6240;" d="M43 -74 Q101 24 118.5 113.5 Q136 203 136 401 L136 708 Q319 726 459 766 L471 710 Q345 674 189 658 L189 513 L407 513 L407 214 L185 214 Q180 112 160 43.5 Q140 -25 97 -101 L43 -74 ZM757 -95 L757 391 L580 391 Q581 220 544.5 114.5 Q508 9 409 -102 L363 -64 Q461 40 493.5 135.5 Q526 231 526 417 L526 696 Q737 717 897 769 L913 713 Q766 667 580 646 L580 447 L957 447 L957 391 L812 391 L812 -95 L757 -95 ZM189 401 Q189 325 187 267 L353 267 L353 460 L189 460 L189 401 Z" /><glyph glyph-name="uni624B" unicode="&#x624b;" d="M879 698 Q731 681 540 667 L540 480 L880 480 L880 424 L540 424 L540 252 L951 252 L951 196 L540 196 L540 37 Q540 -30 514 -52.5 Q488 -75 414 -75 L285 -75 L273 -19 L395 -19 Q448 -19 464 -5 Q480 9 480 55 L480 196 L52 196 L52 252 L480 252 L480 424 L123 424 L123 480 L480 480 L480 663 Q263 649 111 644 L107 700 Q475 712 872 754 L879 698 Z" /><glyph glyph-name="uni6253" unicode="&#x6253;" d="M276 799 L276 604 L433 604 L433 549 L276 549 L276 346 Q364 372 431 393 L437 340 L276 292 L276 30 Q276 -33 253.5 -52.5 Q231 -72 160 -72 L73 -72 L61 -16 L142 -16 Q191 -16 205 -3.5 Q219 9 219 49 L219 275 L51 224 L39 280 Q111 298 219 329 L219 549 L56 549 L56 604 L219 604 L219 799 L276 799 ZM959 657 L765 657 L765 46 Q765 -18 737 -42 Q709 -66 632 -66 L518 -66 L506 -10 L617 -10 Q672 -10 690 4.5 Q708 19 708 60 L708 657 L444 657 L444 713 L959 713 L959 657 Z" /><glyph glyph-name="uni6263" unicode="&#x6263;" d="M460 -72 L460 685 L875 685 L875 -73 L819 -73 L819 19 L516 19 L516 -72 L460 -72 ZM516 629 L516 75 L819 75 L819 629 L516 629 ZM265 797 L265 605 L417 605 L417 549 L265 549 L265 343 Q368 376 410 390 L416 336 Q368 322 265 288 L265 25 Q265 -35 240 -54.5 Q215 -74 151 -74 L72 -74 L61 -18 L140 -18 Q184 -18 198 -6 Q212 6 212 44 L212 271 Q99 234 52 219 L43 273 Q86 286 212 326 L212 549 L55 549 L55 605 L212 605 L212 797 L265 797 Z" /><glyph glyph-name="uni6269" unicode="&#x6269;" d="M248 799 L248 605 L381 605 L381 550 L248 550 L248 365 L378 408 L380 352 Q325 333 248 308 L248 26 Q248 -34 226 -53.5 Q204 -73 142 -73 L62 -73 L51 -16 L124 -16 Q166 -16 179 -3.5 Q192 9 192 47 L192 290 Q104 262 45 245 L36 301 Q98 318 192 348 L192 550 L56 550 L56 605 L192 605 L192 799 L248 799 ZM945 590 L496 590 L496 398 Q496 211 466.5 110 Q437 9 350 -110 L300 -77 Q387 30 413.5 120 Q440 210 440 393 L440 645 L692 645 L618 795 L673 807 Q711 731 749 654 L723 645 L945 645 L945 590 Z" /><glyph glyph-name="uni626B" unicode="&#x626b;" d="M829 -89 L829 -20 L376 -20 L376 36 L829 36 L829 327 L437 327 L437 383 L829 383 L829 651 L417 651 L417 707 L886 707 L886 -89 L829 -89 ZM264 797 L264 610 L404 610 L404 554 L264 554 L264 366 Q342 394 397 415 L404 359 L264 310 L264 24 Q264 -34 242 -54 Q220 -74 155 -74 L69 -74 L58 -19 L141 -19 Q184 -19 196 -6.5 Q208 6 208 42 L208 290 L51 235 L40 291 Q109 312 208 347 L208 554 L56 554 L56 610 L208 610 L208 797 L264 797 Z" /><glyph glyph-name="uni626E" unicode="&#x626e;" d="M567 -7 L670 -7 Q729 -7 747 10.5 Q765 28 766 84 Q776 216 783 344 L559 344 L556 309 Q550 167 503 79.5 Q456 -8 337 -97 L293 -59 Q408 23 450.5 99.5 Q493 176 500 309 L503 344 L390 344 L390 395 L348 426 Q478 571 541 768 L595 752 Q529 549 401 400 L841 400 Q832 235 822 63 Q819 -10 790.5 -36 Q762 -62 688 -62 L578 -62 L567 -7 ZM245 798 L245 605 L365 605 L365 550 L245 550 L245 350 L345 381 L353 327 L245 295 L245 24 Q245 -34 224.5 -54 Q204 -74 140 -74 L64 -74 L52 -19 L131 -19 Q173 -19 182 -7 Q191 5 191 42 L191 279 L48 235 L39 291 L191 334 L191 550 L58 550 L58 605 L191 605 L191 798 L245 798 ZM912 360 Q742 517 672 785 L727 797 Q789 545 956 399 L912 360 Z" /><glyph glyph-name="uni627F" unicode="&#x627f;" d="M157 731 L805 731 L805 681 Q766 654 665 599.5 Q564 545 520 523 L520 470 L652 470 L652 422 L520 422 L520 315 L663 315 L663 267 L520 267 L520 154 L715 154 L715 107 L520 107 L520 20 Q520 -46 493.5 -66.5 Q467 -87 396 -87 L294 -87 L285 -37 L382 -37 Q435 -37 451 -24.5 Q467 -12 467 33 L467 107 L274 107 L274 154 L467 154 L467 267 L322 267 L322 315 L467 315 L467 422 L333 422 L333 470 L467 470 L467 547 Q499 562 584.5 608 Q670 654 699 677 L157 677 L157 731 ZM946 478 Q858 401 763 333 Q818 130 959 4 L917 -38 Q810 69 752.5 205.5 Q695 342 673 551 L723 556 Q733 462 750 386 Q836 451 909 518 L946 478 ZM61 510 L290 510 L290 456 Q269 310 224 197.5 Q179 85 79 -39 L38 -1 Q133 110 175.5 218.5 Q218 327 236 456 L61 456 L61 510 Z" /><glyph glyph-name="uni6280" unicode="&#x6280;" d="M386 437 L612 437 L612 597 L385 597 L385 652 L612 652 L612 802 L668 802 L668 652 L934 652 L934 597 L668 597 L668 437 L858 437 L858 381 Q797 207 678 101 Q777 15 950 -45 L929 -105 Q745 -31 635 66 Q524 -16 325 -97 L295 -41 Q483 31 592 107 Q498 205 437 348 L487 373 Q544 236 635 140 Q746 235 796 383 L386 383 L386 437 ZM248 796 L248 609 L363 609 L363 550 L248 550 L248 363 L356 402 L373 343 L248 301 L248 19 Q248 -37 226.5 -55.5 Q205 -74 145 -74 L68 -74 L57 -17 L127 -17 Q165 -17 178.5 -5.5 Q192 6 192 42 L192 281 L44 230 L26 291 Q91 309 192 344 L192 550 L57 550 L57 609 L192 609 L192 796 L248 796 Z" /><glyph glyph-name="uni62A4" unicode="&#x62a4;" d="M650 805 Q687 736 726 656 L901 656 L901 310 L492 310 Q487 173 458 83 Q429 -7 363 -103 L310 -73 Q386 29 412 125.5 Q438 222 438 409 L438 656 L665 656 Q628 728 598 782 L650 805 ZM253 793 L253 608 L380 608 L380 553 L253 553 L253 365 Q321 389 372 409 L379 353 Q326 335 253 309 L253 11 Q253 -41 231 -59.5 Q209 -78 147 -78 L64 -78 L53 -25 L131 -25 Q170 -25 183.5 -14 Q197 -3 197 29 L197 289 L48 235 L36 290 Q101 311 197 345 L197 553 L61 553 L61 608 L197 608 L197 793 L253 793 ZM494 420 Q494 390 493 364 L846 364 L846 603 L494 603 L494 420 Z" /><glyph glyph-name="uni62A5" unicode="&#x62a5;" d="M428 -104 L428 737 L875 737 Q872 649 868 591 Q867 538 841.5 519.5 Q816 501 748 501 L581 501 L572 551 L726 551 Q778 551 795.5 562 Q813 573 814 604 Q819 649 819 686 L482 686 L482 416 L886 416 L886 366 Q852 226 742 106 Q829 28 953 -38 L923 -85 Q792 -15 704 69 Q630 0 518 -68 L482 -26 L482 -104 L428 -104 ZM256 794 L256 601 L385 601 L385 550 L256 550 L256 354 Q323 376 374 392 L377 341 L256 302 L256 26 Q256 -35 233.5 -55.5 Q211 -76 144 -76 L71 -76 L60 -25 L127 -25 Q173 -25 188 -11.5 Q203 2 203 41 L203 286 Q112 258 54 241 L43 291 Q107 309 203 338 L203 550 L52 550 L52 601 L203 601 L203 794 L256 794 ZM588 346 Q633 222 705 144 Q798 242 830 366 L482 366 L482 -23 Q595 43 668 108 Q590 196 544 328 L588 346 Z" /><glyph glyph-name="uni62C5" unicode="&#x62c5;" d="M431 724 L874 724 L874 180 L431 180 L431 724 ZM249 800 L249 605 L382 605 L382 549 L249 549 L249 359 L373 401 L382 345 L249 302 L249 26 Q249 -32 226.5 -52.5 Q204 -73 142 -73 L64 -73 L52 -17 L124 -17 Q166 -17 179.5 -5.5 Q193 6 193 44 L193 284 L53 237 L42 292 Q102 310 193 340 L193 549 L57 549 L57 605 L193 605 L193 800 L249 800 ZM486 669 L486 478 L818 478 L818 669 L486 669 ZM486 235 L818 235 L818 424 L486 424 L486 235 ZM957 -43 L330 -43 L330 13 L957 13 L957 -43 Z" /><glyph glyph-name="uni62D3" unicode="&#x62d3;" d="M460 -99 L460 288 Q402 212 326 138 L296 195 Q500 392 573 657 L377 657 L377 713 L960 713 L960 657 L637 657 Q601 522 535 404 L885 404 L885 -99 L829 -99 L829 -20 L516 -20 L516 -99 L460 -99 ZM516 348 L516 36 L829 36 L829 348 L516 348 ZM248 797 L248 603 L385 603 L385 547 L248 547 L248 365 Q320 392 376 414 L382 358 Q326 336 248 307 L248 21 Q248 -36 227.5 -56 Q207 -76 145 -76 L67 -76 L57 -20 L127 -20 Q166 -20 179 -9 Q192 2 192 39 L192 287 Q106 256 50 238 L40 294 Q101 314 192 345 L192 547 L59 547 L59 603 L192 603 L192 797 L248 797 Z" /><glyph glyph-name="uni62DF" unicode="&#x62df;" d="M244 796 L244 602 L363 602 L363 546 L244 546 L244 362 Q308 385 357 405 L363 351 Q313 331 244 304 L244 19 Q244 -28 219.5 -51 Q195 -74 136 -74 L67 -74 L57 -18 L127 -18 Q169 -18 180.5 -4.5 Q192 9 192 43 L192 285 Q106 252 51 234 L40 290 Q101 310 192 343 L192 546 L58 546 L58 602 L192 602 L192 796 L244 796 ZM849 766 Q850 682 844 543 Q840 326 788 201 Q878 78 958 -38 L913 -78 Q841 27 759 143 Q686 23 504 -97 L466 -52 Q659 70 723 191 Q787 312 791 543 Q796 682 795 766 L849 766 ZM673 282 Q594 215 422 57 L384 95 Q403 111 407 125.5 Q411 140 411 148 L411 729 L463 729 L463 166 L649 330 L673 282 ZM663 533 Q588 660 533 749 L575 774 Q633 685 707 561 L663 533 Z" /><glyph glyph-name="uni6301" unicode="&#x6301;" d="M241 800 L241 607 L371 607 L371 556 L241 556 L241 351 Q299 370 344 385 L350 329 Q303 316 241 296 L241 19 Q241 -36 219 -55 Q197 -74 136 -74 L59 -74 L49 -24 L121 -24 Q160 -24 173.5 -13 Q187 -2 187 33 L187 280 L41 235 L30 291 Q94 307 187 335 L187 556 L43 556 L43 607 L187 607 L187 800 L241 800 ZM904 609 L670 609 L670 470 L948 470 L948 415 L342 415 L342 470 L614 470 L614 609 L394 609 L394 662 L614 662 L614 795 L670 795 L670 662 L904 662 L904 609 ZM797 370 L797 276 L936 276 L936 223 L797 223 L797 36 Q797 -28 770.5 -51 Q744 -74 667 -74 L564 -74 L555 -20 L654 -20 Q708 -20 724.5 -4.5 Q741 11 741 54 L741 223 L349 223 L349 276 L741 276 L741 370 L797 370 ZM543 24 Q472 103 409 166 L447 203 Q509 143 583 65 L543 24 Z" /><glyph glyph-name="uni6309" unicode="&#x6309;" d="M900 -91 Q786 -16 662 57 Q550 -30 326 -100 L302 -44 Q504 14 608 89 Q503 150 416 193 Q452 265 484 351 L359 351 L359 402 L502 402 Q533 489 554 566 L610 554 Q589 482 561 402 L957 402 L957 351 L830 351 Q798 191 705 96 Q821 29 934 -42 L900 -91 ZM247 789 L247 605 L358 605 L358 552 L247 552 L247 371 L331 406 L343 353 L247 315 L247 19 Q247 -39 223 -56.5 Q199 -74 140 -74 L57 -74 L46 -21 L125 -21 Q165 -21 179 -10 Q193 1 193 37 L193 294 L49 236 L36 289 Q100 312 193 349 L193 552 L56 552 L56 605 L193 605 L193 789 L247 789 ZM393 496 L393 672 L635 672 Q603 748 581 796 L637 811 Q666 752 700 672 L904 672 L904 496 L850 496 L850 622 L446 622 L446 496 L393 496 ZM485 215 Q559 178 652 126 Q741 211 772 351 L542 351 Q513 274 485 215 Z" /><glyph glyph-name="uni6311" unicode="&#x6311;" d="M238 792 L238 602 L340 602 L340 547 L238 547 L238 363 Q298 386 343 405 L354 351 L238 306 L238 19 Q238 -36 216.5 -55 Q195 -74 136 -74 L64 -74 L53 -20 L120 -20 Q158 -20 171 -9 Q184 2 184 37 L184 284 Q107 254 57 236 L44 290 Q101 309 184 342 L184 547 L57 547 L57 602 L184 602 L184 792 L238 792 ZM940 141 Q937 97 934 39 Q932 -19 908 -40 Q884 -61 819 -61 L778 -61 Q721 -61 697 -40.5 Q673 -20 673 35 L673 793 L727 793 L727 383 L746 400 Q840 317 936 227 L894 190 Q817 264 727 348 L727 52 Q727 18 739.5 6.5 Q752 -5 789 -5 L819 -5 Q862 -5 875 11.5 Q888 28 890 62 Q893 107 894 151 L940 141 ZM554 790 L554 368 Q554 182 510 88 Q466 -6 340 -96 L293 -57 Q408 18 452.5 94 Q497 170 500 305 Q396 241 345 208 L320 263 Q378 296 501 371 L501 790 L554 790 ZM920 648 Q857 533 784 425 L736 449 Q808 556 870 670 L920 648 ZM444 434 Q397 543 346 654 L392 672 Q444 562 494 453 L444 434 Z" /><glyph glyph-name="uni6325" unicode="&#x6325;" d="M640 -101 L640 63 L322 63 L322 114 L640 114 L640 244 L404 244 L404 294 Q456 379 507 471 L361 471 L361 521 L533 521 Q571 592 595 645 L643 626 Q622 579 592 521 L920 521 L920 471 L566 471 Q518 380 467 294 L640 294 L640 426 L696 426 L696 294 L911 294 L911 244 L696 244 L696 114 L955 114 L955 63 L696 63 L696 -101 L640 -101 ZM243 794 L243 604 L352 604 L352 548 L243 548 L243 364 L345 403 L357 347 L243 305 L243 19 Q243 -36 221.5 -55 Q200 -74 141 -74 L67 -74 L56 -20 L126 -20 Q163 -20 175.5 -9 Q188 2 188 38 L188 285 L53 237 L41 291 Q102 312 188 343 L188 548 L60 548 L60 604 L188 604 L188 794 L243 794 ZM389 577 L389 730 L911 730 L911 577 L856 577 L856 679 L444 679 L444 577 L389 577 Z" /><glyph glyph-name="uni6349" unicode="&#x6349;" d="M417 735 L876 735 L876 430 L691 430 L691 251 L929 251 L929 198 L691 198 L691 2 L966 2 L955 -53 L711 -53 Q614 -53 552 -13.5 Q490 26 450 122 Q412 4 320 -97 L275 -68 Q356 23 392 118 Q428 213 435 351 L489 346 Q484 268 471 205 Q496 112 537 66.5 Q578 21 635 9 L635 430 L417 430 L417 735 ZM243 793 L243 602 L360 602 L360 549 L243 549 L243 354 L360 393 L368 337 L243 298 L243 18 Q243 -37 221 -56 Q199 -75 137 -75 L62 -75 L53 -21 L120 -21 Q162 -21 175 -10 Q188 1 188 36 L188 281 Q108 255 51 237 L39 292 Q100 309 188 337 L188 549 L54 549 L54 602 L188 602 L188 793 L243 793 ZM472 681 L472 483 L820 483 L820 681 L472 681 Z" /><glyph glyph-name="uni6355" unicode="&#x6355;" d="M381 -89 L381 500 L609 500 L609 615 L355 615 L355 665 L609 665 L609 800 L661 800 L661 665 L851 665 Q799 718 743 770 L780 804 Q838 751 891 699 L857 665 L955 665 L955 615 L661 615 L661 500 L891 500 L891 20 Q891 -34 870.5 -54 Q850 -74 794 -74 L720 -74 L710 -21 L771 -21 Q812 -21 825 -9 Q838 3 838 40 L838 111 L661 111 L661 -76 L609 -76 L609 111 L435 111 L435 -89 L381 -89 ZM232 794 L232 604 L337 604 L337 550 L232 550 L232 371 L331 410 L340 355 L232 315 L232 19 Q232 -36 209.5 -55.5 Q187 -75 124 -75 L54 -75 L43 -22 L109 -22 Q152 -22 165.5 -9.5 Q179 3 179 37 L179 295 L55 248 L43 302 Q97 321 179 351 L179 550 L56 550 L56 604 L179 604 L179 794 L232 794 ZM838 450 L661 450 L661 330 L838 330 L838 450 ZM661 280 L661 161 L838 161 L838 280 L661 280 ZM435 450 L435 330 L609 330 L609 450 L435 450 ZM435 280 L435 161 L609 161 L609 280 L435 280 Z" /><glyph glyph-name="uni636E" unicode="&#x636e;" d="M507 -103 L507 213 L669 213 L669 337 L447 337 Q442 198 413.5 101 Q385 4 324 -90 L274 -62 Q344 45 370 154.5 Q396 264 396 460 L396 732 L901 732 L901 506 L450 506 L450 454 Q450 418 449 385 L669 385 L669 476 L722 476 L722 385 L958 385 L958 337 L722 337 L722 213 L884 213 L884 -102 L832 -102 L832 -43 L559 -43 L559 -103 L507 -103 ZM238 791 L238 601 L345 601 L345 548 L238 548 L238 369 Q295 391 339 410 L348 356 L238 313 L238 20 Q238 -38 216 -56.5 Q194 -75 127 -75 L58 -75 L50 -25 L114 -25 Q158 -25 171.5 -13.5 Q185 -2 185 36 L185 292 Q102 259 50 237 L38 293 Q97 314 185 348 L185 548 L55 548 L55 601 L185 601 L185 791 L238 791 ZM450 684 L450 554 L846 554 L846 684 L450 684 ZM559 165 L559 4 L832 4 L832 165 L559 165 Z" /><glyph glyph-name="uni6377" unicode="&#x6377;" d="M926 656 L648 656 L648 562 L868 562 L868 427 L954 427 L954 383 L868 383 L868 247 L648 247 L648 152 L913 152 L913 108 L648 108 L648 -9 Q679 -13 715 -13 L957 -13 L948 -60 L709 -60 Q609 -60 539.5 -33 Q470 -6 420 68 Q382 -27 290 -103 L248 -69 Q393 41 399 218 L452 212 Q449 167 439 128 Q490 26 597 0 L597 247 L359 247 L359 291 L597 291 L597 383 L338 383 L338 427 L597 427 L597 518 L365 518 L365 562 L597 562 L597 656 L351 656 L351 701 L597 701 L597 799 L648 799 L648 701 L926 701 L926 656 ZM237 798 L237 603 L345 603 L345 555 L237 555 L237 363 L323 394 L331 344 L237 311 L237 32 Q237 -26 214 -45 Q191 -64 126 -64 L64 -64 L53 -12 L114 -12 Q157 -12 171.5 0 Q186 12 186 50 L186 293 Q104 264 47 245 L35 295 Q101 316 186 345 L186 555 L57 555 L57 603 L186 603 L186 798 L237 798 ZM648 291 L818 291 L818 383 L648 383 L648 291 ZM818 518 L648 518 L648 427 L818 427 L818 518 Z" /><glyph glyph-name="uni63A2" unicode="&#x63a2;" d="M601 -104 L601 208 Q508 69 318 -44 L283 6 Q493 121 582 270 L344 270 L344 320 L601 320 L601 446 L654 446 L654 320 L931 320 L931 270 L670 270 Q764 118 960 13 L928 -37 Q751 67 654 208 L654 -104 L601 -104 ZM230 787 L230 597 L335 597 L335 545 L230 545 L230 374 L319 414 L331 362 L230 317 L230 20 Q230 -38 209 -56.5 Q188 -75 123 -75 L57 -75 L46 -25 L108 -25 Q151 -25 165 -13 Q179 -1 179 36 L179 296 L49 240 L37 295 Q95 316 179 352 L179 545 L53 545 L53 597 L179 597 L179 787 L230 787 ZM372 554 L372 724 L901 724 L901 553 L851 553 L851 673 L422 673 L422 554 L372 554 ZM591 553 Q496 458 379 377 L350 419 Q466 496 556 590 L591 553 ZM881 392 Q771 479 664 552 L693 592 Q804 516 911 432 L881 392 Z" /><glyph glyph-name="uni63A5" unicode="&#x63a5;" d="M917 -89 Q788 -22 665 32 Q561 -35 314 -88 L298 -37 Q513 7 608 56 Q509 99 415 134 Q444 184 475 245 L326 245 L326 293 L497 293 Q523 349 540 399 L592 387 Q576 342 554 293 L946 293 L946 245 L826 245 Q785 133 710 66 Q829 14 942 -41 L917 -89 ZM238 791 L238 604 L358 604 L358 553 L238 553 L238 362 Q289 381 330 397 L332 342 L238 309 L238 23 Q238 -33 216 -52.5 Q194 -72 126 -72 L53 -72 L43 -22 L112 -22 Q159 -22 172.5 -9 Q186 4 186 39 L186 290 Q106 263 50 244 L39 295 Q101 314 186 344 L186 553 L55 553 L55 604 L186 604 L186 791 L238 791 ZM827 616 Q793 551 746 471 L958 471 L958 422 L343 422 L343 471 L687 471 Q740 556 780 636 L827 616 ZM921 644 L374 644 L374 692 L634 692 L586 788 L639 811 L698 692 L921 692 L921 644 ZM659 88 Q733 146 769 245 L532 245 Q508 195 485 157 Q562 129 659 88 ZM530 478 Q490 547 449 612 L494 634 Q536 570 576 502 L530 478 Z" /><glyph glyph-name="uni63A7" unicode="&#x63a7;" d="M236 796 L236 605 L344 605 L344 550 L236 550 L236 368 L322 403 L334 350 L236 312 L236 19 Q236 -39 213 -58 Q190 -77 123 -77 L57 -77 L47 -26 L111 -26 Q156 -26 169.5 -14 Q183 -2 183 36 L183 291 L48 238 L35 292 Q97 314 183 348 L183 550 L51 550 L51 605 L183 605 L183 796 L236 796 ZM889 215 L672 215 L672 8 L951 8 L951 -46 L329 -46 L329 8 L616 8 L616 215 L398 215 L398 267 L889 267 L889 215 ZM384 488 L384 671 L640 671 Q610 731 579 787 L629 810 Q665 749 694 690 L649 671 L916 671 L916 488 L865 488 L865 619 L437 619 L437 488 L384 488 ZM928 302 Q802 400 677 484 L707 526 Q832 441 958 346 L928 302 ZM604 487 Q503 391 373 303 L345 347 Q471 428 569 525 L604 487 Z" /><glyph glyph-name="uni63A8" unicode="&#x63a8;" d="M960 -17 L464 -17 L464 -99 L410 -99 L410 502 Q382 454 347 409 L307 450 Q427 602 474 804 L530 794 Q508 710 476 634 L945 634 L945 584 L728 584 L728 437 L927 437 L927 388 L728 388 L728 242 L927 242 L927 192 L728 192 L728 33 L960 33 L960 -17 ZM247 795 L247 617 L365 617 L365 562 L247 562 L247 356 Q307 374 353 389 L359 335 L247 301 L247 25 Q247 -30 224.5 -49 Q202 -68 140 -68 L64 -68 L53 -15 L126 -15 Q165 -15 178 -4 Q191 7 191 43 L191 284 L46 239 L34 294 Q98 311 191 339 L191 562 L58 562 L58 617 L191 617 L191 795 L247 795 ZM464 192 L464 33 L674 33 L674 192 L464 192 ZM464 584 L464 437 L674 437 L674 584 L464 584 ZM464 388 L464 242 L674 242 L674 388 L464 388 ZM733 635 Q686 704 634 778 L677 805 Q729 734 777 664 L733 635 Z" /><glyph glyph-name="uni63CF" unicode="&#x63cf;" d="M395 -96 L395 465 L885 465 L885 -96 L832 -96 L832 -28 L448 -28 L448 -96 L395 -96 ZM244 794 L244 616 L343 616 L343 563 L244 563 L244 379 Q301 399 345 415 L351 361 Q306 346 244 323 L244 26 Q244 -31 220.5 -50.5 Q197 -70 129 -70 L69 -70 L58 -15 L126 -15 Q168 -15 179.5 -3.5 Q191 8 191 44 L191 304 L50 254 L41 310 Q100 329 191 360 L191 563 L60 563 L60 616 L191 616 L191 794 L244 794 ZM498 512 L498 618 L357 618 L357 672 L498 672 L498 794 L551 794 L551 672 L730 672 L730 794 L782 794 L782 672 L960 672 L960 618 L782 618 L782 512 L730 512 L730 618 L551 618 L551 512 L498 512 ZM665 193 L665 24 L832 24 L832 193 L665 193 ZM832 412 L665 412 L665 245 L832 245 L832 412 ZM448 193 L448 24 L613 24 L613 193 L448 193 ZM448 412 L448 245 L613 245 L613 412 L448 412 Z" /><glyph glyph-name="uni63D0" unicode="&#x63d0;" d="M414 744 L851 744 L851 426 L414 426 L414 744 ZM470 239 Q463 188 453 148 Q510 8 618 -7 L618 284 L325 284 L325 332 L941 332 L941 284 L672 284 L672 165 L898 165 L898 117 L672 117 L672 -12 Q683 -13 695 -13 L954 -13 L944 -65 L695 -65 Q598 -65 537.5 -32 Q477 1 434 88 Q398 -9 303 -101 L260 -67 Q337 6 371.5 74 Q406 142 418 243 L470 239 ZM230 790 L230 602 L350 602 L350 549 L230 549 L230 375 Q290 397 336 415 L339 359 Q294 342 230 318 L230 12 Q230 -39 208 -57 Q186 -75 126 -75 L63 -75 L52 -22 L109 -22 Q149 -22 162.5 -11.5 Q176 -1 176 30 L176 298 L36 247 L30 303 Q88 323 176 355 L176 549 L45 549 L45 602 L176 602 L176 790 L230 790 ZM469 470 L795 470 L795 564 L469 564 L469 470 ZM469 700 L469 608 L795 608 L795 700 L469 700 Z" /><glyph glyph-name="uni641C" unicode="&#x641c;" d="M354 252 L595 252 L595 353 L370 353 L370 693 Q447 710 540 743 L558 697 Q480 667 420 654 L420 552 L552 552 L552 508 L420 508 L420 401 L595 401 L595 796 L647 796 L647 401 L827 401 L827 508 L689 508 L689 552 L827 552 L827 660 L687 660 L687 707 L877 707 L877 353 L647 353 L647 252 L850 252 L850 208 Q773 101 671 39 Q775 -8 946 -35 L931 -90 Q735 -53 616 9 Q498 -47 292 -92 L275 -39 Q459 -5 564 40 Q479 97 404 189 L428 207 L354 207 L354 252 ZM226 794 L226 604 L330 604 L330 550 L226 550 L226 370 Q278 393 317 411 L323 355 L226 313 L226 14 Q226 -39 206 -57 Q186 -75 124 -75 L61 -75 L51 -22 L110 -22 Q150 -22 162.5 -11 Q175 0 175 33 L175 291 Q97 258 42 233 L36 289 Q94 312 175 348 L175 550 L51 550 L51 604 L175 604 L175 794 L226 794 ZM456 207 Q530 119 618 66 Q708 117 782 207 L456 207 Z" /><glyph glyph-name="uni643A" unicode="&#x643a;" d="M917 415 L702 415 L702 337 L955 337 L955 297 L449 297 L449 255 L399 255 L399 559 Q369 508 332 457 L298 496 Q403 637 450 800 L498 791 Q481 736 460 686 L687 686 Q656 739 621 791 L665 813 Q700 761 732 708 L690 686 L938 686 L938 646 L702 646 L702 569 L917 569 L917 531 L702 531 L702 453 L917 453 L917 415 ZM229 789 L229 611 L324 611 L324 558 L229 558 L229 364 Q286 385 332 402 L342 351 L229 311 L229 22 Q229 -36 206.5 -55 Q184 -74 121 -74 L62 -74 L51 -23 L106 -23 Q147 -23 161.5 -11 Q176 1 176 39 L176 292 L47 246 L35 297 Q91 316 176 345 L176 558 L56 558 L56 611 L176 611 L176 789 L229 789 ZM630 -30 L752 -30 Q802 -30 820.5 -18.5 Q839 -7 842 30 L853 94 L717 94 L736 174 L528 174 Q523 141 514 105 Q501 41 454.5 -5 Q408 -51 306 -101 L277 -56 Q374 -11 415 29.5 Q456 70 466 123 Q472 149 476 174 L332 174 L332 218 L796 218 L778 134 L907 134 L890 19 Q884 -35 858 -54.5 Q832 -74 764 -74 L638 -74 L630 -30 ZM449 531 L449 453 L652 453 L652 531 L449 531 ZM449 415 L449 337 L652 337 L652 415 L449 415 ZM449 646 L449 569 L652 569 L652 646 L449 646 Z" /><glyph glyph-name="uni6444" unicode="&#x6444;" d="M955 354 L835 349 L835 286 L783 286 L783 347 L318 326 L317 360 Q275 342 219 317 L219 0 Q219 -49 198.5 -66 Q178 -83 122 -83 L56 -83 L46 -33 L109 -33 Q143 -33 156 -22 Q169 -11 169 17 L169 295 Q92 262 44 239 L36 295 L169 352 L169 551 L52 551 L52 605 L169 605 L169 787 L219 787 L219 605 L330 605 L330 551 L219 551 L219 374 L311 415 L321 370 Q342 370 408 372 L408 698 L316 698 L316 740 L940 740 L940 698 L835 698 L835 390 L955 396 L955 354 ZM607 260 L899 260 L899 215 Q863 108 784 33 Q851 -17 959 -54 L938 -98 Q825 -58 749 3 Q675 -55 560 -105 L536 -62 Q647 -16 715 34 Q649 101 609 199 L649 217 L607 217 L607 260 ZM549 -28 Q517 1 471 36 Q401 -37 287 -102 L257 -61 Q368 -1 435 64 Q370 114 317 152 L342 182 Q399 144 464 96 Q510 151 534 217 L306 217 L306 260 L582 260 L582 215 Q555 136 500 68 Q546 33 579 7 L549 -28 ZM459 579 L459 500 L783 500 L783 579 L459 579 ZM459 698 L459 620 L783 620 L783 698 L459 698 ZM459 374 Q617 380 783 388 L783 459 L459 459 L459 374 ZM649 217 Q687 122 749 62 Q817 125 849 217 L649 217 Z" /><glyph glyph-name="uni64AD" unicode="&#x64ad;" d="M903 722 Q794 708 641 696 L641 530 L949 530 L949 484 L709 484 Q801 383 967 320 L943 273 Q746 354 647 484 L641 484 L641 333 L591 333 L591 484 L584 484 Q509 381 382 306 L860 306 L860 -102 L809 -102 L809 -41 L422 -41 L422 -102 L371 -102 L371 299 Q335 279 295 261 L273 309 Q435 378 521 484 L316 484 L316 530 L591 530 L591 692 Q436 681 322 677 L318 726 Q619 739 896 772 L903 722 ZM218 796 L218 611 L317 611 L317 557 L218 557 L218 373 L317 412 L327 357 L218 316 L218 21 Q218 -34 199 -52 Q180 -70 121 -70 L58 -70 L47 -17 L107 -17 Q144 -17 156 -6.5 Q168 4 168 39 L168 297 Q92 268 43 249 L31 305 L168 354 L168 557 L53 557 L53 611 L168 611 L168 796 L218 796 ZM422 112 L422 3 L591 3 L591 112 L422 112 ZM641 112 L641 3 L809 3 L809 112 L641 112 ZM422 262 L422 155 L591 155 L591 262 L422 262 ZM809 262 L641 262 L641 155 L809 155 L809 262 ZM857 662 Q816 602 768 541 L727 565 Q772 624 813 685 L857 662 ZM463 545 Q421 604 381 650 L422 673 Q463 624 504 568 L463 545 Z" /><glyph glyph-name="uni64CD" unicode="&#x64cd;" d="M933 -60 Q754 6 640 110 L640 -98 L587 -98 L587 109 Q468 10 276 -65 L252 -16 Q462 57 580 162 L298 162 L298 210 L587 210 L587 284 L640 284 L640 210 L928 210 L928 162 L649 162 Q764 52 955 -10 L933 -60 ZM397 752 L830 752 L830 566 L397 566 L397 752 ZM215 792 L215 611 L331 611 L331 558 L215 558 L215 369 Q264 387 301 401 L310 348 L215 314 L215 24 Q215 -31 195.5 -50 Q176 -69 120 -69 L51 -69 L40 -16 L106 -16 Q141 -16 153 -4.5 Q165 7 165 42 L165 296 L40 250 L28 303 Q83 321 165 351 L165 558 L53 558 L53 611 L165 611 L165 792 L215 792 ZM653 490 L886 490 L886 306 L653 306 L653 490 ZM341 490 L570 490 L570 306 L341 306 L341 490 ZM447 708 L447 610 L780 610 L780 708 L447 708 ZM697 447 L697 349 L842 349 L842 447 L697 447 ZM385 447 L385 349 L526 349 L526 447 L385 447 Z" /><glyph glyph-name="uni64CE" unicode="&#x64ce;" d="M943 45 L545 45 L545 9 Q545 -46 523 -66 Q501 -86 431 -86 L295 -86 L287 -43 L411 -43 Q460 -43 474.5 -32.5 Q489 -22 489 17 L489 45 L58 45 L58 85 L489 85 L489 160 L149 160 L149 200 L489 200 L489 271 Q262 262 112 262 L109 303 Q497 303 857 335 L863 293 Q728 281 545 274 L545 200 L851 200 L851 160 L545 160 L545 85 L943 85 L943 45 ZM950 648 L886 648 Q854 546 776 477 Q846 435 954 406 L936 362 Q816 399 741 449 Q666 399 542 360 L521 404 Q635 435 703 477 Q641 531 606 602 Q585 573 559 546 L530 584 Q582 638 614 691 Q646 744 668 798 L713 786 Q692 737 665 689 L950 689 L950 648 ZM186 632 L170 606 L510 606 Q507 527 504 438 Q503 398 482 382.5 Q461 367 406 367 L367 367 L361 405 L395 405 Q434 405 447 414.5 Q460 424 460 450 L466 568 L142 568 Q100 517 48 477 L30 515 Q104 571 144 644 L186 632 ZM198 635 L198 680 L54 680 L54 718 L198 718 L198 793 L247 793 L247 718 L382 718 L382 793 L431 793 L431 718 L568 718 L568 680 L431 680 L431 629 L382 629 L382 680 L247 680 L247 635 L198 635 ZM125 516 L350 516 L350 390 L125 390 L125 516 ZM634 640 Q669 558 739 503 Q807 559 838 648 L639 648 Q636 644 634 640 ZM163 484 L163 423 L311 423 L311 484 L163 484 Z" /><glyph glyph-name="uni652F" unicode="&#x652f;" d="M137 450 L469 450 L469 603 L57 603 L57 659 L469 659 L469 800 L530 800 L530 659 L942 659 L942 603 L530 603 L530 450 L784 450 L784 395 Q738 303 682 232.5 Q626 162 545 106 Q690 17 945 -39 L928 -100 Q644 -33 491 72 Q344 -15 67 -97 L47 -36 Q300 33 438 110 Q312 213 229 361 L279 391 Q356 242 491 141 Q571 193 623.5 255 Q676 317 715 395 L137 395 L137 450 Z" /></font>
</defs>
</svg>
