<?xml version="1.0" standalone="no"?>
<!DOCTYPE svg PUBLIC "-//W3C//DTD SVG 1.1//EN" "http://www.w3.org/Graphics/SVG/1.1/DTD/svg11.dtd" >
<svg xmlns="http://www.w3.org/2000/svg" version="1.1">
<metadata>
Created by FontForge 20170731 at Thu Oct 17 15:48:21 2019
 By Aleksey,,,
</metadata>
<defs>
<font id="TencentGamesEN-BlackOblique" horiz-adv-x="574" >
  <font-face 
    font-family="Tencent Games EN"
    font-weight="800"
    font-style="oblique"
    font-stretch="normal"
    units-per-em="1000"
    panose-1="0 0 0 0 0 0 0 0 0 0"
    ascent="800"
    descent="-200"
    x-height="497"
    cap-height="693"
    bbox="-521 -457 1621 1174"
    underline-thickness="50"
    underline-position="-150"
    slope="-10"
    unicode-range="U+000D-FE48"
  />
<missing-glyph horiz-adv-x="512" 
d="M0 0v718h512v-718h-512zM50 667v-617h412v617h-412zM348 574q35 -36 35 -96q0 -32 -12.5 -58.5t-50.5 -61.5q-37 -33 -43 -52q-6 -20 -6 -72h-46l-2 17q0 56 13 81q7 13 18 27.5t28 31.5q32 30 41 47.5t9 35.5q0 36 -22.5 60.5t-53.5 24.5t-53.5 -22t-28.5 -73l-50 8
q7 72 44 104.5t91 32.5t89 -35zM222 117v67h56v-67h-56z" />
    <glyph glyph-name="uni0132" unicode="IJ" horiz-adv-x="791" 
d="M169 708h156l-99 -708h-156zM762 237q-7 -49 -22 -95t-44 -81.5t-76.5 -57t-119.5 -21.5q-84 0 -136.5 40t-57.5 125l148 35q-1 -26 17 -44t44 -18q27 0 44 13.5t27 33.5t14.5 43.5t7.5 43.5l64 454h156z" />
    <glyph glyph-name="uni0133" unicode="ij" horiz-adv-x="512" 
d="M55 0l68 486h150l-68 -486h-150zM167 701q13 11 30 18t35 7q36 0 57.5 -25.5t16.5 -61.5q-2 -18 -11 -34t-22.5 -27.5t-30.5 -18.5t-35 -7t-33 7t-25 18.5t-14.5 27.5t-2.5 34q3 18 12 34t23 28zM431 -121q-14 -37 -38.5 -63.5t-61 -41t-87.5 -14.5q-17 0 -35 1.5
t-34 6.5l27 133q16 -9 37 -9q19 0 31 10t19 25t10.5 32t5.5 31l70 496h150l-74 -522q-6 -47 -20 -85zM484 726q36 0 57.5 -25.5t16.5 -61.5q-2 -18 -11 -34t-22.5 -27.5t-30.5 -18.5t-35 -7t-33 7t-25 18.5t-14.5 27.5t-2.5 34q3 18 12 34t22.5 27.5t30.5 18.5t35 7z" />
    <glyph glyph-name="uni0149" unicode="&#x22;n" 
d="M404 238q3 21 5 43.5t-3 41.5t-19 31t-43 12t-48.5 -10.5t-31.5 -28t-18 -39.5t-9 -46l-34 -242h-150l68 486h144l-9 -66h2q9 14 24 28t34 25t43 18t51 7q57 0 90 -17.5t48 -48.5t16 -73t-6 -91l-37 -268h-150zM67 708h134l-108 -199h-98z" />
    <glyph glyph-name="uniFB01" unicode="fi" horiz-adv-x="630" 
d="M57 366l17 120h99l12 86q6 40 17.5 75.5t35.5 62.5t63.5 42.5t100.5 15.5q23 0 45 -2t42 -7l-25 -127q-12 5 -22.5 7.5t-24.5 2.5q-36 0 -56 -15.5t-27 -63.5l-11 -77h111l-17 -120h-111l-51 -366h-150l51 366h-99zM643 486l-68 -486h-150l68 486h150zM502 639
q3 18 12 34t22.5 27.5t30.5 18.5t35 7q36 0 57.5 -25.5t16.5 -61.5q-2 -18 -11 -34t-22.5 -27.5t-30.5 -18.5t-35 -7t-33 7t-25 18.5t-14.5 27.5t-2.5 34z" />
    <glyph glyph-name="uniFB02" unicode="fl" horiz-adv-x="630" 
d="M447 766q22 -2 42 -7l-25 -127q-12 5 -22.5 7.5t-24.5 2.5q-36 0 -56 -15.5t-27 -63.5l-11 -77h111l-17 -120h-111l-51 -366h-150l51 366h-99l17 120h99l12 86q6 40 17.5 75.5t35.5 62.5t63.5 42.5t100.5 15.5q23 0 45 -2zM531 756h150l-106 -756h-150z" />
    <glyph glyph-name=".notdef" horiz-adv-x="512" 
d="M0 0v718h512v-718h-512zM50 667v-617h412v617h-412zM348 574q35 -36 35 -96q0 -32 -12.5 -58.5t-50.5 -61.5q-37 -33 -43 -52q-6 -20 -6 -72h-46l-2 17q0 56 13 81q7 13 18 27.5t28 31.5q32 30 41 47.5t9 35.5q0 36 -22.5 60.5t-53.5 24.5t-53.5 -22t-28.5 -73l-50 8
q7 72 44 104.5t91 32.5t89 -35zM222 117v67h56v-67h-56z" />
    <glyph glyph-name="uni0000" horiz-adv-x="0" 
 />
    <glyph glyph-name="uni0000" horiz-adv-x="0" 
 />
    <glyph glyph-name="uni000D" unicode="&#xd;" horiz-adv-x="0" 
 />
    <glyph glyph-name="uni0020" unicode=" " horiz-adv-x="296" 
 />
    <glyph glyph-name="uni0021" unicode="!" horiz-adv-x="444" 
d="M246 708h150l-67 -474h-150zM314 50q-10 -17 -24.5 -29.5t-32 -19.5t-36.5 -7t-35 7t-26.5 19.5t-15.5 29.5t-2 36t12.5 36t23.5 29.5t32 19.5t37 7q38 0 61 -27t18 -65q-3 -19 -12 -36z" />
    <glyph glyph-name="uni0022" unicode="&#x22;" horiz-adv-x="584" 
d="M613 612l-137 -275h-125l121 275h141zM403 612l-136 -275h-125l121 275h140z" />
    <glyph glyph-name="uni0023" unicode="#" horiz-adv-x="679" 
d="M426 511h92l39 91h121l-38 -91h84l-22 -125h-115l-37 -86h84l-22 -125h-115l-40 -94h-122l40 94h-91l-40 -94h-122l40 94h-86l22 125h117l37 86h-86l22 125h117l38 91h122zM337 300h90l38 86h-91z" />
    <glyph glyph-name="uni0024" unicode="$" horiz-adv-x="594" 
d="M388 774h65l-12 -68q45 -5 91.5 -19t87.5 -36l-23 -129q-50 23 -93 35.5t-86 15.5l-26 -148l13 -3q54 -16 91.5 -33.5t61.5 -41t35.5 -53.5t12.5 -71q3 -112 -68.5 -173.5t-214.5 -61.5h-9l-11 -65h-65l12 69q-62 8 -116.5 28.5t-105.5 55.5l26 146q48 -38 104 -60.5
t117 -29.5l30 171h-3q-34 12 -68 26.5t-61 35t-44 48t-17 66.5q0 52 20 94.5t55.5 72.5t84 46.5t105.5 17.5zM339 129q29 1 50.5 9t36 19t21.5 25t7 27q0 10 -2.5 19.5t-11.5 19t-26.5 18.5t-46.5 18zM352 573q-49 -5 -70 -26t-20 -41q1 -22 15 -35.5t53 -26.5z" />
    <glyph glyph-name="uni0025" unicode="%" horiz-adv-x="718" 
d="M190 0h-136l596 695h135zM103 554q6 32 23 60t42 48.5t56 32.5t64 12t60 -12t45 -32.5t25.5 -48.5t1.5 -60t-23 -60t-42.5 -49t-56.5 -33t-64 -12t-59.5 12t-44.5 33t-25.5 49t-1.5 60zM738 142q-6 -32 -23 -60t-42 -49t-56 -33t-64 -12t-60 12t-45 33t-25.5 49t-1.5 60
t23.5 60t42.5 49t56 33t64 12t59.5 -12t44.5 -33t25.5 -49t1.5 -60zM629 142q4 22 -7.5 37.5t-31.5 15.5q-22 0 -38.5 -15.5t-21.5 -37.5q-4 -23 7.5 -38t33.5 -15q20 0 37 15t21 38zM310 554q4 22 -8 37t-32 15t-37 -15t-21 -37q-4 -23 7.5 -38t32.5 -15q20 0 37 15t21 38z
" />
    <glyph glyph-name="uni0026" unicode="&#x26;" horiz-adv-x="719" 
d="M221 413q-22 33 -27 75q-2 21 3 45q8 45 31.5 78.5t56.5 55t74 32t85 10.5q26 0 51.5 -4.5t48.5 -15.5t41 -29t27 -45q10 -31 3 -76q-5 -31 -20 -58t-36.5 -49.5t-48 -40.5t-53.5 -31l70 -96l84 93h164l-177 -194l116 -163h-175l-46 66q-48 -39 -100 -60t-114 -21
q-32 0 -62.5 5.5t-57 19t-47 35.5t-32.5 54q-14 36 -5 91q6 34 22 63t38.5 52.5t51 41.5t59.5 31q-7 10 -13 18.5t-12 16.5zM220 160q8 -28 31.5 -40.5t51.5 -12.5q23 0 36 4.5t27 11.5q14 8 28 18.5t28 21.5l-96 134q-17 -7 -34.5 -16.5t-32.5 -22t-26 -27.5t-15 -35
q-3 -21 2 -36zM342 502q5 -20 16 -34t25 -28q12 7 28 16.5t30.5 21t25 24.5t13.5 28q6 32 -12 50q-17 16 -46 16q-31 0 -55 -18.5t-28 -50.5q-1 -13 3 -25z" />
    <glyph glyph-name="uni0027" unicode="'" horiz-adv-x="383" 
d="M265 612h141l-137 -275h-125z" />
    <glyph glyph-name="uni0028" unicode="(" horiz-adv-x="326" 
d="M419 648q-36 -45 -66.5 -87.5t-55 -87t-42 -93.5t-28.5 -107q-5 -29 -7.5 -55t-1.5 -50q0 -38 5 -72t14 -66.5t22 -65t28 -67.5l-129 -58l-1 4q-50 102 -68 204q-18 105 3 226q22 125 79 229t138 200l2 4z" />
    <glyph glyph-name="uni0029" unicode=")" horiz-adv-x="327" 
d="M337 299q-22 -126 -78.5 -230t-137.5 -200l-3 -4l-108 58q35 44 65.5 86.5t55.5 87.5t43 94.5t28 107.5q5 28 7.5 54t1.5 51q0 38 -5 72t-14 66.5t-22 65t-28 66.5l129 58l1 -4q26 -51 42.5 -101.5t25.5 -102.5q20 -105 -3 -225z" />
    <glyph glyph-name="uni002A" unicode="*" horiz-adv-x="472" 
d="M370 307l-62 112l-98 -108l-69 60l101 107l-122 44l48 93l119 -46l24 135h100l-24 -135l135 42l13 -92l-135 -41l62 -112z" />
    <glyph glyph-name="uni002B" unicode="+" horiz-adv-x="552" 
d="M379 186l-27 -155h-141l27 155h-146l22 127h147l27 156h141l-27 -156h146l-22 -127h-147z" />
    <glyph glyph-name="uni002C" unicode="," horiz-adv-x="292" 
d="M258 155l-136 -276h-125l121 276h140z" />
    <glyph glyph-name="uni002D" unicode="-" horiz-adv-x="296" 
d="M68 309h246l-17 -120h-246z" />
    <glyph glyph-name="uni002E" unicode="." horiz-adv-x="296" 
d="M240 50q-10 -17 -24.5 -29.5t-32 -19.5t-36.5 -7t-35 7t-26.5 19.5t-15.5 29.5t-2 36t12.5 36t23.5 29.5t32 19.5t37 7q38 0 61 -27t18 -65q-3 -19 -12 -36z" />
    <glyph glyph-name="uni002F" unicode="/" horiz-adv-x="407" 
d="M402 761l110 -35l-410 -779l-107 35z" />
    <glyph glyph-name="uni0030" unicode="0" horiz-adv-x="581" 
d="M95 347q6 30 16 67.5t26.5 77.5t40.5 78t58 68t78.5 48.5t101.5 18.5q62 0 101 -21t62 -54t32 -73.5t10 -80.5t-3 -74t-8 -55q-6 -33 -16.5 -72.5t-27.5 -79.5t-41.5 -77.5t-58 -66t-77 -46t-99.5 -17.5q-79 0 -123.5 34.5t-64 88t-19 116.5t11.5 120zM311 114
q36 0 62.5 22t44.5 54t29 69.5t17 68.5q4 16 8 40.5t5.5 53t-0.5 56.5t-11 51t-26.5 37t-46.5 14q-33 0 -58.5 -20t-44.5 -52.5t-32 -74.5t-21 -86q-7 -42 -10 -83.5t3.5 -75t25.5 -54t55 -20.5z" />
    <glyph glyph-name="uni0031" unicode="1" horiz-adv-x="463" 
d="M304 0h-143l100 564h-111l22 128h254z" />
    <glyph glyph-name="uni0032" unicode="2" horiz-adv-x="581" 
d="M49 -1l25 145l313 242q3 3 15.5 13t27 24.5t27 32t16.5 35.5q3 11 1.5 25.5t-10 28t-25 22.5t-43.5 9q-29 0 -49.5 -11t-33.5 -26.5t-20 -31.5t-9 -26l-140 10q11 50 36.5 89.5t62.5 67.5t82.5 42.5t95.5 14.5q39 0 78 -11q24 -7 46.5 -20.5t40 -35t27.5 -51.5t8 -72
q-2 -37 -17 -69t-35 -58.5t-42 -46.5t-37 -32l-238 -182h303l-22 -128h-484z" />
    <glyph glyph-name="uni0033" unicode="3" horiz-adv-x="573" 
d="M495 375q30 -14 47.5 -45.5t22 -70.5t-4.5 -80t-32 -74q-24 -35 -52.5 -57.5t-60 -36t-65.5 -19t-69 -5.5t-73 8.5t-70.5 30.5t-54 58.5t-23.5 91.5l139 27q0 -28 9.5 -45t24.5 -26t33.5 -12t36.5 -3q40 -1 64 15t37 33q17 23 18.5 54.5t-7.5 53.5q-7 17 -23.5 29.5
t-40.5 14.5q-16 2 -34.5 2h-32.5h-17l18 106h13q29 0 65 2.5t63 16.5q15 8 26 23t14 33t-3.5 35.5t-27.5 30.5q-22 12 -48 12q-32 0 -60.5 -19t-41.5 -51l-135 29q10 42 35 73.5t59 52.5t74.5 31.5t80.5 10.5q50 0 91.5 -13t70.5 -40q33 -32 42.5 -83.5t-13.5 -108.5
q-10 -26 -26 -42t-32 -26q-18 -11 -37 -17z" />
    <glyph glyph-name="uni0034" unicode="4" horiz-adv-x="581" 
d="M492 139l-24 -139h-128l24 139h-316l20 116l391 438h131l-77 -438h91l-23 -116h-89zM386 255l40 238l-219 -238h179z" />
    <glyph glyph-name="uni0035" unicode="5" horiz-adv-x="575" 
d="M595 571h-286l-19 -105q9 2 20.5 3t23.5 1q53 0 99.5 -18t81.5 -58q28 -32 43 -76t5 -97q-9 -50 -32.5 -92.5t-59 -73t-80.5 -47.5t-96 -17q-43 0 -81.5 11.5t-69.5 34t-52.5 56.5t-29.5 78l134 30q5 -38 34.5 -62.5t67.5 -24.5q40 0 67 16t42.5 39t20.5 48t2 43
q-4 23 -15.5 40.5t-27.5 28.5t-36 16.5t-42 5.5q-48 0 -92.5 -12t-87.5 -31l67 386h421z" />
    <glyph glyph-name="uni0036" unicode="6" horiz-adv-x="579" 
d="M584 220q-7 -43 -29 -84.5t-57 -74.5t-83 -53t-107 -20q-6 0 -12 0.5t-12 0.5q-50 4 -91.5 24t-70 52.5t-42.5 76t-8 93.5q4 36 16 66t30 58t42.5 57t52.5 63l177 213h166l-186 -223q3 2 13 2.5t15 0.5q31 -1 67.5 -18t66 -49.5t46 -79t6.5 -105.5zM313 112q57 0 96 35
t44 92q2 25 -5.5 46t-22.5 36.5t-36.5 24.5t-45.5 9q-26 0 -49 -9t-41.5 -24.5t-30.5 -37.5t-16 -47t2.5 -47.5t21 -39.5t36 -27t47.5 -11z" />
    <glyph glyph-name="uni0037" unicode="7" horiz-adv-x="581" 
d="M100 0l377 564h-340l22 129h507l-23 -129l-375 -564h-168z" />
    <glyph glyph-name="uni0038" unicode="8" horiz-adv-x="602" 
d="M598 488q-7 -36 -25 -60.5t-43 -40.5q38 -30 57 -76.5t10 -109.5q-8 -54 -33 -94t-61.5 -66.5t-81 -39.5t-91.5 -13q-54 0 -101 16.5t-80.5 46.5t-52 72t-17.5 94q2 60 37 110.5t98 79.5q-32 32 -35 85q-2 39 13.5 77t45.5 68.5t72 49t92 18.5q48 0 87.5 -17t66.5 -46.5
t38.5 -69t3.5 -84.5zM219 229q-2 -22 4.5 -43.5t21.5 -38t38 -26.5t54 -10q50 0 84.5 29.5t39.5 80.5q2 24 -4.5 45.5t-21.5 37.5t-36.5 25.5t-49.5 9.5q-57 0 -91.5 -32.5t-38.5 -77.5zM394 580q-39 0 -62 -24.5t-22 -55.5q1 -29 19.5 -49t56.5 -20q26 0 50 16.5t30 49.5
q4 21 -1 36.5t-15.5 26t-25.5 15.5t-30 5z" />
    <glyph glyph-name="uni0039" unicode="9" horiz-adv-x="579" 
d="M312 0h-166l186 223q-3 -2 -13 -2.5t-15 -0.5q-31 1 -67.5 18t-66 49t-46 78.5t-6.5 106.5q7 43 29 84.5t57 74t82.5 52.5t106.5 20h24q50 -4 91.5 -24t70.5 -52.5t43 -76t8 -93.5q-4 -36 -16 -66t-30 -58t-42 -57t-53 -63zM358 336q26 0 49.5 9t42 25t30.5 37.5t16 46.5
q4 26 -2.5 48.5t-21 39.5t-36 27t-47.5 11q-28 0 -53 -9t-43.5 -26t-30 -40t-13.5 -52q-2 -25 5.5 -46t22.5 -37t36 -25t45 -9z" />
    <glyph glyph-name="uni003A" unicode=":" horiz-adv-x="296" 
d="M216 21q-15 -13 -32.5 -20t-36.5 -7t-35 7t-26.5 19.5t-15.5 29.5t-2 36t12.5 36t23.5 29.5t32 19.5t37 7q38 0 61 -27t18 -65q-3 -19 -12.5 -36t-23.5 -29zM252 491q16 -7 27 -19.5t16 -29.5t2 -36t-12.5 -36t-24 -29.5t-32 -19.5t-36.5 -7t-35 7t-26.5 19.5t-15.5 29.5
t-2 36t12 36t23.5 29.5t32 19.5t36.5 7t35 -7z" />
    <glyph glyph-name="uni003B" unicode=";" horiz-adv-x="296" 
d="M257 162l-129 -282h-128l113 282h144zM261 341q-15 -13 -32.5 -20t-36.5 -7t-35 7t-26.5 19.5t-15.5 29.5t-2 36t12 36t23.5 29.5t32 19.5t36.5 7t35 -7t27 -19.5t16 -29.5t2 -36t-12.5 -36t-23.5 -29z" />
    <glyph glyph-name="uni003C" unicode="&#x3c;" horiz-adv-x="666" 
d="M131 366l534 198l-19 -136l-335 -124v-2l300 -124l-20 -136l-478 198z" />
    <glyph glyph-name="uni003D" unicode="=" horiz-adv-x="565" 
d="M82 129l22 127h448l-22 -127h-448zM590 472l-22 -127h-448l22 127h448z" />
    <glyph glyph-name="uni003E" unicode="&#x3e;" horiz-adv-x="666" 
d="M439 302v2l-299 124l19 136l478 -198l-18 -126l-534 -198l20 136z" />
    <glyph glyph-name="uni003F" unicode="?" horiz-adv-x="556" 
d="M406 726q46 0 85 -12.5t66 -37.5t40 -62t6 -85q-4 -29 -13.5 -52.5t-27 -46.5t-44.5 -46.5t-67 -51.5q-26 -18 -36 -35t-13 -34l-4 -29h-150l7 44q4 30 15 51t32 39q31 27 57.5 47t46 37.5t31.5 33t14 32.5q5 33 -13 51.5t-49 18.5q-47 0 -75 -26t-36 -63l-153 10
q26 106 101 161.5t180 55.5zM213 50q-5 17 -2 36t12.5 36t23.5 29.5t32 19.5t37 7q38 0 61 -27t18 -65q-3 -19 -12.5 -36t-24 -29.5t-32 -19.5t-36.5 -7t-35 7t-26.5 19.5t-15.5 29.5z" />
    <glyph glyph-name="uni0040" unicode="@" horiz-adv-x="795" 
d="M635 237q11 0 22.5 5.5t22 19.5t20 37.5t15.5 59.5q9 50 -3.5 93.5t-41.5 75.5t-71.5 51t-95.5 19q-52 0 -101.5 -20t-90 -54.5t-68.5 -81t-37 -99.5q-9 -52 3 -98.5t40.5 -81t70.5 -54.5t94 -20q56 0 111 26l28 -97q-78 -36 -157 -36q-80 0 -142.5 30t-102 80t-55.5 115
t-3 136q14 78 55.5 144.5t100.5 114.5t130 75.5t143 27.5q77 0 139 -27.5t103 -75t58 -110t5 -133.5q-19 -107 -77 -163.5t-142 -56.5q-37 0 -67 19t-35 59q-16 -18 -44 -28t-56 -10q-33 0 -59 13t-42 35.5t-22 52t0 63.5q6 33 22.5 63t40.5 52t54 35t63 13q26 0 51.5 -8
t33.5 -27l5 30h97l-39 -221q-5 -25 4 -34t20 -9zM437 262q34 0 60.5 23t32.5 57t-12.5 56.5t-52.5 22.5t-60 -22.5t-32 -56.5t12 -57t52 -23z" />
    <glyph glyph-name="uni0041" unicode="A" horiz-adv-x="737" 
d="M526 168h-261l-94 -168h-171l421 692h139l179 -692h-175zM328 280h173l-49 220z" />
    <glyph glyph-name="uni0042" unicode="B" horiz-adv-x="598" 
d="M613 205q-3 -34 -15.5 -70.5t-39.5 -66.5t-72 -49.5t-113 -19.5l-259 1h-42l122 693h251q42 0 75 -14.5t55 -39t32.5 -56t7.5 -65.5q-8 -106 -90 -147q29 -10 47.5 -28.5t28 -41t12 -47.5t0.5 -49zM367 129q42 0 72 19t34 65q4 38 -18 60.5t-63 22.5h-125l-29 -167h129z
M288 414h92q79 0 95 76q3 13 -0.5 27t-12 25t-22.5 18.5t-32 7.5h-93z" />
    <glyph glyph-name="uni0043" unicode="C" horiz-adv-x="705" 
d="M717 487q-27 24 -60 44q-28 17 -67 30.5t-87 13.5q-57 1 -104.5 -19t-82 -54t-55 -78t-22.5 -91q-3 -49 13 -88t46.5 -66.5t74 -42.5t96.5 -17h8q46 0 84 11t67 25q33 16 60 36q-6 -39 -11 -71q-5 -28 -9 -53t-6 -33q-21 -13 -47 -23t-54 -16.5t-56 -9.5t-52 -3
q-89 0 -160.5 30t-119 81.5t-67.5 121.5t-7 150q12 74 48 136t90 107t123 70.5t146 25.5q63 0 124 -17.5t111 -59.5q-5 -26 -9 -50.5t-7 -44.5q-4 -24 -8 -45z" />
    <glyph glyph-name="uni0044" unicode="D" horiz-adv-x="713" 
d="M739 346q-9 -72 -34 -135t-72.5 -110t-121.5 -74t-180 -27h-259l122 693h250q82 0 141 -28t96 -75.5t51.5 -110.5t6.5 -133zM381 138q41 0 79.5 15t70 42t52.5 65.5t27 85.5q6 44 -1 81.5t-26.5 65t-51.5 43.5t-77 16h-128l-73 -414h128z" />
    <glyph glyph-name="uni0045" unicode="E" horiz-adv-x="600" 
d="M642 570h-320l-27 -154h301l-22 -123h-301l-30 -171h326l-21 -122h-470l122 693h464z" />
    <glyph glyph-name="uni0046" unicode="F" horiz-adv-x="564" 
d="M625 572h-303l-29 -160h276l-21 -123h-276l-51 -289h-143l122 694h446z" />
    <glyph glyph-name="uni0047" unicode="G" horiz-adv-x="782" 
d="M732 87q-28 -29 -68 -52q-35 -20 -87.5 -36.5t-124.5 -16.5q-87 1 -156.5 29.5t-116.5 77.5t-68.5 116t-13.5 146q7 70 41 134.5t89 114t127.5 78.5t156.5 28q69 -2 128.5 -21t103.5 -57q-3 -15 -7 -38.5t-8 -46.5q-5 -26 -10 -55q-44 42 -103 65.5t-120 23.5
q-47 0 -90 -17t-77 -46t-57 -69t-29 -85q-8 -54 4.5 -99t40.5 -77.5t69 -51.5t90 -22q49 0 87.5 9.5t80.5 36.5l22 121h-218l20 116h349z" />
    <glyph glyph-name="uni0048" unicode="H" horiz-adv-x="730" 
d="M659 0h-143l55 311h-301l-55 -311h-143l122 693h144l-46 -259h301l45 259h144z" />
    <glyph glyph-name="uni0049" unicode="I" horiz-adv-x="303" 
d="M196 693h153l-122 -693h-153z" />
    <glyph glyph-name="uni004A" unicode="J" horiz-adv-x="354" 
d="M330 214q-20 -118 -80.5 -173.5t-175.5 -55.5q-20 0 -40.5 1.5t-39.5 5.5l23 132q17 -4 32 -5.5t28 -1.5q94 0 110 98l84 475h143z" />
    <glyph glyph-name="uni004B" unicode="K" horiz-adv-x="701" 
d="M450 370l270 -370h-175l-261 357l-63 -357h-143l122 693h143l-51 -288l320 286h202z" />
    <glyph glyph-name="uni004C" unicode="L" horiz-adv-x="514" 
d="M523 122l-21 -122h-424l122 694h144l-101 -572h280z" />
    <glyph glyph-name="uni004D" unicode="M" horiz-adv-x="894" 
d="M687 0l91 521l-270 -521h-121l-83 529l-96 -529h-136l122 693h219l77 -439l237 439h218l-122 -693h-136z" />
    <glyph glyph-name="uni004E" unicode="N" horiz-adv-x="771" 
d="M517 0l-214 540l-95 -540h-136l122 693h198l197 -496l88 495h145l-122 -692h-183z" />
    <glyph glyph-name="uni004F" unicode="O" horiz-adv-x="814" 
d="M87 334q6 81 41 149t91.5 117t129 76.5t152.5 27.5q82 0 151 -30t116 -81.5t68 -119.5t7 -145q-13 -77 -49.5 -141t-90 -109.5t-121 -70.5t-143.5 -25q-78 0 -144.5 25.5t-114.5 71.5t-73.5 111t-19.5 144zM444 110q50 0 94.5 17.5t78.5 48.5t56.5 73.5t28.5 91.5
q7 55 -7 98.5t-44 74t-72 46.5t-92 16q-52 0 -97 -21t-79.5 -54.5t-56 -76t-24.5 -86.5q-3 -49 10.5 -90.5t41 -72t69 -48t93.5 -17.5z" />
    <glyph glyph-name="uni0050" unicode="P" horiz-adv-x="607" 
d="M661 454q-6 -42 -22.5 -83.5t-48 -74.5t-81.5 -53.5t-124 -20.5h-138l-39 -222h-136l122 692h274q37 0 74.5 -19t66 -51t44 -75.5t8.5 -92.5zM366 361q38 0 63.5 6.5t41 19t24.5 29.5t14 38q5 18 1 37t-16.5 34t-33 24.5t-48.5 9.5h-106l-35 -198h95z" />
    <glyph glyph-name="uni0051" unicode="Q" horiz-adv-x="875" 
d="M840 -5h-169l-26 37q-45 -24 -94.5 -37t-103.5 -13q-78 0 -144.5 25.5t-114.5 72t-73.5 111.5t-19.5 144q6 81 41.5 149t91.5 117t128.5 76.5t152.5 27.5q82 0 151 -30t116 -81.5t68.5 -119.5t7.5 -145q-11 -63 -37 -116.5t-64 -96.5zM239 339q-4 -49 9.5 -91t41 -72.5
t69 -47.5t93.5 -17q60 0 115 26l-115 158h168l49 -67q33 50 42 114q7 55 -7.5 98.5t-44 74t-72 46.5t-91.5 16q-52 -1 -97.5 -21.5t-80 -54t-55.5 -76t-24 -86.5z" />
    <glyph glyph-name="uni0052" unicode="R" horiz-adv-x="621" 
d="M614 0h-161l-100 222h-106l-39 -222h-136l122 693l136 -1h138q37 0 74.5 -19t66 -51t44.5 -75.5t9 -92.5q-5 -32 -15.5 -64t-28.5 -60.5t-46 -51.5t-67 -37zM271 361h95q38 0 63.5 6.5t41.5 19t24.5 29.5t14.5 38q5 18 0.5 37t-16.5 34t-32.5 24.5t-49.5 9.5h-106z" />
    <glyph glyph-name="uni0053" unicode="S" horiz-adv-x="634" 
d="M615 516q-61 29 -112.5 40.5t-105.5 11.5q-33 0 -55.5 -6.5t-36 -16.5t-19.5 -22t-6 -24q0 -13 6 -23.5t19.5 -19t36.5 -17t59 -17.5l21 -6q54 -16 92 -34t62 -41.5t35 -53.5t12 -70q4 -112 -67.5 -173.5t-214.5 -61.5q-85 0 -157.5 21.5t-137.5 65.5l26 147
q59 -47 129.5 -70.5t145.5 -23.5q32 0 55 7.5t39 19.5t23.5 26.5t7.5 27.5q0 11 -3 21t-14 20t-31.5 19.5t-55.5 19.5l-49 14q-34 12 -67.5 26.5t-60.5 34.5t-44 47.5t-17 66.5q0 57 23 100.5t60.5 73t86.5 44t101 14.5t117 -15t120 -44z" />
    <glyph glyph-name="uni0054" unicode="T" horiz-adv-x="642" 
d="M263 0l100 566h-257l22 127h629l-22 -127h-230l-98 -566h-144z" />
    <glyph glyph-name="uni0055" unicode="U" horiz-adv-x="731" 
d="M707 273q-11 -60 -33 -113t-60 -92.5t-94.5 -62.5t-137.5 -23q-70 0 -124 23t-88 62.5t-47 92.5t-3 113l73 415h137l-73 -415q-5 -30 -1 -60t19.5 -53.5t44 -38.5t72.5 -15q43 0 74 14t52 37.5t33.5 53.5t19.5 62l73 415h136z" />
    <glyph glyph-name="uni0056" unicode="V" horiz-adv-x="702" 
d="M415 0h-134l-157 692l157 1l106 -470l266 470h169z" />
    <glyph glyph-name="uni0057" unicode="W" horiz-adv-x="951" 
d="M917 693l158 -1l-318 -692h-129l-71 479l-234 -479h-120l-83 692l151 1l37 -432l213 432h142l65 -432z" />
    <glyph glyph-name="uni0058" unicode="X" horiz-adv-x="660" 
d="M485 359l176 -359h-176l-113 242l-196 -242h-175l291 354l-158 339h162l106 -227l185 227h170z" />
    <glyph glyph-name="uni0059" unicode="Y" horiz-adv-x="622" 
d="M263 693l115 -286l216 286h170l-342 -449l-43 -244h-136l43 243l-184 450h161z" />
    <glyph glyph-name="uni005A" unicode="Z" horiz-adv-x="605" 
d="M254 128h340l-23 -128h-535l23 128l413 437h-336l22 127h524l-23 -127z" />
    <glyph glyph-name="uni005B" unicode="[" horiz-adv-x="296" 
d="M254 -156h-210l124 888h210l-12 -90h-90l-100 -708h90z" />
    <glyph glyph-name="uni005C" unicode="\" horiz-adv-x="407" 
d="M217 761l190 -779l-118 -35l-190 779z" />
    <glyph glyph-name="uni005D" unicode="]" horiz-adv-x="296" 
d="M122 732h210l-124 -888h-209l11 90h90l100 708h-90z" />
    <glyph glyph-name="uni005E" unicode="^" horiz-adv-x="666" 
d="M414 581l-145 -238h-141l231 365h146l129 -365h-142z" />
    <glyph glyph-name="uni005F" unicode="_" horiz-adv-x="500" 
d="M-10 -75h499l-7 -50h-499z" />
    <glyph glyph-name="uni0060" unicode="`" horiz-adv-x="260" 
d="M311 564h-132l-153 144h204z" />
    <glyph glyph-name="uni0061" unicode="a" horiz-adv-x="621" 
d="M521 503h142l-90 -504h-141l10 52q-26 -28 -61.5 -44t-86.5 -16q-47 0 -88 15.5t-71 44.5t-47.5 71t-18.5 95q-2 61 19 114.5t58.5 93.5t88.5 63t109 23q63 0 104 -18t63 -50zM268 363q-24 -17 -39 -42t-19.5 -53t1.5 -57t24 -53q17 -23 42.5 -34.5t53.5 -11.5
q45 0 80 26q23 17 38 42.5t20 55t-0.5 59.5t-24.5 55q-17 22 -40.5 33t-49.5 11q-46 0 -86 -31z" />
    <glyph glyph-name="uni0062" unicode="b" horiz-adv-x="622" 
d="M643 286q2 -60 -19.5 -113.5t-59 -93.5t-88 -63.5t-108.5 -23.5q-64 0 -105 18.5t-62 50.5l-11 -60h-142l124 692h141l-43 -240q26 27 61.5 43t86.5 16q47 0 87.5 -15t70.5 -44t48 -71t19 -96zM300 366q-23 -17 -38 -43t-20 -55t1 -58.5t25 -55.5q16 -22 39.5 -33
t49.5 -11q46 0 86 31q24 17 39 42t19.5 53t-1.5 57t-24 53q-17 23 -42.5 34.5t-53.5 11.5q-21 0 -42 -6.5t-38 -19.5z" />
    <glyph glyph-name="uni0063" unicode="c" horiz-adv-x="522" 
d="M525 338q-28 22 -66.5 33.5t-73.5 11.5q-37 0 -66.5 -10t-51 -27.5t-34 -41t-15.5 -49.5q-4 -33 5.5 -59.5t29 -45t46.5 -28.5t57 -12h11q34 0 60 7.5t45 15.5q22 10 38 23q-5 -31 -10 -56q-4 -22 -7 -42t-5 -25q-38 -26 -73 -35.5t-77 -9.5q-64 0 -114.5 22t-84.5 60
t-48 88.5t-5 107.5q9 53 35.5 97.5t65.5 76.5t88.5 50t103.5 18q45 0 88 -12t79 -39q-3 -18 -7 -39t-7 -39q-4 -21 -7 -41z" />
    <glyph glyph-name="uni0064" unicode="d" horiz-adv-x="622" 
d="M552 694h143l-125 -694h-141l10 52q-26 -28 -61.5 -44t-86.5 -16q-47 0 -87.5 15.5t-70.5 44.5t-48 71t-19 96q-2 60 19 113.5t58.5 93.5t88.5 63t109 23q63 0 104.5 -18t62.5 -50zM266 364q-24 -17 -39 -42t-20 -53t1 -57t24 -53q17 -23 42.5 -34.5t53.5 -11.5
q46 0 80 26q23 17 38 43t20.5 55t-0.5 59t-25 55q-17 22 -40.5 33t-49.5 11q-22 0 -43.5 -7.5t-41.5 -23.5z" />
    <glyph glyph-name="uni0065" unicode="e" horiz-adv-x="603" 
d="M220 216q-3 -28 7 -49t28 -35t42 -21.5t50 -7.5q54 0 105.5 13t98.5 40q-5 -27 -9 -51q-3 -20 -6.5 -39.5t-5.5 -29.5q-52 -26 -100 -37t-107 -11q-52 1 -98.5 19.5t-80.5 52.5t-51 81.5t-10 107.5q8 62 34 110.5t65.5 82t89 51t103.5 17.5q53 0 98.5 -18.5t78 -51.5
t48.5 -79t11 -102q-1 -9 -3 -21.5t-5 -21.5h-383zM371 398q-21 0 -43 -5t-41.5 -17t-35 -30.5t-23.5 -45.5h252q1 30 -10 49t-28 30t-36 15t-35 4z" />
    <glyph glyph-name="uni0066" unicode="f" horiz-adv-x="357" 
d="M462 579q-5 1 -12 3q-5 1 -12.5 1.5t-16.5 0.5q-29 0 -53 -12.5t-29 -44.5l-5 -26h101l-21 -122h-101l-67 -379h-136l67 379h-89l21 122h90l4 25q17 92 71.5 133t142.5 41q23 0 41 -1.5t24 -2.5z" />
    <glyph glyph-name="uni0067" unicode="g" horiz-adv-x="619" 
d="M660 503l-81 -461q-13 -73 -43 -122t-74 -79t-99 -43t-118 -13q-45 0 -82 7t-63.5 17t-42 19.5t-19.5 14.5l22 125q5 -5 23 -15t44.5 -19.5t60 -17t67.5 -7.5q59 0 108 26t69 85l6 34q-26 -28 -61.5 -44t-86.5 -16q-47 0 -87.5 15.5t-70.5 44.5t-47.5 71t-19.5 95
q-1 61 20 114.5t58.5 93.5t88 63t108.5 23q64 0 105 -18t62 -50l11 60h142l-1 -3h1zM232 161q17 -23 42.5 -34.5t53.5 -11.5q21 0 42 6.5t38 19.5q23 17 38 42.5t20 55t-1 59.5t-25 55q-16 22 -39.5 33t-49.5 11q-46 0 -86 -31q-24 -17 -39 -42t-19.5 -53t1.5 -57t24 -53z
" />
    <glyph glyph-name="uni0068" unicode="h" horiz-adv-x="591" 
d="M447 272q2 8 3 15.5t0 14.5q-1 38 -25.5 60t-67.5 22q-45 0 -76.5 -29.5t-42.5 -80.5l-47 -274h-137l122 693h138l-45 -257l14 13q28 24 64 39.5t74 15.5q78 0 124 -44t48 -121q2 -24 -3 -50l-53 -289h-137z" />
    <glyph glyph-name="uni0069" unicode="i" horiz-adv-x="262" 
d="M61 0l90 508h148l-90 -508h-148zM252 712q36 0 58.5 -24t16.5 -57t-30 -53.5t-56 -20.5q-34 0 -56 21t-19 55q2 29 24 53.5t62 25.5z" />
    <glyph glyph-name="uni006A" unicode="j" horiz-adv-x="289" 
d="M215 -19q-17 -96 -63.5 -144t-142.5 -48q-18 0 -35.5 1.5t-33.5 3.5l22 125q19 -3 36 -3q35 0 52 19.5t23 54.5l91 518h143zM338 631q-6 -33 -30 -53.5t-57 -20.5t-55 21t-20 55q2 29 24.5 53.5t62.5 25.5q18 0 32.5 -6.5t25 -17.5t15.5 -25.5t2 -31.5z" />
    <glyph glyph-name="uni006B" unicode="k" horiz-adv-x="523" 
d="M54 0l122 692h144l-71 -399l183 207h167l-214 -239l141 -261h-169l-120 226l-39 -226h-144z" />
    <glyph glyph-name="uni006C" unicode="l" horiz-adv-x="258" 
d="M178 694h148l-122 -694h-148z" />
    <glyph glyph-name="uni006D" unicode="m" horiz-adv-x="873" 
d="M546 421l8 10q60 79 169 79q35 0 63.5 -12t48.5 -33.5t31.5 -51t11.5 -63.5q0 -26 -4 -49l-55 -301h-140l52 293q1 5 1.5 10.5t0.5 11.5q-2 77 -76 77q-39 0 -66 -26.5t-36 -73.5l-52 -292h-140l52 290q1 8 1 14.5v10.5q-2 77 -73 77q-40 0 -67 -27.5t-35 -75.5l-51 -289
h-137l88 501h137l-12 -68q15 27 42.5 45t56.5 26q2 1 5 1q3 1 11 3q7 1 13.5 1.5t11.5 0.5q51 0 85.5 -20t50.5 -58z" />
    <glyph glyph-name="uni006E" unicode="n" horiz-adv-x="593" 
d="M450 278q3 18 3 30q-2 39 -26.5 61t-67.5 22q-45 0 -77.5 -30t-42.5 -81l-48 -280h-138l88 501h139l-10 -58l15 14q27 24 64 39.5t74 15.5q78 0 125 -44.5t49 -121.5q0 -13 -1 -25.5t-3 -24.5l-53 -296h-138z" />
    <glyph glyph-name="uni006F" unicode="o" horiz-adv-x="590" 
d="M63 242q4 59 29.5 107.5t66 84t92.5 55t110 19.5q59 0 108.5 -21.5t83 -58.5t49 -86.5t5.5 -104.5t-36 -101t-64.5 -79t-87 -51t-103.5 -18q-56 0 -104 18.5t-82.5 51.5t-52.5 80t-14 104zM323 112q60 0 101.5 38t49.5 97q4 32 -4.5 57.5t-25.5 43.5t-42 27.5t-54 9.5
q-30 0 -56.5 -12.5t-47 -32t-32.5 -44.5t-14 -51q-2 -28 5.5 -52.5t24 -42.5t40.5 -28t55 -10z" />
    <glyph glyph-name="uni0070" unicode="p" horiz-adv-x="622" 
d="M643 281q2 -61 -19.5 -114.5t-59 -93.5t-88.5 -63t-109 -23q-63 0 -104 18.5t-63 50.5l-44 -251h-142l124 694h141l-10 -52q26 28 61.5 44t86.5 16q47 0 88 -15t71 -44t48 -71t19 -96zM300 360q-23 -17 -38 -42.5t-20 -54.5t0.5 -59t24.5 -55q17 -23 40.5 -34t49.5 -11
q44 0 86 31q24 17 39 42t19.5 53.5t-1.5 57t-24 53.5q-17 23 -42.5 34t-53.5 11q-45 0 -80 -26z" />
    <glyph glyph-name="uni0071" unicode="q" horiz-adv-x="622" 
d="M517 497h142l-123 -692h-141l43 240q-26 -28 -61.5 -44t-86.5 -16q-47 0 -88 15.5t-71 44.5t-47.5 71t-19.5 95q-1 61 20 114.5t58.5 93.5t88.5 63t109 23q63 0 104 -18t63 -50zM264 357q-24 -17 -39 -42t-19.5 -53.5t1.5 -57t24 -53.5q17 -23 42.5 -34t53.5 -11
q21 0 42 6.5t38 19.5q23 17 38 42.5t20 54.5t-0.5 59t-24.5 55q-17 23 -40.5 34t-49.5 11q-46 0 -86 -31z" />
    <glyph glyph-name="uni0072" unicode="r" horiz-adv-x="399" 
d="M391 374q-61 0 -104.5 -32.5t-54.5 -95.5l-43 -246h-136l88 501h136l-12 -68q26 38 64 58t92 20q11 0 22 -0.5t19 -2.5l-24 -139q-22 5 -47 5z" />
    <glyph glyph-name="uni0073" unicode="s" horiz-adv-x="482" 
d="M458 357q-43 20 -78 28.5t-73 8.5q-39 0 -57 -13t-18 -29q0 -9 4 -14.5t13 -10t24 -9.5t39 -11l15 -4q36 -10 64.5 -20.5t48.5 -26t31 -38.5t12 -58q1 -39 -14 -70.5t-43 -54t-68 -35t-89 -12.5q-117 0 -206 61l21 117q81 -66 185 -66q45 0 65 14.5t19 31.5
q-1 20 -17.5 28.5t-62.5 22.5l-26 8q-25 8 -50 17.5t-44.5 23.5t-32 35t-13.5 52q-2 80 53 127.5t151 47.5q36 0 82.5 -8.5t84.5 -29.5z" />
    <glyph glyph-name="uni0074" unicode="t" horiz-adv-x="379" 
d="M420 495l-22 -122h-110l-31 -175q-9 -58 20 -79q7 -5 16 -7t18 -2q19 0 37.5 5.5t29.5 10.5l-22 -122q-14 -5 -39 -10.5t-55 -5.5q-25 0 -49.5 6.5t-45.5 20.5q-18 13 -29 31t-16 38t-6 39.5t-0.5 35.5t2.5 26l2 10l32 178h-72l21 123h72l35 192h137l-34 -193h109z" />
    <glyph glyph-name="uni0075" unicode="u" horiz-adv-x="569" 
d="M560 210q-19 -106 -83.5 -164t-173.5 -58q-46 0 -87 13t-72 38t-49.5 62t-19.5 86q-1 15 1 33t6 38l43 239h137l-47 -271q-3 -17 -2 -31q1 -31 23.5 -56.5t69.5 -25.5q50 0 79.5 27t37.5 77l51 280h136z" />
    <glyph glyph-name="uni0076" unicode="v" horiz-adv-x="564" 
d="M363 0h-152l-121 501h145l73 -333l185 333h157z" />
    <glyph glyph-name="uni0077" unicode="w" horiz-adv-x="758" 
d="M558 191l150 310h143l-251 -501h-143l-32 279l-127 -279h-124l-91 501h134l49 -301l134 301h128z" />
    <glyph glyph-name="uni0078" unicode="x" horiz-adv-x="546" 
d="M409 261l146 -261h-166l-85 156l-139 -156h-172l245 269l-127 232h161l70 -132l117 132h173z" />
    <glyph glyph-name="uni0079" unicode="y" horiz-adv-x="594" 
d="M512 499h167l-419 -694h-165l122 195l-124 499h148l79 -333z" />
    <glyph glyph-name="uni007A" unicode="z" horiz-adv-x="514" 
d="M257 127h246l-22 -127h-446l22 127l292 250h-241l22 124h433l-22 -123z" />
    <glyph glyph-name="uni007B" unicode="{" horiz-adv-x="370" 
d="M243 1q0 -12 5.5 -21.5t17.5 -15.5t35 -6h49l-16 -114h-105q-27 0 -49.5 8t-37.5 26t-21.5 45.5t-0.5 66.5l24 172q3 23 -8 37t-28 21t-35 9t-27 2l16 114q9 0 27.5 2t37.5 9t34.5 21t18.5 37l24 173q6 39 19.5 66.5t33 45t44 25.5t52.5 8h105l-16 -114h-49q-23 0 -37 -6
t-21.5 -15.5t-11 -21t-4.5 -21.5l-22 -161q-5 -35 -17.5 -55t-29 -30.5t-34.5 -14t-34 -4.5v-2q15 -1 32 -4t30.5 -13.5t20 -30.5t2.5 -55l-22 -162q-2 -10 -2 -21z" />
    <glyph glyph-name="uni007C" unicode="|" horiz-adv-x="222" 
d="M279 750l-141 -1000h-126l141 1000h126z" />
    <glyph glyph-name="uni007D" unicode="}" horiz-adv-x="370" 
d="M206 307q-14 10 -21 30t-2 55l22 162q1 10 1.5 21.5t-5 21t-17.5 15.5t-35 6h-49l16 114h108q25 0 47 -8t37 -26t21 -45.5t1 -66.5l-24 -172q-3 -23 8 -37t27.5 -21t34 -9t28.5 -2l-16 -114q-11 0 -29 -2t-37 -9t-34 -21t-18 -37l-24 -173q-6 -39 -19.5 -66.5t-33 -45
t-44 -25.5t-52.5 -8h-104l15 114h49q23 0 37 6t21.5 15.5t10.5 21t5 21.5l22 161q5 35 17.5 55t29 30.5t34.5 13.5t34 5v2q-15 1 -32 4t-30 14z" />
    <glyph glyph-name="uni007E" unicode="~" horiz-adv-x="666" 
d="M486 332q15 0 28 6.5t25 16t23 21.5l22 24l21 -108q-11 -16 -24 -31.5t-30 -27.5t-38 -19.5t-46 -7.5q-26 0 -52.5 9.5t-53.5 22.5q-26 12 -51.5 24t-45.5 12q-15 0 -28.5 -6.5t-25.5 -16t-23 -21.5t-21 -24l-20 108q10 16 23.5 31.5t30.5 27.5t37.5 19.5t45.5 7.5
q26 0 53 -9.5t53 -22.5q26 -12 51.5 -24t45.5 -12z" />
    <glyph glyph-name="uni00A0" unicode="&#xa0;" horiz-adv-x="296" 
 />
    <glyph glyph-name="uni00A1" unicode="&#xa1;" horiz-adv-x="444" 
d="M332 252l-67 -474h-150l67 474h150zM358 364q-10 -17 -24 -29.5t-32 -19.5t-37 -7q-38 0 -61 27t-18 65q3 19 12.5 36t23.5 29.5t32 19.5t37 7q38 0 61 -27t18 -65q-3 -19 -12 -36z" />
    <glyph glyph-name="uni00A2" unicode="&#xa2;" horiz-adv-x="592" 
d="M439 498q51 0 90 -14.5t74 -47.5l-111 -102q-17 20 -35 29t-35 9l-36 -258q11 0 32 6t57 37l76 -107q-21 -18 -46 -30t-49.5 -19t-47.5 -10t-40 -3l-10 -69h-60l10 69q-53 3 -93.5 24t-66 55t-36 79t-2.5 97q7 53 30 97t58 77t81 54t100 27l10 66h60zM264 163
q17 -35 62 -49l36 258q-48 -9 -74.5 -45t-33.5 -83q-7 -46 10 -81z" />
    <glyph glyph-name="uni00A3" unicode="&#xa3;" horiz-adv-x="592" 
d="M352 414h156l-15 -102h-156l-27 -198h253l-16 -114h-499l16 114h96l27 198h-96l15 102h96l10 71q6 45 28 87t58 75t85 53t110 20q57 0 110 -15t89 -53l-115 -107q-17 20 -41 31.5t-44 11.5q-33 0 -57 -11t-40 -28.5t-24.5 -40t-11.5 -45.5z" />
    <glyph glyph-name="uni00A4" unicode="&#xa4;" horiz-adv-x="592" 
d="M114 555l68 59l42 -48q35 23 75 35.5t83 12.5t79 -12.5t65 -35.5l56 48l52 -59l-56 -49q39 -68 27 -152q-12 -85 -70 -152l42 -49l-68 -59l-43 48q-35 -23 -74.5 -35.5t-82.5 -12.5t-79.5 12.5t-65.5 35.5l-55 -48l-52 59l56 49q-19 32 -26.5 70.5t-1.5 81.5t24.5 81.5
t46.5 70.5zM364 488q-27 0 -51.5 -10.5t-44.5 -28.5t-33.5 -42.5t-17.5 -52.5t2.5 -52.5t21.5 -42.5t36.5 -28.5t48.5 -10.5t51.5 10.5t44.5 28.5t33.5 42.5t17.5 52.5t-2.5 52.5t-21.5 42.5t-36.5 28.5t-48.5 10.5z" />
    <glyph glyph-name="uni00A5" unicode="&#xa5;" horiz-adv-x="592" 
d="M578 254l-13 -96h-169l-22 -158h-156l22 158h-169l13 96h169l7 48l-9 20h-157l13 96h100l-144 290h182l113 -264l187 264h182l-226 -290h100l-13 -96h-157l-15 -20l-7 -48h169z" />
    <glyph glyph-name="uni00A6" unicode="&#xa6;" horiz-adv-x="222" 
d="M142 675h126l-49 -350h-126zM23 -175l49 350h126l-49 -350h-126z" />
    <glyph glyph-name="uni00A7" unicode="&#xa7;" horiz-adv-x="592" 
d="M130 380q27 35 72 61q-26 20 -38.5 49.5t-7.5 65.5q6 44 30 76t58 53t73.5 31t77.5 10q32 0 64.5 -5t60.5 -18t50 -34t33 -52l-136 -72q-7 29 -30 45t-53 16q-24 0 -46.5 -13t-26.5 -40q-4 -25 17 -42t53.5 -32t71 -30.5t70 -37.5t50 -53.5t12.5 -76.5q-6 -42 -35 -77
t-67 -53q23 -21 33 -52.5t5 -66.5q-7 -49 -35 -84t-67 -57t-84.5 -32t-85.5 -10q-37 0 -71 6t-62 21t-49 39t-33 60l137 63q4 -36 34.5 -52.5t64.5 -16.5q12 0 26.5 2.5t27 8.5t22 16t11.5 25q3 24 -16.5 39.5t-51 30t-68.5 29.5t-67 37.5t-48 55t-11 80.5q7 51 35 87z
M240 291q5 -13 15 -22.5t23.5 -16.5t26.5 -13l95 -47q37 20 43 61q2 14 -2.5 25.5t-12.5 20t-19 15t-21 11.5l-108 55q-39 -20 -43 -59q-3 -18 3 -30z" />
    <glyph glyph-name="uni00A8" unicode="&#xa8;" horiz-adv-x="260" 
d="M311 558q-35 0 -55.5 25.5t-15.5 60.5q2 16 10.5 31t21.5 26t28.5 18t32.5 7q35 0 57.5 -23t17.5 -59t-32.5 -61t-64.5 -25zM32 644q2 16 10.5 31t21.5 26t28.5 18t32.5 7q35 0 57.5 -23t17.5 -59t-32.5 -61t-64.5 -25q-35 0 -55.5 25.5t-15.5 60.5z" />
    <glyph glyph-name="uni00A9" unicode="&#xa9;" horiz-adv-x="800" 
d="M150 92q-44 50 -64 117.5t-9 144.5t50 144.5t96.5 118t129.5 80t149 29.5t140.5 -29.5t107 -80t63 -118t8.5 -144.5t-49.5 -144.5t-96.5 -118t-129.5 -80t-148.5 -29.5t-140.5 29.5t-106.5 80.5zM185 245q14 -52 45.5 -90t77.5 -60.5t102 -22.5t108 22.5t94 60.5
t70.5 89.5t36.5 109.5t-6 109.5t-45 89.5t-77 60.5t-102 22.5t-108.5 -22.5t-94.5 -60.5t-70.5 -89.5t-36.5 -109.5t6 -109zM261 357q6 46 24.5 84.5t47 66.5t67.5 43.5t87 15.5q68 0 113 -36.5t46 -111.5h-94q-2 32 -22 45t-47 13q-49 0 -77.5 -32t-36.5 -86
q-8 -56 12.5 -91t64.5 -35q32 0 57 15t33 52h94q-11 -39 -31.5 -68t-47 -49t-57.5 -30t-64 -10q-47 0 -82 16.5t-56.5 45.5t-29 68t-1.5 84z" />
    <glyph glyph-name="uni00AA" unicode="&#xaa;" horiz-adv-x="349" 
d="M316 619q3 18 -10 32.5t-39 14.5q-24 0 -45 -10t-39 -26l-45 49q30 23 69 35t77 12q43 0 69.5 -10t40 -28.5t16 -46t-2.5 -62.5l-21 -148h-96l5 37h-2q-14 -23 -41.5 -33t-57.5 -10q-22 0 -41.5 5.5t-33 17t-20.5 28t-4 38.5q5 38 30 59t58 31.5t69 12.5t64 2zM269 558
q-16 -1 -31 -5t-27 -12.5t-14 -22.5q-2 -17 11 -22t29 -5q29 0 50.5 16t23.5 33l3 19h-18q-11 0 -27 -1z" />
    <glyph glyph-name="uni00AB" unicode="&#xab;" horiz-adv-x="538" 
d="M244 483l83 -61l-141 -173l92 -173l-99 -61l-127 234zM428 249l92 -173l-99 -61l-127 234l192 234l83 -61z" />
    <glyph glyph-name="uni00AC" unicode="&#xac;" horiz-adv-x="666" 
d="M106 336l17 126h548l-45 -320h-126l28 194h-422z" />
    <glyph glyph-name="uni00AD" unicode="&#xad;" horiz-adv-x="296" 
d="M68 309h246l-17 -120h-246z" />
    <glyph glyph-name="uni00AE" unicode="&#xae;" horiz-adv-x="800" 
d="M150 92q-44 50 -64 117.5t-9 144.5t50 144.5t96.5 118t129.5 80t149 29.5t140.5 -29.5t107 -80t63 -118t8.5 -144.5t-49.5 -144.5t-96.5 -118t-129.5 -80t-148.5 -29.5t-140.5 29.5t-106.5 80.5zM185 245q14 -52 45.5 -90t77.5 -60.5t102 -22.5t108 22.5t94 60.5
t70.5 89.5t36.5 109.5t-6 109.5t-45 89.5t-77 60.5t-102 22.5t-108.5 -22.5t-94.5 -60.5t-70.5 -89.5t-36.5 -109.5t6 -109zM472 553q10 0 26.5 -0.5t34.5 -4t35.5 -11t30.5 -21.5t19.5 -36t2.5 -53q-5 -30 -15.5 -49.5t-25 -32t-32 -19t-34.5 -8.5l78 -155h-105l-68 150
h-17l-21 -150h-102l55 390h138zM453 391q9 0 19.5 1t20.5 5t17 12.5t9 23.5t-2.5 23.5t-13 12.5t-19 5t-19.5 1h-41l-12 -84h41z" />
    <glyph glyph-name="uni00AF" unicode="&#xaf;" horiz-adv-x="260" 
d="M56 687h340l-13 -96h-340z" />
    <glyph glyph-name="uni00B0" unicode="&#xb0;" horiz-adv-x="400" 
d="M416 670q20 -24 29 -55t4 -67t-23 -67t-45 -54.5t-60 -37t-69 -13.5t-65 13.5t-49 37t-29 54.5t-4 67t23 67t44.5 54.5t59.5 37t69 13.5t65 -13.5t50 -36.5zM353 514q9 16 12 34q5 37 -17 62.5t-59 25.5q-18 0 -35.5 -7t-31 -19t-22.5 -28t-11 -34q-5 -37 16.5 -62.5
t58.5 -25.5q18 0 35.5 7t31 19t22.5 28z" />
    <glyph glyph-name="uni00B1" unicode="&#xb1;" horiz-adv-x="666" 
d="M441 323l-18 -128h-126l18 128h-211l18 126h211l18 128h126l-18 -128h211l-18 -126h-211zM628 155l-17 -126h-548l17 126h548z" />
    <glyph glyph-name="uni00B2" unicode="&#xb2;" horiz-adv-x="385" 
d="M212 375v-2h201l-12 -84h-337l13 89l208 158q16 12 32.5 26t18.5 29q2 21 -14.5 30t-39.5 9q-29 0 -49 -15.5t-25 -38.5l-101 6q16 72 68.5 105t124.5 33q70 0 111.5 -31t33.5 -89q-4 -26 -10.5 -43t-16 -30t-22.5 -23t-29 -21z" />
    <glyph glyph-name="uni00B3" unicode="&#xb3;" horiz-adv-x="385" 
d="M122 310q-43 27 -49 91l112 22q2 -23 16 -36.5t43 -13.5t50 11t25 37q2 17 -4.5 26.5t-19 14t-29 5.5t-33.5 1h-25l12 84h34q14 0 27.5 1.5t24.5 6.5t18.5 14t9.5 23q2 16 -11.5 24.5t-39.5 8.5q-24 0 -43 -11.5t-27 -32.5l-107 20q26 64 77 89t113 25q32 0 60.5 -7
t49.5 -21t31.5 -35.5t6.5 -50.5q-5 -35 -29.5 -60.5t-66.5 -32.5l-1 -2q43 -5 63 -34t15 -66q-5 -32 -22.5 -56t-43.5 -40t-59 -24t-69 -8q-66 0 -109 27z" />
    <glyph glyph-name="uni00B4" unicode="&#xb4;" horiz-adv-x="260" 
d="M230 708h204l-193 -144h-132z" />
    <glyph glyph-name="uni00B5" unicode="&#xb5;" 
d="M396 198q6 22 9 46l34 242h150l-68 -486h-144l9 66h-2q-10 -14 -24.5 -28t-34 -25t-43.5 -18t-51 -7q-17 0 -30 3l-31 -219h-150l101 714h150l-34 -238q-3 -21 -5 -43.5t3 -41.5t19 -31t43 -12t48.5 10.5t31.5 28t19 39.5z" />
    <glyph glyph-name="uni00B6" unicode="&#xb6;" horiz-adv-x="620" 
d="M434 -133l105 745h-109l-105 -745h-108l69 492q-109 0 -159.5 45t-39.5 126q7 54 31 88.5t60 54.5t82 27.5t98 7.5h302l-118 -841h-108z" />
    <glyph glyph-name="uni00B7" unicode="&#xb7;" horiz-adv-x="296" 
d="M267 247q-10 -17 -24 -29.5t-32 -19.5t-37 -7q-38 0 -61 27t-18 65q3 19 12.5 36t23.5 29.5t32 19.5t37 7q38 0 61 -27t18 -65q-3 -19 -12 -36z" />
    <glyph glyph-name="uni00B8" unicode="&#xb8;" horiz-adv-x="260" 
d="M122 -122q-17 8 -32 8q-10 0 -18.5 -2t-18.5 -6l-28 29l76 93h67l-50 -60q22 0 44 -2.5t39 -11t26 -25t5 -44.5q-4 -27 -21 -46t-39.5 -30t-47.5 -16t-44 -5q-30 0 -62.5 8.5t-57.5 21.5l32 47q11 -5 29 -11t44 -6q23 0 45.5 6t25.5 26q2 18 -14 26z" />
    <glyph glyph-name="uni00B9" unicode="&#xb9;" horiz-adv-x="385" 
d="M331 289h-108l45 317l-100 -75l-49 66l176 117h96z" />
    <glyph glyph-name="uni00BA" unicode="&#xba;" horiz-adv-x="397" 
d="M328 435q-34 -10 -71 -10t-67.5 10t-51.5 29.5t-30.5 47t-4.5 63.5q5 34 22.5 62t44 47.5t60 30.5t70.5 11t67.5 -11t51.5 -30.5t30.5 -47.5t4.5 -62q-5 -36 -22.5 -63.5t-44 -47t-59.5 -29.5zM352 575q5 28 -12.5 47.5t-51.5 19.5t-56 -19.5t-27 -47.5
q-3 -27 13.5 -46.5t50.5 -19.5t56.5 19.5t26.5 46.5z" />
    <glyph glyph-name="uni00BB" unicode="&#xbb;" horiz-adv-x="538" 
d="M87 422l99 61l126 -234l-191 -234l-83 61l140 173zM363 15l-83 61l140 173l-91 173l99 61l126 -234z" />
    <glyph glyph-name="uni00BC" unicode="&#xbc;" horiz-adv-x="889" 
d="M847 169h57l-12 -84h-57l-11 -85h-108l11 85h-209l11 78l236 262h118zM698 740l77 -47l-515 -725l-70 43zM91 597l176 117h96l-60 -425h-108l45 317l-100 -75zM739 169l19 136h-2l-118 -136h101z" />
    <glyph glyph-name="uni00BD" unicode="&#xbd;" horiz-adv-x="889" 
d="M713 326q-20 -16 -25 -39l-101 6q15 72 67.5 105t124.5 33q70 0 111.5 -31t33.5 -89q-3 -26 -9.5 -43t-16 -30t-22.5 -23t-29 -21l-155 -108l-1 -2h201l-11 -84h-337l12 89l208 158q16 12 32.5 26t18.5 29q3 21 -14 30t-40 9q-29 0 -48 -15zM260 -32l-70 43l508 729
l77 -47zM267 714h96l-60 -425h-108l45 317l-100 -75l-49 66z" />
    <glyph glyph-name="uni00BE" unicode="&#xbe;" horiz-adv-x="889" 
d="M887 425l-36 -256h57l-12 -84h-57l-11 -85h-108l11 85h-209l11 78l236 262h118zM109 310q-43 27 -49 91l112 22q2 -23 16 -36.5t43 -13.5t50 11t25 37q2 17 -4.5 26.5t-19 14t-29 5.5t-33.5 1h-25l12 84h34q14 0 27.5 1.5t24.5 6.5t18.5 14t9.5 23q2 16 -11.5 24.5
t-39.5 8.5q-24 0 -43 -11.5t-27 -32.5l-106 20q12 32 31.5 53.5t44.5 35t53.5 19.5t59.5 6q32 0 60.5 -7t49.5 -21t31.5 -35.5t6.5 -50.5q-5 -35 -29.5 -60.5t-66.5 -32.5l-1 -2q43 -5 63 -34t15 -66q-5 -32 -22.5 -56t-43.5 -40t-59 -24t-69 -8q-66 0 -109 27zM799 693
l-515 -725l-70 43l508 729zM762 305h-2l-118 -136h101z" />
    <glyph glyph-name="uni00BF" unicode="&#xbf;" horiz-adv-x="556" 
d="M106 103q27 23 66 51q26 18 36.5 35t12.5 34l4 29h150l-6 -44q-5 -30 -16 -51t-32 -39q-32 -27 -58 -47t-45.5 -37.5t-31.5 -33t-14 -32.5q-5 -33 13 -51.5t49 -18.5q47 0 75.5 26t36.5 63l152 -10q-26 -106 -100.5 -161.5t-179.5 -55.5q-46 0 -85 12.5t-66.5 37.5
t-40.5 62t-6 85q4 28 13.5 52t27 47t45.5 47zM229 400q3 19 12.5 36t23.5 29.5t32 19.5t37 7q38 0 61 -27t18 -65q-3 -19 -12.5 -36t-23.5 -29.5t-32 -19.5t-37 -7q-38 0 -61 27t-18 65z" />
    <glyph glyph-name="uni00C0" unicode="&#xc0;" horiz-adv-x="741" 
d="M251 150l-80 -150h-172l405 708h129l209 -708h-176l-40 150h-275zM435 502l-117 -220h173zM579 760h-132l-152 144h204z" />
    <glyph glyph-name="uni00C1" unicode="&#xc1;" horiz-adv-x="741" 
d="M251 150l-80 -150h-172l405 708h129l209 -708h-176l-40 150h-275zM435 502l-117 -220h173zM499 904h204l-194 -144h-132z" />
    <glyph glyph-name="uni00C2" unicode="&#xc2;" horiz-adv-x="741" 
d="M251 150l-80 -150h-172l405 708h129l209 -708h-176l-40 150h-275zM435 502l-117 -220h173zM486 838l-73 -78h-135l140 144h163l95 -144h-138z" />
    <glyph glyph-name="uni00C3" unicode="&#xc3;" horiz-adv-x="741" 
d="M251 150l-80 -150h-172l405 708h129l209 -708h-176l-40 150h-275zM435 502l-117 -220h173zM595 879q12 10 21 25h78q-9 -29 -22 -54t-31 -43.5t-42 -29.5t-55 -11q-22 0 -40 6.5t-35 14.5q-16 8 -30.5 14.5t-29.5 6.5q-17 0 -28.5 -14t-19.5 -28h-79q8 25 21.5 50
t32 44.5t42 31.5t51.5 12q25 0 44 -6t40 -15q14 -5 26 -10t27 -5q17 0 29 11z" />
    <glyph glyph-name="uni00C4" unicode="&#xc4;" horiz-adv-x="741" 
d="M251 150l-80 -150h-172l405 708h129l209 -708h-176l-40 150h-275zM435 502l-117 -220h173zM547 761q-14 7 -23.5 19t-13.5 27.5t-1 32.5q2 16 10.5 31t21 26t28 18t32.5 7q35 0 58 -23t18 -59q-3 -18 -11.5 -33.5t-21.5 -27.5t-30 -18.5t-35 -6.5t-32 7zM316 780
q-10 12 -14 27.5t-1 32.5q2 16 10.5 31t21 26t28 18t32.5 7q35 0 58 -23t18 -59q-3 -18 -11.5 -33.5t-21.5 -27.5t-30 -18.5t-35 -6.5t-32 7t-23 19z" />
    <glyph glyph-name="uni00C5" unicode="&#xc5;" horiz-adv-x="741" 
d="M251 150l-80 -150h-172l405 708h129l209 -708h-176l-40 150h-275zM435 502l-117 -220h173zM517 740q-22 -9 -44 -9q-23 0 -41.5 9t-31.5 24t-19 35t-3 43q3 22 14.5 42.5t29 35.5t38.5 24t44 9q22 0 41 -9t32.5 -24t19.5 -35.5t3 -42.5q-3 -23 -15 -43t-29.5 -35
t-38.5 -24zM540 842q3 21 -10 36t-34 15t-38 -15t-20 -36t10 -36t34 -15t38 15t20 36z" />
    <glyph glyph-name="uni00C6" unicode="&#xc6;" horiz-adv-x="1037" 
d="M750 432h258l-20 -144h-258l-20 -144h294l-20 -144h-450l21 150h-263l-116 -150h-191l548 708h538l-20 -144h-282zM596 564l-219 -282h196l40 282h-17z" />
    <glyph glyph-name="uni00C7" unicode="&#xc7;" horiz-adv-x="685" 
d="M230 626q57 48 131 74t157 26q30 0 61.5 -5.5t61.5 -17.5t56.5 -32t44.5 -49l-134 -98q-20 28 -51 43t-75 15t-84 -17t-71.5 -47.5t-53 -72.5t-28.5 -91q-7 -50 2.5 -91.5t32 -72t57 -47.5t76.5 -17q48 0 88 20t69 56l116 -97q-54 -63 -127 -93t-146 -30h-9q-5 0 -10 1
l-35 -43q22 0 44 -2.5t39 -11t26 -25t5 -44.5q-4 -27 -21 -46t-39.5 -30t-47.5 -16t-44 -5q-30 0 -63 8.5t-58 21.5l32 47q11 -5 29.5 -11t44.5 -6q23 0 45.5 6t25.5 26q2 18 -14.5 26t-31.5 8q-10 0 -18.5 -2t-18.5 -6l-28 29l66 82q-65 12 -116 42.5t-84 77.5t-46.5 109
t-2.5 136q12 85 50.5 154t96.5 118z" />
    <glyph glyph-name="uni00C8" unicode="&#xc8;" horiz-adv-x="630" 
d="M313 564l-19 -132h307l-20 -144h-307l-20 -144h343l-20 -144h-499l99 708h481l-20 -144h-325zM523 760h-132l-152 144h204z" />
    <glyph glyph-name="uni00C9" unicode="&#xc9;" horiz-adv-x="630" 
d="M313 564l-19 -132h307l-20 -144h-307l-20 -144h343l-20 -144h-499l99 708h481l-20 -144h-325zM443 904h204l-194 -144h-132z" />
    <glyph glyph-name="uni00CA" unicode="&#xca;" horiz-adv-x="630" 
d="M313 564l-19 -132h307l-20 -144h-307l-20 -144h343l-20 -144h-499l99 708h481l-20 -144h-325zM430 838l-73 -78h-135l140 144h163l95 -144h-138z" />
    <glyph glyph-name="uni00CB" unicode="&#xcb;" horiz-adv-x="630" 
d="M313 564l-19 -132h307l-20 -144h-307l-20 -144h343l-20 -144h-499l99 708h481l-20 -144h-325zM491 761q-14 7 -23.5 19t-13.5 27.5t-1 32.5q2 16 10.5 31t21 26t28 18t32.5 7q35 0 58 -23t18 -59q-3 -18 -11.5 -33.5t-21.5 -27.5t-30 -18.5t-35 -6.5t-32 7zM260 780
q-10 12 -14 27.5t-1 32.5q2 16 10.5 31t21 26t28 18t32.5 7q35 0 58 -23t18 -59q-3 -18 -11.5 -33.5t-21.5 -27.5t-30 -18.5t-35 -6.5t-32 7t-23 19z" />
    <glyph glyph-name="uni00CC" unicode="&#xcc;" horiz-adv-x="296" 
d="M169 708h156l-99 -708h-156zM356 760h-132l-152 144h204z" />
    <glyph glyph-name="uni00CD" unicode="&#xcd;" horiz-adv-x="296" 
d="M169 708h156l-99 -708h-156zM276 904h204l-194 -144h-132z" />
    <glyph glyph-name="uni00CE" unicode="&#xce;" horiz-adv-x="296" 
d="M169 708h156l-99 -708h-156zM263 838l-73 -78h-135l140 144h163l95 -144h-138z" />
    <glyph glyph-name="uni00CF" unicode="&#xcf;" horiz-adv-x="296" 
d="M169 708h156l-99 -708h-156zM324 761q-14 7 -23.5 19t-13.5 27.5t-1 32.5q2 16 10.5 31t21 26t28 18t32.5 7q35 0 58 -23t18 -59q-3 -18 -11.5 -33.5t-21.5 -27.5t-30 -18.5t-35 -6.5t-32 7zM93 780q-10 12 -14 27.5t-1 32.5q2 16 10.5 31t21 26t28 18t32.5 7
q35 0 58 -23t18 -59q-3 -18 -11.5 -33.5t-21.5 -27.5t-30 -18.5t-35 -6.5t-32 7t-23 19z" />
    <glyph glyph-name="uni00D0" unicode="&#xd0;" horiz-adv-x="759" 
d="M689 628q51 -43 74.5 -111t10.5 -165q-12 -86 -53.5 -151.5t-102.5 -110t-136.5 -67.5t-154.5 -23h-255l44 318h-60l15 102h60l40 288h234q85 0 158.5 -19t125.5 -61zM491 552q-43 12 -92 12h-92l-20 -144h198l-15 -102h-198l-24 -174h81q54 0 102 11t85.5 36.5t62.5 67
t34 101.5q7 52 -6.5 90.5t-43.5 63.5t-72 38z" />
    <glyph glyph-name="uni00D1" unicode="&#xd1;" horiz-adv-x="815" 
d="M539 0l-239 504h-2l-70 -504h-156l99 708h212l232 -492h2l69 492h156l-99 -708h-204zM632 879q12 10 21 25h78q-9 -29 -22 -54t-31 -43.5t-42 -29.5t-55 -11q-22 0 -40 6.5t-35 14.5q-16 8 -30.5 14.5t-29.5 6.5q-17 0 -28.5 -14t-19.5 -28h-79q8 25 21.5 50t32 44.5
t42 31.5t51.5 12q25 0 44 -6t40 -15q14 -5 26 -10t27 -5q17 0 29 11z" />
    <glyph glyph-name="uni00D2" unicode="&#xd2;" horiz-adv-x="832" 
d="M570 8q-74 -26 -157 -26t-149.5 26t-110.5 74.5t-63 117.5t-7 154t50.5 154t96 117.5t131.5 74.5t157 26t149 -26t110 -74.5t63 -117.5t7 -154t-50 -154t-96 -117.5t-131 -74.5zM602 191q33 30 54.5 71.5t28.5 91.5q7 49 -2.5 91t-34.5 72.5t-63 47.5t-88 17t-93 -17
t-76 -47.5t-54.5 -72.5t-28.5 -91q-7 -50 3 -91.5t34.5 -72t62.5 -47.5t88 -17t93 17t76 48zM624 760h-132l-152 144h204z" />
    <glyph glyph-name="uni00D3" unicode="&#xd3;" horiz-adv-x="832" 
d="M570 8q-74 -26 -157 -26t-149.5 26t-110.5 74.5t-63 117.5t-7 154t50.5 154t96 117.5t131.5 74.5t157 26t149 -26t110 -74.5t63 -117.5t7 -154t-50 -154t-96 -117.5t-131 -74.5zM602 191q33 30 54.5 71.5t28.5 91.5q7 49 -2.5 91t-34.5 72.5t-63 47.5t-88 17t-93 -17
t-76 -47.5t-54.5 -72.5t-28.5 -91q-7 -50 3 -91.5t34.5 -72t62.5 -47.5t88 -17t93 17t76 48zM544 904h204l-194 -144h-132z" />
    <glyph glyph-name="uni00D4" unicode="&#xd4;" horiz-adv-x="832" 
d="M570 8q-74 -26 -157 -26t-149.5 26t-110.5 74.5t-63 117.5t-7 154t50.5 154t96 117.5t131.5 74.5t157 26t149 -26t110 -74.5t63 -117.5t7 -154t-50 -154t-96 -117.5t-131 -74.5zM602 191q33 30 54.5 71.5t28.5 91.5q7 49 -2.5 91t-34.5 72.5t-63 47.5t-88 17t-93 -17
t-76 -47.5t-54.5 -72.5t-28.5 -91q-7 -50 3 -91.5t34.5 -72t62.5 -47.5t88 -17t93 17t76 48zM531 838l-73 -78h-135l140 144h163l95 -144h-138z" />
    <glyph glyph-name="uni00D5" unicode="&#xd5;" horiz-adv-x="832" 
d="M570 8q-74 -26 -157 -26t-149.5 26t-110.5 74.5t-63 117.5t-7 154t50.5 154t96 117.5t131.5 74.5t157 26t149 -26t110 -74.5t63 -117.5t7 -154t-50 -154t-96 -117.5t-131 -74.5zM602 191q33 30 54.5 71.5t28.5 91.5q7 49 -2.5 91t-34.5 72.5t-63 47.5t-88 17t-93 -17
t-76 -47.5t-54.5 -72.5t-28.5 -91q-7 -50 3 -91.5t34.5 -72t62.5 -47.5t88 -17t93 17t76 48zM640 879q12 10 21 25h78q-9 -29 -22 -54t-31 -43.5t-42 -29.5t-55 -11q-22 0 -40 6.5t-35 14.5q-16 8 -30.5 14.5t-29.5 6.5q-17 0 -28.5 -14t-19.5 -28h-79q8 25 21.5 50t32 44.5
t42 31.5t51.5 12q25 0 44 -6t40 -15q14 -5 26 -10t27 -5q17 0 29 11z" />
    <glyph glyph-name="uni00D6" unicode="&#xd6;" horiz-adv-x="832" 
d="M570 8q-74 -26 -157 -26t-149.5 26t-110.5 74.5t-63 117.5t-7 154t50.5 154t96 117.5t131.5 74.5t157 26t149 -26t110 -74.5t63 -117.5t7 -154t-50 -154t-96 -117.5t-131 -74.5zM602 191q33 30 54.5 71.5t28.5 91.5q7 49 -2.5 91t-34.5 72.5t-63 47.5t-88 17t-93 -17
t-76 -47.5t-54.5 -72.5t-28.5 -91q-7 -50 3 -91.5t34.5 -72t62.5 -47.5t88 -17t93 17t76 48zM592 761q-14 7 -23.5 19t-13.5 27.5t-1 32.5q2 16 10.5 31t21 26t28 18t32.5 7q35 0 58 -23t18 -59q-3 -18 -11.5 -33.5t-21.5 -27.5t-30 -18.5t-35 -6.5t-32 7zM361 780
q-10 12 -14 27.5t-1 32.5q2 16 10.5 31t21 26t28 18t32.5 7q35 0 58 -23t18 -59q-3 -18 -11.5 -33.5t-21.5 -27.5t-30 -18.5t-35 -6.5t-32 7t-23 19z" />
    <glyph glyph-name="uni00D7" unicode="&#xd7;" horiz-adv-x="666" 
d="M464 303l156 -173l-105 -93l-152 176l-201 -177l-77 86l199 181l-154 172l107 95l152 -175l196 174l77 -86z" />
    <glyph glyph-name="uni00D8" unicode="&#xd8;" horiz-adv-x="832" 
d="M842 762l48 -49l-104 -98q40 -48 56 -114t5 -147q-12 -85 -50 -154t-96 -117.5t-131.5 -74.5t-156.5 -26q-69 0 -125.5 18t-97.5 50l-108 -101l-49 48l107 102q-38 48 -53 112.5t-4 142.5q12 85 50.5 154t96 117.5t131.5 74.5t157 26q130 0 218 -64zM526 143
q43 17 76 47.5t54.5 72t28.5 91.5q6 42 -0.5 78.5t-23.5 64.5l-351 -333q47 -38 123 -38q50 0 93 17zM497 582q-50 0 -93 -17t-76 -47.5t-54.5 -72.5t-28.5 -91q-11 -79 20 -137l351 331q-48 34 -119 34z" />
    <glyph glyph-name="uni00D9" unicode="&#xd9;" horiz-adv-x="741" 
d="M612 708h156l-61 -435q-9 -63 -35.5 -116t-69.5 -92t-102 -61t-132 -22q-74 0 -127 22t-85 61t-43.5 92t-2.5 116l61 435h156l-60 -429q-5 -33 1.5 -61t23 -48.5t41 -32t55.5 -11.5t58.5 11.5t49.5 32t36.5 48.5t19.5 61zM579 760h-132l-152 144h204z" />
    <glyph glyph-name="uni00DA" unicode="&#xda;" horiz-adv-x="741" 
d="M612 708h156l-61 -435q-9 -63 -35.5 -116t-69.5 -92t-102 -61t-132 -22q-74 0 -127 22t-85 61t-43.5 92t-2.5 116l61 435h156l-60 -429q-5 -33 1.5 -61t23 -48.5t41 -32t55.5 -11.5t58.5 11.5t49.5 32t36.5 48.5t19.5 61zM499 904h204l-194 -144h-132z" />
    <glyph glyph-name="uni00DB" unicode="&#xdb;" horiz-adv-x="741" 
d="M612 708h156l-61 -435q-9 -63 -35.5 -116t-69.5 -92t-102 -61t-132 -22q-74 0 -127 22t-85 61t-43.5 92t-2.5 116l61 435h156l-60 -429q-5 -33 1.5 -61t23 -48.5t41 -32t55.5 -11.5t58.5 11.5t49.5 32t36.5 48.5t19.5 61zM486 838l-73 -78h-135l140 144h163l95 -144h-138
z" />
    <glyph glyph-name="uni00DC" unicode="&#xdc;" horiz-adv-x="741" 
d="M612 708h156l-61 -435q-9 -63 -35.5 -116t-69.5 -92t-102 -61t-132 -22q-74 0 -127 22t-85 61t-43.5 92t-2.5 116l61 435h156l-60 -429q-5 -33 1.5 -61t23 -48.5t41 -32t55.5 -11.5t58.5 11.5t49.5 32t36.5 48.5t19.5 61zM547 761q-14 7 -23.5 19t-13.5 27.5t-1 32.5
q2 16 10.5 31t21 26t28 18t32.5 7q35 0 58 -23t18 -59q-3 -18 -11.5 -33.5t-21.5 -27.5t-30 -18.5t-35 -6.5t-32 7zM316 780q-10 12 -14 27.5t-1 32.5q2 16 10.5 31t21 26t28 18t32.5 7q35 0 58 -23t18 -59q-3 -18 -11.5 -33.5t-21.5 -27.5t-30 -18.5t-35 -6.5t-32 7t-23 19
z" />
    <glyph glyph-name="uni00DD" unicode="&#xdd;" horiz-adv-x="648" 
d="M273 708l113 -265l196 265h185l-323 -406l-42 -302h-156l42 302l-209 406h194zM455 930h204l-194 -144h-132z" />
    <glyph glyph-name="uni00DE" unicode="&#xde;" horiz-adv-x="630" 
d="M469 161q-50 -11 -106 -11h-114l-21 -150h-156l99 708h156l-18 -126h107q55 0 102.5 -10t81 -34.5t49 -66t6.5 -104.5q-9 -62 -34.5 -104t-64 -67t-87.5 -35zM478 326q12 16 15 41q4 27 -6.5 43.5t-28.5 25.5t-41.5 11.5t-45.5 2.5h-80l-24 -168h104q21 0 41 4t37 13.5
t29 26.5z" />
    <glyph glyph-name="uni00DF" unicode="&#xdf;" horiz-adv-x="630" 
d="M328 114q28 0 54 7t47 21.5t35 36.5t18 52q4 32 -3 55t-23 38t-40 22t-54 7h-20l18 126h12q38 0 67.5 20t34.5 59q3 19 -3 33.5t-17 24.5t-26.5 15t-33.5 5q-46 0 -77.5 -26.5t-38.5 -71.5l-75 -538h-150l72 513q35 255 291 255q42 0 82 -10.5t70 -33t45.5 -57t8.5 -82.5
q-8 -58 -38 -98t-87 -62v-2q38 -8 64.5 -26.5t42.5 -45.5t20.5 -61t-0.5 -73q-8 -53 -31.5 -95.5t-59.5 -72t-81.5 -45.5t-97.5 -16q-48 0 -91 12l17 122q24 -8 48 -8z" />
    <glyph glyph-name="uni00E0" unicode="&#xe0;" horiz-adv-x="537" 
d="M187 287q52 16 109.5 19t104.5 3q5 40 -20 63.5t-64 23.5q-37 0 -69.5 -15.5t-60.5 -42.5l-68 82q47 39 105.5 58.5t118.5 19.5q66 0 106.5 -16.5t61.5 -48.5t24.5 -78.5t-5.5 -107.5l-34 -247h-138l8 61h-2q-30 -39 -74 -56t-90 -17q-34 0 -64 9.5t-51.5 28.5t-31.5 47
t-5 65q9 63 47.5 97.5t91.5 51.5zM196 120q5 -10 14 -17t21.5 -10t24.5 -3q22 0 43.5 6t39 17t29.5 28t15 40l4 32h-37q-17 0 -42.5 -1.5t-50 -8.5t-43 -21t-21.5 -39q-2 -14 3 -23zM450 564h-132l-153 144h204z" />
    <glyph glyph-name="uni00E1" unicode="&#xe1;" horiz-adv-x="537" 
d="M187 287q52 16 109.5 19t104.5 3q5 40 -20 63.5t-64 23.5q-37 0 -69.5 -15.5t-60.5 -42.5l-68 82q47 39 105.5 58.5t118.5 19.5q66 0 106.5 -16.5t61.5 -48.5t24.5 -78.5t-5.5 -107.5l-34 -247h-138l8 61h-2q-30 -39 -74 -56t-90 -17q-34 0 -64 9.5t-51.5 28.5t-31.5 47
t-5 65q9 63 47.5 97.5t91.5 51.5zM196 120q5 -10 14 -17t21.5 -10t24.5 -3q22 0 43.5 6t39 17t29.5 28t15 40l4 32h-37q-17 0 -42.5 -1.5t-50 -8.5t-43 -21t-21.5 -39q-2 -14 3 -23zM369 708h204l-193 -144h-132z" />
    <glyph glyph-name="uni00E2" unicode="&#xe2;" horiz-adv-x="537" 
d="M187 287q52 16 109.5 19t104.5 3q5 40 -20 63.5t-64 23.5q-37 0 -69.5 -15.5t-60.5 -42.5l-68 82q47 39 105.5 58.5t118.5 19.5q66 0 106.5 -16.5t61.5 -48.5t24.5 -78.5t-5.5 -107.5l-34 -247h-138l8 61h-2q-30 -39 -74 -56t-90 -17q-34 0 -64 9.5t-51.5 28.5t-31.5 47
t-5 65q9 63 47.5 97.5t91.5 51.5zM196 120q5 -10 14 -17t21.5 -10t24.5 -3q22 0 43.5 6t39 17t29.5 28t15 40l4 32h-37q-17 0 -42.5 -1.5t-50 -8.5t-43 -21t-21.5 -39q-2 -14 3 -23zM357 642l-73 -78h-135l139 144h163l96 -144h-138z" />
    <glyph glyph-name="uni00E3" unicode="&#xe3;" horiz-adv-x="537" 
d="M187 287q52 16 109.5 19t104.5 3q5 40 -20 63.5t-64 23.5q-37 0 -69.5 -15.5t-60.5 -42.5l-68 82q47 39 105.5 58.5t118.5 19.5q66 0 106.5 -16.5t61.5 -48.5t24.5 -78.5t-5.5 -107.5l-34 -247h-138l8 61h-2q-30 -39 -74 -56t-90 -17q-34 0 -64 9.5t-51.5 28.5t-31.5 47
t-5 65q9 63 47.5 97.5t91.5 51.5zM196 120q5 -10 14 -17t21.5 -10t24.5 -3q22 0 43.5 6t39 17t29.5 28t15 40l4 32h-37q-17 0 -42.5 -1.5t-50 -8.5t-43 -21t-21.5 -39q-2 -14 3 -23zM466 683q11 10 20 25h78q-9 -29 -21.5 -54t-30.5 -43.5t-42 -29.5t-55 -11
q-22 0 -40.5 6.5t-34.5 14.5q-17 8 -31 14.5t-29 6.5q-17 0 -29.5 -14t-18.5 -28h-79q7 25 20.5 50t32 44.5t42 31.5t51.5 12q25 0 44.5 -6t39.5 -15l26 -10q13 -5 28 -5q17 0 29 11z" />
    <glyph glyph-name="uni00E4" unicode="&#xe4;" horiz-adv-x="537" 
d="M187 287q52 16 109.5 19t104.5 3q5 40 -20 63.5t-64 23.5q-37 0 -69.5 -15.5t-60.5 -42.5l-68 82q47 39 105.5 58.5t118.5 19.5q66 0 106.5 -16.5t61.5 -48.5t24.5 -78.5t-5.5 -107.5l-34 -247h-138l8 61h-2q-30 -39 -74 -56t-90 -17q-34 0 -64 9.5t-51.5 28.5t-31.5 47
t-5 65q9 63 47.5 97.5t91.5 51.5zM196 120q5 -10 14 -17t21.5 -10t24.5 -3q22 0 43.5 6t39 17t29.5 28t15 40l4 32h-37q-17 0 -42.5 -1.5t-50 -8.5t-43 -21t-21.5 -39q-2 -14 3 -23zM450 558q-35 0 -55.5 25.5t-15.5 60.5q2 16 10.5 31t21.5 26t28.5 18t32.5 7
q35 0 57.5 -23t17.5 -59t-32.5 -61t-64.5 -25zM171 644q2 16 10.5 31t21.5 26t28.5 18t32.5 7q35 0 57.5 -23t17.5 -59t-32.5 -61t-64.5 -25q-35 0 -55.5 25.5t-15.5 60.5z" />
    <glyph glyph-name="uni00E5" unicode="&#xe5;" horiz-adv-x="537" 
d="M187 287q52 16 109.5 19t104.5 3q5 40 -20 63.5t-64 23.5q-37 0 -69.5 -15.5t-60.5 -42.5l-68 82q47 39 105.5 58.5t118.5 19.5q66 0 106.5 -16.5t61.5 -48.5t24.5 -78.5t-5.5 -107.5l-34 -247h-138l8 61h-2q-30 -39 -74 -56t-90 -17q-34 0 -64 9.5t-51.5 28.5t-31.5 47
t-5 65q9 63 47.5 97.5t91.5 51.5zM196 120q5 -10 14 -17t21.5 -10t24.5 -3q22 0 43.5 6t39 17t29.5 28t15 40l4 32h-37q-17 0 -42.5 -1.5t-50 -8.5t-43 -21t-21.5 -39q-2 -14 3 -23zM390 554q-22 -9 -45 -9t-42 9t-32 24t-18.5 35t-2.5 43t14.5 43t28.5 35t38.5 24t44.5 9
t42 -9t32 -24t19 -35t3 -43t-15 -43t-29 -35t-38 -24zM412 656q3 21 -10 36t-34 15t-38 -15t-20 -36t10 -36t34 -15t38 15t20 36z" />
    <glyph glyph-name="uni00E6" unicode="&#xe6;" horiz-adv-x="852" 
d="M178 277q48 15 100.5 18t93.5 3h18q7 44 -12.5 71t-60.5 27q-37 0 -69.5 -15.5t-60.5 -42.5l-68 82q47 39 105.5 58.5t118.5 19.5q43 0 83 -14t67 -45q35 29 79 44t92 15q52 0 92 -18t65 -51.5t34.5 -80.5t1.5 -105l-7 -47h-348q3 -43 29.5 -68.5t70.5 -25.5
q37 0 64.5 16.5t50.5 42.5l94 -77q-42 -46 -100.5 -71t-117.5 -25q-60 0 -109 17t-74 62q-38 -44 -92 -61.5t-118 -17.5q-34 0 -64 9.5t-51.5 28.5t-31.5 47t-5 65q8 58 44.5 90.5t85.5 48.5zM196 113q6 -10 16.5 -15t24 -6.5t25.5 -1.5q54 0 80.5 29t33.5 77h-18
q-17 0 -44 -1t-53 -6t-46 -17t-23 -33q-2 -17 4 -26zM555 362q-15 -13 -25 -29.5t-14 -34.5h198q6 38 -16 65t-63 27q-25 0 -45 -8t-35 -20z" />
    <glyph glyph-name="uni00E7" unicode="&#xe7;" horiz-adv-x="482" 
d="M266 332q-36 -34 -44 -89t18.5 -89t83.5 -34q25 0 45 11t35 26l84 -104q-41 -36 -90 -50.5t-92 -14.5q-7 0 -9 1l-40 -49q22 0 44 -2.5t39 -11t26 -25t5 -44.5q-4 -27 -21 -46t-39.5 -30t-47.5 -16t-44 -5q-30 0 -63 8.5t-58 21.5l32 47q11 -5 29.5 -11t44.5 -6
q23 0 45.5 6t25.5 26q2 18 -14.5 26t-31.5 8q-10 0 -18.5 -2t-18.5 -6l-28 29l73 90q-42 9 -75.5 30.5t-56 53t-31.5 72.5t-2 90q8 58 35.5 105t68.5 80.5t93 51.5t108 18q43 0 88.5 -14.5t75.5 -50.5l-113 -104q-9 16 -27.5 26.5t-41.5 10.5q-57 0 -93 -34z" />
    <glyph glyph-name="uni00E8" unicode="&#xe8;" 
d="M524 84q-42 -46 -100.5 -71t-117.5 -25q-56 0 -103 18t-78.5 51.5t-46 80.5t-6.5 105t35.5 105t68.5 80.5t93 51.5t108 18q52 0 92 -18t65 -51.5t34.5 -80.5t1.5 -105l-7 -47h-348q3 -43 29.5 -68.5t70.5 -25.5q37 0 64.5 16.5t50.5 42.5zM411 363q-22 27 -63 27
q-25 0 -45 -8t-35 -20.5t-25 -29t-14 -34.5h198q6 38 -16 65zM468 564h-132l-153 144h204z" />
    <glyph glyph-name="uni00E9" unicode="&#xe9;" 
d="M524 84q-42 -46 -100.5 -71t-117.5 -25q-56 0 -103 18t-78.5 51.5t-46 80.5t-6.5 105t35.5 105t68.5 80.5t93 51.5t108 18q52 0 92 -18t65 -51.5t34.5 -80.5t1.5 -105l-7 -47h-348q3 -43 29.5 -68.5t70.5 -25.5q37 0 64.5 16.5t50.5 42.5zM411 363q-22 27 -63 27
q-25 0 -45 -8t-35 -20.5t-25 -29t-14 -34.5h198q6 38 -16 65zM387 708h204l-193 -144h-132z" />
    <glyph glyph-name="uni00EA" unicode="&#xea;" 
d="M524 84q-42 -46 -100.5 -71t-117.5 -25q-56 0 -103 18t-78.5 51.5t-46 80.5t-6.5 105t35.5 105t68.5 80.5t93 51.5t108 18q52 0 92 -18t65 -51.5t34.5 -80.5t1.5 -105l-7 -47h-348q3 -43 29.5 -68.5t70.5 -25.5q37 0 64.5 16.5t50.5 42.5zM411 363q-22 27 -63 27
q-25 0 -45 -8t-35 -20.5t-25 -29t-14 -34.5h198q6 38 -16 65zM375 642l-73 -78h-135l139 144h163l96 -144h-138z" />
    <glyph glyph-name="uni00EB" unicode="&#xeb;" 
d="M524 84q-42 -46 -100.5 -71t-117.5 -25q-56 0 -103 18t-78.5 51.5t-46 80.5t-6.5 105t35.5 105t68.5 80.5t93 51.5t108 18q52 0 92 -18t65 -51.5t34.5 -80.5t1.5 -105l-7 -47h-348q3 -43 29.5 -68.5t70.5 -25.5q37 0 64.5 16.5t50.5 42.5zM411 363q-22 27 -63 27
q-25 0 -45 -8t-35 -20.5t-25 -29t-14 -34.5h198q6 38 -16 65zM468 558q-35 0 -55.5 25.5t-15.5 60.5q2 16 10.5 31t21.5 26t28.5 18t32.5 7q35 0 57.5 -23t17.5 -59t-32.5 -61t-64.5 -25zM189 644q2 16 10.5 31t21.5 26t28.5 18t32.5 7q35 0 57.5 -23t17.5 -59t-32.5 -61
t-64.5 -25q-35 0 -55.5 25.5t-15.5 60.5z" />
    <glyph glyph-name="uni00EC" unicode="&#xec;" horiz-adv-x="260" 
d="M123 486h150l-68 -486h-150zM311 564h-132l-153 144h204z" />
    <glyph glyph-name="uni00ED" unicode="&#xed;" horiz-adv-x="260" 
d="M123 486h150l-68 -486h-150zM230 708h204l-193 -144h-132z" />
    <glyph glyph-name="uni00EE" unicode="&#xee;" horiz-adv-x="260" 
d="M123 486h150l-68 -486h-150zM218 642l-73 -78h-135l139 144h163l96 -144h-138z" />
    <glyph glyph-name="uni00EF" unicode="&#xef;" horiz-adv-x="260" 
d="M123 486h150l-68 -486h-150zM311 558q-35 0 -55.5 25.5t-15.5 60.5q2 16 10.5 31t21.5 26t28.5 18t32.5 7q35 0 57.5 -23t17.5 -59t-32.5 -61t-64.5 -25zM32 644q2 16 10.5 31t21.5 26t28.5 18t32.5 7q35 0 57.5 -23t17.5 -59t-32.5 -61t-64.5 -25q-35 0 -55.5 25.5
t-15.5 60.5z" />
    <glyph glyph-name="uni00F0" unicode="&#xf0;" horiz-adv-x="610" 
d="M296 672q-8 11 -26.5 29t-34.5 30l132 70q20 -17 37 -35t33 -37l121 48l67 -67l-130 -51q20 -25 45 -60t45 -81.5t29.5 -104.5t-0.5 -129q-9 -68 -34.5 -123t-65 -93.5t-92.5 -59.5t-119 -20q-56 0 -103 18t-78.5 51.5t-46 80.5t-6.5 105t36 105t67.5 80.5t86.5 51.5
t93 18q26 0 51.5 -4.5t43.5 -21.5l2 2q-8 14 -19.5 31.5t-24 35.5t-25.5 34.5t-24 27.5l-112 -45l-63 68zM219 243q-8 -55 18.5 -89t83.5 -34t93.5 34t44.5 89t-19 89t-84 34t-93 -34t-44 -89z" />
    <glyph glyph-name="uni00F1" unicode="&#xf1;" 
d="M404 238q3 21 5 43.5t-3 41.5t-19 31t-43 12t-48.5 -10.5t-31.5 -28t-18 -39.5t-9 -46l-34 -242h-150l68 486h144l-9 -66h2q9 14 24 28t34 25t43 18t51 7q57 0 90 -17.5t48 -48.5t16 -73t-6 -91l-37 -268h-150zM484 683q11 10 20 25h78q-9 -29 -21.5 -54t-30.5 -43.5
t-42 -29.5t-55 -11q-22 0 -40.5 6.5t-34.5 14.5q-17 8 -31 14.5t-29 6.5q-17 0 -29.5 -14t-18.5 -28h-79q7 25 20.5 50t32 44.5t42 31.5t51.5 12q25 0 44.5 -6t39.5 -15l26 -10q13 -5 28 -5q17 0 29 11z" />
    <glyph glyph-name="uni00F2" unicode="&#xf2;" horiz-adv-x="610" 
d="M411 6q-52 -18 -108 -18t-103 18t-78.5 51.5t-46 80.5t-6.5 105t35.5 105t68.5 80.5t93 51.5t108 18t103 -18t79 -51.5t46.5 -80.5t6.5 -105t-36 -105t-69 -80.5t-93 -51.5zM459 243q8 55 -19 89t-84 34t-93 -34t-44 -89t18.5 -89t83.5 -34t93.5 34t44.5 89zM486 564
h-132l-153 144h204z" />
    <glyph glyph-name="uni00F3" unicode="&#xf3;" horiz-adv-x="610" 
d="M411 6q-52 -18 -108 -18t-103 18t-78.5 51.5t-46 80.5t-6.5 105t35.5 105t68.5 80.5t93 51.5t108 18t103 -18t79 -51.5t46.5 -80.5t6.5 -105t-36 -105t-69 -80.5t-93 -51.5zM459 243q8 55 -19 89t-84 34t-93 -34t-44 -89t18.5 -89t83.5 -34t93.5 34t44.5 89zM405 708h204
l-193 -144h-132z" />
    <glyph glyph-name="uni00F4" unicode="&#xf4;" horiz-adv-x="610" 
d="M411 6q-52 -18 -108 -18t-103 18t-78.5 51.5t-46 80.5t-6.5 105t35.5 105t68.5 80.5t93 51.5t108 18t103 -18t79 -51.5t46.5 -80.5t6.5 -105t-36 -105t-69 -80.5t-93 -51.5zM459 243q8 55 -19 89t-84 34t-93 -34t-44 -89t18.5 -89t83.5 -34t93.5 34t44.5 89zM393 642
l-73 -78h-135l139 144h163l96 -144h-138z" />
    <glyph glyph-name="uni00F5" unicode="&#xf5;" horiz-adv-x="610" 
d="M411 6q-52 -18 -108 -18t-103 18t-78.5 51.5t-46 80.5t-6.5 105t35.5 105t68.5 80.5t93 51.5t108 18t103 -18t79 -51.5t46.5 -80.5t6.5 -105t-36 -105t-69 -80.5t-93 -51.5zM459 243q8 55 -19 89t-84 34t-93 -34t-44 -89t18.5 -89t83.5 -34t93.5 34t44.5 89zM502 683
q11 10 20 25h78q-9 -29 -21.5 -54t-30.5 -43.5t-42 -29.5t-55 -11q-22 0 -40.5 6.5t-34.5 14.5q-17 8 -31 14.5t-29 6.5q-17 0 -29.5 -14t-18.5 -28h-79q7 25 20.5 50t32 44.5t42 31.5t51.5 12q25 0 44.5 -6t39.5 -15l26 -10q13 -5 28 -5q17 0 29 11z" />
    <glyph glyph-name="uni00F6" unicode="&#xf6;" horiz-adv-x="610" 
d="M411 6q-52 -18 -108 -18t-103 18t-78.5 51.5t-46 80.5t-6.5 105t35.5 105t68.5 80.5t93 51.5t108 18t103 -18t79 -51.5t46.5 -80.5t6.5 -105t-36 -105t-69 -80.5t-93 -51.5zM459 243q8 55 -19 89t-84 34t-93 -34t-44 -89t18.5 -89t83.5 -34t93.5 34t44.5 89zM486 558
q-35 0 -55.5 25.5t-15.5 60.5q2 16 10.5 31t21.5 26t28.5 18t32.5 7q35 0 57.5 -23t17.5 -59t-32.5 -61t-64.5 -25zM207 644q2 16 10.5 31t21.5 26t28.5 18t32.5 7q35 0 57.5 -23t17.5 -59t-32.5 -61t-64.5 -25q-35 0 -55.5 25.5t-15.5 60.5z" />
    <glyph glyph-name="uni00F7" unicode="&#xf7;" horiz-adv-x="666" 
d="M658 366l-18 -126h-548l18 126h548zM418 175q10 -12 14.5 -27.5t2.5 -33.5q-3 -18 -12 -33.5t-22.5 -27t-30 -18.5t-34.5 -7q-35 0 -56.5 25.5t-16.5 60.5q2 18 11 33.5t22.5 27t30 18.5t34.5 7t32.5 -7t24.5 -18zM390 406q-18 0 -32.5 7t-24.5 18.5t-15 27t-2 33.5
q2 18 11 33.5t22.5 27t30 18.5t34.5 7t32.5 -7t24.5 -18.5t14.5 -27t2.5 -33.5q-3 -18 -12 -33.5t-22 -27t-29.5 -18.5t-34.5 -7z" />
    <glyph glyph-name="uni00F8" unicode="&#xf8;" horiz-adv-x="610" 
d="M411 6q-52 -18 -108 -18q-90 0 -153 46l-83 -73l-41 45l80 70q-24 32 -34.5 74t-2.5 93q8 58 35.5 105t68.5 80.5t93 51.5t108 18q48 0 88 -13t71 -36l76 67l41 -45l-76 -66q23 -32 32.5 -73t2.5 -89q-8 -58 -36 -105t-69 -80.5t-93 -51.5zM419 350q-26 16 -63 16
q-57 0 -93 -34t-44 -89q-6 -36 6 -63zM459 243q4 29 -4 57l-191 -166q25 -14 57 -14q57 0 93.5 34t44.5 89z" />
    <glyph glyph-name="uni00F9" unicode="&#xf9;" 
d="M360 38q-15 -14 -34.5 -25t-43.5 -18t-51 -7q-57 0 -90 17.5t-48 48.5t-16 73t6 91l38 268h150l-34 -238q-3 -21 -5 -43.5t3 -41.5t19 -31t43 -12t48.5 10.5t31.5 28t18.5 39.5t9.5 46l34 242h150l-68 -486h-144l9 66h-2q-10 -14 -24 -28zM468 564h-132l-153 144h204z
" />
    <glyph glyph-name="uni00FA" unicode="&#xfa;" 
d="M360 38q-15 -14 -34.5 -25t-43.5 -18t-51 -7q-57 0 -90 17.5t-48 48.5t-16 73t6 91l38 268h150l-34 -238q-3 -21 -5 -43.5t3 -41.5t19 -31t43 -12t48.5 10.5t31.5 28t18.5 39.5t9.5 46l34 242h150l-68 -486h-144l9 66h-2q-10 -14 -24 -28zM387 708h204l-193 -144h-132z
" />
    <glyph glyph-name="uni00FB" unicode="&#xfb;" 
d="M360 38q-15 -14 -34.5 -25t-43.5 -18t-51 -7q-57 0 -90 17.5t-48 48.5t-16 73t6 91l38 268h150l-34 -238q-3 -21 -5 -43.5t3 -41.5t19 -31t43 -12t48.5 10.5t31.5 28t18.5 39.5t9.5 46l34 242h150l-68 -486h-144l9 66h-2q-10 -14 -24 -28zM375 642l-73 -78h-135l139 144
h163l96 -144h-138z" />
    <glyph glyph-name="uni00FC" unicode="&#xfc;" 
d="M360 38q-15 -14 -34.5 -25t-43.5 -18t-51 -7q-57 0 -90 17.5t-48 48.5t-16 73t6 91l38 268h150l-34 -238q-3 -21 -5 -43.5t3 -41.5t19 -31t43 -12t48.5 10.5t31.5 28t18.5 39.5t9.5 46l34 242h150l-68 -486h-144l9 66h-2q-10 -14 -24 -28zM468 558q-35 0 -55.5 25.5
t-15.5 60.5q2 16 10.5 31t21.5 26t28.5 18t32.5 7q35 0 57.5 -23t17.5 -59t-32.5 -61t-64.5 -25zM189 644q2 16 10.5 31t21.5 26t28.5 18t32.5 7q35 0 57.5 -23t17.5 -59t-32.5 -61t-64.5 -25q-35 0 -55.5 25.5t-15.5 60.5z" />
    <glyph glyph-name="uni00FD" unicode="&#xfd;" horiz-adv-x="556" 
d="M321 -79q-20 -39 -38 -69t-42.5 -50.5t-59 -31t-88.5 -10.5q-58 0 -109 18l37 123q31 -15 67 -15q25 0 42 5.5t29 16t21 25.5t20 35l15 28l-144 490h162l80 -321h2l152 321h154zM378 708h204l-193 -144h-132z" />
    <glyph glyph-name="uni00FE" unicode="&#xfe;" horiz-adv-x="630" 
d="M467 10q-44 -22 -96 -22q-47 0 -86 14.5t-59 49.5h-2l-40 -280h-150l139 984h150l-46 -322h2q22 29 63 46.5t83 17.5q54 0 95.5 -18.5t68.5 -52t37.5 -79.5t2.5 -101q-7 -51 -29 -97.5t-55.5 -82.5t-77.5 -57zM460 332q-27 34 -84 34t-93 -34t-44 -89t18.5 -89t83.5 -34
t93.5 34t44.5 89t-19 89z" />
    <glyph glyph-name="uni00FF" unicode="&#xff;" horiz-adv-x="556" 
d="M321 -79q-20 -39 -38 -69t-42.5 -50.5t-59 -31t-88.5 -10.5q-58 0 -109 18l37 123q31 -15 67 -15q25 0 42 5.5t29 16t21 25.5t20 35l15 28l-144 490h162l80 -321h2l152 321h154zM459 558q-35 0 -55.5 25.5t-15.5 60.5q2 16 10.5 31t21.5 26t28.5 18t32.5 7q35 0 57.5 -23
t17.5 -59t-32.5 -61t-64.5 -25zM180 644q2 16 10.5 31t21.5 26t28.5 18t32.5 7q35 0 57.5 -23t17.5 -59t-32.5 -61t-64.5 -25q-35 0 -55.5 25.5t-15.5 60.5z" />
    <glyph glyph-name="uni0100" unicode="&#x100;" horiz-adv-x="741" 
d="M251 150l-80 -150h-172l405 708h129l209 -708h-176l-40 150h-275zM435 502l-117 -220h173zM319 883h340l-14 -96h-340z" />
    <glyph glyph-name="uni0101" unicode="&#x101;" horiz-adv-x="537" 
d="M187 287q52 16 109.5 19t104.5 3q5 40 -20 63.5t-64 23.5q-37 0 -69.5 -15.5t-60.5 -42.5l-68 82q47 39 105.5 58.5t118.5 19.5q66 0 106.5 -16.5t61.5 -48.5t24.5 -78.5t-5.5 -107.5l-34 -247h-138l8 61h-2q-30 -39 -74 -56t-90 -17q-34 0 -64 9.5t-51.5 28.5t-31.5 47
t-5 65q9 63 47.5 97.5t91.5 51.5zM196 120q5 -10 14 -17t21.5 -10t24.5 -3q22 0 43.5 6t39 17t29.5 28t15 40l4 32h-37q-17 0 -42.5 -1.5t-50 -8.5t-43 -21t-21.5 -39q-2 -14 3 -23zM211 687h340l-13 -96h-340z" />
    <glyph glyph-name="uni0102" unicode="&#x102;" horiz-adv-x="741" 
d="M251 150l-80 -150h-172l405 708h129l209 -708h-176l-40 150h-275zM435 502l-117 -220h173zM646 839q-20 -28 -47 -45.5t-59.5 -25.5t-68.5 -8q-35 0 -66.5 7.5t-54 25t-34.5 45t-8 66.5h80q1 -15 10 -24t23 -14.5t30.5 -7.5t33.5 -2q39 0 67 7.5t45 40.5h79
q-10 -38 -30 -65z" />
    <glyph glyph-name="uni0103" unicode="&#x103;" horiz-adv-x="537" 
d="M187 287q52 16 109.5 19t104.5 3q5 40 -20 63.5t-64 23.5q-37 0 -69.5 -15.5t-60.5 -42.5l-68 82q47 39 105.5 58.5t118.5 19.5q66 0 106.5 -16.5t61.5 -48.5t24.5 -78.5t-5.5 -107.5l-34 -247h-138l8 61h-2q-30 -39 -74 -56t-90 -17q-34 0 -64 9.5t-51.5 28.5t-31.5 47
t-5 65q9 63 47.5 97.5t91.5 51.5zM196 120q5 -10 14 -17t21.5 -10t24.5 -3q22 0 43.5 6t39 17t29.5 28t15 40l4 32h-37q-17 0 -42.5 -1.5t-50 -8.5t-43 -21t-21.5 -39q-2 -14 3 -23zM539 643q-20 -28 -47 -45.5t-59.5 -25.5t-68.5 -8t-67 7.5t-54 25t-34.5 45t-8.5 66.5h80
q1 -15 10.5 -24t23 -14.5t30 -7.5t33.5 -2q39 0 67.5 7.5t44.5 40.5h79q-9 -38 -29 -65z" />
    <glyph glyph-name="uni0104" unicode="&#x104;" horiz-adv-x="741" 
d="M547 -122q-2 -17 8 -31.5t28 -14.5q14 0 29 7t28 16l21 -53q-28 -19 -55.5 -30.5t-59.5 -11.5q-21 0 -39.5 6t-31 18t-18.5 29t-3 40q3 19 14 39.5t27 40t34.5 37t36.5 30.5l-40 150h-275l-80 -150h-172l405 708h129l209 -708h-107q-14 -12 -28.5 -27t-27 -31
t-21.5 -32.5t-11 -31.5zM318 282h173l-56 220z" />
    <glyph glyph-name="uni0105" unicode="&#x105;" horiz-adv-x="537" 
d="M84 26q-21 19 -31 47t-5 65q6 42 26 71t49 48t64 29.5t72.5 15.5t74 6t67.5 1q5 40 -20 63.5t-64 23.5q-37 0 -69.5 -15.5t-60.5 -42.5l-68 82q48 39 106 58.5t118 19.5q66 0 106.5 -16.5t61.5 -48.5t24.5 -78.5t-5.5 -107.5l-34 -247h-68q-14 -12 -28.5 -27t-27 -31
t-21.5 -32.5t-11 -31.5q-2 -17 8 -31.5t28 -14.5q14 0 29 7t28 16l21 -53q-28 -19 -55.5 -30.5t-59.5 -11.5q-21 0 -39.5 6t-31 18t-18.5 29t-3 40q3 19 14 39.5t27 39.5t34.5 36.5t35.5 31.5l8 61h-2q-30 -39 -74 -56t-90 -17q-35 0 -65 9.5t-51 28.5zM196 120
q5 -10 14 -17t21.5 -10t24.5 -3q22 0 43.5 6t39 17t29.5 28t15 40l4 32h-37q-17 0 -42.5 -1.5t-50 -8.5t-43 -21t-21.5 -39q-2 -14 3 -23z" />
    <glyph glyph-name="uni0106" unicode="&#x106;" horiz-adv-x="685" 
d="M580 721q31 -6 61 -18t56.5 -32t44.5 -49l-134 -98q-20 28 -51 43t-75 15t-84 -17t-71.5 -47.5t-53 -72.5t-28.5 -91q-7 -50 2.5 -91.5t32 -72t57 -47.5t76.5 -17q48 0 88 20t69 56l116 -97q-54 -63 -127 -93t-146 -30q-83 0 -149.5 26t-110.5 74.5t-63 117.5t-7 154
t50.5 154t96 117.5t131.5 74.5t157 26q30 0 62 -5zM520 904h204l-194 -144h-132z" />
    <glyph glyph-name="uni0107" unicode="&#x107;" horiz-adv-x="482" 
d="M466 484q45 -15 75 -51l-113 -104q-9 16 -27.5 26.5t-41.5 10.5q-57 0 -93 -34t-44 -89t18.5 -89t83.5 -34q25 0 45 11t35 26l84 -104q-41 -36 -90 -50.5t-92 -14.5q-56 0 -103 18t-78.5 51.5t-46 80.5t-6.5 105t35.5 105t68.5 80.5t93 51.5t108 18q43 0 89 -14zM395 708
h204l-193 -144h-132z" />
    <glyph glyph-name="uni0108" unicode="&#x108;" horiz-adv-x="685" 
d="M580 721q31 -6 61 -18t56.5 -32t44.5 -49l-134 -98q-20 28 -51 43t-75 15t-84 -17t-71.5 -47.5t-53 -72.5t-28.5 -91q-7 -50 2.5 -91.5t32 -72t57 -47.5t76.5 -17q48 0 88 20t69 56l116 -97q-54 -63 -127 -93t-146 -30q-83 0 -149.5 26t-110.5 74.5t-63 117.5t-7 154
t50.5 154t96 117.5t131.5 74.5t157 26q30 0 62 -5zM515 838l-73 -78h-135l140 144h163l95 -144h-138z" />
    <glyph glyph-name="uni0109" unicode="&#x109;" horiz-adv-x="482" 
d="M466 484q45 -15 75 -51l-113 -104q-9 16 -27.5 26.5t-41.5 10.5q-57 0 -93 -34t-44 -89t18.5 -89t83.5 -34q25 0 45 11t35 26l84 -104q-41 -36 -90 -50.5t-92 -14.5q-56 0 -103 18t-78.5 51.5t-46 80.5t-6.5 105t35.5 105t68.5 80.5t93 51.5t108 18q43 0 89 -14zM379 642
l-73 -78h-135l139 144h163l96 -144h-138z" />
    <glyph glyph-name="uni010A" unicode="&#x10a;" horiz-adv-x="685" 
d="M580 721q31 -6 61 -18t56.5 -32t44.5 -49l-134 -98q-20 28 -51 43t-75 15t-84 -17t-71.5 -47.5t-53 -72.5t-28.5 -91q-7 -50 2.5 -91.5t32 -72t57 -47.5t76.5 -17q48 0 88 20t69 56l116 -97q-54 -63 -127 -93t-146 -30q-83 0 -149.5 26t-110.5 74.5t-63 117.5t-7 154
t50.5 154t96 117.5t131.5 74.5t157 26q30 0 62 -5zM591 807q-9 -16 -22 -28t-30 -18.5t-35 -6.5t-32 7t-23.5 19t-13.5 27.5t-1 32.5q2 16 10.5 31t21 26t28 18t32.5 7q35 0 58 -23t18 -59q-3 -18 -11 -33z" />
    <glyph glyph-name="uni010B" unicode="&#x10b;" horiz-adv-x="482" 
d="M466 484q45 -15 75 -51l-113 -104q-9 16 -27.5 26.5t-41.5 10.5q-57 0 -93 -34t-44 -89t18.5 -89t83.5 -34q25 0 45 11t35 26l84 -104q-41 -36 -90 -50.5t-92 -14.5q-56 0 -103 18t-78.5 51.5t-46 80.5t-6.5 105t35.5 105t68.5 80.5t93 51.5t108 18q43 0 89 -14zM465 644
q-5 -36 -32.5 -61t-64.5 -25q-35 0 -55.5 25.5t-15.5 60.5q2 16 10.5 31t21.5 26t28.5 18t32.5 7q35 0 57.5 -23t17.5 -59z" />
    <glyph glyph-name="uni010C" unicode="&#x10c;" horiz-adv-x="685" 
d="M580 721q31 -6 61 -18t56.5 -32t44.5 -49l-134 -98q-20 28 -51 43t-75 15t-84 -17t-71.5 -47.5t-53 -72.5t-28.5 -91q-7 -50 2.5 -91.5t32 -72t57 -47.5t76.5 -17q48 0 88 20t69 56l116 -97q-54 -63 -127 -93t-146 -30q-83 0 -149.5 26t-110.5 74.5t-63 117.5t-7 154
t50.5 154t96 117.5t131.5 74.5t157 26q30 0 62 -5zM423 787l-96 144h138l52 -78l73 78h135l-139 -144h-163z" />
    <glyph glyph-name="uni010D" unicode="&#x10d;" horiz-adv-x="482" 
d="M466 484q45 -15 75 -51l-113 -104q-9 16 -27.5 26.5t-41.5 10.5q-57 0 -93 -34t-44 -89t18.5 -89t83.5 -34q25 0 45 11t35 26l84 -104q-41 -36 -90 -50.5t-92 -14.5q-56 0 -103 18t-78.5 51.5t-46 80.5t-6.5 105t35.5 105t68.5 80.5t93 51.5t108 18q43 0 89 -14zM283 564
l-96 144h138l52 -78l73 78h135l-139 -144h-163z" />
    <glyph glyph-name="uni010E" unicode="&#x10e;" horiz-adv-x="759" 
d="M618 91q-61 -45 -136.5 -68t-154.5 -23h-255l99 708h234q85 0 158.5 -19t125 -61.5t75 -110.5t10.5 -165q-12 -86 -53.5 -151.5t-102.5 -109.5zM613 360q7 52 -6.5 90.5t-43.5 63.5t-72.5 37.5t-91.5 12.5h-92l-59 -420h81q54 0 102 11t85.5 36.5t62.5 67t34 101.5z
M365 787l-96 144h138l52 -78l73 78h135l-139 -144h-163z" />
    <glyph glyph-name="uni010F" unicode="&#x10f;" horiz-adv-x="630" 
d="M431 64q-10 -13 -26.5 -26.5t-37.5 -24.5t-45.5 -18t-49.5 -7q-54 0 -95.5 18.5t-68.5 52t-37.5 79.5t-2.5 101q7 51 29 97.5t55.5 82.5t77.5 57.5t96 21.5q47 0 86 -14.5t59 -49.5h2l46 322h150l-106 -756h-138l8 64h-2zM459 243q8 55 -19 89t-84 34t-93 -34t-44 -89
t18.5 -89t83.5 -34t93.5 34t44.5 89zM756 708h134l-108 -199h-98z" />
    <glyph glyph-name="uni0110" unicode="&#x110;" horiz-adv-x="759" 
d="M689 628q51 -43 74.5 -111t10.5 -165q-12 -86 -53.5 -151.5t-102.5 -110t-136.5 -67.5t-154.5 -23h-255l44 318h-60l15 102h60l40 288h234q85 0 158.5 -19t125.5 -61zM491 552q-43 12 -92 12h-92l-20 -144h198l-15 -102h-198l-24 -174h81q54 0 102 11t85.5 36.5t62.5 67
t34 101.5q7 52 -6.5 90.5t-43.5 63.5t-72 38z" />
    <glyph glyph-name="uni0111" unicode="&#x111;" horiz-adv-x="630" 
d="M519 756h150l-14 -99h56l-14 -96h-56l-78 -561h-138l8 64h-2q-11 -13 -27.5 -26.5t-37 -24.5t-45 -18t-49.5 -7q-54 0 -95.5 18.5t-68.5 52t-37.5 79.5t-2.5 101q7 51 29 97.5t55.5 82.5t77.5 57.5t96 21.5q48 0 86 -14.5t59 -49.5h2l18 127h-134l14 96h134zM459 243
q8 55 -19 89t-84 34t-93 -34t-44 -89t18.5 -89t83.5 -34t93.5 34t44.5 89z" />
    <glyph glyph-name="uni0112" unicode="&#x112;" horiz-adv-x="630" 
d="M313 564l-19 -132h307l-20 -144h-307l-20 -144h343l-20 -144h-499l99 708h481l-20 -144h-325zM278 883h340l-14 -96h-340z" />
    <glyph glyph-name="uni0113" unicode="&#x113;" 
d="M524 84q-42 -46 -100.5 -71t-117.5 -25q-56 0 -103 18t-78.5 51.5t-46 80.5t-6.5 105t35.5 105t68.5 80.5t93 51.5t108 18q52 0 92 -18t65 -51.5t34.5 -80.5t1.5 -105l-7 -47h-348q3 -43 29.5 -68.5t70.5 -25.5q37 0 64.5 16.5t50.5 42.5zM411 363q-22 27 -63 27
q-25 0 -45 -8t-35 -20.5t-25 -29t-14 -34.5h198q6 38 -16 65zM222 687h340l-13 -96h-340z" />
    <glyph glyph-name="uni0114" unicode="&#x114;" horiz-adv-x="630" 
d="M313 564l-19 -132h307l-20 -144h-307l-20 -144h343l-20 -144h-499l99 708h481l-20 -144h-325zM605 839q-20 -28 -47 -45.5t-59.5 -25.5t-68.5 -8q-35 0 -66.5 7.5t-54 25t-34.5 45t-8 66.5h80q1 -15 10 -24t23 -14.5t30.5 -7.5t33.5 -2q39 0 67 7.5t45 40.5h79
q-10 -38 -30 -65z" />
    <glyph glyph-name="uni0115" unicode="&#x115;" 
d="M524 84q-42 -46 -100.5 -71t-117.5 -25q-56 0 -103 18t-78.5 51.5t-46 80.5t-6.5 105t35.5 105t68.5 80.5t93 51.5t108 18q52 0 92 -18t65 -51.5t34.5 -80.5t1.5 -105l-7 -47h-348q3 -43 29.5 -68.5t70.5 -25.5q37 0 64.5 16.5t50.5 42.5zM411 363q-22 27 -63 27
q-25 0 -45 -8t-35 -20.5t-25 -29t-14 -34.5h198q6 38 -16 65zM550 643q-20 -28 -47 -45.5t-59.5 -25.5t-68.5 -8t-67 7.5t-54 25t-34.5 45t-8.5 66.5h80q1 -15 10.5 -24t23 -14.5t30 -7.5t33.5 -2q39 0 67.5 7.5t44.5 40.5h79q-9 -38 -29 -65z" />
    <glyph glyph-name="uni0116" unicode="&#x116;" horiz-adv-x="630" 
d="M313 564l-19 -132h307l-20 -144h-307l-20 -144h343l-20 -144h-499l99 708h481l-20 -144h-325zM523 807q-9 -16 -22 -28t-30 -18.5t-35 -6.5t-32 7t-23.5 19t-13.5 27.5t-1 32.5q2 16 10.5 31t21 26t28 18t32.5 7q35 0 58 -23t18 -59q-3 -18 -11 -33z" />
    <glyph glyph-name="uni0117" unicode="&#x117;" 
d="M524 84q-42 -46 -100.5 -71t-117.5 -25q-56 0 -103 18t-78.5 51.5t-46 80.5t-6.5 105t35.5 105t68.5 80.5t93 51.5t108 18q52 0 92 -18t65 -51.5t34.5 -80.5t1.5 -105l-7 -47h-348q3 -43 29.5 -68.5t70.5 -25.5q37 0 64.5 16.5t50.5 42.5zM411 363q-22 27 -63 27
q-25 0 -45 -8t-35 -20.5t-25 -29t-14 -34.5h198q6 38 -16 65zM476 644q-5 -36 -32.5 -61t-64.5 -25q-35 0 -55.5 25.5t-15.5 60.5q2 16 10.5 31t21.5 26t28.5 18t32.5 7q35 0 57.5 -23t17.5 -59z" />
    <glyph glyph-name="uni0118" unicode="&#x118;" horiz-adv-x="630" 
d="M461 -168q14 0 29 7t28 16l21 -53q-28 -19 -55.5 -30.5t-59.5 -11.5q-21 0 -39.5 6t-31 18t-18.5 29t-3 40q3 19 14 39.5t27 39.5t34.5 36.5t35.5 31.5h-365l99 708h481l-20 -144h-325l-19 -132h307l-20 -144h-307l-20 -144h343l-20 -144h-64q-14 -12 -28.5 -27t-27 -31
t-21.5 -32.5t-11 -31.5q-2 -17 8 -31.5t28 -14.5z" />
    <glyph glyph-name="uni0119" unicode="&#x119;" 
d="M315 -168q14 0 29 7t28 16l21 -53q-28 -19 -55.5 -30.5t-59.5 -11.5q-21 0 -39.5 6t-31 18t-18.5 29t-3 40q3 18 12 36t22.5 35.5t29.5 34t32 30.5q-51 4 -93.5 23.5t-71 52.5t-41 78t-4.5 100q8 58 35.5 105t68.5 80.5t93 51.5t108 18q52 0 92 -18t65 -51.5t34.5 -80.5
t1.5 -105l-7 -47h-348q3 -43 29 -68.5t71 -25.5q37 0 64.5 16.5t50.5 42.5l94 -77q-34 -36 -76.5 -59t-88.5 -32q-14 -12 -27 -26t-24 -29t-19 -30.5t-10 -29.5q-2 -17 8 -31.5t28 -14.5zM303 382q-20 -8 -35.5 -20.5t-25 -29t-13.5 -34.5h198q7 38 -15.5 65t-63.5 27
q-25 0 -45 -8z" />
    <glyph glyph-name="uni011A" unicode="&#x11a;" horiz-adv-x="630" 
d="M313 564l-19 -132h307l-20 -144h-307l-20 -144h343l-20 -144h-499l99 708h481l-20 -144h-325zM347 787l-96 144h138l52 -78l73 78h135l-139 -144h-163z" />
    <glyph glyph-name="uni011B" unicode="&#x11b;" 
d="M524 84q-42 -46 -100.5 -71t-117.5 -25q-56 0 -103 18t-78.5 51.5t-46 80.5t-6.5 105t35.5 105t68.5 80.5t93 51.5t108 18q52 0 92 -18t65 -51.5t34.5 -80.5t1.5 -105l-7 -47h-348q3 -43 29.5 -68.5t70.5 -25.5q37 0 64.5 16.5t50.5 42.5zM411 363q-22 27 -63 27
q-25 0 -45 -8t-35 -20.5t-25 -29t-14 -34.5h198q6 38 -16 65zM288 564l-96 144h138l52 -78l73 78h135l-139 -144h-163z" />
    <glyph glyph-name="uni011C" unicode="&#x11c;" horiz-adv-x="778" 
d="M720 50q-75 -36 -152 -52t-155 -16q-83 0 -149.5 26t-110.5 74.5t-63 117.5t-7 154t50.5 154t96 117.5t131.5 74.5t157 26q85 0 153.5 -20.5t115.5 -70.5l-127 -120q-27 33 -65 50t-98 17q-50 0 -93 -17t-76 -47.5t-54.5 -72.5t-28.5 -91q-7 -50 3 -91.5t34.5 -72
t62.5 -47.5t88 -17q51 0 90 11.5t62 23.5l16 115h-127l21 144h277zM527 838l-73 -78h-135l140 144h163l95 -144h-138z" />
    <glyph glyph-name="uni011D" unicode="&#x11d;" horiz-adv-x="630" 
d="M348 9q-41 -15 -75 -15q-54 0 -95.5 18.5t-68.5 52t-37.5 79.5t-2.5 101q7 48 28.5 94t55 81t77.5 56.5t96 21.5q32 0 58 -7t45.5 -18t32.5 -24.5t20 -26.5h2l9 64h138l-63 -445q-19 -138 -98.5 -209.5t-221.5 -71.5q-65 0 -126 14.5t-108 56.5l100 124q31 -29 67 -46
t82 -17q69 0 106 33.5t45 85.5l7 47h-2q-31 -35 -71 -49zM356 366q-26 0 -49 -10t-41.5 -26.5t-31 -38t-15.5 -45.5t3 -45.5t19.5 -38t34 -26.5t46.5 -10q25 0 48.5 10t42 26.5t31 38t15.5 45.5t-3 45.5t-19.5 38t-34.5 26.5t-46 10zM399 642l-73 -78h-135l139 144h163
l96 -144h-138z" />
    <glyph glyph-name="uni011E" unicode="&#x11e;" horiz-adv-x="778" 
d="M720 50q-75 -36 -152 -52t-155 -16q-83 0 -149.5 26t-110.5 74.5t-63 117.5t-7 154t50.5 154t96 117.5t131.5 74.5t157 26q85 0 153.5 -20.5t115.5 -70.5l-127 -120q-27 33 -65 50t-98 17q-50 0 -93 -17t-76 -47.5t-54.5 -72.5t-28.5 -91q-7 -50 3 -91.5t34.5 -72
t62.5 -47.5t88 -17q51 0 90 11.5t62 23.5l16 115h-127l21 144h277zM693 839q-20 -28 -47 -45.5t-59.5 -25.5t-68.5 -8q-35 0 -66.5 7.5t-54 25t-34.5 45t-8 66.5h80q1 -15 10 -24t23 -14.5t30.5 -7.5t33.5 -2q39 0 67 7.5t45 40.5h79q-10 -38 -30 -65z" />
    <glyph glyph-name="uni011F" unicode="&#x11f;" horiz-adv-x="630" 
d="M348 9q-41 -15 -75 -15q-54 0 -95.5 18.5t-68.5 52t-37.5 79.5t-2.5 101q7 48 28.5 94t55 81t77.5 56.5t96 21.5q32 0 58 -7t45.5 -18t32.5 -24.5t20 -26.5h2l9 64h138l-63 -445q-19 -138 -98.5 -209.5t-221.5 -71.5q-65 0 -126 14.5t-108 56.5l100 124q31 -29 67 -46
t82 -17q69 0 106 33.5t45 85.5l7 47h-2q-31 -35 -71 -49zM356 366q-26 0 -49 -10t-41.5 -26.5t-31 -38t-15.5 -45.5t3 -45.5t19.5 -38t34 -26.5t46.5 -10q25 0 48.5 10t42 26.5t31 38t15.5 45.5t-3 45.5t-19.5 38t-34.5 26.5t-46 10zM575 643q-20 -28 -47 -45.5t-59.5 -25.5
t-68.5 -8t-67 7.5t-54 25t-34.5 45t-8.5 66.5h80q1 -15 10.5 -24t23 -14.5t30 -7.5t33.5 -2q39 0 67.5 7.5t44.5 40.5h79q-9 -38 -29 -65z" />
    <glyph glyph-name="uni0120" unicode="&#x120;" horiz-adv-x="778" 
d="M720 50q-75 -36 -152 -52t-155 -16q-83 0 -149.5 26t-110.5 74.5t-63 117.5t-7 154t50.5 154t96 117.5t131.5 74.5t157 26q85 0 153.5 -20.5t115.5 -70.5l-127 -120q-27 33 -65 50t-98 17q-50 0 -93 -17t-76 -47.5t-54.5 -72.5t-28.5 -91q-7 -50 3 -91.5t34.5 -72
t62.5 -47.5t88 -17q51 0 90 11.5t62 23.5l16 115h-127l21 144h277zM603 807q-9 -16 -22 -28t-30 -18.5t-35 -6.5t-32 7t-23.5 19t-13.5 27.5t-1 32.5q2 16 10.5 31t21 26t28 18t32.5 7q35 0 58 -23t18 -59q-3 -18 -11 -33z" />
    <glyph glyph-name="uni0121" unicode="&#x121;" horiz-adv-x="630" 
d="M348 9q-41 -15 -75 -15q-54 0 -95.5 18.5t-68.5 52t-37.5 79.5t-2.5 101q7 48 28.5 94t55 81t77.5 56.5t96 21.5q32 0 58 -7t45.5 -18t32.5 -24.5t20 -26.5h2l9 64h138l-63 -445q-19 -138 -98.5 -209.5t-221.5 -71.5q-65 0 -126 14.5t-108 56.5l100 124q31 -29 67 -46
t82 -17q69 0 106 33.5t45 85.5l7 47h-2q-31 -35 -71 -49zM356 366q-26 0 -49 -10t-41.5 -26.5t-31 -38t-15.5 -45.5t3 -45.5t19.5 -38t34 -26.5t46.5 -10q25 0 48.5 10t42 26.5t31 38t15.5 45.5t-3 45.5t-19.5 38t-34.5 26.5t-46 10zM495 644q-5 -36 -32.5 -61t-64.5 -25
q-35 0 -55.5 25.5t-15.5 60.5q2 16 10.5 31t21.5 26t28.5 18t32.5 7q35 0 57.5 -23t17.5 -59z" />
    <glyph glyph-name="uni0122" unicode="&#x122;" horiz-adv-x="778" 
d="M720 50q-75 -36 -152 -52t-155 -16q-83 0 -149.5 26t-110.5 74.5t-63 117.5t-7 154t50.5 154t96 117.5t131.5 74.5t157 26q85 0 153.5 -20.5t115.5 -70.5l-127 -120q-27 33 -65 50t-98 17q-50 0 -93 -17t-76 -47.5t-54.5 -72.5t-28.5 -91q-7 -50 3 -91.5t34.5 -72
t62.5 -47.5t88 -17q51 0 90 11.5t62 23.5l16 115h-127l21 144h277zM356 -61h144l-118 -199h-117z" />
    <glyph glyph-name="uni0123" unicode="&#x123;" horiz-adv-x="630" 
d="M348 9q-41 -15 -75 -15q-54 0 -95.5 18.5t-68.5 52t-37.5 79.5t-2.5 101q7 48 28.5 94t55 81t77.5 56.5t96 21.5q32 0 58 -7t45.5 -18t32.5 -24.5t20 -26.5h2l9 64h138l-63 -445q-19 -138 -98.5 -209.5t-221.5 -71.5q-65 0 -126 14.5t-108 56.5l100 124q31 -29 67 -46
t82 -17q69 0 106 33.5t45 85.5l7 47h-2q-31 -35 -71 -49zM356 366q-26 0 -49 -10t-41.5 -26.5t-31 -38t-15.5 -45.5t3 -45.5t19.5 -38t34 -26.5t46.5 -10q25 0 48.5 10t42 26.5t31 38t15.5 45.5t-3 45.5t-19.5 38t-34.5 26.5t-46 10zM428 783h118l-92 -199h-144z" />
    <glyph glyph-name="uni0124" unicode="&#x124;" horiz-adv-x="759" 
d="M531 0l43 306h-303l-43 -306h-156l99 708h156l-37 -264h303l37 264h156l-99 -708h-156zM494 838l-73 -78h-135l140 144h163l95 -144h-138z" />
    <glyph glyph-name="uni0125" unicode="&#x125;" 
d="M404 238q3 21 5 43.5t-3 41.5t-19 31t-43 12t-48.5 -10.5t-31.5 -28t-18 -39.5t-9 -46l-34 -242h-150l106 756h150l-47 -336h2q7 14 20.5 28t32 25t42.5 18t51 7q57 0 90 -17.5t48 -48.5t16 -73t-6 -91l-37 -268h-150zM387 878l-73 -78h-135l140 144h163l95 -144h-138z
" />
    <glyph glyph-name="uni0126" unicode="&#x126;" horiz-adv-x="759" 
d="M531 0l43 306h-303l-43 -306h-156l99 708h156l-12 -88h303l12 88h156l-99 -708h-156zM593 444l11 80h-303l-11 -80h303z" />
    <glyph glyph-name="uni0127" unicode="&#x127;" 
d="M344 366q-29 0 -48.5 -10.5t-31.5 -28t-18 -39.5t-9 -46l-34 -242h-150l78 561h-56l14 96h56l14 99h150l-14 -99h134l-14 -96h-134l-19 -141h2q7 14 20.5 28t32.5 25t42.5 18t50.5 7q57 0 89.5 -17.5t48 -48.5t16.5 -73t-6 -91l-37 -268h-150l33 238q3 21 4.5 43.5
t-3 41.5t-19 31t-42.5 12z" />
    <glyph glyph-name="uni0128" unicode="&#x128;" horiz-adv-x="296" 
d="M169 708h156l-99 -708h-156zM373 879q12 10 21 25h78q-9 -29 -22 -54t-31 -43.5t-42 -29.5t-55 -11q-22 0 -40 6.5t-35 14.5q-16 8 -30.5 14.5t-29.5 6.5q-17 0 -28.5 -14t-19.5 -28h-79q8 25 21.5 50t32 44.5t42 31.5t51.5 12q25 0 44 -6t40 -15q14 -5 26 -10t27 -5
q17 0 29 11z" />
    <glyph glyph-name="uni0129" unicode="&#x129;" horiz-adv-x="260" 
d="M123 486h150l-68 -486h-150zM329 683q11 10 20 25h78q-9 -29 -21.5 -54t-30.5 -43.5t-42 -29.5t-55 -11q-22 0 -40.5 6.5t-34.5 14.5q-17 8 -31 14.5t-29 6.5q-17 0 -29.5 -14t-18.5 -28h-79q7 25 20.5 50t32 44.5t42 31.5t51.5 12q25 0 44.5 -6t39.5 -15l26 -10
q13 -5 28 -5q17 0 29 11z" />
    <glyph glyph-name="uni012A" unicode="&#x12a;" horiz-adv-x="296" 
d="M169 708h156l-99 -708h-156zM101 883h340l-14 -96h-340z" />
    <glyph glyph-name="uni012B" unicode="&#x12b;" horiz-adv-x="260" 
d="M123 486h150l-68 -486h-150zM58 687h340l-13 -96h-340z" />
    <glyph glyph-name="uni012C" unicode="&#x12c;" horiz-adv-x="296" 
d="M169 708h156l-99 -708h-156zM421 837q-20 -28 -47 -45.5t-59.5 -25.5t-68.5 -8t-67 7.5t-54 25t-34.5 45t-8.5 66.5h80q1 -15 10.5 -24t23 -14.5t30 -7.5t33.5 -2q39 0 67.5 7.5t44.5 40.5h79q-9 -38 -29 -65z" />
    <glyph glyph-name="uni012D" unicode="&#x12d;" horiz-adv-x="260" 
d="M123 486h150l-68 -486h-150zM374 616q-20 -28 -47 -45.5t-59.5 -25.5t-68.5 -8t-67 7.5t-54 25t-34.5 45t-8.5 66.5h80q1 -15 10.5 -24t23 -14.5t30 -7.5t33.5 -2q39 0 67.5 7.5t44.5 40.5h79q-9 -38 -29 -65z" />
    <glyph glyph-name="uni012E" unicode="&#x12e;" horiz-adv-x="296" 
d="M111 -229q-28 -11 -60 -11q-21 0 -39 6t-30.5 18t-18.5 29t-3 40q3 19 14 39.5t26.5 39.5t34 36.5t35.5 31.5l99 708h156l-99 -708h-86q-14 -12 -28.5 -27t-27 -31t-21.5 -32.5t-11 -31.5q-2 -17 8 -31.5t28 -14.5q14 0 29 7t28 16l21 -53q-28 -19 -55 -31z" />
    <glyph glyph-name="uni012F" unicode="&#x12f;" horiz-adv-x="260" 
d="M-5 -216q-13 12 -18.5 29t-2.5 40q3 19 14 39.5t26.5 39.5t34 36.5t35.5 31.5h-29l68 486h150l-68 -486h-51q-14 -12 -28.5 -27t-27 -31t-21.5 -32.5t-11 -31.5q-2 -17 8 -31.5t28 -14.5q14 0 29 7t28 16l21 -53q-28 -19 -55.5 -30.5t-59.5 -11.5q-21 0 -39 6t-31 18z
M132 639q3 18 12 34t22.5 27.5t30.5 18.5t35 7q36 0 57.5 -25.5t16.5 -61.5q-2 -18 -11 -34t-22.5 -27.5t-30.5 -18.5t-35 -7t-33 7t-25 18.5t-14.5 27.5t-2.5 34z" />
    <glyph glyph-name="uni0130" unicode="&#x130;" horiz-adv-x="296" 
d="M169 708h156l-99 -708h-156zM345 807q-9 -16 -22 -28t-30 -18.5t-35 -6.5t-32 7t-23.5 19t-13.5 27.5t-1 32.5q2 16 10.5 31t21 26t28 18t32.5 7q35 0 58 -23t18 -59q-3 -18 -11 -33z" />
    <glyph glyph-name="uni0131" unicode="&#x131;" horiz-adv-x="260" 
d="M123 486h150l-68 -486h-150z" />
    <glyph glyph-name="uni0134" unicode="&#x134;" horiz-adv-x="500" 
d="M471 237q-7 -49 -22 -95t-44 -81.5t-76.5 -57t-119.5 -21.5q-84 0 -136.5 40t-57.5 125l148 35q-1 -26 17 -44t44 -18q27 0 44 13.5t27 33.5t14.5 43.5t7.5 43.5l64 454h156zM476 838l-73 -78h-135l140 144h163l95 -144h-138z" />
    <glyph glyph-name="uni0135" unicode="&#x135;" horiz-adv-x="260" 
d="M140 -185q-25 -26 -61 -40.5t-87 -14.5q-17 0 -34.5 1.5t-34.5 6.5l27 133q16 -9 37 -9q19 0 31 10t19 25t10.5 32t5.5 31l70 496h150l-74 -522q-6 -47 -20.5 -84.5t-38.5 -64.5zM218 642l-73 -78h-135l139 144h163l96 -144h-138z" />
    <glyph glyph-name="uni0136" unicode="&#x136;" horiz-adv-x="722" 
d="M522 0l-241 336l-47 -336h-156l99 708h156l-41 -294l316 294h204l-361 -329l289 -379h-218zM287 -61h144l-118 -199h-117z" />
    <glyph glyph-name="uni0137" unicode="&#x137;" horiz-adv-x="556" 
d="M397 267l161 -267h-189l-130 246h-2l-34 -246h-150l106 756h150l-65 -462l193 192h184zM197 -61h144l-118 -199h-117z" />
    <glyph glyph-name="uni0139" unicode="&#x139;" horiz-adv-x="537" 
d="M543 144l-20 -144h-445l99 708h156l-79 -564h289zM284 904h204l-194 -144h-132z" />
    <glyph glyph-name="uni013A" unicode="&#x13a;" horiz-adv-x="260" 
d="M161 756h150l-106 -756h-150zM273 944h204l-194 -144h-132z" />
    <glyph glyph-name="uni013B" unicode="&#x13b;" horiz-adv-x="537" 
d="M543 144l-20 -144h-445l99 708h156l-79 -564h289zM223 -61h144l-118 -199h-117z" />
    <glyph glyph-name="uni013C" unicode="&#x13c;" horiz-adv-x="260" 
d="M161 756h150l-106 -756h-150zM70 -61h144l-118 -199h-117z" />
    <glyph glyph-name="uni013D" unicode="&#x13d;" horiz-adv-x="537" 
d="M543 144l-20 -144h-445l99 708h156l-79 -564h289zM455 708h134l-108 -199h-98z" />
    <glyph glyph-name="uni013E" unicode="&#x13e;" horiz-adv-x="260" 
d="M161 756h150l-106 -756h-150zM400 708h134l-108 -199h-98z" />
    <glyph glyph-name="uni013F" unicode="&#x13f;" horiz-adv-x="537" 
d="M543 144l-20 -144h-445l99 708h156l-79 -564h289zM554 405q-5 -36 -32.5 -61t-64.5 -25q-35 0 -55.5 25.5t-15.5 60.5q2 16 10.5 31t21.5 26t28.5 18t32.5 7q35 0 57.5 -23t17.5 -59z" />
    <glyph glyph-name="uni0140" unicode="&#x140;" horiz-adv-x="400" 
d="M161 756h150l-106 -756h-150zM470 411q-5 -36 -32.5 -61t-64.5 -25q-35 0 -55.5 25.5t-15.5 60.5q2 16 10.5 31t21.5 26t28.5 18t32.5 7q35 0 57.5 -23t17.5 -59z" />
    <glyph glyph-name="uni0141" unicode="&#x141;" horiz-adv-x="537" 
d="M78 0l22 160l-67 -52l18 132l68 52l58 416h156l-39 -281l236 185l-19 -130l-236 -184l-21 -154h289l-20 -144h-445z" />
    <glyph glyph-name="uni0142" unicode="&#x142;" horiz-adv-x="260" 
d="M260 398l-55 -398h-150l34 248l-68 -61l18 129l68 61l54 379h150l-32 -229l68 61l-18 -129z" />
    <glyph glyph-name="uni0143" unicode="&#x143;" horiz-adv-x="815" 
d="M539 0l-239 504h-2l-70 -504h-156l99 708h212l232 -492h2l69 492h156l-99 -708h-204zM551 904h204l-194 -144h-132z" />
    <glyph glyph-name="uni0144" unicode="&#x144;" 
d="M404 238q3 21 5 43.5t-3 41.5t-19 31t-43 12t-48.5 -10.5t-31.5 -28t-18 -39.5t-9 -46l-34 -242h-150l68 486h144l-9 -66h2q9 14 24 28t34 25t43 18t51 7q57 0 90 -17.5t48 -48.5t16 -73t-6 -91l-37 -268h-150zM361 708h204l-193 -144h-132z" />
    <glyph glyph-name="uni0145" unicode="&#x145;" horiz-adv-x="815" 
d="M539 0l-239 504h-2l-70 -504h-156l99 708h212l232 -492h2l69 492h156l-99 -708h-204zM328 -61h144l-118 -199h-117z" />
    <glyph glyph-name="uni0146" unicode="&#x146;" 
d="M404 238q3 21 5 43.5t-3 41.5t-19 31t-43 12t-48.5 -10.5t-31.5 -28t-18 -39.5t-9 -46l-34 -242h-150l68 486h144l-9 -66h2q9 14 24 28t34 25t43 18t51 7q57 0 90 -17.5t48 -48.5t16 -73t-6 -91l-37 -268h-150zM219 -61h144l-118 -199h-117z" />
    <glyph glyph-name="uni0147" unicode="&#x147;" horiz-adv-x="815" 
d="M539 0l-239 504h-2l-70 -504h-156l99 708h212l232 -492h2l69 492h156l-99 -708h-204zM467 787l-96 144h138l52 -78l73 78h135l-139 -144h-163z" />
    <glyph glyph-name="uni0148" unicode="&#x148;" 
d="M404 238q3 21 5 43.5t-3 41.5t-19 31t-43 12t-48.5 -10.5t-31.5 -28t-18 -39.5t-9 -46l-34 -242h-150l68 486h144l-9 -66h2q9 14 24 28t34 25t43 18t51 7q57 0 90 -17.5t48 -48.5t16 -73t-6 -91l-37 -268h-150zM279 564l-96 144h138l52 -78l73 78h135l-139 -144h-163z
" />
    <glyph glyph-name="uni014C" unicode="&#x14c;" horiz-adv-x="832" 
d="M570 8q-74 -26 -157 -26t-149.5 26t-110.5 74.5t-63 117.5t-7 154t50.5 154t96 117.5t131.5 74.5t157 26t149 -26t110 -74.5t63 -117.5t7 -154t-50 -154t-96 -117.5t-131 -74.5zM602 191q33 30 54.5 71.5t28.5 91.5q7 49 -2.5 91t-34.5 72.5t-63 47.5t-88 17t-93 -17
t-76 -47.5t-54.5 -72.5t-28.5 -91q-7 -50 3 -91.5t34.5 -72t62.5 -47.5t88 -17t93 17t76 48zM369 883h340l-14 -96h-340z" />
    <glyph glyph-name="uni014D" unicode="&#x14d;" horiz-adv-x="610" 
d="M411 6q-52 -18 -108 -18t-103 18t-78.5 51.5t-46 80.5t-6.5 105t35.5 105t68.5 80.5t93 51.5t108 18t103 -18t79 -51.5t46.5 -80.5t6.5 -105t-36 -105t-69 -80.5t-93 -51.5zM459 243q8 55 -19 89t-84 34t-93 -34t-44 -89t18.5 -89t83.5 -34t93.5 34t44.5 89zM231 687h340
l-13 -96h-340z" />
    <glyph glyph-name="uni014E" unicode="&#x14e;" horiz-adv-x="832" 
d="M570 8q-74 -26 -157 -26t-149.5 26t-110.5 74.5t-63 117.5t-7 154t50.5 154t96 117.5t131.5 74.5t157 26t149 -26t110 -74.5t63 -117.5t7 -154t-50 -154t-96 -117.5t-131 -74.5zM602 191q33 30 54.5 71.5t28.5 91.5q7 49 -2.5 91t-34.5 72.5t-63 47.5t-88 17t-93 -17
t-76 -47.5t-54.5 -72.5t-28.5 -91q-7 -50 3 -91.5t34.5 -72t62.5 -47.5t88 -17t93 17t76 48zM696 839q-20 -28 -47 -45.5t-59.5 -25.5t-68.5 -8q-35 0 -66.5 7.5t-54 25t-34.5 45t-8 66.5h80q1 -15 10 -24t23 -14.5t30.5 -7.5t33.5 -2q39 0 67 7.5t45 40.5h79
q-10 -38 -30 -65z" />
    <glyph glyph-name="uni014F" unicode="&#x14f;" horiz-adv-x="610" 
d="M411 6q-52 -18 -108 -18t-103 18t-78.5 51.5t-46 80.5t-6.5 105t35.5 105t68.5 80.5t93 51.5t108 18t103 -18t79 -51.5t46.5 -80.5t6.5 -105t-36 -105t-69 -80.5t-93 -51.5zM459 243q8 55 -19 89t-84 34t-93 -34t-44 -89t18.5 -89t83.5 -34t93.5 34t44.5 89zM559 643
q-20 -28 -47 -45.5t-59.5 -25.5t-68.5 -8t-67 7.5t-54 25t-34.5 45t-8.5 66.5h80q1 -15 10.5 -24t23 -14.5t30 -7.5t33.5 -2q39 0 67.5 7.5t44.5 40.5h79q-9 -38 -29 -65z" />
    <glyph glyph-name="uni0150" unicode="&#x150;" horiz-adv-x="832" 
d="M570 8q-74 -26 -157 -26t-149.5 26t-110.5 74.5t-63 117.5t-7 154t50.5 154t96 117.5t131.5 74.5t157 26t149 -26t110 -74.5t63 -117.5t7 -154t-50 -154t-96 -117.5t-131 -74.5zM602 191q33 30 54.5 71.5t28.5 91.5q7 49 -2.5 91t-34.5 72.5t-63 47.5t-88 17t-93 -17
t-76 -47.5t-54.5 -72.5t-28.5 -91q-7 -50 3 -91.5t34.5 -72t62.5 -47.5t88 -17t93 17t76 48zM707 904h204l-194 -144h-132zM443 904h204l-194 -144h-132z" />
    <glyph glyph-name="uni0151" unicode="&#x151;" horiz-adv-x="610" 
d="M411 6q-52 -18 -108 -18t-103 18t-78.5 51.5t-46 80.5t-6.5 105t35.5 105t68.5 80.5t93 51.5t108 18t103 -18t79 -51.5t46.5 -80.5t6.5 -105t-36 -105t-69 -80.5t-93 -51.5zM459 243q8 55 -19 89t-84 34t-93 -34t-44 -89t18.5 -89t83.5 -34t93.5 34t44.5 89zM554 708h204
l-193 -144h-132zM290 708h204l-193 -144h-131z" />
    <glyph glyph-name="uni0152" unicode="&#x152;" horiz-adv-x="1018" 
d="M965 0h-531q-71 0 -140 20.5t-120 63.5t-77.5 110t-13.5 160q12 86 52 152t99 111t134 68t157 23h527l-20 -144h-288l-19 -132h264l-20 -144h-264l-20 -144h300zM537 564q-58 0 -108 -13t-88.5 -39.5t-63.5 -66t-32 -91.5q-7 -53 7 -92t45 -65.5t77 -39.5t104 -13h51
l59 420h-51z" />
    <glyph glyph-name="uni0153" unicode="&#x153;" horiz-adv-x="944" 
d="M615 128q26 -26 70 -26q37 0 64.5 16.5t50.5 42.5l94 -77q-42 -46 -100.5 -71t-117.5 -25q-63 0 -107 15.5t-73 53.5q-44 -39 -92.5 -54t-99.5 -15q-57 0 -103.5 18t-78.5 51.5t-46.5 80.5t-6.5 105t35.5 105t68.5 80.5t93 51.5t109 18q54 0 97.5 -18t74.5 -55
q38 34 86 53.5t114 19.5q52 0 92 -18t65 -51.5t34.5 -80.5t1.5 -105l-7 -47h-348q3 -43 30 -68zM416 154q36 34 44 89t-19 89t-84 34t-93.5 -34t-44.5 -89t19 -89t84 -34t94 34zM797 298q6 38 -16 65t-63 27q-25 0 -45 -8t-35 -20.5t-25 -29t-14 -34.5h198z" />
    <glyph glyph-name="uni0154" unicode="&#x154;" horiz-adv-x="648" 
d="M640 0h-187l-109 283h-77l-39 -283h-156l99 708h274q54 0 101 -10.5t80 -35t49 -66t7 -103.5q-11 -75 -57 -127.5t-123 -66.5zM490 562q-16 8 -37.5 11t-42.5 3h-102l-22 -161h92q21 0 44.5 1.5t43.5 9t35 23.5t19 45q4 27 -5 43t-25 25zM418 904h204l-194 -144h-132z
" />
    <glyph glyph-name="uni0155" unicode="&#x155;" horiz-adv-x="407" 
d="M414 364q-15 2 -32 2q-43 0 -70 -12t-43 -33.5t-24.5 -51.5t-13.5 -66l-28 -203h-150l68 486h150l-11 -78h2q30 45 66 67.5t86 22.5q13 0 26 -1t24 -4l-19 -137q-16 5 -31 8zM315 708h204l-193 -144h-132z" />
    <glyph glyph-name="uni0156" unicode="&#x156;" horiz-adv-x="648" 
d="M640 0h-187l-109 283h-77l-39 -283h-156l99 708h274q54 0 101 -10.5t80 -35t49 -66t7 -103.5q-11 -75 -57 -127.5t-123 -66.5zM490 562q-16 8 -37.5 11t-42.5 3h-102l-22 -161h92q21 0 44.5 1.5t43.5 9t35 23.5t19 45q4 27 -5 43t-25 25zM244 -61h144l-118 -199h-117z
" />
    <glyph glyph-name="uni0157" unicode="&#x157;" horiz-adv-x="407" 
d="M414 364q-15 2 -32 2q-43 0 -70 -12t-43 -33.5t-24.5 -51.5t-13.5 -66l-28 -203h-150l68 486h150l-11 -78h2q30 45 66 67.5t86 22.5q13 0 26 -1t24 -4l-19 -137q-16 5 -31 8zM113 -61h144l-118 -199h-117z" />
    <glyph glyph-name="uni0158" unicode="&#x158;" horiz-adv-x="648" 
d="M640 0h-187l-109 283h-77l-39 -283h-156l99 708h274q54 0 101 -10.5t80 -35t49 -66t7 -103.5q-11 -75 -57 -127.5t-123 -66.5zM490 562q-16 8 -37.5 11t-42.5 3h-102l-22 -161h92q21 0 44.5 1.5t43.5 9t35 23.5t19 45q4 27 -5 43t-25 25zM340 787l-96 144h138l52 -78
l73 78h135l-139 -144h-163z" />
    <glyph glyph-name="uni0159" unicode="&#x159;" horiz-adv-x="407" 
d="M414 364q-15 2 -32 2q-43 0 -70 -12t-43 -33.5t-24.5 -51.5t-13.5 -66l-28 -203h-150l68 486h150l-11 -78h2q30 45 66 67.5t86 22.5q13 0 26 -1t24 -4l-19 -137q-16 5 -31 8zM204 564l-96 144h138l52 -78l73 78h135l-139 -144h-163z" />
    <glyph glyph-name="uni015A" unicode="&#x15a;" 
d="M123 401q-20 36 -12 95q8 57 36.5 100t70.5 72t93 43.5t103 14.5q60 0 113.5 -17t92.5 -57l-123 -117q-16 24 -47 35.5t-60 11.5q-17 0 -36 -4t-35.5 -12.5t-28.5 -22.5t-15 -34q-3 -24 8.5 -39.5t33 -26t50 -18.5t57.5 -18t56.5 -24t47.5 -35.5t29.5 -54t2.5 -78.5
q-8 -59 -36.5 -103t-70 -73t-93 -43t-106.5 -14q-69 0 -125 21t-101 68l129 122q20 -32 53.5 -49.5t72.5 -17.5q19 0 39 4.5t37 13.5t28.5 23t14.5 33q5 32 -17.5 50.5t-57.5 31.5t-76 26t-75 35t-53 58zM423 904h204l-194 -144h-132z" />
    <glyph glyph-name="uni015B" unicode="&#x15b;" horiz-adv-x="463" 
d="M308 137q3 19 -14.5 28.5t-45 16t-59 14t-58 22.5t-41.5 42.5t-8 73.5q6 43 28 74t53.5 51t69.5 29.5t76 9.5q48 0 95 -14t76 -50l-104 -91q-27 41 -82 41q-19 0 -38 -9t-22 -31q-3 -18 15 -26.5t45 -15t58.5 -14t57.5 -23.5t40.5 -43.5t8.5 -73.5q-6 -47 -31 -77.5
t-59.5 -49t-75.5 -26t-80 -7.5q-51 0 -101 14.5t-81 51.5l105 101q18 -26 41.5 -39.5t57.5 -13.5q26 0 48 7.5t25 27.5zM341 708h204l-193 -144h-132z" />
    <glyph glyph-name="uni015C" unicode="&#x15c;" 
d="M123 401q-20 36 -12 95q8 57 36.5 100t70.5 72t93 43.5t103 14.5q60 0 113.5 -17t92.5 -57l-123 -117q-16 24 -47 35.5t-60 11.5q-17 0 -36 -4t-35.5 -12.5t-28.5 -22.5t-15 -34q-3 -24 8.5 -39.5t33 -26t50 -18.5t57.5 -18t56.5 -24t47.5 -35.5t29.5 -54t2.5 -78.5
q-8 -59 -36.5 -103t-70 -73t-93 -43t-106.5 -14q-69 0 -125 21t-101 68l129 122q20 -32 53.5 -49.5t72.5 -17.5q19 0 39 4.5t37 13.5t28.5 23t14.5 33q5 32 -17.5 50.5t-57.5 31.5t-76 26t-75 35t-53 58zM412 838l-73 -78h-135l140 144h163l95 -144h-138z" />
    <glyph glyph-name="uni015D" unicode="&#x15d;" horiz-adv-x="463" 
d="M308 137q3 19 -14.5 28.5t-45 16t-59 14t-58 22.5t-41.5 42.5t-8 73.5q6 43 28 74t53.5 51t69.5 29.5t76 9.5q48 0 95 -14t76 -50l-104 -91q-27 41 -82 41q-19 0 -38 -9t-22 -31q-3 -18 15 -26.5t45 -15t58.5 -14t57.5 -23.5t40.5 -43.5t8.5 -73.5q-6 -47 -31 -77.5
t-59.5 -49t-75.5 -26t-80 -7.5q-51 0 -101 14.5t-81 51.5l105 101q18 -26 41.5 -39.5t57.5 -13.5q26 0 48 7.5t25 27.5zM327 642l-73 -78h-135l139 144h163l96 -144h-138z" />
    <glyph glyph-name="uni015E" unicode="&#x15e;" 
d="M141 -163q11 -5 29.5 -11t44.5 -6q23 0 45.5 6t25.5 26q2 18 -14.5 26t-31.5 8t-37 -8l-28 29l61 76q-63 2 -114.5 22.5t-93.5 65.5l129 122q20 -32 53.5 -49.5t72.5 -17.5q19 0 39 4.5t37 13.5t28.5 23t14.5 33q5 32 -17.5 50.5t-57.5 31.5t-76 26t-75 35t-53.5 58
t-11.5 95q8 57 37 100t70.5 72t92 43.5t103.5 14.5q60 0 113.5 -17t92.5 -57l-123 -117q-16 24 -47 35.5t-60 11.5q-17 0 -36 -4t-35.5 -12.5t-28.5 -22.5t-15 -34q-5 -32 17 -49t56.5 -29t75.5 -24t74 -34t52 -59t10 -99q-8 -53 -31 -93t-57 -68.5t-76.5 -45t-89.5 -22.5
l-38 -46q22 0 44 -2.5t39 -11t26 -25t5 -44.5q-4 -27 -21 -46t-39.5 -30t-47.5 -16t-44 -5q-30 0 -63 8.5t-58 21.5z" />
    <glyph glyph-name="uni015F" unicode="&#x15f;" horiz-adv-x="463" 
d="M82 334q6 43 28 74t53.5 51t69.5 29.5t76 9.5q48 0 95 -14t76 -50l-104 -91q-27 41 -82 41q-19 0 -38 -9t-22 -31q-3 -18 15 -26.5t45 -15t58.5 -14t57.5 -23.5t40.5 -43.5t8.5 -73.5q-5 -38 -23 -65.5t-43.5 -46t-57 -29.5t-64.5 -15l-42 -52q22 0 44 -2.5t39 -11
t26 -25t5 -44.5q-4 -27 -21 -46t-39.5 -30t-47.5 -16t-44 -5q-30 0 -63 8.5t-58 21.5l32 47q11 -5 29.5 -11t44.5 -6q23 0 45.5 6t25.5 26q2 18 -14.5 26t-31.5 8t-37 -8l-28 29l66 81q-49 2 -95.5 16.5t-75.5 49.5l105 101q17 -26 41 -39.5t58 -13.5q26 0 48 7.5t25 27.5
q3 19 -14.5 28.5t-45 16t-59 14t-58 22.5t-41.5 42.5t-8 73.5z" />
    <glyph glyph-name="uni0160" unicode="&#x160;" 
d="M123 401q-20 36 -12 95q8 57 36.5 100t70.5 72t93 43.5t103 14.5q60 0 113.5 -17t92.5 -57l-123 -117q-16 24 -47 35.5t-60 11.5q-17 0 -36 -4t-35.5 -12.5t-28.5 -22.5t-15 -34q-3 -24 8.5 -39.5t33 -26t50 -18.5t57.5 -18t56.5 -24t47.5 -35.5t29.5 -54t2.5 -78.5
q-8 -59 -36.5 -103t-70 -73t-93 -43t-106.5 -14q-69 0 -125 21t-101 68l129 122q20 -32 53.5 -49.5t72.5 -17.5q19 0 39 4.5t37 13.5t28.5 23t14.5 33q5 32 -17.5 50.5t-57.5 31.5t-76 26t-75 35t-53 58zM310 787l-96 144h138l52 -78l73 78h135l-139 -144h-163z" />
    <glyph glyph-name="uni0161" unicode="&#x161;" horiz-adv-x="463" 
d="M308 137q3 19 -14.5 28.5t-45 16t-59 14t-58 22.5t-41.5 42.5t-8 73.5q6 43 28 74t53.5 51t69.5 29.5t76 9.5q48 0 95 -14t76 -50l-104 -91q-27 41 -82 41q-19 0 -38 -9t-22 -31q-3 -18 15 -26.5t45 -15t58.5 -14t57.5 -23.5t40.5 -43.5t8.5 -73.5q-6 -47 -31 -77.5
t-59.5 -49t-75.5 -26t-80 -7.5q-51 0 -101 14.5t-81 51.5l105 101q18 -26 41.5 -39.5t57.5 -13.5q26 0 48 7.5t25 27.5zM224 564l-96 144h138l52 -78l73 78h135l-139 -144h-163z" />
    <glyph glyph-name="uni0162" unicode="&#x162;" 
d="M87 570l19 138h560l-19 -138h-202l-80 -570h-156l80 570h-202zM231 -61h144l-118 -199h-117z" />
    <glyph glyph-name="uni0163" unicode="&#x163;" horiz-adv-x="407" 
d="M280 204q-3 -20 -3 -36.5t5.5 -28.5t19 -18.5t37.5 -6.5q12 0 31.5 2.5t30.5 11.5l-17 -125q-26 -9 -53.5 -12t-53.5 -3q-38 0 -69 8t-52.5 25.5t-31 45.5t-4.5 68l33 231h-96l17 120h96l20 144h150l-20 -144h132l-17 -120h-132zM158 -61h144l-118 -199h-117z" />
    <glyph glyph-name="uni0164" unicode="&#x164;" 
d="M87 570l19 138h560l-19 -138h-202l-80 -570h-156l80 570h-202zM314 787l-96 144h138l52 -78l73 78h135l-139 -144h-163z" />
    <glyph glyph-name="uni0165" unicode="&#x165;" horiz-adv-x="407" 
d="M280 204q-3 -20 -3 -36.5t5.5 -28.5t19 -18.5t37.5 -6.5q12 0 31.5 2.5t30.5 11.5l-17 -125q-26 -9 -53.5 -12t-53.5 -3q-38 0 -69 8t-52.5 25.5t-31 45.5t-4.5 68l33 231h-96l17 120h96l20 144h150l-20 -144h132l-17 -120h-132zM449 758h134l-108 -199h-98z" />
    <glyph glyph-name="uni0166" unicode="&#x166;" 
d="M445 570l-16 -108h125l-13 -96h-125l-51 -366h-156l51 366h-119l13 96h119l16 108h-202l19 138h560l-19 -138h-202z" />
    <glyph glyph-name="uni0167" unicode="&#x167;" horiz-adv-x="407" 
d="M410 313l-13 -96h-115l-2 -13q-3 -20 -3 -36.5t5.5 -28.5t19 -18.5t37.5 -6.5q12 0 31.5 2.5t30.5 11.5l-17 -125q-26 -9 -53.5 -12t-53.5 -3q-38 0 -69 8t-52.5 25.5t-31.5 45.5t-4 68l12 82h-75l13 96h75l8 53h-96l17 120h96l20 144h150l-20 -144h132l-17 -120h-132
l-8 -53h115z" />
    <glyph glyph-name="uni0168" unicode="&#x168;" horiz-adv-x="741" 
d="M612 708h156l-61 -435q-9 -63 -35.5 -116t-69.5 -92t-102 -61t-132 -22q-74 0 -127 22t-85 61t-43.5 92t-2.5 116l61 435h156l-60 -429q-5 -33 1.5 -61t23 -48.5t41 -32t55.5 -11.5t58.5 11.5t49.5 32t36.5 48.5t19.5 61zM601 879q12 10 21 25h78q-9 -29 -22 -54
t-31 -43.5t-42 -29.5t-55 -11q-22 0 -40 6.5t-35 14.5q-16 8 -30.5 14.5t-29.5 6.5q-17 0 -28.5 -14t-19.5 -28h-79q8 25 21.5 50t32 44.5t42 31.5t51.5 12q25 0 44 -6t40 -15q14 -5 26 -10t27 -5q17 0 29 11z" />
    <glyph glyph-name="uni0169" unicode="&#x169;" 
d="M360 38q-15 -14 -34.5 -25t-43.5 -18t-51 -7q-57 0 -90 17.5t-48 48.5t-16 73t6 91l38 268h150l-34 -238q-3 -21 -5 -43.5t3 -41.5t19 -31t43 -12t48.5 10.5t31.5 28t18.5 39.5t9.5 46l34 242h150l-68 -486h-144l9 66h-2q-10 -14 -24 -28zM487 683q11 10 20 25h78
q-9 -29 -21.5 -54t-30.5 -43.5t-42 -29.5t-55 -11q-22 0 -40.5 6.5t-34.5 14.5q-17 8 -31 14.5t-29 6.5q-17 0 -29.5 -14t-18.5 -28h-79q7 25 20.5 50t32 44.5t42 31.5t51.5 12q25 0 44.5 -6t39.5 -15l26 -10q13 -5 28 -5q17 0 29 11z" />
    <glyph glyph-name="uni016A" unicode="&#x16a;" horiz-adv-x="741" 
d="M612 708h156l-61 -435q-9 -63 -35.5 -116t-69.5 -92t-102 -61t-132 -22q-74 0 -127 22t-85 61t-43.5 92t-2.5 116l61 435h156l-60 -429q-5 -33 1.5 -61t23 -48.5t41 -32t55.5 -11.5t58.5 11.5t49.5 32t36.5 48.5t19.5 61zM331 883h340l-14 -96h-340z" />
    <glyph glyph-name="uni016B" unicode="&#x16b;" 
d="M360 38q-15 -14 -34.5 -25t-43.5 -18t-51 -7q-57 0 -90 17.5t-48 48.5t-16 73t6 91l38 268h150l-34 -238q-3 -21 -5 -43.5t3 -41.5t19 -31t43 -12t48.5 10.5t31.5 28t18.5 39.5t9.5 46l34 242h150l-68 -486h-144l9 66h-2q-10 -14 -24 -28zM212 687h340l-13 -96h-340z" />
    <glyph glyph-name="uni016C" unicode="&#x16c;" horiz-adv-x="741" 
d="M612 708h156l-61 -435q-9 -63 -35.5 -116t-69.5 -92t-102 -61t-132 -22q-74 0 -127 22t-85 61t-43.5 92t-2.5 116l61 435h156l-60 -429q-5 -33 1.5 -61t23 -48.5t41 -32t55.5 -11.5t58.5 11.5t49.5 32t36.5 48.5t19.5 61zM658 839q-20 -28 -47 -45.5t-59.5 -25.5
t-68.5 -8q-35 0 -66.5 7.5t-54 25t-34.5 45t-8 66.5h80q1 -15 10 -24t23 -14.5t30.5 -7.5t33.5 -2q39 0 67 7.5t45 40.5h79q-10 -38 -30 -65z" />
    <glyph glyph-name="uni016D" unicode="&#x16d;" 
d="M360 38q-15 -14 -34.5 -25t-43.5 -18t-51 -7q-57 0 -90 17.5t-48 48.5t-16 73t6 91l38 268h150l-34 -238q-3 -21 -5 -43.5t3 -41.5t19 -31t43 -12t48.5 10.5t31.5 28t18.5 39.5t9.5 46l34 242h150l-68 -486h-144l9 66h-2q-10 -14 -24 -28zM543 643q-20 -28 -47 -45.5
t-59.5 -25.5t-68.5 -8t-67 7.5t-54 25t-34.5 45t-8.5 66.5h80q1 -15 10.5 -24t23 -14.5t30 -7.5t33.5 -2q39 0 67.5 7.5t44.5 40.5h79q-9 -38 -29 -65z" />
    <glyph glyph-name="uni016E" unicode="&#x16e;" horiz-adv-x="741" 
d="M612 708h156l-61 -435q-9 -63 -35.5 -116t-69.5 -92t-102 -61t-132 -22q-74 0 -127 22t-85 61t-43.5 92t-2.5 116l61 435h156l-60 -429q-5 -33 1.5 -61t23 -48.5t41 -32t55.5 -11.5t58.5 11.5t49.5 32t36.5 48.5t19.5 61zM523 740q-22 -9 -44 -9q-23 0 -41.5 9t-31.5 24
t-19 35t-3 43q3 22 14.5 42.5t29 35.5t38.5 24t44 9q22 0 41 -9t32.5 -24t19.5 -35.5t3 -42.5q-3 -23 -15 -43t-29.5 -35t-38.5 -24zM546 842q3 21 -10 36t-34 15t-38 -15t-20 -36t10 -36t34 -15t38 15t20 36z" />
    <glyph glyph-name="uni016F" unicode="&#x16f;" 
d="M360 38q-15 -14 -34.5 -25t-43.5 -18t-51 -7q-57 0 -90 17.5t-48 48.5t-16 73t6 91l38 268h150l-34 -238q-3 -21 -5 -43.5t3 -41.5t19 -31t43 -12t48.5 10.5t31.5 28t18.5 39.5t9.5 46l34 242h150l-68 -486h-144l9 66h-2q-10 -14 -24 -28zM405 554q-22 -9 -45 -9t-42 9
t-32 24t-18.5 35t-2.5 43t14.5 43t28.5 35t38.5 24t44.5 9t42 -9t32 -24t19 -35t3 -43t-15 -43t-29 -35t-38 -24zM427 656q3 21 -10 36t-34 15t-38 -15t-20 -36t10 -36t34 -15t38 15t20 36z" />
    <glyph glyph-name="uni0170" unicode="&#x170;" horiz-adv-x="741" 
d="M612 708h156l-61 -435q-9 -63 -35.5 -116t-69.5 -92t-102 -61t-132 -22q-74 0 -127 22t-85 61t-43.5 92t-2.5 116l61 435h156l-60 -429q-5 -33 1.5 -61t23 -48.5t41 -32t55.5 -11.5t58.5 11.5t49.5 32t36.5 48.5t19.5 61zM653 904h204l-194 -144h-132zM389 904h204
l-194 -144h-132z" />
    <glyph glyph-name="uni0171" unicode="&#x171;" 
d="M360 38q-15 -14 -34.5 -25t-43.5 -18t-51 -7q-57 0 -90 17.5t-48 48.5t-16 73t6 91l38 268h150l-34 -238q-3 -21 -5 -43.5t3 -41.5t19 -31t43 -12t48.5 10.5t31.5 28t18.5 39.5t9.5 46l34 242h150l-68 -486h-144l9 66h-2q-10 -14 -24 -28zM524 708h204l-193 -144h-132z
M260 708h204l-193 -144h-131z" />
    <glyph glyph-name="uni0172" unicode="&#x172;" horiz-adv-x="741" 
d="M385 -168q14 0 29 7t28 16l21 -53q-28 -19 -55.5 -30.5t-59.5 -11.5q-21 0 -39.5 6t-31 18t-18.5 29t-3 40q5 33 31.5 68t57.5 62q-68 3 -116.5 26t-77.5 62t-39.5 90.5t-1.5 111.5l61 435h156l-60 -429q-5 -33 1.5 -61t22.5 -48.5t40.5 -32t56.5 -11.5q31 0 58.5 11.5
t49.5 32t36.5 48.5t19.5 61l60 429h156l-61 -435q-8 -57 -30.5 -106t-59 -87.5t-86 -63t-112.5 -31.5q-24 -23 -45 -52t-25 -55q-2 -17 8 -31.5t28 -14.5z" />
    <glyph glyph-name="uni0173" unicode="&#x173;" 
d="M358 -240q-21 0 -39.5 6t-31 18t-18.5 29t-3 40q3 19 14 39.5t27 39.5t34.5 36.5t35.5 31.5l9 66h-2q-10 -14 -24.5 -28t-34 -25t-43 -18t-51.5 -7q-57 0 -90 17.5t-48 48.5t-16 73t6 91l38 268h150l-34 -238q-3 -21 -4.5 -43.5t3 -41.5t18.5 -31t43 -12t48.5 10.5
t31.5 28t18.5 39.5t9.5 46l34 242h150l-68 -486h-74q-14 -12 -28.5 -27t-27 -31t-21.5 -32.5t-11 -31.5q-2 -17 8 -31.5t28 -14.5q14 0 29 7t28 16l21 -53q-28 -19 -55.5 -30.5t-59.5 -11.5z" />
    <glyph glyph-name="uni0174" unicode="&#x174;" horiz-adv-x="1000" 
d="M795 0h-139l-88 490h-2l-224 -490h-134l-111 708h170l49 -454h2l212 454h145l82 -466h2l184 466h158zM614 838l-73 -78h-135l140 144h163l95 -144h-138z" />
    <glyph glyph-name="uni0175" unicode="&#x175;" horiz-adv-x="833" 
d="M665 0h-148l-56 323h-2l-135 -323h-151l-110 486h160l56 -305h2l126 305h164l47 -305h2l134 305h152zM503 642l-73 -78h-135l139 144h163l96 -144h-138z" />
    <glyph glyph-name="uni0176" unicode="&#x176;" horiz-adv-x="648" 
d="M273 708l113 -265l196 265h185l-323 -406l-42 -302h-156l42 302l-209 406h194zM439 838l-73 -78h-135l140 144h163l95 -144h-138z" />
    <glyph glyph-name="uni0177" unicode="&#x177;" horiz-adv-x="556" 
d="M321 -79q-20 -39 -38 -69t-42.5 -50.5t-59 -31t-88.5 -10.5q-58 0 -109 18l37 123q31 -15 67 -15q25 0 42 5.5t29 16t21 25.5t20 35l15 28l-144 490h162l80 -321h2l152 321h154zM380 642l-73 -78h-135l139 144h163l96 -144h-138z" />
    <glyph glyph-name="uni0178" unicode="&#x178;" horiz-adv-x="648" 
d="M273 708l113 -265l196 265h185l-323 -406l-42 -302h-156l42 302l-209 406h194zM503 787q-14 7 -23.5 19t-13.5 27.5t-1 32.5q2 16 10.5 31t21 26t28 18t32.5 7q35 0 58 -23t18 -59q-3 -18 -11.5 -33.5t-21.5 -27.5t-30 -18.5t-35 -6.5t-32 7zM272 806q-10 12 -14 27.5
t-1 32.5q2 16 10.5 31t21 26t28 18t32.5 7q35 0 58 -23t18 -59q-3 -18 -11.5 -33.5t-21.5 -27.5t-30 -18.5t-35 -6.5t-32 7t-23 19z" />
    <glyph glyph-name="uni0179" unicode="&#x179;" horiz-adv-x="630" 
d="M251 144h364l-20 -144h-560l20 144l419 426h-346l19 138h535l-19 -138zM448 904h204l-194 -144h-132z" />
    <glyph glyph-name="uni017A" unicode="&#x17a;" horiz-adv-x="500" 
d="M212 120h270l-16 -120h-432l21 150l282 216h-246l17 120h420l-20 -144zM349 708h204l-193 -144h-132z" />
    <glyph glyph-name="uni017B" unicode="&#x17b;" horiz-adv-x="630" 
d="M251 144h364l-20 -144h-560l20 144l419 426h-346l19 138h535l-19 -138zM528 807q-9 -16 -22 -28t-30 -18.5t-35 -6.5t-32 7t-23.5 19t-13.5 27.5t-1 32.5q2 16 10.5 31t21 26t28 18t32.5 7q35 0 58 -23t18 -59q-3 -18 -11 -33z" />
    <glyph glyph-name="uni017C" unicode="&#x17c;" horiz-adv-x="500" 
d="M212 120h270l-16 -120h-432l21 150l282 216h-246l17 120h420l-20 -144zM440 644q-5 -36 -32.5 -61t-64.5 -25q-35 0 -55.5 25.5t-15.5 60.5q2 16 10.5 31t21.5 26t28.5 18t32.5 7q35 0 57.5 -23t17.5 -59z" />
    <glyph glyph-name="uni017D" unicode="&#x17d;" horiz-adv-x="630" 
d="M251 144h364l-20 -144h-560l20 144l419 426h-346l19 138h535l-19 -138zM338 787l-96 144h138l52 -78l73 78h135l-139 -144h-163z" />
    <glyph glyph-name="uni017E" unicode="&#x17e;" horiz-adv-x="500" 
d="M212 120h270l-16 -120h-432l21 150l282 216h-246l17 120h420l-20 -144zM242 564l-96 144h138l52 -78l73 78h135l-139 -144h-163z" />
    <glyph glyph-name="uni0192" unicode="&#x192;" horiz-adv-x="592" 
d="M460 711q34 9 80 9q35 0 65 -7.5t60 -22.5l-68 -113q-24 11 -51 11q-36 0 -55.5 -19.5t-35.5 -63.5l-25 -71h126l-14 -102h-146l-99 -292q-14 -41 -33.5 -74t-46.5 -56.5t-63 -36t-83 -12.5q-28 0 -55.5 6.5t-51.5 17.5l68 119q10 -6 21.5 -8.5t23.5 -2.5q32 0 51 21.5
t37 73.5l84 244h-114l14 102h134l31 91q19 55 39 92.5t46.5 60.5t60.5 33z" />
    <glyph glyph-name="uni01C0" unicode="&#x1c0;" horiz-adv-x="222" 
d="M279 750l-141 -1000h-126l141 1000h126z" />
    <glyph glyph-name="uni01C1" unicode="&#x1c1;" horiz-adv-x="444" 
d="M279 750l-141 -1000h-126l141 1000h126zM501 750l-141 -1000h-126l141 1000h126z" />
    <glyph glyph-name="uni01C3" unicode="&#x1c3;" horiz-adv-x="444" 
d="M246 708h150l-67 -474h-150zM314 50q-10 -17 -24.5 -29.5t-32 -19.5t-36.5 -7t-35 7t-26.5 19.5t-15.5 29.5t-2 36t12.5 36t23.5 29.5t32 19.5t37 7q38 0 61 -27t18 -65q-3 -19 -12 -36z" />
    <glyph glyph-name="uni01C4" unicode="&#x1c4;" horiz-adv-x="1389" 
d="M618 91q-61 -45 -136.5 -68t-154.5 -23h-255l99 708h234q85 0 158.5 -19t125 -61.5t75 -110.5t10.5 -165q-12 -86 -53.5 -151.5t-102.5 -109.5zM613 360q7 52 -6.5 90.5t-43.5 63.5t-72.5 37.5t-91.5 12.5h-92l-59 -420h81q54 0 102 11t85.5 36.5t62.5 67t34 101.5z
M1010 144h364l-20 -144h-560l20 144l419 426h-346l19 138h535l-19 -138zM1081 758l-96 144h138l52 -78l73 78h135l-139 -144h-163z" />
    <glyph glyph-name="uni01C5" unicode="&#x1c5;" horiz-adv-x="1259" 
d="M618 91q-61 -45 -136.5 -68t-154.5 -23h-255l99 708h234q85 0 158.5 -19t125 -61.5t75 -110.5t10.5 -165q-12 -86 -53.5 -151.5t-102.5 -109.5zM613 360q7 52 -6.5 90.5t-43.5 63.5t-72.5 37.5t-91.5 12.5h-92l-59 -420h81q54 0 102 11t85.5 36.5t62.5 67t34 101.5z
M971 120h270l-16 -120h-432l21 150l282 216h-246l17 120h420l-20 -144zM989 537l-96 144h138l52 -78l73 78h135l-139 -144h-163z" />
    <glyph glyph-name="uni01C6" unicode="&#x1c6;" horiz-adv-x="1130" 
d="M431 64q-10 -13 -26.5 -26.5t-37.5 -24.5t-45.5 -18t-49.5 -7q-54 0 -95.5 18.5t-68.5 52t-37.5 79.5t-2.5 101q7 51 29 97.5t55.5 82.5t77.5 57.5t96 21.5q47 0 86 -14.5t59 -49.5h2l46 322h150l-106 -756h-138l8 64h-2zM459 243q8 55 -19 89t-84 34t-93 -34t-44 -89
t18.5 -89t83.5 -34t93.5 34t44.5 89zM842 120h270l-16 -120h-432l21 150l282 216h-246l17 120h420l-20 -144zM860 537l-96 144h138l52 -78l73 78h135l-139 -144h-163z" />
    <glyph glyph-name="uni01C7" unicode="&#x1c7;" horiz-adv-x="1037" 
d="M543 144l-20 -144h-445l99 708h156l-79 -564h289zM1008 237q-7 -49 -22 -95t-44 -81.5t-76.5 -57t-119.5 -21.5q-84 0 -136.5 40t-57.5 125l148 35q-1 -26 17 -44t44 -18q27 0 44 13.5t27 33.5t14.5 43.5t7.5 43.5l64 454h156z" />
    <glyph glyph-name="uni01C8" unicode="&#x1c8;" horiz-adv-x="797" 
d="M543 144l-20 -144h-445l99 708h156l-79 -564h289zM716 -121q-14 -37 -38.5 -63.5t-61 -41t-87.5 -14.5q-17 0 -35 1.5t-34 6.5l27 133q16 -9 37 -9q19 0 31 10t19 25t10.5 32t5.5 31l70 496h150l-74 -522q-6 -47 -20 -85zM769 726q36 0 57.5 -25.5t16.5 -61.5
q-2 -18 -11 -34t-22.5 -27.5t-30.5 -18.5t-35 -7t-33 7t-25 18.5t-14.5 27.5t-2.5 34q3 18 12 34t22.5 27.5t30.5 18.5t35 7z" />
    <glyph glyph-name="uni01C9" unicode="&#x1c9;" horiz-adv-x="520" 
d="M161 756h150l-106 -756h-150zM439 -121q-14 -37 -38.5 -63.5t-61 -41t-87.5 -14.5q-17 0 -35 1.5t-34 6.5l27 133q16 -9 37 -9q19 0 31 10t19 25t10.5 32t5.5 31l70 496h150l-74 -522q-6 -47 -20 -85zM492 726q36 0 57.5 -25.5t16.5 -61.5q-2 -18 -11 -34t-22.5 -27.5
t-30.5 -18.5t-35 -7t-33 7t-25 18.5t-14.5 27.5t-2.5 34q3 18 12 34t22.5 27.5t30.5 18.5t35 7z" />
    <glyph glyph-name="uni01CA" unicode="&#x1ca;" horiz-adv-x="1315" 
d="M539 0l-239 504h-2l-70 -504h-156l99 708h212l232 -492h2l69 492h156l-99 -708h-204zM1286 237q-7 -49 -22 -95t-44 -81.5t-76.5 -57t-119.5 -21.5q-84 0 -136.5 40t-57.5 125l148 35q-1 -26 17 -44t44 -18q27 0 44 13.5t27 33.5t14.5 43.5t7.5 43.5l64 454h156z" />
    <glyph glyph-name="uni01CB" unicode="&#x1cb;" horiz-adv-x="1075" 
d="M539 0l-239 504h-2l-70 -504h-156l99 708h212l232 -492h2l69 492h156l-99 -708h-204zM994 -121q-14 -37 -38.5 -63.5t-61 -41t-87.5 -14.5q-17 0 -35 1.5t-34 6.5l27 133q16 -9 37 -9q19 0 31 10t19 25t10.5 32t5.5 31l70 496h150l-74 -522q-6 -47 -20 -85zM1047 726
q36 0 57.5 -25.5t16.5 -61.5q-2 -18 -11 -34t-22.5 -27.5t-30.5 -18.5t-35 -7t-33 7t-25 18.5t-14.5 27.5t-2.5 34q3 18 12 34t22.5 27.5t30.5 18.5t35 7z" />
    <glyph glyph-name="uni01CC" unicode="&#x1cc;" horiz-adv-x="834" 
d="M404 238q3 21 5 43.5t-3 41.5t-19 31t-43 12t-48.5 -10.5t-31.5 -28t-18 -39.5t-9 -46l-34 -242h-150l68 486h144l-9 -66h2q9 14 24 28t34 25t43 18t51 7q57 0 90 -17.5t48 -48.5t16 -73t-6 -91l-37 -268h-150zM753 -121q-14 -37 -38.5 -63.5t-61 -41t-87.5 -14.5
q-17 0 -35 1.5t-34 6.5l27 133q16 -9 37 -9q19 0 31 10t19 25t10.5 32t5.5 31l70 496h150l-74 -522q-6 -47 -20 -85zM806 726q36 0 57.5 -25.5t16.5 -61.5q-2 -18 -11 -34t-22.5 -27.5t-30.5 -18.5t-35 -7t-33 7t-25 18.5t-14.5 27.5t-2.5 34q3 18 12 34t22.5 27.5
t30.5 18.5t35 7z" />
    <glyph glyph-name="uni01CD" unicode="&#x1cd;" horiz-adv-x="741" 
d="M251 150l-80 -150h-172l405 708h129l209 -708h-176l-40 150h-275zM435 502l-117 -220h173zM334 758l-96 144h138l52 -78l73 78h135l-139 -144h-163z" />
    <glyph glyph-name="uni01CE" unicode="&#x1ce;" horiz-adv-x="537" 
d="M187 287q52 16 109.5 19t104.5 3q5 40 -20 63.5t-64 23.5q-37 0 -69.5 -15.5t-60.5 -42.5l-68 82q47 39 105.5 58.5t118.5 19.5q66 0 106.5 -16.5t61.5 -48.5t24.5 -78.5t-5.5 -107.5l-34 -247h-138l8 61h-2q-30 -39 -74 -56t-90 -17q-34 0 -64 9.5t-51.5 28.5t-31.5 47
t-5 65q9 63 47.5 97.5t91.5 51.5zM196 120q5 -10 14 -17t21.5 -10t24.5 -3q22 0 43.5 6t39 17t29.5 28t15 40l4 32h-37q-17 0 -42.5 -1.5t-50 -8.5t-43 -21t-21.5 -39q-2 -14 3 -23zM241 549l-96 144h138l52 -78l73 78h135l-139 -144h-163z" />
    <glyph glyph-name="uni01CF" unicode="&#x1cf;" horiz-adv-x="296" 
d="M169 708h156l-99 -708h-156zM161 758l-96 144h138l52 -78l73 78h135l-139 -144h-163z" />
    <glyph glyph-name="uni01D0" unicode="&#x1d0;" horiz-adv-x="260" 
d="M123 486h150l-68 -486h-150zM114 537l-96 144h138l52 -78l73 78h135l-139 -144h-163z" />
    <glyph glyph-name="uni01D1" unicode="&#x1d1;" horiz-adv-x="832" 
d="M570 8q-74 -26 -157 -26t-149.5 26t-110.5 74.5t-63 117.5t-7 154t50.5 154t96 117.5t131.5 74.5t157 26t149 -26t110 -74.5t63 -117.5t7 -154t-50 -154t-96 -117.5t-131 -74.5zM602 191q33 30 54.5 71.5t28.5 91.5q7 49 -2.5 91t-34.5 72.5t-63 47.5t-88 17t-93 -17
t-76 -47.5t-54.5 -72.5t-28.5 -91q-7 -50 3 -91.5t34.5 -72t62.5 -47.5t88 -17t93 17t76 48zM430 776l-96 144h138l52 -78l73 78h135l-139 -144h-163z" />
    <glyph glyph-name="uni01D2" unicode="&#x1d2;" horiz-adv-x="610" 
d="M411 6q-52 -18 -108 -18t-103 18t-78.5 51.5t-46 80.5t-6.5 105t35.5 105t68.5 80.5t93 51.5t108 18t103 -18t79 -51.5t46.5 -80.5t6.5 -105t-36 -105t-69 -80.5t-93 -51.5zM459 243q8 55 -19 89t-84 34t-93 -34t-44 -89t18.5 -89t83.5 -34t93.5 34t44.5 89zM289 549
l-96 144h138l52 -78l73 78h135l-139 -144h-163z" />
    <glyph glyph-name="uni01D3" unicode="&#x1d3;" horiz-adv-x="741" 
d="M612 708h156l-61 -435q-9 -63 -35.5 -116t-69.5 -92t-102 -61t-132 -22q-74 0 -127 22t-85 61t-43.5 92t-2.5 116l61 435h156l-60 -429q-5 -33 1.5 -61t23 -48.5t41 -32t55.5 -11.5t58.5 11.5t49.5 32t36.5 48.5t19.5 61zM399 758l-96 144h138l52 -78l73 78h135
l-139 -144h-163z" />
    <glyph glyph-name="uni01D4" unicode="&#x1d4;" 
d="M360 38q-15 -14 -34.5 -25t-43.5 -18t-51 -7q-57 0 -90 17.5t-48 48.5t-16 73t6 91l38 268h150l-34 -238q-3 -21 -5 -43.5t3 -41.5t19 -31t43 -12t48.5 10.5t31.5 28t18.5 39.5t9.5 46l34 242h150l-68 -486h-144l9 66h-2q-10 -14 -24 -28zM282 537l-96 144h138l52 -78
l73 78h135l-139 -144h-163z" />
    <glyph glyph-name="uni01D5" unicode="&#x1d5;" horiz-adv-x="741" 
d="M612 708h156l-61 -435q-9 -63 -35.5 -116t-69.5 -92t-102 -61t-132 -22q-74 0 -127 22t-85 61t-43.5 92t-2.5 116l61 435h156l-60 -429q-5 -33 1.5 -61t23 -48.5t41 -32t55.5 -11.5t58.5 11.5t49.5 32t36.5 48.5t19.5 61zM595 758q-35 0 -55.5 25.5t-15.5 60.5
q2 16 10.5 31t21.5 26t28.5 18t32.5 7q35 0 57.5 -23t17.5 -59t-32.5 -61t-64.5 -25zM316 844q2 16 10.5 31t21.5 26t28.5 18t32.5 7q35 0 57.5 -23t17.5 -59t-32.5 -61t-64.5 -25q-35 0 -55.5 25.5t-15.5 60.5zM366 1072h340l-13 -96h-340z" />
    <glyph glyph-name="uni01D6" unicode="&#x1d6;" 
d="M360 38q-15 -14 -34.5 -25t-43.5 -18t-51 -7q-57 0 -90 17.5t-48 48.5t-16 73t6 91l38 268h150l-34 -238q-3 -21 -5 -43.5t3 -41.5t19 -31t43 -12t48.5 10.5t31.5 28t18.5 39.5t9.5 46l34 242h150l-68 -486h-144l9 66h-2q-10 -14 -24 -28zM477 537q-35 0 -55.5 25.5
t-15.5 60.5q2 16 10.5 31t21.5 26t28.5 18t32.5 7q35 0 57.5 -23t17.5 -59t-32.5 -61t-64.5 -25zM198 623q2 16 10.5 31t21.5 26t28.5 18t32.5 7q35 0 57.5 -23t17.5 -59t-32.5 -61t-64.5 -25q-35 0 -55.5 25.5t-15.5 60.5zM247 850h340l-13 -96h-340z" />
    <glyph glyph-name="uni01D7" unicode="&#x1d7;" horiz-adv-x="741" 
d="M612 708h156l-61 -435q-9 -63 -35.5 -116t-69.5 -92t-102 -61t-132 -22q-74 0 -127 22t-85 61t-43.5 92t-2.5 116l61 435h156l-60 -429q-5 -33 1.5 -61t23 -48.5t41 -32t55.5 -11.5t58.5 11.5t49.5 32t36.5 48.5t19.5 61zM595 758q-35 0 -55.5 25.5t-15.5 60.5
q2 16 10.5 31t21.5 26t28.5 18t32.5 7q35 0 57.5 -23t17.5 -59t-32.5 -61t-64.5 -25zM316 844q2 16 10.5 31t21.5 26t28.5 18t32.5 7q35 0 57.5 -23t17.5 -59t-32.5 -61t-64.5 -25q-35 0 -55.5 25.5t-15.5 60.5zM491 1120h204l-193 -144h-132z" />
    <glyph glyph-name="uni01D8" unicode="&#x1d8;" 
d="M360 38q-15 -14 -34.5 -25t-43.5 -18t-51 -7q-57 0 -90 17.5t-48 48.5t-16 73t6 91l38 268h150l-34 -238q-3 -21 -5 -43.5t3 -41.5t19 -31t43 -12t48.5 10.5t31.5 28t18.5 39.5t9.5 46l34 242h150l-68 -486h-144l9 66h-2q-10 -14 -24 -28zM477 537q-35 0 -55.5 25.5
t-15.5 60.5q2 16 10.5 31t21.5 26t28.5 18t32.5 7q35 0 57.5 -23t17.5 -59t-32.5 -61t-64.5 -25zM198 623q2 16 10.5 31t21.5 26t28.5 18t32.5 7q35 0 57.5 -23t17.5 -59t-32.5 -61t-64.5 -25q-35 0 -55.5 25.5t-15.5 60.5zM373 898h204l-193 -144h-132z" />
    <glyph glyph-name="uni01D9" unicode="&#x1d9;" horiz-adv-x="741" 
d="M612 708h156l-61 -435q-9 -63 -35.5 -116t-69.5 -92t-102 -61t-132 -22q-74 0 -127 22t-85 61t-43.5 92t-2.5 116l61 435h156l-60 -429q-5 -33 1.5 -61t23 -48.5t41 -32t55.5 -11.5t58.5 11.5t49.5 32t36.5 48.5t19.5 61zM595 758q-35 0 -55.5 25.5t-15.5 60.5
q2 16 10.5 31t21.5 26t28.5 18t32.5 7q35 0 57.5 -23t17.5 -59t-32.5 -61t-64.5 -25zM316 844q2 16 10.5 31t21.5 26t28.5 18t32.5 7q35 0 57.5 -23t17.5 -59t-32.5 -61t-64.5 -25q-35 0 -55.5 25.5t-15.5 60.5zM429 976l-96 144h138l52 -78l73 78h135l-139 -144h-163z" />
    <glyph glyph-name="uni01DA" unicode="&#x1da;" 
d="M360 38q-15 -14 -34.5 -25t-43.5 -18t-51 -7q-57 0 -90 17.5t-48 48.5t-16 73t6 91l38 268h150l-34 -238q-3 -21 -5 -43.5t3 -41.5t19 -31t43 -12t48.5 10.5t31.5 28t18.5 39.5t9.5 46l34 242h150l-68 -486h-144l9 66h-2q-10 -14 -24 -28zM477 537q-35 0 -55.5 25.5
t-15.5 60.5q2 16 10.5 31t21.5 26t28.5 18t32.5 7q35 0 57.5 -23t17.5 -59t-32.5 -61t-64.5 -25zM198 623q2 16 10.5 31t21.5 26t28.5 18t32.5 7q35 0 57.5 -23t17.5 -59t-32.5 -61t-64.5 -25q-35 0 -55.5 25.5t-15.5 60.5zM311 754l-96 144h138l52 -78l73 78h135l-139 -144
h-163z" />
    <glyph glyph-name="uni01DB" unicode="&#x1db;" horiz-adv-x="741" 
d="M612 708h156l-61 -435q-9 -63 -35.5 -116t-69.5 -92t-102 -61t-132 -22q-74 0 -127 22t-85 61t-43.5 92t-2.5 116l61 435h156l-60 -429q-5 -33 1.5 -61t23 -48.5t41 -32t55.5 -11.5t58.5 11.5t49.5 32t36.5 48.5t19.5 61zM595 758q-35 0 -55.5 25.5t-15.5 60.5
q2 16 10.5 31t21.5 26t28.5 18t32.5 7q35 0 57.5 -23t17.5 -59t-32.5 -61t-64.5 -25zM316 844q2 16 10.5 31t21.5 26t28.5 18t32.5 7q35 0 57.5 -23t17.5 -59t-32.5 -61t-64.5 -25q-35 0 -55.5 25.5t-15.5 60.5zM675 976h-132l-153 144h204z" />
    <glyph glyph-name="uni01DC" unicode="&#x1dc;" 
d="M360 38q-15 -14 -34.5 -25t-43.5 -18t-51 -7q-57 0 -90 17.5t-48 48.5t-16 73t6 91l38 268h150l-34 -238q-3 -21 -5 -43.5t3 -41.5t19 -31t43 -12t48.5 10.5t31.5 28t18.5 39.5t9.5 46l34 242h150l-68 -486h-144l9 66h-2q-10 -14 -24 -28zM477 537q-35 0 -55.5 25.5
t-15.5 60.5q2 16 10.5 31t21.5 26t28.5 18t32.5 7q35 0 57.5 -23t17.5 -59t-32.5 -61t-64.5 -25zM198 623q2 16 10.5 31t21.5 26t28.5 18t32.5 7q35 0 57.5 -23t17.5 -59t-32.5 -61t-64.5 -25q-35 0 -55.5 25.5t-15.5 60.5zM557 754h-132l-153 144h204z" />
    <glyph glyph-name="uni01DE" unicode="&#x1de;" horiz-adv-x="741" 
d="M251 150l-80 -150h-172l405 708h129l209 -708h-176l-40 150h-275zM435 502l-117 -220h173zM530 758q-35 0 -55.5 25.5t-15.5 60.5q2 16 10.5 31t21.5 26t28.5 18t32.5 7q35 0 57.5 -23t17.5 -59t-32.5 -61t-64.5 -25zM251 844q2 16 10.5 31t21.5 26t28.5 18t32.5 7
q35 0 57.5 -23t17.5 -59t-32.5 -61t-64.5 -25q-35 0 -55.5 25.5t-15.5 60.5zM301 1072h340l-13 -96h-340z" />
    <glyph glyph-name="uni01DF" unicode="&#x1df;" horiz-adv-x="537" 
d="M187 287q52 16 109.5 19t104.5 3q5 40 -20 63.5t-64 23.5q-37 0 -69.5 -15.5t-60.5 -42.5l-68 82q47 39 105.5 58.5t118.5 19.5q66 0 106.5 -16.5t61.5 -48.5t24.5 -78.5t-5.5 -107.5l-34 -247h-138l8 61h-2q-30 -39 -74 -56t-90 -17q-34 0 -64 9.5t-51.5 28.5t-31.5 47
t-5 65q9 63 47.5 97.5t91.5 51.5zM196 120q5 -10 14 -17t21.5 -10t24.5 -3q22 0 43.5 6t39 17t29.5 28t15 40l4 32h-37q-17 0 -42.5 -1.5t-50 -8.5t-43 -21t-21.5 -39q-2 -14 3 -23zM437 549q-35 0 -55.5 25.5t-15.5 60.5q2 16 10.5 31t21.5 26t28.5 18t32.5 7
q35 0 57.5 -23t17.5 -59t-32.5 -61t-64.5 -25zM158 635q2 16 10.5 31t21.5 26t28.5 18t32.5 7q35 0 57.5 -23t17.5 -59t-32.5 -61t-64.5 -25q-35 0 -55.5 25.5t-15.5 60.5zM207 862h340l-13 -96h-340z" />
    <glyph glyph-name="uni01E0" unicode="&#x1e0;" horiz-adv-x="741" 
d="M251 150l-80 -150h-172l405 708h129l209 -708h-176l-40 150h-275zM435 502l-117 -220h173zM523 844q-5 -36 -32.5 -61t-64.5 -25q-35 0 -55.5 25.5t-15.5 60.5q2 16 10.5 31t21.5 26t28.5 18t32.5 7q35 0 57.5 -23t17.5 -59zM301 1072h340l-13 -96h-340z" />
    <glyph glyph-name="uni01E1" unicode="&#x1e1;" horiz-adv-x="537" 
d="M187 287q52 16 109.5 19t104.5 3q5 40 -20 63.5t-64 23.5q-37 0 -69.5 -15.5t-60.5 -42.5l-68 82q47 39 105.5 58.5t118.5 19.5q66 0 106.5 -16.5t61.5 -48.5t24.5 -78.5t-5.5 -107.5l-34 -247h-138l8 61h-2q-30 -39 -74 -56t-90 -17q-34 0 -64 9.5t-51.5 28.5t-31.5 47
t-5 65q9 63 47.5 97.5t91.5 51.5zM196 120q5 -10 14 -17t21.5 -10t24.5 -3q22 0 43.5 6t39 17t29.5 28t15 40l4 32h-37q-17 0 -42.5 -1.5t-50 -8.5t-43 -21t-21.5 -39q-2 -14 3 -23zM430 635q-5 -36 -32.5 -61t-64.5 -25q-35 0 -55.5 25.5t-15.5 60.5q2 16 10.5 31t21.5 26
t28.5 18t32.5 7q35 0 57.5 -23t17.5 -59zM207 862h340l-13 -96h-340z" />
    <glyph glyph-name="uni01E2" unicode="&#x1e2;" horiz-adv-x="1037" 
d="M750 432h258l-20 -144h-258l-20 -144h294l-20 -144h-450l21 150h-263l-116 -150h-191l548 708h538l-20 -144h-282zM596 564l-219 -282h196l40 282h-17zM427 854h340l-13 -96h-340z" />
    <glyph glyph-name="uni01E3" unicode="&#x1e3;" horiz-adv-x="852" 
d="M178 277q48 15 100.5 18t93.5 3h18q7 44 -12.5 71t-60.5 27q-37 0 -69.5 -15.5t-60.5 -42.5l-68 82q47 39 105.5 58.5t118.5 19.5q43 0 83 -14t67 -45q35 29 79 44t92 15q52 0 92 -18t65 -51.5t34.5 -80.5t1.5 -105l-7 -47h-348q3 -43 29.5 -68.5t70.5 -25.5
q37 0 64.5 16.5t50.5 42.5l94 -77q-42 -46 -100.5 -71t-117.5 -25q-60 0 -109 17t-74 62q-38 -44 -92 -61.5t-118 -17.5q-34 0 -64 9.5t-51.5 28.5t-31.5 47t-5 65q8 58 44.5 90.5t85.5 48.5zM196 113q6 -10 16.5 -15t24 -6.5t25.5 -1.5q54 0 80.5 29t33.5 77h-18
q-17 0 -44 -1t-53 -6t-46 -17t-23 -33q-2 -17 4 -26zM555 362q-15 -13 -25 -29.5t-14 -34.5h198q6 38 -16 65t-63 27q-25 0 -45 -8t-35 -20zM340 645h340l-13 -96h-340z" />
    <glyph glyph-name="uni01E6" unicode="&#x1e6;" horiz-adv-x="778" 
d="M720 50q-75 -36 -152 -52t-155 -16q-83 0 -149.5 26t-110.5 74.5t-63 117.5t-7 154t50.5 154t96 117.5t131.5 74.5t157 26q85 0 153.5 -20.5t115.5 -70.5l-127 -120q-27 33 -65 50t-98 17q-50 0 -93 -17t-76 -47.5t-54.5 -72.5t-28.5 -91q-7 -50 3 -91.5t34.5 -72
t62.5 -47.5t88 -17q51 0 90 11.5t62 23.5l16 115h-127l21 144h277zM394 776l-96 144h138l52 -78l73 78h135l-139 -144h-163z" />
    <glyph glyph-name="uni01E7" unicode="&#x1e7;" horiz-adv-x="630" 
d="M348 9q-41 -15 -75 -15q-54 0 -95.5 18.5t-68.5 52t-37.5 79.5t-2.5 101q7 48 28.5 94t55 81t77.5 56.5t96 21.5q32 0 58 -7t45.5 -18t32.5 -24.5t20 -26.5h2l9 64h138l-63 -445q-19 -138 -98.5 -209.5t-221.5 -71.5q-65 0 -126 14.5t-108 56.5l100 124q31 -29 67 -46
t82 -17q69 0 106 33.5t45 85.5l7 47h-2q-31 -35 -71 -49zM356 366q-26 0 -49 -10t-41.5 -26.5t-31 -38t-15.5 -45.5t3 -45.5t19.5 -38t34 -26.5t46.5 -10q25 0 48.5 10t42 26.5t31 38t15.5 45.5t-3 45.5t-19.5 38t-34.5 26.5t-46 10zM288 549l-96 144h138l52 -78l73 78h135
l-139 -144h-163z" />
    <glyph glyph-name="uni01E8" unicode="&#x1e8;" horiz-adv-x="722" 
d="M522 0l-241 336l-47 -336h-156l99 708h156l-41 -294l316 294h204l-361 -329l289 -379h-218zM408 758l-96 144h138l52 -78l73 78h135l-139 -144h-163z" />
    <glyph glyph-name="uni01E9" unicode="&#x1e9;" horiz-adv-x="556" 
d="M397 267l161 -267h-189l-130 246h-2l-34 -246h-150l106 756h150l-65 -462l193 192h184zM304 806l-96 144h138l52 -78l73 78h135l-139 -144h-163z" />
    <glyph glyph-name="uni01EA" unicode="&#x1ea;" horiz-adv-x="832" 
d="M570 8q-74 -26 -157 -26t-149.5 26t-110.5 74.5t-63 117.5t-7 154t50.5 154t96 117.5t131.5 74.5t157 26t149 -26t110 -74.5t63 -117.5t7 -154t-50 -154t-96 -117.5t-131 -74.5zM602 191q33 30 54.5 71.5t28.5 91.5q7 49 -2.5 91t-34.5 72.5t-63 47.5t-88 17t-93 -17
t-76 -47.5t-54.5 -72.5t-28.5 -91q-7 -50 3 -91.5t34.5 -72t62.5 -47.5t88 -17t93 17t76 48zM445 -258q-28 -11 -60 -11q-21 0 -38.5 6t-30.5 18t-19 29.5t-3 39.5t16 44.5t31.5 44t39.5 39.5t39 31h68q-14 -11 -30.5 -26.5t-31.5 -34t-26 -37.5t-14 -36q-2 -17 8 -31.5
t28 -14.5q14 0 29.5 7t27.5 16l21 -53q-28 -19 -55 -31z" />
    <glyph glyph-name="uni01EB" unicode="&#x1eb;" horiz-adv-x="610" 
d="M411 6q-52 -18 -108 -18t-103 18t-78.5 51.5t-46 80.5t-6.5 105t35.5 105t68.5 80.5t93 51.5t108 18t103 -18t79 -51.5t46.5 -80.5t6.5 -105t-36 -105t-69 -80.5t-93 -51.5zM459 243q8 55 -19 89t-84 34t-93 -34t-44 -89t18.5 -89t83.5 -34t93.5 34t44.5 89zM336 -252
q-28 -11 -60 -11q-21 0 -38.5 6t-30.5 18t-19 29.5t-3 39.5t16 44.5t31.5 44t39.5 39.5t39 31h68q-14 -11 -30.5 -26.5t-31.5 -34t-26 -37.5t-14 -36q-2 -17 8 -31.5t28 -14.5q14 0 29.5 7t27.5 16l21 -53q-28 -19 -55 -31z" />
    <glyph glyph-name="uni01EC" unicode="&#x1ec;" horiz-adv-x="832" 
d="M570 8q-74 -26 -157 -26t-149.5 26t-110.5 74.5t-63 117.5t-7 154t50.5 154t96 117.5t131.5 74.5t157 26t149 -26t110 -74.5t63 -117.5t7 -154t-50 -154t-96 -117.5t-131 -74.5zM602 191q33 30 54.5 71.5t28.5 91.5q7 49 -2.5 91t-34.5 72.5t-63 47.5t-88 17t-93 -17
t-76 -47.5t-54.5 -72.5t-28.5 -91q-7 -50 3 -91.5t34.5 -72t62.5 -47.5t88 -17t93 17t76 48zM445 -258q-28 -11 -60 -11q-21 0 -38.5 6t-30.5 18t-19 29.5t-3 39.5t16 44.5t31.5 44t39.5 39.5t39 31h68q-14 -11 -30.5 -26.5t-31.5 -34t-26 -37.5t-14 -36q-2 -17 8 -31.5
t28 -14.5q14 0 29.5 7t27.5 16l21 -53q-28 -19 -55 -31zM367 872h340l-13 -96h-340z" />
    <glyph glyph-name="uni01ED" unicode="&#x1ed;" horiz-adv-x="610" 
d="M411 6q-52 -18 -108 -18t-103 18t-78.5 51.5t-46 80.5t-6.5 105t35.5 105t68.5 80.5t93 51.5t108 18t103 -18t79 -51.5t46.5 -80.5t6.5 -105t-36 -105t-69 -80.5t-93 -51.5zM459 243q8 55 -19 89t-84 34t-93 -34t-44 -89t18.5 -89t83.5 -34t93.5 34t44.5 89zM336 -252
q-28 -11 -60 -11q-21 0 -38.5 6t-30.5 18t-19 29.5t-3 39.5t16 44.5t31.5 44t39.5 39.5t39 31h68q-14 -11 -30.5 -26.5t-31.5 -34t-26 -37.5t-14 -36q-2 -17 8 -31.5t28 -14.5q14 0 29.5 7t27.5 16l21 -53q-28 -19 -55 -31zM225 645h340l-13 -96h-340z" />
    <glyph glyph-name="uni01F0" unicode="&#x1f0;" horiz-adv-x="260" 
d="M140 -185q-25 -26 -61 -40.5t-87 -14.5q-17 0 -34.5 1.5t-34.5 6.5l27 133q16 -9 37 -9q19 0 31 10t19 25t10.5 32t5.5 31l70 496h150l-74 -522q-6 -47 -20.5 -84.5t-38.5 -64.5zM64 537l-96 144h138l52 -78l73 78h135l-139 -144h-163z" />
    <glyph glyph-name="uni01F1" unicode="&#x1f1;" horiz-adv-x="1389" 
d="M618 91q-61 -45 -136.5 -68t-154.5 -23h-255l99 708h234q85 0 158.5 -19t125 -61.5t75 -110.5t10.5 -165q-12 -86 -53.5 -151.5t-102.5 -109.5zM613 360q7 52 -6.5 90.5t-43.5 63.5t-72.5 37.5t-91.5 12.5h-92l-59 -420h81q54 0 102 11t85.5 36.5t62.5 67t34 101.5z
M1010 144h364l-20 -144h-560l20 144l419 426h-346l19 138h535l-19 -138z" />
    <glyph glyph-name="uni01F2" unicode="&#x1f2;" horiz-adv-x="1259" 
d="M618 91q-61 -45 -136.5 -68t-154.5 -23h-255l99 708h234q85 0 158.5 -19t125 -61.5t75 -110.5t10.5 -165q-12 -86 -53.5 -151.5t-102.5 -109.5zM613 360q7 52 -6.5 90.5t-43.5 63.5t-72.5 37.5t-91.5 12.5h-92l-59 -420h81q54 0 102 11t85.5 36.5t62.5 67t34 101.5z
M971 120h270l-16 -120h-432l21 150l282 216h-246l17 120h420l-20 -144z" />
    <glyph glyph-name="uni01F3" unicode="&#x1f3;" horiz-adv-x="1130" 
d="M431 64q-10 -13 -26.5 -26.5t-37.5 -24.5t-45.5 -18t-49.5 -7q-54 0 -95.5 18.5t-68.5 52t-37.5 79.5t-2.5 101q7 51 29 97.5t55.5 82.5t77.5 57.5t96 21.5q47 0 86 -14.5t59 -49.5h2l46 322h150l-106 -756h-138l8 64h-2zM459 243q8 55 -19 89t-84 34t-93 -34t-44 -89
t18.5 -89t83.5 -34t93.5 34t44.5 89zM842 120h270l-16 -120h-432l21 150l282 216h-246l17 120h420l-20 -144z" />
    <glyph glyph-name="uni01F4" unicode="&#x1f4;" horiz-adv-x="778" 
d="M720 50q-75 -36 -152 -52t-155 -16q-83 0 -149.5 26t-110.5 74.5t-63 117.5t-7 154t50.5 154t96 117.5t131.5 74.5t157 26q85 0 153.5 -20.5t115.5 -70.5l-127 -120q-27 33 -65 50t-98 17q-50 0 -93 -17t-76 -47.5t-54.5 -72.5t-28.5 -91q-7 -50 3 -91.5t34.5 -72
t62.5 -47.5t88 -17q51 0 90 11.5t62 23.5l16 115h-127l21 144h277zM456 920h204l-193 -144h-132z" />
    <glyph glyph-name="uni01F5" unicode="&#x1f5;" horiz-adv-x="630" 
d="M348 9q-41 -15 -75 -15q-54 0 -95.5 18.5t-68.5 52t-37.5 79.5t-2.5 101q7 48 28.5 94t55 81t77.5 56.5t96 21.5q32 0 58 -7t45.5 -18t32.5 -24.5t20 -26.5h2l9 64h138l-63 -445q-19 -138 -98.5 -209.5t-221.5 -71.5q-65 0 -126 14.5t-108 56.5l100 124q31 -29 67 -46
t82 -17q69 0 106 33.5t45 85.5l7 47h-2q-31 -35 -71 -49zM356 366q-26 0 -49 -10t-41.5 -26.5t-31 -38t-15.5 -45.5t3 -45.5t19.5 -38t34 -26.5t46.5 -10q25 0 48.5 10t42 26.5t31 38t15.5 45.5t-3 45.5t-19.5 38t-34.5 26.5t-46 10zM350 693h204l-193 -144h-132z" />
    <glyph glyph-name="uni01F8" unicode="&#x1f8;" horiz-adv-x="815" 
d="M539 0l-239 504h-2l-70 -504h-156l99 708h212l232 -492h2l69 492h156l-99 -708h-204zM666 758h-132l-153 144h204z" />
    <glyph glyph-name="uni01F9" unicode="&#x1f9;" 
d="M404 238q3 21 5 43.5t-3 41.5t-19 31t-43 12t-48.5 -10.5t-31.5 -28t-18 -39.5t-9 -46l-34 -242h-150l68 486h144l-9 -66h2q9 14 24 28t34 25t43 18t51 7q57 0 90 -17.5t48 -48.5t16 -73t-6 -91l-37 -268h-150zM504 549h-132l-153 144h204z" />
    <glyph glyph-name="uni01FA" unicode="&#x1fa;" horiz-adv-x="741" 
d="M251 150l-80 -150h-172l405 708h129l209 -708h-176l-40 150h-275zM435 502l-117 -220h173zM471 767q-22 -9 -45 -9t-42 9t-32 24t-18.5 35t-2.5 43t14.5 43t28.5 35t38.5 24t44.5 9t42 -9t32 -24t19 -35t3 -43t-15 -43t-29 -35t-38 -24zM493 869q3 21 -10 36t-34 15
t-38 -15t-20 -36t10 -36t34 -15t38 15t20 36zM433 1174h204l-193 -144h-132z" />
    <glyph glyph-name="uni01FB" unicode="&#x1fb;" horiz-adv-x="537" 
d="M187 287q52 16 109.5 19t104.5 3q5 40 -20 63.5t-64 23.5q-37 0 -69.5 -15.5t-60.5 -42.5l-68 82q47 39 105.5 58.5t118.5 19.5q66 0 106.5 -16.5t61.5 -48.5t24.5 -78.5t-5.5 -107.5l-34 -247h-138l8 61h-2q-30 -39 -74 -56t-90 -17q-34 0 -64 9.5t-51.5 28.5t-31.5 47
t-5 65q9 63 47.5 97.5t91.5 51.5zM196 120q5 -10 14 -17t21.5 -10t24.5 -3q22 0 43.5 6t39 17t29.5 28t15 40l4 32h-37q-17 0 -42.5 -1.5t-50 -8.5t-43 -21t-21.5 -39q-2 -14 3 -23zM378 557q-22 -9 -45 -9t-42 9t-32 24t-18.5 35t-2.5 43t14.5 43t28.5 35t38.5 24t44.5 9
t42 -9t32 -24t19 -35t3 -43t-15 -43t-29 -35t-38 -24zM400 659q3 21 -10 36t-34 15t-38 -15t-20 -36t10 -36t34 -15t38 15t20 36zM339 964h204l-193 -144h-132z" />
    <glyph glyph-name="uni01FC" unicode="&#x1fc;" horiz-adv-x="1037" 
d="M750 432h258l-20 -144h-258l-20 -144h294l-20 -144h-450l21 150h-263l-116 -150h-191l548 708h538l-20 -144h-282zM596 564l-219 -282h196l40 282h-17zM553 902h204l-193 -144h-132z" />
    <glyph glyph-name="uni01FD" unicode="&#x1fd;" horiz-adv-x="852" 
d="M178 277q48 15 100.5 18t93.5 3h18q7 44 -12.5 71t-60.5 27q-37 0 -69.5 -15.5t-60.5 -42.5l-68 82q47 39 105.5 58.5t118.5 19.5q43 0 83 -14t67 -45q35 29 79 44t92 15q52 0 92 -18t65 -51.5t34.5 -80.5t1.5 -105l-7 -47h-348q3 -43 29.5 -68.5t70.5 -25.5
q37 0 64.5 16.5t50.5 42.5l94 -77q-42 -46 -100.5 -71t-117.5 -25q-60 0 -109 17t-74 62q-38 -44 -92 -61.5t-118 -17.5q-34 0 -64 9.5t-51.5 28.5t-31.5 47t-5 65q8 58 44.5 90.5t85.5 48.5zM196 113q6 -10 16.5 -15t24 -6.5t25.5 -1.5q54 0 80.5 29t33.5 77h-18
q-17 0 -44 -1t-53 -6t-46 -17t-23 -33q-2 -17 4 -26zM555 362q-15 -13 -25 -29.5t-14 -34.5h198q6 38 -16 65t-63 27q-25 0 -45 -8t-35 -20zM466 693h204l-193 -144h-132z" />
    <glyph glyph-name="uni01FE" unicode="&#x1fe;" horiz-adv-x="832" 
d="M842 762l48 -49l-104 -98q40 -48 56 -114t5 -147q-12 -85 -50 -154t-96 -117.5t-131.5 -74.5t-156.5 -26q-69 0 -125.5 18t-97.5 50l-108 -101l-49 48l107 102q-38 48 -53 112.5t-4 142.5q12 85 50.5 154t96 117.5t131.5 74.5t157 26q130 0 218 -64zM526 143
q43 17 76 47.5t54.5 72t28.5 91.5q6 42 -0.5 78.5t-23.5 64.5l-351 -333q47 -38 123 -38q50 0 93 17zM497 582q-50 0 -93 -17t-76 -47.5t-54.5 -72.5t-28.5 -91q-11 -79 20 -137l351 331q-48 34 -119 34zM493 956h204l-193 -144h-132z" />
    <glyph glyph-name="uni01FF" unicode="&#x1ff;" horiz-adv-x="610" 
d="M411 6q-52 -18 -108 -18q-90 0 -153 46l-83 -73l-41 45l80 70q-24 32 -34.5 74t-2.5 93q8 58 35.5 105t68.5 80.5t93 51.5t108 18q48 0 88 -13t71 -36l76 67l41 -45l-76 -66q23 -32 32.5 -73t2.5 -89q-8 -58 -36 -105t-69 -80.5t-93 -51.5zM419 350q-26 16 -63 16
q-57 0 -93 -34t-44 -89q-6 -36 6 -63zM459 243q4 29 -4 57l-191 -166q25 -14 57 -14q57 0 93.5 34t44.5 89zM352 710h204l-193 -144h-132z" />
    <glyph glyph-name="uni0200" unicode="&#x200;" horiz-adv-x="741" 
d="M251 150l-80 -150h-172l405 708h129l209 -708h-176l-40 150h-275zM435 502l-117 -220h173zM560 917l77 -142h-126l-144 142h193zM341 914l76 -142h-124l-146 142h194z" />
    <glyph glyph-name="uni0201" unicode="&#x201;" horiz-adv-x="537" 
d="M187 287q52 16 109.5 19t104.5 3q5 40 -20 63.5t-64 23.5q-37 0 -69.5 -15.5t-60.5 -42.5l-68 82q47 39 105.5 58.5t118.5 19.5q66 0 106.5 -16.5t61.5 -48.5t24.5 -78.5t-5.5 -107.5l-34 -247h-138l8 61h-2q-30 -39 -74 -56t-90 -17q-34 0 -64 9.5t-51.5 28.5t-31.5 47
t-5 65q9 63 47.5 97.5t91.5 51.5zM196 120q5 -10 14 -17t21.5 -10t24.5 -3q22 0 43.5 6t39 17t29.5 28t15 40l4 32h-37q-17 0 -42.5 -1.5t-50 -8.5t-43 -21t-21.5 -39q-2 -14 3 -23zM468 708l77 -142h-126l-144 142h193zM249 705l76 -142h-124l-146 142h194z" />
    <glyph glyph-name="uni0202" unicode="&#x202;" horiz-adv-x="741" 
d="M251 150l-80 -150h-172l405 708h129l209 -708h-176l-40 150h-275zM435 502l-117 -220h173zM593 837q-20 -28 -47 -45.5t-59.5 -25.5t-68.5 -8t-67 7.5t-54 25t-34.5 45t-8.5 66.5h80q1 -15 10.5 -24t23 -14.5t30 -7.5t33.5 -2q39 0 67.5 7.5t44.5 40.5h79q-9 -38 -29 -65
z" />
    <glyph glyph-name="uni0203" unicode="&#x203;" horiz-adv-x="537" 
d="M187 287q52 16 109.5 19t104.5 3q5 40 -20 63.5t-64 23.5q-37 0 -69.5 -15.5t-60.5 -42.5l-68 82q47 39 105.5 58.5t118.5 19.5q66 0 106.5 -16.5t61.5 -48.5t24.5 -78.5t-5.5 -107.5l-34 -247h-138l8 61h-2q-30 -39 -74 -56t-90 -17q-34 0 -64 9.5t-51.5 28.5t-31.5 47
t-5 65q9 63 47.5 97.5t91.5 51.5zM196 120q5 -10 14 -17t21.5 -10t24.5 -3q22 0 43.5 6t39 17t29.5 28t15 40l4 32h-37q-17 0 -42.5 -1.5t-50 -8.5t-43 -21t-21.5 -39q-2 -14 3 -23zM500 628q-20 -28 -47 -45.5t-59.5 -25.5t-68.5 -8t-67 7.5t-54 25t-34.5 45t-8.5 66.5h80
q1 -15 10.5 -24t23 -14.5t30 -7.5t33.5 -2q39 0 67.5 7.5t44.5 40.5h79q-9 -38 -29 -65z" />
    <glyph glyph-name="uni0204" unicode="&#x204;" horiz-adv-x="630" 
d="M313 564l-19 -132h307l-20 -144h-307l-20 -144h343l-20 -144h-499l99 708h481l-20 -144h-325zM557 917l77 -142h-126l-144 142h193zM338 914l76 -142h-124l-146 142h194z" />
    <glyph glyph-name="uni0205" unicode="&#x205;" 
d="M524 84q-42 -46 -100.5 -71t-117.5 -25q-56 0 -103 18t-78.5 51.5t-46 80.5t-6.5 105t35.5 105t68.5 80.5t93 51.5t108 18q52 0 92 -18t65 -51.5t34.5 -80.5t1.5 -105l-7 -47h-348q3 -43 29.5 -68.5t70.5 -25.5q37 0 64.5 16.5t50.5 42.5zM411 363q-22 27 -63 27
q-25 0 -45 -8t-35 -20.5t-25 -29t-14 -34.5h198q6 38 -16 65zM498 708l77 -142h-126l-144 142h193zM279 705l76 -142h-124l-146 142h194z" />
    <glyph glyph-name="uni0206" unicode="&#x206;" horiz-adv-x="630" 
d="M313 564l-19 -132h307l-20 -144h-307l-20 -144h343l-20 -144h-499l99 708h481l-20 -144h-325zM590 837q-20 -28 -47 -45.5t-59.5 -25.5t-68.5 -8t-67 7.5t-54 25t-34.5 45t-8.5 66.5h80q1 -15 10.5 -24t23 -14.5t30 -7.5t33.5 -2q39 0 67.5 7.5t44.5 40.5h79
q-9 -38 -29 -65z" />
    <glyph glyph-name="uni0207" unicode="&#x207;" 
d="M524 84q-42 -46 -100.5 -71t-117.5 -25q-56 0 -103 18t-78.5 51.5t-46 80.5t-6.5 105t35.5 105t68.5 80.5t93 51.5t108 18q52 0 92 -18t65 -51.5t34.5 -80.5t1.5 -105l-7 -47h-348q3 -43 29.5 -68.5t70.5 -25.5q37 0 64.5 16.5t50.5 42.5zM411 363q-22 27 -63 27
q-25 0 -45 -8t-35 -20.5t-25 -29t-14 -34.5h198q6 38 -16 65zM530 628q-20 -28 -47 -45.5t-59.5 -25.5t-68.5 -8t-67 7.5t-54 25t-34.5 45t-8.5 66.5h80q1 -15 10.5 -24t23 -14.5t30 -7.5t33.5 -2q39 0 67.5 7.5t44.5 40.5h79q-9 -38 -29 -65z" />
    <glyph glyph-name="uni0208" unicode="&#x208;" horiz-adv-x="296" 
d="M169 708h156l-99 -708h-156zM387 917l77 -142h-126l-144 142h193zM168 914l76 -142h-124l-146 142h194z" />
    <glyph glyph-name="uni0209" unicode="&#x209;" horiz-adv-x="260" 
d="M123 486h150l-68 -486h-150zM339 696l77 -142h-126l-144 142h193zM120 693l76 -142h-124l-146 142h194z" />
    <glyph glyph-name="uni020A" unicode="&#x20a;" horiz-adv-x="296" 
d="M169 708h156l-99 -708h-156zM420 837q-20 -28 -47 -45.5t-59.5 -25.5t-68.5 -8t-67 7.5t-54 25t-34.5 45t-8.5 66.5h80q1 -15 10.5 -24t23 -14.5t30 -7.5t33.5 -2q39 0 67.5 7.5t44.5 40.5h79q-9 -38 -29 -65z" />
    <glyph glyph-name="uni020B" unicode="&#x20b;" horiz-adv-x="260" 
d="M123 486h150l-68 -486h-150zM372 616q-20 -28 -47 -45.5t-59.5 -25.5t-68.5 -8t-67 7.5t-54 25t-34.5 45t-8.5 66.5h80q1 -15 10.5 -24t23 -14.5t30 -7.5t33.5 -2q39 0 67.5 7.5t44.5 40.5h79q-9 -38 -29 -65z" />
    <glyph glyph-name="uni020C" unicode="&#x20c;" horiz-adv-x="832" 
d="M570 8q-74 -26 -157 -26t-149.5 26t-110.5 74.5t-63 117.5t-7 154t50.5 154t96 117.5t131.5 74.5t157 26t149 -26t110 -74.5t63 -117.5t7 -154t-50 -154t-96 -117.5t-131 -74.5zM602 191q33 30 54.5 71.5t28.5 91.5q7 49 -2.5 91t-34.5 72.5t-63 47.5t-88 17t-93 -17
t-76 -47.5t-54.5 -72.5t-28.5 -91q-7 -50 3 -91.5t34.5 -72t62.5 -47.5t88 -17t93 17t76 48zM657 935l77 -142h-126l-144 142h193zM438 932l76 -142h-124l-146 142h194z" />
    <glyph glyph-name="uni020D" unicode="&#x20d;" horiz-adv-x="610" 
d="M411 6q-52 -18 -108 -18t-103 18t-78.5 51.5t-46 80.5t-6.5 105t35.5 105t68.5 80.5t93 51.5t108 18t103 -18t79 -51.5t46.5 -80.5t6.5 -105t-36 -105t-69 -80.5t-93 -51.5zM459 243q8 55 -19 89t-84 34t-93 -34t-44 -89t18.5 -89t83.5 -34t93.5 34t44.5 89zM516 708
l77 -142h-126l-144 142h193zM297 705l76 -142h-124l-146 142h194z" />
    <glyph glyph-name="uni020E" unicode="&#x20e;" horiz-adv-x="832" 
d="M570 8q-74 -26 -157 -26t-149.5 26t-110.5 74.5t-63 117.5t-7 154t50.5 154t96 117.5t131.5 74.5t157 26t149 -26t110 -74.5t63 -117.5t7 -154t-50 -154t-96 -117.5t-131 -74.5zM602 191q33 30 54.5 71.5t28.5 91.5q7 49 -2.5 91t-34.5 72.5t-63 47.5t-88 17t-93 -17
t-76 -47.5t-54.5 -72.5t-28.5 -91q-7 -50 3 -91.5t34.5 -72t62.5 -47.5t88 -17t93 17t76 48zM689 855q-20 -28 -47 -45.5t-59.5 -25.5t-68.5 -8t-67 7.5t-54 25t-34.5 45t-8.5 66.5h80q1 -15 10.5 -24t23 -14.5t30 -7.5t33.5 -2q39 0 67.5 7.5t44.5 40.5h79q-9 -38 -29 -65z
" />
    <glyph glyph-name="uni020F" unicode="&#x20f;" horiz-adv-x="610" 
d="M411 6q-52 -18 -108 -18t-103 18t-78.5 51.5t-46 80.5t-6.5 105t35.5 105t68.5 80.5t93 51.5t108 18t103 -18t79 -51.5t46.5 -80.5t6.5 -105t-36 -105t-69 -80.5t-93 -51.5zM459 243q8 55 -19 89t-84 34t-93 -34t-44 -89t18.5 -89t83.5 -34t93.5 34t44.5 89zM548 628
q-20 -28 -47 -45.5t-59.5 -25.5t-68.5 -8t-67 7.5t-54 25t-34.5 45t-8.5 66.5h80q1 -15 10.5 -24t23 -14.5t30 -7.5t33.5 -2q39 0 67.5 7.5t44.5 40.5h79q-9 -38 -29 -65z" />
    <glyph glyph-name="uni0210" unicode="&#x210;" horiz-adv-x="648" 
d="M640 0h-187l-109 283h-77l-39 -283h-156l99 708h274q54 0 101 -10.5t80 -35t49 -66t7 -103.5q-11 -75 -57 -127.5t-123 -66.5zM490 562q-16 8 -37.5 11t-42.5 3h-102l-22 -161h92q21 0 44.5 1.5t43.5 9t35 23.5t19 45q4 27 -5 43t-25 25zM571 917l77 -142h-126l-144 142
h193zM352 914l76 -142h-124l-146 142h194z" />
    <glyph glyph-name="uni0211" unicode="&#x211;" horiz-adv-x="407" 
d="M414 364q-15 2 -32 2q-43 0 -70 -12t-43 -33.5t-24.5 -51.5t-13.5 -66l-28 -203h-150l68 486h150l-11 -78h2q30 45 66 67.5t86 22.5q13 0 26 -1t24 -4l-19 -137q-16 5 -31 8zM435 708l77 -142h-126l-144 142h193zM216 705l76 -142h-124l-146 142h194z" />
    <glyph glyph-name="uni0212" unicode="&#x212;" horiz-adv-x="648" 
d="M640 0h-187l-109 283h-77l-39 -283h-156l99 708h274q54 0 101 -10.5t80 -35t49 -66t7 -103.5q-11 -75 -57 -127.5t-123 -66.5zM490 562q-16 8 -37.5 11t-42.5 3h-102l-22 -161h92q21 0 44.5 1.5t43.5 9t35 23.5t19 45q4 27 -5 43t-25 25zM604 837q-20 -28 -47 -45.5
t-59.5 -25.5t-68.5 -8t-67 7.5t-54 25t-34.5 45t-8.5 66.5h80q1 -15 10.5 -24t23 -14.5t30 -7.5t33.5 -2q39 0 67.5 7.5t44.5 40.5h79q-9 -38 -29 -65z" />
    <glyph glyph-name="uni0213" unicode="&#x213;" horiz-adv-x="407" 
d="M414 364q-15 2 -32 2q-43 0 -70 -12t-43 -33.5t-24.5 -51.5t-13.5 -66l-28 -203h-150l68 486h150l-11 -78h2q30 45 66 67.5t86 22.5q13 0 26 -1t24 -4l-19 -137q-16 5 -31 8zM467 628q-20 -28 -47 -45.5t-59.5 -25.5t-68.5 -8t-67 7.5t-54 25t-34.5 45t-8.5 66.5h80
q1 -15 10.5 -24t23 -14.5t30 -7.5t33.5 -2q39 0 67.5 7.5t44.5 40.5h79q-9 -38 -29 -65z" />
    <glyph glyph-name="uni0214" unicode="&#x214;" horiz-adv-x="741" 
d="M612 708h156l-61 -435q-9 -63 -35.5 -116t-69.5 -92t-102 -61t-132 -22q-74 0 -127 22t-85 61t-43.5 92t-2.5 116l61 435h156l-60 -429q-5 -33 1.5 -61t23 -48.5t41 -32t55.5 -11.5t58.5 11.5t49.5 32t36.5 48.5t19.5 61zM625 917l77 -142h-126l-144 142h193zM406 914
l76 -142h-124l-146 142h194z" />
    <glyph glyph-name="uni0215" unicode="&#x215;" 
d="M360 38q-15 -14 -34.5 -25t-43.5 -18t-51 -7q-57 0 -90 17.5t-48 48.5t-16 73t6 91l38 268h150l-34 -238q-3 -21 -5 -43.5t3 -41.5t19 -31t43 -12t48.5 10.5t31.5 28t18.5 39.5t9.5 46l34 242h150l-68 -486h-144l9 66h-2q-10 -14 -24 -28zM508 696l77 -142h-126l-144 142
h193zM289 693l76 -142h-124l-146 142h194z" />
    <glyph glyph-name="uni0216" unicode="&#x216;" horiz-adv-x="741" 
d="M612 708h156l-61 -435q-9 -63 -35.5 -116t-69.5 -92t-102 -61t-132 -22q-74 0 -127 22t-85 61t-43.5 92t-2.5 116l61 435h156l-60 -429q-5 -33 1.5 -61t23 -48.5t41 -32t55.5 -11.5t58.5 11.5t49.5 32t36.5 48.5t19.5 61zM658 837q-20 -28 -47 -45.5t-59.5 -25.5
t-68.5 -8t-67 7.5t-54 25t-34.5 45t-8.5 66.5h80q1 -15 10.5 -24t23 -14.5t30 -7.5t33.5 -2q39 0 67.5 7.5t44.5 40.5h79q-9 -38 -29 -65z" />
    <glyph glyph-name="uni0217" unicode="&#x217;" 
d="M360 38q-15 -14 -34.5 -25t-43.5 -18t-51 -7q-57 0 -90 17.5t-48 48.5t-16 73t6 91l38 268h150l-34 -238q-3 -21 -5 -43.5t3 -41.5t19 -31t43 -12t48.5 10.5t31.5 28t18.5 39.5t9.5 46l34 242h150l-68 -486h-144l9 66h-2q-10 -14 -24 -28zM541 616q-20 -28 -47 -45.5
t-59.5 -25.5t-68.5 -8t-67 7.5t-54 25t-34.5 45t-8.5 66.5h80q1 -15 10.5 -24t23 -14.5t30 -7.5t33.5 -2q39 0 67.5 7.5t44.5 40.5h79q-9 -38 -29 -65z" />
    <glyph glyph-name="uni0218" unicode="&#x218;" 
d="M123 401q-20 36 -12 95q8 57 36.5 100t70.5 72t93 43.5t103 14.5q60 0 113.5 -17t92.5 -57l-123 -117q-16 24 -47 35.5t-60 11.5q-17 0 -36 -4t-35.5 -12.5t-28.5 -22.5t-15 -34q-3 -24 8.5 -39.5t33 -26t50 -18.5t57.5 -18t56.5 -24t47.5 -35.5t29.5 -54t2.5 -78.5
q-8 -59 -36.5 -103t-70 -73t-93 -43t-106.5 -14q-69 0 -125 21t-101 68l129 122q20 -32 53.5 -49.5t72.5 -17.5q19 0 39 4.5t37 13.5t28.5 23t14.5 33q5 32 -17.5 50.5t-57.5 31.5t-76 26t-75 35t-53 58zM208 -61h144l-118 -199h-117z" />
    <glyph glyph-name="uni0219" unicode="&#x219;" horiz-adv-x="463" 
d="M308 137q3 19 -14.5 28.5t-45 16t-59 14t-58 22.5t-41.5 42.5t-8 73.5q6 43 28 74t53.5 51t69.5 29.5t76 9.5q48 0 95 -14t76 -50l-104 -91q-27 41 -82 41q-19 0 -38 -9t-22 -31q-3 -18 15 -26.5t45 -15t58.5 -14t57.5 -23.5t40.5 -43.5t8.5 -73.5q-6 -47 -31 -77.5
t-59.5 -49t-75.5 -26t-80 -7.5q-51 0 -101 14.5t-81 51.5l105 101q18 -26 41.5 -39.5t57.5 -13.5q26 0 48 7.5t25 27.5zM163 -61h144l-118 -199h-117z" />
    <glyph glyph-name="uni021A" unicode="&#x21a;" 
d="M87 570l19 138h560l-19 -138h-202l-80 -570h-156l80 570h-202zM231 -61h144l-118 -199h-117z" />
    <glyph glyph-name="uni021B" unicode="&#x21b;" horiz-adv-x="407" 
d="M280 204q-3 -20 -3 -36.5t5.5 -28.5t19 -18.5t37.5 -6.5q12 0 31.5 2.5t30.5 11.5l-17 -125q-26 -9 -53.5 -12t-53.5 -3q-38 0 -69 8t-52.5 25.5t-31 45.5t-4.5 68l33 231h-96l17 120h96l20 144h150l-20 -144h132l-17 -120h-132zM158 -61h144l-118 -199h-117z" />
    <glyph glyph-name="uni021E" unicode="&#x21e;" horiz-adv-x="759" 
d="M531 0l43 306h-303l-43 -306h-156l99 708h156l-37 -264h303l37 264h156l-99 -708h-156zM392 758l-96 144h138l52 -78l73 78h135l-139 -144h-163z" />
    <glyph glyph-name="uni021F" unicode="&#x21f;" 
d="M404 238q3 21 5 43.5t-3 41.5t-19 31t-43 12t-48.5 -10.5t-31.5 -28t-18 -39.5t-9 -46l-34 -242h-150l106 756h150l-47 -336h2q7 14 20.5 28t32 25t42.5 18t51 7q57 0 90 -17.5t48 -48.5t16 -73t-6 -91l-37 -268h-150zM276 806l-96 144h138l52 -78l73 78h135l-139 -144
h-163z" />
    <glyph glyph-name="uni0226" unicode="&#x226;" horiz-adv-x="741" 
d="M251 150l-80 -150h-172l405 708h129l209 -708h-176l-40 150h-275zM435 502l-117 -220h173zM523 844q-5 -36 -32.5 -61t-64.5 -25q-35 0 -55.5 25.5t-15.5 60.5q2 16 10.5 31t21.5 26t28.5 18t32.5 7q35 0 57.5 -23t17.5 -59z" />
    <glyph glyph-name="uni0227" unicode="&#x227;" horiz-adv-x="537" 
d="M187 287q52 16 109.5 19t104.5 3q5 40 -20 63.5t-64 23.5q-37 0 -69.5 -15.5t-60.5 -42.5l-68 82q47 39 105.5 58.5t118.5 19.5q66 0 106.5 -16.5t61.5 -48.5t24.5 -78.5t-5.5 -107.5l-34 -247h-138l8 61h-2q-30 -39 -74 -56t-90 -17q-34 0 -64 9.5t-51.5 28.5t-31.5 47
t-5 65q9 63 47.5 97.5t91.5 51.5zM196 120q5 -10 14 -17t21.5 -10t24.5 -3q22 0 43.5 6t39 17t29.5 28t15 40l4 32h-37q-17 0 -42.5 -1.5t-50 -8.5t-43 -21t-21.5 -39q-2 -14 3 -23zM430 635q-5 -36 -32.5 -61t-64.5 -25q-35 0 -55.5 25.5t-15.5 60.5q2 16 10.5 31t21.5 26
t28.5 18t32.5 7q35 0 57.5 -23t17.5 -59z" />
    <glyph glyph-name="uni0228" unicode="&#x228;" horiz-adv-x="630" 
d="M313 564l-19 -132h307l-20 -144h-307l-20 -144h343l-20 -144h-499l99 708h481l-20 -144h-325zM326 -122q-17 8 -32 8q-10 0 -18.5 -2t-18.5 -6l-28 29l76 93h67l-50 -60q22 0 44 -2.5t39 -11t26 -25t5 -44.5q-4 -27 -21 -46t-39.5 -30t-47.5 -16t-44 -5q-30 0 -62.5 8.5
t-57.5 21.5l32 47q11 -5 29 -11t44 -6q23 0 45.5 6t25.5 26q2 18 -14 26z" />
    <glyph glyph-name="uni0229" unicode="&#x229;" 
d="M524 84q-42 -46 -100.5 -71t-117.5 -25q-56 0 -103 18t-78.5 51.5t-46 80.5t-6.5 105t35.5 105t68.5 80.5t93 51.5t108 18q52 0 92 -18t65 -51.5t34.5 -80.5t1.5 -105l-7 -47h-348q3 -43 29.5 -68.5t70.5 -25.5q37 0 64.5 16.5t50.5 42.5zM411 363q-22 27 -63 27
q-25 0 -45 -8t-35 -20.5t-25 -29t-14 -34.5h198q6 38 -16 65zM294 -133q-17 8 -32 8q-10 0 -18.5 -2t-18.5 -6l-28 29l76 93h67l-50 -60q22 0 44 -2.5t39 -11t26 -25t5 -44.5q-4 -27 -21 -46t-39.5 -30t-47.5 -16t-44 -5q-30 0 -62.5 8.5t-57.5 21.5l32 47q11 -5 29 -11
t44 -6q23 0 45.5 6t25.5 26q2 18 -14 26z" />
    <glyph glyph-name="uni022A" unicode="&#x22a;" horiz-adv-x="832" 
d="M570 8q-74 -26 -157 -26t-149.5 26t-110.5 74.5t-63 117.5t-7 154t50.5 154t96 117.5t131.5 74.5t157 26t149 -26t110 -74.5t63 -117.5t7 -154t-50 -154t-96 -117.5t-131 -74.5zM602 191q33 30 54.5 71.5t28.5 91.5q7 49 -2.5 91t-34.5 72.5t-63 47.5t-88 17t-93 -17
t-76 -47.5t-54.5 -72.5t-28.5 -91q-7 -50 3 -91.5t34.5 -72t62.5 -47.5t88 -17t93 17t76 48zM626 776q-35 0 -55.5 25.5t-15.5 60.5q2 16 10.5 31t21.5 26t28.5 18t32.5 7q35 0 57.5 -23t17.5 -59t-32.5 -61t-64.5 -25zM347 862q2 16 10.5 31t21.5 26t28.5 18t32.5 7
q35 0 57.5 -23t17.5 -59t-32.5 -61t-64.5 -25q-35 0 -55.5 25.5t-15.5 60.5zM396 1090h340l-13 -96h-340z" />
    <glyph glyph-name="uni022B" unicode="&#x22b;" horiz-adv-x="610" 
d="M411 6q-52 -18 -108 -18t-103 18t-78.5 51.5t-46 80.5t-6.5 105t35.5 105t68.5 80.5t93 51.5t108 18t103 -18t79 -51.5t46.5 -80.5t6.5 -105t-36 -105t-69 -80.5t-93 -51.5zM459 243q8 55 -19 89t-84 34t-93 -34t-44 -89t18.5 -89t83.5 -34t93.5 34t44.5 89zM485 549
q-35 0 -55.5 25.5t-15.5 60.5q2 16 10.5 31t21.5 26t28.5 18t32.5 7q35 0 57.5 -23t17.5 -59t-32.5 -61t-64.5 -25zM206 635q2 16 10.5 31t21.5 26t28.5 18t32.5 7q35 0 57.5 -23t17.5 -59t-32.5 -61t-64.5 -25q-35 0 -55.5 25.5t-15.5 60.5zM255 862h340l-13 -96h-340z" />
    <glyph glyph-name="uni022C" unicode="&#x22c;" horiz-adv-x="832" 
d="M570 8q-74 -26 -157 -26t-149.5 26t-110.5 74.5t-63 117.5t-7 154t50.5 154t96 117.5t131.5 74.5t157 26t149 -26t110 -74.5t63 -117.5t7 -154t-50 -154t-96 -117.5t-131 -74.5zM602 191q33 30 54.5 71.5t28.5 91.5q7 49 -2.5 91t-34.5 72.5t-63 47.5t-88 17t-93 -17
t-76 -47.5t-54.5 -72.5t-28.5 -91q-7 -50 3 -91.5t34.5 -72t62.5 -47.5t88 -17t93 17t76 48zM640 889q11 10 20 25h78q-9 -29 -21.5 -54t-30.5 -43.5t-42 -29.5t-55 -11q-22 0 -40.5 6.5t-34.5 14.5q-17 8 -31 14.5t-29 6.5q-17 0 -29.5 -14t-18.5 -28h-79q7 25 20.5 50
t32 44.5t42 31.5t51.5 12q25 0 44.5 -6t39.5 -15l26 -10q13 -5 28 -5q17 0 29 11zM392 1060h340l-13 -96h-340z" />
    <glyph glyph-name="uni022D" unicode="&#x22d;" horiz-adv-x="610" 
d="M411 6q-52 -18 -108 -18t-103 18t-78.5 51.5t-46 80.5t-6.5 105t35.5 105t68.5 80.5t93 51.5t108 18t103 -18t79 -51.5t46.5 -80.5t6.5 -105t-36 -105t-69 -80.5t-93 -51.5zM459 243q8 55 -19 89t-84 34t-93 -34t-44 -89t18.5 -89t83.5 -34t93.5 34t44.5 89zM499 662
q11 10 20 25h78q-9 -29 -21.5 -54t-30.5 -43.5t-42 -29.5t-55 -11q-22 0 -40.5 6.5t-34.5 14.5q-17 8 -31 14.5t-29 6.5q-17 0 -29.5 -14t-18.5 -28h-79q7 25 20.5 50t32 44.5t42 31.5t51.5 12q25 0 44.5 -6t39.5 -15l26 -10q13 -5 28 -5q17 0 29 11zM251 832h340l-13 -96
h-340z" />
    <glyph glyph-name="uni022E" unicode="&#x22e;" horiz-adv-x="832" 
d="M570 8q-74 -26 -157 -26t-149.5 26t-110.5 74.5t-63 117.5t-7 154t50.5 154t96 117.5t131.5 74.5t157 26t149 -26t110 -74.5t63 -117.5t7 -154t-50 -154t-96 -117.5t-131 -74.5zM602 191q33 30 54.5 71.5t28.5 91.5q7 49 -2.5 91t-34.5 72.5t-63 47.5t-88 17t-93 -17
t-76 -47.5t-54.5 -72.5t-28.5 -91q-7 -50 3 -91.5t34.5 -72t62.5 -47.5t88 -17t93 17t76 48zM619 862q-5 -36 -32.5 -61t-64.5 -25q-35 0 -55.5 25.5t-15.5 60.5q2 16 10.5 31t21.5 26t28.5 18t32.5 7q35 0 57.5 -23t17.5 -59z" />
    <glyph glyph-name="uni022F" unicode="&#x22f;" horiz-adv-x="610" 
d="M411 6q-52 -18 -108 -18t-103 18t-78.5 51.5t-46 80.5t-6.5 105t35.5 105t68.5 80.5t93 51.5t108 18t103 -18t79 -51.5t46.5 -80.5t6.5 -105t-36 -105t-69 -80.5t-93 -51.5zM459 243q8 55 -19 89t-84 34t-93 -34t-44 -89t18.5 -89t83.5 -34t93.5 34t44.5 89zM478 635
q-5 -36 -32.5 -61t-64.5 -25q-35 0 -55.5 25.5t-15.5 60.5q2 16 10.5 31t21.5 26t28.5 18t32.5 7q35 0 57.5 -23t17.5 -59z" />
    <glyph glyph-name="uni0230" unicode="&#x230;" horiz-adv-x="832" 
d="M570 8q-74 -26 -157 -26t-149.5 26t-110.5 74.5t-63 117.5t-7 154t50.5 154t96 117.5t131.5 74.5t157 26t149 -26t110 -74.5t63 -117.5t7 -154t-50 -154t-96 -117.5t-131 -74.5zM602 191q33 30 54.5 71.5t28.5 91.5q7 49 -2.5 91t-34.5 72.5t-63 47.5t-88 17t-93 -17
t-76 -47.5t-54.5 -72.5t-28.5 -91q-7 -50 3 -91.5t34.5 -72t62.5 -47.5t88 -17t93 17t76 48zM619 862q-5 -36 -32.5 -61t-64.5 -25q-35 0 -55.5 25.5t-15.5 60.5q2 16 10.5 31t21.5 26t28.5 18t32.5 7q35 0 57.5 -23t17.5 -59zM396 1090h340l-13 -96h-340z" />
    <glyph glyph-name="uni0231" unicode="&#x231;" horiz-adv-x="610" 
d="M411 6q-52 -18 -108 -18t-103 18t-78.5 51.5t-46 80.5t-6.5 105t35.5 105t68.5 80.5t93 51.5t108 18t103 -18t79 -51.5t46.5 -80.5t6.5 -105t-36 -105t-69 -80.5t-93 -51.5zM459 243q8 55 -19 89t-84 34t-93 -34t-44 -89t18.5 -89t83.5 -34t93.5 34t44.5 89zM478 635
q-5 -36 -32.5 -61t-64.5 -25q-35 0 -55.5 25.5t-15.5 60.5q2 16 10.5 31t21.5 26t28.5 18t32.5 7q35 0 57.5 -23t17.5 -59zM255 862h340l-13 -96h-340z" />
    <glyph glyph-name="uni0232" unicode="&#x232;" horiz-adv-x="648" 
d="M273 708l113 -265l196 265h185l-323 -406l-42 -302h-156l42 302l-209 406h194zM322 854h340l-13 -96h-340z" />
    <glyph glyph-name="uni0233" unicode="&#x233;" horiz-adv-x="556" 
d="M321 -79q-20 -39 -38 -69t-42.5 -50.5t-59 -31t-88.5 -10.5q-58 0 -109 18l37 123q31 -15 67 -15q25 0 42 5.5t29 16t21 25.5t20 35l15 28l-144 490h162l80 -321h2l152 321h154zM204 633h340l-13 -96h-340z" />
    <glyph glyph-name="uni0237" unicode="&#x237;" horiz-adv-x="260" 
d="M140 -185q-25 -26 -61 -40.5t-87 -14.5q-17 0 -34.5 1.5t-34.5 6.5l27 133q16 -9 37 -9q19 0 31 10t19 25t10.5 32t5.5 31l70 496h150l-74 -522q-6 -47 -20.5 -84.5t-38.5 -64.5z" />
    <glyph glyph-name="uni02BB" unicode="&#x2bb;" horiz-adv-x="296" 
d="M228 708h128l-114 -282h-144z" />
    <glyph glyph-name="uni02BC" unicode="&#x2bc;" horiz-adv-x="296" 
d="M212 708h144l-130 -282h-128z" />
    <glyph glyph-name="uni02C6" unicode="&#x2c6;" horiz-adv-x="260" 
d="M218 642l-73 -78h-135l139 144h163l96 -144h-138z" />
    <glyph glyph-name="uni02C7" unicode="&#x2c7;" horiz-adv-x="260" 
d="M122 564l-96 144h138l52 -78l73 78h135l-139 -144h-163z" />
    <glyph glyph-name="uni02C9" unicode="&#x2c9;" horiz-adv-x="260" 
d="M56 687h340l-13 -96h-340z" />
    <glyph glyph-name="uni02D8" unicode="&#x2d8;" horiz-adv-x="260" 
d="M384 643q-20 -28 -47 -45.5t-59.5 -25.5t-68.5 -8t-67 7.5t-54 25t-34.5 45t-8.5 66.5h80q1 -15 10.5 -24t23 -14.5t30 -7.5t33.5 -2q39 0 67.5 7.5t44.5 40.5h79q-9 -38 -29 -65z" />
    <glyph glyph-name="uni02D9" unicode="&#x2d9;" horiz-adv-x="260" 
d="M304 644q-5 -36 -32.5 -61t-64.5 -25q-35 0 -55.5 25.5t-15.5 60.5q2 16 10.5 31t21.5 26t28.5 18t32.5 7q35 0 57.5 -23t17.5 -59z" />
    <glyph glyph-name="uni02DA" unicode="&#x2da;" horiz-adv-x="260" 
d="M251 554q-22 -9 -45 -9t-42 9t-32 24t-18.5 35t-2.5 43t14.5 43t28.5 35t38.5 24t44.5 9t42 -9t32 -24t19 -35t3 -43t-15 -43t-29 -35t-38 -24zM273 656q3 21 -10 36t-34 15t-38 -15t-20 -36t10 -36t34 -15t38 15t20 36z" />
    <glyph glyph-name="uni02DB" unicode="&#x2db;" horiz-adv-x="260" 
d="M122 -229q-28 -11 -60 -11q-21 0 -38.5 6t-30.5 18t-19 29.5t-3 39.5t16 44.5t31.5 44t39.5 39.5t39 31h68q-14 -11 -30.5 -26.5t-31.5 -34t-26 -37.5t-14 -36q-2 -17 8 -31.5t28 -14.5q14 0 29.5 7t27.5 16l21 -53q-28 -19 -55 -31z" />
    <glyph glyph-name="uni02DC" unicode="&#x2dc;" horiz-adv-x="260" 
d="M327 683q11 10 20 25h78q-9 -29 -21.5 -54t-30.5 -43.5t-42 -29.5t-55 -11q-22 0 -40.5 6.5t-34.5 14.5q-17 8 -31 14.5t-29 6.5q-17 0 -29.5 -14t-18.5 -28h-79q7 25 20.5 50t32 44.5t42 31.5t51.5 12q25 0 44.5 -6t39.5 -15l26 -10q13 -5 28 -5q17 0 29 11z" />
    <glyph glyph-name="uni02DD" unicode="&#x2dd;" horiz-adv-x="260" 
d="M362 708h204l-193 -144h-132zM98 708h204l-193 -144h-131z" />
    <glyph glyph-name="uni02EE" unicode="&#x2ee;" horiz-adv-x="520" 
d="M431 708h144l-130 -282h-128zM361 708l-130 -282h-128l114 282h144z" />
    <glyph glyph-name="uni0300" unicode="&#x300;" horiz-adv-x="0" 
d="M25 564h-132l-153 144h204z" />
    <glyph glyph-name="uni0301" unicode="&#x301;" horiz-adv-x="0" 
d="M-139 708h204l-193 -144h-132z" />
    <glyph glyph-name="uni0302" unicode="&#x302;" horiz-adv-x="0" 
d="M-52 642l-73 -78h-135l139 144h163l96 -144h-138z" />
    <glyph glyph-name="uni0303" unicode="&#x303;" horiz-adv-x="0" 
d="M53 683q11 10 20 25h78q-9 -29 -21.5 -54t-30.5 -43.5t-42 -29.5t-55 -11q-22 0 -40.5 6.5t-34.5 14.5q-17 8 -31 14.5t-29 6.5q-17 0 -29.5 -14t-18.5 -28h-79q7 25 20.5 50t32 44.5t42 31.5t51.5 12q25 0 44.5 -6t39.5 -15l26 -10q13 -5 28 -5q17 0 29 11z" />
    <glyph glyph-name="uni0304" unicode="&#x304;" horiz-adv-x="0" 
d="M-247 687h340l-13 -96h-340z" />
    <glyph glyph-name="uni0306" unicode="&#x306;" horiz-adv-x="0" 
d="M82 643q-20 -28 -47 -45.5t-59.5 -25.5t-68.5 -8t-67 7.5t-54 25t-34.5 45t-8.5 66.5h80q1 -15 10.5 -24t23 -14.5t30 -7.5t33.5 -2q39 0 67.5 7.5t44.5 40.5h79q-9 -38 -29 -65z" />
    <glyph glyph-name="uni0307" unicode="&#x307;" horiz-adv-x="0" 
d="M-87 644q-5 -36 -32.5 -61t-64.5 -25q-35 0 -55.5 25.5t-15.5 60.5q2 16 10.5 31t21.5 26t28.5 18t32.5 7q35 0 57.5 -23t17.5 -59z" />
    <glyph glyph-name="uni0308" unicode="&#x308;" horiz-adv-x="0" 
d="M-255 644q2 16 10.5 31t21.5 26t28.5 18t32.5 7q35 0 57.5 -23t17.5 -59t-32.5 -61t-64.5 -25q-35 0 -55.5 25.5t-15.5 60.5zM24 558q-35 0 -55.5 25.5t-15.5 60.5q2 16 10.5 31t21.5 26t28.5 18t32.5 7q35 0 57.5 -23t17.5 -59t-32.5 -61t-64.5 -25z" />
    <glyph glyph-name="uni0309" unicode="&#x309;" horiz-adv-x="0" 
d="M-259 560q-6 -8 -8 -15l-3 -12h-90l4 18q3 13 9.5 21.5t19.5 16.5q18 11 34 19t28 16t19 14t9 14q2 13 -9 21t-29 8q-29 0 -45.5 -11.5t-21.5 -26.5l-92 5q16 44 61 67t108 23q28 0 51.5 -5.5t39.5 -16t24 -25.5t3 -35q-1 -12 -7 -22t-16.5 -19.5t-27 -19t-39.5 -21.5
q-16 -7 -22 -14z" />
    <glyph glyph-name="uni030A" unicode="&#x30a;" horiz-adv-x="0" 
d="M-118 554q-21 -9 -44 -9t-42 9t-32 24t-18.5 35t-2.5 43t14.5 43t28.5 35t38.5 24t44.5 9t42 -9t32 -24t19 -35t3 -43t-15 -43t-29 -35t-39 -24zM-95 656q3 21 -10 36t-34 15t-38 -15t-20 -36t10 -36t34 -15t38 15t20 36z" />
    <glyph glyph-name="uni030B" unicode="&#x30b;" horiz-adv-x="0" 
d="M124 708h204l-193 -144h-132zM-140 708h204l-193 -144h-131z" />
    <glyph glyph-name="uni030C" unicode="&#x30c;" horiz-adv-x="0" 
d="M-164 564l-96 144h138l52 -78l73 78h135l-139 -144h-163z" />
    <glyph glyph-name="uni030F" unicode="&#x30f;" horiz-adv-x="0" 
d="M-108 735l77 -142h-126l-144 142h193zM-327 732l76 -142h-124l-146 142h194z" />
    <glyph glyph-name="uni0311" unicode="&#x311;" horiz-adv-x="0" 
d="M-29 643q-20 -28 -47 -45.5t-59.5 -25.5t-68.5 -8t-67 7.5t-54 25t-34.5 45t-8.5 66.5h80q1 -15 10.5 -24t23 -14.5t30 -7.5t33.5 -2q39 0 67.5 7.5t44.5 40.5h79q-9 -38 -29 -65z" />
    <glyph glyph-name="uni031B" unicode="&#x31b;" horiz-adv-x="0" 
d="M-188 718h137l-123 -219h-122z" />
    <glyph glyph-name="uni0323" unicode="&#x323;" horiz-adv-x="0" 
d="M-122 -198q-9 -17 -23.5 -29.5t-32 -19.5t-36.5 -7t-35 7t-26.5 19.5t-15.5 29.5t-2 36t12.5 36t23.5 29.5t32 19.5t37 7q38 0 61 -27t18 -65q-3 -19 -13 -36z" />
    <glyph glyph-name="uni0324" unicode="&#x324;" horiz-adv-x="0" 
d="M24 -238q-35 0 -55.5 25.5t-15.5 60.5q2 16 10.5 31t21.5 26t28.5 18t32.5 7q35 0 57.5 -23t17.5 -59t-32.5 -61t-64.5 -25zM-255 -152q2 16 10.5 31t21.5 26t28.5 18t32.5 7q35 0 57.5 -23t17.5 -59t-32.5 -61t-64.5 -25q-35 0 -55.5 25.5t-15.5 60.5z" />
    <glyph glyph-name="uni0325" unicode="&#x325;" horiz-adv-x="0" 
d="M-118 -283q-21 -9 -44 -9t-42 9t-32 24t-18.5 35t-2.5 43t14.5 43t28.5 35t38.5 24t44.5 9t42 -9t32 -24t19 -35t3 -43t-15 -43t-29 -35t-39 -24zM-95 -181q3 21 -10 36t-34 15t-38 -15t-20 -36t10 -36t34 -15t38 15t20 36z" />
    <glyph glyph-name="uni0326" unicode="&#x326;" horiz-adv-x="0" 
d="M-186 -70h140l-126 -239h-124z" />
    <glyph glyph-name="uni0327" unicode="&#x327;" horiz-adv-x="0" 
d="M-99 -122q-16 8 -31 8q-10 0 -18.5 -2t-18.5 -6l-28 29l76 93h67l-50 -60q22 0 44 -2.5t39 -11t26 -25t5 -44.5q-4 -27 -21 -46t-39.5 -30t-47.5 -16t-44 -5q-30 0 -62.5 8.5t-57.5 21.5l32 47q11 -5 29 -11t44 -6q23 0 45.5 6t25.5 26q2 18 -15 26z" />
    <glyph glyph-name="uni0328" unicode="&#x328;" horiz-adv-x="0" 
d="M-107 -229q-27 -11 -59 -11q-21 0 -38.5 6t-30.5 18t-19 29.5t-3 39.5t16 44.5t31.5 44t39.5 39.5t39 31h68q-14 -11 -30.5 -26.5t-31.5 -34t-26 -37.5t-14 -36q-2 -17 8 -31.5t28 -14.5q14 0 29.5 7t27.5 16l21 -53q-28 -19 -56 -31z" />
    <glyph glyph-name="uni032D" unicode="&#x32d;" horiz-adv-x="0" 
d="M-52 -136l-73 -78h-135l139 144h163l96 -144h-138z" />
    <glyph glyph-name="uni032E" unicode="&#x32e;" horiz-adv-x="0" 
d="M82 -136q-20 -27 -47 -44.5t-59.5 -25.5t-68.5 -8t-67 7.5t-54 25t-34.5 45t-8.5 66.5h80q1 -15 10.5 -24t23 -14.5t30 -7.5t33.5 -2q39 0 67.5 7.5t44.5 40.5h79q-9 -38 -29 -66z" />
    <glyph glyph-name="uni0330" unicode="&#x330;" horiz-adv-x="0" 
d="M53 -96q11 11 20 26h78q-9 -29 -21.5 -54t-30.5 -43.5t-42 -29.5t-55 -11q-22 0 -40.5 6.5t-34.5 14.5q-17 8 -31 14.5t-29 6.5q-17 0 -29.5 -14t-18.5 -28h-79q7 25 20.5 50t32 44.5t42 31.5t51.5 12q25 0 44.5 -6t39.5 -15l26 -10q13 -5 28 -5q17 0 29 10z" />
    <glyph glyph-name="uni0331" unicode="&#x331;" horiz-adv-x="0" 
d="M-247 -70h340l-13 -96h-340z" />
    <glyph glyph-name="uni0340" unicode="&#x340;" horiz-adv-x="0" 
d="M25 564h-132l-153 144h204z" />
    <glyph glyph-name="uni0341" unicode="&#x341;" horiz-adv-x="0" 
d="M-139 708h204l-193 -144h-132z" />
    <glyph glyph-name="uni0344" unicode="&#x344;" horiz-adv-x="0" 
d="M-255 644q2 16 10.5 31t21.5 26t28.5 18t32.5 7q35 0 57.5 -23t17.5 -59t-32.5 -61t-64.5 -25q-35 0 -55.5 25.5t-15.5 60.5zM24 558q-35 0 -55.5 25.5t-15.5 60.5q2 16 10.5 31t21.5 26t28.5 18t32.5 7q35 0 57.5 -23t17.5 -59t-32.5 -61t-64.5 -25zM-81 920h204
l-193 -144h-132z" />
    <glyph glyph-name="uni037E" unicode="&#x37e;" horiz-adv-x="296" 
d="M257 162l-129 -282h-128l113 282h144zM261 341q-15 -13 -32.5 -20t-36.5 -7t-35 7t-26.5 19.5t-15.5 29.5t-2 36t12 36t23.5 29.5t32 19.5t36.5 7t35 -7t27 -19.5t16 -29.5t2 -36t-12.5 -36t-23.5 -29z" />
    <glyph glyph-name="uni0385" unicode="&#x385;" horiz-adv-x="260" 
d="M311 558q-35 0 -55.5 25.5t-15.5 60.5q2 16 10.5 31t21.5 26t28.5 18t32.5 7q35 0 57.5 -23t17.5 -59t-32.5 -61t-64.5 -25zM32 644q2 16 10.5 31t21.5 26t28.5 18t32.5 7q35 0 57.5 -23t17.5 -59t-32.5 -61t-64.5 -25q-35 0 -55.5 25.5t-15.5 60.5zM206 920h204
l-193 -144h-132z" />
    <glyph glyph-name="uni0387" unicode="&#x387;" horiz-adv-x="296" 
d="M267 247q-10 -17 -24 -29.5t-32 -19.5t-37 -7q-38 0 -61 27t-18 65q3 19 12.5 36t23.5 29.5t32 19.5t37 7q38 0 61 -27t18 -65q-3 -19 -12 -36z" />
    <glyph glyph-name="uni0394" unicode="&#x394;" horiz-adv-x="693" 
d="M676 79l-11 -79h-638l10 78l331 643h165zM367 460q-11 -23 -20 -43l-162 -308h345l-71 293q-3 19 -8 44l-10 49q-5 24 -9 46.5t-6 38.5h-3q-5 -13 -14 -32.5t-20 -42t-22 -45.5z" />
    <glyph glyph-name="uni03A9" unicode="&#x3a9;" horiz-adv-x="751" 
d="M125 225q-13 35 -18 77t2 90q9 66 40.5 125t80 103t112 70t136.5 26q77 0 132.5 -28.5t89.5 -74t46.5 -102t4.5 -113.5q-7 -48 -24 -91t-40 -79.5t-51 -65.5t-56 -50v-3h145l-15 -109h-283l11 81q27 16 54 41t49.5 60t40 81.5t25.5 105.5q7 46 1.5 89t-23.5 75.5t-49 52
t-74 19.5q-41 0 -77.5 -18t-65 -50.5t-48 -76.5t-26.5 -96q-8 -54 -4 -99.5t17 -81.5t32.5 -61.5t43.5 -40.5l-11 -81h-284l15 109h143v3q-21 21 -40 49t-32 64z" />
    <glyph glyph-name="uni03BC" unicode="&#x3bc;" 
d="M396 198q6 22 9 46l34 242h150l-68 -486h-144l9 66h-2q-10 -14 -24.5 -28t-34 -25t-43.5 -18t-51 -7q-17 0 -30 3l-31 -219h-150l101 714h150l-34 -238q-3 -21 -5 -43.5t3 -41.5t19 -31t43 -12t48.5 10.5t31.5 28t19 39.5z" />
    <glyph glyph-name="uni03C0" unicode="&#x3c0;" horiz-adv-x="637" 
d="M411 55q1 38 9 92l38 269h-142q-8 -41 -21 -97t-30 -114.5t-36 -112.5t-37 -92h-134q19 43 38 98t35.5 112t29 111t19.5 95q-37 0 -61.5 -2.5t-42.5 -7.5l-3 89q23 16 66.5 25.5t112.5 9.5h444l-26 -114h-74l-37 -262q-8 -57 -9 -93.5t2 -60.5h-134q-8 16 -7 55z" />
    <glyph glyph-name="uni04C0" unicode="&#x4c0;" horiz-adv-x="296" 
d="M169 708h156l-99 -708h-156z" />
    <glyph glyph-name="uni04D4" unicode="&#x4d4;" horiz-adv-x="1037" 
d="M750 432h258l-20 -144h-258l-20 -144h294l-20 -144h-450l21 150h-263l-116 -150h-191l548 708h538l-20 -144h-282zM596 564l-219 -282h196l40 282h-17z" />
    <glyph glyph-name="uni04D5" unicode="&#x4d5;" horiz-adv-x="852" 
d="M178 277q48 15 100.5 18t93.5 3h18q7 44 -12.5 71t-60.5 27q-37 0 -69.5 -15.5t-60.5 -42.5l-68 82q47 39 105.5 58.5t118.5 19.5q43 0 83 -14t67 -45q35 29 79 44t92 15q52 0 92 -18t65 -51.5t34.5 -80.5t1.5 -105l-7 -47h-348q3 -43 29.5 -68.5t70.5 -25.5
q37 0 64.5 16.5t50.5 42.5l94 -77q-42 -46 -100.5 -71t-117.5 -25q-60 0 -109 17t-74 62q-38 -44 -92 -61.5t-118 -17.5q-34 0 -64 9.5t-51.5 28.5t-31.5 47t-5 65q8 58 44.5 90.5t85.5 48.5zM196 113q6 -10 16.5 -15t24 -6.5t25.5 -1.5q54 0 80.5 29t33.5 77h-18
q-17 0 -44 -1t-53 -6t-46 -17t-23 -33q-2 -17 4 -26zM555 362q-15 -13 -25 -29.5t-14 -34.5h198q6 38 -16 65t-63 27q-25 0 -45 -8t-35 -20z" />
    <glyph glyph-name="uni1E00" unicode="&#x1e00;" horiz-adv-x="741" 
d="M251 150l-80 -150h-172l405 708h129l209 -708h-176l-40 150h-275zM435 502l-117 -220h173zM328 -262q-22 -9 -45 -9t-42 9t-32 24t-18.5 35t-2.5 43t14.5 43t28.5 35t38.5 24t44.5 9t42 -9t32 -24t19 -35t3 -43t-15 -43t-29 -35t-38 -24zM350 -160q3 21 -10 36t-34 15
t-38 -15t-20 -36t10 -36t34 -15t38 15t20 36z" />
    <glyph glyph-name="uni1E01" unicode="&#x1e01;" horiz-adv-x="537" 
d="M187 287q52 16 109.5 19t104.5 3q5 40 -20 63.5t-64 23.5q-37 0 -69.5 -15.5t-60.5 -42.5l-68 82q47 39 105.5 58.5t118.5 19.5q66 0 106.5 -16.5t61.5 -48.5t24.5 -78.5t-5.5 -107.5l-34 -247h-138l8 61h-2q-30 -39 -74 -56t-90 -17q-34 0 -64 9.5t-51.5 28.5t-31.5 47
t-5 65q9 63 47.5 97.5t91.5 51.5zM196 120q5 -10 14 -17t21.5 -10t24.5 -3q22 0 43.5 6t39 17t29.5 28t15 40l4 32h-37q-17 0 -42.5 -1.5t-50 -8.5t-43 -21t-21.5 -39q-2 -14 3 -23zM262 -274q-22 -9 -45 -9t-42 9t-32 24t-18.5 35t-2.5 43t14.5 43t28.5 35t38.5 24t44.5 9
t42 -9t32 -24t19 -35t3 -43t-15 -43t-29 -35t-38 -24zM284 -172q3 21 -10 36t-34 15t-38 -15t-20 -36t10 -36t34 -15t38 15t20 36z" />
    <glyph glyph-name="uni1E02" unicode="&#x1e02;" horiz-adv-x="648" 
d="M72 0l99 708h264q46 0 91.5 -6.5t80 -26t52.5 -54.5t10 -93q-8 -60 -47.5 -99.5t-96.5 -56.5v-2q34 -5 60.5 -19.5t43.5 -37t24 -52.5t2 -64q-8 -56 -37 -93.5t-70 -60.5t-90 -33t-96 -10h-290zM386 132q18 0 37.5 4t35.5 14t28 26t15 39q3 25 -7 40.5t-28 23.5t-39.5 11
t-40.5 3h-118l-23 -161h140zM400 425q18 0 36 4t33.5 13t26 24t13.5 36q3 22 -4.5 36.5t-21.5 22.5t-32.5 11.5t-36.5 3.5h-106l-21 -151h113zM527 844q-5 -36 -32.5 -61t-64.5 -25q-35 0 -55.5 25.5t-15.5 60.5q2 16 10.5 31t21.5 26t28.5 18t32.5 7q35 0 57.5 -23
t17.5 -59z" />
    <glyph glyph-name="uni1E03" unicode="&#x1e03;" horiz-adv-x="630" 
d="M532 477q38 -22 62 -58t32.5 -82.5t1.5 -97.5q-8 -55 -31.5 -101t-59.5 -79.5t-82.5 -52t-100.5 -18.5q-26 0 -48 7t-40 18t-31 24.5t-20 26.5h-2l-8 -64h-138l106 756h150l-46 -322h2q31 35 73.5 49.5t89.5 14.5q52 0 90 -21zM479 243q8 55 -19 89t-84 34t-93 -34
t-44 -89t18.5 -89t83.5 -34t93.5 34t44.5 89zM506 892q-5 -36 -32.5 -61t-64.5 -25q-35 0 -55.5 25.5t-15.5 60.5q2 16 10.5 31t21.5 26t28.5 18t32.5 7q35 0 57.5 -23t17.5 -59z" />
    <glyph glyph-name="uni1E04" unicode="&#x1e04;" horiz-adv-x="648" 
d="M72 0l99 708h264q46 0 91.5 -6.5t80 -26t52.5 -54.5t10 -93q-8 -60 -47.5 -99.5t-96.5 -56.5v-2q34 -5 60.5 -19.5t43.5 -37t24 -52.5t2 -64q-8 -56 -37 -93.5t-70 -60.5t-90 -33t-96 -10h-290zM386 132q18 0 37.5 4t35.5 14t28 26t15 39q3 25 -7 40.5t-28 23.5t-39.5 11
t-40.5 3h-118l-23 -161h140zM400 425q18 0 36 4t33.5 13t26 24t13.5 36q3 22 -4.5 36.5t-21.5 22.5t-32.5 11.5t-36.5 3.5h-106l-21 -151h113zM390 -131q-5 -36 -32.5 -61t-64.5 -25q-35 0 -55.5 25.5t-15.5 60.5q2 16 10.5 31t21.5 26t28.5 18t32.5 7q35 0 57.5 -23
t17.5 -59z" />
    <glyph glyph-name="uni1E05" unicode="&#x1e05;" horiz-adv-x="630" 
d="M532 477q38 -22 62 -58t32.5 -82.5t1.5 -97.5q-8 -55 -31.5 -101t-59.5 -79.5t-82.5 -52t-100.5 -18.5q-26 0 -48 7t-40 18t-31 24.5t-20 26.5h-2l-8 -64h-138l106 756h150l-46 -322h2q31 35 73.5 49.5t89.5 14.5q52 0 90 -21zM479 243q8 55 -19 89t-84 34t-93 -34
t-44 -89t18.5 -89t83.5 -34t93.5 34t44.5 89zM362 -143q-5 -36 -32.5 -61t-64.5 -25q-35 0 -55.5 25.5t-15.5 60.5q2 16 10.5 31t21.5 26t28.5 18t32.5 7q35 0 57.5 -23t17.5 -59z" />
    <glyph glyph-name="uni1E06" unicode="&#x1e06;" horiz-adv-x="648" 
d="M72 0l99 708h264q46 0 91.5 -6.5t80 -26t52.5 -54.5t10 -93q-8 -60 -47.5 -99.5t-96.5 -56.5v-2q34 -5 60.5 -19.5t43.5 -37t24 -52.5t2 -64q-8 -56 -37 -93.5t-70 -60.5t-90 -33t-96 -10h-290zM386 132q18 0 37.5 4t35.5 14t28 26t15 39q3 25 -7 40.5t-28 23.5t-39.5 11
t-40.5 3h-118l-23 -161h140zM400 425q18 0 36 4t33.5 13t26 24t13.5 36q3 22 -4.5 36.5t-21.5 22.5t-32.5 11.5t-36.5 3.5h-106l-21 -151h113zM148 -49h340l-13 -96h-340z" />
    <glyph glyph-name="uni1E07" unicode="&#x1e07;" horiz-adv-x="630" 
d="M532 477q38 -22 62 -58t32.5 -82.5t1.5 -97.5q-8 -55 -31.5 -101t-59.5 -79.5t-82.5 -52t-100.5 -18.5q-26 0 -48 7t-40 18t-31 24.5t-20 26.5h-2l-8 -64h-138l106 756h150l-46 -322h2q31 35 73.5 49.5t89.5 14.5q52 0 90 -21zM479 243q8 55 -19 89t-84 34t-93 -34
t-44 -89t18.5 -89t83.5 -34t93.5 34t44.5 89zM119 -61h340l-13 -96h-340z" />
    <glyph glyph-name="uni1E08" unicode="&#x1e08;" horiz-adv-x="685" 
d="M230 626q57 48 131 74t157 26q30 0 61.5 -5.5t61.5 -17.5t56.5 -32t44.5 -49l-134 -98q-20 28 -51 43t-75 15t-84 -17t-71.5 -47.5t-53 -72.5t-28.5 -91q-7 -50 2.5 -91.5t32 -72t57 -47.5t76.5 -17q48 0 88 20t69 56l116 -97q-54 -63 -127 -93t-146 -30h-9q-5 0 -10 1
l-35 -43q22 0 44 -2.5t39 -11t26 -25t5 -44.5q-4 -27 -21 -46t-39.5 -30t-47.5 -16t-44 -5q-30 0 -63 8.5t-58 21.5l32 47q11 -5 29.5 -11t44.5 -6q23 0 45.5 6t25.5 26q2 18 -14.5 26t-31.5 8q-10 0 -18.5 -2t-18.5 -6l-28 29l66 82q-65 12 -116 42.5t-84 77.5t-46.5 109
t-2.5 136q12 85 50.5 154t96.5 118zM449 920h204l-193 -144h-132z" />
    <glyph glyph-name="uni1E09" unicode="&#x1e09;" horiz-adv-x="482" 
d="M266 332q-36 -34 -44 -89t18.5 -89t83.5 -34q25 0 45 11t35 26l84 -104q-41 -36 -90 -50.5t-92 -14.5q-7 0 -9 1l-40 -49q22 0 44 -2.5t39 -11t26 -25t5 -44.5q-4 -27 -21 -46t-39.5 -30t-47.5 -16t-44 -5q-30 0 -63 8.5t-58 21.5l32 47q11 -5 29.5 -11t44.5 -6
q23 0 45.5 6t25.5 26q2 18 -14.5 26t-31.5 8q-10 0 -18.5 -2t-18.5 -6l-28 29l73 90q-42 9 -75.5 30.5t-56 53t-31.5 72.5t-2 90q8 58 35.5 105t68.5 80.5t93 51.5t108 18q43 0 88.5 -14.5t75.5 -50.5l-113 -104q-9 16 -27.5 26.5t-41.5 10.5q-57 0 -93 -34zM331 693h204
l-193 -144h-132z" />
    <glyph glyph-name="uni1E0A" unicode="&#x1e0a;" horiz-adv-x="759" 
d="M618 91q-61 -45 -136.5 -68t-154.5 -23h-255l99 708h234q85 0 158.5 -19t125 -61.5t75 -110.5t10.5 -165q-12 -86 -53.5 -151.5t-102.5 -109.5zM613 360q7 52 -6.5 90.5t-43.5 63.5t-72.5 37.5t-91.5 12.5h-92l-59 -420h81q54 0 102 11t85.5 36.5t62.5 67t34 101.5z
M582 844q-5 -36 -32.5 -61t-64.5 -25q-35 0 -55.5 25.5t-15.5 60.5q2 16 10.5 31t21.5 26t28.5 18t32.5 7q35 0 57.5 -23t17.5 -59z" />
    <glyph glyph-name="uni1E0B" unicode="&#x1e0b;" horiz-adv-x="630" 
d="M431 64q-10 -13 -26.5 -26.5t-37.5 -24.5t-45.5 -18t-49.5 -7q-54 0 -95.5 18.5t-68.5 52t-37.5 79.5t-2.5 101q7 51 29 97.5t55.5 82.5t77.5 57.5t96 21.5q47 0 86 -14.5t59 -49.5h2l46 322h150l-106 -756h-138l8 64h-2zM459 243q8 55 -19 89t-84 34t-93 -34t-44 -89
t18.5 -89t83.5 -34t93.5 34t44.5 89zM520 892q-5 -36 -32.5 -61t-64.5 -25q-35 0 -55.5 25.5t-15.5 60.5q2 16 10.5 31t21.5 26t28.5 18t32.5 7q35 0 57.5 -23t17.5 -59z" />
    <glyph glyph-name="uni1E0C" unicode="&#x1e0c;" horiz-adv-x="759" 
d="M618 91q-61 -45 -136.5 -68t-154.5 -23h-255l99 708h234q85 0 158.5 -19t125 -61.5t75 -110.5t10.5 -165q-12 -86 -53.5 -151.5t-102.5 -109.5zM613 360q7 52 -6.5 90.5t-43.5 63.5t-72.5 37.5t-91.5 12.5h-92l-59 -420h81q54 0 102 11t85.5 36.5t62.5 67t34 101.5z
M445 -131q-5 -36 -32.5 -61t-64.5 -25q-35 0 -55.5 25.5t-15.5 60.5q2 16 10.5 31t21.5 26t28.5 18t32.5 7q35 0 57.5 -23t17.5 -59z" />
    <glyph glyph-name="uni1E0D" unicode="&#x1e0d;" horiz-adv-x="630" 
d="M431 64q-10 -13 -26.5 -26.5t-37.5 -24.5t-45.5 -18t-49.5 -7q-54 0 -95.5 18.5t-68.5 52t-37.5 79.5t-2.5 101q7 51 29 97.5t55.5 82.5t77.5 57.5t96 21.5q47 0 86 -14.5t59 -49.5h2l46 322h150l-106 -756h-138l8 64h-2zM459 243q8 55 -19 89t-84 34t-93 -34t-44 -89
t18.5 -89t83.5 -34t93.5 34t44.5 89zM376 -143q-5 -36 -32.5 -61t-64.5 -25q-35 0 -55.5 25.5t-15.5 60.5q2 16 10.5 31t21.5 26t28.5 18t32.5 7q35 0 57.5 -23t17.5 -59z" />
    <glyph glyph-name="uni1E0E" unicode="&#x1e0e;" horiz-adv-x="759" 
d="M618 91q-61 -45 -136.5 -68t-154.5 -23h-255l99 708h234q85 0 158.5 -19t125 -61.5t75 -110.5t10.5 -165q-12 -86 -53.5 -151.5t-102.5 -109.5zM613 360q7 52 -6.5 90.5t-43.5 63.5t-72.5 37.5t-91.5 12.5h-92l-59 -420h81q54 0 102 11t85.5 36.5t62.5 67t34 101.5z
M203 -49h340l-13 -96h-340z" />
    <glyph glyph-name="uni1E0F" unicode="&#x1e0f;" horiz-adv-x="630" 
d="M431 64q-10 -13 -26.5 -26.5t-37.5 -24.5t-45.5 -18t-49.5 -7q-54 0 -95.5 18.5t-68.5 52t-37.5 79.5t-2.5 101q7 51 29 97.5t55.5 82.5t77.5 57.5t96 21.5q47 0 86 -14.5t59 -49.5h2l46 322h150l-106 -756h-138l8 64h-2zM459 243q8 55 -19 89t-84 34t-93 -34t-44 -89
t18.5 -89t83.5 -34t93.5 34t44.5 89zM133 -61h340l-13 -96h-340z" />
    <glyph glyph-name="uni1E10" unicode="&#x1e10;" horiz-adv-x="759" 
d="M618 91q-61 -45 -136.5 -68t-154.5 -23h-255l99 708h234q85 0 158.5 -19t125 -61.5t75 -110.5t10.5 -165q-12 -86 -53.5 -151.5t-102.5 -109.5zM613 360q7 52 -6.5 90.5t-43.5 63.5t-72.5 37.5t-91.5 12.5h-92l-59 -420h81q54 0 102 11t85.5 36.5t62.5 67t34 101.5z
M334 -50h140l-126 -239h-124z" />
    <glyph glyph-name="uni1E11" unicode="&#x1e11;" horiz-adv-x="630" 
d="M431 64q-10 -13 -26.5 -26.5t-37.5 -24.5t-45.5 -18t-49.5 -7q-54 0 -95.5 18.5t-68.5 52t-37.5 79.5t-2.5 101q7 51 29 97.5t55.5 82.5t77.5 57.5t96 21.5q47 0 86 -14.5t59 -49.5h2l46 322h150l-106 -756h-138l8 64h-2zM459 243q8 55 -19 89t-84 34t-93 -34t-44 -89
t18.5 -89t83.5 -34t93.5 34t44.5 89zM265 -62h140l-126 -239h-124z" />
    <glyph glyph-name="uni1E12" unicode="&#x1e12;" horiz-adv-x="759" 
d="M618 91q-61 -45 -136.5 -68t-154.5 -23h-255l99 708h234q85 0 158.5 -19t125 -61.5t75 -110.5t10.5 -165q-12 -86 -53.5 -151.5t-102.5 -109.5zM613 360q7 52 -6.5 90.5t-43.5 63.5t-72.5 37.5t-91.5 12.5h-92l-59 -420h81q54 0 102 11t85.5 36.5t62.5 67t34 101.5z
M372 -115l-73 -78h-135l139 144h163l96 -144h-138z" />
    <glyph glyph-name="uni1E13" unicode="&#x1e13;" horiz-adv-x="630" 
d="M431 64q-10 -13 -26.5 -26.5t-37.5 -24.5t-45.5 -18t-49.5 -7q-54 0 -95.5 18.5t-68.5 52t-37.5 79.5t-2.5 101q7 51 29 97.5t55.5 82.5t77.5 57.5t96 21.5q47 0 86 -14.5t59 -49.5h2l46 322h150l-106 -756h-138l8 64h-2zM459 243q8 55 -19 89t-84 34t-93 -34t-44 -89
t18.5 -89t83.5 -34t93.5 34t44.5 89zM302 -127l-73 -78h-135l139 144h163l96 -144h-138z" />
    <glyph glyph-name="uni1E14" unicode="&#x1e14;" horiz-adv-x="630" 
d="M313 564l-19 -132h307l-20 -144h-307l-20 -144h343l-20 -144h-499l99 708h481l-20 -144h-325zM267 854h340l-13 -96h-340zM596 904h-132l-153 144h204z" />
    <glyph glyph-name="uni1E15" unicode="&#x1e15;" 
d="M524 84q-42 -46 -100.5 -71t-117.5 -25q-56 0 -103 18t-78.5 51.5t-46 80.5t-6.5 105t35.5 105t68.5 80.5t93 51.5t108 18q52 0 92 -18t65 -51.5t34.5 -80.5t1.5 -105l-7 -47h-348q3 -43 29.5 -68.5t70.5 -25.5q37 0 64.5 16.5t50.5 42.5zM411 363q-22 27 -63 27
q-25 0 -45 -8t-35 -20.5t-25 -29t-14 -34.5h198q6 38 -16 65zM207 645h340l-13 -96h-340zM537 694h-132l-153 144h204z" />
    <glyph glyph-name="uni1E16" unicode="&#x1e16;" horiz-adv-x="630" 
d="M313 564l-19 -132h307l-20 -144h-307l-20 -144h343l-20 -144h-499l99 708h481l-20 -144h-325zM267 854h340l-13 -96h-340zM412 1048h204l-193 -144h-132z" />
    <glyph glyph-name="uni1E17" unicode="&#x1e17;" 
d="M524 84q-42 -46 -100.5 -71t-117.5 -25q-56 0 -103 18t-78.5 51.5t-46 80.5t-6.5 105t35.5 105t68.5 80.5t93 51.5t108 18q52 0 92 -18t65 -51.5t34.5 -80.5t1.5 -105l-7 -47h-348q3 -43 29.5 -68.5t70.5 -25.5q37 0 64.5 16.5t50.5 42.5zM411 363q-22 27 -63 27
q-25 0 -45 -8t-35 -20.5t-25 -29t-14 -34.5h198q6 38 -16 65zM207 645h340l-13 -96h-340zM353 838h204l-193 -144h-132z" />
    <glyph glyph-name="uni1E18" unicode="&#x1e18;" horiz-adv-x="630" 
d="M313 564l-19 -132h307l-20 -144h-307l-20 -144h343l-20 -144h-499l99 708h481l-20 -144h-325zM310 -115l-73 -78h-135l139 144h163l96 -144h-138z" />
    <glyph glyph-name="uni1E19" unicode="&#x1e19;" 
d="M524 84q-42 -46 -100.5 -71t-117.5 -25q-56 0 -103 18t-78.5 51.5t-46 80.5t-6.5 105t35.5 105t68.5 80.5t93 51.5t108 18q52 0 92 -18t65 -51.5t34.5 -80.5t1.5 -105l-7 -47h-348q3 -43 29.5 -68.5t70.5 -25.5q37 0 64.5 16.5t50.5 42.5zM411 363q-22 27 -63 27
q-25 0 -45 -8t-35 -20.5t-25 -29t-14 -34.5h198q6 38 -16 65zM277 -127l-73 -78h-135l139 144h163l96 -144h-138z" />
    <glyph glyph-name="uni1E1A" unicode="&#x1e1a;" horiz-adv-x="630" 
d="M313 564l-19 -132h307l-20 -144h-307l-20 -144h343l-20 -144h-499l99 708h481l-20 -144h-325zM409 -74q11 10 20 25h78q-9 -29 -21.5 -54t-30.5 -43.5t-42 -29.5t-55 -11q-22 0 -40.5 6.5t-34.5 14.5q-17 8 -31 14.5t-29 6.5q-17 0 -29.5 -14t-18.5 -28h-79q7 25 20.5 50
t32 44.5t42 31.5t51.5 12q25 0 44.5 -6t39.5 -15l26 -10q13 -5 28 -5q17 0 29 11z" />
    <glyph glyph-name="uni1E1B" unicode="&#x1e1b;" 
d="M524 84q-42 -46 -100.5 -71t-117.5 -25q-56 0 -103 18t-78.5 51.5t-46 80.5t-6.5 105t35.5 105t68.5 80.5t93 51.5t108 18q52 0 92 -18t65 -51.5t34.5 -80.5t1.5 -105l-7 -47h-348q3 -43 29.5 -68.5t70.5 -25.5q37 0 64.5 16.5t50.5 42.5zM411 363q-22 27 -63 27
q-25 0 -45 -8t-35 -20.5t-25 -29t-14 -34.5h198q6 38 -16 65zM376 -86q11 10 20 25h78q-9 -29 -21.5 -54t-30.5 -43.5t-42 -29.5t-55 -11q-22 0 -40.5 6.5t-34.5 14.5q-17 8 -31 14.5t-29 6.5q-17 0 -29.5 -14t-18.5 -28h-79q7 25 20.5 50t32 44.5t42 31.5t51.5 12
q25 0 44.5 -6t39.5 -15l26 -10q13 -5 28 -5q17 0 29 11z" />
    <glyph glyph-name="uni1E1C" unicode="&#x1e1c;" horiz-adv-x="630" 
d="M313 564l-19 -132h307l-20 -144h-307l-20 -144h343l-20 -144h-499l99 708h481l-20 -144h-325zM591 837q-20 -28 -47 -45.5t-59.5 -25.5t-68.5 -8t-67 7.5t-54 25t-34.5 45t-8.5 66.5h80q1 -15 10.5 -24t23 -14.5t30 -7.5t33.5 -2q39 0 67.5 7.5t44.5 40.5h79
q-9 -38 -29 -65zM326 -122q-17 8 -32 8q-10 0 -18.5 -2t-18.5 -6l-28 29l76 93h67l-50 -60q22 0 44 -2.5t39 -11t26 -25t5 -44.5q-4 -27 -21 -46t-39.5 -30t-47.5 -16t-44 -5q-30 0 -62.5 8.5t-57.5 21.5l32 47q11 -5 29 -11t44 -6q23 0 45.5 6t25.5 26q2 18 -14 26z" />
    <glyph glyph-name="uni1E1D" unicode="&#x1e1d;" 
d="M524 84q-42 -46 -100.5 -71t-117.5 -25q-56 0 -103 18t-78.5 51.5t-46 80.5t-6.5 105t35.5 105t68.5 80.5t93 51.5t108 18q52 0 92 -18t65 -51.5t34.5 -80.5t1.5 -105l-7 -47h-348q3 -43 29.5 -68.5t70.5 -25.5q37 0 64.5 16.5t50.5 42.5zM411 363q-22 27 -63 27
q-25 0 -45 -8t-35 -20.5t-25 -29t-14 -34.5h198q6 38 -16 65zM531 628q-20 -28 -47 -45.5t-59.5 -25.5t-68.5 -8t-67 7.5t-54 25t-34.5 45t-8.5 66.5h80q1 -15 10.5 -24t23 -14.5t30 -7.5t33.5 -2q39 0 67.5 7.5t44.5 40.5h79q-9 -38 -29 -65zM294 -133q-17 8 -32 8
q-10 0 -18.5 -2t-18.5 -6l-28 29l76 93h67l-50 -60q22 0 44 -2.5t39 -11t26 -25t5 -44.5q-4 -27 -21 -46t-39.5 -30t-47.5 -16t-44 -5q-30 0 -62.5 8.5t-57.5 21.5l32 47q11 -5 29 -11t44 -6q23 0 45.5 6t25.5 26q2 18 -14 26z" />
    <glyph glyph-name="uni1E1E" unicode="&#x1e1e;" horiz-adv-x="593" 
d="M313 564l-20 -144h295l-21 -144h-295l-38 -276h-156l99 708h475l-20 -144h-319zM517 844q-5 -36 -32.5 -61t-64.5 -25q-35 0 -55.5 25.5t-15.5 60.5q2 16 10.5 31t21.5 26t28.5 18t32.5 7q35 0 57.5 -23t17.5 -59z" />
    <glyph glyph-name="uni1E1F" unicode="&#x1e1f;" horiz-adv-x="370" 
d="M447 766q22 -2 42 -7l-25 -127q-12 5 -22.5 7.5t-24.5 2.5q-36 0 -56 -15.5t-27 -63.5l-11 -77h111l-17 -120h-111l-51 -366h-150l51 366h-99l17 120h99l12 86q6 40 17.5 75.5t35.5 62.5t63.5 42.5t100.5 15.5q23 0 45 -2zM429 904q-5 -36 -32.5 -61t-64.5 -25
q-35 0 -55.5 25.5t-15.5 60.5q2 16 10.5 31t21.5 26t28.5 18t32.5 7q35 0 57.5 -23t17.5 -59z" />
    <glyph glyph-name="uni1E20" unicode="&#x1e20;" horiz-adv-x="778" 
d="M720 50q-75 -36 -152 -52t-155 -16q-83 0 -149.5 26t-110.5 74.5t-63 117.5t-7 154t50.5 154t96 117.5t131.5 74.5t157 26q85 0 153.5 -20.5t115.5 -70.5l-127 -120q-27 33 -65 50t-98 17q-50 0 -93 -17t-76 -47.5t-54.5 -72.5t-28.5 -91q-7 -50 3 -91.5t34.5 -72
t62.5 -47.5t88 -17q51 0 90 11.5t62 23.5l16 115h-127l21 144h277zM331 872h340l-13 -96h-340z" />
    <glyph glyph-name="uni1E21" unicode="&#x1e21;" horiz-adv-x="630" 
d="M348 9q-41 -15 -75 -15q-54 0 -95.5 18.5t-68.5 52t-37.5 79.5t-2.5 101q7 48 28.5 94t55 81t77.5 56.5t96 21.5q32 0 58 -7t45.5 -18t32.5 -24.5t20 -26.5h2l9 64h138l-63 -445q-19 -138 -98.5 -209.5t-221.5 -71.5q-65 0 -126 14.5t-108 56.5l100 124q31 -29 67 -46
t82 -17q69 0 106 33.5t45 85.5l7 47h-2q-31 -35 -71 -49zM356 366q-26 0 -49 -10t-41.5 -26.5t-31 -38t-15.5 -45.5t3 -45.5t19.5 -38t34 -26.5t46.5 -10q25 0 48.5 10t42 26.5t31 38t15.5 45.5t-3 45.5t-19.5 38t-34.5 26.5t-46 10zM224 645h340l-13 -96h-340z" />
    <glyph glyph-name="uni1E22" unicode="&#x1e22;" horiz-adv-x="759" 
d="M531 0l43 306h-303l-43 -306h-156l99 708h156l-37 -264h303l37 264h156l-99 -708h-156zM581 844q-5 -36 -32.5 -61t-64.5 -25q-35 0 -55.5 25.5t-15.5 60.5q2 16 10.5 31t21.5 26t28.5 18t32.5 7q35 0 57.5 -23t17.5 -59z" />
    <glyph glyph-name="uni1E23" unicode="&#x1e23;" 
d="M404 238q3 21 5 43.5t-3 41.5t-19 31t-43 12t-48.5 -10.5t-31.5 -28t-18 -39.5t-9 -46l-34 -242h-150l106 756h150l-47 -336h2q7 14 20.5 28t32 25t42.5 18t51 7q57 0 90 -17.5t48 -48.5t16 -73t-6 -91l-37 -268h-150zM464 892q-5 -36 -32.5 -61t-64.5 -25
q-35 0 -55.5 25.5t-15.5 60.5q2 16 10.5 31t21.5 26t28.5 18t32.5 7q35 0 57.5 -23t17.5 -59z" />
    <glyph glyph-name="uni1E24" unicode="&#x1e24;" horiz-adv-x="759" 
d="M531 0l43 306h-303l-43 -306h-156l99 708h156l-37 -264h303l37 264h156l-99 -708h-156zM444 -131q-5 -36 -32.5 -61t-64.5 -25q-35 0 -55.5 25.5t-15.5 60.5q2 16 10.5 31t21.5 26t28.5 18t32.5 7q35 0 57.5 -23t17.5 -59z" />
    <glyph glyph-name="uni1E25" unicode="&#x1e25;" 
d="M404 238q3 21 5 43.5t-3 41.5t-19 31t-43 12t-48.5 -10.5t-31.5 -28t-18 -39.5t-9 -46l-34 -242h-150l106 756h150l-47 -336h2q7 14 20.5 28t32 25t42.5 18t51 7q57 0 90 -17.5t48 -48.5t16 -73t-6 -91l-37 -268h-150zM321 -131q-5 -36 -32.5 -61t-64.5 -25
q-35 0 -55.5 25.5t-15.5 60.5q2 16 10.5 31t21.5 26t28.5 18t32.5 7q35 0 57.5 -23t17.5 -59z" />
    <glyph glyph-name="uni1E26" unicode="&#x1e26;" horiz-adv-x="759" 
d="M531 0l43 306h-303l-43 -306h-156l99 708h156l-37 -264h303l37 264h156l-99 -708h-156zM588 758q-35 0 -55.5 25.5t-15.5 60.5q2 16 10.5 31t21.5 26t28.5 18t32.5 7q35 0 57.5 -23t17.5 -59t-32.5 -61t-64.5 -25zM309 844q2 16 10.5 31t21.5 26t28.5 18t32.5 7
q35 0 57.5 -23t17.5 -59t-32.5 -61t-64.5 -25q-35 0 -55.5 25.5t-15.5 60.5z" />
    <glyph glyph-name="uni1E27" unicode="&#x1e27;" 
d="M404 238q3 21 5 43.5t-3 41.5t-19 31t-43 12t-48.5 -10.5t-31.5 -28t-18 -39.5t-9 -46l-34 -242h-150l106 756h150l-47 -336h2q7 14 20.5 28t32 25t42.5 18t51 7q57 0 90 -17.5t48 -48.5t16 -73t-6 -91l-37 -268h-150zM471 806q-35 0 -55.5 25.5t-15.5 60.5q2 16 10.5 31
t21.5 26t28.5 18t32.5 7q35 0 57.5 -23t17.5 -59t-32.5 -61t-64.5 -25zM192 892q2 16 10.5 31t21.5 26t28.5 18t32.5 7q35 0 57.5 -23t17.5 -59t-32.5 -61t-64.5 -25q-35 0 -55.5 25.5t-15.5 60.5z" />
    <glyph glyph-name="uni1E28" unicode="&#x1e28;" horiz-adv-x="759" 
d="M531 0l43 306h-303l-43 -306h-156l99 708h156l-37 -264h303l37 264h156l-99 -708h-156zM201 -122q-17 8 -32 8q-10 0 -18.5 -2t-18.5 -6l-28 29l76 93h67l-50 -60q22 0 44 -2.5t39 -11t26 -25t5 -44.5q-4 -27 -21 -46t-39.5 -30t-47.5 -16t-44 -5q-30 0 -62.5 8.5
t-57.5 21.5l32 47q11 -5 29 -11t44 -6q23 0 45.5 6t25.5 26q2 18 -14 26z" />
    <glyph glyph-name="uni1E29" unicode="&#x1e29;" 
d="M404 238q3 21 5 43.5t-3 41.5t-19 31t-43 12t-48.5 -10.5t-31.5 -28t-18 -39.5t-9 -46l-34 -242h-150l106 756h150l-47 -336h2q7 14 20.5 28t32 25t42.5 18t51 7q57 0 90 -17.5t48 -48.5t16 -73t-6 -91l-37 -268h-150zM182 -122q-17 8 -32 8q-10 0 -18.5 -2t-18.5 -6
l-28 29l76 93h67l-50 -60q22 0 44 -2.5t39 -11t26 -25t5 -44.5q-4 -27 -21 -46t-39.5 -30t-47.5 -16t-44 -5q-30 0 -62.5 8.5t-57.5 21.5l32 47q11 -5 29 -11t44 -6q23 0 45.5 6t25.5 26q2 18 -14 26z" />
    <glyph glyph-name="uni1E2A" unicode="&#x1e2a;" horiz-adv-x="759" 
d="M531 0l43 306h-303l-43 -306h-156l99 708h156l-37 -264h303l37 264h156l-99 -708h-156zM519 -114q-20 -28 -47 -45.5t-59.5 -25.5t-68.5 -8t-67 7.5t-54 25t-34.5 45t-8.5 66.5h80q1 -15 10.5 -24t23 -14.5t30 -7.5t33.5 -2q39 0 67.5 7.5t44.5 40.5h79q-9 -38 -29 -65z
" />
    <glyph glyph-name="uni1E2B" unicode="&#x1e2b;" 
d="M404 238q3 21 5 43.5t-3 41.5t-19 31t-43 12t-48.5 -10.5t-31.5 -28t-18 -39.5t-9 -46l-34 -242h-150l106 756h150l-47 -336h2q7 14 20.5 28t32 25t42.5 18t51 7q57 0 90 -17.5t48 -48.5t16 -73t-6 -91l-37 -268h-150zM396 -114q-20 -28 -47 -45.5t-59.5 -25.5t-68.5 -8
t-67 7.5t-54 25t-34.5 45t-8.5 66.5h80q1 -15 10.5 -24t23 -14.5t30 -7.5t33.5 -2q39 0 67.5 7.5t44.5 40.5h79q-9 -38 -29 -65z" />
    <glyph glyph-name="uni1E2C" unicode="&#x1e2c;" horiz-adv-x="296" 
d="M169 708h156l-99 -708h-156zM240 -74q11 10 20 25h78q-9 -29 -21.5 -54t-30.5 -43.5t-42 -29.5t-55 -11q-22 0 -40.5 6.5t-34.5 14.5q-17 8 -31 14.5t-29 6.5q-17 0 -29.5 -14t-18.5 -28h-79q7 25 20.5 50t32 44.5t42 31.5t51.5 12q25 0 44.5 -6t39.5 -15l26 -10
q13 -5 28 -5q17 0 29 11z" />
    <glyph glyph-name="uni1E2D" unicode="&#x1e2d;" horiz-adv-x="260" 
d="M55 0l68 486h150l-68 -486h-150zM167 701q13 11 30 18t35 7q36 0 57.5 -25.5t16.5 -61.5q-2 -18 -11 -34t-22.5 -27.5t-30.5 -18.5t-35 -7t-33 7t-25 18.5t-14.5 27.5t-2.5 34q3 18 12 34t23 28zM224 -74q11 10 20 25h78q-9 -29 -21.5 -54t-30.5 -43.5t-42 -29.5t-55 -11
q-22 0 -40.5 6.5t-34.5 14.5q-17 8 -31 14.5t-29 6.5q-17 0 -29.5 -14t-18.5 -28h-79q7 25 20.5 50t32 44.5t42 31.5t51.5 12q25 0 44.5 -6t39.5 -15l26 -10q13 -5 28 -5q17 0 29 11z" />
    <glyph glyph-name="uni1E2E" unicode="&#x1e2e;" horiz-adv-x="296" 
d="M169 708h156l-99 -708h-156zM357 758q-35 0 -55.5 25.5t-15.5 60.5q2 16 10.5 31t21.5 26t28.5 18t32.5 7q35 0 57.5 -23t17.5 -59t-32.5 -61t-64.5 -25zM78 844q2 16 10.5 31t21.5 26t28.5 18t32.5 7q35 0 57.5 -23t17.5 -59t-32.5 -61t-64.5 -25q-35 0 -55.5 25.5
t-15.5 60.5zM253 1120h204l-193 -144h-132z" />
    <glyph glyph-name="uni1E2F" unicode="&#x1e2f;" horiz-adv-x="260" 
d="M123 486h150l-68 -486h-150zM309 537q-35 0 -55.5 25.5t-15.5 60.5q2 16 10.5 31t21.5 26t28.5 18t32.5 7q35 0 57.5 -23t17.5 -59t-32.5 -61t-64.5 -25zM30 623q2 16 10.5 31t21.5 26t28.5 18t32.5 7q35 0 57.5 -23t17.5 -59t-32.5 -61t-64.5 -25q-35 0 -55.5 25.5
t-15.5 60.5zM205 898h204l-193 -144h-132z" />
    <glyph glyph-name="uni1E30" unicode="&#x1e30;" horiz-adv-x="722" 
d="M522 0l-241 336l-47 -336h-156l99 708h156l-41 -294l316 294h204l-361 -329l289 -379h-218zM470 902h204l-193 -144h-132z" />
    <glyph glyph-name="uni1E31" unicode="&#x1e31;" horiz-adv-x="556" 
d="M397 267l161 -267h-189l-130 246h-2l-34 -246h-150l106 756h150l-65 -462l193 192h184zM366 950h204l-193 -144h-132z" />
    <glyph glyph-name="uni1E32" unicode="&#x1e32;" horiz-adv-x="722" 
d="M522 0l-241 336l-47 -336h-156l99 708h156l-41 -294l316 294h204l-361 -329l289 -379h-218zM460 -131q-5 -36 -32.5 -61t-64.5 -25q-35 0 -55.5 25.5t-15.5 60.5q2 16 10.5 31t21.5 26t28.5 18t32.5 7q35 0 57.5 -23t17.5 -59z" />
    <glyph glyph-name="uni1E33" unicode="&#x1e33;" horiz-adv-x="556" 
d="M397 267l161 -267h-189l-130 246h-2l-34 -246h-150l106 756h150l-65 -462l193 192h184zM349 -131q-5 -36 -32.5 -61t-64.5 -25q-35 0 -55.5 25.5t-15.5 60.5q2 16 10.5 31t21.5 26t28.5 18t32.5 7q35 0 57.5 -23t17.5 -59z" />
    <glyph glyph-name="uni1E34" unicode="&#x1e34;" horiz-adv-x="722" 
d="M522 0l-241 336l-47 -336h-156l99 708h156l-41 -294l316 294h204l-361 -329l289 -379h-218zM218 -49h340l-13 -96h-340z" />
    <glyph glyph-name="uni1E35" unicode="&#x1e35;" horiz-adv-x="556" 
d="M397 267l161 -267h-189l-130 246h-2l-34 -246h-150l106 756h150l-65 -462l193 192h184zM107 -49h340l-13 -96h-340z" />
    <glyph glyph-name="uni1E36" unicode="&#x1e36;" horiz-adv-x="537" 
d="M543 144l-20 -144h-445l99 708h156l-79 -564h289zM326 -131q-5 -36 -32.5 -61t-64.5 -25q-35 0 -55.5 25.5t-15.5 60.5q2 16 10.5 31t21.5 26t28.5 18t32.5 7q35 0 57.5 -23t17.5 -59z" />
    <glyph glyph-name="uni1E37" unicode="&#x1e37;" horiz-adv-x="260" 
d="M161 756h150l-106 -756h-150zM196 -131q-5 -36 -32.5 -61t-64.5 -25q-35 0 -55.5 25.5t-15.5 60.5q2 16 10.5 31t21.5 26t28.5 18t32.5 7q35 0 57.5 -23t17.5 -59z" />
    <glyph glyph-name="uni1E38" unicode="&#x1e38;" horiz-adv-x="537" 
d="M543 144l-20 -144h-445l99 708h156l-79 -564h289zM326 -131q-5 -36 -32.5 -61t-64.5 -25q-35 0 -55.5 25.5t-15.5 60.5q2 16 10.5 31t21.5 26t28.5 18t32.5 7q35 0 57.5 -23t17.5 -59zM210 854h340l-13 -96h-340z" />
    <glyph glyph-name="uni1E39" unicode="&#x1e39;" horiz-adv-x="260" 
d="M161 756h150l-106 -756h-150zM196 -131q-5 -36 -32.5 -61t-64.5 -25q-35 0 -55.5 25.5t-15.5 60.5q2 16 10.5 31t21.5 26t28.5 18t32.5 7q35 0 57.5 -23t17.5 -59zM86 902h340l-13 -96h-340z" />
    <glyph glyph-name="uni1E3A" unicode="&#x1e3a;" horiz-adv-x="537" 
d="M543 144l-20 -144h-445l99 708h156l-79 -564h289zM84 -49h340l-13 -96h-340z" />
    <glyph glyph-name="uni1E3B" unicode="&#x1e3b;" horiz-adv-x="260" 
d="M161 756h150l-106 -756h-150zM-46 -49h340l-13 -96h-340z" />
    <glyph glyph-name="uni1E3C" unicode="&#x1e3c;" horiz-adv-x="537" 
d="M543 144l-20 -144h-445l99 708h156l-79 -564h289zM253 -115l-73 -78h-135l139 144h163l96 -144h-138z" />
    <glyph glyph-name="uni1E3D" unicode="&#x1e3d;" horiz-adv-x="260" 
d="M161 756h150l-106 -756h-150zM123 -115l-73 -78h-135l139 144h163l96 -144h-138z" />
    <glyph glyph-name="uni1E3E" unicode="&#x1e3e;" horiz-adv-x="944" 
d="M716 0l76 543h-2l-262 -543h-119l-103 543h-2l-76 -543h-156l99 708h236l98 -462h2l229 462h235l-99 -708h-156zM547 902h204l-193 -144h-132z" />
    <glyph glyph-name="uni1E3F" unicode="&#x1e3f;" horiz-adv-x="870" 
d="M203 0h-150l68 486h144l-9 -66h2q9 14 24 28t34 25t43 18t51 7q51 0 88 -21t50 -66q33 47 72.5 67t93.5 20q49 0 80 -16.5t47 -45t19 -67t-3 -82.5l-40 -287h-150l39 283q5 34 -6 58.5t-48 24.5q-26 0 -44.5 -8.5t-31.5 -23.5t-20 -35t-10 -42l-36 -257h-150l36 257
q2 13 3.5 32t-2 36t-15.5 29t-38 12q-29 0 -48.5 -10.5t-31.5 -28t-18 -39.5t-9 -46zM469 693h204l-193 -144h-132z" />
    <glyph glyph-name="uni1E40" unicode="&#x1e40;" horiz-adv-x="944" 
d="M716 0l76 543h-2l-262 -543h-119l-103 543h-2l-76 -543h-156l99 708h236l98 -462h2l229 462h235l-99 -708h-156zM674 844q-5 -36 -32.5 -61t-64.5 -25q-35 0 -55.5 25.5t-15.5 60.5q2 16 10.5 31t21.5 26t28.5 18t32.5 7q35 0 57.5 -23t17.5 -59z" />
    <glyph glyph-name="uni1E41" unicode="&#x1e41;" horiz-adv-x="870" 
d="M203 0h-150l68 486h144l-9 -66h2q9 14 24 28t34 25t43 18t51 7q51 0 88 -21t50 -66q33 47 72.5 67t93.5 20q49 0 80 -16.5t47 -45t19 -67t-3 -82.5l-40 -287h-150l39 283q5 34 -6 58.5t-48 24.5q-26 0 -44.5 -8.5t-31.5 -23.5t-20 -35t-10 -42l-36 -257h-150l36 257
q2 13 3.5 32t-2 36t-15.5 29t-38 12q-29 0 -48.5 -10.5t-31.5 -28t-18 -39.5t-9 -46zM596 635q-5 -36 -32.5 -61t-64.5 -25q-35 0 -55.5 25.5t-15.5 60.5q2 16 10.5 31t21.5 26t28.5 18t32.5 7q35 0 57.5 -23t17.5 -59z" />
    <glyph glyph-name="uni1E42" unicode="&#x1e42;" horiz-adv-x="944" 
d="M716 0l76 543h-2l-262 -543h-119l-103 543h-2l-76 -543h-156l99 708h236l98 -462h2l229 462h235l-99 -708h-156zM537 -131q-5 -36 -32.5 -61t-64.5 -25q-35 0 -55.5 25.5t-15.5 60.5q2 16 10.5 31t21.5 26t28.5 18t32.5 7q35 0 57.5 -23t17.5 -59z" />
    <glyph glyph-name="uni1E43" unicode="&#x1e43;" horiz-adv-x="870" 
d="M203 0h-150l68 486h144l-9 -66h2q9 14 24 28t34 25t43 18t51 7q51 0 88 -21t50 -66q33 47 72.5 67t93.5 20q49 0 80 -16.5t47 -45t19 -67t-3 -82.5l-40 -287h-150l39 283q5 34 -6 58.5t-48 24.5q-26 0 -44.5 -8.5t-31.5 -23.5t-20 -35t-10 -42l-36 -257h-150l36 257
q2 13 3.5 32t-2 36t-15.5 29t-38 12q-29 0 -48.5 -10.5t-31.5 -28t-18 -39.5t-9 -46zM488 -131q-5 -36 -32.5 -61t-64.5 -25q-35 0 -55.5 25.5t-15.5 60.5q2 16 10.5 31t21.5 26t28.5 18t32.5 7q35 0 57.5 -23t17.5 -59z" />
    <glyph glyph-name="uni1E44" unicode="&#x1e44;" horiz-adv-x="815" 
d="M539 0l-239 504h-2l-70 -504h-156l99 708h212l232 -492h2l69 492h156l-99 -708h-204zM609 844q-5 -36 -32.5 -61t-64.5 -25q-35 0 -55.5 25.5t-15.5 60.5q2 16 10.5 31t21.5 26t28.5 18t32.5 7q35 0 57.5 -23t17.5 -59z" />
    <glyph glyph-name="uni1E45" unicode="&#x1e45;" 
d="M404 238q3 21 5 43.5t-3 41.5t-19 31t-43 12t-48.5 -10.5t-31.5 -28t-18 -39.5t-9 -46l-34 -242h-150l68 486h144l-9 -66h2q9 14 24 28t34 25t43 18t51 7q57 0 90 -17.5t48 -48.5t16 -73t-6 -91l-37 -268h-150zM447 635q-5 -36 -32.5 -61t-64.5 -25q-35 0 -55.5 25.5
t-15.5 60.5q2 16 10.5 31t21.5 26t28.5 18t32.5 7q35 0 57.5 -23t17.5 -59z" />
    <glyph glyph-name="uni1E46" unicode="&#x1e46;" horiz-adv-x="815" 
d="M539 0l-239 504h-2l-70 -504h-156l99 708h212l232 -492h2l69 492h156l-99 -708h-204zM472 -131q-5 -36 -32.5 -61t-64.5 -25q-35 0 -55.5 25.5t-15.5 60.5q2 16 10.5 31t21.5 26t28.5 18t32.5 7q35 0 57.5 -23t17.5 -59z" />
    <glyph glyph-name="uni1E47" unicode="&#x1e47;" 
d="M404 238q3 21 5 43.5t-3 41.5t-19 31t-43 12t-48.5 -10.5t-31.5 -28t-18 -39.5t-9 -46l-34 -242h-150l68 486h144l-9 -66h2q9 14 24 28t34 25t43 18t51 7q57 0 90 -17.5t48 -48.5t16 -73t-6 -91l-37 -268h-150zM339 -131q-5 -36 -32.5 -61t-64.5 -25q-35 0 -55.5 25.5
t-15.5 60.5q2 16 10.5 31t21.5 26t28.5 18t32.5 7q35 0 57.5 -23t17.5 -59z" />
    <glyph glyph-name="uni1E48" unicode="&#x1e48;" horiz-adv-x="815" 
d="M539 0l-239 504h-2l-70 -504h-156l99 708h212l232 -492h2l69 492h156l-99 -708h-204zM230 -49h340l-13 -96h-340z" />
    <glyph glyph-name="uni1E49" unicode="&#x1e49;" 
d="M404 238q3 21 5 43.5t-3 41.5t-19 31t-43 12t-48.5 -10.5t-31.5 -28t-18 -39.5t-9 -46l-34 -242h-150l68 486h144l-9 -66h2q9 14 24 28t34 25t43 18t51 7q57 0 90 -17.5t48 -48.5t16 -73t-6 -91l-37 -268h-150zM97 -49h340l-13 -96h-340z" />
    <glyph glyph-name="uni1E4A" unicode="&#x1e4a;" horiz-adv-x="815" 
d="M539 0l-239 504h-2l-70 -504h-156l99 708h212l232 -492h2l69 492h156l-99 -708h-204zM399 -115l-73 -78h-135l139 144h163l96 -144h-138z" />
    <glyph glyph-name="uni1E4B" unicode="&#x1e4b;" 
d="M404 238q3 21 5 43.5t-3 41.5t-19 31t-43 12t-48.5 -10.5t-31.5 -28t-18 -39.5t-9 -46l-34 -242h-150l68 486h144l-9 -66h2q9 14 24 28t34 25t43 18t51 7q57 0 90 -17.5t48 -48.5t16 -73t-6 -91l-37 -268h-150zM266 -115l-73 -78h-135l139 144h163l96 -144h-138z" />
    <glyph glyph-name="uni1E4C" unicode="&#x1e4c;" horiz-adv-x="832" 
d="M570 8q-74 -26 -157 -26t-149.5 26t-110.5 74.5t-63 117.5t-7 154t50.5 154t96 117.5t131.5 74.5t157 26t149 -26t110 -74.5t63 -117.5t7 -154t-50 -154t-96 -117.5t-131 -74.5zM602 191q33 30 54.5 71.5t28.5 91.5q7 49 -2.5 91t-34.5 72.5t-63 47.5t-88 17t-93 -17
t-76 -47.5t-54.5 -72.5t-28.5 -91q-7 -50 3 -91.5t34.5 -72t62.5 -47.5t88 -17t93 17t76 48zM640 889q11 10 20 25h78q-9 -29 -21.5 -54t-30.5 -43.5t-42 -29.5t-55 -11q-22 0 -40.5 6.5t-34.5 14.5q-17 8 -31 14.5t-29 6.5q-17 0 -29.5 -14t-18.5 -28h-79q7 25 20.5 50
t32 44.5t42 31.5t51.5 12q25 0 44.5 -6t39.5 -15l26 -10q13 -5 28 -5q17 0 29 11zM518 1108h204l-193 -144h-132z" />
    <glyph glyph-name="uni1E4D" unicode="&#x1e4d;" horiz-adv-x="610" 
d="M411 6q-52 -18 -108 -18t-103 18t-78.5 51.5t-46 80.5t-6.5 105t35.5 105t68.5 80.5t93 51.5t108 18t103 -18t79 -51.5t46.5 -80.5t6.5 -105t-36 -105t-69 -80.5t-93 -51.5zM459 243q8 55 -19 89t-84 34t-93 -34t-44 -89t18.5 -89t83.5 -34t93.5 34t44.5 89zM499 662
q11 10 20 25h78q-9 -29 -21.5 -54t-30.5 -43.5t-42 -29.5t-55 -11q-22 0 -40.5 6.5t-34.5 14.5q-17 8 -31 14.5t-29 6.5q-17 0 -29.5 -14t-18.5 -28h-79q7 25 20.5 50t32 44.5t42 31.5t51.5 12q25 0 44.5 -6t39.5 -15l26 -10q13 -5 28 -5q17 0 29 11zM377 880h204l-193 -144
h-132z" />
    <glyph glyph-name="uni1E4E" unicode="&#x1e4e;" horiz-adv-x="832" 
d="M570 8q-74 -26 -157 -26t-149.5 26t-110.5 74.5t-63 117.5t-7 154t50.5 154t96 117.5t131.5 74.5t157 26t149 -26t110 -74.5t63 -117.5t7 -154t-50 -154t-96 -117.5t-131 -74.5zM602 191q33 30 54.5 71.5t28.5 91.5q7 49 -2.5 91t-34.5 72.5t-63 47.5t-88 17t-93 -17
t-76 -47.5t-54.5 -72.5t-28.5 -91q-7 -50 3 -91.5t34.5 -72t62.5 -47.5t88 -17t93 17t76 48zM640 889q11 10 20 25h78q-9 -29 -21.5 -54t-30.5 -43.5t-42 -29.5t-55 -11q-22 0 -40.5 6.5t-34.5 14.5q-17 8 -31 14.5t-29 6.5q-17 0 -29.5 -14t-18.5 -28h-79q7 25 20.5 50
t32 44.5t42 31.5t51.5 12q25 0 44.5 -6t39.5 -15l26 -10q13 -5 28 -5q17 0 29 11zM652 964q-35 0 -55.5 25.5t-15.5 60.5q2 16 10.5 31t21.5 26t28.5 18t32.5 7q35 0 57.5 -23t17.5 -59t-32.5 -61t-64.5 -25zM373 1050q2 16 10.5 31t21.5 26t28.5 18t32.5 7q35 0 57.5 -23
t17.5 -59t-32.5 -61t-64.5 -25q-35 0 -55.5 25.5t-15.5 60.5z" />
    <glyph glyph-name="uni1E4F" unicode="&#x1e4f;" horiz-adv-x="610" 
d="M411 6q-52 -18 -108 -18t-103 18t-78.5 51.5t-46 80.5t-6.5 105t35.5 105t68.5 80.5t93 51.5t108 18t103 -18t79 -51.5t46.5 -80.5t6.5 -105t-36 -105t-69 -80.5t-93 -51.5zM459 243q8 55 -19 89t-84 34t-93 -34t-44 -89t18.5 -89t83.5 -34t93.5 34t44.5 89zM499 662
q11 10 20 25h78q-9 -29 -21.5 -54t-30.5 -43.5t-42 -29.5t-55 -11q-22 0 -40.5 6.5t-34.5 14.5q-17 8 -31 14.5t-29 6.5q-17 0 -29.5 -14t-18.5 -28h-79q7 25 20.5 50t32 44.5t42 31.5t51.5 12q25 0 44.5 -6t39.5 -15l26 -10q13 -5 28 -5q17 0 29 11zM511 736
q-35 0 -55.5 25.5t-15.5 60.5q2 16 10.5 31t21.5 26t28.5 18t32.5 7q35 0 57.5 -23t17.5 -59t-32.5 -61t-64.5 -25zM232 822q2 16 10.5 31t21.5 26t28.5 18t32.5 7q35 0 57.5 -23t17.5 -59t-32.5 -61t-64.5 -25q-35 0 -55.5 25.5t-15.5 60.5z" />
    <glyph glyph-name="uni1E50" unicode="&#x1e50;" horiz-adv-x="832" 
d="M570 8q-74 -26 -157 -26t-149.5 26t-110.5 74.5t-63 117.5t-7 154t50.5 154t96 117.5t131.5 74.5t157 26t149 -26t110 -74.5t63 -117.5t7 -154t-50 -154t-96 -117.5t-131 -74.5zM602 191q33 30 54.5 71.5t28.5 91.5q7 49 -2.5 91t-34.5 72.5t-63 47.5t-88 17t-93 -17
t-76 -47.5t-54.5 -72.5t-28.5 -91q-7 -50 3 -91.5t34.5 -72t62.5 -47.5t88 -17t93 17t76 48zM367 872h340l-13 -96h-340zM697 922h-132l-153 144h204z" />
    <glyph glyph-name="uni1E51" unicode="&#x1e51;" horiz-adv-x="610" 
d="M411 6q-52 -18 -108 -18t-103 18t-78.5 51.5t-46 80.5t-6.5 105t35.5 105t68.5 80.5t93 51.5t108 18t103 -18t79 -51.5t46.5 -80.5t6.5 -105t-36 -105t-69 -80.5t-93 -51.5zM459 243q8 55 -19 89t-84 34t-93 -34t-44 -89t18.5 -89t83.5 -34t93.5 34t44.5 89zM225 645h340
l-13 -96h-340zM555 694h-132l-153 144h204z" />
    <glyph glyph-name="uni1E52" unicode="&#x1e52;" horiz-adv-x="832" 
d="M570 8q-74 -26 -157 -26t-149.5 26t-110.5 74.5t-63 117.5t-7 154t50.5 154t96 117.5t131.5 74.5t157 26t149 -26t110 -74.5t63 -117.5t7 -154t-50 -154t-96 -117.5t-131 -74.5zM602 191q33 30 54.5 71.5t28.5 91.5q7 49 -2.5 91t-34.5 72.5t-63 47.5t-88 17t-93 -17
t-76 -47.5t-54.5 -72.5t-28.5 -91q-7 -50 3 -91.5t34.5 -72t62.5 -47.5t88 -17t93 17t76 48zM367 872h340l-13 -96h-340zM513 1066h204l-193 -144h-132z" />
    <glyph glyph-name="uni1E53" unicode="&#x1e53;" horiz-adv-x="610" 
d="M411 6q-52 -18 -108 -18t-103 18t-78.5 51.5t-46 80.5t-6.5 105t35.5 105t68.5 80.5t93 51.5t108 18t103 -18t79 -51.5t46.5 -80.5t6.5 -105t-36 -105t-69 -80.5t-93 -51.5zM459 243q8 55 -19 89t-84 34t-93 -34t-44 -89t18.5 -89t83.5 -34t93.5 34t44.5 89zM225 645h340
l-13 -96h-340zM371 838h204l-193 -144h-132z" />
    <glyph glyph-name="uni1E54" unicode="&#x1e54;" horiz-adv-x="630" 
d="M486 287q-50 -11 -106 -11h-114l-38 -276h-156l99 708h263q55 0 102.5 -10t80.5 -34.5t49 -66t7 -104.5q-9 -62 -35 -104t-64.5 -67t-87.5 -35zM511 493q4 27 -6.5 43.5t-29 25.5t-42 11.5t-45.5 2.5h-80l-23 -168h104q21 0 41 4t37 13.5t29 26t15 41.5zM402 902h204
l-193 -144h-132z" />
    <glyph glyph-name="uni1E55" unicode="&#x1e55;" horiz-adv-x="630" 
d="M521 480q41 -19 68 -52.5t37.5 -79.5t2.5 -101q-7 -51 -29 -97.5t-55.5 -82.5t-77.5 -57.5t-96 -21.5q-47 0 -86 14.5t-59 49.5h-2l-40 -280h-150l101 714h138l-9 -64h2q10 13 27 26.5t37.5 24.5t44.5 18t50 7q54 0 96 -18zM479 243q8 55 -19 89t-84 34t-93 -34t-44 -89
t18.5 -89t83.5 -34t93.5 34t44.5 89zM363 693h204l-193 -144h-132z" />
    <glyph glyph-name="uni1E56" unicode="&#x1e56;" horiz-adv-x="630" 
d="M486 287q-50 -11 -106 -11h-114l-38 -276h-156l99 708h263q55 0 102.5 -10t80.5 -34.5t49 -66t7 -104.5q-9 -62 -35 -104t-64.5 -67t-87.5 -35zM511 493q4 27 -6.5 43.5t-29 25.5t-42 11.5t-45.5 2.5h-80l-23 -168h104q21 0 41 4t37 13.5t29 26t15 41.5zM529 844
q-5 -36 -32.5 -61t-64.5 -25q-35 0 -55.5 25.5t-15.5 60.5q2 16 10.5 31t21.5 26t28.5 18t32.5 7q35 0 57.5 -23t17.5 -59z" />
    <glyph glyph-name="uni1E57" unicode="&#x1e57;" horiz-adv-x="630" 
d="M521 480q41 -19 68 -52.5t37.5 -79.5t2.5 -101q-7 -51 -29 -97.5t-55.5 -82.5t-77.5 -57.5t-96 -21.5q-47 0 -86 14.5t-59 49.5h-2l-40 -280h-150l101 714h138l-9 -64h2q10 13 27 26.5t37.5 24.5t44.5 18t50 7q54 0 96 -18zM479 243q8 55 -19 89t-84 34t-93 -34t-44 -89
t18.5 -89t83.5 -34t93.5 34t44.5 89zM490 635q-5 -36 -32.5 -61t-64.5 -25q-35 0 -55.5 25.5t-15.5 60.5q2 16 10.5 31t21.5 26t28.5 18t32.5 7q35 0 57.5 -23t17.5 -59z" />
    <glyph glyph-name="uni1E58" unicode="&#x1e58;" horiz-adv-x="648" 
d="M640 0h-187l-109 283h-77l-39 -283h-156l99 708h274q54 0 101 -10.5t80 -35t49 -66t7 -103.5q-11 -75 -57 -127.5t-123 -66.5zM490 562q-16 8 -37.5 11t-42.5 3h-102l-22 -161h92q21 0 44.5 1.5t43.5 9t35 23.5t19 45q4 27 -5 43t-25 25zM534 844q-5 -36 -32.5 -61
t-64.5 -25q-35 0 -55.5 25.5t-15.5 60.5q2 16 10.5 31t21.5 26t28.5 18t32.5 7q35 0 57.5 -23t17.5 -59z" />
    <glyph glyph-name="uni1E59" unicode="&#x1e59;" horiz-adv-x="407" 
d="M414 364q-15 2 -32 2q-43 0 -70 -12t-43 -33.5t-24.5 -51.5t-13.5 -66l-28 -203h-150l68 486h150l-11 -78h2q30 45 66 67.5t86 22.5q13 0 26 -1t24 -4l-19 -137q-16 5 -31 8zM397 635q-5 -36 -32.5 -61t-64.5 -25q-35 0 -55.5 25.5t-15.5 60.5q2 16 10.5 31t21.5 26
t28.5 18t32.5 7q35 0 57.5 -23t17.5 -59z" />
    <glyph glyph-name="uni1E5A" unicode="&#x1e5a;" horiz-adv-x="648" 
d="M640 0h-187l-109 283h-77l-39 -283h-156l99 708h274q54 0 101 -10.5t80 -35t49 -66t7 -103.5q-11 -75 -57 -127.5t-123 -66.5zM490 562q-16 8 -37.5 11t-42.5 3h-102l-22 -161h92q21 0 44.5 1.5t43.5 9t35 23.5t19 45q4 27 -5 43t-25 25zM397 -131q-5 -36 -32.5 -61
t-64.5 -25q-35 0 -55.5 25.5t-15.5 60.5q2 16 10.5 31t21.5 26t28.5 18t32.5 7q35 0 57.5 -23t17.5 -59z" />
    <glyph glyph-name="uni1E5B" unicode="&#x1e5b;" horiz-adv-x="407" 
d="M414 364q-15 2 -32 2q-43 0 -70 -12t-43 -33.5t-24.5 -51.5t-13.5 -66l-28 -203h-150l68 486h150l-11 -78h2q30 45 66 67.5t86 22.5q13 0 26 -1t24 -4l-19 -137q-16 5 -31 8zM290 -131q-5 -36 -32.5 -61t-64.5 -25q-35 0 -55.5 25.5t-15.5 60.5q2 16 10.5 31t21.5 26
t28.5 18t32.5 7q35 0 57.5 -23t17.5 -59z" />
    <glyph glyph-name="uni1E5C" unicode="&#x1e5c;" horiz-adv-x="648" 
d="M640 0h-187l-109 283h-77l-39 -283h-156l99 708h274q54 0 101 -10.5t80 -35t49 -66t7 -103.5q-11 -75 -57 -127.5t-123 -66.5zM490 562q-16 8 -37.5 11t-42.5 3h-102l-22 -161h92q21 0 44.5 1.5t43.5 9t35 23.5t19 45q4 27 -5 43t-25 25zM281 854h340l-13 -96h-340z
M397 -131q-5 -36 -32.5 -61t-64.5 -25q-35 0 -55.5 25.5t-15.5 60.5q2 16 10.5 31t21.5 26t28.5 18t32.5 7q35 0 57.5 -23t17.5 -59z" />
    <glyph glyph-name="uni1E5D" unicode="&#x1e5d;" horiz-adv-x="407" 
d="M414 364q-15 2 -32 2q-43 0 -70 -12t-43 -33.5t-24.5 -51.5t-13.5 -66l-28 -203h-150l68 486h150l-11 -78h2q30 45 66 67.5t86 22.5q13 0 26 -1t24 -4l-19 -137q-16 5 -31 8zM144 645h340l-13 -96h-340zM290 -131q-5 -36 -32.5 -61t-64.5 -25q-35 0 -55.5 25.5
t-15.5 60.5q2 16 10.5 31t21.5 26t28.5 18t32.5 7q35 0 57.5 -23t17.5 -59z" />
    <glyph glyph-name="uni1E5E" unicode="&#x1e5e;" horiz-adv-x="648" 
d="M640 0h-187l-109 283h-77l-39 -283h-156l99 708h274q54 0 101 -10.5t80 -35t49 -66t7 -103.5q-11 -75 -57 -127.5t-123 -66.5zM490 562q-16 8 -37.5 11t-42.5 3h-102l-22 -161h92q21 0 44.5 1.5t43.5 9t35 23.5t19 45q4 27 -5 43t-25 25zM155 -49h340l-13 -96h-340z" />
    <glyph glyph-name="uni1E5F" unicode="&#x1e5f;" horiz-adv-x="407" 
d="M414 364q-15 2 -32 2q-43 0 -70 -12t-43 -33.5t-24.5 -51.5t-13.5 -66l-28 -203h-150l68 486h150l-11 -78h2q30 45 66 67.5t86 22.5q13 0 26 -1t24 -4l-19 -137q-16 5 -31 8zM48 -49h340l-13 -96h-340z" />
    </font>
</defs>
</svg>
