<?xml version="1.0" standalone="no"?>
<!DOCTYPE svg PUBLIC "-//W3C//DTD SVG 1.1//EN" "http://www.w3.org/Graphics/SVG/1.1/DTD/svg11.dtd" >
<svg xmlns="http://www.w3.org/2000/svg" version="1.1">
<metadata>
Created by FontForge 20170731 at Thu Oct 17 17:03:48 2019
 By Aleksey,,,
</metadata>
<defs>
<font id="TencentGamesEN-Black" horiz-adv-x="574" >
  <font-face 
    font-family="Tencent Games EN Black "
    font-weight="800"
    font-stretch="normal"
    units-per-em="1000"
    panose-1="0 0 0 0 0 0 0 0 0 0"
    ascent="800"
    descent="-200"
    x-height="499"
    cap-height="695"
    bbox="-516 -457 1522 1205"
    underline-thickness="50"
    underline-position="-150"
    unicode-range="U+000D-FE48"
  />
<missing-glyph horiz-adv-x="512" 
d="M512 0h-512v718h512v-718zM462 667h-412v-617h412v617zM259 609q54 0 89 -35q35 -36 35 -96q0 -32 -12.5 -58.5t-50.5 -61.5q-37 -33 -43 -52q-6 -20 -6 -72h-46l-2 17q0 56 13 81q7 13 18 27.5t28 31.5q32 30 41 47.5t9 35.5q0 36 -22.5 60.5t-53.5 24.5t-53.5 -22
t-28.5 -73l-50 8q7 72 44 104.5t91 32.5zM278 117h-56v67h56v-67z" />
    <glyph glyph-name="uni0132" unicode="IJ" horiz-adv-x="791" 
d="M620 4q-45 -22 -117 -22q-84 0 -142 40t-75 125l143 35q3 -26 23.5 -44t46.5 -18q27 0 42 13.5t22 33.5t8.5 43.5t1.5 43.5v454h156v-471q0 -49 -8.5 -95t-32.5 -81.5t-68 -56.5zM226 708v-708h-156v708h156z" />
    <glyph glyph-name="uni0133" unicode="ij" horiz-adv-x="512" 
d="M306 -41q1 17 1 31v496h150v-522q0 -47 -9 -84.5t-30 -64t-55.5 -41t-85.5 -14.5q-17 0 -35 1.5t-35 6.5l8 133q18 -9 39 -9q19 0 30 10t16 25t6 32zM205 486v-486h-150v486h150zM295 639q0 36 25.5 61.5t61.5 25.5t61.5 -25.5t25.5 -61.5t-25.5 -61.5t-61.5 -25.5
t-61.5 25.5t-25.5 61.5zM43 639q0 36 25.5 61.5t61.5 25.5t61.5 -25.5t25.5 -61.5t-25.5 -61.5t-61.5 -25.5t-61.5 25.5t-25.5 61.5z" />
    <glyph glyph-name="uni0149" unicode="&#x22;n" 
d="M433 481q35 -18 54.5 -49t26.5 -73t7 -91v-268h-150v238q0 21 -1.5 43.5t-9 41.5t-23 31t-44.5 12t-47 -10.5t-27.5 -28t-12.5 -39.5t-3 -46v-242h-150v486h144v-66h2q7 14 20 28t31 25t41 18t50 7q57 0 92 -17zM-32 708h134l-80 -199h-98z" />
    <glyph glyph-name="uniFB01" unicode="fi" horiz-adv-x="630" 
d="M366 366h-111v-366h-150v366h-99v120h99v86q0 40 7 75.5t27 62.5t57.5 42.5t98.5 15.5q23 0 45 -2t43 -7l-7 -127q-13 5 -24 7.5t-25 2.5q-36 0 -54 -15.5t-18 -63.5v-77h111v-120zM425 486h150v-486h-150v486zM413 639q0 36 26 62q25 25 61 25t61.5 -25.5t25.5 -61.5
t-25.5 -61.5t-61.5 -25.5t-61.5 25.5t-25.5 61.5z" />
    <glyph glyph-name="uniFB02" unicode="fl" horiz-adv-x="630" 
d="M295 768q23 0 45 -2t43 -7l-7 -127q-13 5 -24 7.5t-25 2.5q-36 0 -54 -15.5t-18 -63.5v-77h111v-120h-111v-366h-150v366h-99v120h99v86q0 40 7 75.5t27 62.5t57.5 42.5t98.5 15.5zM575 756v-756h-150v756h150z" />
    <glyph glyph-name=".notdef" horiz-adv-x="512" 
d="M512 0h-512v718h512v-718zM462 667h-412v-617h412v617zM259 609q54 0 89 -35q35 -36 35 -96q0 -32 -12.5 -58.5t-50.5 -61.5q-37 -33 -43 -52q-6 -20 -6 -72h-46l-2 17q0 56 13 81q7 13 18 27.5t28 31.5q32 30 41 47.5t9 35.5q0 36 -22.5 60.5t-53.5 24.5t-53.5 -22
t-28.5 -73l-50 8q7 72 44 104.5t91 32.5zM278 117h-56v67h56v-67z" />
    <glyph glyph-name="uni0000" horiz-adv-x="0" 
 />
    <glyph glyph-name="uni0000" horiz-adv-x="0" 
 />
    <glyph glyph-name="uni000D" unicode="&#xd;" horiz-adv-x="0" 
 />
    <glyph glyph-name="uni0020" unicode=" " horiz-adv-x="296" 
 />
    <glyph glyph-name="uni0021" unicode="!" horiz-adv-x="444" 
d="M296 696v-466h-148v466h148zM222 175q19 0 35.5 -7t29 -19t19.5 -28.5t7 -35.5q0 -39 -26.5 -65t-64.5 -26t-64 26t-26 65q0 19 7 35.5t19 28.5t28.5 19t35.5 7z" />
    <glyph glyph-name="uni0022" unicode="&#x22;" horiz-adv-x="520" 
d="M81 426v282h126v-282h-126zM313 708h126v-282h-126v282z" />
    <glyph glyph-name="uni0023" unicode="#" horiz-adv-x="683" 
d="M346 168h-91l-24 -95h-123l24 95h-87v126h118l22 87h-87v125h118l23 92h122l-23 -92h92l23 92h123l-23 -92h85v-125h-116l-22 -87h85v-126h-116l-24 -95h-123zM376 294l23 87h-92l-22 -87h91z" />
    <glyph glyph-name="uni0024" unicode="$" horiz-adv-x="592" 
d="M554 192q0 -42 -14.5 -78t-43 -63t-72 -44.5t-101.5 -21.5v-67h-65v66q-66 4 -119.5 21t-98.5 43v151q39 -34 91.5 -56.5t126.5 -25.5v186q-37 13 -73 30.5t-63.5 43t-44.5 59t-17 78.5q0 39 15.5 71.5t42.5 57t63 40.5t77 22v69h65v-66q55 -2 101 -16.5t85 -38.5v-147
q-35 30 -80.5 47t-105.5 19v-147q45 -16 86.5 -33.5t74 -43t51.5 -63t19 -93.5zM323 120q42 7 63.5 26.5t21.5 45.5q0 29 -19.5 47.5t-65.5 38.5v-158zM258 566q-51 -15 -51 -51q0 -20 14 -35t37 -27v113z" />
    <glyph glyph-name="uni0025" unicode="%" horiz-adv-x="718" 
d="M663 695l-473 -695h-136l474 695h135zM556 295q33 0 61.5 -12t50 -32.5t33.5 -48.5t12 -60t-12 -60t-33.5 -49t-50 -33t-61.5 -12t-62 12t-51 33t-34.5 49t-12.5 60t12.5 60t34.5 48.5t51 32.5t62 12zM164 400q-33 0 -62 12t-50.5 33t-34 49t-12.5 60t12.5 60t34 48.5
t50.5 32.5t62 12t61.5 -12t50 -32.5t34 -48.5t12.5 -60t-12.5 -60t-34 -49t-50 -33t-61.5 -12zM556 89q20 0 34.5 15t14.5 38q0 22 -14.5 37.5t-34.5 15.5q-22 0 -36 -15.5t-14 -37.5q0 -23 14 -38t36 -15zM213 554q0 22 -14.5 37.5t-34.5 15.5q-21 0 -35 -15.5t-14 -37.5
q0 -23 14 -38t35 -15q20 0 34.5 15t14.5 38z" />
    <glyph glyph-name="uni0026" unicode="&#x26;" horiz-adv-x="725" 
d="M483 266l69 94h164l-143 -195l146 -164h-177l-58 66q-82 -81 -201 -81q-22 0 -47 2.5t-46 9.5q-66 21 -107 71.5t-41 122.5q0 68 39.5 115.5t98.5 74.5q-16 18 -30.5 35t-24.5 35t-16 39t-6 47q0 47 18 80t48 55t69.5 32t82.5 10q39 0 75.5 -10t64.5 -31t45 -53.5
t17 -76.5q0 -30 -10 -57t-27.5 -50t-40.5 -41t-49 -32zM346 125q13 8 25 18.5t24 21.5l-120 135q-15 -7 -31 -16.5t-29 -22t-21.5 -27.5t-8.5 -35q0 -42 30 -66t70 -24q24 0 36.5 4t24.5 12zM389 534q0 32 -19.5 49.5t-50.5 17.5q-30 0 -50 -17q-15 -13 -18.5 -25.5
t-2.5 -27.5q1 -26 20.5 -48.5t38.5 -38.5q12 6 26 15.5t26.5 21.5t21 25.5t8.5 27.5z" />
    <glyph glyph-name="uni0027" unicode="'" horiz-adv-x="296" 
d="M85 426v282h126v-282h-126z" />
    <glyph glyph-name="uni0028" unicode="(" horiz-adv-x="314" 
d="M293 672q-30 -48 -54 -92t-40.5 -89.5t-25.5 -95t-9 -107.5t9 -107.5t25.5 -95t40.5 -89.5t54 -92l-103 -60l-2 4q-69 103 -106.5 209.5t-37.5 230.5t37.5 230.5t106.5 209.5l2 4z" />
    <glyph glyph-name="uni0029" unicode=")" horiz-adv-x="314" 
d="M270 288q0 -124 -37 -230q-38 -107 -107 -210l-2 -4l-103 60q30 48 54 92t40.5 89.5t25.5 95t9 107.5t-9 107.5t-25.5 95t-40.5 89.5t-54 92l103 60l2 -4q69 -103 106.5 -209.5t37.5 -230.5z" />
    <glyph glyph-name="uni002A" unicode="*" horiz-adv-x="482" 
d="M322 480l81 -112l-81 -60l-83 113l-80 -108l-79 60l82 107l-130 45l31 94l129 -47v136h100v-136l129 43l29 -94z" />
    <glyph glyph-name="uni002B" unicode="+" horiz-adv-x="555" 
d="M496 238h-148v-155h-141v155h-148v129h148v157h141v-157h148v-129z" />
    <glyph glyph-name="uni002C" unicode="," horiz-adv-x="296" 
d="M93 162h142l-88 -277h-126z" />
    <glyph glyph-name="uni002D" unicode="-" horiz-adv-x="385" 
d="M25 191v118h335v-118h-335z" />
    <glyph glyph-name="uni002E" unicode="." horiz-adv-x="293" 
d="M147 -6q-38 0 -64.5 26t-26.5 65q0 38 26 64t65 26q19 0 35.5 -7t28.5 -19t19 -28.5t7 -35.5q0 -38 -26 -64.5t-64 -26.5z" />
    <glyph glyph-name="uni002F" unicode="/" horiz-adv-x="407" 
d="M296 761l114 -35l-300 -779l-113 35z" />
    <glyph glyph-name="uni0030" unicode="0" horiz-adv-x="592" 
d="M39 345q0 63 12 126.5t41 115t79 84t126 32.5q75 0 124 -31.5t78.5 -82.5t41.5 -115t12 -129q0 -62 -11.5 -125.5t-40.5 -115t-78.5 -84t-126.5 -32.5q-75 0 -124.5 31.5t-79 82t-41.5 114.5t-12 129zM296 578q-27 0 -46.5 -12t-32 -31t-20 -44t-11 -50.5t-4.5 -50.5
t-1 -45q0 -30 2.5 -70t14 -76t34.5 -61t64 -25t64 25.5t34.5 61.5t14 76t2.5 69q0 31 -2.5 71t-14 76t-34.5 61t-64 25z" />
    <glyph glyph-name="uni0031" unicode="1" horiz-adv-x="475" 
d="M172 564h-111v128h254v-692h-143v564z" />
    <glyph glyph-name="uni0032" unicode="2" horiz-adv-x="583" 
d="M534 0h-485v145l270 243q5 5 19 17t23 23t17 27t8 40q0 39 -27 61t-64 22q-43 0 -68 -27t-27 -68l-142 10q3 53 22 92.5t51.5 66.5t76 40.5t95.5 13.5q48 0 89 -13t71 -39.5t47.5 -65.5t17.5 -91q-1 -61 -23.5 -104t-68.5 -82l-206 -183h303z" />
    <glyph glyph-name="uni0033" unicode="3" horiz-adv-x="576" 
d="M388 207q6 58 -35 90q-25 20 -52.5 23.5t-62.5 3.5h-34v100h47q53 0 80 20.5t27 58.5q0 33 -24.5 55t-60.5 22q-35 0 -58 -22.5t-31 -52.5l-129 26q6 48 29.5 80.5t55.5 53t68 29t68 8.5q47 0 85.5 -15.5t66 -42t44 -61t18.5 -73.5q2 -38 -16.5 -74t-57.5 -53
q34 -18 55.5 -39t33.5 -44.5t16 -49.5t4 -53q0 -33 -12.5 -64.5t-34.5 -57.5t-50.5 -45.5t-61.5 -28.5q-42 -12 -92 -12q-49 0 -88 11q-52 15 -82 39t-45 49t-19.5 47.5t-7.5 34.5l133 31q2 -13 8.5 -28.5t20 -29t34 -22t49.5 -8.5q18 0 36.5 6.5t34 18.5t26.5 29.5t14 39.5
z" />
    <glyph glyph-name="uni0034" unicode="4" horiz-adv-x="580" 
d="M556 139h-89v-139h-133v139h-310v123l306 430h137v-426h89v-127zM167 266h167v226z" />
    <glyph glyph-name="uni0035" unicode="5" horiz-adv-x="575" 
d="M506 332q12 -25 15.5 -54.5t2.5 -57t-6 -52t-11 -39.5q-7 -19 -23 -43t-43 -46t-67 -37t-96 -15q-58 0 -102 17.5t-74.5 43.5t-48 58t-21.5 60l144 33q6 -25 17.5 -41.5t26 -25.5t30.5 -12.5t31 -3.5q28 0 47.5 11t31.5 27t18 34.5t6 33.5q1 34 -14 61t-38 40t-47 17
t-48 4q-38 0 -80.5 -8t-77.5 -25v380h421v-127h-277v-112q14 5 31 7.5t35 2.5q75 0 130 -30t87 -101z" />
    <glyph glyph-name="uni0036" unicode="6" horiz-adv-x="592" 
d="M327 481q37 0 77.5 -16t75 -46.5t57 -75t22.5 -102.5q0 -52 -20.5 -98.5t-56.5 -80.5t-84.5 -54t-104.5 -20q-54 0 -102 20t-83.5 54t-56.5 79.5t-21 97.5q0 31 8 59.5t22 57.5t33.5 59.5t41.5 64.5l140 213h160l-142 -216q4 2 15 3t19 1zM293 361q-26 0 -48 -9.5
t-38.5 -26t-25.5 -39t-9 -47.5q0 -26 9.5 -48.5t26 -39t38.5 -26t47 -9.5q26 0 48.5 10t39.5 27t27 39t10 47q0 24 -10 46.5t-27 39t-39.5 26.5t-48.5 10z" />
    <glyph glyph-name="uni0037" unicode="7" horiz-adv-x="580" 
d="M267 0h-157l277 563h-350v129h506v-129z" />
    <glyph glyph-name="uni0038" unicode="8" horiz-adv-x="592" 
d="M454 397q44 -23 72 -68t28 -103q0 -49 -20 -92t-55.5 -75.5t-82.5 -51.5t-101 -19q-53 0 -100 19t-82 51.5t-55 75.5t-20 92q0 58 27.5 102.5t70.5 68.5q-23 19 -37.5 46.5t-14.5 62.5q0 41 16.5 77t45.5 63t67.5 42.5t81.5 15.5q44 0 82 -15.5t67 -42.5t45.5 -63
t16.5 -77q0 -35 -14 -62t-38 -47zM177 226q0 -23 9.5 -43.5t25.5 -35.5t37.5 -24t45.5 -9t46 9t38.5 24t26 35.5t9.5 43.5t-9.5 43t-26 36t-38.5 25t-46 9t-45.5 -9t-37.5 -24.5t-25.5 -36t-9.5 -43.5zM295 583q-34 0 -58 -22.5t-24 -54.5q0 -33 24 -56.5t58 -23.5
q35 0 59 23.5t24 56.5q0 32 -24 54.5t-59 22.5z" />
    <glyph glyph-name="uni0039" unicode="9" horiz-adv-x="587" 
d="M557 458q0 -31 -7.5 -59.5t-21.5 -57.5t-33.5 -59t-42.5 -65l-143 -217h-159l146 222q-12 -2 -19 -2.5t-15 -0.5q-35 0 -75 15.5t-74 45.5t-56.5 74t-22.5 102q0 52 20.5 97.5t56.5 79.5t84 53.5t102 19.5q55 0 102.5 -19.5t82.5 -53.5t55 -79t20 -96zM295 578
q-26 0 -48 -10t-37.5 -26.5t-24.5 -39t-9 -46.5t9.5 -45.5t25.5 -38t38 -26.5t46 -10q27 0 49 9.5t37.5 26t24.5 38.5t9 46q0 25 -9 47.5t-24.5 39t-37.5 26t-49 9.5z" />
    <glyph glyph-name="uni003A" unicode=":" horiz-adv-x="296" 
d="M214 341q-13 -13 -30 -20t-36 -7t-36 7t-29.5 19.5t-19.5 29.5t-7 36t7 36t19.5 29.5t29.5 19.5t36 7t36 -7t30 -19q12 -13 19 -30t7 -36t-7 -36t-19 -29zM214 21q-13 -13 -30 -20t-36 -7t-36 7t-29.5 19.5t-19.5 29.5t-7 36t7 36t19.5 29.5t29.5 19.5t36 7t36 -7t30 -19
q12 -13 19 -30t7 -36t-7 -36t-19 -29z" />
    <glyph glyph-name="uni003B" unicode=";" horiz-adv-x="296" 
d="M91 162h144l-90 -282h-128zM214 472q12 -13 19 -30t7 -36t-7 -36t-19.5 -29.5t-29.5 -19.5t-36 -7t-36 7t-29.5 19.5t-19.5 29.5t-7 36t7 36t19.5 29.5t29.5 19.5t36 7t36 -7t30 -19z" />
    <glyph glyph-name="uni003C" unicode="&#x3c;" horiz-adv-x="657" 
d="M80 380l498 195v-134l-312 -122v-2l312 -122v-133l-498 194v124z" />
    <glyph glyph-name="uni003D" unicode="=" horiz-adv-x="569" 
d="M510 258v-128h-451v128h451zM59 348v128h451v-128h-451z" />
    <glyph glyph-name="uni003E" unicode="&#x3e;" horiz-adv-x="666" 
d="M392 317v2l-312 122v134l498 -195v-124l-498 -194v133z" />
    <glyph glyph-name="uni003F" unicode="?" horiz-adv-x="556" 
d="M403 326q-17 -13 -27.5 -29t-10.5 -38v-29h-148v43q0 27 7.5 48.5t27.5 40.5q14 13 26.5 24.5t23.5 21.5q10 8 23 19.5t25 25t20 28t8 28.5q0 32 -19.5 50.5t-51.5 18.5q-42 0 -68 -22.5t-30 -64.5l-151 9q11 106 76.5 160t169.5 54q44 0 83.5 -12t70.5 -36.5t49 -61
t18 -84.5q0 -34 -9.5 -61t-26 -50t-38.5 -43t-48 -40zM291 -6q-38 0 -64 26t-26 65q0 19 7 35.5t19 28.5t28.5 19t35.5 7t35.5 -7t29 -19t19.5 -28.5t7 -35.5q0 -38 -26.5 -64.5t-64.5 -26.5z" />
    <glyph glyph-name="uni0040" unicode="@" horiz-adv-x="800" 
d="M565 281q0 -25 10.5 -34t21.5 -9t21.5 5.5t19 19.5t13.5 38t5 60q0 50 -20 94t-55 76.5t-81.5 51.5t-99.5 19q-52 0 -98.5 -20t-80.5 -55t-54 -82t-20 -100q0 -52 20 -98.5t54.5 -81.5t81 -55t98.5 -20q57 0 107 26l45 -98q-72 -36 -152 -36q-81 0 -148.5 30t-116.5 80.5
t-76.5 116t-27.5 136.5q0 79 30.5 145.5t81.5 115t117.5 76t138.5 27.5q78 0 145 -27.5t116.5 -75t78 -111t28.5 -134.5q0 -108 -48.5 -164.5t-132.5 -56.5q-37 0 -70.5 19t-45.5 59q-13 -17 -39.5 -27t-55.5 -10q-33 0 -61 13t-48.5 35t-31.5 52t-11 64t11 64t31.5 52.5
t48.5 35.5t61 13q26 0 53.5 -8.5t38.5 -27.5v30h97v-223zM314 344q0 -34 22.5 -57t56.5 -23t57 23t23 57t-23 57t-57 23t-56.5 -23t-22.5 -57z" />
    <glyph glyph-name="uni0041" unicode="A" horiz-adv-x="741" 
d="M741 0h-175l-67 168h-262l-65 -168h-172l300 694h140zM280 281h174l-88 220z" />
    <glyph glyph-name="uni0042" unicode="B" horiz-adv-x="598" 
d="M443 379q38 -9 63.5 -27t42 -41.5t23.5 -50.5t7 -54q0 -35 -10.5 -71.5t-35.5 -66.5t-65 -49t-99 -19h-297v695l33 1h231q42 0 77 -14.5t60 -39t39 -56.5t14 -66q0 -106 -83 -141zM216 297v-167h129q15 0 31.5 4.5t30 14.5t22 26.5t8.5 39.5q0 42 -27.5 62t-68.5 20h-125
zM306 416q16 0 31 5t27 14.5t19 23.5t7 33q0 30 -20 52.5t-57 22.5h-97v-151h90z" />
    <glyph glyph-name="uni0043" unicode="C" horiz-adv-x="661" 
d="M628 471q-25 27 -58 49q-28 19 -68 34t-92 15q-54 0 -97 -18.5t-73 -50t-46 -72.5t-16 -85q0 -49 18.5 -90.5t50.5 -72t74 -47.5t89 -17q52 0 92 14.5t68 31.5q33 20 57 46v-155q-46 -37 -102 -54t-115 -17q-81 0 -149.5 28t-118.5 77t-78.5 115t-28.5 141t29.5 141
t80.5 115.5t119 78t146 28.5q59 0 115 -18t103 -56v-161z" />
    <glyph glyph-name="uni0044" unicode="D" horiz-adv-x="714" 
d="M680 348q0 -72 -22 -135.5t-66 -110.5t-109 -74.5t-151 -27.5h-260v696l143 -1h117q82 0 146.5 -27t109.5 -74.5t68.5 -110.5t23.5 -135zM344 139q44 0 80 15.5t61.5 43t39 66t13.5 84.5t-13.5 84t-39 65t-61.5 42t-80 15h-129v-415h129z" />
    <glyph glyph-name="uni0045" unicode="E" horiz-adv-x="603" 
d="M550 0h-472v695h465v-123h-321v-155h302v-123h-302v-172h328v-122z" />
    <glyph glyph-name="uni0046" unicode="F" horiz-adv-x="566" 
d="M526 573h-304v-160h277v-123h-277v-290h-143v696h447v-123z" />
    <glyph glyph-name="uni0047" unicode="G" horiz-adv-x="767" 
d="M626 505q-49 38 -100.5 55t-105.5 17q-50 0 -94.5 -17t-77.5 -47.5t-52 -73.5t-19 -95q0 -53 18.5 -95.5t50.5 -72.5t74.5 -46t89.5 -16q43 0 85.5 13t75.5 45v125h-190v114h321v-297l-8 -8q-54 -61 -128 -92.5t-155 -31.5q-78 0 -146.5 27.5t-120 75.5t-81 114.5
t-29.5 144.5t29.5 144.5t81 115.5t120 76.5t146.5 27.5q59 0 113 -14.5t102 -44.5v-144z" />
    <glyph glyph-name="uni0048" unicode="H" horiz-adv-x="733" 
d="M661 0h-143v312h-302v-312h-144v695h144v-259h302v259h143v-695z" />
    <glyph glyph-name="uni0049" unicode="I" horiz-adv-x="296" 
d="M71 695h154v-695h-154v695z" />
    <glyph glyph-name="uni004A" unicode="J" horiz-adv-x="358" 
d="M80 -18q-20 0 -41 2t-41 5v132q17 -4 32.5 -5t29.5 -1h15.5t13.5 1q9 1 20.5 6.5t21 16.5t16 29t6.5 45v476h143v-477q0 -120 -51.5 -175t-164.5 -55z" />
    <glyph glyph-name="uni004B" unicode="K" horiz-adv-x="648" 
d="M666 0h-188l-257 316v-316h-143v695h143v-312l250 311h184l-279 -340z" />
    <glyph glyph-name="uni004C" unicode="L" horiz-adv-x="517" 
d="M503 122v-122h-425v695h144v-573h281z" />
    <glyph glyph-name="uni004D" unicode="M" horiz-adv-x="898" 
d="M690 542l-179 -542h-123l-179 542l-1 -542h-136v695h219l158 -448l158 448h219v-695h-135z" />
    <glyph glyph-name="uni004E" unicode="N" horiz-adv-x="774" 
d="M702 0h-184l-310 541v-541h-136v695h199l294 -519l1 518h136v-694z" />
    <glyph glyph-name="uni004F" unicode="O" horiz-adv-x="813" 
d="M407 -18q-77 0 -145 27.5t-118.5 76t-80 115t-29.5 143.5q0 76 29.5 141.5t80 114t118.5 76.5t145 28t144.5 -27.5t118 -76t80 -114.5t29.5 -143q0 -76 -29.5 -142t-80 -115t-118 -76.5t-144.5 -27.5zM407 581q-49 0 -92 -18.5t-74.5 -50.5t-50 -75t-18.5 -93t17.5 -93.5
t49 -76t74.5 -51t94 -18.5q50 0 92.5 18.5t74 51t49.5 76t18 93.5q0 49 -18 92t-49.5 75.5t-74.5 51t-92 18.5z" />
    <glyph glyph-name="uni0050" unicode="P" horiz-adv-x="608" 
d="M208 0h-136v695h275q49 0 91.5 -18.5t74.5 -50.5t50.5 -75t18.5 -92t-18.5 -92t-50.5 -75t-74.5 -50.5t-91.5 -18.5h-139v-223zM208 363h116q50 0 77.5 23t27.5 73t-26.5 73t-76.5 23h-118v-192z" />
    <glyph glyph-name="uni0051" unicode="Q" horiz-adv-x="829" 
d="M795 -10h-168l-34 37q-41 -22 -86.5 -34t-96.5 -12q-78 0 -146.5 28t-119.5 77t-80.5 115.5t-29.5 144.5q0 77 29.5 143t80.5 115t119.5 77t146.5 28q77 0 145 -28t119 -76.5t80.5 -115t29.5 -144.5q0 -71 -24.5 -132t-67.5 -109zM173 346q0 -50 18 -94t49.5 -76.5
t75 -51t94.5 -18.5q26 0 49 5t45 14l-154 169h168l83 -91q21 30 33 66.5t12 76.5q0 50 -18.5 93.5t-50 75.5t-74.5 51t-93 19t-93 -18.5t-75 -51t-50.5 -76t-18.5 -93.5z" />
    <glyph glyph-name="uni0052" unicode="R" horiz-adv-x="624" 
d="M616 0h-162l-143 229h-103v-229h-136v696h262q48 0 91 -18.5t74.5 -50t50 -74t18.5 -90.5q0 -65 -32 -118t-84 -84zM208 367h119q50 0 77 23t27 73q0 49 -26 72t-76 23h-121v-191z" />
    <glyph glyph-name="uni0053" unicode="S" horiz-adv-x="558" 
d="M488 504q-42 36 -92 51t-105 15q-54 0 -79.5 -16t-25.5 -41q0 -21 15.5 -36.5t39.5 -27.5t54 -22.5t58 -21.5q48 -19 82.5 -40t56 -46t31.5 -56t10 -72q0 -45 -16.5 -83t-50 -65.5t-83.5 -43.5t-117 -16q-75 0 -136 17.5t-111 46.5v151q42 -37 99.5 -60t139.5 -23
q63 0 96 21.5t33 54.5q0 19 -8.5 33.5t-28 27.5t-50.5 25.5t-75 28.5q-35 12 -68 30t-59 42.5t-42 57.5t-16 76q0 45 20 81.5t54 61.5t78.5 38t93.5 13q60 0 110 -14.5t92 -40.5v-147z" />
    <glyph glyph-name="uni0054" unicode="T" horiz-adv-x="645" 
d="M251 0v568h-244v127h631v-127h-244l1 -568h-144z" />
    <glyph glyph-name="uni0055" unicode="U" horiz-adv-x="694" 
d="M642 265q0 -61 -20 -114t-57.5 -92.5t-92.5 -62t-125 -22.5q-71 0 -126 22.5t-92.5 62t-57 92.5t-19.5 114v417h138v-417q0 -30 8 -60t26.5 -53.5t48.5 -38t74 -14.5q45 0 75.5 14.5t48.5 38t26 53.5t8 60v417h137v-417z" />
    <glyph glyph-name="uni0056" unicode="V" horiz-adv-x="704" 
d="M416 0h-134l-280 695h157l198 -493l198 493h147z" />
    <glyph glyph-name="uni0057" unicode="W" horiz-adv-x="954" 
d="M805 695h151l-206 -695h-117l-156 491l-157 -491h-116l-206 695h151l114 -455l148 455h132l148 -455z" />
    <glyph glyph-name="uni0058" unicode="X" horiz-adv-x="645" 
d="M483 0l-160 250l-161 -250h-162l228 354l-217 338h162l149 -232l149 232h162l-216 -339l228 -353h-162z" />
    <glyph glyph-name="uni0059" unicode="Y" horiz-adv-x="624" 
d="M-20 695h161l171 -296l171 296h161l-264 -450v-245h-136v244z" />
    <glyph glyph-name="uni005A" unicode="Z" horiz-adv-x="607" 
d="M572 0h-537v128l365 439h-365v127h525v-127l-355 -439h367v-128z" />
    <glyph glyph-name="uni005B" unicode="[" horiz-adv-x="296" 
d="M186 -66h90v-90h-210v888h210v-90h-90v-708z" />
    <glyph glyph-name="uni005C" unicode="\" horiz-adv-x="407" 
d="M111 761l299 -779l-113 -35l-300 779z" />
    <glyph glyph-name="uni005D" unicode="]" horiz-adv-x="296" 
d="M110 -66v708h-90v90h210v-888h-210v90h90z" />
    <glyph glyph-name="uni005E" unicode="^" horiz-adv-x="666" 
d="M571 353h-134l-104 225l-105 -225h-133l169 345h138z" />
    <glyph glyph-name="uni005F" unicode="_" horiz-adv-x="500" 
d="M0 -75h500v-50h-500v50z" />
    <glyph glyph-name="uni0060" unicode="`" horiz-adv-x="260" 
d="M131 708l101 -144h-132l-173 144h204z" />
    <glyph glyph-name="uni0061" unicode="a" horiz-adv-x="590" 
d="M414 501h135v-501h-135v70q-17 -34 -51 -54t-94 -20q-52 0 -97.5 19t-79.5 53t-53 81t-19 102q0 54 18 100.5t50.5 81t78.5 54.5t101 20q59 0 93.5 -18.5t52.5 -56.5v69zM155 250q0 -27 10 -50.5t27.5 -41t41 -27.5t50.5 -10t50.5 10t41 27.5t27.5 41t10 50.5t-10 50.5
t-27.5 41t-41 27.5t-50.5 10t-50.5 -10t-41 -27.5t-27.5 -41t-10 -50.5z" />
    <glyph glyph-name="uni0062" unicode="b" horiz-adv-x="630" 
d="M67 693h136v-246q42 60 145 60q56 0 101.5 -20t78 -54.5t50.5 -81.5t18 -100q0 -55 -19 -102t-53 -81t-79 -53t-98 -19q-54 0 -89 16.5t-55 44.5v-57h-136v693zM461 250q0 27 -10 50.5t-27.5 41t-41 27.5t-50.5 10t-50 -10t-40.5 -27.5t-27.5 -41t-10 -50.5t10 -50.5
t27.5 -41t40.5 -27.5t50 -10t50.5 10t41 27.5t27.5 41t10 50.5z" />
    <glyph glyph-name="uni0063" unicode="c" horiz-adv-x="489" 
d="M467 32q-33 -20 -67 -32t-79 -12q-63 0 -115.5 19.5t-89.5 54t-57.5 82t-20.5 104.5t20 105t56.5 83.5t89 55.5t117.5 20q39 0 76.5 -12t69.5 -34v-130q-14 15 -34 27q-18 10 -45.5 18t-65.5 8q-37 0 -65.5 -12t-47 -32t-28 -45t-9.5 -52q0 -31 11.5 -56t31.5 -43
t47 -27.5t57 -9.5q41 0 69 8t45 18q21 11 34 25v-131z" />
    <glyph glyph-name="uni0064" unicode="d" horiz-adv-x="630" 
d="M428 693h136v-693h-136v57q-21 -28 -55.5 -44.5t-89.5 -16.5q-52 0 -97.5 19t-79 53t-52.5 81t-19 102q0 53 18 100t50 81.5t78 54.5t101 20q104 0 146 -60v246zM169 250q0 -27 10 -50.5t27.5 -41t41 -27.5t50.5 -10t50.5 10t41 27.5t27.5 41t10 50.5t-10 50.5t-27.5 41
t-41 27.5t-50.5 10t-50.5 -10t-41 -27.5t-27.5 -41t-10 -50.5z" />
    <glyph glyph-name="uni0065" unicode="e" horiz-adv-x="593" 
d="M36 245q0 62 19.5 112t54.5 85t83.5 54t107.5 19q62 0 109.5 -20.5t80 -56t49 -82.5t16.5 -100q0 -19 -3 -43h-370q2 -28 15.5 -47t33 -30t43.5 -16t48 -5q48 0 95.5 13.5t81.5 41.5v-132q-19 -13 -37 -22.5t-39 -15.5t-46 -9t-58 -3q-60 0 -112 16t-90.5 48.5t-60 80.5
t-21.5 112zM407 299q0 26 -10.5 43.5t-26.5 28.5t-34.5 16t-34.5 5q-22 0 -43 -5.5t-37 -17.5t-25.5 -30t-9.5 -43h221v3z" />
    <glyph glyph-name="uni0066" unicode="f" horiz-adv-x="356" 
d="M112 0v380h-90v123h90v25q0 94 49 134.5t134 40.5q24 0 42.5 -1.5t24.5 -3.5v-117q-6 1 -12 3q-6 1 -13.5 1.5t-16.5 0.5q-29 0 -50.5 -12.5t-21.5 -45.5v-25h101v-123h-101v-380h-136z" />
    <glyph glyph-name="uni0067" unicode="g" horiz-adv-x="630" 
d="M570 505v-465q0 -71 -21 -119.5t-58.5 -78t-89.5 -42t-113 -12.5q-45 0 -82 7t-64.5 16.5t-44.5 19t-22 14.5q1 35 1 64q1 25 1 46.5v25.5q6 -5 19.5 -16t37.5 -22t60 -19t86 -8h13q72 0 105.5 29.5t33.5 84.5v38q-17 -34 -51 -54t-94 -20q-53 0 -99 19t-80 53.5
t-53.5 81.5t-19.5 103q0 54 18 101t51 82.5t79 55.5t102 20q60 0 94.5 -18.5t52.5 -57.5v70h5zM171 250q0 -27 10.5 -50.5t28 -41.5t41 -28t50.5 -10t51 10t41.5 28t28 41.5t10.5 50.5t-10.5 50.5t-28 41.5t-41.5 28t-51 10t-50.5 -10t-41 -28t-28 -41.5t-10.5 -50.5z" />
    <glyph glyph-name="uni0068" unicode="h" horiz-adv-x="591" 
d="M399 273q0 51 -28 81.5t-82 30.5q-45 0 -71.5 -30t-28.5 -81l1 -274h-137v693h138v-256l12 13q25 26 59 40.5t69 14.5q48 0 86 -16.5t65 -45.5t41.5 -68.5t14.5 -84.5l-1 -290h-137z" />
    <glyph glyph-name="uni0069" unicode="i" horiz-adv-x="254" 
d="M202 502v-502h-148v502h148zM127 713q35 0 59.5 -24.5t24.5 -59.5q0 -18 -6.5 -33t-18 -26.5t-27 -18t-32.5 -6.5t-32.5 6.5t-27 18t-18 26.5t-6.5 33q0 35 24.5 59.5t59.5 24.5z" />
    <glyph glyph-name="uni006A" unicode="j" horiz-adv-x="260" 
d="M202 -19q0 -98 -39 -145t-134 -47q-17 0 -35 1.5t-33 3.5v125q19 -3 36 -3q35 0 48.5 19.5t13.5 54.5v516h142zM43 633q0 18 6.5 33t18 26.5t27 18t32.5 6.5q35 0 59.5 -24.5t24.5 -59.5q0 -17 -6.5 -32.5t-18 -27t-26.5 -18t-33 -6.5q-35 0 -59.5 24.5t-24.5 59.5z" />
    <glyph glyph-name="uni006B" unicode="k" horiz-adv-x="523" 
d="M525 0h-169l-159 227v-227h-144v693h144v-400l146 207h167l-172 -239z" />
    <glyph glyph-name="uni006C" unicode="l" horiz-adv-x="258" 
d="M55 0v694h148v-694h-148z" />
    <glyph glyph-name="uni006D" unicode="m" horiz-adv-x="858" 
d="M672 293q-2 42 -24.5 70.5t-67.5 28.5q-39 0 -61.5 -26.5t-22.5 -72.5l-1 -293h-140l1 290q-1 21 -6.5 39.5t-16.5 32.5t-27.5 22t-39.5 8q-41 0 -63 -27.5t-21 -75.5v-289h-137v501h137v-68q14 37 51 57t75 20q51 0 89 -20t60 -57l7 -12l6 10q46 79 155 79
q44 0 78.5 -17t58.5 -46t37 -66.5t14 -79.5l-2 -301h-140z" />
    <glyph glyph-name="uni006E" unicode="n" horiz-adv-x="591" 
d="M399 273q0 51 -28 81.5t-82 30.5q-45 0 -71.5 -30t-28.5 -81l1 -274h-137v503h138v-66l12 13q25 26 59 40.5t69 14.5q48 0 86 -16.5t65 -45.5t41.5 -68.5t14.5 -84.5l-1 -290h-137z" />
    <glyph glyph-name="uni006F" unicode="o" horiz-adv-x="610" 
d="M305 -12q-55 0 -104.5 20t-87 55t-59.5 83t-22 103t22 102.5t59.5 82.5t87.5 55t105 20t104.5 -20t86.5 -55t59 -82.5t22 -102.5t-22 -103t-59 -83t-86.5 -55t-105.5 -20zM305 388q-30 0 -55 -11t-43 -30t-28.5 -44.5t-10.5 -53.5t10 -53.5t28.5 -45t43.5 -30.5t55 -11
t55.5 11t44 30.5t28.5 45t10 53.5t-10.5 53.5t-28.5 44.5t-43.5 30t-55.5 11z" />
    <glyph glyph-name="uni0070" unicode="p" horiz-adv-x="623" 
d="M196 439q21 27 55.5 43t88.5 16q53 0 98 -19t79 -53t53 -80.5t19 -102.5q0 -53 -18 -100t-50.5 -81.5t-78 -54.5t-101.5 -20q-101 0 -145 59v-245h-136v693h136v-55zM197 244q0 -27 10 -50.5t27.5 -41t40.5 -27.5t50 -10t50.5 10t41 27.5t27.5 41t10 50.5t-10 50.5
t-27.5 41t-41 27.5t-50.5 10t-50 -10t-40.5 -27.5t-27.5 -41t-10 -50.5z" />
    <glyph glyph-name="uni0071" unicode="q" horiz-adv-x="630" 
d="M427 498h136v-693h-136v245q-44 -59 -145 -59q-55 0 -101 20t-78.5 54.5t-50.5 81.5t-18 100q0 56 19 102.5t53 80.5t79.5 53t97.5 19q54 0 88.5 -16t55.5 -43v55zM169 248q0 -27 10 -50.5t27.5 -41t41 -27.5t50.5 -10t50.5 10t41 27.5t27.5 41t10 50.5t-10 50.5
t-27.5 41t-41 27.5t-50.5 10t-50.5 -10t-41 -27.5t-27.5 -41t-10 -50.5z" />
    <glyph glyph-name="uni0072" unicode="r" horiz-adv-x="393" 
d="M373 369q-23 5 -48 5q-60 0 -98 -31.5t-38 -96.5v-246h-136v501h136v-68q20 38 54 58t88 20q11 0 22 -0.5t20 -2.5v-139z" />
    <glyph glyph-name="uni0073" unicode="s" horiz-adv-x="463" 
d="M405 343q-31 20 -69.5 31.5t-85.5 11.5q-34 0 -51 -9t-17 -24q0 -12 8.5 -20t22.5 -13.5t32.5 -10.5t39.5 -11q32 -9 60 -21t49 -29.5t33 -42t12 -59.5q0 -34 -12.5 -63t-38 -50t-65 -33t-94.5 -12q-59 0 -104.5 14t-85.5 35v126q32 -23 81 -40.5t111 -17.5q34 0 57 9
t23 29q0 14 -15.5 23t-40 16.5t-55.5 16.5t-61 24q-45 21 -65 53.5t-20 78.5q0 37 17 65.5t44 47.5t61 28.5t68 9.5q51 0 91.5 -12t69.5 -31v-120z" />
    <glyph glyph-name="uni0074" unicode="t" horiz-adv-x="377" 
d="M354 3q-14 -5 -37.5 -10.5t-53.5 -5.5q-46 0 -79.5 16t-56 44t-33.5 66t-11 82l1 178h-72v123h72l1 193h137v-194h109v-122h-111l1 -175q0 -18 4 -34t12 -28t21.5 -19.5t32.5 -7.5q18 0 35 6t28 11v-123z" />
    <glyph glyph-name="uni0075" unicode="u" horiz-adv-x="554" 
d="M501 196q0 -46 -15 -84.5t-43 -66t-66.5 -42.5t-86.5 -15h-25q-49 0 -88.5 15t-66.5 42t-41.5 65.5t-14.5 85.5v303h137v-293q0 -18 4.5 -35t14 -30.5t25.5 -21.5t40 -8h6q25 0 41.5 8t26 21.5t13 30.5t3.5 35v293h136v-303z" />
    <glyph glyph-name="uni0076" unicode="v" horiz-adv-x="564" 
d="M363 0h-152l-209 501l145 1l136 -345l137 345h142z" />
    <glyph glyph-name="uni0077" unicode="w" horiz-adv-x="757" 
d="M630 500h132l-179 -500h-123l-81 289l-82 -289h-123l-179 500h133l103 -319l88 319h119l89 -319z" />
    <glyph glyph-name="uni0078" unicode="x" horiz-adv-x="529" 
d="M377 0l-112 156l-113 -156h-160l190 264l-172 237h161l94 -132l93 132h161l-172 -237l190 -264h-160z" />
    <glyph glyph-name="uni0079" unicode="y" horiz-adv-x="573" 
d="M145 505l142 -344l141 344h148l-295 -693h-152l82 188l-214 505h148z" />
    <glyph glyph-name="uni007A" unicode="z" horiz-adv-x="513" 
d="M479 0h-445v127l273 250h-267v124h433v-124l-267 -250h273v-127z" />
    <glyph glyph-name="uni007B" unicode="{" horiz-adv-x="370" 
d="M208 270q14 -11 24 -31t10 -55v-162q0 -10 1.5 -21.5t8 -21t19.5 -15.5t36 -6h49v-114h-105q-27 0 -50.5 8t-41 26t-27.5 45.5t-10 66.5v172q0 23 -13.5 37t-31.5 21t-36 9t-27 2v114q9 0 27 2t36 9t31.5 21t13.5 37v173q0 39 9.5 66.5t27 45t41 25.5t51.5 8h105v-114
h-49q-23 0 -36 -6t-19.5 -15.5t-8 -21t-1.5 -21.5v-161q0 -35 -10 -55t-24.5 -30.5t-32 -14t-33.5 -4.5v-2q16 -1 33.5 -4t32.5 -13z" />
    <glyph glyph-name="uni007C" unicode="|" horiz-adv-x="222" 
d="M48 750h126v-1000h-126v1000z" />
    <glyph glyph-name="uni007D" unicode="}" horiz-adv-x="370" 
d="M170 724q23 -8 41 -26q17 -18 27 -45.5t10 -66.5v-172q0 -23 13 -37t30.5 -21t35.5 -9t29 -2v-114q-11 0 -29 -2t-35.5 -9t-30.5 -21t-13 -37v-173q0 -39 -10 -66.5t-27 -45t-40.5 -25.5t-51.5 -8h-105v114h49q23 0 36 6t19.5 15.5t8 21t1.5 21.5v161q0 35 10 55
t24.5 30.5t32 13.5t33.5 5v2q-16 1 -33.5 4t-32 13.5t-24.5 30.5t-10 55v162q0 10 -1.5 21.5t-8 21t-19.5 15.5t-36 6h-49v114h108q25 0 48 -8z" />
    <glyph glyph-name="uni007E" unicode="~" horiz-adv-x="666" 
d="M518 233q-15 -12 -34.5 -19.5t-44.5 -7.5q-26 0 -54 9.5t-57 22.5q-28 12 -55 24t-47 12q-15 0 -27.5 -6.5t-23 -16t-19.5 -21.5l-18 -24l-36 108q8 16 19.5 31.5t26.5 27.5t34.5 19.5t44.5 7.5q26 0 54 -9.5t57 -22.5q28 -12 55 -24t47 -12q15 0 27.5 6.5t23 16
t19.5 21.5l18 24l36 -108q-8 -16 -19.5 -31.5t-26.5 -27.5z" />
    <glyph glyph-name="uni00A0" unicode="&#xa0;" horiz-adv-x="296" 
 />
    <glyph glyph-name="uni00A1" unicode="&#xa1;" horiz-adv-x="444" 
d="M297 -222h-150v474h150v-474zM307 364q-7 -17 -19 -29q-13 -13 -30 -20t-36 -7t-36 7t-29.5 19.5t-19.5 29.5t-7 36t7 36t19.5 29.5t29.5 19.5t36 7t36 -7t29.5 -19.5t19.5 -29.5t7 -36t-7 -36z" />
    <glyph glyph-name="uni00A2" unicode="&#xa2;" horiz-adv-x="592" 
d="M410 -9q-23 -3 -40 -3v-69h-60v69q-53 3 -96.5 24t-74 55t-47 79t-16.5 97q0 53 16.5 97t47 77t74 54t96.5 27v66h60v-66q51 0 92 -14.5t80 -47.5l-96 -102q-20 20 -39.5 29t-36.5 9v-258q6 0 13.5 1t18 5t23 13t28.5 24l91 -107q-19 -18 -42 -30t-46.5 -19t-45.5 -10z
M220 244q0 -46 21.5 -81t68.5 -49v258q-47 -9 -68.5 -45t-21.5 -83z" />
    <glyph glyph-name="uni00A3" unicode="&#xa3;" horiz-adv-x="592" 
d="M294 414h156v-102h-156v-198h253v-114h-499v114h96v198h-96v102h96v71q0 45 16 87t47.5 75t77.5 53t107 20q57 0 112 -15t97 -53l-100 -107q-20 20 -45.5 31.5t-45.5 11.5q-33 0 -55.5 -11t-36 -28.5t-19 -40t-5.5 -45.5v-49z" />
    <glyph glyph-name="uni00A4" unicode="&#xa4;" horiz-adv-x="592" 
d="M49 436q13 38 36 70l-49 49l60 59l49 -48q32 23 70 35.5t81 12.5t81 -12.5t70 -35.5l49 48l60 -59l-49 -49q49 -67 49 -152t-49 -152l49 -49l-60 -59l-49 48q-32 -23 -70 -35.5t-81 -12.5t-81 12.5t-70 35.5l-49 -48l-60 59l49 49q-23 32 -36 71q-13 38 -13 81t13 82z
M296 220q27 0 50 11q23 10 40.5 28t27.5 42.5t10 52.5t-10 52.5t-27.5 42.5t-40.5 28.5t-50 10.5t-50 -10.5t-40.5 -28.5t-27.5 -42.5t-10 -52.5t10 -52.5t27.5 -42.5t40.5 -28.5t50 -10.5z" />
    <glyph glyph-name="uni00A5" unicode="&#xa5;" horiz-adv-x="592" 
d="M374 158v-158h-156v158h-169v96h169v48l-12 20h-157v96h100l-185 290h182l150 -264l150 264h182l-185 -290h100v-96h-157l-12 -20v-48h169v-96h-169z" />
    <glyph glyph-name="uni00A6" unicode="&#xa6;" horiz-adv-x="222" 
d="M174 -175h-126v350h126v-350zM48 325v350h126v-350h-126z" />
    <glyph glyph-name="uni00A7" unicode="&#xa7;" horiz-adv-x="592" 
d="M77 380q22 35 64 61q-29 20 -46 49.5t-17 65.5q0 44 19.5 76t50.5 53t69 31t76 10q32 0 65 -5t63.5 -18t55.5 -34t40 -52l-126 -72q-11 29 -36.5 45t-55.5 16q-24 0 -44.5 -13t-20.5 -40q0 -25 23 -42t58 -32t75 -30.5t75 -37.5t58 -53.5t23 -76.5q0 -42 -24 -77t-60 -53
q26 -21 40.5 -52.5t14.5 -66.5q0 -49 -23.5 -84t-59.5 -57t-79.5 -32t-83.5 -10q-37 0 -72 6t-65 21t-54.5 39t-41.5 60l128 63q4 -18 15.5 -31t26.5 -21.5t32.5 -12.5t34.5 -4q12 0 26 2.5t26 8.5t20 16t8 25q0 24 -22.5 39.5t-55.5 30t-72.5 29.5t-72.5 37.5t-55.5 55
t-22.5 80.5q0 51 23 87zM192 321q0 -18 8 -30q7 -13 18.5 -22.5t25.5 -16.5t28 -13l102 -47q34 20 34 61q0 14 -6 25.5t-15.5 20t-21 15t-22.5 11.5l-116 55q-35 -20 -35 -59z" />
    <glyph glyph-name="uni00A8" unicode="&#xa8;" horiz-adv-x="260" 
d="M200 565q-15 7 -26 19t-17.5 27.5t-6.5 32.5q0 16 6.5 31t17.5 26t25.5 18t31.5 7q35 0 61 -23t26 -59t-24 -61t-61 -25q-18 0 -33 7zM-52 612q-6 15 -6 32q0 16 6.5 31t17.5 26t25.5 18t31.5 7q35 0 61 -23t26 -59t-24 -61t-61 -25q-18 0 -33 7t-26 19t-18 28z" />
    <glyph glyph-name="uni00A9" unicode="&#xa9;" horiz-adv-x="800" 
d="M256 12q-68 29 -118.5 79.5t-80 118t-29.5 144.5t29.5 144.5t80 118t118.5 80.5q67 29 144 29t144.5 -29.5t118 -80t80 -118t29.5 -144.5t-29.5 -144.5t-80 -118t-118 -80t-144.5 -29.5t-144 30zM151 464q-21 -52 -21 -110t21 -109.5t58 -89.5t86 -60.5t105 -22.5
t105 22.5t86 60.5t58 89.5t21 109.5t-21 109.5t-58 89.5t-86 60.5t-105 22.5t-105 -22.5t-86 -60.5t-58 -89zM211 357q0 46 13 84.5t37.5 66.5t61.5 43.5t85 15.5q34 0 64 -9t54 -27.5t40 -46.5t22 -65h-94q-7 32 -29 45t-49 13q-49 0 -73 -32t-24 -86q0 -56 25.5 -91
t69.5 -35q32 0 55 15t25 52h94q-5 -39 -21.5 -68t-40.5 -49t-53.5 -30t-62.5 -10q-47 0 -84 16.5t-62.5 45.5t-39 68t-13.5 84z" />
    <glyph glyph-name="uni00AA" unicode="&#xaa;" horiz-adv-x="349" 
d="M215 652q-15 14 -41 14q-24 0 -43.5 -10t-35.5 -26l-52 49q27 23 64 35t75 12q43 0 70.5 -10t44 -28.5t23 -46t6.5 -62.5v-148h-96v37h-2q-11 -23 -37 -33t-56 -10q-22 0 -42.5 5.5t-36 17t-24.5 28t-9 38.5q0 38 22 59t53.5 31.5t67.5 12.5t64 2q0 18 -15 33zM218 559
q-11 0 -27 -1t-30.5 -5t-25 -12.5t-10.5 -22.5q0 -17 13.5 -22t29.5 -5q29 0 48.5 16t19.5 33v19h-18z" />
    <glyph glyph-name="uni00AB" unicode="&#xab;" horiz-adv-x="538" 
d="M18 249l159 234l91 -61l-116 -173l116 -173l-91 -61zM510 422l-116 -173l116 -173l-91 -61l-159 234l159 234z" />
    <glyph glyph-name="uni00AC" unicode="&#xac;" horiz-adv-x="666" 
d="M481 336h-422v126h548v-320h-126v194z" />
    <glyph glyph-name="uni00AD" unicode="&#xad;" horiz-adv-x="296" 
d="M25 189v120h246v-120h-246z" />
    <glyph glyph-name="uni00AE" unicode="&#xae;" horiz-adv-x="800" 
d="M138 617q50 50 117.5 79.5t144.5 29.5t144.5 -29.5t118 -80t80 -118t29.5 -144.5t-29.5 -144.5t-80 -118t-118 -80t-144.5 -29.5t-144.5 29.5t-117.5 80.5q-51 50 -80.5 117.5t-29.5 144.5t29.5 144.5t80.5 118.5zM130 354q0 -58 21 -109.5t58 -89.5t86 -60.5t105 -22.5
t105 22.5t86 60.5t58 89.5t21 109.5t-21 109.5t-58 89.5t-86 60.5t-105 22.5t-105 -22.5t-86 -60.5t-58 -89.5t-21 -109.5zM257 553h138q16 0 44 -2t55 -14t47 -37.5t20 -72.5q0 -30 -8 -49.5t-20.5 -32t-29 -19t-33.5 -8.5l100 -155h-105l-89 150h-17v-150h-102v390z
M358 475v-84h41q9 0 19.5 1t19.5 5t15 12.5t6 23.5t-6 23.5t-15 12.5t-19.5 5t-19.5 1h-41z" />
    <glyph glyph-name="uni00AF" unicode="&#xaf;" horiz-adv-x="260" 
d="M-40 591v96h340v-96h-340z" />
    <glyph glyph-name="uni00B0" unicode="&#xb0;" horiz-adv-x="400" 
d="M322 427q-24 -24 -55 -37q-31 -14 -67 -14t-67 13.5t-54.5 37t-37 54.5t-13.5 67t13.5 67t37 54.5t54.5 37t67 13.5t67 -13.5t54.5 -37t37 -54.5t13.5 -67t-13.5 -67t-36.5 -54zM263 486q25 25 25 62t-25 63q-26 25 -63 25t-62.5 -25.5t-25.5 -62.5t25.5 -62.5
t62.5 -25.5t63 26z" />
    <glyph glyph-name="uni00B1" unicode="&#xb1;" horiz-adv-x="666" 
d="M59 323v126h211v128h126v-128h211v-126h-211v-128h-126v128h-211zM607 29h-548v126h548v-126z" />
    <glyph glyph-name="uni00B2" unicode="&#xb2;" horiz-adv-x="385" 
d="M264 712q29 -8 51 -23t34 -37.5t12 -51.5q0 -26 -4 -43t-12 -30t-19 -23t-26 -21l-140 -108v-2h201v-84h-337v89l186 158q14 12 28.5 26t14.5 29q0 21 -18 30t-41 9q-29 0 -46.5 -15.5t-19.5 -38.5l-102 6q5 71 53 104.5t120 33.5q35 0 65 -8z" />
    <glyph glyph-name="uni00B3" unicode="&#xb3;" horiz-adv-x="385" 
d="M192 283q-66 0 -113 27t-62 91l109 22q5 -23 21 -36.5t45 -13.5t48.5 11t19.5 37q0 17 -8 26.5t-21 14t-29.5 5.5t-33.5 1h-25v84h34q14 0 27.5 1.5t24 6.5t16.5 14t6 23q0 16 -15 24.5t-41 8.5q-24 0 -41.5 -11.5t-22.5 -32.5l-110 20q17 64 64.5 89t109.5 25
q32 0 62 -7t52.5 -21t36 -35.5t13.5 -50.5q0 -35 -21 -60.5t-62 -32.5v-2q44 -5 68 -34t24 -66q0 -32 -14 -56t-38 -40t-56 -24t-68 -8z" />
    <glyph glyph-name="uni00B4" unicode="&#xb4;" horiz-adv-x="260" 
d="M131 708h204l-173 -144h-132z" />
    <glyph glyph-name="uni00B5" unicode="&#xb5;" 
d="M356 159q9 17 12 39t3 46v242h150v-486h-144v66h-2q-8 -14 -20.5 -28t-30.5 -25t-41 -18t-50 -7q-17 0 -30 3v-219h-150v714h150v-238q0 -21 1.5 -43.5t9 -41.5t23 -31t44.5 -12t47 10.5t28 28.5z" />
    <glyph glyph-name="uni00B6" unicode="&#xb6;" horiz-adv-x="620" 
d="M561 -133h-108v745h-109v-745h-108v492q-109 0 -166 45t-57 126q0 54 19 88.5t52 54.5t78 27.5t97 7.5h302v-841z" />
    <glyph glyph-name="uni00B7" unicode="&#xb7;" horiz-adv-x="296" 
d="M240 283q0 -19 -7 -36t-19.5 -29.5t-29.5 -19.5t-36 -7t-36 7t-29.5 19.5t-19.5 29.5t-7 36t7 36t19.5 29.5t29.5 19.5t36 7t36 -7t29.5 -19.5t19.5 -29.5t7 -36z" />
    <glyph glyph-name="uni00B8" unicode="&#xb8;" horiz-adv-x="260" 
d="M157 -148q0 18 -17 26q-18 8 -33 8q-17 0 -36 -8l-32 29l62 93h67l-41 -60q22 0 44.5 -2.5t40.5 -11t29.5 -25t11.5 -44.5q0 -27 -14.5 -46t-36 -30t-45.5 -16t-43 -5q-30 0 -64.5 8.5t-60.5 21.5l25 47q12 -5 31.5 -11t45.5 -6q12 0 23.5 1.5t21 5t15.5 9.5t6 16z" />
    <glyph glyph-name="uni00B9" unicode="&#xb9;" horiz-adv-x="385" 
d="M291 714v-425h-108v317l-89 -75l-58 66l159 117h96z" />
    <glyph glyph-name="uni00BA" unicode="&#xba;" horiz-adv-x="397" 
d="M323 465q-24 -20 -56 -30t-69 -10t-69 10t-55.5 29.5t-37 47t-13.5 63.5q0 34 13.5 62t37 47.5t55.5 30.5t69 11t69 -11t56 -30.5t37.5 -47.5t13.5 -62q0 -36 -13.5 -63.5t-37.5 -46.5zM272 575q0 28 -20 47.5t-54 19.5t-53.5 -19.5t-19.5 -47.5q1 -27 20 -46.5t53 -19.5
t54 19.5t20 46.5z" />
    <glyph glyph-name="uni00BB" unicode="&#xbb;" horiz-adv-x="538" 
d="M28 422l91 61l159 -234l-159 -234l-91 61l116 173zM361 15l-91 61l116 173l-116 173l91 61l159 -234z" />
    <glyph glyph-name="uni00BC" unicode="&#xbc;" horiz-adv-x="889" 
d="M824 85v-85h-108v85h-209v78l199 262h118v-256h57v-84h-57zM189 11l405 729l84 -47l-413 -725zM66 531l-58 66l159 117h96v-425h-108v317zM716 305h-2l-99 -136h101v136z" />
    <glyph glyph-name="uni00BD" unicode="&#xbd;" horiz-adv-x="889" 
d="M680 86v-2h201v-84h-337v89l186 158q14 12 28.5 26t14.5 29q0 21 -18 30t-41 9q-29 0 -46.5 -15.5t-19.5 -38.5l-102 6q5 71 53 104.5t120 33.5q35 0 64.5 -8t51.5 -23t34 -37.5t12 -51.5q0 -26 -4 -43t-12 -30t-19 -23t-26 -21zM189 11l405 729l84 -47l-413 -725zM8 597
l159 117h96v-425h-108v317l-89 -75z" />
    <glyph glyph-name="uni00BE" unicode="&#xbe;" horiz-adv-x="889" 
d="M511 163l199 262h118v-256h57v-84h-57v-85h-108v85h-209v78zM34 660q16 21 39 35q22 13 50 19t59 6q32 0 62 -7t52.5 -21t36 -35.5t13.5 -50.5q0 -35 -21 -60.5t-62 -32.5v-2q44 -5 68 -34t24 -66q0 -32 -14 -56t-38 -40t-56 -24t-68 -8q-66 0 -113 27t-62 91l109 22
q5 -23 21 -36.5t45 -13.5t48.5 11t19.5 37q0 17 -8 26.5t-21 14t-29.5 5.5t-33.5 1h-25v84h34q14 0 27.5 1.5t24 6.5t16.5 14t6 23q0 16 -15 24.5t-41 8.5q-24 0 -41.5 -11.5t-22.5 -32.5l-109 20q8 32 25 54zM618 740l84 -47l-413 -725l-76 43zM720 169v136h-2l-99 -136
h101z" />
    <glyph glyph-name="uni00BF" unicode="&#xbf;" horiz-adv-x="556" 
d="M165 -228q-41 13 -71 38q-31 25 -49 62t-18 85q0 28 6 52t20.5 47t38 46.5t59.5 51.5q23 18 31 35t8 34v29h150v-44q0 -30 -8 -51t-27 -39q-28 -27 -51.5 -47t-40.5 -37.5t-26.5 -33t-9.5 -32.5q0 -33 20.5 -51.5t51.5 -18.5q47 0 71.5 26t27.5 63l154 -10
q-11 -106 -78 -161.5t-172 -55.5q-46 0 -87 12zM265 308q-19 0 -36 7t-29.5 19.5t-19.5 29.5t-7 36t7 36t19.5 29.5t29.5 19.5t36 7t36 -7t29.5 -19.5t19.5 -29.5t7 -36t-7 -36t-19.5 -29.5t-29.5 -19.5t-36 -7z" />
    <glyph glyph-name="uni00C0" unicode="&#xc0;" horiz-adv-x="741" 
d="M566 0l-61 150h-275l-59 -150h-172l306 708h129l308 -708h-176zM473 760h-132l-173 144h204zM365 502l-86 -220h173z" />
    <glyph glyph-name="uni00C1" unicode="&#xc1;" horiz-adv-x="741" 
d="M566 0l-61 150h-275l-59 -150h-172l306 708h129l308 -708h-176zM372 904h204l-173 -144h-132zM365 502l-86 -220h173z" />
    <glyph glyph-name="uni00C2" unicode="&#xc2;" horiz-adv-x="741" 
d="M230 150l-59 -150h-172l306 708h129l308 -708h-176l-61 150h-275zM172 760l119 144h163l116 -144h-138l-63 78l-62 -78h-135zM365 502l-86 -220h173z" />
    <glyph glyph-name="uni00C3" unicode="&#xc3;" horiz-adv-x="741" 
d="M566 0l-61 150h-275l-59 -150h-172l306 708h129l308 -708h-176zM417 873q13 -5 28 -5q17 0 27 10.5t17 25.5h78q-5 -29 -14 -54t-24.5 -43.5t-38 -29.5t-53.5 -11q-22 0 -41.5 6.5t-36.5 14.5t-32.5 14.5t-30.5 6.5q-17 0 -27 -14t-15 -28h-79q4 25 14 50t25.5 44.5
t37.5 31.5t50 12q25 0 45 -6t42 -15zM452 282l-87 220l-86 -220h173z" />
    <glyph glyph-name="uni00C4" unicode="&#xc4;" horiz-adv-x="741" 
d="M566 0l-61 150h-275l-59 -150h-172l306 708h129l308 -708h-176zM183 840q0 16 6.5 31t17.5 26t25.5 18t31.5 7q35 0 61 -23t26 -59t-24 -61t-61 -25q-18 0 -33 7t-26 19t-17.5 27.5t-6.5 32.5zM391 840q0 16 6.5 31t17.5 26t25.5 18t31.5 7q35 0 61 -23t26 -59t-24 -61
t-61 -25q-18 0 -33 7t-26 19t-17.5 27.5t-6.5 32.5zM365 502l-86 -220h173z" />
    <glyph glyph-name="uni00C5" unicode="&#xc5;" horiz-adv-x="741" 
d="M566 0l-61 150h-275l-59 -150h-172l306 708h129l308 -708h-176zM371 731q-23 0 -43 9t-35 24t-24 35t-9 43q0 22 9 42.5t24 35.5t35 24t43 9q22 0 42.5 -9t35.5 -24t24 -35.5t9 -42.5q0 -23 -9 -43t-24 -35t-35.5 -24t-42.5 -9zM452 282l-87 220l-86 -220h173zM371 893
q-21 0 -36 -15t-15 -36t15 -36t36 -15t36 15t15 36t-15 36t-36 15z" />
    <glyph glyph-name="uni00C6" unicode="&#xc6;" horiz-adv-x="1037" 
d="M690 564v-132h258v-144h-258v-144h294v-144h-450v150h-263l-95 -150h-191l449 708h538v-144h-282zM534 564h-17l-179 -282h196v282z" />
    <glyph glyph-name="uni00C7" unicode="&#xc7;" horiz-adv-x="685" 
d="M212 32q-55 30 -94 77q-40 47 -62 109t-22 136q0 85 28.5 154t79.5 117.5t121 74.5t153 26q30 0 62.5 -5.5t64 -17.5t60.5 -32t52 -49l-120 -98q-23 28 -56.5 43t-77.5 15t-81.5 -17t-65 -47.5t-43 -72.5t-15.5 -91q0 -50 15.5 -91.5t42.5 -72t63.5 -47.5t78.5 -17
q48 0 85 20t61 56l130 -97q-45 -63 -114 -93t-142 -30h-9q-5 0 -10 1l-29 -43q22 0 44.5 -2.5t40.5 -11t29.5 -25t11.5 -44.5q0 -27 -14.5 -46t-36 -30t-45.5 -16t-43 -5q-30 0 -64.5 8.5t-60.5 21.5l25 47q12 -5 31.5 -11t45.5 -6q12 0 23.5 1.5t21 5t15.5 9.5t6 16
q0 18 -17.5 26t-32.5 8q-17 0 -36 -8l-32 29l54 82q-67 12 -122 43z" />
    <glyph glyph-name="uni00C8" unicode="&#xc8;" horiz-adv-x="630" 
d="M78 0v708h481v-144h-325v-132h307v-144h-307v-144h343v-144h-499zM417 760h-132l-173 144h204z" />
    <glyph glyph-name="uni00C9" unicode="&#xc9;" horiz-adv-x="630" 
d="M78 0v708h481v-144h-325v-132h307v-144h-307v-144h343v-144h-499zM316 904h204l-173 -144h-132z" />
    <glyph glyph-name="uni00CA" unicode="&#xca;" horiz-adv-x="630" 
d="M234 564v-132h307v-144h-307v-144h343v-144h-499v708h481v-144h-325zM251 760h-135l119 144h163l116 -144h-138l-63 78z" />
    <glyph glyph-name="uni00CB" unicode="&#xcb;" horiz-adv-x="630" 
d="M78 708h481v-144h-325v-132h307v-144h-307v-144h343v-144h-499v708zM271 779q-24 -25 -61 -25q-18 0 -33 7t-26 19t-17.5 27.5t-6.5 32.5q0 16 6.5 31t17.5 26t25.5 18t31.5 7q35 0 61 -23t26 -59t-24 -61zM335 840q0 16 6.5 31t17.5 26t25.5 18t31.5 7q35 0 61 -23
t26 -59t-24 -61t-61 -25q-18 0 -33 7t-26 19t-17.5 27.5t-6.5 32.5z" />
    <glyph glyph-name="uni00CC" unicode="&#xcc;" horiz-adv-x="296" 
d="M70 0v708h156v-708h-156zM149 904l101 -144h-132l-173 144h204z" />
    <glyph glyph-name="uni00CD" unicode="&#xcd;" horiz-adv-x="296" 
d="M70 0v708h156v-708h-156zM149 904h204l-173 -144h-132z" />
    <glyph glyph-name="uni00CE" unicode="&#xce;" horiz-adv-x="296" 
d="M70 0v708h156v-708h-156zM209 760l-63 78l-62 -78h-135l119 144h163l116 -144h-138z" />
    <glyph glyph-name="uni00CF" unicode="&#xcf;" horiz-adv-x="296" 
d="M70 0v708h156v-708h-156zM218 761q-15 7 -26 19t-17.5 27.5t-6.5 32.5q0 16 6.5 31t17.5 26t25.5 18t31.5 7q35 0 61 -23t26 -59t-24 -61t-61 -25q-18 0 -33 7zM-34 808q-6 15 -6 32q0 16 6.5 31t17.5 26t25.5 18t31.5 7q35 0 61 -23t26 -59t-24 -61t-61 -25q-18 0 -33 7
t-26 19t-18 28z" />
    <glyph glyph-name="uni00D0" unicode="&#xd0;" horiz-adv-x="759" 
d="M468 689q76 -19 133 -61q57 -43 90.5 -111t33.5 -165q0 -86 -32.5 -151.5t-87.5 -110t-127 -67.5t-151 -23h-255v318h-60v102h60v288h234q85 0 162 -19zM490 192q34 25 54 67q19 41 19 101q0 52 -19.5 90.5t-52.5 63.5t-77.5 37.5t-93.5 12.5h-92v-144h198v-102h-198
v-174h81q54 0 100.5 11t80.5 37z" />
    <glyph glyph-name="uni00D1" unicode="&#xd1;" horiz-adv-x="815" 
d="M230 504h-2v-504h-156v708h212l301 -492h2v492h156v-708h-204zM433 773q-20 6 -37 14t-32.5 14.5t-30.5 6.5q-17 0 -27 -14t-15 -28h-79q4 25 14 50t25.5 44.5t37.5 31.5t50 12q25 0 45 -6t42 -15q14 -5 27.5 -10t28.5 -5q17 0 27 10.5t17 25.5h78q-5 -29 -14 -54
t-24.5 -43.5t-38 -29.5t-53.5 -11q-22 0 -41 7z" />
    <glyph glyph-name="uni00D2" unicode="&#xd2;" horiz-adv-x="832" 
d="M416 -18q-83 0 -153 26t-121 74.5t-79.5 117.5t-28.5 154t28.5 154t79.5 117.5t121 74.5t153 26t153 -26t121 -74.5t79.5 -117.5t28.5 -154t-28.5 -154t-79.5 -117.5t-121 -74.5t-153 -26zM416 582q-50 0 -90.5 -17t-69.5 -47.5t-44.5 -72.5t-15.5 -91q0 -50 15.5 -91.5
t44.5 -72t69.5 -47.5t90.5 -17t90.5 17t69.5 47.5t44.5 72t15.5 91.5q0 49 -15.5 91t-44.5 72.5t-69.5 47.5t-90.5 17zM386 760l-173 144h204l101 -144h-132z" />
    <glyph glyph-name="uni00D3" unicode="&#xd3;" horiz-adv-x="832" 
d="M416 -18q-83 0 -153 26t-121 74.5t-79.5 117.5t-28.5 154t28.5 154t79.5 117.5t121 74.5t153 26t153 -26t121 -74.5t79.5 -117.5t28.5 -154t-28.5 -154t-79.5 -117.5t-121 -74.5t-153 -26zM507 143q40 17 69 47.5t44.5 72t15.5 91.5q0 49 -15.5 91t-44.5 72.5t-69.5 47.5
t-90.5 17t-90.5 -17t-69.5 -47.5t-44.5 -72.5t-15.5 -91q0 -50 15.5 -91.5t44.5 -72t69.5 -47.5t90.5 -17t91 17zM448 760h-132l101 144h204z" />
    <glyph glyph-name="uni00D4" unicode="&#xd4;" horiz-adv-x="832" 
d="M263 700q70 26 153 26t153 -26t121 -74.5t79.5 -117.5t28.5 -154t-28.5 -154t-79.5 -117.5t-121 -74.5t-153 -26t-153 26t-121 74.5t-79.5 117.5t-28.5 154t28.5 154t79.5 117.5t121 74.5zM212 263q15 -42 44 -72.5t69.5 -47.5t90.5 -17t90.5 17t69.5 47.5t44.5 72
t15.5 91.5q0 49 -15.5 91t-44.5 72.5t-69.5 47.5t-90.5 17t-90.5 -17t-69.5 -47.5t-44.5 -72.5t-15.5 -91q0 -50 16 -91zM336 904h163l116 -144h-138l-63 78l-62 -78h-135z" />
    <glyph glyph-name="uni00D5" unicode="&#xd5;" horiz-adv-x="832" 
d="M142 83q-51 48 -79.5 117t-28.5 154t28.5 154t79.5 117.5t121 74.5t153 26t153 -26t121 -74.5t79.5 -117.5t28.5 -154t-28.5 -154t-79.5 -117.5t-121 -74.5t-153 -26t-153 26t-121 75zM196 354q0 -50 15.5 -91.5t44.5 -72t69.5 -47.5t90.5 -17t90.5 17t69.5 47.5t44.5 72
t15.5 91.5q0 49 -15.5 91t-44.5 72.5t-69.5 47.5t-90.5 17t-90.5 -17t-69.5 -47.5t-44.5 -72.5t-15.5 -91zM234 816q10 25 25.5 44.5t37.5 31.5t50 12q25 0 45 -6t42 -15q14 -5 27.5 -10t28.5 -5q17 0 27 10.5t17 25.5h78q-5 -29 -14 -54t-24.5 -43.5t-38 -29.5t-53.5 -11
q-22 0 -41.5 6.5t-36.5 14.5t-32.5 14.5t-30.5 6.5q-17 0 -27 -14t-15 -28h-79q4 25 14 50z" />
    <glyph glyph-name="uni00D6" unicode="&#xd6;" horiz-adv-x="832" 
d="M263 700q70 26 153 26t153 -26t121 -74.5t79.5 -117.5t28.5 -154t-28.5 -154t-79.5 -117.5t-121 -74.5t-153 -26t-153 26t-121 74.5t-79.5 117.5t-28.5 154t28.5 154t79.5 117.5t121 74.5zM212 263q15 -42 44 -72.5t69.5 -47.5t90.5 -17t90.5 17t69.5 47.5t44.5 72
t15.5 91.5q0 49 -15.5 91t-44.5 72.5t-69.5 47.5t-90.5 17t-90.5 -17t-69.5 -47.5t-44.5 -72.5t-15.5 -91q0 -50 16 -91zM578 899q26 -23 26 -59t-24 -61t-61 -25q-18 0 -33 7t-26 19t-17.5 27.5t-6.5 32.5q0 16 6.5 31t17.5 26t25.5 18t31.5 7q35 0 61 -23zM235 871
q6 15 17 26t25.5 18t31.5 7q35 0 61 -23t26 -59t-24 -61t-61 -25q-18 0 -33 7t-26 19t-17.5 27.5t-6.5 32.5q0 16 7 31z" />
    <glyph glyph-name="uni00D7" unicode="&#xd7;" horiz-adv-x="666" 
d="M510 37l-176 176l-177 -177l-89 86l174 181l-178 172l93 95l177 -175l172 174l89 -86l-173 -180l180 -173z" />
    <glyph glyph-name="uni00D8" unicode="&#xd8;" horiz-adv-x="832" 
d="M569 8q-70 -26 -153 -26q-69 0 -128 18t-105 50l-93 -101l-56 48l93 102q-45 48 -69 112.5t-24 142.5q0 85 28.5 154t79.5 117.5t121 74.5t153 26q131 0 227 -64l92 100l55 -49l-90 -98q47 -48 72.5 -114t25.5 -147q0 -85 -28.5 -154t-79.5 -117.5t-121 -74.5zM416 126
q50 0 91 17q40 17 69 47.5t44.5 72t15.5 91.5q0 42 -11.5 78.5t-32.5 64.5l-305 -333q26 -18 58.5 -28t70.5 -10zM539 548q-53 34 -123 34q-50 0 -90.5 -17t-69.5 -47.5t-44.5 -72.5t-15.5 -91q0 -78 39 -137z" />
    <glyph glyph-name="uni00D9" unicode="&#xd9;" horiz-adv-x="741" 
d="M473 170q19 20 29.5 48t10.5 61v429h156v-435q0 -63 -19 -116t-56.5 -92t-93.5 -61t-129 -22q-74 0 -130 22t-93.5 61t-56.5 92t-19 116v435h156v-429q0 -33 10.5 -61t29.5 -48.5t45.5 -32t57.5 -11.5t57 11.5t45 32.5zM341 760l-173 144h204l101 -144h-132z" />
    <glyph glyph-name="uni00DA" unicode="&#xda;" horiz-adv-x="741" 
d="M473 170q19 20 29.5 48t10.5 61v429h156v-435q0 -63 -19 -116t-56.5 -92t-93.5 -61t-129 -22q-74 0 -130 22t-93.5 61t-56.5 92t-19 116v435h156v-429q0 -33 10.5 -61t29.5 -48.5t45.5 -32t57.5 -11.5t57 11.5t45 32.5zM271 760l101 144h204l-173 -144h-132z" />
    <glyph glyph-name="uni00DB" unicode="&#xdb;" horiz-adv-x="741" 
d="M503 218q10 28 10 61v429h156v-435q0 -63 -19 -116t-56.5 -92t-93.5 -61t-129 -22q-74 0 -130 22t-93.5 61t-56.5 92t-19 116v435h156v-429q0 -33 10.5 -61t29.5 -48.5t45.5 -32t57.5 -11.5t57 11.5t45 32t30 48.5zM432 760l-63 78l-62 -78h-135l119 144h163l116 -144
h-138z" />
    <glyph glyph-name="uni00DC" unicode="&#xdc;" horiz-adv-x="741" 
d="M268 170q19 -21 45.5 -32.5t57.5 -11.5t57 11.5t45 32t29.5 48.5t10.5 61v429h156v-435q0 -63 -19 -116t-56.5 -92t-93.5 -61t-129 -22q-74 0 -130 22t-93.5 61t-56.5 92t-19 116v435h156v-429q0 -33 10.5 -61t29.5 -48zM233 761q-15 7 -26 19t-17.5 27.5t-6.5 32.5
q0 16 6.5 31t17.5 26t25.5 18t31.5 7q35 0 61 -23t26 -59t-24 -61t-61 -25q-18 0 -33 7zM398 871q6 15 17 26t25.5 18t31.5 7q35 0 61 -23t26 -59t-24 -61t-61 -25q-18 0 -33 7t-26 19t-17.5 27.5t-6.5 32.5q0 16 7 31z" />
    <glyph glyph-name="uni00DD" unicode="&#xdd;" horiz-adv-x="648" 
d="M246 0v302l-266 406h194l150 -265l159 265h185l-266 -406v-302h-156zM325 930h204l-173 -144h-132z" />
    <glyph glyph-name="uni00DE" unicode="&#xde;" horiz-adv-x="630" 
d="M72 708h156v-126h107q55 0 104 -10t85.5 -34.5t58 -66t21.5 -104.5q0 -62 -20 -104t-55 -67t-83 -35.5t-104 -10.5h-114v-150h-156v708zM430 411q-13 16 -32 25q-20 9 -44 11.5t-46 2.5h-80v-168h104q21 0 40.5 4t35 13.5t25 26t9.5 41.5q0 27 -12 44z" />
    <glyph glyph-name="uni00DF" unicode="&#xdf;" horiz-adv-x="630" 
d="M389 592q-8 14 -21 24t-29 15t-34 5q-46 0 -74 -26.5t-28 -71.5v-538h-150v513q0 255 256 255q42 0 83.5 -10.5t74.5 -33t53 -57t20 -82.5q0 -58 -24 -98t-78 -62v-2q79 -16 117.5 -72t38.5 -134q0 -53 -18 -95.5t-49.5 -72t-75 -45.5t-95.5 -16q-47 0 -93 12v122
q26 -8 49 -8q28 0 53 7t44 21.5t30 36.5t11 52q0 64 -39 93t-98 29h-20v126h12q38 0 64.5 20t26.5 59q0 19 -7 34z" />
    <glyph glyph-name="uni00E0" unicode="&#xe0;" horiz-adv-x="537" 
d="M262 396q-37 0 -67.5 -15.5t-54.5 -42.5l-80 82q42 39 98 58.5t116 19.5q66 0 108.5 -16.5t68 -48.5t35.5 -78.5t10 -107.5v-247h-138v61h-2q-25 -39 -66.5 -56t-87.5 -17q-34 0 -65.5 9.5t-55.5 28.5t-38 47t-14 65q0 42 15.5 71t42 48t60.5 29.5t70.5 15.5t73 6t67.5 1
q0 40 -28.5 63.5t-67.5 23.5zM239 564l-173 144h204l101 -144h-132zM279 212q-26 -2 -49.5 -9t-40 -21t-16.5 -39q0 -27 23 -40t48 -13q22 0 42.5 6t36.5 17t25.5 28t9.5 40v32h-37q-17 0 -42 -1z" />
    <glyph glyph-name="uni00E1" unicode="&#xe1;" horiz-adv-x="537" 
d="M383 482q42 -17 67.5 -49t35.5 -78.5t10 -107.5v-247h-138v61h-2q-25 -39 -66.5 -56t-87.5 -17q-34 0 -65.5 9.5t-55.5 28.5t-38 47t-14 65q0 42 15.5 71t42 48t60.5 29.5t70.5 15.5t73 6t67.5 1q0 40 -28.5 63.5t-67.5 23.5q-37 0 -67.5 -15.5t-54.5 -42.5l-80 82
q42 39 98 58.5t116 19.5q66 0 109 -16zM301 564h-132l101 144h204zM323 113q16 11 25.5 28t9.5 40v32h-37q-17 0 -42.5 -1.5t-49 -8.5t-40 -21t-16.5 -39q0 -27 23 -40t48 -13q22 0 42.5 6t36.5 17z" />
    <glyph glyph-name="uni00E2" unicode="&#xe2;" horiz-adv-x="537" 
d="M383 482q42 -17 67.5 -49t35.5 -78.5t10 -107.5v-247h-138v61h-2q-25 -39 -66.5 -56t-87.5 -17q-34 0 -65.5 9.5t-55.5 28.5t-38 47t-14 65q0 42 15.5 71t42 48t60.5 29.5t70.5 15.5t73 6t67.5 1q0 40 -28.5 63.5t-67.5 23.5q-37 0 -67.5 -15.5t-54.5 -42.5l-80 82
q42 39 98 58.5t116 19.5q66 0 109 -16zM205 564h-135l119 144h163l116 -144h-138l-63 78zM279 212q-26 -2 -49.5 -9t-40 -21t-16.5 -39q0 -27 23 -40t48 -13q22 0 42.5 6t36.5 17t25.5 28t9.5 40v32h-37q-17 0 -42 -1z" />
    <glyph glyph-name="uni00E3" unicode="&#xe3;" horiz-adv-x="537" 
d="M60 420q42 39 98 58.5t116 19.5q66 0 108.5 -16.5t68 -48.5t35.5 -78.5t10 -107.5v-247h-138v61h-2q-25 -39 -66.5 -56t-87.5 -17q-34 0 -65.5 9.5t-55.5 28.5t-38 47t-14 65q0 42 15.5 71t42 48t60.5 29.5t70.5 15.5t73 6t67.5 1q0 40 -28.5 63.5t-67.5 23.5
q-37 0 -67.5 -15.5t-54.5 -42.5zM87 620q10 25 25.5 44.5t37.5 31.5t50 12q25 0 45 -6t42 -15q14 -5 27.5 -10t28.5 -5q17 0 27 10.5t17 25.5h78q-5 -29 -14 -54t-24.5 -43.5t-38 -29.5t-53.5 -11q-22 0 -41.5 6.5t-36.5 14.5t-32.5 14.5t-30.5 6.5q-17 0 -27 -14t-15 -28
h-79q4 25 14 50zM196 103q23 -13 48 -13q22 0 42.5 6t36.5 17t25.5 28t9.5 40v32h-37q-17 0 -42.5 -1.5t-49 -8.5t-40 -21t-16.5 -39q0 -27 23 -40z" />
    <glyph glyph-name="uni00E4" unicode="&#xe4;" horiz-adv-x="537" 
d="M158 479q56 19 116 19q66 0 108.5 -16.5t68 -48.5t35.5 -78.5t10 -107.5v-247h-138v61h-2q-25 -39 -66.5 -56t-87.5 -17q-34 0 -65.5 9.5t-55.5 28.5t-38 47t-14 65q0 42 15.5 71t42 48t60.5 29.5t70.5 15.5t73 6t67.5 1q0 40 -28.5 63.5t-67.5 23.5q-37 0 -67.5 -15.5
t-54.5 -42.5l-80 82q42 39 98 59zM88 675q6 15 17 26t25.5 18t31.5 7q35 0 61 -23t26 -59t-24 -61t-61 -25q-18 0 -33 7t-26 19t-17.5 27.5t-6.5 32.5q0 16 7 31zM296 675q6 15 17 26t25.5 18t31.5 7q35 0 61 -23t26 -59t-24 -61t-61 -25q-18 0 -33 7t-26 19t-17.5 27.5
t-6.5 32.5q0 16 7 31zM196 103q23 -13 48 -13q22 0 42.5 6t36.5 17t25.5 28t9.5 40v32h-37q-17 0 -42.5 -1.5t-49 -8.5t-40 -21t-16.5 -39q0 -27 23 -40z" />
    <glyph glyph-name="uni00E5" unicode="&#xe5;" horiz-adv-x="537" 
d="M158 479q56 19 116 19q66 0 108.5 -16.5t68 -48.5t35.5 -78.5t10 -107.5v-247h-138v61h-2q-25 -39 -66.5 -56t-87.5 -17q-34 0 -65.5 9.5t-55.5 28.5t-38 47t-14 65q0 42 15.5 71t42 48t60.5 29.5t70.5 15.5t73 6t67.5 1q0 40 -28.5 63.5t-67.5 23.5q-37 0 -67.5 -15.5
t-54.5 -42.5l-80 82q42 39 98 59zM167 699q9 20 24 35t35 24t43 9t43 -9t35 -24t24 -35t9 -43t-9 -43t-24 -35t-35 -24t-43 -9t-43 9t-35 24t-24 35t-9 43t9 43zM173 143q0 -27 23 -40t48 -13q22 0 42.5 6t36.5 17t25.5 28t9.5 40v32h-37q-17 0 -42.5 -1.5t-49 -8.5t-40 -21
t-16.5 -39zM233 620q15 -15 36 -15t36 15t15 36t-15 36t-36 15t-36 -15t-15 -36t15 -36z" />
    <glyph glyph-name="uni00E6" unicode="&#xe6;" horiz-adv-x="852" 
d="M60 420q42 39 98 58.5t116 19.5q43 0 84.5 -14t73.5 -45q30 29 72.5 44t90.5 15q52 0 94.5 -18t72 -51.5t45.5 -80.5t16 -105v-47h-348q9 -43 39 -68.5t74 -25.5q37 0 62.5 16.5t44.5 42.5l105 -77q-36 -46 -91 -71t-114 -25q-60 0 -111 17t-83 62q-32 -44 -83.5 -61.5
t-115.5 -17.5q-34 0 -65.5 9.5t-55.5 28.5t-38 47t-14 65q0 39 15 66t39.5 45t56 27.5t65 14.5t66.5 6t60 1h18q0 44 -23 71t-64 27q-37 0 -67.5 -15.5t-54.5 -42.5zM173 139q0 -17 7.5 -26.5t18.5 -14.5t25 -6.5t26 -1.5q54 0 76.5 29t22.5 77h-18q-17 0 -44 -1t-52.5 -6
t-43.5 -17t-18 -33zM648 363q-26 27 -67 27q-25 0 -44 -8t-32.5 -20.5t-21 -29t-8.5 -34.5h198q1 38 -25 65z" />
    <glyph glyph-name="uni00E7" unicode="&#xe7;" horiz-adv-x="482" 
d="M275 -174q9 4 15 10t6 16q0 18 -17.5 26t-32.5 8q-17 0 -36 -8l-32 29l60 90q-44 9 -80.5 30.5t-63 53t-41.5 72.5t-15 90q0 58 21 105t57.5 80.5t86 51.5t105.5 18q43 0 90.5 -14.5t82.5 -50.5l-99 -104q-11 16 -31 26.5t-43 10.5q-57 0 -88.5 -34t-31.5 -89t31.5 -89
t88.5 -34q25 0 43 11t31 26l99 -104q-35 -36 -82.5 -50.5t-90.5 -14.5q-7 0 -9 1l-33 -49q22 0 44.5 -2.5t40.5 -11t29.5 -25t11.5 -44.5q0 -27 -14.5 -46t-36 -30t-45.5 -16t-43 -5q-30 0 -64.5 8.5t-60.5 21.5l25 47q12 -5 31.5 -11t45.5 -6q12 0 23.5 1.5t21.5 4.5z" />
    <glyph glyph-name="uni00E8" unicode="&#xe8;" 
d="M364 119q25 16 44 42l105 -77q-36 -46 -91 -71t-114 -25q-56 0 -105.5 18t-86 51.5t-57.5 80.5t-21 105t21 105t57.5 80.5t86 51.5t105.5 18q52 0 94.5 -18t72 -51.5t45.5 -80.5t16 -105v-47h-348q9 -43 39 -68.5t74 -25.5q37 0 63 17zM288 708l101 -144h-132l-173 144
h204zM294 390q-25 0 -44 -8t-32.5 -20.5t-21 -29t-8.5 -34.5h198q1 38 -25 65t-67 27z" />
    <glyph glyph-name="uni00E9" unicode="&#xe9;" 
d="M364 119q25 16 44 42l105 -77q-36 -46 -91 -71t-114 -25q-56 0 -105.5 18t-86 51.5t-57.5 80.5t-21 105t21 105t57.5 80.5t86 51.5t105.5 18q52 0 94.5 -18t72 -51.5t45.5 -80.5t16 -105v-47h-348q9 -43 39 -68.5t74 -25.5q37 0 63 17zM187 564l101 144h204l-173 -144
h-132zM361 363q-26 27 -67 27q-25 0 -44 -8t-32.5 -20.5t-21 -29t-8.5 -34.5h198q1 38 -25 65z" />
    <glyph glyph-name="uni00EA" unicode="&#xea;" 
d="M364 119q25 16 44 42l105 -77q-36 -46 -91 -71t-114 -25q-56 0 -105.5 18t-86 51.5t-57.5 80.5t-21 105t21 105t57.5 80.5t86 51.5t105.5 18q52 0 94.5 -18t72 -51.5t45.5 -80.5t16 -105v-47h-348q9 -43 39 -68.5t74 -25.5q37 0 63 17zM223 564h-135l119 144h163
l116 -144h-138l-63 78zM294 390q-25 0 -44 -8t-32.5 -20.5t-21 -29t-8.5 -34.5h198q1 38 -25 65t-67 27z" />
    <glyph glyph-name="uni00EB" unicode="&#xeb;" 
d="M364 119q25 16 44 42l105 -77q-36 -46 -91 -71t-114 -25q-56 0 -105.5 18t-86 51.5t-57.5 80.5t-21 105t21 105t57.5 80.5t86 51.5t105.5 18q52 0 94.5 -18t72 -51.5t45.5 -80.5t16 -105v-47h-348q9 -43 39 -68.5t74 -25.5q37 0 63 17zM449 703q26 -23 26 -59t-24 -61
t-61 -25q-18 0 -33 7t-26 19t-17.5 27.5t-6.5 32.5q0 16 6.5 31t17.5 26t25.5 18t31.5 7q35 0 61 -23zM243 583q-24 -25 -61 -25q-18 0 -33 7t-26 19t-17.5 27.5t-6.5 32.5q0 16 6.5 31t17.5 26t25.5 18t31.5 7q35 0 61 -23t26 -59t-24 -61zM250 382q-19 -8 -32.5 -20.5
t-21 -29t-8.5 -34.5h198q1 38 -25 65t-67 27q-25 0 -44 -8z" />
    <glyph glyph-name="uni00EC" unicode="&#xec;" horiz-adv-x="260" 
d="M55 0v486h150v-486h-150zM131 708l101 -144h-132l-173 144h204z" />
    <glyph glyph-name="uni00ED" unicode="&#xed;" horiz-adv-x="260" 
d="M55 0v486h150v-486h-150zM131 708h204l-173 -144h-132z" />
    <glyph glyph-name="uni00EE" unicode="&#xee;" horiz-adv-x="260" 
d="M55 0v486h150v-486h-150zM191 564l-63 78l-62 -78h-135l119 144h163l116 -144h-138z" />
    <glyph glyph-name="uni00EF" unicode="&#xef;" horiz-adv-x="260" 
d="M55 0v486h150v-486h-150zM200 565q-15 7 -26 19t-17.5 27.5t-6.5 32.5q0 16 6.5 31t17.5 26t25.5 18t31.5 7q35 0 61 -23t26 -59t-24 -61t-61 -25q-18 0 -33 7zM-52 612q-6 15 -6 32q0 16 6.5 31t17.5 26t25.5 18t31.5 7q35 0 61 -23t26 -59t-24 -61t-61 -25q-18 0 -33 7
t-26 19t-18 28z" />
    <glyph glyph-name="uni00F0" unicode="&#xf0;" horiz-adv-x="610" 
d="M330 541q-15 18 -30 35q-16 16 -28 27l-106 -45l-72 68l108 46q-5 5 -13 12.5t-17.5 16t-19.5 16.5t-19 14l122 70q23 -17 42.5 -35t37.5 -37l114 48l77 -67l-123 -51q24 -25 53.5 -60t56 -81.5t44.5 -104.5t18 -129q0 -68 -17.5 -123t-52 -93.5t-84.5 -59.5t-116 -20
q-56 0 -105.5 18t-86 51.5t-57.5 80.5t-21 105t21.5 105t56.5 80.5t79.5 51.5t90.5 18q26 0 52 -4.5t46 -21.5l2 2q-10 14 -24 31.5t-29 35.5zM394 332q-32 34 -89 34t-88.5 -34t-31.5 -89t31.5 -89t88.5 -34t88.5 34t31.5 89t-31 89z" />
    <glyph glyph-name="uni00F1" unicode="&#xf1;" 
d="M293 366q-29 0 -47 -10.5t-27.5 -28t-12.5 -39.5t-3 -46v-242h-150v486h144v-66h2q7 14 20 28t31 25t41 18t50 7q57 0 92 -17.5t54.5 -48.5t26.5 -73t7 -91v-268h-150v238q0 21 -1.5 43.5t-9 41.5t-23 31t-44.5 12zM333 677q13 -5 28 -5q17 0 27 10.5t17 25.5h78
q-5 -29 -14 -54t-24.5 -43.5t-38 -29.5t-53.5 -11q-22 0 -41.5 6.5t-36.5 14.5t-32.5 14.5t-30.5 6.5q-17 0 -27 -14t-15 -28h-79q4 25 14 50t25.5 44.5t37.5 31.5t50 12q25 0 45 -6t42 -15z" />
    <glyph glyph-name="uni00F2" unicode="&#xf2;" horiz-adv-x="610" 
d="M411 6q-50 -18 -106 -18t-105.5 18t-86 51.5t-57.5 80.5t-21 105t21 105t57.5 80.5t86 51.5t105.5 18t105.5 -18t86 -51.5t57.5 -80.5t21 -105t-21 -105t-57.5 -80.5t-85.5 -51.5zM425 243q0 55 -31.5 89t-88.5 34t-88.5 -34t-31.5 -89t31.5 -89t88.5 -34t88.5 34
t31.5 89zM306 708l101 -144h-132l-173 144h204z" />
    <glyph glyph-name="uni00F3" unicode="&#xf3;" horiz-adv-x="610" 
d="M497 429q36 -34 57 -81t21 -105t-21 -105t-57.5 -80.5t-86 -51.5t-105.5 -18t-105.5 18t-86 51.5t-57.5 80.5t-21 105t21 105t57.5 80.5t86 51.5t105.5 18t105.5 -18t86.5 -51zM394 332q-32 34 -89 34t-88.5 -34t-31.5 -89t31.5 -89t88.5 -34t88.5 34t31.5 89t-31 89z
M510 708l-173 -144h-132l101 144h204z" />
    <glyph glyph-name="uni00F4" unicode="&#xf4;" horiz-adv-x="610" 
d="M497 429q36 -34 57 -81t21 -105t-21 -105t-57.5 -80.5t-86 -51.5t-105.5 -18t-105.5 18t-86 51.5t-57.5 80.5t-21 105t21 105t57.5 80.5t86 51.5t105.5 18t105.5 -18t86.5 -51zM394 154q31 34 31 89t-31.5 89t-88.5 34t-88.5 -34t-31.5 -89t31.5 -89t88.5 -34t89 34z
M303 642l-62 -78h-135l119 144h163l116 -144h-138z" />
    <glyph glyph-name="uni00F5" unicode="&#xf5;" horiz-adv-x="610" 
d="M305 -12q-56 0 -105.5 18t-86 51.5t-57.5 80.5t-21 105t21 105t57.5 80.5t86 51.5t105.5 18t105.5 -18t86 -51.5t57.5 -80.5t21 -105t-21 -105t-57.5 -80.5t-86 -51.5t-105.5 -18zM394 154q31 34 31 89t-31.5 89t-88.5 34t-88.5 -34t-31.5 -89t31.5 -89t88.5 -34t89 34z
M351 677q13 -5 28 -5q17 0 27 10.5t17 25.5h78q-5 -29 -14 -54t-24.5 -43.5t-38 -29.5t-53.5 -11q-22 0 -41.5 6.5t-36.5 14.5t-32.5 14.5t-30.5 6.5q-17 0 -27 -14t-15 -28h-79q4 25 14 50t25.5 44.5t37.5 31.5t50 12q25 0 45 -6t42 -15z" />
    <glyph glyph-name="uni00F6" unicode="&#xf6;" horiz-adv-x="610" 
d="M35 243q0 58 21 105t57.5 80.5t86 51.5t105.5 18t105.5 -18t86 -51.5t57.5 -80.5t21 -105t-21 -105t-57.5 -80.5t-86 -51.5t-105.5 -18t-105.5 18t-86 51.5t-57.5 80.5t-21 105zM394 154q31 34 31 89t-31.5 89t-88.5 34t-88.5 -34t-31.5 -89t31.5 -89t88.5 -34t89 34z
M325 644q0 16 6.5 31t17.5 26t25.5 18t31.5 7q35 0 61 -23t26 -59t-24 -61t-61 -25q-18 0 -33 7t-26 19t-17.5 27.5t-6.5 32.5zM285 644q0 -36 -24 -61t-61 -25q-18 0 -33 7t-26 19t-17.5 27.5t-6.5 32.5q0 16 6.5 31t17.5 26t25.5 18t31.5 7q35 0 61 -23t26 -59z" />
    <glyph glyph-name="uni00F7" unicode="&#xf7;" horiz-adv-x="666" 
d="M607 366v-126h-548v126h548zM367 413q-16 -7 -34 -7t-33.5 7t-27 18.5t-18.5 27t-7 33.5t7 33.5t18.5 27t27 18.5t33.5 7t34 -7q15 -7 26.5 -18.5t18.5 -27t7 -33.5t-7 -33.5t-18.5 -27t-26.5 -18.5zM333 200q18 0 34 -7q15 -7 26.5 -18.5t18.5 -27t7 -33.5t-7 -33.5
t-18.5 -27t-27 -18.5t-33.5 -7t-33.5 7t-27 18.5t-18.5 27t-7 33.5t7 33.5t18.5 27t27 18.5t33.5 7z" />
    <glyph glyph-name="uni00F8" unicode="&#xf8;" horiz-adv-x="610" 
d="M395 485q41 -13 75 -36l67 67l47 -45l-66 -66q27 -32 42 -73t15 -89q0 -58 -21 -105t-57.5 -80.5t-86 -51.5t-105.5 -18q-90 0 -159 46l-73 -73l-47 45l70 70q-29 32 -45 74t-16 93q0 58 21 105t57.5 80.5t86 51.5t105.5 18q48 0 90 -13zM185 243q0 -36 15 -63l170 170
q-27 16 -65 16q-57 0 -88.5 -34t-31.5 -89zM394 154q31 34 31 89q0 31 -12 57l-167 -166q26 -14 59 -14q57 0 89 34z" />
    <glyph glyph-name="uni00F9" unicode="&#xf9;" 
d="M355 38q-13 -14 -31 -25t-41 -18t-50 -7q-57 0 -92.5 17.5t-55 48.5t-26 73t-6.5 91v268h150v-238q0 -21 1.5 -43.5t9 -41.5t23 -31t44.5 -12t47 10.5t27.5 28t12.5 39.5t3 46v242h150v-486h-144v66h-2q-8 -14 -20 -28zM389 564h-132l-173 144h204z" />
    <glyph glyph-name="uni00FA" unicode="&#xfa;" 
d="M355 38q-13 -14 -31 -25t-41 -18t-50 -7q-57 0 -92.5 17.5t-55 48.5t-26 73t-6.5 91v268h150v-238q0 -21 1.5 -43.5t9 -41.5t23 -31t44.5 -12t47 10.5t27.5 28t12.5 39.5t3 46v242h150v-486h-144v66h-2q-8 -14 -20 -28zM492 708l-173 -144h-132l101 144h204z" />
    <glyph glyph-name="uni00FB" unicode="&#xfb;" 
d="M356 159q9 17 12 39t3 46v242h150v-486h-144v66h-2q-8 -14 -20.5 -28t-30.5 -25t-41 -18t-50 -7q-57 0 -92.5 17.5t-55 48.5t-26 73t-6.5 91v268h150v-238q0 -21 1.5 -43.5t9 -41.5t23 -31t44.5 -12t47 10.5t28 28.5zM285 642l-62 -78h-135l119 144h163l116 -144h-138z
" />
    <glyph glyph-name="uni00FC" unicode="&#xfc;" 
d="M203 486v-238q0 -21 1.5 -43.5t9 -41.5t23 -31t44.5 -12t47 10.5t27.5 28t12.5 39.5t3 46v242h150v-486h-144v66h-2q-8 -14 -20.5 -28t-30.5 -25t-41 -18t-50 -7q-57 0 -92.5 17.5t-55 48.5t-26 73t-6.5 91v268h150zM241 703q26 -23 26 -59t-24 -61t-61 -25q-18 0 -33 7
t-26 19t-17.5 27.5t-6.5 32.5q0 16 6.5 31t17.5 26t25.5 18t31.5 7q35 0 61 -23zM307 644q0 16 6.5 31t17.5 26t25.5 18t31.5 7q35 0 61 -23t26 -59t-24 -61t-61 -25q-18 0 -33 7t-26 19t-17.5 27.5t-6.5 32.5z" />
    <glyph glyph-name="uni00FD" unicode="&#xfd;" horiz-adv-x="556" 
d="M399 486h154l-220 -565q-15 -39 -29 -69t-35.5 -50.5t-54.5 -31t-87 -10.5q-58 0 -112 18l20 123q34 -15 70 -15q25 0 41 5.5t26.5 16t17.5 25.5t15 35l11 28l-213 490h162l125 -321h2zM310 564h-132l101 144h204z" />
    <glyph glyph-name="uni00FE" unicode="&#xfe;" horiz-adv-x="630" 
d="M466 10q-41 -22 -93 -22q-47 0 -87.5 14.5t-66.5 49.5h-2v-280h-150v984h150v-322h2q9 15 23.5 26.5t33 20t39 13t41.5 4.5q54 0 98 -18.5t75.5 -52t48.5 -79.5t17 -101q0 -51 -15.5 -97.5t-44 -82.5t-69.5 -57zM414 154q31 34 31 89t-31.5 89t-88.5 34t-88.5 -34
t-31.5 -89t31.5 -89t88.5 -34t89 34z" />
    <glyph glyph-name="uni00FF" unicode="&#xff;" horiz-adv-x="556" 
d="M269 -199q-22 -20 -55 -30.5t-87 -10.5q-58 0 -112 18l20 123q34 -15 70 -15q25 0 41 5.5t26.5 16t17.5 25.5t15 35l11 28l-213 490h162l125 -321h2l107 321h154l-220 -565q-15 -39 -29 -69t-35 -51zM466 644q0 -36 -24 -61t-61 -25q-18 0 -33 7t-26 19t-17.5 27.5
t-6.5 32.5q0 16 6.5 31t17.5 26t25.5 18t31.5 7q35 0 61 -23t26 -59zM90 644q0 16 6.5 31t17.5 26t25.5 18t31.5 7q35 0 61 -23t26 -59t-24 -61t-61 -25q-18 0 -33 7t-26 19t-17.5 27.5t-6.5 32.5z" />
    <glyph glyph-name="uni0100" unicode="&#x100;" horiz-adv-x="741" 
d="M230 150l-59 -150h-172l306 708h129l308 -708h-176l-61 150h-275zM195 883h340v-96h-340v96zM365 502l-86 -220h173z" />
    <glyph glyph-name="uni0101" unicode="&#x101;" horiz-adv-x="537" 
d="M383 482q42 -17 67.5 -49t35.5 -78.5t10 -107.5v-247h-138v61h-2q-25 -39 -66.5 -56t-87.5 -17q-34 0 -65.5 9.5t-55.5 28.5t-38 47t-14 65q0 42 15.5 71t42 48t60.5 29.5t70.5 15.5t73 6t67.5 1q0 40 -28.5 63.5t-67.5 23.5q-37 0 -67.5 -15.5t-54.5 -42.5l-80 82
q42 39 98 58.5t116 19.5q66 0 109 -16zM115 687h340v-96h-340v96zM323 113q16 11 25.5 28t9.5 40v32h-37q-17 0 -42.5 -1.5t-49 -8.5t-40 -21t-16.5 -39q0 -27 23 -40t48 -13q22 0 42.5 6t36.5 17z" />
    <glyph glyph-name="uni0102" unicode="&#x102;" horiz-adv-x="741" 
d="M566 0l-61 150h-275l-59 -150h-172l306 708h129l308 -708h-176zM433 768q-32 -8 -68 -8q-35 0 -67.5 7.5t-58 25t-41 45t-17.5 66.5h80q3 -15 13.5 -24t25 -14.5t31.5 -7.5t34 -2q39 0 66.5 7.5t38.5 40.5h79q-4 -38 -20 -65.5t-40.5 -45t-55.5 -25.5zM365 502l-86 -220
h173z" />
    <glyph glyph-name="uni0103" unicode="&#x103;" horiz-adv-x="537" 
d="M158 479q56 19 116 19q66 0 108.5 -16.5t68 -48.5t35.5 -78.5t10 -107.5v-247h-138v61h-2q-25 -39 -66.5 -56t-87.5 -17q-34 0 -65.5 9.5t-55.5 28.5t-38 47t-14 65q0 42 15.5 71t42 48t60.5 29.5t70.5 15.5t73 6t67.5 1q0 40 -28.5 63.5t-67.5 23.5q-37 0 -67.5 -15.5
t-54.5 -42.5l-80 82q42 39 98 59zM181 708q3 -15 13.5 -24t25 -14.5t31.5 -7.5t34 -2q39 0 66.5 7.5t38.5 40.5h79q-4 -38 -20 -65.5t-40.5 -45t-56 -25.5t-67.5 -8t-68 7.5t-57 25t-41 45t-18 66.5h80zM173 143q0 -27 23 -40t48 -13q22 0 42.5 6t36.5 17t25.5 28t9.5 40v32
h-37q-17 0 -42.5 -1.5t-49 -8.5t-40 -21t-16.5 -39z" />
    <glyph glyph-name="uni0104" unicode="&#x104;" horiz-adv-x="741" 
d="M638 -229q-26 -11 -58 -11q-42 0 -73.5 24t-31.5 69q0 19 8.5 39.5t21.5 40t29 37t32 30.5l-61 150h-275l-59 -150h-172l306 708h129l308 -708h-107q-12 -12 -24.5 -27t-22.5 -31t-16.5 -32.5t-6.5 -31.5q0 -17 12 -31.5t30 -14.5q14 0 28.5 7t25.5 16l28 -53
q-25 -19 -51 -31zM452 282l-87 220l-86 -220h173z" />
    <glyph glyph-name="uni0105" unicode="&#x105;" horiz-adv-x="537" 
d="M60 420q42 39 98 58.5t116 19.5q66 0 108.5 -16.5t68 -48.5t35.5 -78.5t10 -107.5v-247h-68q-12 -12 -24.5 -27t-22.5 -31t-16.5 -32.5t-6.5 -31.5q0 -17 12 -31.5t30 -14.5q14 0 28.5 7t25.5 16l28 -53q-25 -19 -51 -30.5t-58 -11.5q-42 0 -73.5 24t-31.5 69
q0 19 8.5 39.5t21.5 39.5t29 36.5t31 31.5v61h-2q-25 -39 -66.5 -56t-87.5 -17q-35 0 -66 9.5t-55 28.5t-38 47t-14 65q0 42 16 71t42 48t60 29.5t70.5 15.5t73 6t67.5 1q0 40 -28.5 63.5t-67.5 23.5q-37 0 -67.5 -15.5t-54.5 -42.5zM190 182q-17 -14 -17 -39q0 -27 23 -40
t48 -13q22 0 42.5 6t36.5 17t25.5 28t9.5 40v32h-37q-17 0 -42.5 -1.5t-49 -8.5t-39.5 -21z" />
    <glyph glyph-name="uni0106" unicode="&#x106;" horiz-adv-x="685" 
d="M535 524q-23 28 -56.5 43t-77.5 15t-81.5 -17t-65 -47.5t-43 -72.5t-15.5 -91q0 -50 15.5 -91.5t42.5 -72t63.5 -47.5t78.5 -17q48 0 85 20t61 56l130 -97q-45 -63 -114 -93t-142 -30q-83 0 -153 26t-121 74.5t-79.5 117.5t-28.5 154t28.5 154t79.5 117.5t121 74.5
t153 26q30 0 62.5 -5.5t64.5 -17.5q31 -12 60 -32t52 -49zM393 904h204l-173 -144h-132z" />
    <glyph glyph-name="uni0107" unicode="&#x107;" horiz-adv-x="482" 
d="M382 329q-11 16 -31 27q-20 10 -43 10q-57 0 -88.5 -34t-31.5 -89t31.5 -89t88.5 -34q25 0 43 11t31 26l99 -104q-35 -36 -82.5 -50.5t-90.5 -14.5q-56 0 -105.5 18t-86 51.5t-57.5 80.5t-21 105t21 105t57.5 80.5t86 51.5t105.5 18q43 0 90.5 -14.5t82.5 -50.5zM296 708
h204l-173 -144h-132z" />
    <glyph glyph-name="uni0108" unicode="&#x108;" horiz-adv-x="685" 
d="M535 524q-23 28 -56.5 43t-77.5 15t-81.5 -17t-65 -47.5t-43 -72.5t-15.5 -91q0 -50 15.5 -91.5t42.5 -72t63.5 -47.5t78.5 -17q48 0 85 20t61 56l130 -97q-45 -63 -114 -93t-142 -30q-83 0 -153 26t-121 74.5t-79.5 117.5t-28.5 154t28.5 154t79.5 117.5t121 74.5
t153 26q30 0 62.5 -5.5t64.5 -17.5q31 -12 60 -32t52 -49zM461 760l-63 78l-62 -78h-135l119 144h163l116 -144h-138z" />
    <glyph glyph-name="uni0109" unicode="&#x109;" horiz-adv-x="482" 
d="M382 329q-11 16 -31 27q-20 10 -43 10q-57 0 -88.5 -34t-31.5 -89t31.5 -89t88.5 -34q25 0 43 11t31 26l99 -104q-35 -36 -82.5 -50.5t-90.5 -14.5q-56 0 -105.5 18t-86 51.5t-57.5 80.5t-21 105t21 105t57.5 80.5t86 51.5t105.5 18q43 0 90.5 -14.5t82.5 -50.5zM352 564
l-63 78l-62 -78h-135l119 144h163l116 -144h-138z" />
    <glyph glyph-name="uni010A" unicode="&#x10a;" horiz-adv-x="685" 
d="M535 524q-23 28 -56.5 43t-77.5 15t-81.5 -17t-65 -47.5t-43 -72.5t-15.5 -91q0 -50 15.5 -91.5t42.5 -72t63.5 -47.5t78.5 -17q48 0 85 20t61 56l130 -97q-45 -63 -114 -93t-142 -30q-83 0 -153 26t-121 74.5t-79.5 117.5t-28.5 154t28.5 154t79.5 117.5t121 74.5
t153 26q30 0 62.5 -5.5t64.5 -17.5q31 -12 60 -32t52 -49zM484 840q0 -36 -24 -61t-61 -25q-18 0 -33 7t-26 19t-17.5 27.5t-6.5 32.5q0 16 6.5 31t17.5 26t25.5 18t31.5 7q35 0 61 -23t26 -59z" />
    <glyph glyph-name="uni010B" unicode="&#x10b;" horiz-adv-x="482" 
d="M382 329q-11 16 -31 27q-20 10 -43 10q-57 0 -88.5 -34t-31.5 -89t31.5 -89t88.5 -34q25 0 43 11t31 26l99 -104q-35 -36 -82.5 -50.5t-90.5 -14.5q-56 0 -105.5 18t-86 51.5t-57.5 80.5t-21 105t21 105t57.5 80.5t86 51.5t105.5 18q43 0 90.5 -14.5t82.5 -50.5zM375 644
q0 -36 -24 -61t-61 -25q-18 0 -33 7t-26 19t-17.5 27.5t-6.5 32.5q0 16 6.5 31t17.5 26t25.5 18t31.5 7q35 0 61 -23t26 -59z" />
    <glyph glyph-name="uni010C" unicode="&#x10c;" horiz-adv-x="685" 
d="M535 524q-23 28 -56.5 43t-77.5 15t-81.5 -17t-65 -47.5t-43 -72.5t-15.5 -91q0 -50 15.5 -91.5t42.5 -72t63.5 -47.5t78.5 -17q48 0 85 20t61 56l130 -97q-45 -63 -114 -93t-142 -30q-83 0 -153 26t-121 74.5t-79.5 117.5t-28.5 154t28.5 154t79.5 117.5t121 74.5
t153 26q30 0 62.5 -5.5t64.5 -17.5q31 -12 60 -32t52 -49zM595 931l-119 -144h-163l-116 144h138l63 -78l62 78h135z" />
    <glyph glyph-name="uni010D" unicode="&#x10d;" horiz-adv-x="482" 
d="M382 329q-11 16 -31 27q-20 10 -43 10q-57 0 -88.5 -34t-31.5 -89t31.5 -89t88.5 -34q25 0 43 11t31 26l99 -104q-35 -36 -82.5 -50.5t-90.5 -14.5q-56 0 -105.5 18t-86 51.5t-57.5 80.5t-21 105t21 105t57.5 80.5t86 51.5t105.5 18q43 0 90.5 -14.5t82.5 -50.5zM486 708
l-119 -144h-163l-116 144h138l63 -78l62 78h135z" />
    <glyph glyph-name="uni010E" unicode="&#x10e;" horiz-adv-x="759" 
d="M601 628q57 -43 91 -111q33 -68 33 -165q0 -86 -32.5 -151.5t-87.5 -110t-127 -67.5t-151 -23h-255v708h234q85 0 161.5 -19t133.5 -61zM563 360q0 52 -19.5 90.5t-52.5 63.5t-77.5 37.5t-93.5 12.5h-92v-420h81q54 0 100.5 11t80.5 36.5t53.5 67t19.5 101.5zM537 931
l-119 -144h-163l-116 144h138l63 -78l62 78h135z" />
    <glyph glyph-name="uni010F" unicode="&#x10f;" horiz-adv-x="630" 
d="M423 64q-9 -13 -23 -26q-15 -14 -34.5 -25t-43 -18t-48.5 -7q-54 0 -98 18.5t-75.5 52t-48.5 79.5t-17 101q0 51 15.5 97.5t44 82.5t69.5 57.5t93 21.5q47 0 87.5 -14.5t66.5 -49.5h2v322h150v-756h-138v64h-2zM425 243q0 55 -31 89q-32 34 -89 34t-88.5 -34t-31.5 -89
t31.5 -89t88.5 -34t88.5 34t31.5 89zM657 708h134l-80 -199h-98z" />
    <glyph glyph-name="uni0110" unicode="&#x110;" horiz-adv-x="759" 
d="M468 689q76 -19 133 -61q57 -43 90.5 -111t33.5 -165q0 -86 -32.5 -151.5t-87.5 -110t-127 -67.5t-151 -23h-255v318h-60v102h60v288h234q85 0 162 -19zM490 192q34 25 54 67q19 41 19 101q0 52 -19.5 90.5t-52.5 63.5t-77.5 37.5t-93.5 12.5h-92v-144h198v-102h-198
v-174h81q54 0 100.5 11t80.5 37z" />
    <glyph glyph-name="uni0111" unicode="&#x111;" horiz-adv-x="630" 
d="M345 484q40 -15 66 -50h2v127h-134v96h134v99h150v-99h56v-96h-56v-561h-138v64h-2q-9 -13 -24 -26.5t-34 -24.5t-42.5 -18t-48.5 -7q-54 0 -98 18.5t-75.5 52t-48.5 79.5t-17 101q0 51 15.5 97.5t44 82.5t69.5 57.5t93 21.5q48 0 88 -14zM394 154q31 34 31 89t-31.5 89
t-88.5 34t-88.5 -34t-31.5 -89t31.5 -89t88.5 -34t89 34z" />
    <glyph glyph-name="uni0112" unicode="&#x112;" horiz-adv-x="630" 
d="M78 0v708h481v-144h-325v-132h307v-144h-307v-144h343v-144h-499zM154 883h340v-96h-340v96z" />
    <glyph glyph-name="uni0113" unicode="&#x113;" 
d="M364 119q25 16 44 42l105 -77q-36 -46 -91 -71t-114 -25q-56 0 -105.5 18t-86 51.5t-57.5 80.5t-21 105t21 105t57.5 80.5t86 51.5t105.5 18q52 0 94.5 -18t72 -51.5t45.5 -80.5t16 -105v-47h-348q9 -43 39 -68.5t74 -25.5q37 0 63 17zM126 591v96h340v-96h-340zM361 363
q-26 27 -67 27q-25 0 -44 -8t-32.5 -20.5t-21 -29t-8.5 -34.5h198q1 38 -25 65z" />
    <glyph glyph-name="uni0114" unicode="&#x114;" horiz-adv-x="630" 
d="M559 708v-144h-325v-132h307v-144h-307v-144h343v-144h-499v708h481zM290 858q17 -2 34 -2q39 0 66.5 7.5t38.5 40.5h79q-4 -38 -20 -65.5t-40.5 -45t-56 -25.5t-67.5 -8q-35 0 -67.5 7.5t-58 25t-41 45t-17.5 66.5h80q3 -15 13.5 -24t25 -14.5t31.5 -7.5z" />
    <glyph glyph-name="uni0115" unicode="&#x115;" 
d="M59 348q21 47 57.5 80.5t86 51.5t105.5 18q52 0 94.5 -18t72 -51.5t45.5 -80.5t16 -105v-47h-348q9 -43 39 -68.5t74 -25.5q37 0 62.5 16.5t44.5 42.5l105 -77q-36 -46 -91 -71t-114 -25q-56 0 -105.5 18t-86 51.5t-57.5 80.5t-21 105t21 105zM296 660q39 0 66.5 7.5
t38.5 40.5h79q-4 -38 -20 -65.5t-40.5 -45t-56 -25.5t-67.5 -8t-68 7.5t-57 25t-41 45t-18 66.5h80q3 -15 13.5 -24t25 -14.5t31.5 -7.5t34 -2zM294 390q-25 0 -44 -8t-32.5 -20.5t-21 -29t-8.5 -34.5h198q1 38 -25 65t-67 27z" />
    <glyph glyph-name="uni0116" unicode="&#x116;" horiz-adv-x="630" 
d="M78 708h481v-144h-325v-132h307v-144h-307v-144h343v-144h-499v708zM298 761q-15 7 -26 19t-17.5 27.5t-6.5 32.5q0 16 6.5 31t17.5 26t25.5 18t31.5 7q35 0 61 -23t26 -59t-24 -61t-61 -25q-18 0 -33 7z" />
    <glyph glyph-name="uni0117" unicode="&#x117;" 
d="M203 480q49 18 105 18q52 0 94.5 -18t72 -51.5t45.5 -80.5t16 -105v-47h-348q9 -43 39 -68.5t74 -25.5q37 0 62.5 16.5t44.5 42.5l105 -77q-36 -46 -91 -71t-114 -25q-56 0 -105.5 18t-86 51.5t-57.5 80.5t-21 105t21 105t57.5 80.5t86.5 51.5zM218 644q0 16 6.5 31
t17.5 26t25.5 18t31.5 7q35 0 61 -23t26 -59t-24 -61t-61 -25q-18 0 -33 7t-26 19t-17.5 27.5t-6.5 32.5zM386 298q1 38 -25 65t-67 27q-25 0 -44 -8t-32.5 -20.5t-21 -29t-8.5 -34.5h198z" />
    <glyph glyph-name="uni0118" unicode="&#x118;" horiz-adv-x="630" 
d="M489 -27q-13 -15 -23 -31t-16.5 -32.5t-6.5 -31.5q0 -17 12 -31.5t30 -14.5q14 0 28.5 7t25.5 16l28 -53q-25 -19 -51 -30.5t-58 -11.5q-42 0 -73.5 24t-31.5 69q0 19 8.5 39.5t21.5 39.5t29 36.5t31 31.5h-365v708h481v-144h-325v-132h307v-144h-307v-144h343v-144h-64
q-12 -12 -24 -27z" />
    <glyph glyph-name="uni0119" unicode="&#x119;" 
d="M308 498q52 0 95 -18q42 -18 71.5 -51.5t45.5 -80.5t16 -105v-47h-348q9 -43 38.5 -68.5t74.5 -25.5q37 0 62.5 16.5t44.5 42.5l105 -77q-29 -36 -68.5 -59t-84.5 -32q-12 -12 -23 -26t-20 -29t-14.5 -30.5t-5.5 -29.5q0 -17 12 -31.5t30 -14.5q14 0 28.5 7t25.5 16
l28 -53q-25 -19 -51 -30.5t-58 -11.5q-42 0 -73.5 24t-31.5 69q0 18 6.5 36t17.5 35.5t25 34t28 30.5q-52 4 -97 23.5t-78 52.5t-52 78t-19 100q0 58 21 105t57.5 80.5t86 51.5t105.5 18zM294 390q-25 0 -44 -8t-32.5 -20.5t-21 -29t-8.5 -34.5h198q1 38 -25 65t-67 27z" />
    <glyph glyph-name="uni011A" unicode="&#x11a;" horiz-adv-x="630" 
d="M234 564v-132h307v-144h-307v-144h343v-144h-499v708h481v-144h-325zM519 931l-119 -144h-163l-116 144h138l63 -78l62 78h135z" />
    <glyph glyph-name="uni011B" unicode="&#x11b;" 
d="M364 119q25 16 44 42l105 -77q-36 -46 -91 -71t-114 -25q-56 0 -105.5 18t-86 51.5t-57.5 80.5t-21 105t21 105t57.5 80.5t86 51.5t105.5 18q52 0 94.5 -18t72 -51.5t45.5 -80.5t16 -105v-47h-348q9 -43 39 -68.5t74 -25.5q37 0 63 17zM491 708l-119 -144h-163l-116 144
h138l63 -78l62 78h135zM294 390q-25 0 -44 -8t-32.5 -20.5t-21 -29t-8.5 -34.5h198q1 38 -25 65t-67 27z" />
    <glyph glyph-name="uni011C" unicode="&#x11c;" horiz-adv-x="778" 
d="M416 582q-50 0 -90.5 -17t-69.5 -47.5t-44.5 -72.5t-15.5 -91q0 -50 15.5 -91.5t44.5 -72t69.5 -47.5t90.5 -17q51 0 88 11.5t59 23.5v115h-127v144h277v-370q-69 -36 -144 -52t-153 -16q-83 0 -153 26t-121 74.5t-79.5 117.5t-28.5 154t28.5 154t79.5 117.5t121 74.5
t153 26q85 0 156.5 -20.5t125.5 -70.5l-110 -120q-32 33 -72 50t-100 17zM348 760h-135l119 144h163l116 -144h-138l-63 78z" />
    <glyph glyph-name="uni011D" unicode="&#x11d;" horiz-adv-x="630" 
d="M274 -6q-54 0 -98 18.5t-75.5 52t-48.5 79.5t-17 101q0 48 15.5 94t44 81t69.5 56.5t93 21.5q32 0 58.5 -7t47.5 -18t36 -24.5t24 -26.5h2v64h138v-445q0 -138 -69.5 -209.5t-211.5 -71.5q-65 0 -128 14.5t-116 56.5l83 124q35 -29 73.5 -46t84.5 -17q69 0 101.5 33.5
t32.5 85.5v47h-2q-26 -35 -64.5 -49.5t-72.5 -14.5zM352 136q22 10 38.5 26.5t25.5 38t9 45.5t-9 45.5t-25.5 38t-38.5 26.5t-47 10q-26 0 -47.5 -10t-38 -26.5t-25.5 -38t-9 -45.5t9 -45.5t25.5 -38t38 -26.5t47.5 -10q25 0 47 10zM112 564l119 144h163l116 -144h-138
l-63 78l-62 -78h-135z" />
    <glyph glyph-name="uni011E" unicode="&#x11e;" horiz-adv-x="778" 
d="M573 706q71 -21 125 -71l-110 -120q-32 33 -72 50t-100 17q-50 0 -90.5 -17t-69.5 -47.5t-44.5 -72.5t-15.5 -91q0 -50 15.5 -91.5t44.5 -72t69.5 -47.5t90.5 -17q51 0 88 11.5t59 23.5v115h-127v144h277v-370q-69 -36 -144 -52t-153 -16q-83 0 -153 26t-121 74.5
t-79.5 117.5t-28.5 154t28.5 154t79.5 117.5t121 74.5t153 26q85 0 157 -20zM412 760q-35 0 -67.5 7.5t-58 25t-41 45t-17.5 66.5h80q3 -15 13.5 -24t25 -14.5t31.5 -7.5t34 -2q39 0 66.5 7.5t38.5 40.5h79q-4 -38 -20 -65.5t-40.5 -45t-56 -25.5t-67.5 -8z" />
    <glyph glyph-name="uni011F" unicode="&#x11f;" horiz-adv-x="630" 
d="M95 420q28 35 69 56.5t93 21.5q32 0 58.5 -7t47.5 -18t36 -24.5t24 -26.5h2v64h138v-445q0 -138 -69.5 -209.5t-211.5 -71.5q-65 0 -128 14.5t-116 56.5l83 124q35 -29 73.5 -46t84.5 -17q69 0 101.5 33.5t32.5 85.5v47h-2q-26 -35 -64.5 -49.5t-72.5 -14.5
q-54 0 -98 18.5t-75.5 52t-48.5 79.5t-17 101q0 48 15.5 94t44.5 81zM185 246q0 -24 9 -45.5t25.5 -38t38 -26.5t47.5 -10q25 0 47 10t38.5 26.5t25.5 38t9 45.5t-9 45.5t-25.5 38t-38.5 26.5t-47 10q-26 0 -47.5 -10t-38 -26.5t-25.5 -38t-9 -45.5zM217 708q3 -15 13.5 -24
t25 -14.5t31.5 -7.5t34 -2q39 0 66.5 7.5t38.5 40.5h79q-4 -38 -20 -65.5t-40.5 -45t-56 -25.5t-67.5 -8t-68 7.5t-57 25t-41 45t-18 66.5h80z" />
    <glyph glyph-name="uni0120" unicode="&#x120;" horiz-adv-x="778" 
d="M212 263q15 -42 44 -72.5t69.5 -47.5t90.5 -17q51 0 88 11.5t59 23.5v115h-127v144h277v-370q-69 -36 -144 -52t-153 -16q-83 0 -153 26t-121 74.5t-79.5 117.5t-28.5 154t28.5 154t79.5 117.5t121 74.5t153 26q85 0 156.5 -20.5t125.5 -70.5l-110 -120q-32 33 -72 50
t-100 17q-50 0 -90.5 -17t-69.5 -47.5t-44.5 -72.5t-15.5 -91q0 -50 16 -91zM470 899q26 -23 26 -59t-24 -61t-61 -25q-18 0 -33 7t-26 19t-17.5 27.5t-6.5 32.5q0 16 6.5 31t17.5 26t25.5 18t31.5 7q35 0 61 -23z" />
    <glyph glyph-name="uni0121" unicode="&#x121;" horiz-adv-x="630" 
d="M95 420q28 35 69 56.5t93 21.5q32 0 58.5 -7t47.5 -18t36 -24.5t24 -26.5h2v64h138v-445q0 -138 -69.5 -209.5t-211.5 -71.5q-65 0 -128 14.5t-116 56.5l83 124q35 -29 73.5 -46t84.5 -17q69 0 101.5 33.5t32.5 85.5v47h-2q-26 -35 -64.5 -49.5t-72.5 -14.5
q-54 0 -98 18.5t-75.5 52t-48.5 79.5t-17 101q0 48 15.5 94t44.5 81zM185 246q0 -24 9 -45.5t25.5 -38t38 -26.5t47.5 -10q25 0 47 10t38.5 26.5t25.5 38t9 45.5t-9 45.5t-25.5 38t-38.5 26.5t-47 10q-26 0 -47.5 -10t-38 -26.5t-25.5 -38t-9 -45.5zM237 644q0 16 6.5 31
t17.5 26t25.5 18t31.5 7q35 0 61 -23t26 -59t-24 -61t-61 -25q-18 0 -33 7t-26 19t-17.5 27.5t-6.5 32.5z" />
    <glyph glyph-name="uni0122" unicode="&#x122;" horiz-adv-x="778" 
d="M416 -18q-83 0 -153 26t-121 74.5t-79.5 117.5t-28.5 154t28.5 154t79.5 117.5t121 74.5t153 26q85 0 156.5 -20.5t125.5 -70.5l-110 -120q-32 33 -72 50t-100 17q-50 0 -90.5 -17t-69.5 -47.5t-44.5 -72.5t-15.5 -91q0 -50 15.5 -91.5t44.5 -72t69.5 -47.5t90.5 -17
q51 0 88 11.5t59 23.5v115h-127v144h277v-370q-69 -36 -144 -52t-153 -16zM301 -260l64 199h144l-90 -199h-118z" />
    <glyph glyph-name="uni0123" unicode="&#x123;" horiz-adv-x="630" 
d="M282 -240q-65 0 -128 14.5t-116 56.5l83 124q35 -29 73.5 -46t84.5 -17q69 0 101.5 33.5t32.5 85.5v47h-2q-26 -35 -64.5 -49.5t-72.5 -14.5q-54 0 -98 18.5t-75.5 52t-48.5 79.5t-17 101q0 48 15.5 94t44 81t69.5 56.5t93 21.5q32 0 58.5 -7t47.5 -18t36 -24.5t24 -26.5
h2v64h138v-445q0 -138 -69.5 -209.5t-211.5 -71.5zM305 366q-26 0 -47.5 -10t-38 -26.5t-25.5 -38t-9 -45.5t9 -45.5t25.5 -38t38 -26.5t47.5 -10q25 0 47 10t38.5 26.5t25.5 38t9 45.5t-9 45.5t-25.5 38t-38.5 26.5t-47 10zM372 584h-144l90 199h118z" />
    <glyph glyph-name="uni0124" unicode="&#x124;" horiz-adv-x="759" 
d="M687 0h-156v306h-303v-306h-156v708h156v-264h303v264h156v-708zM440 760l-63 78l-62 -78h-135l119 144h163l116 -144h-138z" />
    <glyph glyph-name="uni0125" unicode="&#x125;" 
d="M338 354q-16 12 -45 12t-47 -10.5t-27.5 -28t-12.5 -39.5t-3 -46v-242h-150v756h150v-336h2q5 14 17 28t29 25t40 18t50 7q57 0 92 -17.5t54.5 -48.5t26.5 -73t7 -91v-268h-150v238q0 21 -1.5 43.5t-9 41.5t-22.5 31zM270 878l-62 -78h-135l119 144h163l116 -144h-138z
" />
    <glyph glyph-name="uni0126" unicode="&#x126;" horiz-adv-x="759" 
d="M687 0h-156v306h-303v-306h-156v708h156v-88h303v88h156v-708zM228 524v-80h303v80h-303z" />
    <glyph glyph-name="uni0127" unicode="&#x127;" 
d="M291 491q23 7 50 7q57 0 92 -17.5t54.5 -48.5t26.5 -73t7 -91v-268h-150v238q0 21 -1.5 43.5t-9 41.5t-23.5 31t-44 12q-29 0 -47 -10.5t-27.5 -28t-12.5 -39.5t-3 -46v-242h-150v561h-56v96h56v99h150v-99h134v-96h-134v-141h2q5 14 16.5 28t29 25t40.5 18z" />
    <glyph glyph-name="uni0128" unicode="&#x128;" horiz-adv-x="296" 
d="M70 0v708h156v-708h-156zM223 868q17 0 27 11q10 10 17 25h78q-5 -29 -14 -54t-24.5 -43.5t-38 -29.5t-53.5 -11q-22 0 -41.5 6.5t-36.5 14.5t-32.5 14.5t-30.5 6.5q-17 0 -27 -14t-15 -28h-79q4 25 14 50t25.5 44.5t37.5 31.5t50 12q25 0 45 -6t42 -15q14 -5 27.5 -10
t28.5 -5z" />
    <glyph glyph-name="uni0129" unicode="&#x129;" horiz-adv-x="260" 
d="M55 0v486h150v-486h-150zM206 672q17 0 27 11q10 10 17 25h78q-5 -29 -14 -54t-24.5 -43.5t-38 -29.5t-53.5 -11q-22 0 -41.5 6.5t-36.5 14.5t-32.5 14.5t-30.5 6.5q-17 0 -27 -14t-15 -28h-79q4 25 14 50t25.5 44.5t37.5 31.5t50 12q25 0 45 -6t42 -15q14 -5 27.5 -10
t28.5 -5z" />
    <glyph glyph-name="uni012A" unicode="&#x12a;" horiz-adv-x="296" 
d="M70 0v708h156v-708h-156zM-23 787v96h340v-96h-340z" />
    <glyph glyph-name="uni012B" unicode="&#x12b;" horiz-adv-x="260" 
d="M55 0v486h150v-486h-150zM-38 591v96h340v-96h-340z" />
    <glyph glyph-name="uni012C" unicode="&#x12c;" horiz-adv-x="296" 
d="M70 0v708h156v-708h-156zM332 902q-4 -38 -20 -65q-16 -28 -40.5 -45.5t-56 -25.5t-67.5 -8t-68 7.5t-57 25t-41 45t-18 66.5h80q3 -15 13.5 -24t25 -14.5t31.5 -7.5t34 -2q39 0 66.5 7.5t38.5 40.5h79z" />
    <glyph glyph-name="uni012D" unicode="&#x12d;" horiz-adv-x="260" 
d="M55 0v486h150v-486h-150zM314 681q-4 -38 -20 -65q-16 -28 -40.5 -45.5t-56 -25.5t-67.5 -8t-68 7.5t-57 25t-41 45t-18 66.5h80q3 -15 13.5 -24t25 -14.5t31.5 -7.5t34 -2q39 0 66.5 7.5t38.5 40.5h79z" />
    <glyph glyph-name="uni012E" unicode="&#x12e;" horiz-adv-x="296" 
d="M140 0q-12 -12 -24.5 -27t-22.5 -31t-16.5 -32.5t-6.5 -31.5q0 -17 12 -31.5t30 -14.5q14 0 28.5 7t25.5 16l28 -53q-25 -19 -51 -30.5t-58 -11.5q-42 0 -73.5 24t-31.5 69q0 19 8.5 39.5t21.5 39.5t29 36.5t31 31.5v708h156v-708h-86z" />
    <glyph glyph-name="uni012F" unicode="&#x12f;" horiz-adv-x="260" 
d="M154 0q-12 -12 -24 -27q-13 -15 -23 -31t-16.5 -32.5t-6.5 -31.5q0 -17 12 -31.5t30 -14.5q14 0 28.5 7t25.5 16l28 -53q-25 -19 -51 -30.5t-58 -11.5q-42 0 -73.5 24t-31.5 69q0 19 8.5 39.5t21.5 39.5t29 36.5t31 31.5h-29v486h150v-486h-51zM130 726q36 0 61.5 -25.5
t25.5 -61.5t-25.5 -61.5t-61.5 -25.5t-61.5 25.5t-25.5 61.5t25.5 61.5t61.5 25.5z" />
    <glyph glyph-name="uni0130" unicode="&#x130;" horiz-adv-x="296" 
d="M70 0v708h156v-708h-156zM238 840q0 -36 -24 -61t-61 -25q-18 0 -33 7t-26 19t-17.5 27.5t-6.5 32.5q0 16 6.5 31t17.5 26t25.5 18t31.5 7q35 0 61 -23t26 -59z" />
    <glyph glyph-name="uni0131" unicode="&#x131;" horiz-adv-x="260" 
d="M55 0v486h150v-486h-150z" />
    <glyph glyph-name="uni0134" unicode="&#x134;" horiz-adv-x="500" 
d="M329 4q-45 -22 -117 -22q-84 0 -142 40t-75 125l143 35q3 -26 23.5 -44t46.5 -18q27 0 42 13.5t22 33.5t8.5 43.5t1.5 43.5v454h156v-471q0 -49 -8.5 -95t-32.5 -81.5t-68 -56.5zM297 760h-135l119 144h163l116 -144h-138l-63 78z" />
    <glyph glyph-name="uni0135" unicode="&#x135;" horiz-adv-x="260" 
d="M196 -121q-9 -37 -30 -64q-21 -26 -55.5 -40.5t-85.5 -14.5q-17 0 -35 1.5t-35 6.5l8 133q18 -9 39 -9q19 0 30 10t16 25t6 32t1 31v496h150v-522q0 -47 -9 -85zM191 564l-63 78l-62 -78h-135l119 144h163l116 -144h-138z" />
    <glyph glyph-name="uni0136" unicode="&#x136;" horiz-adv-x="722" 
d="M740 0h-218l-288 336v-336h-156v708h156v-294l275 294h204l-315 -329zM296 -61h144l-90 -199h-118z" />
    <glyph glyph-name="uni0137" unicode="&#x137;" horiz-adv-x="556" 
d="M205 246h-2v-246h-150v756h150v-462l166 192h184l-193 -219l198 -267h-189zM350 -61l-90 -199h-118l64 199h144z" />
    <glyph glyph-name="uni0139" unicode="&#x139;" horiz-adv-x="537" 
d="M234 144h289v-144h-445v708h156v-564zM157 904h204l-173 -144h-132z" />
    <glyph glyph-name="uni013A" unicode="&#x13a;" horiz-adv-x="260" 
d="M55 0v756h150v-756h-150zM146 944h204l-173 -144h-132z" />
    <glyph glyph-name="uni013B" unicode="&#x13b;" horiz-adv-x="537" 
d="M234 144h289v-144h-445v708h156v-564zM232 -61h144l-90 -199h-118z" />
    <glyph glyph-name="uni013C" unicode="&#x13c;" horiz-adv-x="260" 
d="M55 0v756h150v-756h-150zM79 -61h144l-90 -199h-118z" />
    <glyph glyph-name="uni013D" unicode="&#x13d;" horiz-adv-x="537" 
d="M234 144h289v-144h-445v708h156v-564zM356 708h134l-80 -199h-98z" />
    <glyph glyph-name="uni013E" unicode="&#x13e;" horiz-adv-x="260" 
d="M55 0v756h150v-756h-150zM301 708h134l-80 -199h-98z" />
    <glyph glyph-name="uni013F" unicode="&#x13f;" horiz-adv-x="537" 
d="M234 144h289v-144h-445v708h156v-564zM493 405q0 -36 -24 -61t-61 -25q-18 0 -33 7t-26 19t-17.5 27.5t-6.5 32.5q0 16 6.5 31t17.5 26t25.5 18t31.5 7q35 0 61 -23t26 -59z" />
    <glyph glyph-name="uni0140" unicode="&#x140;" horiz-adv-x="400" 
d="M55 0v756h150v-756h-150zM411 411q0 -36 -24 -61t-61 -25q-18 0 -33 7t-26 19t-17.5 27.5t-6.5 32.5q0 16 6.5 31t17.5 26t25.5 18t31.5 7q35 0 61 -23t26 -59z" />
    <glyph glyph-name="uni0141" unicode="&#x141;" horiz-adv-x="537" 
d="M523 0h-445v160l-60 -52v132l60 52v416h156v-281l210 185v-130l-210 -184v-154h289v-144z" />
    <glyph glyph-name="uni0142" unicode="&#x142;" horiz-adv-x="260" 
d="M265 459l-60 -61v-398h-150v248l-60 -61v129l60 61v379h150v-229l60 61v-129z" />
    <glyph glyph-name="uni0143" unicode="&#x143;" horiz-adv-x="815" 
d="M539 0l-309 504h-2v-504h-156v708h212l301 -492h2v492h156v-708h-204zM628 904l-173 -144h-132l101 144h204z" />
    <glyph glyph-name="uni0144" unicode="&#x144;" 
d="M433 481q35 -18 54.5 -49t26.5 -73t7 -91v-268h-150v238q0 21 -1.5 43.5t-9 41.5t-23 31t-44.5 12t-47 -10.5t-27.5 -28t-12.5 -39.5t-3 -46v-242h-150v486h144v-66h2q7 14 20 28t31 25t41 18t50 7q57 0 92 -17zM466 708l-173 -144h-132l101 144h204z" />
    <glyph glyph-name="uni0145" unicode="&#x145;" horiz-adv-x="815" 
d="M539 0l-309 504h-2v-504h-156v708h212l301 -492h2v492h156v-708h-204zM481 -61l-90 -199h-118l64 199h144z" />
    <glyph glyph-name="uni0146" unicode="&#x146;" 
d="M433 481q35 -18 54.5 -49t26.5 -73t7 -91v-268h-150v238q0 21 -1.5 43.5t-9 41.5t-23 31t-44.5 12t-47 -10.5t-27.5 -28t-12.5 -39.5t-3 -46v-242h-150v486h144v-66h2q7 14 20 28t31 25t41 18t50 7q57 0 92 -17zM372 -61l-90 -199h-118l64 199h144z" />
    <glyph glyph-name="uni0147" unicode="&#x147;" horiz-adv-x="815" 
d="M743 0h-204l-309 504h-2v-504h-156v708h212l301 -492h2v492h156v-708zM442 853l62 78h135l-119 -144h-163l-116 144h138z" />
    <glyph glyph-name="uni0148" unicode="&#x148;" 
d="M338 354q-16 12 -45 12t-47 -10.5t-27.5 -28t-12.5 -39.5t-3 -46v-242h-150v486h144v-66h2q7 14 20 28t31 25t41 18t50 7q57 0 92 -17.5t54.5 -48.5t26.5 -73t7 -91v-268h-150v238q0 21 -1.5 43.5t-9 41.5t-22.5 31zM363 564h-163l-116 144h138l63 -78l62 78h135z" />
    <glyph glyph-name="uni014C" unicode="&#x14c;" horiz-adv-x="832" 
d="M416 -18q-83 0 -153 26t-121 74.5t-79.5 117.5t-28.5 154t28.5 154t79.5 117.5t121 74.5t153 26t153 -26t121 -74.5t79.5 -117.5t28.5 -154t-28.5 -154t-79.5 -117.5t-121 -74.5t-153 -26zM416 582q-50 0 -90.5 -17t-69.5 -47.5t-44.5 -72.5t-15.5 -91q0 -50 15.5 -91.5
t44.5 -72t69.5 -47.5t90.5 -17t90.5 17t69.5 47.5t44.5 72t15.5 91.5q0 49 -15.5 91t-44.5 72.5t-69.5 47.5t-90.5 17zM245 787v96h340v-96h-340z" />
    <glyph glyph-name="uni014D" unicode="&#x14d;" horiz-adv-x="610" 
d="M497 429q36 -34 57 -81t21 -105t-21 -105t-57.5 -80.5t-86 -51.5t-105.5 -18t-105.5 18t-86 51.5t-57.5 80.5t-21 105t21 105t57.5 80.5t86 51.5t105.5 18t105.5 -18t86.5 -51zM394 332q-32 34 -89 34t-88.5 -34t-31.5 -89t31.5 -89t88.5 -34t88.5 34t31.5 89t-31 89z
M135 591v96h340v-96h-340z" />
    <glyph glyph-name="uni014E" unicode="&#x14e;" horiz-adv-x="832" 
d="M416 -18q-83 0 -153 26t-121 74.5t-79.5 117.5t-28.5 154t28.5 154t79.5 117.5t121 74.5t153 26t153 -26t121 -74.5t79.5 -117.5t28.5 -154t-28.5 -154t-79.5 -117.5t-121 -74.5t-153 -26zM507 143q40 17 69 47.5t44.5 72t15.5 91.5q0 49 -15.5 91t-44.5 72.5t-69.5 47.5
t-90.5 17t-90.5 -17t-69.5 -47.5t-44.5 -72.5t-15.5 -91q0 -50 15.5 -91.5t44.5 -72t69.5 -47.5t90.5 -17t91 17zM482 864q27 7 38 40h79q-4 -38 -20 -65.5t-40.5 -45t-56 -25.5t-67.5 -8q-35 0 -67.5 7.5t-58 25t-41 45t-17.5 66.5h80q3 -15 13.5 -24t25 -14.5t31.5 -7.5
t34 -2q39 0 67 8z" />
    <glyph glyph-name="uni014F" unicode="&#x14f;" horiz-adv-x="610" 
d="M114 58q-37 33 -58 80t-21 105t21 105t57.5 80.5t86 51.5t105.5 18t105.5 -18t86 -51.5t57.5 -80.5t21 -105t-21 -105t-57.5 -80.5t-86 -51.5t-105.5 -18t-105.5 18t-85.5 52zM185 243q0 -55 31.5 -89t88.5 -34t88.5 34t31.5 89t-31.5 89t-88.5 34t-88.5 -34t-31.5 -89z
M201 708q3 -15 13.5 -24t25 -14.5t31.5 -7.5t34 -2q39 0 66.5 7.5t38.5 40.5h79q-4 -38 -20 -65.5t-40.5 -45t-56 -25.5t-67.5 -8t-68 7.5t-57 25t-41 45t-18 66.5h80z" />
    <glyph glyph-name="uni0150" unicode="&#x150;" horiz-adv-x="832" 
d="M142 83q-51 48 -79.5 117t-28.5 154t28.5 154t79.5 117.5t121 74.5t153 26t153 -26t121 -74.5t79.5 -117.5t28.5 -154t-28.5 -154t-79.5 -117.5t-121 -74.5t-153 -26t-153 26t-121 75zM196 354q0 -50 15.5 -91.5t44.5 -72t69.5 -47.5t90.5 -17t90.5 17t69.5 47.5t44.5 72
t15.5 91.5q0 49 -15.5 91t-44.5 72.5t-69.5 47.5t-90.5 17t-90.5 -17t-69.5 -47.5t-44.5 -72.5t-15.5 -91zM784 904l-173 -144h-132l101 144h204zM316 904h204l-173 -144h-132z" />
    <glyph glyph-name="uni0151" unicode="&#x151;" horiz-adv-x="610" 
d="M411 6q-50 -18 -106 -18t-105.5 18t-86 51.5t-57.5 80.5t-21 105t21 105t57.5 80.5t86 51.5t105.5 18t105.5 -18t86 -51.5t57.5 -80.5t21 -105t-21 -105t-57.5 -80.5t-85.5 -51.5zM425 243q0 55 -31.5 89t-88.5 34t-88.5 -34t-31.5 -89t31.5 -89t88.5 -34t88.5 34
t31.5 89zM191 708h204l-173 -144h-132zM455 708h204l-173 -144h-132z" />
    <glyph glyph-name="uni0152" unicode="&#x152;" horiz-adv-x="1018" 
d="M965 144v-144h-531q-71 0 -142.5 20.5t-128.5 63.5t-93 110t-36 160q0 86 30.5 152t83.5 111t124.5 68t153.5 23h527v-144h-288v-132h264v-144h-264v-144h300zM509 564h-51q-58 0 -106 -13t-82.5 -39.5t-54 -66t-19.5 -91.5q0 -53 19.5 -92t54 -65.5t82.5 -39.5t106 -13
h51v420z" />
    <glyph glyph-name="uni0153" unicode="&#x153;" horiz-adv-x="944" 
d="M558 196q9 -43 39 -68q30 -26 74 -26q37 0 62.5 16.5t44.5 42.5l105 -77q-36 -46 -91 -71t-114 -25q-63 0 -109 15.5t-81 53.5q-38 -39 -84.5 -54t-97.5 -15q-57 0 -106 18t-86 51.5t-58 80.5t-21 105t21 105t58 80.5t86 51.5t106 18q54 0 100 -18t82 -55q32 34 78 53.5
t112 19.5q52 0 94.5 -18t72 -51.5t45.5 -80.5t16 -105v-47h-348zM306 120q57 0 89 34q31 34 31 89t-31.5 89t-88.5 34t-89 -34t-32 -89t32 -89t89 -34zM756 298q1 38 -25 65t-67 27q-25 0 -44 -8t-32.5 -20.5t-21 -29t-8.5 -34.5h198z" />
    <glyph glyph-name="uni0154" unicode="&#x154;" horiz-adv-x="648" 
d="M534 663q36 -25 57.5 -66.5t21.5 -103.5q0 -75 -39 -127.5t-114 -66.5l180 -299h-187l-148 283h-77v-283h-156v708h274q54 0 102.5 -10.5t85.5 -34.5zM451 494q0 27 -11 43t-28 24.5t-39 11.5t-43 3h-102v-161h92q21 0 44.5 1.5t42.5 9t31.5 23.5t12.5 45zM495 904
l-173 -144h-132l101 144h204z" />
    <glyph glyph-name="uni0155" unicode="&#x155;" horiz-adv-x="407" 
d="M331 366q-43 0 -68 -12t-38.5 -33.5t-17.5 -51.5t-4 -66v-203h-150v486h150v-78h2q24 45 57 67.5t83 22.5q13 0 26 -1t24 -4v-137q-16 5 -31.5 7.5t-32.5 2.5zM115 564l101 144h204l-173 -144h-132z" />
    <glyph glyph-name="uni0156" unicode="&#x156;" horiz-adv-x="648" 
d="M534 663q36 -25 57.5 -66.5t21.5 -103.5q0 -75 -39 -127.5t-114 -66.5l180 -299h-187l-148 283h-77v-283h-156v708h274q54 0 102.5 -10.5t85.5 -34.5zM451 494q0 27 -11 43t-28 24.5t-39 11.5t-43 3h-102v-161h92q21 0 44.5 1.5t42.5 9t31.5 23.5t12.5 45zM397 -61
l-90 -199h-118l64 199h144z" />
    <glyph glyph-name="uni0157" unicode="&#x157;" horiz-adv-x="407" 
d="M331 366q-43 0 -68 -12t-38.5 -33.5t-17.5 -51.5t-4 -66v-203h-150v486h150v-78h2q24 45 57 67.5t83 22.5q13 0 26 -1t24 -4v-137q-16 5 -31.5 7.5t-32.5 2.5zM122 -61h144l-90 -199h-118z" />
    <glyph glyph-name="uni0158" unicode="&#x158;" horiz-adv-x="648" 
d="M534 663q36 -25 57.5 -66.5t21.5 -103.5q0 -75 -39 -127.5t-114 -66.5l180 -299h-187l-148 283h-77v-283h-156v708h274q54 0 102.5 -10.5t85.5 -34.5zM230 787l-116 144h138l63 -78l62 78h135l-119 -144h-163zM439 449q12 16 12 45q0 27 -11 43t-28 24.5t-39 11.5t-43 3
h-102v-161h92q21 0 44.5 1.5t42.5 9t32 23.5z" />
    <glyph glyph-name="uni0159" unicode="&#x159;" horiz-adv-x="407" 
d="M263 354q-25 -12 -38.5 -33.5t-17.5 -51.5t-4 -66v-203h-150v486h150v-78h2q24 45 57 67.5t83 22.5q13 0 26 -1t24 -4v-137q-16 5 -31.5 7.5t-32.5 2.5q-43 0 -68 -12zM288 564h-163l-116 144h138l63 -78l62 78h135z" />
    <glyph glyph-name="uni015A" unicode="&#x15a;" 
d="M211 712q49 14 101 14q60 0 116 -17t101 -57l-107 -117q-19 24 -51.5 35.5t-61.5 11.5q-17 0 -35 -4t-34 -12.5t-26 -22.5t-10 -34q0 -32 24 -49t60.5 -29t78.5 -24t78.5 -34t60.5 -59t24 -99q0 -59 -22 -103t-59.5 -73t-87 -43t-104.5 -14q-69 0 -128 21t-110 68
l111 122q24 -32 60.5 -49.5t75.5 -17.5q19 0 38.5 4.5t35 13.5t25 23t9.5 33q0 32 -24.5 50.5t-61.5 31.5t-80 26t-80 35t-61.5 58t-24.5 95q0 57 22.5 100t60 72t86.5 44zM327 760h-132l101 144h204z" />
    <glyph glyph-name="uni015B" unicode="&#x15b;" horiz-adv-x="463" 
d="M268 110q21 7 21 27q0 19 -18.5 28.5t-47 16t-61 14t-61 22.5t-47 42.5t-18.5 73.5q0 43 17.5 74t46 51t65.5 29.5t75 9.5q48 0 97 -14t83 -50l-92 -91q-33 41 -87 41q-19 0 -37 -9t-18 -31q0 -18 18.5 -26.5t47 -15t61 -14t61 -23.5t47 -43.5t18.5 -73.5
q0 -47 -20.5 -77.5t-52.5 -49t-72 -26t-79 -7.5q-51 0 -103 14.5t-88 51.5l91 101q21 -26 46.5 -39.5t59.5 -13.5q26 0 47 8zM273 564h-132l101 144h204z" />
    <glyph glyph-name="uni015C" unicode="&#x15c;" 
d="M274 578q-18 -4 -34 -12.5t-26 -22.5t-10 -34q0 -32 24 -49t60.5 -29t78.5 -24t78.5 -34t60.5 -59t24 -99q0 -59 -22 -103t-59.5 -73t-87 -43t-104.5 -14q-69 0 -128 21t-110 68l111 122q24 -32 60.5 -49.5t75.5 -17.5q19 0 38.5 4.5t35 13.5t25 23t9.5 33
q0 32 -24.5 50.5t-61.5 31.5t-80 26t-80 35t-61.5 58t-24.5 95q0 57 22.5 100t60 72t86.5 43.5t101 14.5q60 0 116 -17t101 -57l-107 -117q-19 24 -51.5 35.5t-61.5 11.5q-17 0 -35 -4zM233 760h-135l119 144h163l116 -144h-138l-63 78z" />
    <glyph glyph-name="uni015D" unicode="&#x15d;" horiz-adv-x="463" 
d="M100 459q28 20 65 29.5t75 9.5q48 0 97 -14t83 -50l-92 -91q-33 41 -87 41q-19 0 -37 -9t-18 -31q0 -18 18.5 -26.5t47 -15t61 -14t61 -23.5t47 -43.5t18.5 -73.5q0 -47 -20.5 -77.5t-52.5 -49t-72 -26t-79 -7.5q-51 0 -103 14.5t-88 51.5l91 101q21 -26 46.5 -39.5
t59.5 -13.5q26 0 47 7.5t21 27.5q0 19 -18.5 28.5t-47 16t-61 14t-61 22.5t-47 42.5t-18.5 73.5q0 43 17.5 74t46.5 51zM159 708h163l116 -144h-138l-63 78l-62 -78h-135z" />
    <glyph glyph-name="uni015E" unicode="&#x15e;" 
d="M65 596q22 43 60 72q37 29 85.5 43.5t101.5 14.5q60 0 116 -17t101 -57l-107 -117q-19 24 -51.5 35.5t-61.5 11.5q-17 0 -35 -4t-34 -12.5t-26 -22.5t-10 -34q0 -32 24 -49t60.5 -29t78.5 -24t78.5 -34t60.5 -59t24 -99q0 -53 -17.5 -93t-47.5 -68.5t-70.5 -45
t-86.5 -22.5l-31 -46q22 0 44.5 -2.5t40.5 -11t29.5 -25t11.5 -44.5q0 -27 -14.5 -46t-36 -30t-45.5 -16t-43 -5q-30 0 -64.5 8.5t-60.5 21.5l25 47q12 -5 31.5 -11t45.5 -6q12 0 23.5 1.5t21 5t15.5 9.5t6 16q0 18 -17.5 26t-32.5 8t-36 -8l-32 29l50 76q-63 2 -117.5 22.5
t-102.5 65.5l111 122q24 -32 60.5 -49.5t75.5 -17.5q19 0 38.5 4.5t35 13.5t25 23t9.5 33q0 32 -24.5 50.5t-61.5 31.5t-80 26t-80 35t-61.5 58t-24.5 95q0 57 23 100z" />
    <glyph glyph-name="uni015F" unicode="&#x15f;" horiz-adv-x="463" 
d="M54 408q17 31 46 51q28 20 65 29.5t75 9.5q48 0 97 -14t83 -50l-92 -91q-33 41 -87 41q-19 0 -37 -9t-18 -31q0 -18 18.5 -26.5t47 -15t61 -14t61 -23.5t47 -43.5t18.5 -73.5q0 -38 -14 -65.5t-37 -46t-53 -29.5t-62 -15l-35 -52q22 0 44.5 -2.5t40.5 -11t29.5 -25
t11.5 -44.5q0 -27 -14.5 -46t-36 -30t-45.5 -16t-43 -5q-30 0 -64.5 8.5t-60.5 21.5l25 47q12 -5 31.5 -11t45.5 -6q12 0 23.5 1.5t21 5t15.5 9.5t6 16q0 18 -17.5 26t-32.5 8t-36 -8l-32 29l54 81q-49 2 -97.5 16.5t-82.5 49.5l91 101q21 -26 46.5 -39.5t59.5 -13.5
q26 0 47 7.5t21 27.5q0 19 -18.5 28.5t-47 16t-61 14t-61 22.5t-47 42.5t-18.5 73.5q0 43 18 74z" />
    <glyph glyph-name="uni0160" unicode="&#x160;" 
d="M367 407q42 -12 78.5 -34t60.5 -59t24 -99q0 -59 -22 -103t-59.5 -73t-87 -43t-104.5 -14q-69 0 -128 21t-110 68l111 122q24 -32 60.5 -49.5t75.5 -17.5q19 0 38.5 4.5t35 13.5t25 23t9.5 33q0 32 -24.5 50.5t-61.5 31.5t-80 26t-80 35t-61.5 58t-24.5 95q0 57 22.5 100
t60 72t86.5 43.5t101 14.5q60 0 116 -17t101 -57l-107 -117q-19 24 -51.5 35.5t-61.5 11.5q-17 0 -35 -4t-34 -12.5t-26 -22.5t-10 -34q0 -32 24 -49t60.5 -29t78.5 -24zM347 931h135l-119 -144h-163l-116 144h138l63 -78z" />
    <glyph glyph-name="uni0161" unicode="&#x161;" horiz-adv-x="463" 
d="M36 334q0 43 17.5 74t46 51t65.5 29.5t75 9.5q48 0 97 -14t83 -50l-92 -91q-33 41 -87 41q-19 0 -37 -9t-18 -31q0 -18 18.5 -26.5t47 -15t61 -14t61 -23.5t47 -43.5t18.5 -73.5q0 -47 -20.5 -77.5t-52.5 -49t-72 -26t-79 -7.5q-51 0 -103 14.5t-88 51.5l91 101
q21 -26 46.5 -39.5t59.5 -13.5q26 0 47 7.5t21 27.5q0 19 -18.5 28.5t-47 16t-61 14t-61 22.5t-47 42.5t-18.5 73.5zM29 708h138l63 -78l62 78h135l-119 -144h-163z" />
    <glyph glyph-name="uni0162" unicode="&#x162;" 
d="M365 570v-570h-156v570h-202v138h560v-138h-202zM240 -61h144l-90 -199h-118z" />
    <glyph glyph-name="uni0163" unicode="&#x163;" horiz-adv-x="407" 
d="M252 204q0 -20 2 -36.5t9 -28.5t21.5 -18.5t38.5 -6.5q12 0 31.5 2.5t29.5 11.5v-125q-25 -9 -52 -12t-53 -3q-38 0 -70 8t-56 25.5t-37.5 45.5t-13.5 68v231h-96v120h96v144h150v-144h132v-120h-132v-162zM311 -61l-90 -199h-118l64 199h144z" />
    <glyph glyph-name="uni0164" unicode="&#x164;" 
d="M365 0h-156v570h-202v138h560v-138h-202v-570zM226 931l63 -78l62 78h135l-119 -144h-163l-116 144h138z" />
    <glyph glyph-name="uni0165" unicode="&#x165;" horiz-adv-x="407" 
d="M285 121q14 -7 38 -7q12 0 31.5 2.5t29.5 11.5v-125q-25 -9 -52 -12t-53 -3q-38 0 -70 8t-56 25.5t-37.5 45.5t-13.5 68v231h-96v120h96v144h150v-144h132v-120h-132v-162q0 -20 2 -36.5t9 -28.5t22 -18zM350 758h134l-80 -199h-98z" />
    <glyph glyph-name="uni0166" unicode="&#x166;" 
d="M567 570h-202v-108h125v-96h-125v-366h-156v366h-119v96h119v108h-202v138h560v-138z" />
    <glyph glyph-name="uni0167" unicode="&#x167;" horiz-adv-x="407" 
d="M252 217v-13q0 -20 2 -36.5t9 -28.5t21.5 -18.5t38.5 -6.5q12 0 31.5 2.5t29.5 11.5v-125q-25 -9 -52 -12t-53 -3q-38 0 -70 8t-56 25.5t-37.5 45.5t-13.5 68v82h-75v96h75v53h-96v120h96v144h150v-144h132v-120h-132v-53h115v-96h-115z" />
    <glyph glyph-name="uni0168" unicode="&#x168;" horiz-adv-x="741" 
d="M428 138q26 11 45 31.5t29.5 48.5t10.5 61v429h156v-435q0 -63 -19 -116t-56.5 -92t-93.5 -61t-129 -22q-74 0 -130 22t-93.5 61t-56.5 92t-19 116v435h156v-429q0 -33 10.5 -61t29.5 -48.5t45.5 -32t57.5 -11.5t57 12zM423 873q13 -5 28 -5q17 0 27 10.5t17 25.5h78
q-5 -29 -14 -54t-24.5 -43.5t-38 -29.5t-53.5 -11q-22 0 -41.5 6.5t-36.5 14.5t-32.5 14.5t-30.5 6.5q-17 0 -27 -14t-15 -28h-79q4 25 14 50t25.5 44.5t37.5 31.5t50 12q25 0 45 -6t42 -15z" />
    <glyph glyph-name="uni0169" unicode="&#x169;" 
d="M324 13q-18 -11 -41 -18t-50 -7q-57 0 -92.5 17.5t-55 48.5t-26 73t-6.5 91v268h150v-238q0 -21 1.5 -43.5t9 -41.5t23 -31t44.5 -12t47 10.5t27.5 28t12.5 39.5t3 46v242h150v-486h-144v66h-2q-8 -14 -20.5 -28t-30.5 -25zM336 677q13 -5 28 -5q17 0 27 10.5t17 25.5h78
q-5 -29 -14 -54t-24.5 -43.5t-38 -29.5t-53.5 -11q-22 0 -41.5 6.5t-36.5 14.5t-32.5 14.5t-30.5 6.5q-17 0 -27 -14t-15 -28h-79q4 25 14 50t25.5 44.5t37.5 31.5t50 12q25 0 45 -6t42 -15z" />
    <glyph glyph-name="uni016A" unicode="&#x16a;" horiz-adv-x="741" 
d="M473 170q19 20 29.5 48t10.5 61v429h156v-435q0 -63 -19 -116t-56.5 -92t-93.5 -61t-129 -22q-74 0 -130 22t-93.5 61t-56.5 92t-19 116v435h156v-429q0 -33 10.5 -61t29.5 -48.5t45.5 -32t57.5 -11.5t57 11.5t45 32.5zM547 883v-96h-340v96h340z" />
    <glyph glyph-name="uni016B" unicode="&#x16b;" 
d="M368 198q3 22 3 46v242h150v-486h-144v66h-2q-8 -14 -20.5 -28t-30.5 -25t-41 -18t-50 -7q-57 0 -92.5 17.5t-55 48.5t-26 73t-6.5 91v268h150v-238q0 -21 1.5 -43.5t9 -41.5t23 -31t44.5 -12t47 10.5t27.5 28t12.5 39.5zM116 687h340v-96h-340v96z" />
    <glyph glyph-name="uni016C" unicode="&#x16c;" horiz-adv-x="741" 
d="M148 65q-38 39 -57 92t-19 116v435h156v-429q0 -33 10.5 -61t29.5 -48.5t45.5 -32t57.5 -11.5t57 11.5t45 32t29.5 48.5t10.5 61v429h156v-435q0 -63 -19 -116t-56.5 -92t-93.5 -61t-129 -22q-74 0 -130 22t-93 61zM273 904q3 -15 13.5 -24t25 -14.5t31.5 -7.5t34 -2
q39 0 66.5 7.5t38.5 40.5h79q-4 -38 -20 -65.5t-40.5 -45t-56 -25.5t-67.5 -8q-35 0 -67.5 7.5t-58 25t-41 45t-17.5 66.5h80z" />
    <glyph glyph-name="uni016D" unicode="&#x16d;" 
d="M86 54q-20 31 -26.5 73t-6.5 91v268h150v-238q0 -21 1.5 -43.5t9 -41.5t23 -31t44.5 -12t47 10.5t27.5 28t12.5 39.5t3 46v242h150v-486h-144v66h-2q-8 -14 -20.5 -28t-30.5 -25t-41 -18t-50 -7q-57 0 -92.5 17.5t-54.5 48.5zM123 642q-16 27 -18 66h80q3 -15 13.5 -24
t25 -14.5t31.5 -7.5t34 -2q39 0 66.5 7.5t38.5 40.5h79q-4 -38 -20 -65.5t-40.5 -45t-56 -25.5t-67.5 -8t-68 7.5t-57 25t-41 45.5z" />
    <glyph glyph-name="uni016E" unicode="&#x16e;" horiz-adv-x="741" 
d="M228 279q0 -33 10.5 -61t29.5 -48.5t45.5 -32t57.5 -11.5t57 11.5t45 32t29.5 48.5t10.5 61v429h156v-435q0 -63 -19 -116t-56.5 -92t-93.5 -61t-129 -22q-74 0 -130 22t-93.5 61t-56.5 92t-19 116v435h156v-429zM377 731q-23 0 -43 9t-35 24t-24 35t-9 43q0 22 9 42.5
t24 35.5t35 24t43 9q22 0 42.5 -9t35.5 -24t24 -35.5t9 -42.5q0 -23 -9 -43t-24 -35t-35.5 -24t-42.5 -9zM377 893q-21 0 -36 -15t-15 -36t15 -36t36 -15t36 15t15 36t-15 36t-36 15z" />
    <glyph glyph-name="uni016F" unicode="&#x16f;" 
d="M237 132q15 -12 44 -12t47 10.5t27.5 28t12.5 39.5t3 46v242h150v-486h-144v66h-2q-8 -14 -20.5 -28t-30.5 -25t-41 -18t-50 -7q-57 0 -92.5 17.5t-55 48.5t-26 73t-6.5 91v268h150v-238q0 -21 1.5 -43.5t9 -41.5t23.5 -31zM284 545q-23 0 -43 9t-35 24t-24 35t-9 43
t9 43t24 35t35 24t43 9t43 -9t35 -24t24 -35t9 -43t-9 -43t-24 -35t-35 -24t-43 -9zM320 620q15 15 15 36t-15 36t-36 15t-36 -15t-15 -36t15 -36t36 -15t36 15z" />
    <glyph glyph-name="uni0170" unicode="&#x170;" horiz-adv-x="741" 
d="M503 218q10 28 10 61v429h156v-435q0 -63 -19 -116t-56.5 -92t-93.5 -61t-129 -22q-74 0 -130 22t-93.5 61t-56.5 92t-19 116v435h156v-429q0 -33 10.5 -61t29.5 -48.5t45.5 -32t57.5 -11.5t57 11.5t45 32t30 48.5zM557 760h-132l101 144h204zM466 904l-173 -144h-132
l101 144h204z" />
    <glyph glyph-name="uni0171" unicode="&#x171;" 
d="M356 159q9 17 12 39t3 46v242h150v-486h-144v66h-2q-8 -14 -20.5 -28t-30.5 -25t-41 -18t-50 -7q-57 0 -92.5 17.5t-55 48.5t-26 73t-6.5 91v268h150v-238q0 -21 1.5 -43.5t9 -41.5t23 -31t44.5 -12t47 10.5t28 28.5zM161 708h204l-173 -144h-132zM629 708l-173 -144
h-132l101 144h204z" />
    <glyph glyph-name="uni0172" unicode="&#x172;" horiz-adv-x="741" 
d="M422 -15q-21 -23 -38 -52t-17 -55q0 -17 12 -31.5t30 -14.5q14 0 28.5 7t25.5 16l28 -53q-25 -19 -51 -30.5t-58 -11.5q-42 0 -73.5 24t-31.5 69q0 33 22 68t49 62q-68 3 -120 26t-86.5 62t-52 90.5t-17.5 111.5v435h156v-429q0 -33 10.5 -61t29.5 -48.5t45 -32t58 -11.5
q31 0 57 11.5t45 32t29.5 48.5t10.5 61v429h156v-435q0 -57 -15.5 -106t-46.5 -87.5t-77.5 -63t-107.5 -31.5z" />
    <glyph glyph-name="uni0173" unicode="&#x173;" 
d="M203 248q0 -21 2 -43q1 -23 8.5 -42t23 -31t44.5 -12t47 10.5t27.5 28t12.5 39.5t3 46v242h150v-486h-74q-12 -12 -24.5 -27t-22.5 -31t-16.5 -32.5t-6.5 -31.5q0 -17 12 -31.5t30 -14.5q14 0 28.5 7t25.5 16l28 -53q-25 -19 -51 -30.5t-58 -11.5q-42 0 -73.5 24
t-31.5 69q0 19 8.5 39.5t21.5 39.5t29 36.5t31 31.5v66h-2q-8 -14 -20.5 -28t-30.5 -25t-40.5 -18t-50.5 -7q-57 0 -92.5 17.5t-55 48.5t-26 73t-6.5 91v268h150v-238z" />
    <glyph glyph-name="uni0174" unicode="&#x174;" horiz-adv-x="1000" 
d="M725 242l119 466h158l-207 -708h-139l-156 490h-2l-156 -490h-134l-210 708h170l113 -454h2l148 454h145l147 -466h2zM560 760l-63 78l-62 -78h-135l119 144h163l116 -144h-138z" />
    <glyph glyph-name="uni0175" unicode="&#x175;" horiz-adv-x="833" 
d="M595 181l91 305h152l-173 -486h-148l-101 323h-2l-90 -323h-151l-178 486h160l99 -305h2l83 305h164l90 -305h2zM476 564l-63 78l-62 -78h-135l119 144h163l116 -144h-138z" />
    <glyph glyph-name="uni0176" unicode="&#x176;" horiz-adv-x="648" 
d="M402 302v-302h-156v302l-266 406h194l150 -265l159 265h185zM244 904h163l116 -144h-138l-63 78l-62 -78h-135z" />
    <glyph glyph-name="uni0177" unicode="&#x177;" horiz-adv-x="556" 
d="M269 -199q-22 -20 -55 -30.5t-87 -10.5q-58 0 -112 18l20 123q34 -15 70 -15q25 0 41 5.5t26.5 16t17.5 25.5t15 35l11 28l-213 490h162l125 -321h2l107 321h154l-220 -565q-15 -39 -29 -69t-35 -51zM93 564l119 144h163l116 -144h-138l-63 78l-62 -78h-135z" />
    <glyph glyph-name="uni0178" unicode="&#x178;" horiz-adv-x="648" 
d="M402 0h-156v302l-266 406h194l150 -265l159 265h185l-266 -406v-302zM351 834q-7 15 -7 32q0 16 6.5 31t17.5 26t25.5 18t31.5 7q35 0 61 -23t26 -59t-24 -61t-61 -25q-18 0 -33 7t-26 19t-17 28zM136 866q0 16 6.5 31t17.5 26t25.5 18t31.5 7q35 0 61 -23t26 -59
t-24 -61t-61 -25q-18 0 -33 7t-26 19t-17.5 27.5t-6.5 32.5z" />
    <glyph glyph-name="uni0179" unicode="&#x179;" horiz-adv-x="630" 
d="M35 0v144l359 426h-346v138h535v-138l-352 -426h364v-144h-560zM321 904h204l-173 -144h-132z" />
    <glyph glyph-name="uni017A" unicode="&#x17a;" horiz-adv-x="500" 
d="M34 0v150l252 216h-246v120h420v-144l-264 -222h270v-120h-432zM250 708h204l-173 -144h-132z" />
    <glyph glyph-name="uni017B" unicode="&#x17b;" horiz-adv-x="630" 
d="M35 144l359 426h-346v138h535v-138l-352 -426h364v-144h-560v144zM395 899q26 -23 26 -59t-24 -61t-61 -25q-18 0 -33 7t-26 19t-17.5 27.5t-6.5 32.5q0 16 6.5 31t17.5 26t25.5 18t31.5 7q35 0 61 -23z" />
    <glyph glyph-name="uni017C" unicode="&#x17c;" horiz-adv-x="500" 
d="M34 150l252 216h-246v120h420v-144l-264 -222h270v-120h-432v150zM324 703q26 -23 26 -59t-24 -61t-61 -25q-18 0 -33 7t-26 19t-17.5 27.5t-6.5 32.5q0 16 6.5 31t17.5 26t25.5 18t31.5 7q35 0 61 -23z" />
    <glyph glyph-name="uni017D" unicode="&#x17d;" horiz-adv-x="630" 
d="M48 708h535v-138l-352 -426h364v-144h-560v144l359 426h-346v138zM228 787l-116 144h138l63 -78l62 78h135l-119 -144h-163z" />
    <glyph glyph-name="uni017E" unicode="&#x17e;" horiz-adv-x="500" 
d="M40 486h420v-144l-264 -222h270v-120h-432v150l252 216h-246v120zM163 564l-116 144h138l63 -78l62 78h135l-119 -144h-163z" />
    <glyph glyph-name="uni0192" unicode="&#x192;" horiz-adv-x="592" 
d="M350 332l-58 -292q-8 -41 -23 -74t-39 -56.5t-58 -36t-81 -12.5q-28 0 -56.5 6.5t-54.5 17.5l52 119q11 -6 22.5 -8.5t23.5 -2.5q32 0 48 21.5t27 73.5l50 244h-114v102h134l18 91q11 55 26 92.5t38 60.5t55.5 32.5t78.5 9.5q35 0 66.5 -7.5t63.5 -22.5l-53 -113
q-25 11 -52 11q-36 0 -53 -19.5t-26 -63.5l-15 -71h126v-102h-146z" />
    <glyph glyph-name="uni01C0" unicode="&#x1c0;" horiz-adv-x="222" 
d="M48 750h126v-1000h-126v1000z" />
    <glyph glyph-name="uni01C1" unicode="&#x1c1;" horiz-adv-x="444" 
d="M48 750h126v-1000h-126v1000zM270 750h126v-1000h-126v1000z" />
    <glyph glyph-name="uni01C3" unicode="&#x1c3;" horiz-adv-x="444" 
d="M297 234h-150v474h150v-474zM307 50q-7 -17 -19 -29q-13 -13 -30 -20t-36 -7t-36 7t-29.5 19.5t-19.5 29.5t-7 36t7 36t19.5 29.5t29.5 19.5t36 7t36 -7t29.5 -19.5t19.5 -29.5t7 -36t-7 -36z" />
    <glyph glyph-name="uni01C4" unicode="&#x1c4;" horiz-adv-x="1389" 
d="M468 689q76 -19 133 -61.5t90.5 -110.5t33.5 -165q0 -86 -32.5 -151.5t-87.5 -110t-127 -67.5t-151 -23h-255v708h234q85 0 162 -19zM794 144l359 426h-346v138h535v-138l-352 -426h364v-144h-560v144zM228 144h81q54 0 100.5 11t80.5 36.5t53.5 67t19.5 101.5
q0 52 -19.5 90.5t-52.5 63.5t-77.5 37.5t-93.5 12.5h-92v-420zM1076 824l62 78h135l-119 -144h-163l-116 144h138z" />
    <glyph glyph-name="uni01C5" unicode="&#x1c5;" horiz-adv-x="1259" 
d="M468 689q76 -19 133 -61.5t90.5 -110.5t33.5 -165q0 -86 -32.5 -151.5t-87.5 -110t-127 -67.5t-151 -23h-255v708h234q85 0 162 -19zM1045 366h-246v120h420v-144l-264 -222h270v-120h-432v150zM228 144h81q54 0 100.5 11t80.5 36.5t53.5 67t19.5 101.5q0 52 -19.5 90.5
t-52.5 63.5t-77.5 37.5t-93.5 12.5h-92v-420zM948 681l63 -78l62 78h135l-119 -144h-163l-116 144h138z" />
    <glyph glyph-name="uni01C6" unicode="&#x1c6;" horiz-adv-x="1130" 
d="M425 64h-2q-9 -13 -23.5 -26.5t-34 -24.5t-43 -18t-48.5 -7q-54 0 -98 18.5t-75.5 52t-48.5 79.5t-17 101q0 51 15.5 97.5t44 82.5t69.5 57.5t93 21.5q47 0 87.5 -14.5t66.5 -49.5h2v322h150v-756h-138v64zM670 366v120h420v-144l-264 -222h270v-120h-432v150l252 216
h-246zM305 366q-57 0 -88.5 -34t-31.5 -89t31.5 -89t88.5 -34t88.5 34t31.5 89t-31.5 89t-88.5 34zM1079 681l-119 -144h-163l-116 144h138l63 -78l62 78h135z" />
    <glyph glyph-name="uni01C7" unicode="&#x1c7;" horiz-adv-x="1037" 
d="M234 708v-564h289v-144h-445v708h156zM975 237q0 -49 -8.5 -95t-32.5 -81.5t-68.5 -57t-116.5 -21.5q-84 0 -142 40t-75 125l143 35q3 -26 23.5 -44t46.5 -18q27 0 42 13.5t22 33.5t8.5 43.5t1.5 43.5v454h156v-471z" />
    <glyph glyph-name="uni01C8" unicode="&#x1c8;" horiz-adv-x="797" 
d="M523 144v-144h-445v708h156v-564h289zM648 -226q-35 -14 -86 -14q-17 0 -35 1.5t-35 6.5l8 133q18 -9 39 -9q19 0 30 10t16 25t6 32t1 31v496h150v-522q0 -47 -9 -84.5t-30 -64t-55 -41.5zM667 726q36 0 61.5 -25.5t25.5 -61.5t-25.5 -61.5t-61.5 -25.5t-61.5 25.5
t-25.5 61.5t25.5 61.5t61.5 25.5z" />
    <glyph glyph-name="uni01C9" unicode="&#x1c9;" horiz-adv-x="520" 
d="M426 -185q-21 -26 -55.5 -40.5t-85.5 -14.5q-17 0 -35 1.5t-35 6.5l8 133q18 -9 39 -9q19 0 30 10t16 25t6 32t1 31v496h150v-522q0 -47 -9 -84.5t-30 -64.5zM55 756h150v-756h-150v756zM390 552q-36 0 -61.5 25.5t-25.5 61.5t25.5 61.5t61.5 25.5t61.5 -25.5t25.5 -61.5
t-25.5 -61.5t-61.5 -25.5z" />
    <glyph glyph-name="uni01CA" unicode="&#x1ca;" horiz-adv-x="1315" 
d="M228 504v-504h-156v708h212l301 -492h2v492h156v-708h-204l-309 504h-2zM1087 167q7 20 9 44q1 23 1 43v454h156v-471q0 -49 -8.5 -95t-32.5 -81.5t-68.5 -57t-116.5 -21.5q-84 0 -142 40t-75 125l143 35q3 -26 23.5 -44t46.5 -18q27 0 42 13.5t22 33.5z" />
    <glyph glyph-name="uni01CB" unicode="&#x1cb;" horiz-adv-x="1075" 
d="M284 708l301 -492h2v492h156v-708h-204l-309 504h-2v-504h-156v708h212zM863 -73q5 15 6 32t1 31v496h150v-522q0 -47 -9 -84.5t-30 -64t-55.5 -41t-85.5 -14.5q-17 0 -35 1.5t-35 6.5l8 133q18 -9 39 -9q19 0 30 10t16 25zM858 639q0 36 26 62q25 25 61 25t61.5 -25.5
t25.5 -61.5t-25.5 -61.5t-61.5 -25.5t-61.5 25.5t-25.5 61.5z" />
    <glyph glyph-name="uni01CC" unicode="&#x1cc;" horiz-adv-x="834" 
d="M338 354q-16 12 -45 12t-47 -10.5t-27.5 -28t-12.5 -39.5t-3 -46v-242h-150v486h144v-66h2q7 14 20 28t31 25t41 18t50 7q57 0 92 -17.5t54.5 -48.5t26.5 -73t7 -91v-268h-150v238q0 21 -1.5 43.5t-9 41.5t-22.5 31zM564 -239q-18 2 -35 7l8 133q18 -9 39 -9q19 0 30 10
t16 25t6 32t1 31v496h150v-522q0 -47 -9 -84.5t-30 -64t-55.5 -41t-85.5 -14.5q-17 0 -35 1zM766 578q-26 -26 -62 -26t-61.5 25.5t-25.5 61.5t25.5 61.5t61.5 25.5t61.5 -25.5t25.5 -61.5t-25 -61z" />
    <glyph glyph-name="uni01CD" unicode="&#x1cd;" horiz-adv-x="741" 
d="M230 150l-59 -150h-172l306 708h129l308 -708h-176l-61 150h-275zM434 902h135l-119 -144h-163l-116 144h138l63 -78zM452 282l-87 220l-86 -220h173z" />
    <glyph glyph-name="uni01CE" unicode="&#x1ce;" horiz-adv-x="537" 
d="M383 482q42 -17 67.5 -49t35.5 -78.5t10 -107.5v-247h-138v61h-2q-25 -39 -66.5 -56t-87.5 -17q-34 0 -65.5 9.5t-55.5 28.5t-38 47t-14 65q0 42 15.5 71t42 48t60.5 29.5t70.5 15.5t73 6t67.5 1q0 40 -28.5 63.5t-67.5 23.5q-37 0 -67.5 -15.5t-54.5 -42.5l-80 82
q42 39 98 58.5t116 19.5q66 0 109 -16zM461 693l-119 -144h-163l-116 144h138l63 -78l62 78h135zM279 212q-26 -2 -49.5 -9t-40 -21t-16.5 -39q0 -27 23 -40t48 -13q22 0 42.5 6t36.5 17t25.5 28t9.5 40v32h-37q-17 0 -42 -1z" />
    <glyph glyph-name="uni01CF" unicode="&#x1cf;" horiz-adv-x="296" 
d="M70 0v708h156v-708h-156zM347 902l-119 -144h-163l-116 144h138l63 -78l62 78h135z" />
    <glyph glyph-name="uni01D0" unicode="&#x1d0;" horiz-adv-x="260" 
d="M55 0v486h150v-486h-150zM329 681l-119 -144h-163l-116 144h138l63 -78l62 78h135z" />
    <glyph glyph-name="uni01D1" unicode="&#x1d1;" horiz-adv-x="832" 
d="M142 83q-51 48 -79.5 117t-28.5 154t28.5 154t79.5 117.5t121 74.5t153 26t153 -26t121 -74.5t79.5 -117.5t28.5 -154t-28.5 -154t-79.5 -117.5t-121 -74.5t-153 -26t-153 26t-121 75zM196 354q0 -50 15.5 -91.5t44.5 -72t69.5 -47.5t90.5 -17t90.5 17t69.5 47.5t44.5 72
t15.5 91.5q0 49 -15.5 91t-44.5 72.5t-69.5 47.5t-90.5 17t-90.5 -17t-69.5 -47.5t-44.5 -72.5t-15.5 -91zM418 842l62 78h135l-119 -144h-163l-116 144h138z" />
    <glyph glyph-name="uni01D2" unicode="&#x1d2;" horiz-adv-x="610" 
d="M497 429q36 -34 57 -81t21 -105t-21 -105t-57.5 -80.5t-86 -51.5t-105.5 -18t-105.5 18t-86 51.5t-57.5 80.5t-21 105t21 105t57.5 80.5t86 51.5t105.5 18t105.5 -18t86.5 -51zM394 332q-32 34 -89 34t-88.5 -34t-31.5 -89t31.5 -89t88.5 -34t88.5 34t31.5 89t-31 89z
M504 693l-119 -144h-163l-116 144h138l63 -78l62 78h135z" />
    <glyph glyph-name="uni01D3" unicode="&#x1d3;" horiz-adv-x="741" 
d="M503 218q10 28 10 61v429h156v-435q0 -63 -19 -116t-56.5 -92t-93.5 -61t-129 -22q-74 0 -130 22t-93.5 61t-56.5 92t-19 116v435h156v-429q0 -33 10.5 -61t29.5 -48.5t45.5 -32t57.5 -11.5t57 11.5t45 32t30 48.5zM287 758l-116 144h138l63 -78l62 78h135l-119 -144
h-163z" />
    <glyph glyph-name="uni01D4" unicode="&#x1d4;" 
d="M356 159q9 17 12 39t3 46v242h150v-486h-144v66h-2q-8 -14 -20.5 -28t-30.5 -25t-41 -18t-50 -7q-57 0 -92.5 17.5t-55 48.5t-26 73t-6.5 91v268h150v-238q0 -21 1.5 -43.5t9 -41.5t23 -31t44.5 -12t47 10.5t28 28.5zM367 537h-163l-116 144h138l63 -78l62 78h135z" />
    <glyph glyph-name="uni01D5" unicode="&#x1d5;" horiz-adv-x="741" 
d="M371 -18q-74 0 -130 22t-93.5 61t-56.5 92t-19 116v435h156v-429q0 -33 10.5 -61t29.5 -48.5t45.5 -32t57.5 -11.5t57 11.5t45 32t29.5 48.5t10.5 61v429h156v-435q0 -63 -19 -116t-56.5 -92t-93.5 -61t-129 -22zM200 976v96h340v-96h-340zM397 875q6 15 17 26t25.5 18
t31.5 7q35 0 61 -23t26 -59t-24 -61t-61 -25q-18 0 -33 7t-26 19t-17.5 27.5t-6.5 32.5q0 16 7 31zM182 844q0 16 6.5 31t17.5 26t25.5 18t31.5 7q35 0 61 -23t26 -59t-24 -61t-61 -25q-18 0 -33 7t-26 19t-17.5 27.5t-6.5 32.5z" />
    <glyph glyph-name="uni01D6" unicode="&#x1d6;" 
d="M328 131q18 10 27.5 27.5t12.5 39.5t3 46v242h150v-486h-144v66h-2q-8 -14 -20.5 -28t-30.5 -25t-41 -18t-50 -7q-57 0 -92.5 17.5t-55 48.5t-26 73t-6.5 91v268h150v-238q0 -21 1.5 -43.5t9 -41.5t23 -31t44.5 -12t47 11zM117 850h340v-96h-340v96zM243 562
q-24 -25 -61 -25q-18 0 -33 7t-26 19t-17.5 27.5t-6.5 32.5q0 16 6.5 31t17.5 26t25.5 18t31.5 7q35 0 61 -23t26 -59t-24 -61zM307 623q0 16 6.5 31t17.5 26t25.5 18t31.5 7q35 0 61 -23t26 -59t-24 -61t-61 -25q-18 0 -33 7t-26 19t-17.5 27.5t-6.5 32.5z" />
    <glyph glyph-name="uni01D7" unicode="&#x1d7;" horiz-adv-x="741" 
d="M371 -18q-74 0 -130 22t-93.5 61t-56.5 92t-19 116v435h156v-429q0 -33 10.5 -61t29.5 -48.5t45.5 -32t57.5 -11.5t57 11.5t45 32t29.5 48.5t10.5 61v429h156v-435q0 -63 -19 -116t-56.5 -92t-93.5 -61t-129 -22zM218 976l101 144h204l-173 -144h-132zM397 875
q6 15 17 26t25.5 18t31.5 7q35 0 61 -23t26 -59t-24 -61t-61 -25q-18 0 -33 7t-26 19t-17.5 27.5t-6.5 32.5q0 16 7 31zM263 926q35 0 61 -23t26 -59t-24 -61t-61 -25q-18 0 -33 7t-26 19t-17.5 27.5t-6.5 32.5q0 16 6.5 31t17.5 26t25.5 18t31.5 7z" />
    <glyph glyph-name="uni01D8" unicode="&#x1d8;" 
d="M328 131q18 10 27.5 27.5t12.5 39.5t3 46v242h150v-486h-144v66h-2q-8 -14 -20.5 -28t-30.5 -25t-41 -18t-50 -7q-57 0 -92.5 17.5t-55 48.5t-26 73t-6.5 91v268h150v-238q0 -21 1.5 -43.5t9 -41.5t23 -31t44.5 -12t47 11zM135 754l101 144h204l-173 -144h-132zM243 562
q-24 -25 -61 -25q-18 0 -33 7t-26 19t-17.5 27.5t-6.5 32.5q0 16 6.5 31t17.5 26t25.5 18t31.5 7q35 0 61 -23t26 -59t-24 -61zM388 705q35 0 61 -23t26 -59t-24 -61t-61 -25q-18 0 -33 7t-26 19t-17.5 27.5t-6.5 32.5q0 16 6.5 31t17.5 26t25.5 18t31.5 7z" />
    <glyph glyph-name="uni01D9" unicode="&#x1d9;" horiz-adv-x="741" 
d="M428 138q26 11 45 31.5t29.5 48.5t10.5 61v429h156v-435q0 -63 -19 -116t-56.5 -92t-93.5 -61t-129 -22q-74 0 -130 22t-93.5 61t-56.5 92t-19 116v435h156v-429q0 -33 10.5 -61t29.5 -48.5t45.5 -32t57.5 -11.5t57 12zM569 1120l-119 -144h-163l-116 144h138l63 -78
l62 78h135zM326 783q-24 -25 -61 -25q-18 0 -33 7t-26 19t-17.5 27.5t-6.5 32.5q0 16 6.5 31t17.5 26t25.5 18t31.5 7q35 0 61 -23t26 -59t-24 -61zM532 903q26 -23 26 -59t-24 -61t-61 -25q-18 0 -33 7t-26 19t-17.5 27.5t-6.5 32.5q0 16 6.5 31t17.5 26t25.5 18t31.5 7
q35 0 61 -23z" />
    <glyph glyph-name="uni01DA" unicode="&#x1da;" 
d="M86 54q-20 31 -26.5 73t-6.5 91v268h150v-238q0 -21 1.5 -43.5t9 -41.5t23 -31t44.5 -12t47 10.5t27.5 28t12.5 39.5t3 46v242h150v-486h-144v66h-2q-8 -14 -20.5 -28t-30.5 -25t-41 -18t-50 -7q-57 0 -92.5 17.5t-54.5 48.5zM289 820l62 78h135l-119 -144h-163l-116 144
h138zM307 623q0 16 6.5 31t17.5 26t25.5 18t31.5 7q35 0 61 -23t26 -59t-24 -61t-61 -25q-18 0 -33 7t-26 19t-17.5 27.5t-6.5 32.5zM99 623q0 16 6.5 31t17.5 26t25.5 18t31.5 7q35 0 61 -23t26 -59t-24 -61t-61 -25q-18 0 -33 7t-26 19t-17.5 27.5t-6.5 32.5z" />
    <glyph glyph-name="uni01DB" unicode="&#x1db;" horiz-adv-x="741" 
d="M428 138q26 11 45 31.5t29.5 48.5t10.5 61v429h156v-435q0 -63 -19 -116t-56.5 -92t-93.5 -61t-129 -22q-74 0 -130 22t-93.5 61t-56.5 92t-19 116v435h156v-429q0 -33 10.5 -61t29.5 -48.5t45.5 -32t57.5 -11.5t57 12zM218 1120h204l101 -144h-132zM397 875q6 15 17 26
t25.5 18t31.5 7q35 0 61 -23t26 -59t-24 -61t-61 -25q-18 0 -33 7t-26 19t-17.5 27.5t-6.5 32.5q0 16 7 31zM263 926q35 0 61 -23t26 -59t-24 -61t-61 -25q-18 0 -33 7t-26 19t-17.5 27.5t-6.5 32.5q0 16 6.5 31t17.5 26t25.5 18t31.5 7z" />
    <glyph glyph-name="uni01DC" unicode="&#x1dc;" 
d="M328 131q18 10 27.5 27.5t12.5 39.5t3 46v242h150v-486h-144v66h-2q-8 -14 -20.5 -28t-30.5 -25t-41 -18t-50 -7q-57 0 -92.5 17.5t-55 48.5t-26 73t-6.5 91v268h150v-238q0 -21 1.5 -43.5t9 -41.5t23 -31t44.5 -12t47 11zM135 898h204l101 -144h-132zM314 654
q6 15 17 26t25.5 18t31.5 7q35 0 61 -23t26 -59t-24 -61t-61 -25q-18 0 -33 7t-26 19t-17.5 27.5t-6.5 32.5q0 16 7 31zM180 705q35 0 61 -23t26 -59t-24 -61t-61 -25q-18 0 -33 7t-26 19t-17.5 27.5t-6.5 32.5q0 16 6.5 31t17.5 26t25.5 18t31.5 7z" />
    <glyph glyph-name="uni01DE" unicode="&#x1de;" horiz-adv-x="741" 
d="M171 0h-172l306 708h129l308 -708h-176l-61 150h-275zM200 1072h340v-96h-340v96zM390 844q0 16 6.5 31t17.5 26t25.5 18t31.5 7q35 0 61 -23t26 -59t-24 -61t-61 -25q-18 0 -33 7t-26 19t-17.5 27.5t-6.5 32.5zM189 875q6 15 17 26t25.5 18t31.5 7q35 0 61 -23t26 -59
t-24 -61t-61 -25q-18 0 -33 7t-26 19t-17.5 27.5t-6.5 32.5q0 16 7 31zM452 282l-87 220l-86 -220h173z" />
    <glyph glyph-name="uni01DF" unicode="&#x1df;" horiz-adv-x="537" 
d="M158 479q56 19 116 19q66 0 108.5 -16.5t68 -48.5t35.5 -78.5t10 -107.5v-247h-138v61h-2q-25 -39 -66.5 -56t-87.5 -17q-34 0 -65.5 9.5t-55.5 28.5t-38 47t-14 65q0 42 15.5 71t42 48t60.5 29.5t70.5 15.5t73 6t67.5 1q0 40 -28.5 63.5t-67.5 23.5q-37 0 -67.5 -15.5
t-54.5 -42.5l-80 82q42 39 98 59zM432 862v-96h-340v96h340zM74 635q0 16 6.5 31t17.5 26t25.5 18t31.5 7q35 0 61 -23t26 -59t-24 -61t-61 -25q-18 0 -33 7t-26 19t-17.5 27.5t-6.5 32.5zM289 666q6 15 17 26t25.5 18t31.5 7q35 0 61 -23t26 -59t-24 -61t-61 -25
q-18 0 -33 7t-26 19t-17.5 27.5t-6.5 32.5q0 16 7 31zM173 143q0 -27 23 -40t48 -13q22 0 42.5 6t36.5 17t25.5 28t9.5 40v32h-37q-17 0 -42.5 -1.5t-49 -8.5t-40 -21t-16.5 -39z" />
    <glyph glyph-name="uni01E0" unicode="&#x1e0;" horiz-adv-x="741" 
d="M566 0l-61 150h-275l-59 -150h-172l306 708h129l308 -708h-176zM540 976h-340v96h340v-96zM369 758q-18 0 -33 7t-26 19t-17.5 27.5t-6.5 32.5q0 16 6.5 31t17.5 26t25.5 18t31.5 7q35 0 61 -23t26 -59t-24 -61t-61 -25zM365 502l-86 -220h173z" />
    <glyph glyph-name="uni01E1" unicode="&#x1e1;" horiz-adv-x="537" 
d="M60 420q42 39 98 58.5t116 19.5q66 0 108.5 -16.5t68 -48.5t35.5 -78.5t10 -107.5v-247h-138v61h-2q-25 -39 -66.5 -56t-87.5 -17q-34 0 -65.5 9.5t-55.5 28.5t-38 47t-14 65q0 42 15.5 71t42 48t60.5 29.5t70.5 15.5t73 6t67.5 1q0 40 -28.5 63.5t-67.5 23.5
q-37 0 -67.5 -15.5t-54.5 -42.5zM432 766h-340v96h340v-96zM185 666q6 15 17 26t25.5 18t31.5 7q35 0 61 -23t26 -59t-24 -61t-61 -25q-18 0 -33 7t-26 19t-17.5 27.5t-6.5 32.5q0 16 7 31zM173 143q0 -27 23 -40t48 -13q22 0 42.5 6t36.5 17t25.5 28t9.5 40v32h-37
q-17 0 -42.5 -1.5t-49 -8.5t-40 -21t-16.5 -39z" />
    <glyph glyph-name="uni01E2" unicode="&#x1e2;" horiz-adv-x="1037" 
d="M690 564v-132h258v-144h-258v-144h294v-144h-450v150h-263l-95 -150h-191l449 708h538v-144h-282zM534 564h-17l-179 -282h196v282zM314 758v96h340v-96h-340z" />
    <glyph glyph-name="uni01E3" unicode="&#x1e3;" horiz-adv-x="852" 
d="M60 420q42 39 98 58.5t116 19.5q43 0 84.5 -14t73.5 -45q30 29 72.5 44t90.5 15q52 0 94.5 -18t72 -51.5t45.5 -80.5t16 -105v-47h-348q9 -43 39 -68.5t74 -25.5q37 0 62.5 16.5t44.5 42.5l105 -77q-36 -46 -91 -71t-114 -25q-60 0 -111 17t-83 62q-32 -44 -83.5 -61.5
t-115.5 -17.5q-34 0 -65.5 9.5t-55.5 28.5t-38 47t-14 65q0 39 15 66t39.5 45t56 27.5t65 14.5t66.5 6t60 1h18q0 44 -23 71t-64 27q-37 0 -67.5 -15.5t-54.5 -42.5zM173 139q0 -17 7.5 -26.5t18.5 -14.5t25 -6.5t26 -1.5q54 0 76.5 29t22.5 77h-18q-17 0 -44 -1t-52.5 -6
t-43.5 -17t-18 -33zM648 363q-26 27 -67 27q-25 0 -44 -8t-32.5 -20.5t-21 -29t-8.5 -34.5h198q1 38 -25 65zM256 549v96h340v-96h-340z" />
    <glyph glyph-name="uni01E6" unicode="&#x1e6;" horiz-adv-x="778" 
d="M416 -18q-83 0 -153 26t-121 74.5t-79.5 117.5t-28.5 154t28.5 154t79.5 117.5t121 74.5t153 26q85 0 156.5 -20.5t125.5 -70.5l-110 -120q-32 33 -72 50t-100 17q-50 0 -90.5 -17t-69.5 -47.5t-44.5 -72.5t-15.5 -91q0 -50 15.5 -91.5t44.5 -72t69.5 -47.5t90.5 -17
q51 0 88 11.5t59 23.5v115h-127v144h277v-370q-69 -36 -144 -52t-153 -16zM572 920l-119 -144h-163l-116 144h138l63 -78l62 78h135z" />
    <glyph glyph-name="uni01E7" unicode="&#x1e7;" horiz-adv-x="630" 
d="M274 -6q-54 0 -98 18.5t-75.5 52t-48.5 79.5t-17 101q0 48 15.5 94t44 81t69.5 56.5t93 21.5q32 0 58.5 -7t47.5 -18t36 -24.5t24 -26.5h2v64h138v-445q0 -138 -69.5 -209.5t-211.5 -71.5q-65 0 -128 14.5t-116 56.5l83 124q35 -29 73.5 -46t84.5 -17q69 0 101.5 33.5
t32.5 85.5v47h-2q-26 -35 -64.5 -49.5t-72.5 -14.5zM185 246q0 -24 9 -45.5t25.5 -38t38 -26.5t47.5 -10q25 0 47 10t38.5 26.5t25.5 38t9 45.5t-9 45.5t-25.5 38t-38.5 26.5t-47 10q-26 0 -47.5 -10t-38 -26.5t-25.5 -38t-9 -45.5zM498 693l-119 -144h-163l-116 144h138
l63 -78l62 78h135z" />
    <glyph glyph-name="uni01E8" unicode="&#x1e8;" horiz-adv-x="722" 
d="M740 0h-218l-288 336v-336h-156v708h156v-294l275 294h204l-315 -329zM608 902l-119 -144h-163l-116 144h138l63 -78l62 78h135z" />
    <glyph glyph-name="uni01E9" unicode="&#x1e9;" horiz-adv-x="556" 
d="M205 246h-2v-246h-150v756h150v-462l166 192h184l-193 -219l198 -267h-189zM222 806l-116 144h138l63 -78l62 78h135l-119 -144h-163z" />
    <glyph glyph-name="uni01EA" unicode="&#x1ea;" horiz-adv-x="832" 
d="M399 -151q0 -17 12 -31.5t30 -14.5q14 0 28.5 7t25.5 16l28 -53q-25 -19 -51 -30.5t-58 -11.5q-21 0 -40 6t-33.5 18t-23 29.5t-8.5 39.5t10 44.5t26 44t34 39.5q17 17 34 30q-81 1 -150 26q-70 26 -121 74.5t-79.5 117.5t-28.5 154t28.5 154t79.5 117.5t121 74.5t153 26
t153 -26t121 -74.5t79.5 -117.5t28.5 -154t-28.5 -154t-79.5 -117.5t-121 -74.5q-56 -21 -121 -25h34q-12 -11 -26.5 -26.5t-27 -34t-21 -37.5t-8.5 -36zM196 354q0 -50 15.5 -91.5t44.5 -72t69.5 -47.5t90.5 -17t90.5 17t69.5 47.5t44.5 72t15.5 91.5q0 49 -15.5 91
t-44.5 72.5t-69.5 47.5t-90.5 17t-90.5 -17t-69.5 -47.5t-44.5 -72.5t-15.5 -91z" />
    <glyph glyph-name="uni01EB" unicode="&#x1eb;" horiz-adv-x="610" 
d="M411 480q49 -18 85.5 -51.5t57.5 -80.5t21 -105t-21 -105t-57.5 -80.5t-85.5 -51.5q-38 -14 -80 -17h40q-12 -11 -26.5 -26.5t-27 -34t-21 -37.5t-8.5 -36t12 -31.5t30 -14.5q14 0 28.5 7t25.5 16l28 -53q-25 -19 -51 -30.5t-58 -11.5q-21 0 -40 6t-33.5 18t-23 29.5
t-8.5 39.5t10 44.5t26 44t34 39.5q17 17 34 30q-54 1 -102 18q-50 18 -86.5 51.5t-57.5 80.5t-21 105t21 105t57.5 80.5t86 51.5t105.5 18t106 -18zM305 366q-57 0 -88.5 -34t-31.5 -89t31.5 -89t88.5 -34t88.5 34t31.5 89t-31.5 89t-88.5 34z" />
    <glyph glyph-name="uni01EC" unicode="&#x1ec;" horiz-adv-x="832" 
d="M374 -263q-19 6 -33.5 18t-23 29.5t-8.5 39.5t10 44.5t26 44t34 39.5q17 17 34 30q-81 1 -150 26q-70 26 -121 74.5t-79.5 117.5t-28.5 154t28.5 154t79.5 117.5t121 74.5t153 26t153 -26t121 -74.5t79.5 -117.5t28.5 -154t-28.5 -154t-79.5 -117.5t-121 -74.5
q-56 -21 -121 -25h34q-12 -11 -26.5 -26.5t-27 -34t-21 -37.5t-8.5 -36t12 -31.5t30 -14.5q14 0 28.5 7t25.5 16l28 -53q-25 -19 -51 -30.5t-58 -11.5q-21 0 -40 6zM196 354q0 -50 15.5 -91.5t44.5 -72t69.5 -47.5t90.5 -17t90.5 17t69.5 47.5t44.5 72t15.5 91.5
q0 49 -15.5 91t-44.5 72.5t-69.5 47.5t-90.5 17t-90.5 -17t-69.5 -47.5t-44.5 -72.5t-15.5 -91zM586 872v-96h-340v96h340z" />
    <glyph glyph-name="uni01ED" unicode="&#x1ed;" horiz-adv-x="610" 
d="M411 480q49 -18 85.5 -51.5t57.5 -80.5t21 -105t-21 -105t-57.5 -80.5t-85.5 -51.5q-38 -14 -80 -17h40q-12 -11 -26.5 -26.5t-27 -34t-21 -37.5t-8.5 -36t12 -31.5t30 -14.5q14 0 28.5 7t25.5 16l28 -53q-25 -19 -51 -30.5t-58 -11.5q-21 0 -40 6t-33.5 18t-23 29.5
t-8.5 39.5t10 44.5t26 44t34 39.5q17 17 34 30q-54 1 -102 18q-50 18 -86.5 51.5t-57.5 80.5t-21 105t21 105t57.5 80.5t86 51.5t105.5 18t106 -18zM394 154q31 34 31 89t-31.5 89t-88.5 34t-88.5 -34t-31.5 -89t31.5 -89t88.5 -34t89 34zM135 645h340v-96h-340v96z" />
    <glyph glyph-name="uni01F0" unicode="&#x1f0;" horiz-adv-x="260" 
d="M196 -121q-9 -37 -30 -64q-21 -26 -55.5 -40.5t-85.5 -14.5q-17 0 -35 1.5t-35 6.5l8 133q18 -9 39 -9q19 0 30 10t16 25t6 32t1 31v496h150v-522q0 -47 -9 -85zM280 681l-119 -144h-163l-116 144h138l63 -78l62 78h135z" />
    <glyph glyph-name="uni01F1" unicode="&#x1f1;" horiz-adv-x="1389" 
d="M725 352q0 -86 -32.5 -151.5t-87.5 -110t-127 -67.5t-151 -23h-255v708h234q85 0 161.5 -19t133.5 -61.5t90.5 -110.5t33.5 -165zM807 570v138h535v-138l-352 -426h364v-144h-560v144l359 426h-346zM309 144q54 0 100.5 11t80.5 36.5t53.5 67t19.5 101.5q0 52 -19.5 90.5
t-52.5 63.5t-77.5 37.5t-93.5 12.5h-92v-420h81z" />
    <glyph glyph-name="uni01F2" unicode="&#x1f2;" horiz-adv-x="1259" 
d="M725 352q0 -86 -32.5 -151.5t-87.5 -110t-127 -67.5t-151 -23h-255v708h234q85 0 161.5 -19t133.5 -61.5t90.5 -110.5t33.5 -165zM799 366v120h420v-144l-264 -222h270v-120h-432v150l252 216h-246zM309 144q54 0 100.5 11t80.5 36.5t53.5 67t19.5 101.5q0 52 -19.5 90.5
t-52.5 63.5t-77.5 37.5t-93.5 12.5h-92v-420h81z" />
    <glyph glyph-name="uni01F3" unicode="&#x1f3;" horiz-adv-x="1130" 
d="M164 477q41 21 93 21q47 0 87.5 -14.5t66.5 -49.5h2v322h150v-756h-138v64h-2q-9 -13 -23.5 -26.5t-34 -24.5t-43 -18t-48.5 -7q-54 0 -98 18.5t-75.5 52t-48.5 79.5t-17 101q0 51 15.5 97.5t44 82.5t69.5 58zM916 366h-246v120h420v-144l-264 -222h270v-120h-432v150z
M185 243q0 -55 31.5 -89t88.5 -34t88.5 34t31.5 89t-31.5 89t-88.5 34t-88.5 -34t-31.5 -89z" />
    <glyph glyph-name="uni01F4" unicode="&#x1f4;" horiz-adv-x="778" 
d="M504 138q37 11 59 23v115h-127v144h277v-370q-69 -36 -144 -52t-153 -16q-83 0 -153 26t-121 74.5t-79.5 117.5t-28.5 154t28.5 154t79.5 117.5t121 74.5t153 26q85 0 156.5 -20.5t125.5 -70.5l-110 -120q-32 33 -72 50t-100 17q-50 0 -90.5 -17t-69.5 -47.5t-44.5 -72.5
t-15.5 -91q0 -50 15.5 -91.5t44.5 -72t69.5 -47.5t90.5 -17q51 0 88 12zM322 920h204l-173 -144h-132z" />
    <glyph glyph-name="uni01F5" unicode="&#x1f5;" horiz-adv-x="630" 
d="M381 -75q32 34 32 86v47h-2q-26 -35 -64.5 -49.5t-72.5 -14.5q-54 0 -98 18.5t-75.5 52t-48.5 79.5t-17 101q0 48 15.5 94t44 81t69.5 56.5t93 21.5q32 0 58.5 -7t47.5 -18t36 -24.5t24 -26.5h2v64h138v-445q0 -138 -69.5 -209.5t-211.5 -71.5q-65 0 -128 14.5t-116 56.5
l83 124q35 -29 73.5 -46t84.5 -17q69 0 102 33zM305 366q-26 0 -47.5 -10t-38 -26.5t-25.5 -38t-9 -45.5t9 -45.5t25.5 -38t38 -26.5t47.5 -10q25 0 47 10t38.5 26.5t25.5 38t9 45.5t-9 45.5t-25.5 38t-38.5 26.5t-47 10zM147 549l101 144h204l-173 -144h-132z" />
    <glyph glyph-name="uni01F8" unicode="&#x1f8;" horiz-adv-x="815" 
d="M539 0l-309 504h-2v-504h-156v708h212l301 -492h2v492h156v-708h-204zM459 902l101 -144h-132l-173 144h204z" />
    <glyph glyph-name="uni01F9" unicode="&#x1f9;" 
d="M433 481q35 -18 54.5 -49t26.5 -73t7 -91v-268h-150v238q0 21 -1.5 43.5t-9 41.5t-23 31t-44.5 12t-47 -10.5t-27.5 -28t-12.5 -39.5t-3 -46v-242h-150v486h144v-66h2q7 14 20 28t31 25t41 18t50 7q57 0 92 -17zM339 693l101 -144h-132l-173 144h204z" />
    <glyph glyph-name="uni01FA" unicode="&#x1fa;" horiz-adv-x="741" 
d="M171 0h-172l306 708h129l308 -708h-176l-61 150h-275zM259 869q0 23 9 43t24 35t35 24t43 9t43 -9t35 -24t24 -35t9 -43t-9 -43t-24 -35t-35 -24t-43 -9t-43 9t-35 24t-24 35t-9 43zM523 1174l-173 -144h-132l101 144h204zM365 502l-86 -220h173zM334 833q15 -15 36 -15
t36 15t15 36t-15 36t-36 15t-36 -15t-15 -36t15 -36z" />
    <glyph glyph-name="uni01FB" unicode="&#x1fb;" horiz-adv-x="537" 
d="M158 479q56 19 116 19q66 0 108.5 -16.5t68 -48.5t35.5 -78.5t10 -107.5v-247h-138v61h-2q-25 -39 -66.5 -56t-87.5 -17q-34 0 -65.5 9.5t-55.5 28.5t-38 47t-14 65q0 42 15.5 71t42 48t60.5 29.5t70.5 15.5t73 6t67.5 1q0 40 -28.5 63.5t-67.5 23.5q-37 0 -67.5 -15.5
t-54.5 -42.5l-80 82q42 39 98 59zM151 659q0 23 9 43t24 35t35 24t43 9t43 -9t35 -24t24 -35t9 -43t-9 -43t-24 -35t-35 -24t-43 -9t-43 9t-35 24t-24 35t-9 43zM415 964l-173 -144h-132l101 144h204zM196 103q23 -13 48 -13q22 0 42.5 6t36.5 17t25.5 28t9.5 40v32h-37
q-17 0 -42.5 -1.5t-49 -8.5t-40 -21t-16.5 -39q0 -27 23 -40zM211 659q0 -21 15 -36t36 -15t36 15t15 36t-15 36t-36 15t-36 -15t-15 -36z" />
    <glyph glyph-name="uni01FC" unicode="&#x1fc;" horiz-adv-x="1037" 
d="M690 564v-132h258v-144h-258v-144h294v-144h-450v150h-263l-95 -150h-191l449 708h538v-144h-282zM534 564h-17l-179 -282h196v282zM433 902h204l-173 -144h-132z" />
    <glyph glyph-name="uni01FD" unicode="&#x1fd;" horiz-adv-x="852" 
d="M60 420q42 39 98 58.5t116 19.5q43 0 84.5 -14t73.5 -45q30 29 72.5 44t90.5 15q52 0 94.5 -18t72 -51.5t45.5 -80.5t16 -105v-47h-348q9 -43 39 -68.5t74 -25.5q37 0 62.5 16.5t44.5 42.5l105 -77q-36 -46 -91 -71t-114 -25q-60 0 -111 17t-83 62q-32 -44 -83.5 -61.5
t-115.5 -17.5q-34 0 -65.5 9.5t-55.5 28.5t-38 47t-14 65q0 39 15 66t39.5 45t56 27.5t65 14.5t66.5 6t60 1h18q0 44 -23 71t-64 27q-37 0 -67.5 -15.5t-54.5 -42.5zM173 139q0 -17 7.5 -26.5t18.5 -14.5t25 -6.5t26 -1.5q54 0 76.5 29t22.5 77h-18q-17 0 -44 -1t-52.5 -6
t-43.5 -17t-18 -33zM648 363q-26 27 -67 27q-25 0 -44 -8t-32.5 -20.5t-21 -29t-8.5 -34.5h198q1 38 -25 65zM375 693h204l-173 -144h-132z" />
    <glyph glyph-name="uni01FE" unicode="&#x1fe;" horiz-adv-x="832" 
d="M569 8q-70 -26 -153 -26q-69 0 -128 18t-105 50l-93 -101l-56 48l93 102q-45 48 -69 112.5t-24 142.5q0 85 28.5 154t79.5 117.5t121 74.5t153 26q131 0 227 -64l92 100l55 -49l-90 -98q47 -48 72.5 -114t25.5 -147q0 -85 -28.5 -154t-79.5 -117.5t-121 -74.5zM416 126
q50 0 91 17q40 17 69 47.5t44.5 72t15.5 91.5q0 42 -11.5 78.5t-32.5 64.5l-305 -333q26 -18 58.5 -28t70.5 -10zM539 548q-53 34 -123 34q-50 0 -90.5 -17t-69.5 -47.5t-44.5 -72.5t-15.5 -91q0 -78 39 -137zM365 956h204l-173 -144h-132z" />
    <glyph glyph-name="uni01FF" unicode="&#x1ff;" horiz-adv-x="610" 
d="M395 485q41 -13 75 -36l67 67l47 -45l-66 -66q27 -32 42 -73t15 -89q0 -58 -21 -105t-57.5 -80.5t-86 -51.5t-105.5 -18q-90 0 -159 46l-73 -73l-47 45l70 70q-29 32 -45 74t-16 93q0 58 21 105t57.5 80.5t86 51.5t105.5 18q48 0 90 -13zM185 243q0 -36 15 -63l170 170
q-27 16 -65 16q-57 0 -88.5 -34t-31.5 -89zM394 154q31 34 31 89q0 31 -12 57l-167 -166q26 -14 59 -14q57 0 89 34zM254 710h204l-173 -144h-132z" />
    <glyph glyph-name="uni0200" unicode="&#x200;" horiz-adv-x="741" 
d="M505 150h-275l-59 -150h-172l306 708h129l308 -708h-176zM89 903h204l101 -144h-132zM518 758l-173 144h204l101 -144h-132zM279 282h173l-87 220z" />
    <glyph glyph-name="uni0201" unicode="&#x201;" horiz-adv-x="537" 
d="M262 396q-37 0 -67.5 -15.5t-54.5 -42.5l-80 82q42 39 98 58.5t116 19.5q66 0 108.5 -16.5t68 -48.5t35.5 -78.5t10 -107.5v-247h-138v61h-2q-25 -39 -66.5 -56t-87.5 -17q-34 0 -65.5 9.5t-55.5 28.5t-38 47t-14 65q0 42 15.5 71t42 48t60.5 29.5t70.5 15.5t73 6t67.5 1
q0 40 -28.5 63.5t-67.5 23.5zM286 550h-132l-173 144h204zM237 693h204l101 -144h-132zM287 96q20 6 36 17t25.5 28t9.5 40v32h-37q-17 0 -42.5 -1.5t-49 -8.5t-40 -21t-16.5 -39q0 -27 23 -40t48 -13q22 0 43 6z" />
    <glyph glyph-name="uni0202" unicode="&#x202;" horiz-adv-x="741" 
d="M-1 0l306 708h129l308 -708h-176l-61 150h-275l-59 -150h-172zM554 902q-4 -38 -20 -65.5t-40.5 -45t-56 -25.5t-67.5 -8t-68 7.5t-57 25t-41 45t-18 66.5h80q3 -15 13.5 -24t25 -14.5t31.5 -7.5t34 -2q39 0 66.5 7.5t38.5 40.5h79zM365 502l-86 -220h173z" />
    <glyph glyph-name="uni0203" unicode="&#x203;" horiz-adv-x="537" 
d="M158 479q56 19 116 19q66 0 108.5 -16.5t68 -48.5t35.5 -78.5t10 -107.5v-247h-138v61h-2q-25 -39 -66.5 -56t-87.5 -17q-34 0 -65.5 9.5t-55.5 28.5t-38 47t-14 65q0 42 15.5 71t42 48t60.5 29.5t70.5 15.5t73 6t67.5 1q0 40 -28.5 63.5t-67.5 23.5q-37 0 -67.5 -15.5
t-54.5 -42.5l-80 82q42 39 98 59zM158 693q3 -15 13.5 -24t25 -14.5t31.5 -7.5t34 -2q39 0 66.5 7.5t38.5 40.5h79q-4 -38 -20 -65.5t-40.5 -45t-56 -25.5t-67.5 -8t-68 7.5t-57 25t-41 45t-18 66.5h80zM196 103q23 -13 48 -13q22 0 42.5 6t36.5 17t25.5 28t9.5 40v32h-37
q-17 0 -42.5 -1.5t-49 -8.5t-40 -21t-16.5 -39q0 -27 23 -40z" />
    <glyph glyph-name="uni0204" unicode="&#x204;" horiz-adv-x="630" 
d="M234 288v-144h343v-144h-499v708h481v-144h-325v-132h307v-144h-307zM219 759l-173 144h204l101 -144h-132zM475 758l-173 144h204l101 -144h-132z" />
    <glyph glyph-name="uni0205" unicode="&#x205;" 
d="M364 119q25 16 44 42l105 -77q-36 -46 -91 -71t-114 -25q-56 0 -105.5 18t-86 51.5t-57.5 80.5t-21 105t21 105t57.5 80.5t86 51.5t105.5 18q52 0 94.5 -18t72 -51.5t45.5 -80.5t16 -105v-47h-348q9 -43 39 -68.5t74 -25.5q37 0 63 17zM466 693l101 -144h-132l-173 144
h204zM311 550h-132l-173 144h204zM294 390q-25 0 -44 -8t-32.5 -20.5t-21 -29t-8.5 -34.5h198q1 38 -25 65t-67 27z" />
    <glyph glyph-name="uni0206" unicode="&#x206;" horiz-adv-x="630" 
d="M559 708v-144h-325v-132h307v-144h-307v-144h343v-144h-499v708h481zM293 856q17 -2 34 -2q39 0 66.5 7.5t38.5 40.5h79q-4 -38 -20 -65.5t-40.5 -45t-56 -25.5t-67.5 -8t-68 7.5t-57 25t-41 45t-18 66.5h80q3 -15 13.5 -24t25 -14.5t31.5 -7.5z" />
    <glyph glyph-name="uni0207" unicode="&#x207;" 
d="M227 128q30 -26 74 -26q37 0 62.5 16.5t44.5 42.5l105 -77q-36 -46 -91 -71t-114 -25q-56 0 -105.5 18t-86 51.5t-57.5 80.5t-21 105t21 105t57.5 80.5t86 51.5t105.5 18q52 0 94.5 -18t72 -51.5t45.5 -80.5t16 -105v-47h-348q9 -43 39 -68zM287 645q39 0 66.5 7.5
t38.5 40.5h79q-4 -38 -20 -65.5t-40.5 -45t-56 -25.5t-67.5 -8t-68 7.5t-57 25t-41 45t-18 66.5h80q3 -15 13.5 -24t25 -14.5t31.5 -7.5t34 -2zM294 390q-25 0 -44 -8t-32.5 -20.5t-21 -29t-8.5 -34.5h198q1 38 -25 65t-67 27z" />
    <glyph glyph-name="uni0208" unicode="&#x208;" horiz-adv-x="296" 
d="M70 0v708h156v-708h-156zM123 902h204l101 -144h-132zM-133 903h204l101 -144h-132z" />
    <glyph glyph-name="uni0209" unicode="&#x209;" horiz-adv-x="260" 
d="M55 0v486h150v-486h-150zM105 681h204l101 -144h-132zM-151 682h204l101 -144h-132z" />
    <glyph glyph-name="uni020A" unicode="&#x20a;" horiz-adv-x="296" 
d="M70 0v708h156v-708h-156zM332 902q-4 -38 -20 -65q-16 -28 -40.5 -45.5t-56 -25.5t-67.5 -8t-68 7.5t-57 25t-41 45t-18 66.5h80q3 -15 13.5 -24t25 -14.5t31.5 -7.5t34 -2q39 0 66.5 7.5t38.5 40.5h79z" />
    <glyph glyph-name="uni020B" unicode="&#x20b;" horiz-adv-x="260" 
d="M55 0v486h150v-486h-150zM314 681q-4 -38 -20 -65q-16 -28 -40.5 -45.5t-56 -25.5t-67.5 -8t-68 7.5t-57 25t-41 45t-18 66.5h80q3 -15 13.5 -24t25 -14.5t31.5 -7.5t34 -2q39 0 66.5 7.5t38.5 40.5h79z" />
    <glyph glyph-name="uni020C" unicode="&#x20c;" horiz-adv-x="832" 
d="M142 83q-51 48 -79.5 117t-28.5 154t28.5 154t79.5 117.5t121 74.5t153 26t153 -26t121 -74.5t79.5 -117.5t28.5 -154t-28.5 -154t-79.5 -117.5t-121 -74.5t-153 -26t-153 26t-121 75zM212 263q15 -42 44 -72.5t69.5 -47.5t90.5 -17t90.5 17t69.5 47.5t44.5 72t15.5 91.5
q0 49 -15.5 91t-44.5 72.5t-69.5 47.5t-90.5 17t-90.5 -17t-69.5 -47.5t-44.5 -72.5t-15.5 -91q0 -50 16 -91zM595 920l101 -144h-132l-173 144h204zM440 777h-132l-173 144h204z" />
    <glyph glyph-name="uni020D" unicode="&#x20d;" horiz-adv-x="610" 
d="M411 480q49 -18 85.5 -51.5t57.5 -80.5t21 -105t-21 -105t-57.5 -80.5t-86 -51.5t-105.5 -18t-105.5 18t-86 51.5t-57.5 80.5t-21 105t21 105t57.5 80.5t86 51.5t105.5 18t106 -18zM394 154q31 34 31 89t-31.5 89t-88.5 34t-88.5 -34t-31.5 -89t31.5 -89t88.5 -34t89 34z
M228 694l101 -144h-132l-173 144h204zM280 693h204l101 -144h-132z" />
    <glyph glyph-name="uni020E" unicode="&#x20e;" horiz-adv-x="832" 
d="M569 700q70 -26 121 -74.5t79.5 -117.5t28.5 -154t-28.5 -154t-79.5 -117.5t-121 -74.5t-153 -26t-153 26t-121 74.5t-79.5 117.5t-28.5 154t28.5 154t79.5 117.5t121 74.5t153 26t153 -26zM507 143q40 17 69 47.5t44.5 72t15.5 91.5q0 49 -15.5 91t-44.5 72.5
t-69.5 47.5t-90.5 17t-90.5 -17t-69.5 -47.5t-44.5 -72.5t-15.5 -91q0 -50 15.5 -91.5t44.5 -72t69.5 -47.5t90.5 -17t91 17zM416 776q-36 0 -68 7.5t-57 25t-41 45t-18 66.5h80q3 -15 13.5 -24t25 -14.5t31.5 -7.5t34 -2q39 0 66.5 7.5t38.5 40.5h79q-4 -38 -20 -65.5
t-40.5 -45t-56 -25.5t-67.5 -8z" />
    <glyph glyph-name="uni020F" unicode="&#x20f;" horiz-adv-x="610" 
d="M114 58q-37 33 -58 80t-21 105t21 105t57.5 80.5t86 51.5t105.5 18t105.5 -18t86 -51.5t57.5 -80.5t21 -105t-21 -105t-57.5 -80.5t-86 -51.5t-105.5 -18t-105.5 18t-85.5 52zM185 243q0 -55 31.5 -89t88.5 -34t88.5 34t31.5 89t-31.5 89t-88.5 34t-88.5 -34t-31.5 -89z
M201 693q3 -15 13.5 -24t25 -14.5t31.5 -7.5t34 -2q39 0 66.5 7.5t38.5 40.5h79q-4 -38 -20 -65.5t-40.5 -45t-56 -25.5t-67.5 -8t-68 7.5t-57 25t-41 45t-18 66.5h80z" />
    <glyph glyph-name="uni0210" unicode="&#x210;" horiz-adv-x="648" 
d="M534 663q36 -25 57.5 -66.5t21.5 -103.5q0 -75 -39 -127.5t-114 -66.5l180 -299h-187l-148 283h-77v-283h-156v708h274q54 0 102.5 -10.5t85.5 -34.5zM439 449q12 16 12 45q0 27 -11 43t-28 24.5t-39 11.5t-43 3h-102v-161h92q21 0 44.5 1.5t42.5 9t32 23.5zM380 759
h-132l-173 144h204zM331 902h204l101 -144h-132z" />
    <glyph glyph-name="uni0211" unicode="&#x211;" horiz-adv-x="407" 
d="M345 498q13 0 26 -1t24 -4v-137q-16 5 -31.5 7.5t-32.5 2.5q-43 0 -68 -12t-38.5 -33.5t-17.5 -51.5t-4 -66v-203h-150v486h150v-78h2q24 45 57 67.5t83 22.5zM199 693h204l101 -144h-132zM248 550h-132l-173 144h204z" />
    <glyph glyph-name="uni0212" unicode="&#x212;" horiz-adv-x="648" 
d="M72 0v708h274q54 0 102.5 -10.5t85 -35t58 -66t21.5 -103.5q0 -75 -39 -127.5t-114 -66.5l180 -299h-187l-148 283h-77v-283h-156zM252 902q3 -15 13.5 -24t25 -14.5t31.5 -7.5t34 -2q39 0 66.5 7.5t38.5 40.5h79q-4 -38 -20 -65.5t-40.5 -45t-56 -25.5t-67.5 -8t-68 7.5
t-57 25t-41 45t-18 66.5h80zM439 449q12 16 12 45q0 27 -11 43t-28 24.5t-39 11.5t-43 3h-102v-161h92q21 0 44.5 1.5t42.5 9t32 23.5z" />
    <glyph glyph-name="uni0213" unicode="&#x213;" horiz-adv-x="407" 
d="M225 321q-14 -22 -18 -52t-4 -66v-203h-150v486h150v-78h2q24 45 57 67.5t83 22.5q13 0 26 -1t24 -4v-137q-16 5 -31.5 7.5t-32.5 2.5q-43 0 -68 -12t-38 -33zM408 693q-4 -38 -20 -65.5t-40.5 -45t-56 -25.5t-67.5 -8t-68 7.5t-57 25t-41 45t-18 66.5h80q3 -15 13.5 -24
t25 -14.5t31.5 -7.5t34 -2q39 0 66.5 7.5t38.5 40.5h79z" />
    <glyph glyph-name="uni0214" unicode="&#x214;" horiz-adv-x="741" 
d="M503 218q10 28 10 61v429h156v-435q0 -63 -19 -116t-56.5 -92t-93.5 -61t-129 -22q-74 0 -130 22t-93.5 61t-56.5 92t-19 116v435h156v-429q0 -33 10.5 -61t29.5 -48.5t45.5 -32t57.5 -11.5t57 11.5t45 32t30 48.5zM293 903l101 -144h-132l-173 144h204zM345 902h204
l101 -144h-132z" />
    <glyph glyph-name="uni0215" unicode="&#x215;" 
d="M324 13q-18 -11 -41 -18t-50 -7q-57 0 -92.5 17.5t-55 48.5t-26 73t-6.5 91v268h150v-238q0 -21 1.5 -43.5t9 -41.5t23 -31t44.5 -12t47 10.5t27.5 28t12.5 39.5t3 46v242h150v-486h-144v66h-2q-8 -14 -20.5 -28t-30.5 -25zM311 538h-132l-173 144h204zM262 681h204
l101 -144h-132z" />
    <glyph glyph-name="uni0216" unicode="&#x216;" horiz-adv-x="741" 
d="M148 65q-38 39 -57 92t-19 116v435h156v-429q0 -33 10.5 -61t29.5 -48.5t45.5 -32t57.5 -11.5t57 11.5t45 32t29.5 48.5t10.5 61v429h156v-435q0 -63 -19 -116t-56.5 -92t-93.5 -61t-129 -22q-74 0 -130 22t-93 61zM266 902q3 -15 13.5 -24t25 -14.5t31.5 -7.5t34 -2
q39 0 66.5 7.5t38.5 40.5h79q-4 -38 -20 -65.5t-40.5 -45t-56 -25.5t-67.5 -8t-68 7.5t-57 25t-41 45t-18 66.5h80z" />
    <glyph glyph-name="uni0217" unicode="&#x217;" 
d="M86 54q-20 31 -26.5 73t-6.5 91v268h150v-238q0 -21 1.5 -43.5t9 -41.5t23 -31t44.5 -12t47 10.5t27.5 28t12.5 39.5t3 46v242h150v-486h-144v66h-2q-8 -14 -20.5 -28t-30.5 -25t-41 -18t-50 -7q-57 0 -92.5 17.5t-54.5 48.5zM121 615q-16 27 -18 66h80q3 -15 13.5 -24
t25 -14.5t31.5 -7.5t34 -2q39 0 66.5 7.5t38.5 40.5h79q-4 -38 -20 -65.5t-40.5 -45t-56 -25.5t-67.5 -8t-68 7.5t-57 25t-41 45.5z" />
    <glyph glyph-name="uni0218" unicode="&#x218;" 
d="M211 712q49 14 101 14q60 0 116 -17t101 -57l-107 -117q-19 24 -51.5 35.5t-61.5 11.5q-17 0 -35 -4t-34 -12.5t-26 -22.5t-10 -34q0 -32 24 -49t60.5 -29t78.5 -24t78.5 -34t60.5 -59t24 -99q0 -59 -22 -103t-59.5 -73t-87 -43t-104.5 -14q-69 0 -128 21t-110 68
l111 122q24 -32 60.5 -49.5t75.5 -17.5q19 0 38.5 4.5t35 13.5t25 23t9.5 33q0 32 -24.5 50.5t-61.5 31.5t-80 26t-80 35t-61.5 58t-24.5 95q0 57 22.5 100t60 72t86.5 44zM361 -61l-90 -199h-118l64 199h144z" />
    <glyph glyph-name="uni0219" unicode="&#x219;" horiz-adv-x="463" 
d="M215 -12q-51 0 -103 14.5t-88 51.5l91 101q21 -26 46.5 -39.5t59.5 -13.5q26 0 47 7.5t21 27.5q0 19 -18.5 28.5t-47 16t-61 14t-61 22.5t-47 42.5t-18.5 73.5q0 43 17.5 74t46 51t65.5 29.5t75 9.5q48 0 97 -14t83 -50l-92 -91q-33 41 -87 41q-19 0 -37 -9t-18 -31
q0 -18 18.5 -26.5t47 -15t61 -14t61 -23.5t47 -43.5t18.5 -73.5q0 -47 -20.5 -77.5t-52.5 -49t-72 -26t-79 -7.5zM108 -260l64 199h144l-90 -199h-118z" />
    <glyph glyph-name="uni021A" unicode="&#x21a;" 
d="M365 570v-570h-156v570h-202v138h560v-138h-202zM240 -61h144l-90 -199h-118z" />
    <glyph glyph-name="uni021B" unicode="&#x21b;" horiz-adv-x="407" 
d="M252 204q0 -20 2 -36.5t9 -28.5t21.5 -18.5t38.5 -6.5q12 0 31.5 2.5t29.5 11.5v-125q-25 -9 -52 -12t-53 -3q-38 0 -70 8t-56 25.5t-37.5 45.5t-13.5 68v231h-96v120h96v144h150v-144h132v-120h-132v-162zM311 -61l-90 -199h-118l64 199h144z" />
    <glyph glyph-name="uni021E" unicode="&#x21e;" horiz-adv-x="759" 
d="M687 0h-156v306h-303v-306h-156v708h156v-264h303v264h156v-708zM296 758l-116 144h138l63 -78l62 78h135l-119 -144h-163z" />
    <glyph glyph-name="uni021F" unicode="&#x21f;" 
d="M338 354q-16 12 -45 12t-47 -10.5t-27.5 -28t-12.5 -39.5t-3 -46v-242h-150v756h150v-336h2q5 14 17 28t29 25t40 18t50 7q57 0 92 -17.5t54.5 -48.5t26.5 -73t7 -91v-268h-150v238q0 21 -1.5 43.5t-9 41.5t-22.5 31zM367 806h-163l-116 144h138l63 -78l62 78h135z" />
    <glyph glyph-name="uni0226" unicode="&#x226;" horiz-adv-x="741" 
d="M434 708l308 -708h-176l-61 150h-275l-59 -150h-172l306 708h129zM428 903q26 -23 26 -59t-24 -61t-61 -25q-18 0 -33 7t-26 19t-17.5 27.5t-6.5 32.5q0 16 6.5 31t17.5 26t25.5 18t31.5 7q35 0 61 -23zM279 282h173l-87 220z" />
    <glyph glyph-name="uni0227" unicode="&#x227;" horiz-adv-x="537" 
d="M45 209q15 29 41.5 48t60.5 29.5t70.5 15.5t73 6t67.5 1q0 40 -28.5 63.5t-67.5 23.5q-37 0 -67.5 -15.5t-54.5 -42.5l-80 82q42 39 98 58.5t116 19.5q66 0 108.5 -16.5t68 -48.5t35.5 -78.5t10 -107.5v-247h-138v61h-2q-25 -39 -66.5 -56t-87.5 -17q-34 0 -65.5 9.5
t-55.5 28.5t-38 47t-14 65q0 42 16 71zM228 556q-15 7 -26 19t-17.5 27.5t-6.5 32.5q0 16 6.5 31t17.5 26t25.5 18t31.5 7q35 0 61 -23t26 -59t-24 -61t-61 -25q-18 0 -33 7zM230 203q-24 -7 -40.5 -21t-16.5 -39q0 -27 23 -40t48 -13q22 0 42.5 6t36.5 17t25.5 28t9.5 40
v32h-37q-17 0 -42.5 -1.5t-48.5 -8.5z" />
    <glyph glyph-name="uni0228" unicode="&#x228;" horiz-adv-x="630" 
d="M342 -174q9 4 15 10t6 16q0 18 -17.5 26t-32.5 8q-17 0 -36 -8l-32 29l62 93h-229v708h481v-144h-325v-132h307v-144h-307v-144h343v-144h-203l-41 -60q22 0 44.5 -2.5t40.5 -11t29.5 -25t11.5 -44.5q0 -27 -14.5 -46t-36 -30t-45.5 -16t-43 -5q-30 0 -64.5 8.5
t-60.5 21.5l25 47q12 -5 31.5 -11t45.5 -6q12 0 23.5 1.5t21.5 4.5z" />
    <glyph glyph-name="uni0229" unicode="&#x229;" 
d="M180 -174q12 -5 31.5 -11t45.5 -6q12 0 23.5 1.5t21 5t15.5 9.5t6 16q0 18 -17.5 26t-32.5 8q-17 0 -36 -8l-32 29l62 93h15q-42 3 -79 17q-50 18 -86.5 51.5t-57.5 80.5t-21 105t21 105t57.5 80.5t86 51.5t105.5 18q52 0 94.5 -18t72 -51.5t45.5 -80.5t16 -105v-47h-348
q9 -43 39 -68.5t74 -25.5q37 0 62.5 16.5t44.5 42.5l105 -77q-36 -46 -91 -71q-44 -20 -91 -24h3l-41 -60q22 0 44.5 -2.5t40.5 -11t29.5 -25t11.5 -44.5q0 -27 -14.5 -46t-36 -30t-45.5 -16t-43 -5q-30 0 -64.5 8.5t-60.5 21.5zM197 333q-8 -17 -9 -35h198q1 38 -25 65
t-67 27q-25 0 -44 -8t-32.5 -20.5t-20.5 -28.5z" />
    <glyph glyph-name="uni022A" unicode="&#x22a;" horiz-adv-x="832" 
d="M142 83q-51 48 -79.5 117t-28.5 154t28.5 154t79.5 117.5t121 74.5t153 26t153 -26t121 -74.5t79.5 -117.5t28.5 -154t-28.5 -154t-79.5 -117.5t-121 -74.5t-153 -26t-153 26t-121 75zM212 263q15 -42 44 -72.5t69.5 -47.5t90.5 -17t90.5 17t69.5 47.5t44.5 72t15.5 91.5
q0 49 -15.5 91t-44.5 72.5t-69.5 47.5t-90.5 17t-90.5 -17t-69.5 -47.5t-44.5 -72.5t-15.5 -91q0 -50 16 -91zM246 1090h340v-96h-340v96zM578 921q26 -23 26 -59t-24 -61t-61 -25q-18 0 -33 7t-26 19t-17.5 27.5t-6.5 32.5q0 16 6.5 31t17.5 26t25.5 18t31.5 7q35 0 61 -23
zM228 862q0 16 6.5 31t17.5 26t25.5 18t31.5 7q35 0 61 -23t26 -59t-24 -61t-61 -25q-18 0 -33 7t-26 19t-17.5 27.5t-6.5 32.5z" />
    <glyph glyph-name="uni022B" unicode="&#x22b;" horiz-adv-x="610" 
d="M305 -12q-56 0 -105.5 18t-86 51.5t-57.5 80.5t-21 105t21 105t57.5 80.5t86 51.5t105.5 18t105.5 -18t86 -51.5t57.5 -80.5t21 -105t-21 -105t-57.5 -80.5t-86 -51.5t-105.5 -18zM394 154q31 34 31 89t-31.5 89t-88.5 34t-88.5 -34t-31.5 -89t31.5 -89t88.5 -34t89 34z
M135 766v96h340v-96h-340zM261 574q-24 -25 -61 -25q-18 0 -33 7t-26 19t-17.5 27.5t-6.5 32.5q0 16 6.5 31t17.5 26t25.5 18t31.5 7q35 0 61 -23t26 -59t-24 -61zM467 694q26 -23 26 -59t-24 -61t-61 -25q-18 0 -33 7t-26 19t-17.5 27.5t-6.5 32.5q0 16 6.5 31t17.5 26
t25.5 18t31.5 7q35 0 61 -23z" />
    <glyph glyph-name="uni022C" unicode="&#x22c;" horiz-adv-x="832" 
d="M263 700q70 26 153 26t153 -26t121 -74.5t79.5 -117.5t28.5 -154t-28.5 -154t-79.5 -117.5t-121 -74.5t-153 -26t-153 26t-121 74.5t-79.5 117.5t-28.5 154t28.5 154t79.5 117.5t121 74.5zM196 354q0 -50 15.5 -91.5t44.5 -72t69.5 -47.5t90.5 -17t90.5 17t69.5 47.5
t44.5 72t15.5 91.5q0 49 -15.5 91t-44.5 72.5t-69.5 47.5t-90.5 17t-90.5 -17t-69.5 -47.5t-44.5 -72.5t-15.5 -91zM234 826q10 25 25.5 44.5t37.5 31.5t50 12q25 0 45 -6t42 -15q14 -5 27.5 -10t28.5 -5q17 0 27 10.5t17 25.5h78q-5 -29 -14 -54t-24.5 -43.5t-38 -29.5
t-53.5 -11q-22 0 -41.5 6.5t-36.5 14.5t-32.5 14.5t-30.5 6.5q-17 0 -27 -14t-15 -28h-79q4 25 14 50zM586 964h-340v96h340v-96z" />
    <glyph glyph-name="uni022D" unicode="&#x22d;" horiz-adv-x="610" 
d="M305 -12q-56 0 -105.5 18t-86 51.5t-57.5 80.5t-21 105t21 105t57.5 80.5t86 51.5t105.5 18t105.5 -18t86 -51.5t57.5 -80.5t21 -105t-21 -105t-57.5 -80.5t-86 -51.5t-105.5 -18zM394 154q31 34 31 89t-31.5 89t-88.5 34t-88.5 -34t-31.5 -89t31.5 -89t88.5 -34t89 34z
M293 570q-17 8 -32.5 14.5t-30.5 6.5q-17 0 -27 -14t-15 -28h-79q4 25 14 50t25.5 44.5t37.5 31.5t50 12q25 0 45 -6t42 -15q14 -5 27.5 -10t28.5 -5q17 0 27 10.5t17 25.5h78q-5 -29 -14 -54t-24.5 -43.5t-38 -29.5t-53.5 -11q-22 0 -41.5 6.5t-36.5 14.5zM135 736v96h340
v-96h-340z" />
    <glyph glyph-name="uni022E" unicode="&#x22e;" horiz-adv-x="832" 
d="M569 700q70 -26 121 -74.5t79.5 -117.5t28.5 -154t-28.5 -154t-79.5 -117.5t-121 -74.5t-153 -26t-153 26t-121 74.5t-79.5 117.5t-28.5 154t28.5 154t79.5 117.5t121 74.5t153 26t153 -26zM507 143q40 17 69 47.5t44.5 72t15.5 91.5q0 49 -15.5 91t-44.5 72.5
t-69.5 47.5t-90.5 17t-90.5 -17t-69.5 -47.5t-44.5 -72.5t-15.5 -91q0 -50 15.5 -91.5t44.5 -72t69.5 -47.5t90.5 -17t91 17zM474 921q26 -23 26 -59t-24 -61t-61 -25q-18 0 -33 7t-26 19t-17.5 27.5t-6.5 32.5q0 16 6.5 31t17.5 26t25.5 18t31.5 7q35 0 61 -23z" />
    <glyph glyph-name="uni022F" unicode="&#x22f;" horiz-adv-x="610" 
d="M411 480q49 -18 85.5 -51.5t57.5 -80.5t21 -105t-21 -105t-57.5 -80.5t-86 -51.5t-105.5 -18t-105.5 18t-86 51.5t-57.5 80.5t-21 105t21 105t57.5 80.5t86 51.5t105.5 18t106 -18zM394 154q31 34 31 89t-31.5 89t-88.5 34t-88.5 -34t-31.5 -89t31.5 -89t88.5 -34t89 34z
M363 694q26 -23 26 -59t-24 -61t-61 -25q-18 0 -33 7t-26 19t-17.5 27.5t-6.5 32.5q0 16 6.5 31t17.5 26t25.5 18t31.5 7q35 0 61 -23z" />
    <glyph glyph-name="uni0230" unicode="&#x230;" horiz-adv-x="832" 
d="M569 700q70 -26 121 -74.5t79.5 -117.5t28.5 -154t-28.5 -154t-79.5 -117.5t-121 -74.5t-153 -26t-153 26t-121 74.5t-79.5 117.5t-28.5 154t28.5 154t79.5 117.5t121 74.5t153 26t153 -26zM326 143q40 -17 90 -17t90.5 17t69.5 47.5t44.5 72t15.5 91.5q0 49 -15.5 91
t-44.5 72.5t-69.5 47.5t-90.5 17t-90.5 -17t-69.5 -47.5t-44.5 -72.5t-15.5 -91q0 -50 15.5 -91.5t44.5 -72t70 -47.5zM246 994v96h340v-96h-340zM382 783q-15 7 -26 19t-17.5 27.5t-6.5 32.5q0 16 6.5 31t17.5 26t25.5 18t31.5 7q35 0 61 -23t26 -59t-24 -61t-61 -25
q-18 0 -33 7z" />
    <glyph glyph-name="uni0231" unicode="&#x231;" horiz-adv-x="610" 
d="M200 480q49 18 105 18t105.5 -18t86 -51.5t57.5 -80.5t21 -105t-21 -105t-57.5 -80.5t-86 -51.5t-105.5 -18t-105.5 18t-86 51.5t-57.5 80.5t-21 105t21 105t57.5 80.5t86.5 51.5zM185 243q0 -55 31.5 -89t88.5 -34t88.5 34t31.5 89t-31.5 89t-88.5 34t-88.5 -34
t-31.5 -89zM135 862h340v-96h-340v96zM221 635q0 16 6.5 31t17.5 26t25.5 18t31.5 7q35 0 61 -23t26 -59t-24 -61t-61 -25q-18 0 -33 7t-26 19t-17.5 27.5t-6.5 32.5z" />
    <glyph glyph-name="uni0232" unicode="&#x232;" horiz-adv-x="648" 
d="M402 0h-156v302l-266 406h194l150 -265l159 265h185l-266 -406v-302zM494 854v-96h-340v96h340z" />
    <glyph glyph-name="uni0233" unicode="&#x233;" horiz-adv-x="556" 
d="M269 -199q-22 -20 -55 -30.5t-87 -10.5q-58 0 -112 18l20 123q34 -15 70 -15q25 0 41 5.5t26.5 16t17.5 25.5t15 35l11 28l-213 490h162l125 -321h2l107 321h154l-220 -565q-15 -39 -29 -69t-35 -51zM108 537v96h340v-96h-340z" />
    <glyph glyph-name="uni0237" unicode="&#x237;" horiz-adv-x="260" 
d="M196 -121q-9 -37 -30 -64q-21 -26 -55.5 -40.5t-85.5 -14.5q-17 0 -35 1.5t-35 6.5l8 133q18 -9 39 -9q19 0 30 10t16 25t6 32t1 31v496h150v-522q0 -47 -9 -85z" />
    <glyph glyph-name="uni02BB" unicode="&#x2bb;" horiz-adv-x="296" 
d="M129 708h128l-74 -282h-144z" />
    <glyph glyph-name="uni02BC" unicode="&#x2bc;" horiz-adv-x="296" 
d="M113 708h144l-90 -282h-128z" />
    <glyph glyph-name="uni02C6" unicode="&#x2c6;" horiz-adv-x="260" 
d="M191 564l-63 78l-62 -78h-135l119 144h163l116 -144h-138z" />
    <glyph glyph-name="uni02C7" unicode="&#x2c7;" horiz-adv-x="260" 
d="M325 708l-119 -144h-163l-116 144h138l63 -78l62 78h135z" />
    <glyph glyph-name="uni02C9" unicode="&#x2c9;" horiz-adv-x="260" 
d="M-40 591v96h340v-96h-340z" />
    <glyph glyph-name="uni02D8" unicode="&#x2d8;" horiz-adv-x="260" 
d="M314 708q-4 -38 -20 -65q-16 -28 -40.5 -45.5t-56 -25.5t-67.5 -8t-68 7.5t-57 25t-41 45t-18 66.5h80q3 -15 13.5 -24t25 -14.5t31.5 -7.5t34 -2q39 0 66.5 7.5t38.5 40.5h79z" />
    <glyph glyph-name="uni02D9" unicode="&#x2d9;" horiz-adv-x="260" 
d="M214 644q0 -36 -24 -61t-61 -25q-18 0 -33 7t-26 19t-17.5 27.5t-6.5 32.5q0 16 6.5 31t17.5 26t25.5 18t31.5 7q35 0 61 -23t26 -59z" />
    <glyph glyph-name="uni02DA" unicode="&#x2da;" horiz-adv-x="260" 
d="M208 578q-15 -15 -35 -24t-43 -9t-43 9t-35 24t-24 35t-9 43t9 43t24 35t35 24t43 9t43 -9t35 -24t24 -35t9 -43t-9 -43t-24 -35zM181 656q0 21 -15 36t-36 15t-36 -15t-15 -36t15 -36t36 -15t36 15t15 36z" />
    <glyph glyph-name="uni02DB" unicode="&#x2db;" horiz-adv-x="260" 
d="M164 12q-12 -11 -26 -27q-15 -15 -27.5 -33.5t-21 -37.5t-8.5 -36t12 -31.5t30 -14.5q14 0 28.5 7t25.5 16l28 -53q-25 -19 -51 -30.5t-58 -11.5q-21 0 -40 6t-33.5 18t-23 29.5t-8.5 39.5t10 44.5t26 44t34 39.5t35 31h68z" />
    <glyph glyph-name="uni02DC" unicode="&#x2dc;" horiz-adv-x="260" 
d="M204 672q17 0 27 11q10 10 17 25h78q-5 -29 -14 -54t-24.5 -43.5t-38 -29.5t-53.5 -11q-22 0 -41.5 6.5t-36.5 14.5t-32.5 14.5t-30.5 6.5q-17 0 -27 -14t-15 -28h-79q4 25 14 50t25.5 44.5t37.5 31.5t50 12q25 0 45 -6t42 -15q14 -5 27.5 -10t28.5 -5z" />
    <glyph glyph-name="uni02DD" unicode="&#x2dd;" horiz-adv-x="260" 
d="M162 564l101 144h204l-173 -144h-132zM-1 708h204l-173 -144h-132z" />
    <glyph glyph-name="uni02EE" unicode="&#x2ee;" horiz-adv-x="520" 
d="M332 708h144l-90 -282h-128zM44 426l74 282h144l-90 -282h-128z" />
    <glyph glyph-name="uni0300" unicode="&#x300;" horiz-adv-x="0" 
d="M-56 708l101 -144h-132l-173 144h204z" />
    <glyph glyph-name="uni0301" unicode="&#x301;" horiz-adv-x="0" 
d="M-159 708h204l-173 -144h-132z" />
    <glyph glyph-name="uni0302" unicode="&#x302;" horiz-adv-x="0" 
d="M0 564l-63 78l-62 -78h-135l119 144h163l116 -144h-138z" />
    <glyph glyph-name="uni0303" unicode="&#x303;" horiz-adv-x="0" 
d="M10 672q17 0 27 11q10 10 17 25h78q-5 -29 -14 -54t-24.5 -43.5t-38 -29.5t-53.5 -11q-22 0 -41.5 6.5t-36.5 14.5t-32.5 14.5t-30.5 6.5q-17 0 -27 -14t-15 -28h-79q4 25 14 50t25.5 44.5t37.5 31.5t50 12q25 0 45 -6t42 -15q14 -5 27.5 -10t28.5 -5z" />
    <glyph glyph-name="uni0304" unicode="&#x304;" horiz-adv-x="0" 
d="M-260 591v96h340v-96h-340z" />
    <glyph glyph-name="uni0306" unicode="&#x306;" horiz-adv-x="0" 
d="M108 708q-4 -38 -20 -65q-16 -28 -40.5 -45.5t-56 -25.5t-67.5 -8t-68 7.5t-57 25t-41 45t-18 66.5h80q3 -15 13.5 -24t25 -14.5t31.5 -7.5t34 -2q39 0 66.5 7.5t38.5 40.5h79z" />
    <glyph glyph-name="uni0307" unicode="&#x307;" horiz-adv-x="0" 
d="M-92 644q0 -36 -24 -61t-61 -25q-18 0 -33 7t-26 19t-17.5 27.5t-6.5 32.5q0 16 6.5 31t17.5 26t25.5 18t31.5 7q35 0 61 -23t26 -59z" />
    <glyph glyph-name="uni0308" unicode="&#x308;" horiz-adv-x="0" 
d="M-2 565q-15 7 -26 19t-17.5 27.5t-6.5 32.5q0 16 6.5 31t17.5 26t25.5 18t31.5 7q35 0 61 -23t26 -59t-24 -61t-61 -25q-18 0 -33 7zM-254 612q-6 15 -6 32q0 16 6.5 31t17.5 26t25.5 18t31.5 7q35 0 61 -23t26 -59t-24 -61t-61 -25q-18 0 -33 7t-26 19t-18 28z" />
    <glyph glyph-name="uni0309" unicode="&#x309;" horiz-adv-x="0" 
d="M-261 562q-5 -9 -4 -17l-1 -16l-96 -1v22q0 17 6 27.5t18 19.5q18 15 33 25t26 19t18 17.5t7 17.5q-1 17 -14 26t-33 9q-30 0 -45.5 -14.5t-17.5 -32.5l-98 4q7 54 50 83t110 30q29 0 54.5 -6t45.5 -18.5t31 -31t11 -43.5q0 -15 -4.5 -26.5t-12.5 -23.5t-24 -24.5
t-39 -27.5q-15 -9 -21 -18z" />
    <glyph glyph-name="uni030A" unicode="&#x30a;" horiz-adv-x="0" 
d="M-71 578q-15 -15 -35 -24t-43 -9t-43 9t-35 24t-24 35t-9 43t9 43t24 35t35 24t43 9t43 -9t35 -24t24 -35t9 -43t-9 -43t-24 -35zM-98 656q0 21 -15 36t-36 15t-36 -15t-15 -36t15 -36t36 -15t36 15t15 36z" />
    <glyph glyph-name="uni030B" unicode="&#x30b;" horiz-adv-x="0" 
d="M4 564l101 144h204l-173 -144h-132zM-159 708h204l-173 -144h-132z" />
    <glyph glyph-name="uni030C" unicode="&#x30c;" horiz-adv-x="0" 
d="M138 708l-119 -144h-163l-116 144h138l63 -78l62 78h135z" />
    <glyph glyph-name="uni030F" unicode="&#x30f;" horiz-adv-x="0" 
d="M-260 708h204l101 -144h-132zM-516 709h204l101 -144h-132z" />
    <glyph glyph-name="uni0311" unicode="&#x311;" horiz-adv-x="0" 
d="M0 708q-4 -38 -20 -65q-16 -28 -40.5 -45.5t-56 -25.5t-67.5 -8t-68 7.5t-57 25t-41 45t-18 66.5h80q3 -15 13.5 -24t25 -14.5t31.5 -7.5t34 -2q39 0 66.5 7.5t38.5 40.5h79z" />
    <glyph glyph-name="uni031B" unicode="&#x31b;" horiz-adv-x="0" 
d="M-222 718h144l-90 -282h-128z" />
    <glyph glyph-name="uni0323" unicode="&#x323;" horiz-adv-x="0" 
d="M-112 -162q0 -19 -7 -36t-19.5 -29.5t-29.5 -19.5t-36 -7t-36 7t-29.5 19.5t-19.5 29.5t-7 36t7 36t19.5 29.5t29.5 19.5t36 7t36 -7t29.5 -19.5t19.5 -29.5t7 -36z" />
    <glyph glyph-name="uni0324" unicode="&#x324;" horiz-adv-x="0" 
d="M-2 -231q-15 7 -26 19t-17.5 27.5t-6.5 32.5q0 16 6.5 31t17.5 26t25.5 18t31.5 7q35 0 61 -23t26 -59t-24 -61t-61 -25q-18 0 -33 7zM-254 -185q-6 16 -6 33q0 16 6.5 31t17.5 26t25.5 18t31.5 7q35 0 61 -23t26 -59t-24 -61t-61 -25q-18 0 -33 7t-26 19t-18 27z" />
    <glyph glyph-name="uni0325" unicode="&#x325;" horiz-adv-x="0" 
d="M-71 -259q-15 -15 -35 -24t-43 -9t-43 9t-35 24t-24 35t-9 43t9 43t24 35t35 24t43 9t43 -9t35 -24t24 -35t9 -43t-9 -43t-24 -35zM-98 -181q0 21 -15 36t-36 15t-36 -15t-15 -36t15 -36t36 -15t36 15t15 36z" />
    <glyph glyph-name="uni0326" unicode="&#x326;" horiz-adv-x="0" 
d="M-222 -70h144l-90 -282h-128z" />
    <glyph glyph-name="uni0327" unicode="&#x327;" horiz-adv-x="0" 
d="M-92 -148q0 18 -18 26q-17 8 -32 8q-17 0 -36 -8l-32 29l62 93h67l-41 -60q22 0 44.5 -2.5t40.5 -11t29.5 -25t11.5 -44.5q0 -27 -14.5 -46t-36 -30t-45.5 -16t-43 -5q-30 0 -64.5 8.5t-60.5 21.5l25 47q12 -5 31.5 -11t45.5 -6q12 0 23.5 1.5t21 5t15.5 9.5t6 16z" />
    <glyph glyph-name="uni0328" unicode="&#x328;" horiz-adv-x="0" 
d="M-87 12q-12 -11 -27 -27q-14 -15 -26.5 -33.5t-21 -37.5t-8.5 -36t12 -31.5t30 -14.5q14 0 28.5 7t25.5 16l28 -53q-25 -19 -51 -30.5t-58 -11.5q-21 0 -40 6t-33.5 18t-23 29.5t-8.5 39.5t10 44.5t26 44t34 39.5t35 31h68z" />
    <glyph glyph-name="uni032D" unicode="&#x32d;" horiz-adv-x="0" 
d="M0 -214l-63 78l-62 -78h-135l119 144h163l116 -144h-138z" />
    <glyph glyph-name="uni032E" unicode="&#x32e;" horiz-adv-x="0" 
d="M108 -70q-4 -38 -20 -66q-16 -27 -40.5 -44.5t-56 -25.5t-67.5 -8t-68 7.5t-57 25t-41 45t-18 66.5h80q3 -15 13.5 -24t25 -14.5t31.5 -7.5t34 -2q39 0 66.5 7.5t38.5 40.5h79z" />
    <glyph glyph-name="uni0330" unicode="&#x330;" horiz-adv-x="0" 
d="M10 -106q17 0 27 10q10 11 17 26h78q-5 -29 -14 -54t-24.5 -43.5t-38 -29.5t-53.5 -11q-22 0 -41.5 6.5t-36.5 14.5t-32.5 14.5t-30.5 6.5q-17 0 -27 -14t-15 -28h-79q4 25 14 50t25.5 44.5t37.5 31.5t50 12q25 0 45 -6t42 -15q14 -5 27.5 -10t28.5 -5z" />
    <glyph glyph-name="uni0331" unicode="&#x331;" horiz-adv-x="0" 
d="M-260 -166v96h340v-96h-340z" />
    <glyph glyph-name="uni0340" unicode="&#x340;" horiz-adv-x="0" 
d="M-56 708l101 -144h-132l-173 144h204z" />
    <glyph glyph-name="uni0341" unicode="&#x341;" horiz-adv-x="0" 
d="M-159 708h204l-173 -144h-132z" />
    <glyph glyph-name="uni0344" unicode="&#x344;" horiz-adv-x="0" 
d="M-2 565q-15 7 -26 19t-17.5 27.5t-6.5 32.5q0 16 6.5 31t17.5 26t25.5 18t31.5 7q35 0 61 -23t26 -59t-24 -61t-61 -25q-18 0 -33 7zM-254 612q-6 15 -6 32q0 16 6.5 31t17.5 26t25.5 18t31.5 7q35 0 61 -23t26 -59t-24 -61t-61 -25q-18 0 -33 7t-26 19t-18 28zM-124 920
h204l-173 -144h-132z" />
    <glyph glyph-name="uni037E" unicode="&#x37e;" horiz-adv-x="296" 
d="M91 162h144l-90 -282h-128zM214 472q12 -13 19 -30t7 -36t-7 -36t-19.5 -29.5t-29.5 -19.5t-36 -7t-36 7t-29.5 19.5t-19.5 29.5t-7 36t7 36t19.5 29.5t29.5 19.5t36 7t36 -7t30 -19z" />
    <glyph glyph-name="uni0385" unicode="&#x385;" horiz-adv-x="260" 
d="M200 565q-15 7 -26 19t-17.5 27.5t-6.5 32.5q0 16 6.5 31t17.5 26t25.5 18t31.5 7q35 0 61 -23t26 -59t-24 -61t-61 -25q-18 0 -33 7zM-52 612q-6 15 -6 32q0 16 6.5 31t17.5 26t25.5 18t31.5 7q35 0 61 -23t26 -59t-24 -61t-61 -25q-18 0 -33 7t-26 19t-18 28zM78 920
h204l-173 -144h-132z" />
    <glyph glyph-name="uni0387" unicode="&#x387;" horiz-adv-x="296" 
d="M240 283q0 -19 -7 -36t-19.5 -29.5t-29.5 -19.5t-36 -7t-36 7t-29.5 19.5t-19.5 29.5t-7 36t7 36t19.5 29.5t29.5 19.5t36 7t36 -7t29.5 -19.5t19.5 -29.5t7 -36z" />
    <glyph glyph-name="uni0394" unicode="&#x394;" horiz-adv-x="693" 
d="M665 79v-79h-638v78l240 643h165zM303 460q-8 -23 -14 -43l-119 -308h345l-112 293q-6 19 -14.5 43.5t-16.5 49t-15.5 47t-11.5 38.5h-3q-3 -13 -9 -32z" />
    <glyph glyph-name="uni03A9" unicode="&#x3a9;" horiz-adv-x="751" 
d="M78 517q23 59 66 103q42 44 101.5 70t132.5 26q77 0 136.5 -28.5t100 -74t61 -102t20.5 -113.5q0 -48 -11 -91t-29.5 -79.5t-42 -65.5t-48.5 -50v-3h145v-109h-283v81q25 16 48.5 41t41.5 60t28.5 81.5t10.5 105.5q0 46 -11.5 89t-34.5 75.5t-56.5 52t-76.5 19.5
q-41 0 -75 -18t-58 -50.5t-37 -76.5t-13 -96q0 -54 10.5 -99.5t28 -81.5t41 -61.5t49.5 -40.5v-81h-284v109h143v3q-24 21 -47 49t-41 63.5t-29 77.5t-11 90q0 66 24 125z" />
    <glyph glyph-name="uni03BC" unicode="&#x3bc;" 
d="M356 159q9 17 12 39t3 46v242h150v-486h-144v66h-2q-8 -14 -20.5 -28t-30.5 -25t-41 -18t-50 -7q-17 0 -30 3v-219h-150v714h150v-238q0 -21 1.5 -43.5t9 -41.5t23 -31t44.5 -12t47 10.5t28 28.5z" />
    <glyph glyph-name="uni03C0" unicode="&#x3c0;" horiz-adv-x="637" 
d="M404 55q-4 38 -4 92v269h-142q-2 -41 -7.5 -97t-14 -114.5t-20 -112.5t-24.5 -92h-134q13 43 24.5 98t19.5 112t13.5 111t6.5 95q-37 0 -61.5 -2.5t-41.5 -7.5l-15 89q20 16 62.5 25.5t111.5 9.5h444l-10 -114h-74v-262q0 -57 4 -93.5t10 -60.5h-134q-10 16 -14 55z" />
    <glyph glyph-name="uni04C0" unicode="&#x4c0;" horiz-adv-x="296" 
d="M70 0v708h156v-708h-156z" />
    <glyph glyph-name="uni04D4" unicode="&#x4d4;" horiz-adv-x="1037" 
d="M690 564v-132h258v-144h-258v-144h294v-144h-450v150h-263l-95 -150h-191l449 708h538v-144h-282zM534 564h-17l-179 -282h196v282z" />
    <glyph glyph-name="uni04D5" unicode="&#x4d5;" horiz-adv-x="852" 
d="M60 420q42 39 98 58.5t116 19.5q43 0 84.5 -14t73.5 -45q30 29 72.5 44t90.5 15q52 0 94.5 -18t72 -51.5t45.5 -80.5t16 -105v-47h-348q9 -43 39 -68.5t74 -25.5q37 0 62.5 16.5t44.5 42.5l105 -77q-36 -46 -91 -71t-114 -25q-60 0 -111 17t-83 62q-32 -44 -83.5 -61.5
t-115.5 -17.5q-34 0 -65.5 9.5t-55.5 28.5t-38 47t-14 65q0 39 15 66t39.5 45t56 27.5t65 14.5t66.5 6t60 1h18q0 44 -23 71t-64 27q-37 0 -67.5 -15.5t-54.5 -42.5zM173 139q0 -17 7.5 -26.5t18.5 -14.5t25 -6.5t26 -1.5q54 0 76.5 29t22.5 77h-18q-17 0 -44 -1t-52.5 -6
t-43.5 -17t-18 -33zM648 363q-26 27 -67 27q-25 0 -44 -8t-32.5 -20.5t-21 -29t-8.5 -34.5h198q1 38 -25 65z" />
    <glyph glyph-name="uni1E00" unicode="&#x1e00;" horiz-adv-x="741" 
d="M566 0l-61 150h-275l-59 -150h-172l306 708h129l308 -708h-176zM370 -271q-23 0 -43 9t-35 24t-24 35t-9 43t9 43t24 35t35 24t43 9t43 -9t35 -24t24 -35t9 -43t-9 -43t-24 -35t-35 -24t-43 -9zM452 282l-87 220l-86 -220h173zM370 -109q-21 0 -36 -15t-15 -36t15 -36
t36 -15t36 15t15 36t-15 36t-36 15z" />
    <glyph glyph-name="uni1E01" unicode="&#x1e01;" horiz-adv-x="537" 
d="M60 420q42 39 98 58.5t116 19.5q66 0 108.5 -16.5t68 -48.5t35.5 -78.5t10 -107.5v-247h-138v61h-2q-25 -39 -66.5 -56t-87.5 -17q-34 0 -65.5 9.5t-55.5 28.5t-38 47t-14 65q0 42 15.5 71t42 48t60.5 29.5t70.5 15.5t73 6t67.5 1q0 40 -28.5 63.5t-67.5 23.5
q-37 0 -67.5 -15.5t-54.5 -42.5zM151 -172q0 23 9 43t24 35t35 24t43 9t43 -9t35 -24t24 -35t9 -43t-9 -43t-24 -35t-35 -24t-43 -9t-43 9t-35 24t-24 35t-9 43zM196 103q23 -13 48 -13q22 0 42.5 6t36.5 17t25.5 28t9.5 40v32h-37q-17 0 -42.5 -1.5t-49 -8.5t-40 -21
t-16.5 -39q0 -27 23 -40zM211 -172q0 -21 15 -36t36 -15t36 15t15 36t-15 36t-36 15t-36 -15t-15 -36z" />
    <glyph glyph-name="uni1E02" unicode="&#x1e02;" horiz-adv-x="648" 
d="M429 702q46 -7 83 -26.5t60 -54.5t23 -93q0 -60 -33.5 -99.5t-88.5 -56.5v-2q35 -5 63.5 -19.5t49 -37t31.5 -52.5t11 -64q0 -56 -24 -93.5t-62 -60.5t-85.5 -33t-94.5 -10h-290v708h264q46 0 93 -6zM228 132h140q18 0 36.5 4t33.5 14t24.5 26t9.5 39q0 25 -12.5 40.5
t-31.5 23.5t-41 11t-41 3h-118v-161zM228 425h113q18 0 35.5 4t31.5 13t22.5 24t8.5 36q0 22 -9.5 36.5t-24.5 22.5t-34 11.5t-37 3.5h-106v-151zM266 844q0 16 6.5 31t17.5 26t25.5 18t31.5 7q35 0 61 -23t26 -59t-24 -61t-61 -25q-18 0 -33 7t-26 19t-17.5 27.5t-6.5 32.5
z" />
    <glyph glyph-name="uni1E03" unicode="&#x1e03;" horiz-adv-x="630" 
d="M205 64v-64h-138v756h150v-322h2q26 35 66.5 49.5t87.5 14.5q52 0 93 -21.5t69.5 -57.5t44 -82.5t15.5 -97.5q0 -55 -17 -101t-48.5 -79.5t-75.5 -52t-98 -18.5q-26 0 -49 7t-42.5 18t-34 24.5t-23.5 26.5h-2zM237 154q31 -34 88 -34t88.5 34t31.5 89t-31.5 89t-88.5 34
t-88.5 -34t-31.5 -89t32 -89zM254 923q6 15 17 26t25.5 18t31.5 7q35 0 61 -23t26 -59t-24 -61t-61 -25q-18 0 -33 7t-26 19t-17.5 27.5t-6.5 32.5q0 16 7 31z" />
    <glyph glyph-name="uni1E04" unicode="&#x1e04;" horiz-adv-x="648" 
d="M429 702q46 -7 83 -26.5t60 -54.5t23 -93q0 -60 -33.5 -99.5t-88.5 -56.5v-2q35 -5 63.5 -19.5t49 -37t31.5 -52.5t11 -64q0 -56 -24 -93.5t-62 -60.5t-85.5 -33t-94.5 -10h-290v708h264q46 0 93 -6zM228 132h140q18 0 36.5 4t33.5 14t24.5 26t9.5 39q0 25 -12.5 40.5
t-31.5 23.5t-41 11t-41 3h-118v-161zM228 425h113q18 0 35.5 4t31.5 13t22.5 24t8.5 36q0 22 -9.5 36.5t-24.5 22.5t-34 11.5t-37 3.5h-106v-151zM266 -131q0 16 6.5 31t17.5 26t25.5 18t31.5 7q35 0 61 -23t26 -59t-24 -61t-61 -25q-18 0 -33 7t-26 19t-17.5 27.5
t-6.5 32.5z" />
    <glyph glyph-name="uni1E05" unicode="&#x1e05;" horiz-adv-x="630" 
d="M205 64v-64h-138v756h150v-322h2q26 35 66.5 49.5t87.5 14.5q52 0 93 -21.5t69.5 -57.5t44 -82.5t15.5 -97.5q0 -55 -17 -101t-48.5 -79.5t-75.5 -52t-98 -18.5q-26 0 -49 7t-42.5 18t-34 24.5t-23.5 26.5h-2zM237 154q31 -34 88 -34t88.5 34t31.5 89t-31.5 89t-88.5 34
t-88.5 -34t-31.5 -89t32 -89zM254 -112q6 15 17 26t25.5 18t31.5 7q35 0 61 -23t26 -59t-24 -61t-61 -25q-18 0 -33 7t-26 19t-17.5 27.5t-6.5 32.5q0 16 7 31z" />
    <glyph glyph-name="uni1E06" unicode="&#x1e06;" horiz-adv-x="648" 
d="M512 676q37 -20 60 -55t23 -93q0 -60 -33.5 -99.5t-88.5 -56.5v-2q35 -5 63.5 -19.5t49 -37t31.5 -52.5t11 -64q0 -56 -24 -93.5t-62 -60.5t-85.5 -33t-94.5 -10h-290v708h264q46 0 92.5 -6.5t83.5 -25.5zM428 279q-19 8 -41 11t-41 3h-118v-161h140q18 0 36.5 4t33.5 14
t24.5 26t9.5 39q0 25 -12.5 40.5t-31.5 23.5zM520 -145h-340v96h340v-96zM430 539q-10 14 -25 22t-34 11.5t-37 3.5h-106v-151h113q18 0 35.5 4t31.5 13t22.5 24t8.5 36q0 22 -9 37z" />
    <glyph glyph-name="uni1E07" unicode="&#x1e07;" horiz-adv-x="630" 
d="M356 -12q-26 0 -49 7t-42.5 18t-34 24.5t-23.5 26.5h-2v-64h-138v756h150v-322h2q26 35 66.5 49.5t87.5 14.5q52 0 93 -21.5t69.5 -57.5t44 -82.5t15.5 -97.5q0 -55 -17 -101t-48.5 -79.5t-75.5 -52t-98 -18.5zM414 154q31 34 31 89t-31.5 89t-88.5 34t-88.5 -34
t-31.5 -89t31.5 -89t88.5 -34t89 34zM161 -157v96h340v-96h-340z" />
    <glyph glyph-name="uni1E08" unicode="&#x1e08;" horiz-adv-x="685" 
d="M212 32q-55 30 -94 77q-40 47 -62 109t-22 136q0 85 28.5 154t79.5 117.5t121 74.5t153 26q30 0 62.5 -5.5t64 -17.5t60.5 -32t52 -49l-120 -98q-23 28 -56.5 43t-77.5 15t-81.5 -17t-65 -47.5t-43 -72.5t-15.5 -91q0 -50 15.5 -91.5t42.5 -72t63.5 -47.5t78.5 -17
q48 0 85 20t61 56l130 -97q-45 -63 -114 -93t-142 -30h-9q-5 0 -10 1l-29 -43q22 0 44.5 -2.5t40.5 -11t29.5 -25t11.5 -44.5q0 -27 -14.5 -46t-36 -30t-45.5 -16t-43 -5q-30 0 -64.5 8.5t-60.5 21.5l25 47q12 -5 31.5 -11t45.5 -6q12 0 23.5 1.5t21 5t15.5 9.5t6 16
q0 18 -17.5 26t-32.5 8q-17 0 -36 -8l-32 29l54 82q-67 12 -122 43zM302 920h204l-173 -144h-132z" />
    <glyph glyph-name="uni1E09" unicode="&#x1e09;" horiz-adv-x="482" 
d="M275 -174q9 4 15 10t6 16q0 18 -17.5 26t-32.5 8q-17 0 -36 -8l-32 29l60 90q-44 9 -80.5 30.5t-63 53t-41.5 72.5t-15 90q0 58 21 105t57.5 80.5t86 51.5t105.5 18q43 0 90.5 -14.5t82.5 -50.5l-99 -104q-11 16 -31 26.5t-43 10.5q-57 0 -88.5 -34t-31.5 -89t31.5 -89
t88.5 -34q25 0 43 11t31 26l99 -104q-35 -36 -82.5 -50.5t-90.5 -14.5q-7 0 -9 1l-33 -49q22 0 44.5 -2.5t40.5 -11t29.5 -25t11.5 -44.5q0 -27 -14.5 -46t-36 -30t-45.5 -16t-43 -5q-30 0 -64.5 8.5t-60.5 21.5l25 47q12 -5 31.5 -11t45.5 -6q12 0 23.5 1.5t21.5 4.5z
M208 693h204l-173 -144h-132z" />
    <glyph glyph-name="uni1E0A" unicode="&#x1e0a;" horiz-adv-x="759" 
d="M601 628q57 -43 91 -111q33 -68 33 -165q0 -86 -32.5 -151.5t-87.5 -110t-127 -67.5t-151 -23h-255v708h234q85 0 161.5 -19t133.5 -61zM563 360q0 52 -19.5 90.5t-52.5 63.5t-77.5 37.5t-93.5 12.5h-92v-420h81q54 0 100.5 11t80.5 36.5t53.5 67t19.5 101.5zM482 844
q0 -36 -24 -61t-61 -25q-18 0 -33 7t-26 19t-17.5 27.5t-6.5 32.5q0 16 6.5 31t17.5 26t25.5 18t31.5 7q35 0 61 -23t26 -59z" />
    <glyph glyph-name="uni1E0B" unicode="&#x1e0b;" horiz-adv-x="630" 
d="M423 64q-9 -13 -23 -26q-15 -14 -34.5 -25t-43 -18t-48.5 -7q-54 0 -98 18.5t-75.5 52t-48.5 79.5t-17 101q0 51 15.5 97.5t44 82.5t69.5 57.5t93 21.5q47 0 87.5 -14.5t66.5 -49.5h2v322h150v-756h-138v64h-2zM425 243q0 55 -31 89q-32 34 -89 34t-88.5 -34t-31.5 -89
t31.5 -89t88.5 -34t88.5 34t31.5 89zM383 892q0 -36 -24 -61t-61 -25q-18 0 -33 7t-26 19t-17.5 27.5t-6.5 32.5q0 16 6.5 31t17.5 26t25.5 18t31.5 7q35 0 61 -23t26 -59z" />
    <glyph glyph-name="uni1E0C" unicode="&#x1e0c;" horiz-adv-x="759" 
d="M601 628q57 -43 91 -111q33 -68 33 -165q0 -86 -32.5 -151.5t-87.5 -110t-127 -67.5t-151 -23h-255v708h234q85 0 161.5 -19t133.5 -61zM563 360q0 52 -19.5 90.5t-52.5 63.5t-77.5 37.5t-93.5 12.5h-92v-420h81q54 0 100.5 11t80.5 36.5t53.5 67t19.5 101.5zM482 -131
q0 -36 -24 -61t-61 -25q-18 0 -33 7t-26 19t-17.5 27.5t-6.5 32.5q0 16 6.5 31t17.5 26t25.5 18t31.5 7q35 0 61 -23t26 -59z" />
    <glyph glyph-name="uni1E0D" unicode="&#x1e0d;" horiz-adv-x="630" 
d="M423 64q-9 -13 -23 -26q-15 -14 -34.5 -25t-43 -18t-48.5 -7q-54 0 -98 18.5t-75.5 52t-48.5 79.5t-17 101q0 51 15.5 97.5t44 82.5t69.5 57.5t93 21.5q47 0 87.5 -14.5t66.5 -49.5h2v322h150v-756h-138v64h-2zM425 243q0 55 -31 89q-32 34 -89 34t-88.5 -34t-31.5 -89
t31.5 -89t88.5 -34t88.5 34t31.5 89zM383 -143q0 -36 -24 -61t-61 -25q-18 0 -33 7t-26 19t-17.5 27.5t-6.5 32.5q0 16 6.5 31t17.5 26t25.5 18t31.5 7q35 0 61 -23t26 -59z" />
    <glyph glyph-name="uni1E0E" unicode="&#x1e0e;" horiz-adv-x="759" 
d="M601 628q57 -43 91 -111q33 -68 33 -165q0 -86 -32.5 -151.5t-87.5 -110t-127 -67.5t-151 -23h-255v708h234q85 0 161.5 -19t133.5 -61zM563 360q0 52 -19.5 90.5t-52.5 63.5t-77.5 37.5t-93.5 12.5h-92v-420h81q54 0 100.5 11t80.5 36.5t53.5 67t19.5 101.5zM228 -145
v96h340v-96h-340z" />
    <glyph glyph-name="uni1E0F" unicode="&#x1e0f;" horiz-adv-x="630" 
d="M423 64q-9 -13 -23 -26q-15 -14 -34.5 -25t-43 -18t-48.5 -7q-54 0 -98 18.5t-75.5 52t-48.5 79.5t-17 101q0 51 15.5 97.5t44 82.5t69.5 57.5t93 21.5q47 0 87.5 -14.5t66.5 -49.5h2v322h150v-756h-138v64h-2zM425 243q0 55 -31 89q-32 34 -89 34t-88.5 -34t-31.5 -89
t31.5 -89t88.5 -34t88.5 34t31.5 89zM129 -157v96h340v-96h-340z" />
    <glyph glyph-name="uni1E10" unicode="&#x1e10;" horiz-adv-x="759" 
d="M601 628q57 -43 91 -111q33 -68 33 -165q0 -86 -32.5 -151.5t-87.5 -110t-127 -67.5t-151 -23h-255v708h234q85 0 161.5 -19t133.5 -61zM563 360q0 52 -19.5 90.5t-52.5 63.5t-77.5 37.5t-93.5 12.5h-92v-420h81q54 0 100.5 11t80.5 36.5t53.5 67t19.5 101.5zM363 -50
h144l-90 -282h-128z" />
    <glyph glyph-name="uni1E11" unicode="&#x1e11;" horiz-adv-x="630" 
d="M423 64q-9 -13 -23 -26q-15 -14 -34.5 -25t-43 -18t-48.5 -7q-54 0 -98 18.5t-75.5 52t-48.5 79.5t-17 101q0 51 15.5 97.5t44 82.5t69.5 57.5t93 21.5q47 0 87.5 -14.5t66.5 -49.5h2v322h150v-756h-138v64h-2zM425 243q0 55 -31 89q-32 34 -89 34t-88.5 -34t-31.5 -89
t31.5 -89t88.5 -34t88.5 34t31.5 89zM264 -62h144l-90 -282h-128z" />
    <glyph glyph-name="uni1E12" unicode="&#x1e12;" horiz-adv-x="759" 
d="M601 628q57 -43 91 -111q33 -68 33 -165q0 -86 -32.5 -151.5t-87.5 -110t-127 -67.5t-151 -23h-255v708h234q85 0 161.5 -19t133.5 -61zM563 360q0 52 -19.5 90.5t-52.5 63.5t-77.5 37.5t-93.5 12.5h-92v-420h81q54 0 100.5 11t80.5 36.5t53.5 67t19.5 101.5zM459 -193
l-63 78l-62 -78h-135l119 144h163l116 -144h-138z" />
    <glyph glyph-name="uni1E13" unicode="&#x1e13;" horiz-adv-x="630" 
d="M423 64q-9 -13 -23 -26q-15 -14 -34.5 -25t-43 -18t-48.5 -7q-54 0 -98 18.5t-75.5 52t-48.5 79.5t-17 101q0 51 15.5 97.5t44 82.5t69.5 57.5t93 21.5q47 0 87.5 -14.5t66.5 -49.5h2v322h150v-756h-138v64h-2zM425 243q0 55 -31 89q-32 34 -89 34t-88.5 -34t-31.5 -89
t31.5 -89t88.5 -34t88.5 34t31.5 89zM360 -205l-63 78l-62 -78h-135l119 144h163l116 -144h-138z" />
    <glyph glyph-name="uni1E14" unicode="&#x1e14;" horiz-adv-x="630" 
d="M234 288v-144h343v-144h-499v708h481v-144h-325v-132h307v-144h-307zM157 758v96h340v-96h-340zM175 1048h204l101 -144h-132z" />
    <glyph glyph-name="uni1E15" unicode="&#x1e15;" 
d="M364 119q25 16 44 42l105 -77q-36 -46 -91 -71t-114 -25q-56 0 -105.5 18t-86 51.5t-57.5 80.5t-21 105t21 105t57.5 80.5t86 51.5t105.5 18q52 0 94.5 -18t72 -51.5t45.5 -80.5t16 -105v-47h-348q9 -43 39 -68.5t74 -25.5q37 0 63 17zM457 549h-340v96h340v-96zM135 838
h204l101 -144h-132zM250 382q-19 -8 -32.5 -20.5t-21 -29t-8.5 -34.5h198q1 38 -25 65t-67 27q-25 0 -44 -8z" />
    <glyph glyph-name="uni1E16" unicode="&#x1e16;" horiz-adv-x="630" 
d="M234 288v-144h343v-144h-499v708h481v-144h-325v-132h307v-144h-307zM157 758v96h340v-96h-340zM307 904h-132l101 144h204z" />
    <glyph glyph-name="uni1E17" unicode="&#x1e17;" 
d="M364 119q25 16 44 42l105 -77q-36 -46 -91 -71t-114 -25q-56 0 -105.5 18t-86 51.5t-57.5 80.5t-21 105t21 105t57.5 80.5t86 51.5t105.5 18q52 0 94.5 -18t72 -51.5t45.5 -80.5t16 -105v-47h-348q9 -43 39 -68.5t74 -25.5q37 0 63 17zM117 645h340v-96h-340v96zM267 694
h-132l101 144h204zM250 382q-19 -8 -32.5 -20.5t-21 -29t-8.5 -34.5h198q1 38 -25 65t-67 27q-25 0 -44 -8z" />
    <glyph glyph-name="uni1E18" unicode="&#x1e18;" horiz-adv-x="630" 
d="M234 564v-132h307v-144h-307v-144h343v-144h-499v708h481v-144h-325zM263 -193h-135l119 144h163l116 -144h-138l-63 78z" />
    <glyph glyph-name="uni1E19" unicode="&#x1e19;" 
d="M364 119q25 16 44 42l105 -77q-36 -46 -91 -71t-114 -25q-56 0 -105.5 18t-86 51.5t-57.5 80.5t-21 105t21 105t57.5 80.5t86 51.5t105.5 18q52 0 94.5 -18t72 -51.5t45.5 -80.5t16 -105v-47h-348q9 -43 39 -68.5t74 -25.5q37 0 63 17zM223 -205h-135l119 144h163
l116 -144h-138l-63 78zM294 390q-25 0 -44 -8t-32.5 -20.5t-21 -29t-8.5 -34.5h198q1 38 -25 65t-67 27z" />
    <glyph glyph-name="uni1E1A" unicode="&#x1e1a;" horiz-adv-x="630" 
d="M234 288v-144h343v-144h-499v708h481v-144h-325v-132h307v-144h-307zM315 -166q-17 8 -32.5 14.5t-30.5 6.5q-17 0 -27 -14t-15 -28h-79q4 25 14 50t25.5 44.5t37.5 31.5t50 12q25 0 45 -6t42 -15q14 -5 27.5 -10t28.5 -5q17 0 27 10.5t17 25.5h78q-5 -29 -14 -54
t-24.5 -43.5t-38 -29.5t-53.5 -11q-22 0 -41.5 6.5t-36.5 14.5z" />
    <glyph glyph-name="uni1E1B" unicode="&#x1e1b;" 
d="M364 119q25 16 44 42l105 -77q-36 -46 -91 -71t-114 -25q-56 0 -105.5 18t-86 51.5t-57.5 80.5t-21 105t21 105t57.5 80.5t86 51.5t105.5 18q52 0 94.5 -18t72 -51.5t45.5 -80.5t16 -105v-47h-348q9 -43 39 -68.5t74 -25.5q37 0 63 17zM305 -82q14 -5 27.5 -10t28.5 -5
q17 0 27 10.5t17 25.5h78q-5 -29 -14 -54t-24.5 -43.5t-38 -29.5t-53.5 -11q-22 0 -41.5 6.5t-36.5 14.5t-32.5 14.5t-30.5 6.5q-17 0 -27 -14t-15 -28h-79q4 25 14 50t25.5 44.5t37.5 31.5t50 12q25 0 45 -6t42 -15zM294 390q-25 0 -44 -8t-32.5 -20.5t-21 -29t-8.5 -34.5
h198q1 38 -25 65t-67 27z" />
    <glyph glyph-name="uni1E1C" unicode="&#x1e1c;" horiz-adv-x="630" 
d="M321 -179q11 2 20.5 5.5t15.5 9.5t6 16q0 18 -17.5 26t-32.5 8q-17 0 -36 -8l-32 29l62 93h-229v708h481v-144h-325v-132h307v-144h-307v-144h343v-144h-203l-41 -60q22 0 44.5 -2.5t40.5 -11t29.5 -25t11.5 -44.5q0 -27 -14.5 -46t-36 -30t-45.5 -16t-43 -5
q-30 0 -64.5 8.5t-60.5 21.5l25 47q12 -5 31.5 -11t45.5 -6q12 0 24 1zM223 902q3 -15 13.5 -24t25 -14.5t31.5 -7.5t34 -2q39 0 66.5 7.5t38.5 40.5h79q-4 -38 -20 -65.5t-40.5 -45t-56 -25.5t-67.5 -8t-68 7.5t-57 25t-41 45t-18 66.5h80z" />
    <glyph glyph-name="uni1E1D" unicode="&#x1e1d;" 
d="M117 58q-37 33 -58 80t-21 105t21 105t57.5 80.5t86 51.5t105.5 18q52 0 94.5 -18t72 -51.5t45.5 -80.5t16 -105v-47h-348q9 -43 39 -68.5t74 -25.5q37 0 62.5 16.5t44.5 42.5l105 -77q-36 -46 -91 -71q-44 -20 -91 -24h3l-41 -60q22 0 44.5 -2.5t40.5 -11t29.5 -25
t11.5 -44.5q0 -27 -14.5 -46t-36 -30t-45.5 -16t-43 -5q-30 0 -64.5 8.5t-60.5 21.5l25 47q12 -5 31.5 -11t45.5 -6q12 0 23.5 1.5t21 5t15.5 9.5t6 16q0 18 -17.5 26t-32.5 8q-17 0 -36 -8l-32 29l62 93h15q-42 3 -79 17q-50 18 -86 52zM183 693q3 -15 13.5 -24t25 -14.5
t31.5 -7.5t34 -2q39 0 66.5 7.5t38.5 40.5h79q-4 -38 -20 -65.5t-40.5 -45t-56 -25.5t-67.5 -8t-68 7.5t-57 25t-41 45t-18 66.5h80zM386 298q1 38 -25 65t-67 27q-25 0 -44 -8t-32.5 -20.5t-21 -29t-8.5 -34.5h198z" />
    <glyph glyph-name="uni1E1E" unicode="&#x1e1e;" horiz-adv-x="593" 
d="M553 564h-319v-144h295v-144h-295v-276h-156v708h475v-144zM373 903q26 -23 26 -59t-24 -61t-61 -25q-18 0 -33 7t-26 19t-17.5 27.5t-6.5 32.5q0 16 6.5 31t17.5 26t25.5 18t31.5 7q35 0 61 -23z" />
    <glyph glyph-name="uni1E1F" unicode="&#x1e1f;" horiz-adv-x="370" 
d="M105 0v366h-99v120h99v86q0 40 7 75.5t27 62.5t57.5 42.5t98.5 15.5q23 0 45 -2t43 -7l-7 -127q-13 5 -24 7.5t-25 2.5q-36 0 -54 -15.5t-18 -63.5v-77h111v-120h-111v-366h-150zM278 904q0 -36 -24 -61t-61 -25q-18 0 -33 7t-26 19t-17.5 27.5t-6.5 32.5q0 16 6.5 31
t17.5 26t25.5 18t31.5 7q35 0 61 -23t26 -59z" />
    <glyph glyph-name="uni1E20" unicode="&#x1e20;" horiz-adv-x="778" 
d="M573 706q71 -21 125 -71l-110 -120q-32 33 -72 50t-100 17q-50 0 -90.5 -17t-69.5 -47.5t-44.5 -72.5t-15.5 -91q0 -50 15.5 -91.5t44.5 -72t69.5 -47.5t90.5 -17q51 0 88 11.5t59 23.5v115h-127v144h277v-370q-69 -36 -144 -52t-153 -16q-83 0 -153 26t-121 74.5
t-79.5 117.5t-28.5 154t28.5 154t79.5 117.5t121 74.5t153 26q85 0 157 -20zM203 776v96h340v-96h-340z" />
    <glyph glyph-name="uni1E21" unicode="&#x1e21;" horiz-adv-x="630" 
d="M381 -75q32 34 32 86v47h-2q-26 -35 -64.5 -49.5t-72.5 -14.5q-54 0 -98 18.5t-75.5 52t-48.5 79.5t-17 101q0 48 15.5 94t44 81t69.5 56.5t93 21.5q32 0 58.5 -7t47.5 -18t36 -24.5t24 -26.5h2v64h138v-445q0 -138 -69.5 -209.5t-211.5 -71.5q-65 0 -128 14.5t-116 56.5
l83 124q35 -29 73.5 -46t84.5 -17q69 0 102 33zM305 366q-26 0 -47.5 -10t-38 -26.5t-25.5 -38t-9 -45.5t9 -45.5t25.5 -38t38 -26.5t47.5 -10q25 0 47 10t38.5 26.5t25.5 38t9 45.5t-9 45.5t-25.5 38t-38.5 26.5t-47 10zM129 645h340v-96h-340v96z" />
    <glyph glyph-name="uni1E22" unicode="&#x1e22;" horiz-adv-x="759" 
d="M687 0h-156v306h-303v-306h-156v708h156v-264h303v264h156v-708zM378 758q-18 0 -33 7t-26 19t-17.5 27.5t-6.5 32.5q0 16 6.5 31t17.5 26t25.5 18t31.5 7q35 0 61 -23t26 -59t-24 -61t-61 -25z" />
    <glyph glyph-name="uni1E23" unicode="&#x1e23;" 
d="M341 498q57 0 92 -17.5t54.5 -48.5t26.5 -73t7 -91v-268h-150v238q0 21 -1.5 43.5t-9 41.5t-23 31t-44.5 12t-47 -10.5t-27.5 -28t-12.5 -39.5t-3 -46v-242h-150v756h150v-336h2q5 14 17 28t29 25t40 18t50 7zM253 813q-15 7 -26 19t-17.5 27.5t-6.5 32.5q0 16 6.5 31
t17.5 26t25.5 18t31.5 7q35 0 61 -23t26 -59t-24 -61t-61 -25q-18 0 -33 7z" />
    <glyph glyph-name="uni1E24" unicode="&#x1e24;" horiz-adv-x="759" 
d="M687 0h-156v306h-303v-306h-156v708h156v-264h303v264h156v-708zM378 -217q-18 0 -33 7t-26 19t-17.5 27.5t-6.5 32.5q0 16 6.5 31t17.5 26t25.5 18t31.5 7q35 0 61 -23t26 -59t-24 -61t-61 -25z" />
    <glyph glyph-name="uni1E25" unicode="&#x1e25;" 
d="M341 498q57 0 92 -17.5t54.5 -48.5t26.5 -73t7 -91v-268h-150v238q0 21 -1.5 43.5t-9 41.5t-23 31t-44.5 12t-47 -10.5t-27.5 -28t-12.5 -39.5t-3 -46v-242h-150v756h150v-336h2q5 14 17 28t29 25t40 18t50 7zM253 -210q-15 7 -26 19t-17.5 27.5t-6.5 32.5q0 16 6.5 31
t17.5 26t25.5 18t31.5 7q35 0 61 -23t26 -59t-24 -61t-61 -25q-18 0 -33 7z" />
    <glyph glyph-name="uni1E26" unicode="&#x1e26;" horiz-adv-x="759" 
d="M687 708v-708h-156v306h-303v-306h-156v708h156v-264h303v264h156zM198 875q6 15 17 26t25.5 18t31.5 7q35 0 61 -23t26 -59t-24 -61t-61 -25q-18 0 -33 7t-26 19t-17.5 27.5t-6.5 32.5q0 16 7 31zM406 875q6 15 17 26t25.5 18t31.5 7q35 0 61 -23t26 -59t-24 -61
t-61 -25q-18 0 -33 7t-26 19t-17.5 27.5t-6.5 32.5q0 16 7 31z" />
    <glyph glyph-name="uni1E27" unicode="&#x1e27;" 
d="M293 366q-29 0 -47 -10.5t-27.5 -28t-12.5 -39.5t-3 -46v-242h-150v756h150v-336h2q5 14 17 28t29 25t40 18t50 7q57 0 92 -17.5t54.5 -48.5t26.5 -73t7 -91v-268h-150v238q0 21 -1.5 43.5t-9 41.5t-23 31t-44.5 12zM314 923q6 15 17 26t25.5 18t31.5 7q35 0 61 -23
t26 -59t-24 -61t-61 -25q-18 0 -33 7t-26 19t-17.5 27.5t-6.5 32.5q0 16 7 31zM99 892q0 16 6.5 31t17.5 26t25.5 18t31.5 7q35 0 61 -23t26 -59t-24 -61t-61 -25q-18 0 -33 7t-26 19t-17.5 27.5t-6.5 32.5z" />
    <glyph glyph-name="uni1E28" unicode="&#x1e28;" horiz-adv-x="759" 
d="M531 708h156v-708h-156v306h-303v-306h23l-41 -60q22 0 44.5 -2.5t40.5 -11t29.5 -25t11.5 -44.5q0 -27 -14.5 -46t-36 -30t-45.5 -16t-43 -5q-30 0 -64.5 8.5t-60.5 21.5l25 47q12 -5 31.5 -11t45.5 -6q12 0 23.5 1.5t21 5t15.5 9.5t6 16q0 18 -17.5 26t-32.5 8
q-17 0 -36 -8l-32 29l62 93h-112v708h156v-264h303v264z" />
    <glyph glyph-name="uni1E29" unicode="&#x1e29;" 
d="M219 328q-10 -18 -13 -40t-3 -46v-242h29l-41 -60q22 0 44.5 -2.5t40.5 -11t29.5 -25t11.5 -44.5q0 -27 -14.5 -46t-36 -30t-45.5 -16t-43 -5q-30 0 -64.5 8.5t-60.5 21.5l25 47q12 -5 31.5 -11t45.5 -6q12 0 23.5 1.5t21 5t15.5 9.5t6 16q0 18 -17.5 26t-32.5 8
q-17 0 -36 -8l-32 29l62 93h-112v756h150v-336h2q5 14 17 28t29 25t40 18t50 7q57 0 92 -17.5t54.5 -48.5t26.5 -73t7 -91v-268h-150v238q0 21 -1.5 43.5t-9 41.5t-23 31t-44.5 12t-47 -10.5t-27 -27.5z" />
    <glyph glyph-name="uni1E2A" unicode="&#x1e2a;" horiz-adv-x="759" 
d="M72 708h156v-264h303v264h156v-708h-156v306h-303v-306h-156v708zM446 -90q27 8 38 41h79q-4 -38 -20 -65.5t-40.5 -45t-56 -25.5t-67.5 -8t-68 7.5t-57 25t-41 45t-18 66.5h80q3 -15 13.5 -24t25 -14.5t31.5 -7.5t34 -2q39 0 67 7z" />
    <glyph glyph-name="uni1E2B" unicode="&#x1e2b;" 
d="M293 366q-29 0 -47 -10.5t-27.5 -28t-12.5 -39.5t-3 -46v-242h-150v756h150v-336h2q5 14 17 28t29 25t40 18t50 7q57 0 92 -17.5t54.5 -48.5t26.5 -73t7 -91v-268h-150v238q0 21 -1.5 43.5t-9 41.5t-23 31t-44.5 12zM197 -73q10 -9 24.5 -14.5t31.5 -7.5t34 -2
q39 0 66.5 7.5t38.5 40.5h79q-4 -38 -20 -65.5t-40.5 -45t-56 -25.5t-67.5 -8t-68 7.5t-57 25t-41 45t-18 66.5h80q3 -15 14 -24z" />
    <glyph glyph-name="uni1E2C" unicode="&#x1e2c;" horiz-adv-x="296" 
d="M70 0v708h156v-708h-156zM222 -85q17 0 27 11q10 10 17 25h78q-5 -29 -14 -54t-24.5 -43.5t-38 -29.5t-53.5 -11q-22 0 -41.5 6.5t-36.5 14.5t-32.5 14.5t-30.5 6.5q-17 0 -27 -14t-15 -28h-79q4 25 14 50t25.5 44.5t37.5 31.5t50 12q25 0 45 -6t42 -15q14 -5 27.5 -10
t28.5 -5z" />
    <glyph glyph-name="uni1E2D" unicode="&#x1e2d;" horiz-adv-x="260" 
d="M205 0h-150v486h150v-486zM43 639q0 36 25.5 61.5t61.5 25.5t61.5 -25.5t25.5 -61.5t-25.5 -61.5t-61.5 -25.5t-61.5 25.5t-25.5 61.5zM204 -85q17 0 27 11q10 10 17 25h78q-5 -29 -14 -54t-24.5 -43.5t-38 -29.5t-53.5 -11q-22 0 -41.5 6.5t-36.5 14.5t-32.5 14.5
t-30.5 6.5q-17 0 -27 -14t-15 -28h-79q4 25 14 50t25.5 44.5t37.5 31.5t50 12q25 0 45 -6t42 -15q14 -5 27.5 -10t28.5 -5z" />
    <glyph glyph-name="uni1E2E" unicode="&#x1e2e;" horiz-adv-x="296" 
d="M70 0v708h156v-708h-156zM218 765q-15 7 -26 19t-17.5 27.5t-6.5 32.5q0 16 6.5 31t17.5 26t25.5 18t31.5 7q35 0 61 -23t26 -59t-24 -61t-61 -25q-18 0 -33 7zM-34 812q-6 15 -6 32q0 16 6.5 31t17.5 26t25.5 18t31.5 7q35 0 61 -23t26 -59t-24 -61t-61 -25q-18 0 -33 7
t-26 19t-18 28zM98 1120h204l-173 -144h-132z" />
    <glyph glyph-name="uni1E2F" unicode="&#x1e2f;" horiz-adv-x="260" 
d="M55 0v486h150v-486h-150zM200 544q-15 7 -26 19t-17.5 27.5t-6.5 32.5q0 16 6.5 31t17.5 26t25.5 18t31.5 7q35 0 61 -23t26 -59t-24 -61t-61 -25q-18 0 -33 7zM-52 591q-6 15 -6 32q0 16 6.5 31t17.5 26t25.5 18t31.5 7q35 0 61 -23t26 -59t-24 -61t-61 -25q-18 0 -33 7
t-26 19t-18 28zM80 898h204l-173 -144h-132z" />
    <glyph glyph-name="uni1E30" unicode="&#x1e30;" horiz-adv-x="722" 
d="M740 0h-218l-288 336v-336h-156v708h156v-294l275 294h204l-315 -329zM358 902h204l-173 -144h-132z" />
    <glyph glyph-name="uni1E31" unicode="&#x1e31;" horiz-adv-x="556" 
d="M205 246h-2v-246h-150v756h150v-462l166 192h184l-193 -219l198 -267h-189zM458 950l-173 -144h-132l101 144h204z" />
    <glyph glyph-name="uni1E32" unicode="&#x1e32;" horiz-adv-x="722" 
d="M740 0h-218l-288 336v-336h-156v708h156v-294l275 294h204l-315 -329zM493 -131q0 -36 -24 -61t-61 -25q-18 0 -33 7t-26 19t-17.5 27.5t-6.5 32.5q0 16 6.5 31t17.5 26t25.5 18t31.5 7q35 0 61 -23t26 -59z" />
    <glyph glyph-name="uni1E33" unicode="&#x1e33;" horiz-adv-x="556" 
d="M558 0h-189l-164 246h-2v-246h-150v756h150v-462l166 192h184l-193 -219zM363 -72q26 -23 26 -59t-24 -61t-61 -25q-18 0 -33 7t-26 19t-17.5 27.5t-6.5 32.5q0 16 6.5 31t17.5 26t25.5 18t31.5 7q35 0 61 -23z" />
    <glyph glyph-name="uni1E34" unicode="&#x1e34;" horiz-adv-x="722" 
d="M740 0h-218l-288 336v-336h-156v708h156v-294l275 294h204l-315 -329zM239 -145v96h340v-96h-340z" />
    <glyph glyph-name="uni1E35" unicode="&#x1e35;" horiz-adv-x="556" 
d="M203 756v-462l166 192h184l-193 -219l198 -267h-189l-164 246h-2v-246h-150v756h150zM135 -145v96h340v-96h-340z" />
    <glyph glyph-name="uni1E36" unicode="&#x1e36;" horiz-adv-x="537" 
d="M234 144h289v-144h-445v708h156v-564zM384 -131q0 -36 -24 -61t-61 -25q-18 0 -33 7t-26 19t-17.5 27.5t-6.5 32.5q0 16 6.5 31t17.5 26t25.5 18t31.5 7q35 0 61 -23t26 -59z" />
    <glyph glyph-name="uni1E37" unicode="&#x1e37;" horiz-adv-x="260" 
d="M55 0v756h150v-756h-150zM214 -131q0 -36 -24 -61t-61 -25q-18 0 -33 7t-26 19t-17.5 27.5t-6.5 32.5q0 16 6.5 31t17.5 26t25.5 18t31.5 7q35 0 61 -23t26 -59z" />
    <glyph glyph-name="uni1E38" unicode="&#x1e38;" horiz-adv-x="537" 
d="M234 144h289v-144h-445v708h156v-564zM384 -131q0 -36 -24 -61t-61 -25q-18 0 -33 7t-26 19t-17.5 27.5t-6.5 32.5q0 16 6.5 31t17.5 26t25.5 18t31.5 7q35 0 61 -23t26 -59zM130 758v96h340v-96h-340z" />
    <glyph glyph-name="uni1E39" unicode="&#x1e39;" horiz-adv-x="260" 
d="M55 0v756h150v-756h-150zM214 -131q0 -36 -24 -61t-61 -25q-18 0 -33 7t-26 19t-17.5 27.5t-6.5 32.5q0 16 6.5 31t17.5 26t25.5 18t31.5 7q35 0 61 -23t26 -59zM-40 806v96h340v-96h-340z" />
    <glyph glyph-name="uni1E3A" unicode="&#x1e3a;" horiz-adv-x="537" 
d="M234 144h289v-144h-445v708h156v-564zM130 -145v96h340v-96h-340z" />
    <glyph glyph-name="uni1E3B" unicode="&#x1e3b;" horiz-adv-x="260" 
d="M55 0v756h150v-756h-150zM-40 -145v96h340v-96h-340z" />
    <glyph glyph-name="uni1E3C" unicode="&#x1e3c;" horiz-adv-x="537" 
d="M234 144h289v-144h-445v708h156v-564zM361 -193l-63 78l-62 -78h-135l119 144h163l116 -144h-138z" />
    <glyph glyph-name="uni1E3D" unicode="&#x1e3d;" horiz-adv-x="260" 
d="M55 0v756h150v-756h-150zM191 -193l-63 78l-62 -78h-135l119 144h163l116 -144h-138z" />
    <glyph glyph-name="uni1E3E" unicode="&#x1e3e;" horiz-adv-x="944" 
d="M872 0h-156v543h-2l-186 -543h-119l-179 543h-2v-543h-156v708h236l163 -462h2l164 462h235v-708zM421 902h204l-173 -144h-132z" />
    <glyph glyph-name="uni1E3F" unicode="&#x1e3f;" horiz-adv-x="870" 
d="M199 420q7 14 20 28t31 25t41 18t50 7q51 0 90.5 -21t59.5 -66q26 47 63 67t91 20q49 0 82.5 -16.5t53 -45t28 -67t8.5 -82.5v-287h-150v283q0 34 -14.5 58.5t-51.5 24.5q-26 0 -43.5 -8.5t-28 -23.5t-15 -35t-4.5 -42v-257h-150v257q0 13 -1 32t-7 36t-19.5 29t-39.5 12
q-29 0 -47 -10.5t-27.5 -28t-12.5 -39.5t-3 -46v-242h-150v486h144v-66h2zM384 693h204l-173 -144h-132z" />
    <glyph glyph-name="uni1E40" unicode="&#x1e40;" horiz-adv-x="944" 
d="M872 0h-156v543h-2l-186 -543h-119l-179 543h-2v-543h-156v708h236l163 -462h2l164 462h235v-708zM556 844q0 -36 -24 -61t-61 -25q-18 0 -33 7t-26 19t-17.5 27.5t-6.5 32.5q0 16 6.5 31t17.5 26t25.5 18t31.5 7q35 0 61 -23t26 -59z" />
    <glyph glyph-name="uni1E41" unicode="&#x1e41;" horiz-adv-x="870" 
d="M199 420q7 14 20 28t31 25t41 18t50 7q51 0 90.5 -21t59.5 -66q26 47 63 67t91 20q49 0 82.5 -16.5t53 -45t28 -67t8.5 -82.5v-287h-150v283q0 34 -14.5 58.5t-51.5 24.5q-26 0 -43.5 -8.5t-28 -23.5t-15 -35t-4.5 -42v-257h-150v257q0 13 -1 32t-7 36t-19.5 29t-39.5 12
q-29 0 -47 -10.5t-27.5 -28t-12.5 -39.5t-3 -46v-242h-150v486h144v-66h2zM519 635q0 -36 -24 -61t-61 -25q-18 0 -33 7t-26 19t-17.5 27.5t-6.5 32.5q0 16 6.5 31t17.5 26t25.5 18t31.5 7q35 0 61 -23t26 -59z" />
    <glyph glyph-name="uni1E42" unicode="&#x1e42;" horiz-adv-x="944" 
d="M872 0h-156v543h-2l-186 -543h-119l-179 543h-2v-543h-156v708h236l163 -462h2l164 462h235v-708zM556 -131q0 -36 -24 -61t-61 -25q-18 0 -33 7t-26 19t-17.5 27.5t-6.5 32.5q0 16 6.5 31t17.5 26t25.5 18t31.5 7q35 0 61 -23t26 -59z" />
    <glyph glyph-name="uni1E43" unicode="&#x1e43;" horiz-adv-x="870" 
d="M199 420q7 14 20 28t31 25t41 18t50 7q51 0 90.5 -21t59.5 -66q26 47 63 67t91 20q49 0 82.5 -16.5t53 -45t28 -67t8.5 -82.5v-287h-150v283q0 34 -14.5 58.5t-51.5 24.5q-26 0 -43.5 -8.5t-28 -23.5t-15 -35t-4.5 -42v-257h-150v257q0 13 -1 32t-7 36t-19.5 29t-39.5 12
q-29 0 -47 -10.5t-27.5 -28t-12.5 -39.5t-3 -46v-242h-150v486h144v-66h2zM519 -131q0 -36 -24 -61t-61 -25q-18 0 -33 7t-26 19t-17.5 27.5t-6.5 32.5q0 16 6.5 31t17.5 26t25.5 18t31.5 7q35 0 61 -23t26 -59z" />
    <glyph glyph-name="uni1E44" unicode="&#x1e44;" horiz-adv-x="815" 
d="M230 504h-2v-504h-156v708h212l301 -492h2v492h156v-708h-204zM406 758q-18 0 -33 7t-26 19t-17.5 27.5t-6.5 32.5q0 16 6.5 31t17.5 26t25.5 18t31.5 7q35 0 61 -23t26 -59t-24 -61t-61 -25z" />
    <glyph glyph-name="uni1E45" unicode="&#x1e45;" 
d="M341 498q57 0 92 -17.5t54.5 -48.5t26.5 -73t7 -91v-268h-150v238q0 21 -1.5 43.5t-9 41.5t-23 31t-44.5 12t-47 -10.5t-27.5 -28t-12.5 -39.5t-3 -46v-242h-150v486h144v-66h2q7 14 20 28t31 25t41 18t50 7zM253 556q-15 7 -26 19t-17.5 27.5t-6.5 32.5q0 16 6.5 31
t17.5 26t25.5 18t31.5 7q35 0 61 -23t26 -59t-24 -61t-61 -25q-18 0 -33 7z" />
    <glyph glyph-name="uni1E46" unicode="&#x1e46;" horiz-adv-x="815" 
d="M230 504h-2v-504h-156v708h212l301 -492h2v492h156v-708h-204zM406 -217q-18 0 -33 7t-26 19t-17.5 27.5t-6.5 32.5q0 16 6.5 31t17.5 26t25.5 18t31.5 7q35 0 61 -23t26 -59t-24 -61t-61 -25z" />
    <glyph glyph-name="uni1E47" unicode="&#x1e47;" 
d="M341 498q57 0 92 -17.5t54.5 -48.5t26.5 -73t7 -91v-268h-150v238q0 21 -1.5 43.5t-9 41.5t-23 31t-44.5 12t-47 -10.5t-27.5 -28t-12.5 -39.5t-3 -46v-242h-150v486h144v-66h2q7 14 20 28t31 25t41 18t50 7zM253 -210q-15 7 -26 19t-17.5 27.5t-6.5 32.5q0 16 6.5 31
t17.5 26t25.5 18t31.5 7q35 0 61 -23t26 -59t-24 -61t-61 -25q-18 0 -33 7z" />
    <glyph glyph-name="uni1E48" unicode="&#x1e48;" horiz-adv-x="815" 
d="M539 0l-309 504h-2v-504h-156v708h212l301 -492h2v492h156v-708h-204zM577 -145h-340v96h340v-96z" />
    <glyph glyph-name="uni1E49" unicode="&#x1e49;" 
d="M361 323q-8 19 -23.5 31t-44.5 12t-47 -10.5t-27.5 -28t-12.5 -39.5t-3 -46v-242h-150v486h144v-66h2q7 14 20 28t31 25t41 18t50 7q57 0 92 -17.5t54.5 -48.5t26.5 -73t7 -91v-268h-150v238q0 21 -1.5 43.5t-8.5 41.5zM117 -49h340v-96h-340v96z" />
    <glyph glyph-name="uni1E4A" unicode="&#x1e4a;" horiz-adv-x="815" 
d="M743 0h-204l-309 504h-2v-504h-156v708h212l301 -492h2v492h156v-708zM468 -193l-63 78l-62 -78h-135l119 144h163l116 -144h-138z" />
    <glyph glyph-name="uni1E4B" unicode="&#x1e4b;" 
d="M338 354q-16 12 -45 12t-47 -10.5t-27.5 -28t-12.5 -39.5t-3 -46v-242h-150v486h144v-66h2q7 14 20 28t31 25t41 18t50 7q57 0 92 -17.5t54.5 -48.5t26.5 -73t7 -91v-268h-150v238q0 21 -1.5 43.5t-9 41.5t-22.5 31zM285 -115l-62 -78h-135l119 144h163l116 -144h-138z
" />
    <glyph glyph-name="uni1E4C" unicode="&#x1e4c;" horiz-adv-x="832" 
d="M142 83q-51 48 -79.5 117t-28.5 154t28.5 154t79.5 117.5t121 74.5t153 26t153 -26t121 -74.5t79.5 -117.5t28.5 -154t-28.5 -154t-79.5 -117.5t-121 -74.5t-153 -26t-153 26t-121 75zM212 263q15 -42 44 -72.5t69.5 -47.5t90.5 -17t90.5 17t69.5 47.5t44.5 72t15.5 91.5
q0 49 -15.5 91t-44.5 72.5t-69.5 47.5t-90.5 17t-90.5 -17t-69.5 -47.5t-44.5 -72.5t-15.5 -91q0 -50 16 -91zM220 776q4 25 14 50t25.5 44.5t37.5 31.5t50 12q25 0 45 -6t42 -15q14 -5 27.5 -10t28.5 -5q17 0 27 10.5t17 25.5h78q-5 -29 -14 -54t-24.5 -43.5t-38 -29.5
t-53.5 -11q-22 0 -41.5 6.5t-36.5 14.5t-32.5 14.5t-30.5 6.5q-17 0 -27 -14t-15 -28h-79zM569 1108l-173 -144h-132l101 144h204z" />
    <glyph glyph-name="uni1E4D" unicode="&#x1e4d;" horiz-adv-x="610" 
d="M305 -12q-56 0 -105.5 18t-86 51.5t-57.5 80.5t-21 105t21 105t57.5 80.5t86 51.5t105.5 18t105.5 -18t86 -51.5t57.5 -80.5t21 -105t-21 -105t-57.5 -80.5t-86 -51.5t-105.5 -18zM394 154q31 34 31 89t-31.5 89t-88.5 34t-88.5 -34t-31.5 -89t31.5 -89t88.5 -34t89 34z
M293 570q-17 8 -32.5 14.5t-30.5 6.5q-17 0 -27 -14t-15 -28h-79q4 25 14 50t25.5 44.5t37.5 31.5t50 12q25 0 45 -6t42 -15q14 -5 27.5 -10t28.5 -5q17 0 27 10.5t17 25.5h78q-5 -29 -14 -54t-24.5 -43.5t-38 -29.5t-53.5 -11q-22 0 -41.5 6.5t-36.5 14.5zM153 736l101 144
h204l-173 -144h-132z" />
    <glyph glyph-name="uni1E4E" unicode="&#x1e4e;" horiz-adv-x="832" 
d="M142 83q-51 48 -79.5 117t-28.5 154t28.5 154t79.5 117.5t121 74.5t153 26t153 -26t121 -74.5t79.5 -117.5t28.5 -154t-28.5 -154t-79.5 -117.5t-121 -74.5t-153 -26t-153 26t-121 75zM196 354q0 -50 15.5 -91.5t44.5 -72t69.5 -47.5t90.5 -17t90.5 17t69.5 47.5t44.5 72
t15.5 91.5q0 49 -15.5 91t-44.5 72.5t-69.5 47.5t-90.5 17t-90.5 -17t-69.5 -47.5t-44.5 -72.5t-15.5 -91zM234 826q10 25 25.5 44.5t37.5 31.5t50 12q25 0 45 -6t42 -15q14 -5 27.5 -10t28.5 -5q17 0 27 10.5t17 25.5h78q-5 -29 -14 -54t-24.5 -43.5t-38 -29.5t-53.5 -11
q-22 0 -41.5 6.5t-36.5 14.5t-32.5 14.5t-30.5 6.5q-17 0 -27 -14t-15 -28h-79q4 25 14 50zM443 1081q6 15 17 26t25.5 18t31.5 7q35 0 61 -23t26 -59t-24 -61t-61 -25q-18 0 -33 7t-26 19t-17.5 27.5t-6.5 32.5q0 16 7 31zM235 1081q6 15 17 26t25.5 18t31.5 7q35 0 61 -23
t26 -59t-24 -61t-61 -25q-18 0 -33 7t-26 19t-17.5 27.5t-6.5 32.5q0 16 7 31z" />
    <glyph glyph-name="uni1E4F" unicode="&#x1e4f;" horiz-adv-x="610" 
d="M200 480q49 18 105 18t105.5 -18t86 -51.5t57.5 -80.5t21 -105t-21 -105t-57.5 -80.5t-86 -51.5t-105.5 -18t-105.5 18t-86 51.5t-57.5 80.5t-21 105t21 105t57.5 80.5t86.5 51.5zM185 243q0 -55 31.5 -89t88.5 -34t88.5 34t31.5 89t-31.5 89t-88.5 34t-88.5 -34
t-31.5 -89zM123 599q10 25 25.5 44.5t37.5 31.5t50 12q25 0 45 -6t42 -15q14 -5 27.5 -10t28.5 -5q17 0 27 10.5t17 25.5h78q-5 -29 -14 -54t-24.5 -43.5t-38 -29.5t-53.5 -11q-22 0 -41.5 6.5t-36.5 14.5t-32.5 14.5t-30.5 6.5q-17 0 -27 -14t-15 -28h-79q4 25 14 50z
M124 853q6 15 17 26t25.5 18t31.5 7q35 0 61 -23t26 -59t-24 -61t-61 -25q-18 0 -33 7t-26 19t-17.5 27.5t-6.5 32.5q0 16 7 31zM325 822q0 16 6.5 31t17.5 26t25.5 18t31.5 7q35 0 61 -23t26 -59t-24 -61t-61 -25q-18 0 -33 7t-26 19t-17.5 27.5t-6.5 32.5z" />
    <glyph glyph-name="uni1E50" unicode="&#x1e50;" horiz-adv-x="832" 
d="M142 83q-51 48 -79.5 117t-28.5 154t28.5 154t79.5 117.5t121 74.5t153 26t153 -26t121 -74.5t79.5 -117.5t28.5 -154t-28.5 -154t-79.5 -117.5t-121 -74.5t-153 -26t-153 26t-121 75zM196 354q0 -50 15.5 -91.5t44.5 -72t69.5 -47.5t90.5 -17t90.5 17t69.5 47.5t44.5 72
t15.5 91.5q0 49 -15.5 91t-44.5 72.5t-69.5 47.5t-90.5 17t-90.5 -17t-69.5 -47.5t-44.5 -72.5t-15.5 -91zM586 872v-96h-340v96h340zM468 1066l101 -144h-132l-173 144h204z" />
    <glyph glyph-name="uni1E51" unicode="&#x1e51;" horiz-adv-x="610" 
d="M305 -12q-56 0 -105.5 18t-86 51.5t-57.5 80.5t-21 105t21 105t57.5 80.5t86 51.5t105.5 18t105.5 -18t86 -51.5t57.5 -80.5t21 -105t-21 -105t-57.5 -80.5t-86 -51.5t-105.5 -18zM425 243q0 55 -31.5 89t-88.5 34t-88.5 -34t-31.5 -89t31.5 -89t88.5 -34t88.5 34
t31.5 89zM135 549v96h340v-96h-340zM153 838h204l101 -144h-132z" />
    <glyph glyph-name="uni1E52" unicode="&#x1e52;" horiz-adv-x="832" 
d="M142 83q-51 48 -79.5 117t-28.5 154t28.5 154t79.5 117.5t121 74.5t153 26t153 -26t121 -74.5t79.5 -117.5t28.5 -154t-28.5 -154t-79.5 -117.5t-121 -74.5t-153 -26t-153 26t-121 75zM196 354q0 -50 15.5 -91.5t44.5 -72t69.5 -47.5t90.5 -17t90.5 17t69.5 47.5t44.5 72
t15.5 91.5q0 49 -15.5 91t-44.5 72.5t-69.5 47.5t-90.5 17t-90.5 -17t-69.5 -47.5t-44.5 -72.5t-15.5 -91zM586 872v-96h-340v96h340zM365 1066h204l-173 -144h-132z" />
    <glyph glyph-name="uni1E53" unicode="&#x1e53;" horiz-adv-x="610" 
d="M305 -12q-56 0 -105.5 18t-86 51.5t-57.5 80.5t-21 105t21 105t57.5 80.5t86 51.5t105.5 18t105.5 -18t86 -51.5t57.5 -80.5t21 -105t-21 -105t-57.5 -80.5t-86 -51.5t-105.5 -18zM305 366q-57 0 -88.5 -34t-31.5 -89t31.5 -89t88.5 -34t88.5 34t31.5 89t-31.5 89
t-88.5 34zM135 549v96h340v-96h-340zM254 838h204l-173 -144h-132z" />
    <glyph glyph-name="uni1E54" unicode="&#x1e54;" horiz-adv-x="630" 
d="M525 664q36 -25 57.5 -66.5t21.5 -104.5q0 -62 -20 -104t-55 -67t-83 -35.5t-104 -10.5h-114v-276h-156v708h263q55 0 104 -10t86 -34zM430 537q-13 16 -32.5 25t-43.5 11.5t-46 2.5h-80v-168h104q21 0 40.5 4t35 13.5t25 26t9.5 41.5q0 27 -12 44zM287 902h204
l-173 -144h-132z" />
    <glyph glyph-name="uni1E55" unicode="&#x1e55;" horiz-adv-x="630" 
d="M454 480q44 -19 75.5 -52.5t48.5 -79.5t17 -101q0 -51 -15.5 -97.5t-44 -82.5t-69.5 -57.5t-93 -21.5q-47 0 -87.5 14.5t-66.5 49.5h-2v-280h-150v714h138v-64h2q9 13 23.5 26.5t34 24.5t42.5 18t49 7q54 0 98 -18zM414 154q31 34 31 89t-31.5 89t-88.5 34t-88.5 -34
t-31.5 -89t31.5 -89t88.5 -34t89 34zM179 549l101 144h204l-173 -144h-132z" />
    <glyph glyph-name="uni1E56" unicode="&#x1e56;" horiz-adv-x="630" 
d="M228 276v-276h-156v708h263q55 0 104 -10t85.5 -34.5t58 -66t21.5 -104.5q0 -62 -20 -104t-55 -67t-83 -35.5t-104 -10.5h-114zM354 574q-24 2 -46 2h-80v-168h104q21 0 40.5 4t35 13.5t25 26t9.5 41.5q0 27 -12.5 43.5t-32 25.5t-43.5 12zM337 758q-18 0 -33 7t-26 19
t-17.5 27.5t-6.5 32.5q0 16 6.5 31t17.5 26t25.5 18t31.5 7q35 0 61 -23t26 -59t-24 -61t-61 -25z" />
    <glyph glyph-name="uni1E57" unicode="&#x1e57;" horiz-adv-x="630" 
d="M231 449q14 13 33.5 24t42.5 18t49 7q54 0 98 -18.5t75.5 -52t48.5 -79.5t17 -101q0 -51 -15.5 -97.5t-44 -82.5t-69.5 -57.5t-93 -21.5q-47 0 -87.5 14.5t-66.5 49.5h-2v-280h-150v714h138v-64h2q9 13 24 27zM414 154q31 34 31 89t-31.5 89t-88.5 34t-88.5 -34
t-31.5 -89t31.5 -89t88.5 -34t89 34zM247 635q0 16 6.5 31t17.5 26t25.5 18t31.5 7q35 0 61 -23t26 -59t-24 -61t-61 -25q-18 0 -33 7t-26 19t-17.5 27.5t-6.5 32.5z" />
    <glyph glyph-name="uni1E58" unicode="&#x1e58;" horiz-adv-x="648" 
d="M534 663q36 -25 57.5 -66.5t21.5 -103.5q0 -75 -39 -127.5t-114 -66.5l180 -299h-187l-148 283h-77v-283h-156v708h274q54 0 102.5 -10.5t85.5 -34.5zM407 426q19 7 31.5 23t12.5 45q0 27 -11 43t-28 24.5t-39 11.5t-43 3h-102v-161h92q21 0 44.5 1.5t42.5 9.5zM414 903
q26 -23 26 -59t-24 -61t-61 -25q-18 0 -33 7t-26 19t-17.5 27.5t-6.5 32.5q0 16 6.5 31t17.5 26t25.5 18t31.5 7q35 0 61 -23z" />
    <glyph glyph-name="uni1E59" unicode="&#x1e59;" horiz-adv-x="407" 
d="M345 498q13 0 26 -1t24 -4v-137q-16 5 -31.5 7.5t-32.5 2.5q-43 0 -68 -12t-38.5 -33.5t-17.5 -51.5t-4 -66v-203h-150v486h150v-78h2q24 45 57 67.5t83 22.5zM308 635q0 -36 -24 -61t-61 -25q-18 0 -33 7t-26 19t-17.5 27.5t-6.5 32.5q0 16 6.5 31t17.5 26t25.5 18
t31.5 7q35 0 61 -23t26 -59z" />
    <glyph glyph-name="uni1E5A" unicode="&#x1e5a;" horiz-adv-x="648" 
d="M534 663q36 -25 57.5 -66.5t21.5 -103.5q0 -75 -39 -127.5t-114 -66.5l180 -299h-187l-148 283h-77v-283h-156v708h274q54 0 102.5 -10.5t85.5 -34.5zM407 426q19 7 31.5 23t12.5 45q0 27 -11 43t-28 24.5t-39 11.5t-43 3h-102v-161h92q21 0 44.5 1.5t42.5 9.5zM414 -72
q26 -23 26 -59t-24 -61t-61 -25q-18 0 -33 7t-26 19t-17.5 27.5t-6.5 32.5q0 16 6.5 31t17.5 26t25.5 18t31.5 7q35 0 61 -23z" />
    <glyph glyph-name="uni1E5B" unicode="&#x1e5b;" horiz-adv-x="407" 
d="M345 498q13 0 26 -1t24 -4v-137q-16 5 -31.5 7.5t-32.5 2.5q-43 0 -68 -12t-38.5 -33.5t-17.5 -51.5t-4 -66v-203h-150v486h150v-78h2q24 45 57 67.5t83 22.5zM308 -131q0 -36 -24 -61t-61 -25q-18 0 -33 7t-26 19t-17.5 27.5t-6.5 32.5q0 16 6.5 31t17.5 26t25.5 18
t31.5 7q35 0 61 -23t26 -59z" />
    <glyph glyph-name="uni1E5C" unicode="&#x1e5c;" horiz-adv-x="648" 
d="M228 0h-156v708h274q54 0 102.5 -10.5t85 -35t58 -66t21.5 -103.5q0 -75 -39 -127.5t-114 -66.5l180 -299h-187l-148 283h-77v-283zM407 426q19 7 31.5 23t12.5 45q0 27 -11 43t-28 24.5t-39 11.5t-43 3h-102v-161h92q21 0 44.5 1.5t42.5 9.5zM526 854v-96h-340v96h340z
M279 -100q6 15 17 26t25.5 18t31.5 7q35 0 61 -23t26 -59t-24 -61t-61 -25q-18 0 -33 7t-26 19t-17.5 27.5t-6.5 32.5q0 16 7 31z" />
    <glyph glyph-name="uni1E5D" unicode="&#x1e5d;" horiz-adv-x="407" 
d="M225 321q-14 -22 -18 -52t-4 -66v-203h-150v486h150v-78h2q24 45 57 67.5t83 22.5q13 0 26 -1t24 -4v-137q-16 5 -31.5 7.5t-32.5 2.5q-43 0 -68 -12t-38 -33zM54 549v96h340v-96h-340zM282 -72q26 -23 26 -59t-24 -61t-61 -25q-18 0 -33 7t-26 19t-17.5 27.5t-6.5 32.5
q0 16 6.5 31t17.5 26t25.5 18t31.5 7q35 0 61 -23z" />
    <glyph glyph-name="uni1E5E" unicode="&#x1e5e;" horiz-adv-x="648" 
d="M534 663q36 -25 57.5 -66.5t21.5 -103.5q0 -75 -39 -127.5t-114 -66.5l180 -299h-187l-148 283h-77v-283h-156v708h274q54 0 102.5 -10.5t85.5 -34.5zM440 537q-11 16 -28 24.5t-39 11.5t-43 3h-102v-161h92q21 0 44.5 1.5t42.5 9t31.5 23.5t12.5 45q0 27 -11 43z
M186 -49h340v-96h-340v96z" />
    <glyph glyph-name="uni1E5F" unicode="&#x1e5f;" horiz-adv-x="407" 
d="M371 497q13 -1 24 -4v-137q-16 5 -31.5 7.5t-32.5 2.5q-43 0 -68 -12t-38.5 -33.5t-17.5 -51.5t-4 -66v-203h-150v486h150v-78h2q24 45 57 67.5t83 22.5q13 0 26 -1zM54 -145v96h340v-96h-340z" />
    <glyph glyph-name="uni1E60" unicode="&#x1e60;" 
d="M257 -18q-69 0 -128 21t-110 68l111 122q24 -32 60.5 -49.5t75.5 -17.5q19 0 38.5 4.5t35 13.5t25 23t9.5 33q0 32 -24.5 50.5t-61.5 31.5t-80 26t-80 35t-61.5 58t-24.5 95q0 57 22.5 100t60 72t86.5 43.5t101 14.5q60 0 116 -17t101 -57l-107 -117q-19 24 -51.5 35.5
t-61.5 11.5q-17 0 -35 -4t-34 -12.5t-26 -22.5t-10 -34q0 -32 24 -49t60.5 -29t78.5 -24t78.5 -34t60.5 -59t24 -99q0 -59 -22 -103t-59.5 -73t-87 -43t-104.5 -14zM332 921q26 -23 26 -59t-24 -61t-61 -25q-18 0 -33 7t-26 19t-17.5 27.5t-6.5 32.5q0 16 6.5 31t17.5 26
t25.5 18t31.5 7q35 0 61 -23z" />
    <glyph glyph-name="uni1E61" unicode="&#x1e61;" horiz-adv-x="463" 
d="M224 182q-29 6 -61.5 13.5t-61 22.5t-47 42.5t-18.5 73.5q0 43 17.5 74t46 51t65.5 29.5t75 9.5q48 0 97 -14t83 -50l-92 -91q-33 41 -87 41q-19 0 -37 -9t-18 -31q0 -18 18.5 -26.5t47 -15t61 -14t61 -23.5t47 -43.5t18.5 -73.5q0 -47 -20.5 -77.5t-52.5 -49t-72 -26
t-79 -7.5q-51 0 -103 14.5t-88 51.5l91 101q21 -26 46.5 -39.5t59.5 -13.5q26 0 47 7.5t21 27.5q0 19 -18.5 28.5t-46.5 16.5zM230 549q-18 0 -33 7t-26 19t-17.5 27.5t-6.5 32.5q0 16 6.5 31t17.5 26t25.5 18t31.5 7q35 0 61 -23t26 -59t-24 -61t-61 -25z" />
    <glyph glyph-name="uni1E62" unicode="&#x1e62;" 
d="M257 -18q-69 0 -128 21t-110 68l111 122q24 -32 60.5 -49.5t75.5 -17.5q19 0 38.5 4.5t35 13.5t25 23t9.5 33q0 32 -24.5 50.5t-61.5 31.5t-80 26t-80 35t-61.5 58t-24.5 95q0 57 22.5 100t60 72t86.5 43.5t101 14.5q60 0 116 -17t101 -57l-107 -117q-19 24 -51.5 35.5
t-61.5 11.5q-17 0 -35 -4t-34 -12.5t-26 -22.5t-10 -34q0 -32 24 -49t60.5 -29t78.5 -24t78.5 -34t60.5 -59t24 -99q0 -59 -22 -103t-59.5 -73t-87 -43t-104.5 -14zM332 -90q26 -23 26 -59t-24 -61t-61 -25q-18 0 -33 7t-26 19t-17.5 27.5t-6.5 32.5q0 16 6.5 31t17.5 26
t25.5 18t31.5 7q35 0 61 -23z" />
    <glyph glyph-name="uni1E63" unicode="&#x1e63;" horiz-adv-x="463" 
d="M224 182q-29 6 -61.5 13.5t-61 22.5t-47 42.5t-18.5 73.5q0 43 17.5 74t46 51t65.5 29.5t75 9.5q48 0 97 -14t83 -50l-92 -91q-33 41 -87 41q-19 0 -37 -9t-18 -31q0 -18 18.5 -26.5t47 -15t61 -14t61 -23.5t47 -43.5t18.5 -73.5q0 -47 -20.5 -77.5t-52.5 -49t-72 -26
t-79 -7.5q-51 0 -103 14.5t-88 51.5l91 101q21 -26 46.5 -39.5t59.5 -13.5q26 0 47 7.5t21 27.5q0 19 -18.5 28.5t-46.5 16.5zM230 -229q-18 0 -33 7t-26 19t-17.5 27.5t-6.5 32.5q0 16 6.5 31t17.5 26t25.5 18t31.5 7q35 0 61 -23t26 -59t-24 -61t-61 -25z" />
    <glyph glyph-name="uni1E64" unicode="&#x1e64;" 
d="M125 668q37 29 86 43.5t101 14.5q60 0 116 -17t101 -57l-107 -117q-19 24 -51.5 35.5t-61.5 11.5q-17 0 -35 -4t-34 -12.5t-26 -22.5t-10 -34q0 -32 24 -49t60.5 -29t78.5 -24t78.5 -34t60.5 -59t24 -99q0 -59 -22 -103t-59.5 -73t-87 -43t-104.5 -14q-69 0 -128 21
t-110 68l111 122q24 -32 60.5 -49.5t75.5 -17.5q19 0 38.5 4.5t35 13.5t25 23t9.5 33q0 32 -24.5 50.5t-61.5 31.5t-80 26t-80 35t-61.5 58t-24.5 95q0 57 22.5 100t60.5 72zM427 920l-173 -144h-132l101 144h204zM197 1087q6 15 17 26t25.5 18t31.5 7q35 0 61 -23t26 -59
t-24 -61t-61 -25q-18 0 -33 7t-26 19t-17.5 27.5t-6.5 32.5q0 16 7 31z" />
    <glyph glyph-name="uni1E65" unicode="&#x1e65;" horiz-adv-x="463" 
d="M204 375q-18 -9 -18 -31q0 -18 18.5 -26.5t47 -15t61 -14t61 -23.5t47 -43.5t18.5 -73.5q0 -47 -20.5 -77.5t-52.5 -49t-72 -26t-79 -7.5q-51 0 -103 14.5t-88 51.5l91 101q21 -26 46.5 -39.5t59.5 -13.5q26 0 47 7.5t21 27.5q0 19 -18.5 28.5t-47 16t-61 14t-61 22.5
t-47 42.5t-18.5 73.5q0 43 17.5 74t46 51t65.5 29.5t75 9.5q48 0 97 -14t83 -50l-92 -91q-33 41 -87 41q-19 0 -37 -9zM79 549l101 144h204l-173 -144h-132zM154 796q-7 15 -7 32q0 16 6.5 31t17.5 26t25.5 18t31.5 7q35 0 61 -23t26 -59t-24 -61t-61 -25q-18 0 -33 7
t-26 19t-17 28z" />
    <glyph glyph-name="uni1E66" unicode="&#x1e66;" 
d="M125 668q37 29 86 43.5t101 14.5q60 0 116 -17t101 -57l-107 -117q-19 24 -51.5 35.5t-61.5 11.5q-17 0 -35 -4t-34 -12.5t-26 -22.5t-10 -34q0 -32 24 -49t60.5 -29t78.5 -24t78.5 -34t60.5 -59t24 -99q0 -59 -22 -103t-59.5 -73t-87 -43t-104.5 -14q-69 0 -128 21
t-110 68l111 122q24 -32 60.5 -49.5t75.5 -17.5q19 0 38.5 4.5t35 13.5t25 23t9.5 33q0 32 -24.5 50.5t-61.5 31.5t-80 26t-80 35t-61.5 58t-24.5 95q0 57 22.5 100t60.5 72zM276 842l62 78h135l-119 -144h-163l-116 144h138zM190 1056q0 16 6.5 31t17.5 26t25.5 18t31.5 7
q35 0 61 -23t26 -59t-24 -61t-61 -25q-18 0 -33 7t-26 19t-17.5 27.5t-6.5 32.5z" />
    <glyph glyph-name="uni1E67" unicode="&#x1e67;" horiz-adv-x="463" 
d="M204 375q-18 -9 -18 -31q0 -18 18.5 -26.5t47 -15t61 -14t61 -23.5t47 -43.5t18.5 -73.5q0 -47 -20.5 -77.5t-52.5 -49t-72 -26t-79 -7.5q-51 0 -103 14.5t-88 51.5l91 101q21 -26 46.5 -39.5t59.5 -13.5q26 0 47 7.5t21 27.5q0 19 -18.5 28.5t-47 16t-61 14t-61 22.5
t-47 42.5t-18.5 73.5q0 43 17.5 74t46 51t65.5 29.5t75 9.5q48 0 97 -14t83 -50l-92 -91q-33 41 -87 41q-19 0 -37 -9zM32 693h138l63 -78l62 78h135l-119 -144h-163zM197 749q-15 7 -26 19t-17.5 27.5t-6.5 32.5q0 16 6.5 31t17.5 26t25.5 18t31.5 7q35 0 61 -23t26 -59
t-24 -61t-61 -25q-18 0 -33 7z" />
    </font>
</defs>
</svg>
